<svg enable-background="new 0 0 64 64" height="512" viewBox="0 0 64 64" width="512" xmlns="http://www.w3.org/2000/svg"><path d="m43.5 37.5s5 2 9 5 4 7 4 12 0 8 0 8h-43s0-4 0-8 0-10 4-12 7-3 7-3z" fill="#e678a0"/><path d="m13.5 62.5h43s0-.708 0-2h-43z" fill="#d2648c"/><path d="m52.5 42.5c-4-3-9-5-9-5l-19 2s-3 1-7 3-4 8-4 12v2c0-4 0-10 4-12s7-3 7-3l19-2s5 2 9 5 4 7 4 12c0-.626 0-1.29 0-2 0-5 0-9-4-12z" fill="#fa8cb4"/><path d="m46.5 63c-.276 0-.5-.224-.5-.5v-12c0-.276.224-.5.5-.5s.5.224.5.5v12c0 .276-.224.5-.5.5z" fill="#d2648c"/><path d="m17.5 63c-.276 0-.5-.224-.5-.5v-12c0-.276.224-.5.5-.5s.5.224.5.5v12c0 .276-.224.5-.5.5z" fill="#d2648c"/><path d="m30.5 63c-.276 0-.5-.224-.5-.5v-12c0-.276.224-.5.5-.5s.5.224.5.5v12c0 .276-.224.5-.5.5z" fill="#d2648c"/><path d="m29.445 34.5v9l1.555 5.5 3-5 5.5-.5v-16.76z" fill="#c88c5a"/><path d="m29.444 44c-.276 0-.5-.224-.5-.5v-9c0-.276.224-.5.5-.5s.5.224.5.5v9c0 .276-.223.5-.5.5z" fill="#785ae6"/><path d="m29.445 36.412s-3.945 1.088-4.945 4.088c-.544 1.633-1.089 3.86-1.472 5.549-.054.236.267.353.385.142.495-.887 1.19-1.691 2.087-1.691 2 0 5 6 5 6z" fill="#e678a0"/><path d="m29.585 38.281-.14-1.869s-3.945 1.088-4.945 4.088c-.084.253-.169.525-.253.802 1.676-1.372 4.051-2.477 5.338-3.021z" fill="#fa8cb4"/><path d="m30.5 51c-.186 0-.361-.104-.447-.276-1.189-2.377-3.388-5.724-4.553-5.724-.702 0-1.285.78-1.65 1.435-.174.312-.54.448-.876.319-.329-.126-.512-.469-.433-.815.146-.645.257-1.359.374-2.115.183-1.182.372-2.403.717-3.437 1.073-3.22 5.498-4.409 5.687-4.458.143-.037.297-.01.417.077.12.086.196.222.208.369l1.056 14.088c.018.238-.136.456-.366.52-.045.011-.09.017-.134.017zm-5-7c1.482 0 3.205 2.378 4.33 4.249l-.837-11.167c-1.16.413-3.719 1.54-4.412 3.621-.318.954-.501 2.133-.678 3.274-.046.294-.091.582-.137.862.529-.558 1.109-.839 1.734-.839z" fill="#d2648c"/><path d="m30.499 51c-.259 0-.478-.2-.498-.462l-1.008-13.457c-.973.344-2.924 1.188-3.885 2.671-.15.232-.459.298-.692.147-.231-.15-.297-.46-.147-.691 1.519-2.341 4.907-3.243 5.05-3.28.146-.037.297-.008.417.077.12.086.196.222.208.369l1.056 14.088c.021.275-.187.516-.462.536-.014.002-.026.002-.039.002z" fill="#785ae6"/><path d="m39.5 44c-.276 0-.5-.224-.5-.5v-16.76c0-.276.224-.5.5-.5s.5.224.5.5v16.76c0 .276-.224.5-.5.5z" fill="#785ae6"/><path d="m30.5 50.5s3-6 5-9 5-7 5-7l3 3s-.642 5.78-1.412 9.62c-.168.84-1.266 1.098-1.772.407-1.827-2.495-5.571-5.516-9.816 2.973z" fill="#e678a0"/><path d="m43.261 39.281c.149-1.068.239-1.781.239-1.781l-3-3s-.398.531-.997 1.346z" fill="#fa8cb4"/><path d="m30.5 51c-.075 0-.151-.017-.224-.053-.247-.124-.347-.424-.224-.671h.001c.004-.009.009-.017.013-.026.25-.499 3.071-6.107 5.018-9.026 1.984-2.977 4.986-6.982 5.016-7.022.087-.116.221-.188.365-.199.144-.008.287.042.389.145l3 3c.107.107.16.258.144.409-.007.058-.654 5.846-1.419 9.663-.118.591-.56 1.04-1.152 1.17-.585.126-1.163-.088-1.513-.566-.862-1.178-2.215-2.56-3.833-2.418-1.693.144-3.399 1.893-5.073 5.2-.036.074-.058.115-.06.12-.089.173-.265.274-.448.274zm5.801-6.605c1.533 0 3.055.975 4.419 2.837.164.223.397.2.49.18.076-.017.328-.095.388-.39.669-3.336 1.248-8.211 1.378-9.338l-2.42-2.42c-.846 1.139-3.066 4.155-4.64 6.515-.63.945-1.366 2.202-2.075 3.474.706-.5 1.426-.782 2.155-.844.102-.01.203-.014.305-.014z" fill="#d2648c"/><path d="m30.5 51c-.075 0-.151-.017-.224-.053-.247-.124-.347-.424-.224-.671.123-.246 3.037-6.062 5.031-9.054 1.984-2.977 4.986-6.982 5.016-7.022.087-.116.221-.188.365-.199.144-.008.287.042.389.145l3 3c.195.195.195.512 0 .707s-.512.195-.707 0l-2.591-2.591c-.846 1.139-3.066 4.155-4.64 6.515-1.96 2.939-4.938 8.887-4.969 8.946-.087.176-.263.277-.446.277z" fill="#785ae6"/><circle cx="33" cy="52" fill="#f0dc78" r="1"/><circle cx="33" cy="59" fill="#f0dc78" r="1"/><path d="m56.5 63h-43c-.276 0-.5-.224-.5-.5v-8c0-4.105 0-10.309 4.276-12.447 3.985-1.993 7.035-3.017 7.065-3.027.262-.086.545.054.633.316.087.262-.055.545-.316.632-.029.01-3.017 1.014-6.935 2.973-3.723 1.862-3.723 7.694-3.723 11.553v7.5h42v-7.5c0-4.889 0-8.75-3.8-11.6-3.898-2.924-8.837-4.916-8.886-4.936-.257-.103-.381-.394-.278-.65.102-.256.393-.382.649-.279.207.083 5.107 2.059 9.114 5.064 4.201 3.151 4.201 7.438 4.201 12.401v8c0 .276-.224.5-.5.5z" fill="#785ae6"/><path d="m21.5 13.5v15c0 3.314 2.686 6 6 6h5c3.866 0 7-3.134 7-7v-1h3c1.105 0 2-.895 2-2v-3c0-1.105-.895-2-2-2h-2v-6z" fill="#e1a271"/><path d="m39.04 30.5c2.54 1 3.46-1 3.46-4h-3.293z" fill="#cb783f"/><path d="m39.5 19.5 4.879.518.593-.518c.312-.942.528-1.935.528-3 0-8-7-8-7-8-2-6-9-3-11-4-4.817-2.408-11-2-12 3s2 9 6 9c10 0 12-3 12-3 0 2 2 2 2 4s2 2 4 2z" fill="#cb783f"/><path d="m15.5 9.5c1-5 7.183-5.408 12-3 2 1 9-2 11 4 0 0 6.339.017 6.94 6.933.035-.306.06-.615.06-.933 0-8-7-8-7-8-2-6-9-3-11-4-4.817-2.408-11-2-12 3-.202 1.01-.234 1.975-.134 2.878.032-.289.075-.581.134-.878z" fill="#dc8c50"/><path d="m40.842 18.977c-.197-.852-.938-1.45-1.81-1.508-1.407-.094-2.532-.469-2.532-1.969 0-1.556-1.815-1.901-2.621-2.919-.331-.418-.892-.545-1.34-.255-1.373.888-4.491 2.174-11.039 2.174-3.192 0-5.741-2.551-6.134-6.122-.504 4.582 2.371 8.122 6.134 8.122 10 0 12-3 12-3 0 2 2 2 2 4s2 2 4 2l1.5.159z" fill="#be6432"/><g fill="#785ae6"><path d="m30.5 31h-5c-.276 0-.5-.224-.5-.5s.224-.5.5-.5h5c.402 0 .494-.275.5-.506.007-.271.229-.491.5-.491h.006c.274.004.494.224.494.497 0 .603-.399 1.5-1.5 1.5z"/><path d="m30.5 24c-.276 0-.5-.224-.5-.5v-2c0-.276.224-.5.5-.5s.5.224.5.5v2c0 .276-.224.5-.5.5z"/><path d="m23.5 24c-.276 0-.5-.224-.5-.5v-2c0-.276.224-.5.5-.5s.5.224.5.5v2c0 .276-.224.5-.5.5z"/><path d="m33.5 21c-.128 0-.256-.049-.354-.146-2.586-2.585-4.228-1.062-4.296-.997-.197.192-.513.188-.706-.008-.191-.196-.192-.508.002-.702.023-.023 2.394-2.314 5.707 1 .195.195.195.512 0 .707-.097.097-.225.146-.353.146z"/><path d="m24.5 20c-.127 0-.254-.048-.352-.145-.112-.108-1.126-1.036-2.344-.083-.215.169-.532.132-.701-.086-.171-.217-.132-.532.086-.702 1.556-1.216 3.077-.425 3.664.162.195.195.195.512 0 .707-.097.098-.225.147-.353.147z"/><path d="m33.5 26h-6c-.276 0-.5-.224-.5-.5v-3c0-.276.224-.5.5-.5s.5.224.5.5v2.5h5v-2.5c0-.276.224-.5.5-.5h5c.276 0 .5.224.5.5s-.224.5-.5.5h-4.5v2.5c0 .276-.224.5-.5.5z"/><path d="m42.5 27h-3c-.276 0-.5-.224-.5-.5s.224-.5.5-.5h3c.827 0 1.5-.673 1.5-1.5v-3c0-.827-.673-1.5-1.5-1.5h-2c-.276 0-.5-.224-.5-.5s.224-.5.5-.5h2c1.379 0 2.5 1.122 2.5 2.5v3c0 1.378-1.121 2.5-2.5 2.5z"/><path d="m32.5 35h-5c-3.584 0-6.5-2.916-6.5-6.5v-12c0-.276.224-.5.5-.5s.5.224.5.5v12c0 3.033 2.468 5.5 5.5 5.5h5c.276 0 .5.224.5.5s-.224.5-.5.5z"/><path d="m40.245 31.261c-.274 0-.565-.042-.873-.124-.267-.072-.425-.346-.353-.613.071-.266.344-.423.612-.353.59.159 1.046.106 1.394-.16.629-.482.975-1.729.975-3.511 0-.276.224-.5.5-.5s.5.224.5.5c0 2.162-.46 3.61-1.366 4.305-.397.303-.862.456-1.389.456z"/><path d="m44.416 21.45c-.066 0-.134-.013-.198-.041-.253-.109-.37-.403-.261-.657.516-1.196 1.043-2.636 1.043-4.252 0-7.415-6.234-7.5-6.5-7.5-.215 0-.406-.138-.475-.342-1.28-3.842-4.797-3.646-7.63-3.487-1.285.072-2.402.134-3.119-.224-3.06-1.53-6.488-1.81-8.74-.709-1.378.674-2.234 1.805-2.546 3.36-.485 2.426.005 4.755 1.345 6.389 1.064 1.298 2.543 2.013 4.165 2.013.276 0 .5.224.5.5s-.224.5-.5.5c-1.927 0-3.681-.845-4.938-2.379-1.53-1.867-2.096-4.498-1.552-7.219.37-1.851 1.438-3.255 3.088-4.062 2.518-1.232 6.296-.952 9.626.713.48.24 1.518.183 2.616.12 2.764-.155 6.907-.388 8.521 3.85 1.496.139 7.139 1.152 7.139 8.477 0 1.798-.568 3.358-1.125 4.648-.081.189-.266.302-.459.302z"/></g><g fill="#be6432"><path d="m38.5 15c-.225 0-.429-.151-.485-.379-.304-1.217-.827-2.04-1.555-2.445-.876-.488-1.796-.205-1.805-.201-.259.084-.544-.059-.629-.32-.086-.261.055-.542.315-.629.054-.019 1.322-.427 2.588.268.987.542 1.679 1.58 2.056 3.085.066.268-.096.539-.364.606-.04.01-.081.015-.121.015z"/><path d="m41.5 14c-.225 0-.429-.151-.485-.379-.304-1.217-.827-2.04-1.555-2.445-.876-.488-1.797-.205-1.805-.201-.261.087-.544-.059-.629-.32-.086-.261.055-.542.315-.629.054-.019 1.322-.427 2.588.268.987.542 1.679 1.58 2.056 3.085.066.268-.096.539-.364.606-.04.01-.081.015-.121.015z"/><path d="m35.5 10c-.128 0-.256-.049-.354-.146-.002-.003-.946-.854-3.646-.854-1.205 0-2.228-.113-3.125-.345-.268-.069-.428-.342-.359-.609s.34-.433.609-.359c.814.211 1.755.313 2.875.313 3.117 0 4.236 1.029 4.354 1.146.195.195.195.512 0 .707-.098.098-.226.147-.354.147z"/><path d="m26.5 8c-.128 0-.256-.049-.354-.146-.631-.632-1.565-1.118-2.777-1.446-.267-.072-.424-.346-.352-.613.071-.267.346-.425.613-.352 1.382.374 2.467.947 3.223 1.704.195.195.195.512 0 .707-.097.097-.225.146-.353.146z"/><path d="m31.5 12c-.075 0-.151-.017-.224-.053-1.87-.935-3.892.146-5.13-1.094-2.342-2.342-6.541-1.861-6.586-1.857-.28.038-.523-.162-.557-.436-.033-.274.161-.523.435-.557.19-.024 4.722-.55 7.415 2.143.75.75 2.778-.14 4.87.906.247.124.347.424.224.671-.088.176-.264.277-.447.277z"/><path d="m38.5 25h-2c-.276 0-.5-.224-.5-.5s.224-.5.5-.5h2c.276 0 .5.224.5.5s-.224.5-.5.5z"/><path d="m38.5 21h-2c-.276 0-.5-.224-.5-.5s.224-.5.5-.5h2c.276 0 .5.224.5.5s-.224.5-.5.5z"/><path d="m37.5 27h-1c-.276 0-.5-.224-.5-.5s.224-.5.5-.5h1c.276 0 .5.224.5.5s-.224.5-.5.5z"/></g><path d="m23.5 26h-4c-.276 0-.5-.224-.5-.5v-5c0-.276.224-.5.5-.5s.5.224.5.5v4.5h3.5c.276 0 .5.224.5.5s-.224.5-.5.5z" fill="#785ae6"/><path d="m25.5 28c-1.153 0-2.5-.393-2.5-1.5 0-1.064 1.71-4.538 2.053-5.224.124-.247.425-.346.671-.224.247.124.347.424.224.671-.809 1.618-1.948 4.169-1.948 4.777 0 .301.902.5 1.5.5.276 0 .5.224.5.5s-.224.5-.5.5z" fill="#785ae6"/></svg>