<svg enable-background="new 0 0 64 64" height="512" viewBox="0 0 64 64" width="512" xmlns="http://www.w3.org/2000/svg"><path d="m39.626 19.601c-.457 2.069-1.332 4-2.626 4-2 0-2-6-2-6s-8 0-10 0c-.665 0-2.169.196-3.565.131-2.995-.138-6.435-2.126-6.435-6.131 0-6 2-8 3-7s3 3 4 3c0 0-1.581-2.419 0-4 1-1 3 4 7 4s15-1 15 6-2 12-2 15-.387 2.911-3.193 2.911z" fill="#cb783f"/><path d="m41.931 27.601c-.297 1.898-.572 1.913-2.842 1.911l-.282 2c2.807 0 3.193.089 3.193-2.911 0-.308.033-.65.07-1z" fill="#be6432"/><path d="m35 16.601c0-.552-.448-1-1-1h-9c-.665 0-2.169.196-3.565.131-2.816-.13-6.024-1.896-6.398-5.436-.022.415-.037.844-.037 1.305 0 4.005 3.44 5.992 6.435 6.131 1.396.065 2.9-.131 3.565-.131h10z" fill="#be6432"/><path d="m39.131 32.012c-.051 0-.103 0-.155 0h-.169c-.276 0-.5-.224-.5-.5s.224-.5.5-.5h.171c.971.004 1.688.002 2.054-.362.315-.315.469-.985.469-2.049 0-.578.069-1.255.216-2.13.045-.272.297-.457.576-.41.272.046.456.304.41.576-.138.818-.202 1.442-.202 1.964 0 1.38-.235 2.229-.762 2.756-.629.627-1.545.655-2.608.655z" fill="#785ae6"/><path d="m25.5 38.5s-4 2-8 4-4 8-4 12 0 8 0 8h43s0-3 0-8 0-9-4-12-9-5-9-5z" fill="#f0f0e6"/><path d="m52.5 42.5c-4-3-9-5-9-5l-18 1s-4 2-8 4-4 8-4 12v2c0-4 0-10 4-12s8-4 8-4l18-1s5 2 9 5 4 7 4 12c0-.626 0-1.29 0-2 0-5 0-9-4-12z" fill="#fffffa"/><g fill="#dcdcd2"><path d="m40 45.182c-3.927-.857-3.949-4.522-5.5-4.682s-4 6-4 6 1.462-7.794 4-9c.924-.439 2.252 2.623 2.755 3.68s2.745 4.002 2.745 4.002z"/><path d="m30.5 63c-.276 0-.5-.224-.5-.5v-16c0-.276.224-.5.5-.5s.5.224.5.5v16c0 .276-.224.5-.5.5z"/><path d="m45 54h-10v-3h10zm-9-1h8v-1h-8z"/><path d="m45 63h-10v-10h10zm-9-1h8v-8h-8z"/></g><path d="m30.5 46.5s2-9 4-9 3 6 5 7 2-1 3-4 1-4 1-4-1-6-4-6-10 0-12 4-3 7-3 9 2-4 3-4 3 7 3 7z" fill="#f0f0e6"/><path d="m30.5 46.5s2-9 4-9c1.385 0 3.976-1.855 5-2.97l-1-3.79-10.055 3.76v7l1.019 1.755c.582 1.661 1.036 3.245 1.036 3.245z" fill="#ffb4be"/><path d="m30.5 47c-.217 0-.417-.143-.48-.362-.083-.289-2.02-7.091-2.02-9.138 0-2.182 1.1-3.307 1.146-3.354.195-.195.512-.195.707 0 .194.194.195.509.003.704-.035.037-.856.905-.856 2.65 0 1.908 1.961 8.793 1.981 8.862.076.266-.078.543-.344.618-.046.014-.092.02-.137.02z" fill="#dcdcd2"/><path d="m34.5 38c-.276 0-.5-.224-.5-.5s.224-.5.5-.5c1.676 0 3.872-1.508 4.433-3.043.271-.744.113-1.37-.47-1.862-.211-.178-.238-.493-.06-.704s.493-.238.705-.06c.912.769 1.184 1.822.765 2.969-.708 1.936-3.269 3.7-5.373 3.7z" fill="#dcdcd2"/><path d="m30.5 47c-.036 0-.072-.004-.109-.012-.27-.061-.439-.327-.38-.597.49-2.203 2.261-9.391 4.489-9.391 1.386 0 2.219 1.814 3.101 3.735.63 1.373 1.345 2.929 2.123 3.317.382.19.662.248.832.177.378-.167.647-1.11.959-2.203.146-.51.308-1.077.511-1.685.49-1.472.729-2.437.843-2.986.056-.271.32-.453.591-.388.27.056.444.32.388.591-.173.838-.467 1.881-.874 3.1-.197.593-.355 1.146-.498 1.644-.413 1.443-.71 2.487-1.519 2.843-.46.202-1.011.137-1.682-.197-1.092-.546-1.817-2.124-2.584-3.795-.644-1.405-1.446-3.153-2.191-3.153-.956 0-2.587 4.451-3.512 8.608-.051.234-.259.392-.488.392z" fill="#dcdcd2"/><path d="m30.5 47c-.217 0-.417-.143-.48-.362-.81-2.835-1.99-6.074-2.558-6.609-.296.26-1.002 1.671-1.389 2.445-.746 1.493-1.021 2.047-1.587 1.92-.486-.116-.486-.681-.486-.894 0-1.375.425-3.123 1.299-5.344.102-.257.393-.386.648-.281.257.101.383.391.282.648-.54 1.369-.903 2.565-1.088 3.574.012-.024.024-.048.036-.071 1.03-2.057 1.594-3.026 2.323-3.026.341 0 1.377 0 3.481 7.362.076.266-.078.543-.344.618-.046.014-.092.02-.137.02zm-5.49-3.325h.01z" fill="#dcdcd2"/><path d="m25.765 38.84c-.061 0-.123-.011-.183-.035-.257-.101-.383-.391-.282-.648.459-1.165 1.049-2.471 1.753-3.88 2.138-4.277 9.362-4.277 12.447-4.277 3.385 0 4.45 6.155 4.493 6.418.007.136 0 .44-.145 1.141-.056.271-.323.448-.591.388-.271-.056-.444-.32-.389-.591.126-.606.132-.859.132-.861-.253-1.466-1.39-5.495-3.5-5.495-2.9 0-9.691 0-11.553 3.724-.691 1.383-1.27 2.661-1.717 3.8-.078.196-.266.316-.465.316z" fill="#785ae6"/><path d="m13.5 62.5h43s0-.708 0-2h-43z" fill="#dcdcd2"/><path d="m47.5 63c-.276 0-.5-.224-.5-.5v-12c0-.276.224-.5.5-.5s.5.224.5.5v12c0 .276-.224.5-.5.5z" fill="#dcdcd2"/><path d="m17.5 63c-.276 0-.5-.224-.5-.5v-12c0-.276.224-.5.5-.5s.5.224.5.5v12c0 .276-.224.5-.5.5z" fill="#dcdcd2"/><path d="m56.5 63h-43c-.276 0-.5-.224-.5-.5v-8c0-4.105 0-10.309 4.276-12.447l8-4c.247-.124.546-.022.671.224.124.247.023.547-.224.671l-8 4c-3.723 1.861-3.723 7.693-3.723 11.552v7.5h42v-7.5c0-4.889 0-8.75-3.8-11.6-3.898-2.924-8.836-4.916-8.886-4.937-.256-.103-.381-.394-.279-.649.103-.257.396-.382.65-.278.207.082 5.107 2.059 9.114 5.063 4.201 3.151 4.201 7.437 4.201 12.401v8c0 .276-.224.5-.5.5z" fill="#785ae6"/><path d="m39.626 19.601c-.457 2.069-1.332 4-2.626 4-2 0-2-6-2-6s-8 0-10 0c-.655 0-2.123.189-3.5.133v10.766c0 3.314 2.686 6 6 6h5c2.847 0 5.292-1.703 6.386-4.143z" fill="#ffc8d2"/><path d="m43.415 20.31c-.491 2.984-1.133 5.396-1.341 7.234 1.382-.268 2.425-1.482 2.425-2.942v-2c.001-.926-.426-1.742-1.084-2.292z" fill="#ffcf9b"/><path d="m22 5.601c1-1 3 4 7 4 3.859 0 14.228-.928 14.956 5.29.015-.43.044-.844.044-1.29 0-7-11-6-15-6s-6-5-7-4c-.866.866-.782 1.981-.53 2.815.11-.284.276-.561.53-.815z" fill="#dc8c50"/><path d="m18 6.601c1 1 3 3 4 3 0 0-.684-1.055-.698-2.226-1.057-.539-2.499-1.971-3.302-2.774-1-1-3 1-3 7 0 .196.031.368.047.552.294-4.863 2.039-6.466 2.953-5.552z" fill="#dc8c50"/><path d="m39.626 18.601c-.457 2.069-1.332 5-2.626 5-2 0-2-7-2-7z" fill="#cb783f"/><g fill="#785ae6"><path d="m43.431 21c-.025 0-.051-.002-.077-.006-.273-.042-.46-.297-.418-.57.26-1.688.563-4.489.563-6.823 0-1.324-.415-2.374-1.269-3.21-2.559-2.506-8.373-2.383-11.846-2.311-.518.011-.986.021-1.384.021-2.566 0-4.36-1.868-5.547-3.105-.405-.422-.959-.999-1.161-1.027-1.21 1.258.071 3.275.126 3.36.1.153.107.35.02.511s-.255.261-.438.261c-1.114 0-2.831-1.624-4.354-3.146-.105-.106-.199-.124-.334-.068-.728.301-1.812 2.338-1.812 6.714 0 2.771 1.88 4.52 5.588 5.199.271.05.451.311.401.582-.049.272-.308.448-.582.402-4.191-.77-6.407-2.907-6.407-6.184 0-4.896 1.309-7.175 2.43-7.639.511-.211 1.031-.109 1.424.285.496.496 1.704 1.703 2.653 2.378-.307-.965-.429-2.309.64-3.378.183-.183.408-.278.652-.278h.009c.591.006 1.126.562 1.867 1.334 1.133 1.181 2.685 2.799 4.825 2.799.393 0 .853-.01 1.364-.021 3.631-.078 9.706-.205 12.566 2.596 1.042 1.02 1.569 2.34 1.569 3.925 0 2.391-.31 5.252-.575 6.976-.037.246-.25.423-.493.423z"/><path d="m23.5 25c-.276 0-.5-.224-.5-.5v-3c0-.276.224-.5.5-.5s.5.224.5.5v3c0 .276-.224.5-.5.5z"/><path d="m33.5 21c-.128 0-.256-.049-.354-.146-2.588-2.587-4.228-1.063-4.296-.997-.198.19-.514.188-.706-.008-.192-.195-.192-.508.001-.702.023-.023 2.391-2.315 5.707 1 .195.195.195.512 0 .707-.096.097-.224.146-.352.146z"/><path d="m24.5 20c-.127 0-.254-.048-.352-.145-.111-.108-1.123-1.033-2.343-.083-.218.172-.532.131-.702-.086-.17-.218-.131-.531.086-.701 1.554-1.218 3.076-.427 3.664.161.195.195.195.512 0 .707-.097.098-.225.147-.353.147z"/><path d="m32.5 35h-5c-3.584 0-6.5-2.916-6.5-6.5v-11.268c0-.276.224-.5.5-.5s.5.224.5.5v11.268c0 3.032 2.467 5.5 5.5 5.5h5c.276 0 .5.224.5.5s-.224.5-.5.5z"/><path d="m30.5 31h-5c-.276 0-.5-.224-.5-.5s.224-.5.5-.5h5c.403 0 .494-.275.5-.506.007-.271.229-.491.5-.491.002 0 .004 0 .006.001.274.003.494.223.494.496 0 .603-.399 1.5-1.5 1.5z"/><path d="m25.5 28c-1.153 0-2.5-.393-2.5-1.5 0-1.064 1.71-4.538 2.053-5.224.124-.246.423-.349.671-.224.247.124.347.424.224.671-.809 1.618-1.948 4.169-1.948 4.777 0 .301.903.5 1.5.5.276 0 .5.224.5.5s-.224.5-.5.5z"/><path d="m30.5 25c-.276 0-.5-.224-.5-.5v-3c0-.276.224-.5.5-.5s.5.224.5.5v3c0 .276-.224.5-.5.5z"/><path d="m38.425 31.729c-.091 0-.183-.024-.266-.077-.233-.147-.304-.456-.156-.689.652-1.036.997-2.234.997-3.463v-1c0-.276.224-.5.5-.5s.5.224.5.5v1c0 1.419-.398 2.801-1.152 3.996-.095.15-.257.233-.423.233z"/></g><path d="m38.135 27.601h2.865c1.657 0 3-1.343 3-3v-2c0-1.657-1.343-3-3-3h-1.5z" fill="#ffc8d2"/><path d="m41 28.101h-2c-.276 0-.5-.224-.5-.5s.224-.5.5-.5h2c1.378 0 2.5-1.121 2.5-2.5v-2c0-1.379-1.122-2.5-2.5-2.5h-1c-.276 0-.5-.224-.5-.5s.224-.5.5-.5h1c1.93 0 3.5 1.57 3.5 3.5v2c0 1.929-1.57 3.5-3.5 3.5z" fill="#785ae6"/></svg>