<svg enable-background="new 0 0 64 64" height="512" viewBox="0 0 64 64" width="512" xmlns="http://www.w3.org/2000/svg"><path d="m39.626 19.601c-.457 2.069-1.332 4-2.626 4-2 0-2-6-2-6s-8 0-10 0c-.665 0-2.169.196-3.565.131-2.995-.138-6.435-2.126-6.435-6.131 0-6 2-8 3-7s3 3 4 3c0 0-1.581-2.419 0-4 1-1 3 4 7 4s15-1 15 6-2 12-2 15-.387 2.911-3.193 2.911z" fill="#cb783f"/><path d="m41.931 27.601c-.297 1.898-.572 1.913-2.842 1.911l-.282 2c2.807 0 3.193.089 3.193-2.911 0-.308.033-.65.07-1z" fill="#be6432"/><path d="m35 16.601c0-.552-.448-1-1-1h-9c-.665 0-2.169.196-3.565.131-2.816-.13-6.024-1.896-6.398-5.436-.022.415-.037.844-.037 1.305 0 4.005 3.44 5.992 6.435 6.131 1.396.065 2.9-.131 3.565-.131h10z" fill="#be6432"/><path d="m39.131 32.012c-.051 0-.103 0-.154 0h-.17c-.276 0-.5-.224-.5-.5s.224-.5.5-.5h.171c.987.007 1.688.002 2.054-.362.315-.315.469-.985.469-2.049 0-.581.068-1.259.216-2.13.046-.272.312-.454.576-.41.272.046.456.305.41.576-.138.815-.202 1.439-.202 1.964 0 1.38-.235 2.229-.762 2.756-.63.627-1.545.655-2.608.655z" fill="#785ae6"/><path d="m25.5 38.5s-4 2-8 4-4 8-4 12 0 8 0 8h43s0-3 0-8 0-9-4-12-9-5-9-5z" fill="#f0f0e6"/><path d="m52.5 42.5c-4-3-9-5-9-5l-18 1s-4 2-8 4-4 8-4 12v2c0-4 0-10 4-12s8-4 8-4l18-1s5 2 9 5 4 7 4 12c0-.626 0-1.29 0-2 0-5 0-9-4-12z" fill="#fffffa"/><g fill="#dcdcd2"><path d="m40 45.182c-3.927-.857-3.949-4.522-5.5-4.682s-4 6-4 6 1.462-7.794 4-9c.924-.439 2.252 2.623 2.755 3.68s2.745 4.002 2.745 4.002z"/><path d="m30.5 63c-.276 0-.5-.224-.5-.5v-16c0-.276.224-.5.5-.5s.5.224.5.5v16c0 .276-.224.5-.5.5z"/><path d="m45 54h-10v-3h10zm-9-1h8v-1h-8z"/><path d="m45 63h-10v-10h10zm-9-1h8v-8h-8z"/></g><path d="m30.5 46.5s2-9 4-9 3 6 5 7 2-1 3-4 1-4 1-4-1-6-4-6-10 0-12 4-3 7-3 9 2-4 3-4 3 7 3 7z" fill="#f0f0e6"/><path d="m30.5 46.5s2-9 4-9c1.385 0 3.976-1.855 5-2.97l-1-3.79-10.055 3.76v7l1.019 1.755c.582 1.661 1.036 3.245 1.036 3.245z" fill="#c88c5a"/><path d="m30.5 47c-.218 0-.418-.143-.48-.362-.083-.289-2.02-7.091-2.02-9.138 0-2.182 1.1-3.307 1.146-3.354.195-.195.512-.195.707 0 .194.194.195.509.003.704-.035.037-.856.905-.856 2.65 0 1.908 1.961 8.793 1.98 8.862.076.266-.077.543-.343.618-.045.014-.092.02-.137.02z" fill="#dcdcd2"/><path d="m34.5 38c-.276 0-.5-.224-.5-.5s.224-.5.5-.5c1.676 0 3.871-1.508 4.433-3.043.271-.744.113-1.37-.47-1.862-.211-.178-.238-.493-.06-.704.18-.211.494-.236.704-.06.912.769 1.184 1.822.765 2.969-.708 1.936-3.268 3.7-5.372 3.7z" fill="#dcdcd2"/><path d="m30.5 47c-.035 0-.072-.004-.108-.012-.27-.061-.439-.327-.38-.597.49-2.203 2.26-9.391 4.488-9.391 1.386 0 2.219 1.814 3.101 3.735.631 1.373 1.346 2.929 2.123 3.317.383.19.663.252.832.177.378-.167.647-1.11.96-2.203.146-.51.308-1.077.51-1.685.493-1.478.73-2.439.844-2.985.055-.271.333-.45.59-.389.271.056.445.319.389.59-.171.833-.465 1.877-.873 3.101-.198.593-.355 1.146-.498 1.644-.412 1.443-.711 2.487-1.519 2.843-.461.201-1.013.137-1.682-.197-1.092-.546-1.817-2.124-2.584-3.795-.646-1.405-1.449-3.153-2.193-3.153-.956 0-2.588 4.451-3.512 8.608-.051.234-.259.392-.488.392z" fill="#dcdcd2"/><path d="m30.5 47c-.218 0-.418-.143-.48-.362-.811-2.835-1.99-6.074-2.558-6.609-.297.26-1.003 1.671-1.39 2.445-.748 1.495-1.034 2.044-1.587 1.92-.485-.116-.485-.681-.485-.894 0-1.374.425-3.121 1.3-5.343.101-.258.396-.385.647-.282.258.101.384.391.282.647-.539 1.37-.902 2.566-1.087 3.574.012-.023.023-.047.035-.07 1.029-2.057 1.594-3.026 2.323-3.026.341 0 1.377 0 3.48 7.362.076.266-.077.543-.343.618-.045.014-.092.02-.137.02zm-5.489-3.325h.01z" fill="#dcdcd2"/><path d="m25.765 38.84c-.061 0-.123-.011-.183-.035-.258-.101-.384-.391-.282-.647.454-1.157 1.044-2.462 1.753-3.881 2.138-4.277 9.362-4.277 12.447-4.277 3.385 0 4.449 6.155 4.493 6.418.007.136-.001.44-.146 1.141-.056.271-.327.448-.591.388-.27-.056-.444-.32-.388-.591.126-.606.132-.859.132-.861-.253-1.466-1.391-5.495-3.5-5.495-2.9 0-9.691 0-11.553 3.724-.695 1.392-1.273 2.67-1.718 3.799-.077.197-.265.317-.464.317z" fill="#785ae6"/><path d="m13.5 62.5h43s0-.708 0-2h-43z" fill="#dcdcd2"/><path d="m47.5 63c-.276 0-.5-.224-.5-.5v-12c0-.276.224-.5.5-.5s.5.224.5.5v12c0 .276-.224.5-.5.5z" fill="#dcdcd2"/><path d="m17.5 63c-.276 0-.5-.224-.5-.5v-12c0-.276.224-.5.5-.5s.5.224.5.5v12c0 .276-.224.5-.5.5z" fill="#dcdcd2"/><path d="m56.5 63h-43c-.276 0-.5-.224-.5-.5v-8c0-4.105 0-10.309 4.276-12.447l8-4c.247-.124.547-.023.671.224.123.247.023.547-.224.671l-8 4c-3.723 1.861-3.723 7.693-3.723 11.552v7.5h42v-7.5c0-4.889 0-8.75-3.8-11.6-3.898-2.924-8.837-4.916-8.886-4.937-.257-.103-.381-.394-.278-.649.102-.256.393-.381.649-.278.207.082 5.107 2.059 9.114 5.063 4.201 3.151 4.201 7.437 4.201 12.401v8c0 .276-.224.5-.5.5z" fill="#785ae6"/><path d="m39.626 19.601c-.457 2.069-1.332 4-2.626 4-2 0-2-6-2-6s-8 0-10 0c-.655 0-2.123.189-3.5.133v10.766c0 3.314 2.686 6 6 6h5c2.847 0 5.292-1.703 6.386-4.143z" fill="#e1a271"/><path d="m43.415 20.31c-.491 2.984-1.133 5.396-1.341 7.234 1.382-.268 2.425-1.482 2.425-2.942v-2c.001-.926-.426-1.742-1.084-2.292z" fill="#ffcf9b"/><path d="m22 5.601c1-1 3 4 7 4 3.859 0 14.228-.928 14.956 5.29.015-.43.044-.844.044-1.29 0-7-11-6-15-6s-6-5-7-4c-.866.866-.782 1.981-.53 2.815.11-.284.276-.561.53-.815z" fill="#dc8c50"/><path d="m18 6.601c1 1 3 3 4 3 0 0-.684-1.055-.698-2.226-1.057-.539-2.499-1.971-3.302-2.774-1-1-3 1-3 7 0 .196.031.368.047.552.294-4.863 2.039-6.466 2.953-5.552z" fill="#dc8c50"/><path d="m39.626 18.601c-.457 2.069-1.332 5-2.626 5-2 0-2-7-2-7z" fill="#cb783f"/><g fill="#785ae6"><path d="m43.432 21c-.025 0-.051-.002-.077-.006-.272-.042-.46-.297-.418-.57.26-1.688.563-4.489.563-6.823 0-1.324-.415-2.374-1.269-3.21-2.56-2.506-8.369-2.384-11.847-2.311-.518.011-.986.021-1.384.021-2.566 0-4.36-1.868-5.547-3.105-.405-.422-.96-.999-1.16-1.027-1.211 1.258.071 3.275.126 3.36.1.153.107.35.02.511-.087.16-.255.261-.439.261-1.114 0-2.831-1.624-4.354-3.146-.105-.105-.198-.125-.334-.068-.728.301-1.812 2.338-1.812 6.714 0 2.771 1.88 4.52 5.587 5.199.272.05.452.311.402.582-.051.272-.315.445-.582.402-4.191-.77-6.407-2.907-6.407-6.184 0-4.896 1.309-7.175 2.43-7.639.514-.213 1.03-.107 1.424.285.496.496 1.703 1.703 2.653 2.378-.308-.965-.43-2.309.64-3.378.183-.183.407-.278.651-.278h.01c.592.006 1.126.562 1.867 1.334 1.133 1.181 2.685 2.799 4.825 2.799.393 0 .853-.01 1.364-.021 3.629-.077 9.706-.205 12.566 2.596 1.041 1.02 1.569 2.34 1.569 3.925 0 2.391-.31 5.252-.575 6.976-.037.246-.25.423-.492.423z"/><path d="m23.5 25c-.276 0-.5-.224-.5-.5v-3c0-.276.224-.5.5-.5s.5.224.5.5v3c0 .276-.224.5-.5.5z"/><path d="m33.5 21c-.128 0-.256-.049-.354-.146-2.586-2.586-4.228-1.063-4.296-.997-.197.191-.513.189-.706-.008-.191-.195-.192-.508.002-.702.023-.022 2.394-2.313 5.707 1 .195.195.195.512 0 .707-.097.097-.225.146-.353.146z"/><path d="m24.5 20c-.127 0-.255-.048-.352-.145-.114-.111-1.126-1.033-2.344-.082-.215.169-.531.131-.702-.087-.17-.218-.131-.531.087-.702 1.556-1.215 3.077-.425 3.664.162.195.195.195.512 0 .707-.097.098-.225.147-.353.147z"/><path d="m32.5 35h-5c-3.584 0-6.5-2.916-6.5-6.5v-11.268c0-.276.224-.5.5-.5s.5.224.5.5v11.268c0 3.032 2.468 5.5 5.5 5.5h5c.276 0 .5.224.5.5s-.224.5-.5.5z"/><path d="m30.5 31h-5c-.276 0-.5-.224-.5-.5s.224-.5.5-.5h5c.402 0 .494-.275.5-.506.007-.271.229-.491.5-.491.002 0 .004 0 .006.001.274.003.494.223.494.496 0 .603-.399 1.5-1.5 1.5z"/><path d="m25.5 28c-1.153 0-2.5-.393-2.5-1.5 0-1.064 1.71-4.538 2.053-5.224.124-.247.425-.346.671-.224.247.124.347.424.224.671-.809 1.618-1.948 4.169-1.948 4.777 0 .301.902.5 1.5.5.276 0 .5.224.5.5s-.224.5-.5.5z"/><path d="m30.5 25c-.276 0-.5-.224-.5-.5v-3c0-.276.224-.5.5-.5s.5.224.5.5v3c0 .276-.224.5-.5.5z"/><path d="m38.425 31.729c-.092 0-.184-.024-.267-.077-.233-.147-.304-.456-.156-.689.653-1.035.998-2.233.998-3.463v-1c0-.276.224-.5.5-.5s.5.224.5.5v1c0 1.42-.398 2.802-1.152 3.996-.095.151-.258.233-.423.233z"/></g><path d="m38.135 27.601h2.865c1.657 0 3-1.343 3-3v-2c0-1.657-1.343-3-3-3h-1.5z" fill="#e1a271"/><path d="m41 28.101h-2c-.276 0-.5-.224-.5-.5s.224-.5.5-.5h2c1.379 0 2.5-1.121 2.5-2.5v-2c0-1.379-1.121-2.5-2.5-2.5h-1c-.276 0-.5-.224-.5-.5s.224-.5.5-.5h1c1.93 0 3.5 1.57 3.5 3.5v2c0 1.929-1.57 3.5-3.5 3.5z" fill="#785ae6"/></svg>