<svg enable-background="new 0 0 64 64" height="512" viewBox="0 0 64 64" width="512" xmlns="http://www.w3.org/2000/svg"><path d="m22.883 12.193s-5.383 1.307-5.383 4.307 2 8 5 8z" fill="#f0f0e6"/><path d="m22.82 14.209.063-2.016s-5.383 1.307-5.383 4.307c0 .406.039.849.11 1.311.684-2.336 4.664-3.459 5.21-3.602z" fill="#fffffa"/><path d="m22.5 25c-3.307 0-5.5-5.116-5.5-8.5 0-3.354 5.53-4.735 5.766-4.793.151-.035.312 0 .434.099.121.098.189.247.185.403l-.385 12.307c-.009.269-.229.484-.5.484zm-.138-12.139c-1.626.52-4.362 1.782-4.362 3.639 0 2.763 1.693 6.927 4.017 7.446z" fill="#785ae6"/><path d="m13.5 62.5h43s0-.708 0-2h-43z" fill="#96bef0"/><path d="m46.5 63c-.276 0-.5-.224-.5-.5v-12c0-.276.224-.5.5-.5s.5.224.5.5v12c0 .276-.224.5-.5.5z" fill="#96bef0"/><path d="m17.5 63c-.276 0-.5-.224-.5-.5v-12c0-.276.224-.5.5-.5s.5.224.5.5v12c0 .276-.224.5-.5.5z" fill="#96bef0"/><path d="m23.5 25c-.276 0-.5-.224-.5-.5v-3c0-.276.224-.5.5-.5s.5.224.5.5v3c0 .276-.224.5-.5.5z" fill="#785ae6"/><path d="m39.5 28.5s0 1.48-1 3.24v2.172l5 3.588s5 2 9 5 4 7 4 12 0 8 0 8h-43s0-4 0-8 0-10 4-12 6-3 6-3l5.945-3.695v-1.305z" fill="#c88c5a"/><path d="m17.5 44.5c4-2 6-3 6-3l5.945-3.695v-3.305 1.305l-5.945 3.695s-2 1-6 3-4 8-4 12v2c0-4 0-10 4-12z" fill="#e1a271"/><path d="m52.5 42.5c-4-3-9-5-9-5l-5-3.588v2l5 3.588s5 2 9 5 4 7 4 12c0-.626 0-1.29 0-2 0-5 0-9-4-12z" fill="#e1a271"/><path d="m52.5 42.5c-4-3-9-5-9-5l-1.35-.969c-.082 3.922-6.58 8.659-11.65 6.969-6-2-3-6.486-3-6.486l-4 2.486s-2 1-6 3-4 8-4 12 0 8 0 8h43s0-3 0-8 0-9-4-12z" fill="#a99be0"/><path d="m13.5 62.5h43s0-.708 0-2h-43z" fill="#968cd2"/><path d="m17.5 44.5c4-2 6-3 6-3l3.252-2.021c.01-1.358.748-2.465.748-2.465l-4 2.486s-2 1-6 3-4 8-4 12v2c0-4 0-10 4-12z" fill="#b4aaf0"/><path d="m52.5 42.5c-4-3-9-5-9-5l-1.35-.969c-.012.558-.165 1.132-.414 1.703l1.764 1.266s5 2 9 5 4 7 4 12c0-.626 0-1.29 0-2 0-5 0-9-4-12z" fill="#b4aaf0"/><path d="m23.5 46.5c-2-3.999 1.266-7.786 1.266-7.787l-1.266.787s-2 1-6 3-4 8-4 12 0 8 0 8h13v-13s-2-1-3-3z" fill="#aad2ff"/><path d="m17.5 44.5 5.69-2.845c.55-1.75 1.575-2.941 1.576-2.942l-1.266.787s-2 1-6 3-4 8-4 12v2c0-4 0-10 4-12z" fill="#bee6ff"/><path d="m26.5 63c-.276 0-.5-.224-.5-.5v-12.706c-.615-.366-2.102-1.379-2.947-3.07-2.161-4.321 1.323-8.327 1.36-8.364.191-.19.495-.194.693-.013.196.183.214.488.039.692-.03.036-3.022 3.59-1.198 7.237.915 1.83 2.758 2.768 2.776 2.776.17.086.277.259.277.448v13c0 .276-.224.5-.5.5z" fill="#96bef0"/><path d="m52.5 42.5c-2.186-1.639-4.665-2.977-6.469-3.855 2.284 6.394-7.531 10.855-7.531 10.855v13h18s0-3 0-8 0-9-4-12z" fill="#aad2ff"/><path d="m38.5 62.5h18s0-.708 0-2h-18z" fill="#96bef0"/><path d="m13.5 62.5h13s0-.708 0-2h-13z" fill="#96bef0"/><path d="m52.5 42.5c-.262-.197-.53-.389-.799-.577-.093-.065-.188-.127-.282-.191-.177-.121-.354-.242-.533-.358-.109-.072-.219-.14-.329-.21-.165-.106-.331-.211-.496-.313-.11-.068-.22-.134-.33-.2-.165-.1-.331-.199-.494-.295-.104-.061-.208-.12-.311-.18-.171-.098-.34-.194-.508-.287-.091-.051-.182-.101-.272-.15-.181-.099-.36-.196-.535-.289-.071-.038-.143-.076-.213-.113-.199-.105-.394-.205-.584-.302-.04-.021-.082-.042-.122-.062-.228-.115-.45-.225-.661-.328.268.75.364 1.472.334 2.164 1.769.878 4.081 2.151 6.135 3.691 4 3 4 7 4 12 0-.626 0-1.29 0-2 0-5 0-9-4-12z" fill="#bee6ff"/><path d="m38.5 63c-.276 0-.5-.224-.5-.5v-13c0-.196.114-.374.293-.455.094-.043 9.371-4.348 7.267-10.233-.093-.26.042-.546.303-.639.263-.091.545.042.639.303 2.21 6.18-5.811 10.508-7.501 11.34v12.684c-.001.276-.225.5-.501.5z" fill="#96bef0"/><path d="m32.5 34.5h-5c-3.314 0-6-2.686-6-6v-11c0-7 3-11 11-11s12.107 5.631 11.053 12.816l-4.053 9.184c0 3.314-2.686 6-6 6z" fill="#e1a271"/><path d="m32.5 8.5c6.797 0 10.77 4.071 11.169 9.7.488-6.642-3.589-11.7-11.169-11.7-8 0-11 4-11 11v2c0-7 3-11 11-11z" fill="#e1b482"/><g fill="#f0f0e6"><path d="m38.5 10c-.128 0-.256-.049-.354-.146-1.864-1.864-7.174-2.801-7.227-2.81-.272-.048-.455-.307-.407-.578.047-.271.31-.454.577-.408.23.04 5.676 1.001 7.764 3.089.195.195.195.512 0 .707-.097.097-.225.146-.353.146z"/><path d="m35.5 11c-.088 0-.177-.022-.257-.071-4.773-2.864-10.573-1.564-10.63-1.549-.271.062-.538-.105-.601-.374-.062-.27.105-.538.374-.601.254-.059 6.256-1.402 11.37 1.666.237.142.314.449.172.686-.093.156-.259.243-.428.243z"/><path d="m42.695 12.249s4.805-.749 5.805 3.251 0 9-4 9v-1c0-1.657-1.343-3-3-3-4 0-6.236-5-4-5 1.587 0 4.432 0 6.04-.499z"/></g><path d="m37.5 17.5c1.587 0 4.432 0 6.04-.499 0 0 4.46-1.001 4.96.499.151.453.263.923.344 1.398.048-1.126-.069-2.299-.344-3.398-1-4-5.805-3.251-5.805-3.251l.845 2.752c-1.608.499-4.453.499-6.04.499-1.014 0-1.101 1.029-.529 2.152.137-.09.305-.152.529-.152z" fill="#fffffa"/><g fill="#785ae6"><path d="m23.5 25c-.276 0-.5-.224-.5-.5v-3c0-.276.224-.5.5-.5s.5.224.5.5v3c0 .276-.224.5-.5.5z"/><path d="m21.9 31.16c-.2 0-.39-.121-.467-.32-.287-.745-.433-1.532-.433-2.34v-11c0-7.738 3.762-11.5 11.5-11.5 6.182 0 10.601 3.416 11.533 8.915.046.272-.138.531-.409.577-.265.048-.53-.137-.577-.409-.858-5.062-4.801-8.083-10.547-8.083-7.262 0-10.5 3.238-10.5 10.5v11c0 .684.123 1.35.367 1.98.1.257-.029.547-.287.646-.059.023-.12.034-.18.034z"/><path d="m38.536 32.264c-.094 0-.188-.026-.272-.08-.231-.15-.297-.46-.147-.692.577-.891.883-1.926.883-2.992 0-.069.015-.139.043-.202l3.381-7.66c.11-.252.404-.367.659-.255.252.111.367.406.255.659l-3.339 7.565c-.02 1.222-.38 2.405-1.043 3.429-.096.148-.257.228-.42.228z"/><path d="m25.5 28c-1.153 0-2.5-.393-2.5-1.5 0-1.064 1.71-4.538 2.053-5.224.124-.247.425-.346.671-.224.247.124.347.424.224.671-.809 1.618-1.948 4.169-1.948 4.777 0 .301.902.5 1.5.5.276 0 .5.224.5.5s-.224.5-.5.5z"/><path d="m30.5 25c-.276 0-.5-.224-.5-.5v-3c0-.276.224-.5.5-.5s.5.224.5.5v3c0 .276-.224.5-.5.5z"/></g><path d="m28.5 20.5h6s-2.493-2.206-5-2.056-1 2.056-1 2.056z" fill="#968cd2"/><path d="m21.5 20.5h3s.733-1.61-.233-2.064-2.767 1.032-2.767 1.032z" fill="#968cd2"/><path d="m34.5 21h-6c-.153 0-.298-.07-.393-.19-.086-.108-.832-1.092-.446-1.951.246-.55.854-.857 1.81-.914 2.667-.181 5.252 2.086 5.36 2.182.156.138.21.356.137.551-.074.193-.26.322-.468.322zm-5.735-1h4.18c-.896-.546-2.15-1.122-3.415-1.058-.521.031-.879.152-.956.325-.079.175.053.5.191.733z" fill="#785ae6"/><path d="m24.5 21h-3c-.276 0-.5-.224-.5-.5v-1.032c0-.149.066-.291.182-.386.342-.282 2.105-1.663 3.299-1.098 1.115.522.823 1.958.475 2.723-.082.179-.26.293-.456.293zm-2.5-1h2.149c.112-.364.235-.956-.094-1.11-.407-.193-1.391.321-2.056.821v.289z" fill="#785ae6"/><path d="m24.5 28.5c-2 0-3 2-3 6 0 0 1 1 6 1s7-1 7-1-.838-6-4-6c-4 0-6 0-6 0z" fill="#f0f0e6"/><path d="m24.5 35.849c-.188 0-.368-.107-.453-.289-1.099-2.361-.024-4.234.022-4.313.141-.238.446-.316.685-.177.237.14.316.444.178.683-.037.065-.847 1.52.021 3.386.116.251.008.548-.242.664-.068.031-.14.046-.211.046z" fill="#dcdcd2"/><path d="m31.509 35.69c-.274 0-.498-.221-.5-.496-.021-2.625-.8-3.287-.808-3.294-.208-.169-.254-.479-.094-.693.161-.216.456-.272.675-.119.123.084 1.201.914 1.227 4.099.002.276-.22.502-.496.504-.001-.001-.003-.001-.004-.001z" fill="#dcdcd2"/><path d="m27.5 36c-.276 0-.5-.224-.5-.5v-4c0-.276.224-.5.5-.5s.5.224.5.5v4c0 .276-.224.5-.5.5z" fill="#dcdcd2"/><path d="m27.5 36c-4.956 0-6.162-.955-6.354-1.146-.093-.094-.146-.221-.146-.354 0-4.313 1.178-6.5 3.5-6.5h6c3.557 0 4.459 6.168 4.495 6.431.029.213-.079.421-.271.517-.086.042-2.164 1.052-7.224 1.052zm-5.498-1.766c.421.218 1.842.766 5.498.766 3.707 0 5.706-.553 6.442-.814-.318-1.741-1.375-5.186-3.442-5.186h-6c-1.618 0-2.458 1.761-2.498 5.234z" fill="#785ae6"/><path d="m41.5 21c-3.073 0-5.387-2.783-5.387-4.589 0-.857.544-1.411 1.387-1.411 1.584 0 5.793 0 6.646-.854.195-.195.512-.195.707 0s.195.512 0 .707c-1.057 1.058-4.35 1.147-7.353 1.147-.101 0-.234.016-.302.089-.055.061-.085.175-.085.322 0 1.097 1.657 3.589 4.387 3.589.276 0 .5.224.5.5s-.224.5-.5.5z" fill="#785ae6"/><path d="m44.5 25c-.276 0-.5-.224-.5-.5s.224-.5.5-.5c1.105 0 2-.429 2.661-1.275 1.191-1.526 1.534-4.381.854-7.104-.876-3.503-5.064-2.904-5.243-2.878-.267.045-.528-.145-.57-.418-.042-.272.145-.527.417-.57 1.822-.283 5.489.109 6.367 3.624.763 3.053.356 6.178-1.036 7.961-.848 1.086-2.041 1.66-3.45 1.66z" fill="#785ae6"/><path d="m39.5 20.5h2c1.657 0 3 1.343 3 3v2c0 1.657-1.343 3-3 3h-3z" fill="#e1a271"/><path d="m41.5 29h-2c-.276 0-.5-.224-.5-.5s.224-.5.5-.5h2c1.379 0 2.5-1.121 2.5-2.5v-2c0-1.379-1.121-2.5-2.5-2.5h-2c-.276 0-.5-.224-.5-.5s.224-.5.5-.5h2c1.93 0 3.5 1.57 3.5 3.5v2c0 1.93-1.57 3.5-3.5 3.5z" fill="#785ae6"/><path d="m42.5 53h-2c-.276 0-.5-.224-.5-.5s.224-.5.5-.5h2c.276 0 .5.224.5.5s-.224.5-.5.5z" fill="#96bef0"/><path d="m42.5 59h-2c-.276 0-.5-.224-.5-.5s.224-.5.5-.5h2c.276 0 .5.224.5.5s-.224.5-.5.5z" fill="#96bef0"/><circle cx="23.5" cy="52.5" fill="#ffe885" r="1"/><circle cx="23.5" cy="58.5" fill="#ffe885" r="1"/><path d="m56.5 63h-43c-.276 0-.5-.224-.5-.5v-8c0-4.105 0-10.309 4.276-12.447l6-3 5.904-3.672c.234-.143.543-.073.688.161s.073.543-.161.688l-5.944 3.694-6.04 3.022c-3.723 1.863-3.723 7.695-3.723 11.554v7.5h42v-7.5c0-4.889 0-8.75-3.8-11.6-3.898-2.924-8.837-4.916-8.886-4.937-.038-.015-.073-.034-.105-.058l-5-3.588c-.132-.092-.209-.244-.209-.405v-2.172c0-.087.022-.172.065-.247.924-1.626.935-2.979.935-2.993 0-.276.224-.5.5-.5s.5.224.5.5c0 .064-.012 1.568-1 3.37v1.785l4.743 3.403c.595.242 5.233 2.174 9.057 5.041 4.2 3.151 4.2 7.437 4.2 12.401v8c0 .276-.224.5-.5.5z" fill="#785ae6"/></svg>