<svg enable-background="new 0 0 64 64" height="512" viewBox="0 0 64 64" width="512" xmlns="http://www.w3.org/2000/svg"><path d="m39.5 18.5h2v3h-2z" fill="#aad2ff"/><path d="m38.5 30.5s4.703-.124 5 2.365-1.981 4.1 0 5.71 6.271 2.816 7.911 4.246c3.768 3.287 5.089 6.679 5.089 11.679s0 8 0 8h-43s0-4 0-8 .122-9.997 4.369-11.397c3.964-1.306 7.71-1.746 7.631-2.771s-1.292-2.123-1.052-3.441c.241-1.317 1.052-2.391 3.052-2.391s7.798.484 11-1.001z" fill="#e678a0"/><path d="m27.5 36.5c2 0 7.798.484 11-1.001v-2c-3.202 1.485-9 1.001-11 1.001s-2.811 1.074-3.052 2.391c-.087.475.018.92.188 1.344.378-.998 1.211-1.735 2.864-1.735z" fill="#fa8cb4"/><path d="m51.411 42.821c-1.64-1.43-5.93-2.636-7.911-4.246-.271-.221-.457-.441-.586-.664-.319.972-.454 1.819.586 2.664 1.981 1.611 6.271 2.816 7.911 4.246 3.768 3.287 5.089 6.679 5.089 11.679 0-.626 0-1.29 0-2 0-5-1.321-8.392-5.089-11.679z" fill="#fa8cb4"/><path d="m17.869 45.103c3.964-1.306 7.71-1.746 7.631-2.771-.034-.438-.275-.89-.52-1.366-1.15.64-4.062 1.132-7.11 2.137-4.248 1.4-4.37 7.397-4.37 11.397v2c0-4 .122-9.997 4.369-11.397z" fill="#fa8cb4"/><path d="m43.339 33.199c-1.215.96-3.584 1.786-4.839 2.299v-4.878s3.453-.069 4.183.895c.73.963.656 1.684.656 1.684z" fill="#fa8cb4"/><path d="m28.259 40.271c-.19 0-.373-.109-.456-.295-.017-.037-.413-.926-.789-2.51-.432-1.817 1.081-3.253 1.146-3.313.202-.187.516-.175.705.024.188.201.178.518-.022.706-.011.012-1.151 1.105-.855 2.353.352 1.481.725 2.322.729 2.33.113.252 0 .548-.251.661-.069.03-.139.044-.207.044z" fill="#d2648c"/><path d="m32 40.271c-.082 0-.165-.021-.242-.062-.213-.118-.306-.368-.234-.591.004-.076 0-.49-.485-1.64-.764-1.816-.031-3.598 0-3.673.107-.253.4-.371.653-.267.254.106.375.399.269.653-.006.015-.598 1.479 0 2.897.521 1.238.682 2.054.477 2.424-.092.167-.263.259-.438.259z" fill="#d2648c"/><path d="m36.039 39.753c-.013 0-.025 0-.038-.001-.275-.021-.482-.261-.461-.536.001-.017.125-1.705 0-3.072-.096-1.055-1.143-1.31-1.153-1.312-.269-.062-.436-.331-.374-.601.062-.269.33-.436.6-.374.072.017 1.762.43 1.923 2.196.131 1.45.006 3.164 0 3.236-.019.264-.238.464-.497.464z" fill="#d2648c"/><path d="m39.323 38.716c-.029 0-.058-.003-.087-.008-.272-.048-.453-.307-.405-.579.002-.015.251-1.446.251-2.895 0-.972-.958-1.075-1.15-1.087-.274-.016-.486-.25-.472-.524s.254-.505.52-.474c.727.032 2.103.511 2.103 2.085 0 1.539-.256 3.007-.267 3.068-.044.243-.254.414-.493.414z" fill="#d2648c"/><path d="m45.695 51.362c-.854-.806-1.916-1.808-3.499-1.975-1.906-.198-3.308.949-4.327 1.789-.449.37-1.148.896-1.404.913-.258-.015-.826-.552-1.24-.944-.886-.838-2.099-1.987-3.879-2.026-1.823-.036-3.085 1.09-4.013 1.917-.434.386-1.028.915-1.302.923-.116-.041-.425-.332-.63-.525-.486-.458-1.091-1.028-1.977-1.417-1.864-.819-3.278-.414-4.417.091-.527.234-1.028.557-1.508.928v5.071c.549-.061 1.07-.341 1.414-.827.506-.717 1.1-1.241 1.717-1.515.658-.292.79-.259 1.185-.085.253.111.526.369.842.666.7.659 1.738 1.646 3.482 1.611 1.731-.045 2.958-1.136 3.853-1.932.407-.362 1.002-.938 1.266-.906.239.005.829.563 1.219.932.863.817 2.044 1.935 3.763 2.032 1.846.11 3.188-1.007 4.174-1.819.418-.345 1.098-.961 1.366-.897.238.025.799.555 1.171.905.841.794 1.96 1.836 3.55 1.906v-4.111c-.245-.177-.581-.492-.806-.705z" fill="#ffe885"/><path d="m13.502 53.861c.158.14.315.285.448.41.841.794 1.96 1.836 3.55 1.906v-5.111c-.244-.176-.58-.491-.805-.704-.713-.673-1.577-1.477-2.764-1.823-.357 1.764-.42 3.67-.429 5.322z" fill="#ffe885"/><path d="m55.031 51.959c-.116-.041-.425-.332-.63-.525-.486-.458-1.091-1.028-1.977-1.417-1.864-.819-2.278-.414-3.417.091-.527.234-2.028 1.557-2.508 1.928v4.071c.549-.061 1.07-.341 1.414-.827.506-.717 1.1-1.241 1.717-1.515.658-.292.79-.259 1.185-.085.253.111.526.369.842.666.7.659 1.738 1.646 3.482 1.611.495-.013.944-.117 1.361-.27 0-.383 0-.775 0-1.186 0-1.218-.08-2.34-.253-3.389-.424.375-.959.839-1.216.847z" fill="#ffe885"/><path d="m29.445 34.5 9.055-1v-6.76z" fill="#ffb4be"/><path d="m21.5 14.5v14c0 3.314 2.686 6 6 6h6c2.761 0 5-2.239 5-5h2c1.657 0 3-1.343 3-3v-2c0-1.657-1.343-3-3-3h-1v-7z" fill="#ffc8d2"/><path d="m39.5 14.5h-18v3.52c1.514-.746 3-1.77 3-1.77s1 3.45 3 3.45 1-4.6 1-4.6 3.938 5.594 6 4.6c1.37-.661 1-2.486 1-2.486s2 4.786 5 4.786v-.5h-1z" fill="#ffb4be"/><path d="m46.5 7.5.222-2.707 2.778.396-.267 1.895 1.41-1.542 2.291 2.291-1.145 1.63h1.982v3.26h-1.982l1.674 1.631-2.115 2.146-1.212-1.309v2.07l-3.636.239z" fill="#e678a0"/><path d="m51.789 9.463 1.145-1.63-2.291-2.291-.955 1.045 2.246 2.246-1.145 1.63h1.982v2.26h1v-3.26z" fill="#fa8cb4"/><path d="m48.5 6.189-.267 1.895 1.016-1.111.251-1.784-2.778-.396-.093 1.129z" fill="#fa8cb4"/><path d="m46.5 18c-.126 0-.249-.048-.342-.135-.101-.094-.158-.226-.158-.365v-10c0-.014 0-.027.001-.041l.222-2.707c.011-.137.079-.264.187-.35.108-.085.245-.122.383-.104l2.778.396c.273.039.463.292.424.564l-.042.297.32-.351c.092-.102.222-.16.358-.163.141.011.268.05.365.146l2.291 2.291c.172.172.195.442.056.641l-.592.843h1.02c.276 0 .5.224.5.5v3.261c0 .276-.224.5-.5.5h-.752l.792.771c.096.093.15.22.151.354.001.133-.05.261-.144.355l-2.115 2.146c-.096.098-.235.17-.364.149-.137-.002-.266-.061-.359-.16l-.346-.373v.795c0 .264-.205.481-.467.499l-3.636.238c-.009.003-.02.003-.031.003zm.5-10.479v9.445l2.636-.173v-1.603c0-.206.126-.391.317-.466.192-.072.41-.025.549.126l.857.926 1.395-1.415-1.314-1.279c-.146-.142-.191-.358-.115-.547s.26-.312.463-.312h1.482v-2.26h-1.482c-.187 0-.358-.104-.444-.27s-.073-.365.035-.518l.904-1.286-1.624-1.624-1.057 1.155c-.148.162-.385.209-.582.115-.198-.093-.313-.305-.282-.521l.197-1.4-1.759-.251z" fill="#785ae6"/><path d="m21.5 8.5s2-8 14-7 14 9 14 10 0 5-5 5z" fill="#ffe885"/><path d="m35.5 3.5c10.536.878 13.362 7.15 13.895 9.345.101-.575.105-1.073.105-1.345 0-1-2-9-14-10s-14 7-14 7l.775.27c1.356-2.291 4.859-5.967 13.225-5.27z" fill="#fffa96"/><path d="m39.387 9.669c-.215 0-.414-.14-.479-.355-.08-.265.07-.544.334-.623.049-.016 4.969-1.518 6.225-3.55.146-.236.455-.306.688-.163.235.146.308.454.163.688-1.455 2.354-6.57 3.916-6.788 3.981-.047.015-.096.022-.143.022z" fill="#f0dc78"/><path d="m44.261 12.51c-.427 0-.704-.046-.743-.053-.271-.047-.453-.305-.406-.576s.306-.449.577-.409c.123.024 2.991.466 4.801-2.272.152-.231.463-.296.692-.142.23.152.294.462.142.692-1.597 2.418-3.893 2.76-5.063 2.76z" fill="#f0dc78"/><path d="m35.042 8.196c-.09 0-.181-.024-.263-.075-.234-.146-.307-.454-.161-.688.139-.226 3.45-5.496 7.853-4.752.272.046.456.304.41.576-.046.271-.299.461-.576.41-3.733-.63-6.807 4.243-6.837 4.293-.096.152-.26.236-.426.236z" fill="#f0dc78"/><path d="m29.936 7.328c-.08 0-.162-.02-.237-.061-.243-.131-.333-.435-.202-.678.098-.182 2.454-4.461 6.62-5.503.265-.062.539.096.606.364s-.096.539-.364.606c-3.743.936-5.96 4.968-5.982 5.009-.091.168-.263.263-.441.263z" fill="#f0dc78"/><path d="m25.5 7.198c-.077 0-.155-.018-.229-.056-.246-.126-.342-.428-.215-.674.079-.153 1.997-3.79 6.584-5.369.261-.088.545.049.635.31.09.262-.049.546-.31.636-4.211 1.45-6.003 4.849-6.021 4.883-.089.172-.263.27-.444.27z" fill="#f0dc78"/><path d="m13.5 62.5h43s0-.708 0-2h-43z" fill="#d2648c"/><path d="m46.5 63c-.276 0-.5-.224-.5-.5v-12c0-.276.224-.5.5-.5s.5.224.5.5v12c0 .276-.224.5-.5.5z" fill="#d2648c"/><path d="m17.5 63c-.276 0-.5-.224-.5-.5v-12c0-.276.224-.5.5-.5s.5.224.5.5v12c0 .276-.224.5-.5.5z" fill="#d2648c"/><g fill="#785ae6"><path d="m33.5 21c-.128 0-.256-.049-.354-.146-2.588-2.587-4.228-1.063-4.296-.997-.198.19-.514.188-.706-.008-.192-.195-.192-.508.001-.702.023-.023 2.391-2.315 5.707 1 .195.195.195.512 0 .707-.096.097-.224.146-.352.146z"/><path d="m24.5 20c-.127 0-.254-.048-.352-.145-.111-.108-1.123-1.034-2.343-.083-.218.172-.532.13-.702-.086-.17-.218-.131-.531.086-.701 1.554-1.217 3.076-.426 3.664.161.195.195.195.512 0 .707-.097.098-.225.147-.353.147z"/><path d="m32.5 35h-5c-3.584 0-6.5-2.916-6.5-6.5v-11.499c0-.276.224-.5.5-.5s.5.224.5.5v11.499c0 3.032 2.467 5.5 5.5 5.5h5c.276 0 .5.224.5.5s-.224.5-.5.5z"/><path d="m30.5 31h-5c-.276 0-.5-.224-.5-.5s.224-.5.5-.5h5c.403 0 .494-.275.5-.506.007-.271.229-.491.5-.491.002 0 .004 0 .006.001.274.003.494.223.494.496 0 .603-.399 1.5-1.5 1.5z"/><path d="m38.5 33.84c-.276 0-.5-.224-.5-.5v-3.84c0-.276.224-.5.5-.5h2c1.378 0 2.5-1.121 2.5-2.5v-2c0-1.379-1.122-2.5-2.5-2.5h-1c-.276 0-.5-.224-.5-.5s.224-.5.5-.5h1c1.93 0 3.5 1.57 3.5 3.5v2c0 1.93-1.57 3.5-3.5 3.5h-1.5v3.34c0 .276-.224.5-.5.5z"/></g><circle cx="31" cy="22" fill="#968cd2" r="3.5"/><path d="m28.26 24.153 4.047-5.396c-.335-.135-.697-.209-1.074-.234l-3.508 4.677c.128.349.309.667.535.953z" fill="#b4aaf0"/><path d="m30.681 25.468 3.605-4.635c-.239-.674-.672-1.251-1.241-1.663l-4.28 5.502c.53.445 1.188.729 1.916.796z" fill="#b4aaf0"/><path d="m31 26c-2.206 0-4-1.794-4-4s1.794-4 4-4 4 1.794 4 4-1.794 4-4 4zm0-7c-1.654 0-3 1.346-3 3s1.346 3 3 3 3-1.346 3-3-1.346-3-3-3z" fill="#785ae6"/><ellipse cx="22" cy="22" fill="#968cd2" rx="2.5" ry="3.5"/><path d="m19.75 23.5 3.427-4.57c-.289-.217-.608-.354-.951-.398l-2.715 3.62c.015.482.098.936.239 1.348z" fill="#b4aaf0"/><path d="m21.69 25.456 2.8-3.6c-.027-.908-.292-1.729-.721-2.33l-3.671 4.72c.394.655.953 1.098 1.592 1.21z" fill="#b4aaf0"/><path d="m22 26c-1.654 0-3-1.794-3-4s1.346-4 3-4 3 1.794 3 4-1.346 4-3 4zm0-7c-1.084 0-2 1.374-2 3s.916 3 2 3 2-1.374 2-3-.916-3-2-3z" fill="#785ae6"/><path d="m25.5 28c-1.153 0-2.5-.393-2.5-1.5 0-1.064 1.71-4.538 2.053-5.224.124-.246.423-.349.671-.224.247.124.347.424.224.671-.809 1.618-1.948 4.169-1.948 4.777 0 .301.903.5 1.5.5.276 0 .5.224.5.5s-.224.5-.5.5z" fill="#785ae6"/><path d="m39.5 22h-5c-.276 0-.5-.224-.5-.5s.224-.5.5-.5h5c.276 0 .5.224.5.5s-.224.5-.5.5z" fill="#785ae6"/><path d="m27.5 22h-3.052c-.276 0-.5-.224-.5-.5s.224-.5.5-.5h3.052c.276 0 .5.224.5.5s-.224.5-.5.5z" fill="#785ae6"/><path d="m40.5 20.5c-3 0-5-4.162-5-4.162s.37 1.587-1 2.162c-2.062.865-6-4-6-4s1 4-1 4-3-3-3-3-5 3-6 2 2-4 2-4v-3h20z" fill="#aad2ff"/><path d="m19.146 18.207c-.438 0-.765-.118-1-.354-1.256-1.256 1.213-3.92 2-4.707.195-.195.512-.195.707 0s.195.512 0 .707c-1.359 1.361-2.332 2.961-2 3.293.004.003.409.323 2.54-.604.254-.11.548.006.658.259s-.006.548-.259.657c-1.15.502-2.013.749-2.646.749z" fill="#785ae6"/><path d="m19.298 14.716c-.424-.352-.798-.784-.798-1.216 0-1 0-4 3-6s24-1 25 10c0 4-3 6-4 5s-3-8-12-9c-8.945-.994-10 0-10 0z" fill="#ffe885"/><path d="m21.5 9.5c2.931-1.954 23.036-1.039 24.889 9.265.068-.397.111-.816.111-1.265-1-11-22-12-25-10s-3 5-3 6c0 .141.05.28.118.418.226-1.33.894-3.092 2.882-4.418z" fill="#fffa96"/><g fill="#f0dc78"><path d="m46.5 18c-.256 0-.474-.195-.498-.455-.294-3.237-2.434-5.831-6.36-7.708-6.852-3.277-16.186-3.04-17.865-1.921-.231.151-.541.091-.693-.139-.153-.229-.091-.54.139-.693 2.114-1.408 11.958-1.445 18.851 1.851 4.207 2.012 6.601 4.958 6.925 8.521.025.274-.178.518-.453.543-.016 0-.031.001-.046.001z"/><path d="m22.5 13.602c-.088 0-.177-.022-.258-.071-.47-.283-.678-.93-.602-1.869.16-1.982 1.502-4.559 3.675-5.427.256-.102.547.021.65.278s-.022.547-.279.649c-1.727.69-2.772 2.697-3.013 4.27-.131.856.038 1.203.087 1.243.236.143.312.449.169.686-.094.155-.259.241-.429.241z"/><path d="m27.486 13.646c-.1 0-.2-.028-.288-.086-.382-.252-.544-.783-.484-1.578.136-1.782 1.376-4.852 3.013-5.608.251-.116.548-.006.664.244.116.251.006.548-.245.664-.954.44-1.874 2.263-2.255 3.755-.268 1.05-.196 1.604-.119 1.709.23.152.282.452.13.683-.093.143-.253.217-.416.217z"/><path d="m32.5 14.343c-.194 0-.379-.114-.46-.304-1.014-2.376 1.393-5.859 2.722-6.757.229-.156.54-.095.694.135.154.229.094.539-.135.693-1.094.739-3.116 3.769-2.362 5.536.108.254-.01.548-.264.656-.063.028-.129.041-.195.041z"/><path d="m36.159 15.689c-.088 0-.175-.009-.263-.028-.27-.059-.44-.325-.381-.595s.324-.443.595-.382c.121.028.273-.064.379-.145 1.083-.813 2.304-4.011 2.398-5.405.019-.274.26-.477.533-.465.275.019.484.257.465.533-.099 1.456-1.347 5.049-2.795 6.137-.31.233-.622.35-.931.35z"/><path d="m40.061 19.186c-.248 0-.463-.184-.496-.437-.035-.273.158-.524.432-.56.398-.051 1.181-.642 1.907-1.67 1.042-1.475 1.494-3.138 1.21-4.449-.058-.27.113-.536.383-.594.271-.056.536.113.595.383.342 1.579-.171 3.537-1.371 5.237-.657.931-1.684 1.967-2.596 2.085-.021.004-.043.005-.064.005z"/></g><path d="m43.167 23.249c-.135 0-.266-.016-.39-.048-.111-.028-.209-.094-.278-.186-.183-.246-.395-.448-.629-.603-.062-.042-.115-.097-.154-.16-.106-.177-.223-.386-.354-.62-1.247-2.223-3.842-6.85-10.917-7.636-8.207-.912-9.593-.13-9.647-.096l-1.144 1.166c-.182.186-.475.2-.674.033-.651-.537-.98-1.075-.98-1.599 0-1.056 0-4.268 3.223-6.416.114-.076.251-.147.424-.222 1.16-2.15 4.71-6.624 13.895-5.86 11.945.995 14.458 8.97 14.458 10.498 0 3.248-1.604 4.587-3.123 5.126.058.291.097.562.121.829.002 2.169-.815 4.073-2.184 5.138-.549.428-1.13.656-1.647.656zm0-1h.002c.244 0 .607-.116 1.031-.445.87-.677 1.8-2.163 1.8-4.304-.03-.309-.093-.671-.196-1.098-.064-.266.096-.533.359-.602 1.909-.498 2.837-1.905 2.837-4.3 0-.084-1.223-8.476-13.542-9.502-8.508-.71-11.805 3.134-13.01 5.487-.056.11-.151.195-.266.239-.184.07-.32.135-.406.191-2.776 1.853-2.776 4.662-2.776 5.585 0 .057.025.231.285.518l.86-.869c.3-.283 1.899-1.092 10.411-.146 7.586.844 10.35 5.772 11.679 8.141.104.186.198.354.285.502.235.167.453.37.647.603z" fill="#785ae6"/><path d="m56.5 63h-43c-.276 0-.5-.224-.5-.5v-8c0-3.606 0-10.318 4.712-11.872 1.357-.447 2.677-.791 3.842-1.094 1.458-.38 3.273-.852 3.454-1.205-.031-.279-.232-.668-.445-1.08-.365-.705-.778-1.504-.606-2.447.233-1.279 1.037-2.802 3.543-2.802.25 0 .578.009.969.019 2.735.077 8.421.222 11.759-1.939.232-.148.541-.084.691.148.15.231.084.541-.147.691-3.598 2.331-9.495 2.176-12.33 2.1-.38-.01-.699-.019-.942-.019-1.5 0-2.313.63-2.56 1.981-.111.607.191 1.19.511 1.809.25.482.507.98.548 1.504.084 1.095-1.525 1.514-4.192 2.208-1.15.299-2.454.639-3.781 1.075-3.715 1.225-4.026 6.28-4.026 10.923v7.5h42v-7.5c0-5.047-1.379-8.216-4.918-11.302-.755-.658-2.165-1.288-3.657-1.955-1.568-.701-3.188-1.425-4.24-2.28-1.454-1.182-1.003-2.478-.606-3.621.261-.751.531-1.528.425-2.417-.236-1.982-4.452-1.921-4.49-1.925-.237 0-.505-.21-.513-.487-.007-.275.211-.505.487-.513.21-.001 5.163-.103 5.51 2.806.133 1.118-.189 2.046-.473 2.864-.429 1.232-.581 1.808.292 2.518.949.771 2.509 1.469 4.017 2.143 1.562.698 3.039 1.357 3.907 2.114 3.735 3.258 5.259 6.75 5.259 12.055v8c0 .276-.224.5-.5.5z" fill="#785ae6"/></svg>