<svg enable-background="new 0 0 64 64" height="512" viewBox="0 0 64 64" width="512" xmlns="http://www.w3.org/2000/svg"><path d="m29.445 34.5v1.305l-5.945 3.695s-2 1-6 3-4 8-4 12 0 8 0 8h43s0-3 0-8 0-9-4-12-9-5-9-5l-5-3.588v-5.412z" fill="#f0dc78"/><path d="m52.5 42.5c-4-3-9-5-9-5l-5-3.588v2l5 3.588s5 2 9 5 4 7 4 12c0-.626 0-1.29 0-2 0-5 0-9-4-12z" fill="#ffe885"/><path d="m21.5 40.5c-.978.489-2.296 1.148-4 2-4 2-4 8-4 12v2c0-4 0-10 4-12 1.704-.852 3.022-1.511 4-2z" fill="#ffe885"/><path d="m13.5 62.5h43s0-.708 0-2h-43z" fill="#dcc864"/><path d="m42.312 41.781c-1.834 2.152-5.431 3.719-9.812 3.719-4.293 0-6.33-1.505-7.032-3.417l-1.968 3.417v17h19z" fill="#f0f0e6"/><path d="m23.5 60.5v2h19l-.018-2z" fill="#dcdcd2"/><path d="m38.5 31.962-8.016 1.85-2.039.688v1.305l-2.945 2.452c-1 3.243 0 7.243 7 7.243s12-4 11-8l-5-3.588z" fill="#c88c5a"/><path d="m32.5 46.5c-5.353 0-7.289-2.215-7.97-4.072-.19-.519.075-1.094.594-1.283.521-.193 1.093.077 1.283.594.837 2.282 3.775 2.762 6.093 2.762 3.812 0 7.28-1.29 9.051-3.367.358-.422.989-.471 1.409-.112.421.357.471.989.112 1.409-2.171 2.548-6.124 4.069-10.572 4.069z" fill="#826ec8"/><path d="m29.445 34.5v8h9.055v-15.76z" fill="#c88c5a"/><path d="m46.5 63c-.276 0-.5-.224-.5-.5v-12c0-.276.224-.5.5-.5s.5.224.5.5v12c0 .276-.224.5-.5.5z" fill="#c8b450"/><path d="m17.5 63c-.276 0-.5-.224-.5-.5v-12c0-.276.224-.5.5-.5s.5.224.5.5v12c0 .276-.224.5-.5.5z" fill="#c8b450"/><path d="m56.5 63h-43c-.276 0-.5-.224-.5-.5v-8c0-4.105 0-10.309 4.276-12.447l3.856-1.928c.247-.124.547-.022.671.224.123.247.023.548-.224.671l-3.856 1.928c-3.723 1.861-3.723 7.693-3.723 11.552v7.5h42v-7.5c0-4.889 0-8.75-3.8-11.6-2.325-1.744-5-3.149-6.835-4.022-.249-.118-.355-.416-.236-.666.117-.25.417-.356.666-.236 1.876.892 4.614 2.331 7.005 4.124 4.2 3.15 4.2 7.436 4.2 12.4v8c0 .276-.224.5-.5.5z" fill="#785ae6"/><path d="m38.5 33.5s4 4 4 11-4.822 18-4.822 18h4.822s4-3 6-9l-4-4s2 0 6-2c0 0-4-7-5-10 0 0-3-4-7-4z" fill="#f0dc78"/><path d="m44.534 60.5h-6.035c-.488 1.24-.821 2-.821 2h4.822s.888-.673 2.034-2z" fill="#dcc864"/><path d="m46.5 40.5c.672 2.016 0 0-1-3 0 0-3-4-7-4 0 0 .785.788 1.66 2.271 3.376 1.032 6.34 4.729 6.34 4.729z" fill="#ffe885"/><path d="m42.5 63h-4.821c-.169 0-.326-.085-.419-.227-.092-.142-.106-.319-.039-.475.048-.108 4.779-10.985 4.779-17.798 0-6.693-3.815-10.608-3.854-10.646-.142-.144-.185-.358-.106-.545.076-.187.258-.309.46-.309 4.202 0 7.271 4.028 7.4 4.2.032.043.057.091.074.142.973 2.919 4.92 9.841 4.96 9.91.067.119.084.262.044.393-.04.132-.132.241-.255.303-2.429 1.214-4.148 1.71-5.156 1.913l3.286 3.286c.134.134.181.332.121.512-2.026 6.078-6.006 9.115-6.175 9.242-.085.064-.191.099-.299.099zm-4.065-1h3.891c.668-.552 3.851-3.369 5.601-8.367l-3.779-3.779c-.143-.143-.186-.358-.108-.545s.258-.309.46-.309c.016 0 1.805-.038 5.304-1.716-.906-1.608-3.85-6.916-4.75-9.543-.341-.428-2.508-3.018-5.379-3.617 1.211 1.616 3.325 5.181 3.325 10.376 0 6.083-3.499 14.942-4.565 17.5z" fill="#c8b450"/><path d="m29.445 34.805s-3.945 2.695-4.945 12.695 1.361 15 1.361 15h-4.361s-3-3.366-4-10.183l4-2.817s-2 0-4-2c0 0 2.838-6.838 6-10 2-2 5.945-2.695 5.945-2.695z" fill="#f0dc78"/><path d="m20.164 60.5c.745 1.333 1.336 2 1.336 2h4.361s-.314-.672-.664-2z" fill="#dcc864"/><path d="m27.252 37.58c1.149-2.052 2.193-2.775 2.193-2.775s-3.945.695-5.945 2.695c-.744.744-1.468 1.695-2.144 2.709 1.769-.987 4.17-1.971 5.896-2.629z" fill="#ffe885"/><path d="m25.86 63h-4.36c-.143 0-.278-.061-.373-.167-.127-.143-3.111-3.558-4.122-10.443-.027-.187.053-.372.207-.481l3.032-2.135c-.829-.253-1.966-.788-3.098-1.92-.144-.143-.186-.358-.108-.545.117-.283 2.913-6.967 6.108-10.162 2.088-2.088 6.044-2.804 6.211-2.833.239-.038.462.087.55.304.089.217.014.467-.179.6-.055.039-3.774 2.766-4.731 12.333-.971 9.715 1.293 14.688 1.315 14.737.073.155.062.337-.03.48-.092.144-.251.232-.422.232zm-4.123-1h3.388c-.611-1.723-1.923-6.544-1.122-14.55.655-6.556 2.558-10.051 3.861-11.729-1.26.39-2.947 1.069-4.011 2.133-2.675 2.675-5.162 8.159-5.758 9.525 1.73 1.584 3.39 1.621 3.408 1.621.217.002.409.145.474.352.063.207-.012.433-.188.558l-3.747 2.639c.877 5.553 3.118 8.714 3.695 9.451z" fill="#c8b450"/><path d="m38.5 54c-.128 0-.256-.049-.354-.146l-1.646-1.647-1.646 1.646c-.195.195-.512.195-.707 0l-1.647-1.646-1.646 1.646c-.195.195-.512.195-.707 0l-1.647-1.646-1.646 1.646c-.195.195-.512.195-.707 0s-.195-.512 0-.707l2-2c.195-.195.512-.195.707 0l1.646 1.646 1.646-1.646c.195-.195.512-.195.707 0l1.646 1.646 1.646-1.646c.195-.195.512-.195.707 0l2 2c.195.195.195.512 0 .707-.096.098-.224.147-.352.147z" fill="#826ec8"/><path d="m38.5 58c-.128 0-.256-.049-.354-.146l-1.646-1.647-1.646 1.646c-.195.195-.512.195-.707 0l-1.647-1.646-1.646 1.646c-.195.195-.512.195-.707 0l-1.647-1.646-1.646 1.646c-.195.195-.512.195-.707 0s-.195-.512 0-.707l2-2c.195-.195.512-.195.707 0l1.646 1.646 1.646-1.646c.195-.195.512-.195.707 0l1.646 1.646 1.646-1.646c.195-.195.512-.195.707 0l2 2c.195.195.195.512 0 .707-.096.098-.224.147-.352.147z" fill="#826ec8"/><path d="m56.5 63h-43c-.276 0-.5-.224-.5-.5v-8c0-4.105 0-10.309 4.276-12.447l3.384-1.692c.867-1.35 1.703-2.431 2.486-3.214 2.088-2.088 6.044-2.804 6.211-2.833.267-.054.531.133.579.405.048.271-.134.531-.405.579-.038.007-3.814.693-5.678 2.556-.754.754-1.57 1.817-2.425 3.161-.049.076-.117.138-.198.179l-3.507 1.754c-3.723 1.861-3.723 7.693-3.723 11.552v7.5h42v-7.5c0-4.889 0-8.75-3.8-11.6-2.223-1.667-4.761-3.02-6.499-3.86-.11-.054-.196-.145-.243-.258-.157-.376-.298-.73-.404-1.041-.386-.484-3.115-3.741-6.554-3.741-.276 0-.5-.224-.5-.5s.224-.5.5-.5c4.202 0 7.271 4.028 7.4 4.2.032.043.057.091.074.143.087.263.202.562.334.881 1.771.864 4.277 2.216 6.491 3.876 4.201 3.15 4.201 7.436 4.201 12.4v8c0 .276-.224.5-.5.5z" fill="#785ae6"/><path d="m29.5 42c-.276 0-.5-.224-.5-.5v-7c0-.276.224-.5.5-.5s.5.224.5.5v7c0 .276-.224.5-.5.5z" fill="#785ae6"/><path d="m39.026 30.733c3.525 1.234 4.474-5.233 4.474-5.233l1-11s3-3-1-6-8.962-.607-13.481-3.803v9.803z" fill="#e678a0"/><path d="m45.414 12.929c.364-1.15.274-2.788-1.914-4.429-4-3-8.962-.607-13.481-3.804v2c4.519 3.197 9.481.804 13.481 3.804 1.109.832 1.668 1.661 1.914 2.429z" fill="#fa8cb4"/><path d="m21.5 14.5v14c0 3.314 2.686 6 6 6h6c3.314 0 6-2.686 6-6h2c1.657 0 3-1.343 3-3v-2c0-1.657-1.343-3-3-3h-2l-3-6z" fill="#e1a271"/><g fill="#785ae6"><path d="m30.5 31h-5c-.276 0-.5-.224-.5-.5s.224-.5.5-.5h5c.402 0 .494-.275.5-.506.007-.271.229-.491.5-.491.002 0 .004 0 .006.001.274.003.494.223.494.496 0 .603-.399 1.5-1.5 1.5z"/><path d="m23.5 25c-.276 0-.5-.224-.5-.5v-3c0-.276.224-.5.5-.5s.5.224.5.5v3c0 .276-.224.5-.5.5z"/><path d="m33.5 21c-.128 0-.256-.049-.354-.146-2.586-2.585-4.228-1.063-4.296-.997-.197.19-.513.188-.706-.008-.191-.195-.192-.508.002-.702.023-.022 2.394-2.314 5.707 1 .195.195.195.512 0 .707-.097.097-.225.146-.353.146z"/><path d="m24.5 20c-.127 0-.255-.048-.352-.145-.114-.111-1.126-1.032-2.344-.082-.215.169-.531.131-.702-.087-.17-.218-.131-.531.087-.702 1.556-1.214 3.077-.424 3.664.162.195.195.195.512 0 .707-.097.098-.225.147-.353.147z"/></g><path d="m22.788 14.5s-1.957 0-2.935-4 1.957-7 2.935-8 1.957 1 2.935 2c0 0 0-2 .978-2s2.935 2 5.871 4 3.914 5 2.935 8z" fill="#aad2ff"/><path d="m22.788 4.5c.978-1 1.957 1 2.935 2 0 0 0-2 .978-2s2.935 3.378 6.454 3.864c.667.092 1.219.24 1.675.433-.543-.849-1.282-1.632-2.258-2.297-2.935-2-4.892-4-5.871-4-.978 0-.978 2-.978 2-.978-1-1.957-3-2.935-2-.928.948-3.608 3.696-3.051 7.388.403-2.672 2.3-4.62 3.051-5.388z" fill="#bee6ff"/><path d="m25.5 15c-.096 0-.192-.027-.277-.084-3.186-2.124-3.223-5.282-3.223-5.416 0-.275.223-.498.498-.499h.002c.274 0 .498.223.5.497.001.112.051 2.769 2.777 4.586.229.153.292.464.139.693-.097.145-.255.223-.416.223z" fill="#96bef0"/><path d="m30.616 14.994c-.128 0-.257-.049-.354-.148-1.99-2.033-2.985-4.044-3.026-4.128-.12-.246-.019-.542.227-.662.246-.119.542-.019.662.227.009.02.972 1.958 2.845 3.872.191.195.188.508-.008.699-.096.093-.221.14-.346.14z" fill="#96bef0"/><path d="m22.5 15c-.098 0-2.402-.05-3.485-4.379-1.068-4.274 2.093-7.436 3.132-8.475.297-.296.624-.44.991-.417.771.042 1.369.791 2.003 1.583.002.003.005.006.007.009.2-.732.62-1.321 1.352-1.321.787 0 1.788.765 3.304 1.922.294.225.605.463.934.709.221.166.266.479.101.7-.166.222-.48.266-.7.101-.331-.249-.646-.488-.941-.715-1.157-.883-2.249-1.717-2.698-1.717-.301 0-.5.902-.5 1.5 0 .202-.122.385-.309.462-.185.077-.401.035-.545-.108-.27-.27-.532-.599-.787-.916-.402-.503-.953-1.191-1.276-1.21-.029-.002-.101-.003-.229.126-.939.939-3.8 3.8-2.868 7.525.875 3.502 2.51 3.62 2.526 3.621.271.013.488.24.481.512-.006.271-.222.488-.493.488z" fill="#785ae6"/><path d="m32.5 35h-5c-3.584 0-6.5-2.916-6.5-6.5v-11c0-2.182 1.1-3.307 1.146-3.354.195-.195.512-.195.707 0s.195.512 0 .707c-.032.034-.853.902-.853 2.647v11c0 3.032 2.468 5.5 5.5 5.5h5c.276 0 .5.224.5.5s-.224.5-.5.5z" fill="#785ae6"/><path d="m25.5 28c-1.153 0-2.5-.393-2.5-1.5 0-1.064 1.71-4.538 2.053-5.224.124-.247.425-.346.671-.224.247.124.347.424.224.671-.809 1.618-1.948 4.169-1.948 4.777 0 .301.902.5 1.5.5.276 0 .5.224.5.5s-.224.5-.5.5z" fill="#785ae6"/><path d="m30.5 25c-.276 0-.5-.224-.5-.5v-3c0-.276.224-.5.5-.5s.5.224.5.5v3c0 .276-.224.5-.5.5z" fill="#785ae6"/><path d="m35.5 14.5c2 2 2 7 3 8s2-1 2-5v-3z" fill="#e678a0"/><path d="m35.5 14.995c-.052 0-.104-.009-.156-.026-.26-.086-.399-.366-.312-.625.964-2.893-.059-5.602-2.806-7.433-.647-.432-1.31-.903-2.085-1.484-.219-.164-.263-.474-.099-.692.163-.22.474-.262.692-.099.76.57 1.408 1.031 2.04 1.453 3.1 2.066 4.294 5.27 3.194 8.567-.068.207-.261.339-.468.339z" fill="#96bef0"/><g fill="#785ae6"><path d="m43.883 21.8c-.016 0-.031-.001-.046-.002-.275-.025-.479-.269-.453-.543l.618-6.8c.011-.115.062-.225.144-.308.01-.01 1.029-1.062.927-2.438-.073-.988-.703-1.934-1.872-2.81-1.855-1.392-3.959-1.553-6.187-1.723-2.398-.184-4.879-.373-7.283-2.073-.226-.159-.278-.472-.119-.697.161-.226.474-.277.697-.119 2.178 1.541 4.519 1.72 6.781 1.893 2.272.174 4.622.354 6.71 1.919 1.415 1.062 2.179 2.256 2.271 3.549.107 1.513-.752 2.672-1.089 3.063l-.603 6.633c-.023.26-.241.456-.496.456z"/><path d="m40.687 31.234c-.197 0-.385-.117-.463-.312-.104-.256.019-.548.274-.651.64-.26 1.229-.975 1.708-2.067.111-.252.406-.366.658-.258.253.11.368.405.258.658-.593 1.355-1.35 2.229-2.247 2.593-.062.026-.126.037-.188.037z"/><path d="m38.785 32.213c-.084 0-.169-.021-.247-.065-.24-.137-.324-.441-.188-.682.425-.747.65-1.6.65-2.466v-.5c0-.276.224-.5.5-.5h2c1.379 0 2.5-1.121 2.5-2.5v-2c0-1.379-1.121-2.5-2.5-2.5h-1c-.276 0-.5-.224-.5-.5s.224-.5.5-.5h1c1.93 0 3.5 1.57 3.5 3.5v2c0 1.93-1.57 3.5-3.5 3.5h-1.5c0 1.039-.27 2.063-.78 2.96-.092.162-.261.253-.435.253z"/><path d="m39.896 31.391c-.228 0-.445-.028-.647-.073-.27-.061-.438-.328-.379-.598.062-.269.326-.438.598-.379 1.094.249 2.012-.475 2.739-2.138.111-.253.406-.365.658-.258.253.11.368.405.258.658-.966 2.209-2.199 2.788-3.227 2.788z"/><path d="m38.5 34c-.276 0-.5-.224-.5-.5v-1.538c0-.276.224-.5.5-.5s.5.224.5.5v1.538c0 .276-.224.5-.5.5z"/></g></svg>