<svg enable-background="new 0 0 64 64" height="512" viewBox="0 0 64 64" width="512" xmlns="http://www.w3.org/2000/svg"><path d="m43.5 37.5s5 2 9 5 4 7 4 12 0 8 0 8h-43s0-4 0-8 0-10 4-12 6-3 6-3z" fill="#e678a0"/><path d="m52.5 42.5c-4-3-9-5-9-5l-20 2s-2 1-6 3-4 8-4 12v2c0-4 0-10 4-12s6-3 6-3l20-2s5 2 9 5 4 7 4 12c0-.626 0-1.29 0-2 0-5 0-9-4-12z" fill="#fa8cb4"/><path d="m13.5 62.5h43s0-.708 0-2h-43z" fill="#d2648c"/><path d="m29.5 38.5-4 2 2.008 7.09 3.992.91 5.027-1.676 7.973-8.324-5-1z" fill="#c88c5a"/><path d="m31.5 47.5c-1.122 0-2.231-.313-3-.59v15.59h6v-14-1.59c-.769.277-1.878.59-3 .59z" fill="#b4aaf0"/><path d="m29.445 34.5v9h10.055v-16.76z" fill="#c88c5a"/><path d="m39.5 44c-.276 0-.5-.224-.5-.5v-11.76c0-.276.224-.5.5-.5s.5.224.5.5v11.76c0 .276-.224.5-.5.5z" fill="#785ae6"/><path d="m46.5 63c-.276 0-.5-.224-.5-.5v-12c0-.276.224-.5.5-.5s.5.224.5.5v12c0 .276-.224.5-.5.5z" fill="#d2648c"/><path d="m17.5 63c-.276 0-.5-.224-.5-.5v-12c0-.276.224-.5.5-.5s.5.224.5.5v12c0 .276-.224.5-.5.5z" fill="#d2648c"/><path d="m34.5 63c-.276 0-.5-.224-.5-.5v-14c0-.276.224-.5.5-.5s.5.224.5.5v14c0 .276-.224.5-.5.5z" fill="#785ae6"/><path d="m28.5 63c-.276 0-.5-.224-.5-.5v-14c0-.276.224-.5.5-.5s.5.224.5.5v14c0 .276-.224.5-.5.5z" fill="#785ae6"/><path d="m34.5 48.5s1-2 6-3 10-2 9-6-6-7-10-7v8.236s-5 2.764-5 7.764z" fill="#e678a0"/><path d="m49.476 41.424c.186-.552.208-1.187.024-1.924-1-4-6-7-10-7v2c3.974 0 8.932 2.963 9.976 6.924z" fill="#fa8cb4"/><path d="m29.5 38.5s-3 2-2 5 1 5 1 5c-3-4-6-5-5-9s5-7 6-7z" fill="#e678a0"/><path d="m28.5 49c-.154 0-.304-.072-.4-.2-.867-1.157-1.743-2.066-2.517-2.868-1.866-1.937-3.34-3.466-2.568-6.553 1.027-4.107 5.137-7.379 6.429-7.379.276 0 .5.224.5.5v6c0 .165-.082.32-.218.413-.107.073-2.618 1.832-1.752 4.429 1.014 3.042 1.026 5.073 1.026 5.158 0 .215-.138.406-.342.474-.052.018-.105.026-.158.026zm.444-15.811c-1.253.683-4.139 3.151-4.959 6.432-.638 2.549.475 3.704 2.318 5.617.478.496.994 1.032 1.527 1.644-.135-.827-.375-1.932-.806-3.223-.83-2.491.785-4.536 1.919-5.413v-5.057zm.5 5.311h.01z" fill="#785ae6"/><path d="m39.5 41.236c-.183 0-.359-.101-.447-.276-.123-.247-.023-.547.224-.671 1.956-.978 3.94-2.202 3.961-2.214.235-.146.543-.073.688.163.145.235.072.543-.163.688-.02.013-2.042 1.26-4.039 2.258-.073.035-.149.052-.224.052z" fill="#785ae6"/><path d="m56.5 63h-43c-.276 0-.5-.224-.5-.5v-8c0-4.105 0-10.309 4.276-12.447l6-3c.248-.123.547-.024.671.224.123.247.023.547-.224.671l-6 3c-3.723 1.861-3.723 7.693-3.723 11.552v7.5h42v-7.5c0-4.889 0-8.75-3.8-11.6-.84-.629-1.791-1.264-2.828-1.886-.237-.142-.314-.449-.172-.686.144-.237.452-.312.686-.171 1.066.64 2.047 1.293 2.914 1.943 4.2 3.15 4.2 7.437 4.2 12.4v8c0 .276-.224.5-.5.5z" fill="#785ae6"/><path d="m37.5 51c-.827 0-1.5-.673-1.5-1.5s.673-1.5 1.5-1.5 1.5.673 1.5 1.5-.673 1.5-1.5 1.5zm0-2c-.275 0-.5.224-.5.5s.225.5.5.5.5-.224.5-.5-.225-.5-.5-.5z" fill="#d2648c"/><path d="m25.5 51c-.827 0-1.5-.673-1.5-1.5s.673-1.5 1.5-1.5 1.5.673 1.5 1.5-.673 1.5-1.5 1.5zm0-2c-.275 0-.5.224-.5.5s.225.5.5.5.5-.224.5-.5-.225-.5-.5-.5z" fill="#d2648c"/><g fill="#f0f0e6"><path d="m37.5 59c-.276 0-.5-.224-.5-.5v-9c0-.276.224-.5.5-.5s.5.224.5.5v9c0 .276-.224.5-.5.5z"/><circle cx="37.5" cy="59" r="1"/><path d="m25.5 59c-.276 0-.5-.224-.5-.5v-9c0-.276.224-.5.5-.5s.5.224.5.5v9c0 .276-.224.5-.5.5z"/><circle cx="25.5" cy="59" r="1"/></g><path d="m34.5 48.996c-.04 0-.081-.005-.121-.015-.222-.056-.379-.252-.379-.481 0-4.622 3.932-7.383 5-8.048v-13.952c0-.276.224-.5.5-.5s.5.224.5.5v5.515c4.008.232 8.941 3.191 9.985 7.364.277 1.108.15 2.092-.376 2.924-1.365 2.158-5.079 2.901-9.012 3.687-4.626.925-5.645 2.722-5.654 2.74-.089.166-.261.266-.443.266zm5.5-15.979v7.72c0 .182-.099.349-.258.438-.042.023-3.815 2.163-4.601 5.943.911-.7 2.517-1.558 5.261-2.107 3.552-.71 7.226-1.445 8.362-3.241.38-.6.462-1.303.25-2.147-.905-3.623-5.381-6.37-9.014-6.606z" fill="#785ae6"/><path d="m40.126 18.5c-.457 2.069-1.332 5-2.626 5-2 0-2-6-2-6s-8 0-10 0c-.665 0-2.169.196-3.565.131-2.995-.138-6.435-2.126-6.435-6.131 0-6 2-8 3-7s3 3 4 3c0 0-1.581-2.419 0-4 1-1 3 4 7 4s15-1 15 6-2 12-2 15-1.387 2.911-4.193 2.911z" fill="#cb783f"/><path d="m42.431 27.5c-.297 1.898-1.572 1.913-3.842 1.911l-.282 2c2.807 0 4.193.089 4.193-2.911 0-.308.033-.65.07-1z" fill="#be6432"/><path d="m35.5 16.5c0-.552-.448-1-1-1h-9c-.665 0-2.169.196-3.565.131-2.816-.13-6.024-1.896-6.398-5.436-.022.415-.037.844-.037 1.305 0 4.005 3.44 5.992 6.435 6.131 1.396.065 2.9-.131 3.565-.131h10z" fill="#be6432"/><path d="m22.5 5.5c1-1 3 4 7 4 3.859 0 14.228-.928 14.956 5.29.015-.43.044-.844.044-1.29 0-7-11-6-15-6s-6-5-7-4c-.866.866-.782 1.981-.53 2.815.11-.284.276-.561.53-.815z" fill="#dc8c50"/><path d="m18.5 6.5c1 1 3 3 4 3 0 0-.684-1.055-.698-2.226-1.057-.539-2.499-1.971-3.302-2.774-1-1-3 1-3 7 0 .196.031.368.047.552.294-4.863 2.039-6.466 2.953-5.552z" fill="#dc8c50"/><path d="m21.5 17.5v11c0 3.314 2.686 6 6 6h5c3.866 0 7-3.134 7-7v-1h2c1.657 0 3-1.343 3-3v-2c0-1.657-1.343-3-3-3h-2l-3-1z" fill="#e1a271"/><path d="m23.5 25c-.276 0-.5-.224-.5-.5v-3c0-.276.224-.5.5-.5s.5.224.5.5v3c0 .276-.224.5-.5.5z" fill="#785ae6"/><path d="m33.5 21c-.128 0-.256-.049-.354-.146-2.586-2.585-4.228-1.062-4.296-.997-.197.191-.513.188-.706-.008-.191-.196-.192-.508.002-.702.023-.023 2.394-2.314 5.707 1 .195.195.195.512 0 .707-.097.097-.225.146-.353.146z" fill="#785ae6"/><path d="m24.5 20c-.127 0-.254-.048-.352-.145-.112-.108-1.126-1.036-2.344-.083-.215.169-.532.132-.701-.086-.171-.217-.132-.532.086-.702 1.556-1.216 3.077-.425 3.664.162.195.195.195.512 0 .707-.097.098-.225.147-.353.147z" fill="#785ae6"/><path d="m40.126 18.5c-.457 2.069-1.332 5-2.626 5-2 0-2-7-2-7z" fill="#cb783f"/><g fill="#785ae6"><path d="m41.5 27h-2c-.276 0-.5-.224-.5-.5s.224-.5.5-.5h2c1.379 0 2.5-1.122 2.5-2.5v-2c0-1.378-1.121-2.5-2.5-2.5h-1c-.276 0-.5-.224-.5-.5s.224-.5.5-.5h1c1.93 0 3.5 1.57 3.5 3.5v2c0 1.93-1.57 3.5-3.5 3.5z"/><path d="m32.5 35h-5c-3.584 0-6.5-2.916-6.5-6.5v-11c0-.276.224-.5.5-.5s.5.224.5.5v11c0 3.033 2.468 5.5 5.5 5.5h5c.276 0 .5.224.5.5s-.224.5-.5.5z"/><path d="m30.5 31h-5c-.276 0-.5-.224-.5-.5s.224-.5.5-.5h5c.402 0 .494-.275.5-.506.007-.273.245-.493.506-.491.274.004.494.224.494.497 0 .603-.399 1.5-1.5 1.5z"/><path d="m25.5 28c-1.153 0-2.5-.393-2.5-1.5 0-1.064 1.71-4.538 2.053-5.224.124-.247.425-.346.671-.224.247.124.347.424.224.671-.809 1.618-1.948 4.169-1.948 4.777 0 .301.902.5 1.5.5.276 0 .5.224.5.5s-.224.5-.5.5z"/><path d="m30.5 25c-.276 0-.5-.224-.5-.5v-3c0-.276.224-.5.5-.5s.5.224.5.5v3c0 .276-.224.5-.5.5z"/><path d="m39.5 31.905c-.271 0-.494-.217-.5-.49-.006-.276.214-.504.49-.51 1.86-.037 2.51-.242 2.51-2.405 0-.582.068-1.258.216-2.13.046-.273.31-.447.576-.41.272.046.456.304.41.577-.138.815-.202 1.439-.202 1.963 0 3.084-1.581 3.367-3.49 3.405-.003 0-.007 0-.01 0z"/><path d="m44.004 20.192c-.025 0-.052-.002-.077-.006-.273-.042-.46-.297-.418-.57.33-2.14.491-4.14.491-6.116 0-1.324-.415-2.375-1.269-3.21-2.56-2.506-8.37-2.384-11.847-2.31-.518.01-.986.02-1.384.02-2.566 0-4.36-1.869-5.547-3.105-.405-.422-.96-1-1.16-1.027-1.211 1.257.071 3.274.126 3.36.1.154.107.35.02.511-.087.16-.255.261-.439.261-1.114 0-2.831-1.624-4.354-3.146-.105-.104-.197-.125-.334-.068-.728.301-1.812 2.338-1.812 6.714 0 2.77 1.88 4.519 5.587 5.199.272.05.452.31.402.582-.051.272-.316.45-.582.401-4.191-.768-6.407-2.906-6.407-6.182 0-4.896 1.309-7.174 2.43-7.639.513-.213 1.031-.107 1.424.285.496.496 1.703 1.703 2.653 2.378-.308-.964-.43-2.309.64-3.378.186-.186.466-.283.661-.279.592.006 1.126.563 1.867 1.334 1.133 1.182 2.685 2.799 4.825 2.799.393 0 .853-.01 1.364-.021 3.627-.077 9.706-.205 12.566 2.596 1.042 1.02 1.57 2.34 1.57 3.925 0 2.027-.164 4.078-.503 6.269-.038.247-.251.423-.493.423z"/></g></svg>