<svg enable-background="new 0 0 64 64" height="512" viewBox="0 0 64 64" width="512" xmlns="http://www.w3.org/2000/svg"><path d="m43.5 37.5s5 2 9 5 4 7 4 12 0 8 0 8h-43s0-4 0-8 0-10 4-12 6-3 6-3z" fill="#fa8cb4"/><path d="m38.5 35.912v-2.172l-9.055 2.76v1.305l-6.945 2.695 1.63 7.334c.166.746 1.073 1.038 1.643.529l5.44-4.863h.287l7.005 5.253c.511.383 1.246.196 1.51-.386l4.485-9.867z" fill="#e678a0"/><path d="m28.5 43.5 1 6h5l1.395-5.253-4.395-2.747z" fill="#aad2ff"/><path d="m35.895 44.247-4.395-2.747-3 2 .352 2.11 2.36-2.11h.288l3.83 2.873z" fill="#96bef0"/><path d="m52.5 42.5c-4-3-9-5-9-5l-20 2s-2 1-6 3-4 8-4 12v2c0-4 0-10 4-12s7-3 7-3l18-2s6 2 10 5 4 7 4 12c0-.626 0-1.29 0-2 0-5 0-9-4-12z" fill="#ffa0c8"/><path d="m25.625 39.288-3.125 1.212.357 1.609c1.032-.405 1.643-.609 1.643-.609l18-2s.513.172 1.326.484l.674-1.484-2.07-.893z" fill="#fa8cb4"/><path d="m21.5 19.5s-3-1-2-3c0 0-1.692-1.198-.741-2.465s1.902-.898 1.902-.898-2.113-.792-1.426-2.43 2.265-1.321 2.265-1.321-1.791-1.373-.259-2.852 2.958-.317 2.958-.317-.515-1.902 1.301-2.641 2.661.792 2.661.792.347-1.69 2.339-1.849c1.992-.158 3 1.532 3 1.532s1.105-1.373 3.112-.898 1.888 2.166 1.888 2.166 2.232-1.215 3.764.158.528 2.8.528 2.8 2.324-.317 2.905 1.162-.37 2.271-.37 2.271 1.796.317 2.113 1.954-1.056 2.007-1.056 2.007 1.666 1.302 1.104 2.828-1.652 1.526-1.652 1.526.992 2.214-1.411 3.13l-2.925 2.345s.523 1.374-.099 2.152c0 0 .411 1.893-1.245 2.49s-1.656.598-1.656.598z" fill="#cb783f"/><path d="m21.241 8.534c1.532-1.479 2.958-.317 2.958-.317s-.515-1.902 1.301-2.641 2.661.792 2.661.792.347-1.69 2.339-1.849c1.992-.158 3 1.532 3 1.532s1.105-1.373 3.112-.898c2.007.476 1.888 2.166 1.888 2.166s2.232-1.215 3.764.158c.265.238.451.477.582.71.185-.328.727-1.537-.582-2.71-1.532-1.373-3.764-.158-3.764-.158s.119-1.69-1.888-2.166c-2.007-.475-3.112.898-3.112.898s-1.008-1.69-3-1.532c-1.992.159-2.339 1.849-2.339 1.849s-.845-1.532-2.661-.792-1.301 2.641-1.301 2.641-1.426-1.162-2.958.317c-.93.898-.635 1.755-.26 2.291.074-.096.159-.193.26-.291z" fill="#dc8c50"/><path d="m29.445 33.5v8h10.055v-15.76z" fill="#ffb4be"/><path d="m39.5 35c-.276 0-.5-.224-.5-.5v-4.121c0-.276.224-.5.5-.5s.5.224.5.5v4.121c0 .276-.224.5-.5.5z" fill="#785ae6"/><path d="m39.5 30.879c-.205 0-.396-.126-.47-.33-.094-.26.04-.546.3-.641l.657-.237c1.229-.444.939-1.854.926-1.914-.032-.147.004-.301.099-.418.362-.453.131-1.375.022-1.662-.077-.203-.015-.432.155-.568l2.926-2.343c.041-.033.086-.059.134-.077.596-.227.99-.561 1.17-.991.292-.695-.036-1.462-.039-1.47-.067-.155-.053-.334.04-.475.092-.141.249-.227.417-.227.021-.001.758-.047 1.183-1.199.428-1.161-.93-2.251-.944-2.262-.148-.117-.218-.308-.18-.493.038-.186.177-.333.359-.383.149-.044.909-.327.695-1.429-.249-1.286-1.694-1.555-1.709-1.558-.191-.034-.346-.176-.396-.364s.014-.388.163-.513c.063-.056.651-.618.225-1.705-.43-1.092-2.353-.853-2.373-.849-.198.026-.391-.067-.494-.237s-.096-.384.019-.546c.072-.107.696-1.108-.454-2.14-1.253-1.125-3.172-.102-3.191-.092-.16.088-.356.08-.509-.019-.154-.099-.241-.273-.228-.456.006-.126.02-1.283-1.504-1.644-1.678-.394-2.598.714-2.607.725-.102.127-.259.198-.425.185-.163-.011-.311-.102-.394-.243-.034-.056-.889-1.424-2.531-1.289-1.576.125-1.878 1.4-1.89 1.455-.045.203-.211.359-.417.388-.205.026-.409-.069-.509-.251-.064-.113-.69-1.117-2.034-.57-1.39.566-1.023 1.987-1.007 2.047.057.21-.028.432-.21.55-.183.118-.419.105-.588-.032-.109-.087-1.131-.834-2.295.289-.332.32-.484.634-.465.959.036.624.675 1.131.681 1.136.185.142.247.392.151.604-.096.211-.323.333-.553.284-.119-.022-1.201-.183-1.707 1.024-.121.29-.13.548-.026.792.223.521.919.882 1.168.977.002.001.003.001.004.002.256.1.384.387.286.644s-.385.385-.643.29c-.001-.001-.003-.001-.006-.002-.02-.006-.632-.185-1.32.732-.157.21-.214.411-.181.632.077.501.612.983.812 1.126s.267.411.157.631c-.172.344-.197.654-.075.948.299.722 1.391 1.223 1.786 1.354.262.087.403.37.316.632s-.367.405-.632.316c-.076-.025-1.86-.633-2.394-1.92-.184-.445-.2-.923-.048-1.402-.328-.302-.802-.845-.909-1.528-.076-.486.051-.967.368-1.389.317-.424.643-.697.948-.87-.22-.21-.422-.467-.555-.774-.212-.493-.205-1.038.021-1.577.395-.941 1.069-1.382 1.697-1.558-.177-.291-.322-.646-.345-1.045-.035-.625.224-1.209.77-1.736.979-.945 1.996-1.002 2.741-.79.063-.816.466-1.779 1.676-2.271 1.203-.491 2.125-.148 2.706.33.404-.645 1.168-1.32 2.443-1.422 1.572-.125 2.595.723 3.102 1.291.562-.438 1.637-1.007 3.166-.645 1.381.327 1.978 1.199 2.185 1.935.87-.303 2.446-.608 3.686.504 1.012.908 1.124 1.91.953 2.648.86.039 2.142.308 2.611 1.503.382.971.214 1.71-.028 2.191.657.285 1.559.893 1.797 2.123.216 1.115-.215 1.823-.712 2.219.524.598 1.189 1.662.739 2.884-.391 1.061-1.021 1.515-1.493 1.708.092.434.14 1.065-.12 1.693-.28.677-.841 1.188-1.666 1.52l-2.601 2.083c.129.494.267 1.387-.151 2.091.108.857-.105 2.304-1.602 2.844l-.66.238c-.056.02-.113.029-.17.029z" fill="#785ae6"/><path d="m21.5 12.5v15c0 3.314 2.686 6 6 6h5c3.866 0 7-3.134 7-7v-1h2c1.657 0 3-1.343 3-3v-2c0-1.657-1.343-3-3-3h-2l-3-5z" fill="#ffc8d2"/><path d="m37.696 31.5s-1.196 0-1.196-1-.098-1.911-1-3c-1.028-1.242-3.5-1-9-1-4 0-5 3-4 5 0 0 1 3 6 3 10 0 9.196-3 9.196-3zm-6.196 0c-2 0-2-1-3-1s-1 0-2 0-1 1-2 1-1-3.733 2-3.733c2 0 7-.522 7 1.233 0 1 0 2.5-2 2.5z" fill="#cb783f"/><path d="m28.5 35c-5.299 0-6.429-3.206-6.474-3.342-.204-.397-.344-.917-.378-1.436-.018-.276.191-.514.466-.532.291-.009.514.191.532.466.025.388.13.774.302 1.119.063.172 1.011 2.725 5.552 2.725 1.315 0 2.512-.053 3.556-.158.271-.024.52.173.547.448s-.173.52-.448.547c-1.076.108-2.306.163-3.655.163z" fill="#785ae6"/><path d="m40.5 16.5s-1 4-2 4-1-3-1-3c-3-2-4-5-4-5-7-1-10 0-10 0-1 3-2 4-2 4v-6h19z" fill="#cb783f"/><g fill="#785ae6"><path d="m22.119 30.656c-.185 0-.362-.102-.449-.279-.444-.9-.67-1.868-.67-2.877v-11c0-.276.224-.5.5-.5s.5.224.5.5v11c0 .854.19 1.673.566 2.435.123.248.021.547-.227.669-.07.035-.146.052-.22.052z"/><path d="m41.5 26h-2c-.276 0-.5-.224-.5-.5s.224-.5.5-.5h2c1.378 0 2.5-1.122 2.5-2.5v-2c0-1.378-1.122-2.5-2.5-2.5h-1c-.276 0-.5-.224-.5-.5s.224-.5.5-.5h1c1.93 0 3.5 1.57 3.5 3.5v2c0 1.93-1.57 3.5-3.5 3.5z"/><path d="m30.5 30h-5c-.276 0-.5-.224-.5-.5s.224-.5.5-.5h5c.403 0 .494-.275.5-.506.007-.271.229-.491.5-.491h.006c.274.004.494.224.494.497 0 .603-.399 1.5-1.5 1.5z"/><path d="m25.5 26c-1.153 0-2.5-.393-2.5-1.5 0-1.064 1.71-4.538 2.053-5.224.124-.247.423-.347.671-.224.247.124.347.424.224.671-.809 1.618-1.948 4.169-1.948 4.777 0 .301.903.5 1.5.5.276 0 .5.224.5.5s-.224.5-.5.5z"/><path d="m30.5 23c-.276 0-.5-.224-.5-.5v-3c0-.276.224-.5.5-.5s.5.224.5.5v3c0 .276-.224.5-.5.5z"/><path d="m23.5 23c-.276 0-.5-.224-.5-.5v-3c0-.276.224-.5.5-.5s.5.224.5.5v3c0 .276-.224.5-.5.5z"/><path d="m33.5 19c-.128 0-.256-.049-.354-.146-2.588-2.586-4.228-1.062-4.296-.997-.198.191-.514.188-.706-.008s-.192-.508.001-.702c.023-.024 2.391-2.315 5.707 1 .195.195.195.512 0 .707-.096.097-.224.146-.352.146z"/><path d="m24.5 18c-.127 0-.255-.048-.353-.145-.116-.113-1.127-1.033-2.342-.082-.22.17-.533.13-.702-.086-.17-.218-.131-.532.086-.702 1.555-1.216 3.077-.426 3.664.162.195.195.195.512 0 .707-.097.097-.225.146-.353.146z"/><path d="m29.444 36c-.276 0-.5-.224-.5-.5v-1c0-.276.224-.5.5-.5s.5.224.5.5v1c0 .276-.223.5-.5.5z"/></g><path d="m13.5 62.5h43s0-.708 0-2h-43z" fill="#e678a0"/><path d="m29.5 49.5-2.028 13h9.028l-2-13z" fill="#aad2ff"/><path d="m27.784 60.5-.312 2h9.028l-.308-2z" fill="#96bef0"/><path d="m46.5 63c-.276 0-.5-.224-.5-.5v-12c0-.276.224-.5.5-.5s.5.224.5.5v12c0 .276-.224.5-.5.5z" fill="#e678a0"/><path d="m17.5 63c-.276 0-.5-.224-.5-.5v-11c0-.276.224-.5.5-.5s.5.224.5.5v11c0 .276-.224.5-.5.5z" fill="#e678a0"/><path d="m29.444 36c-.276 0-.5-.224-.5-.5v-1c0-.276.224-.5.5-.5s.5.224.5.5v1c0 .276-.223.5-.5.5z" fill="#785ae6"/><path d="m31.5 41.5 8 5 4-9-4-3.588z" fill="#fa8cb4"/><path d="m39.5 33.912-2.368 1.483 5.368 4.105 1-2z" fill="#ffa0c8"/><path d="m31.5 41.5-2.055-5.695-5.945 3.695 2 7z" fill="#fa8cb4"/><path d="m30.098 37.601-.653-1.796-5.945 3.695.489 1.711z" fill="#ffa0c8"/><path d="m56.5 63h-43c-.276 0-.5-.224-.5-.5v-8c0-4.105 0-10.309 4.276-12.447l6-3 5.904-3.672c.236-.145.543-.074.689.161s.074.543-.161.689l-5.944 3.695-6.041 3.022c-3.723 1.861-3.723 7.693-3.723 11.552v7.5h42v-7.5c0-4.889 0-8.75-3.8-11.6-3.898-2.924-8.836-4.916-8.886-4.936-.055-.022-.105-.053-.148-.092l-3.67-3.292-4.821 4.212c-.208.182-.525.16-.706-.047-.182-.208-.161-.524.047-.706l5.155-4.504c.19-.167.474-.165.663.004l3.935 3.53c.693.284 5.258 2.201 9.031 5.031 4.2 3.15 4.2 7.437 4.2 12.4v8c0 .276-.224.5-.5.5z" fill="#785ae6"/><path d="m34.808 51.5-.308-2h-5l-.312 2z" fill="#96bef0"/><g fill="#ffe885"><circle cx="26" cy="43" r="1"/><circle cx="39" cy="43" r="1"/></g></svg>