<svg enable-background="new 0 0 64 64" height="512" viewBox="0 0 64 64" width="512" xmlns="http://www.w3.org/2000/svg"><path d="m43.5 37.5s5 2 9 5 4 7 4 12 0 8 0 8h-43s0-4 0-8 0-10 4-12 6-3 6-3z" fill="#aad2ff"/><path d="m13.5 62.5h43s0-.708 0-2h-43z" fill="#96bef0"/><path d="m52.5 42.5c-4-3-9-5-9-5l-20 2s-2 1-6 3-4 8-4 12v2c0-4 0-10 4-12s7-4 7-4l18-1s6 2 10 5 4 7 4 12c0-.626 0-1.29 0-2 0-5 0-9-4-12z" fill="#bee6ff"/><path d="m46.5 63c-.276 0-.5-.224-.5-.5v-12c0-.276.224-.5.5-.5s.5.224.5.5v12c0 .276-.224.5-.5.5z" fill="#96bef0"/><path d="m17.5 63c-.276 0-.5-.224-.5-.5v-12c0-.276.224-.5.5-.5s.5.224.5.5v12c0 .276-.224.5-.5.5z" fill="#96bef0"/><path d="m40.126 18.5c-.457 2.069-1.332 5-2.626 5-2 0-2-6-2-6s-8 0-10 0c-.665 0-2.169.196-3.565.131-2.995-.138-6.435-2.126-6.435-6.131 0-6 2-8 3-7s3 3 4 3c0 0-1.581-2.419 0-4 1-1 3 4 7 4s15-1 15 6-2 12-2 15-1.387 2.911-4.193 2.911z" fill="#968cd2"/><path d="m42.431 27.5c-.297 1.898-1.572 1.913-3.842 1.911l-.282 2c2.807 0 4.193.089 4.193-2.911 0-.308.033-.65.07-1z" fill="#8d7bd4"/><path d="m35.5 16.5c0-.552-.448-1-1-1h-9c-.665 0-2.169.196-3.565.131-2.816-.13-6.024-1.896-6.398-5.436-.022.415-.037.844-.037 1.305 0 4.005 3.44 5.992 6.435 6.131 1.396.065 2.9-.131 3.565-.131h10z" fill="#8d7bd4"/><path d="m22.5 5.5c1-1 3 4 7 4 3.859 0 14.228-.928 14.956 5.29.015-.43.044-.844.044-1.29 0-7-11-6-15-6s-6-5-7-4c-.866.866-.782 1.981-.53 2.815.11-.284.276-.561.53-.815z" fill="#a99be0"/><path d="m18.5 6.5c1 1 3 3 4 3 0 0-.684-1.055-.698-2.226-1.057-.539-2.499-1.971-3.302-2.774-1-1-3 1-3 7 0 .196.031.368.047.552.294-4.863 2.039-6.466 2.953-5.552z" fill="#a99be0"/><path d="m38.5 33.912v-1.172l-9.055 3.76v-.695l-5.945 3.695 1.532 6.892c.185.832 1.258 1.066 1.773.387l2.64-3.482v.203h.055 3l5.929 4.235c.538.385 1.295.15 1.521-.472l3.55-9.763z" fill="#96bef0"/><path d="m29.445 34.5v7h.055 9v-10.76z" fill="#ffb4be"/><path d="m21.5 17.5v11c0 3.314 2.686 6 6 6h5c3.866 0 7-3.134 7-7v-1h2c1.657 0 3-1.343 3-3v-2c0-1.657-1.343-3-3-3h-2l-3-1z" fill="#ffc8d2"/><g fill="#785ae6"><path d="m23.5 25c-.276 0-.5-.224-.5-.5v-3c0-.276.224-.5.5-.5s.5.224.5.5v3c0 .276-.224.5-.5.5z"/><path d="m33.5 21c-.128 0-.256-.049-.354-.146-2.588-2.586-4.228-1.062-4.296-.997-.198.191-.514.188-.706-.008s-.192-.508.001-.702c.023-.024 2.391-2.315 5.707 1 .195.195.195.512 0 .707-.096.097-.224.146-.352.146z"/><path d="m24.5 20c-.127 0-.255-.048-.353-.145-.116-.113-1.127-1.033-2.342-.082-.22.169-.533.131-.702-.086-.17-.218-.131-.532.086-.702 1.555-1.215 3.077-.426 3.664.162.195.195.195.512 0 .707-.097.097-.225.146-.353.146z"/></g><path d="m40.126 18.5c-.457 2.069-1.332 5-2.626 5-2 0-2-7-2-7z" fill="#968cd2"/><g fill="#785ae6"><path d="m41.5 27h-2c-.276 0-.5-.224-.5-.5s.224-.5.5-.5h2c1.378 0 2.5-1.122 2.5-2.5v-2c0-1.378-1.122-2.5-2.5-2.5h-1c-.276 0-.5-.224-.5-.5s.224-.5.5-.5h1c1.93 0 3.5 1.57 3.5 3.5v2c0 1.93-1.57 3.5-3.5 3.5z"/><path d="m32.5 35h-5c-3.584 0-6.5-2.916-6.5-6.5v-11c0-.276.224-.5.5-.5s.5.224.5.5v11c0 3.033 2.467 5.5 5.5 5.5h5c.276 0 .5.224.5.5s-.224.5-.5.5z"/><path d="m30.5 31h-5c-.276 0-.5-.224-.5-.5s.224-.5.5-.5h5c.403 0 .494-.275.5-.506.007-.273.19-.496.506-.491.274.004.494.224.494.497 0 .603-.399 1.5-1.5 1.5z"/><path d="m25.5 28c-1.153 0-2.5-.393-2.5-1.5 0-1.064 1.71-4.538 2.053-5.224.124-.247.423-.346.671-.224.247.124.347.424.224.671-.809 1.618-1.948 4.169-1.948 4.777 0 .301.903.5 1.5.5.276 0 .5.224.5.5s-.224.5-.5.5z"/><path d="m30.5 25c-.276 0-.5-.224-.5-.5v-3c0-.276.224-.5.5-.5s.5.224.5.5v3c0 .276-.224.5-.5.5z"/><path d="m38.771 31.911c-.075 0-.15 0-.228 0h-.236c-.276 0-.5-.224-.5-.5s.224-.5.5-.5h.237c1.219 0 2.184.002 2.729-.299.359-.199.727-.605.727-2.112 0-.578.069-1.255.216-2.13.046-.272.298-.454.576-.41.272.046.456.304.41.576-.138.819-.202 1.443-.202 1.964 0 1.59-.383 2.512-1.244 2.987-.729.403-1.685.424-2.985.424z"/><path d="m44.004 20.192c-.025 0-.051-.002-.077-.006-.273-.042-.46-.297-.418-.57.33-2.145.491-4.146.491-6.116 0-1.324-.415-2.375-1.269-3.21-2.559-2.506-8.373-2.383-11.846-2.31-.519.01-.987.02-1.385.02-2.566 0-4.36-1.869-5.547-3.105-.405-.422-.959-1-1.161-1.027-1.21 1.257.071 3.274.126 3.36.1.154.107.35.02.511-.086.16-.255.261-.438.261-1.114 0-2.831-1.624-4.354-3.146-.105-.105-.2-.125-.334-.068-.728.301-1.812 2.338-1.812 6.714 0 2.77 1.88 4.519 5.588 5.199.271.05.451.31.401.582-.049.271-.305.454-.582.401-4.191-.768-6.407-2.906-6.407-6.182 0-4.896 1.309-7.174 2.43-7.639.511-.212 1.031-.108 1.424.285.496.496 1.704 1.703 2.653 2.378-.307-.964-.429-2.309.64-3.378.185-.185.412-.294.661-.279.591.006 1.126.563 1.867 1.334 1.133 1.182 2.685 2.799 4.825 2.799.393 0 .853-.01 1.364-.021 3.629-.077 9.707-.205 12.566 2.596 1.042 1.02 1.57 2.34 1.57 3.925 0 2.022-.165 4.072-.502 6.269-.039.247-.251.423-.494.423z"/></g><path d="m32.5 41.5 6.003 4.288c.515.368 1.238.171 1.495-.408l3.502-7.88-5-3.588z" fill="#f0f0e6"/><path d="m29.445 41.297v-5.491l-5.945 3.694 1.45 5.076c.226.792 1.261.986 1.758.329z" fill="#f0f0e6"/><path d="m42.812 39.049.688-1.549-5-3.588-1.203 1.522z" fill="#fffffa"/><path d="m23.5 39.5.485 1.698 5.46-3.393v-2z" fill="#fffffa"/><path d="m56.5 63h-43c-.276 0-.5-.224-.5-.5v-8c0-4.105 0-10.309 4.276-12.447l6-3 5.668-3.525v-1.028c0-.276.224-.5.5-.5s.5.224.5.5v1.305c0 .173-.089.333-.236.425l-5.944 3.695-6.041 3.022c-3.723 1.862-3.723 7.694-3.723 11.553v7.5h42v-7.5c0-4.889 0-8.75-3.8-11.6-3.898-2.924-8.836-4.916-8.886-4.936-.038-.015-.073-.035-.106-.058l-5-3.588c-.13-.094-.208-.245-.208-.406v-2.172c0-.276.224-.5.5-.5s.5.224.5.5v1.915l4.743 3.404c.595.242 5.233 2.173 9.057 5.041 4.2 3.15 4.2 7.437 4.2 12.4v8c0 .276-.224.5-.5.5z" fill="#785ae6"/><path d="m31.5 54.5h-1c-.552 0-1-.448-1-1v-12h3v12c0 .552-.448 1-1 1z" fill="#f0f0e6"/><path d="m29.5 42c-.276 0-.5-.224-.5-.5v-7c0-.276.224-.5.5-.5s.5.224.5.5v7c0 .276-.224.5-.5.5z" fill="#785ae6"/></svg>