<svg enable-background="new 0 0 64 64" height="512" viewBox="0 0 64 64" width="512" xmlns="http://www.w3.org/2000/svg"><path d="m38 5.19 5.5-1.69-1 3 7 3-3 4 3 8h-5z" fill="#cb783f"/><path d="m43.083 6.75-.583 1.75 5.865 2.513 1.135-1.513z" fill="#dc8c50"/><path d="m42.757 5.728.743-2.228-5.5 1.69.71 1.782z" fill="#dc8c50"/><path d="m49.5 22h-5c-.205 0-.389-.125-.464-.314l-6.5-16.31c-.052-.13-.047-.275.013-.401.061-.126.171-.221.304-.262l5.5-1.69c.179-.058.374-.006.505.128s.176.33.116.508l-.854 2.563 6.577 2.818c.141.061.247.183.286.331s.009.307-.083.429l-2.835 3.781 2.904 7.743c.058.153.036.326-.057.461-.095.135-.248.215-.412.215zm-4.661-1h3.939l-2.747-7.324c-.06-.16-.034-.339.068-.476l2.618-3.491-6.414-2.749c-.239-.103-.36-.371-.277-.618l.693-2.078-4.054 1.245z" fill="#785ae6"/><ellipse cx="22.25" cy="24.114" fill="#e678a0" rx="4.75" ry="5.614"/><path d="m22.25 30.228c-2.895 0-5.25-2.743-5.25-6.114s2.355-6.114 5.25-6.114 5.25 2.742 5.25 6.113-2.355 6.115-5.25 6.115zm0-11.228c-2.343 0-4.25 2.294-4.25 5.113 0 2.82 1.907 5.114 4.25 5.114s4.25-2.294 4.25-5.114c0-2.819-1.907-5.113-4.25-5.113z" fill="#785ae6"/><path d="m23.114 28.186c-1.942 0-3.523-1.827-3.523-4.072s1.581-4.072 3.523-4.072 3.522 1.827 3.522 4.072-1.58 4.072-3.522 4.072zm0-7.145c-1.391 0-2.523 1.378-2.523 3.072s1.132 3.072 2.523 3.072 2.522-1.378 2.522-3.072-1.131-3.072-2.522-3.072z" fill="#785ae6"/><path d="m38.307 31.411c2.807 0 4.193.089 4.193-2.911 0-.602.08-1.284.209-2.047h-4.209z" fill="#cb783f"/><path d="m29.5 36.5s-8 4-12 6-4 8-4 12 0 8 0 8h43s0-3 0-8 0-9-4-12-14-6.588-14-6.588v-4.172z" fill="#aad2ff"/><path d="m17.5 44.5c4-2 12-6 12-6l9-4.76v-2l-9 4.76s-8 4-12 6-4 8-4 12v2c0-4 0-10 4-12z" fill="#bee6ff"/><path d="m52.5 42.5c-4-3-14-6.588-14-6.588v2s10 3.588 14 6.588 4 7 4 12c0-.626 0-1.291 0-2 0-5 0-9-4-12z" fill="#bee6ff"/><path d="m25.5 38.5 5.287 8.46 11.922-9.417-4.209-1.631-9 .588z" fill="#ffb4be"/><path d="m23.114 39.693 7.386 10.807 14.636-11.929-2.427-1.028-11.922 9.417-5.287-8.46z" fill="#96aaf0"/><path d="m26.452 40.024-.952-1.524c-.754.377-1.561.78-2.386 1.193l1.019 1.491c.825-.413 1.609-.805 2.319-1.16z" fill="#a2baff"/><path d="m41.029 38.87c.735.289 1.587.631 2.498 1.012l1.609-1.311-2.427-1.027z" fill="#a2baff"/><path d="m30.5 51c-.024 0-.048-.002-.072-.005-.138-.021-.262-.098-.341-.213l-7.386-10.807c-.082-.119-.107-.268-.071-.408s.131-.257.26-.321l2.386-1.193c.232-.117.511-.036.647.183l4.991 7.986 11.484-9.07c.144-.112.338-.139.505-.068l2.427 1.027c.162.068.275.217.3.391.024.173-.043.347-.179.458l-14.635 11.928c-.09.073-.202.112-.316.112zm-6.65-11.116 6.756 9.885 13.571-11.061-1.39-.588-11.689 9.232c-.112.089-.255.128-.396.1-.14-.023-.263-.106-.338-.228l-5.046-8.074z" fill="#8296dc"/><g fill="#96bef0"><path d="m13.5 62.5h43s0-.708 0-2h-43z"/><path d="m46.5 63c-.276 0-.5-.224-.5-.5v-12c0-.276.224-.5.5-.5s.5.224.5.5v12c0 .276-.224.5-.5.5z"/><path d="m17.5 63c-.276 0-.5-.224-.5-.5v-12c0-.276.224-.5.5-.5s.5.224.5.5v12c0 .276-.224.5-.5.5z"/></g><path d="m29.445 34.5v7h.055l9-2v-8.76z" fill="#ffb4be"/><path d="m21.5 13.5v15c0 3.314 2.686 6 6 6h5c3.866 0 7-3.134 7-7v-1h2c1.657 0 3-1.343 3-3v-2c0-1.657-1.343-3-3-3h-2l-3-5z" fill="#ffc8d2"/><g fill="#785ae6"><path d="m23.5 25c-.276 0-.5-.224-.5-.5v-3c0-.276.224-.5.5-.5s.5.224.5.5v3c0 .276-.224.5-.5.5z"/><path d="m33.5 21c-.128 0-.256-.049-.354-.146-2.588-2.586-4.228-1.062-4.296-.997-.198.19-.514.188-.706-.008-.192-.195-.192-.508.001-.702.023-.023 2.391-2.315 5.707 1 .195.195.195.512 0 .707-.096.097-.224.146-.352.146z"/><path d="m24.5 20c-.127 0-.254-.048-.352-.145-.111-.108-1.123-1.032-2.343-.083-.218.171-.532.131-.702-.086-.17-.218-.131-.531.086-.701 1.554-1.218 3.076-.426 3.664.161.195.195.195.512 0 .707-.097.098-.225.147-.353.147z"/><path d="m41.5 27h-2c-.276 0-.5-.224-.5-.5s.224-.5.5-.5h2c1.378 0 2.5-1.121 2.5-2.5v-2c0-1.379-1.122-2.5-2.5-2.5h-1c-.276 0-.5-.224-.5-.5s.224-.5.5-.5h1c1.93 0 3.5 1.57 3.5 3.5v2c0 1.93-1.57 3.5-3.5 3.5z"/><path d="m32.5 35h-5c-3.584 0-6.5-2.916-6.5-6.5v-11c0-.276.224-.5.5-.5s.5.224.5.5v11c0 3.032 2.467 5.5 5.5 5.5h5c.276 0 .5.224.5.5s-.224.5-.5.5z"/><path d="m30.5 31h-5c-.276 0-.5-.224-.5-.5s.224-.5.5-.5h5c.403 0 .494-.275.5-.506.007-.271.229-.491.5-.491.002 0 .004 0 .006.001.274.003.494.223.494.496 0 .603-.399 1.5-1.5 1.5z"/><path d="m25.5 28c-1.153 0-2.5-.393-2.5-1.5 0-1.064 1.71-4.538 2.053-5.224.124-.246.423-.348.671-.224.247.124.347.424.224.671-.809 1.618-1.948 4.169-1.948 4.777 0 .301.903.5 1.5.5.276 0 .5.224.5.5s-.224.5-.5.5z"/><path d="m30.5 25c-.276 0-.5-.224-.5-.5v-3c0-.276.224-.5.5-.5s.5.224.5.5v3c0 .276-.224.5-.5.5z"/><path d="m38.773 31.91c-.075 0-.152 0-.229 0h-.237c-.276 0-.5-.224-.5-.5s.224-.5.5-.5h.238c1.22-.008 2.183.003 2.728-.299.359-.199.727-.604.727-2.111 0-.578.069-1.255.216-2.13.046-.272.298-.458.576-.41.272.046.456.304.41.576-.138.818-.202 1.443-.202 1.964 0 1.59-.383 2.512-1.243 2.986-.729.404-1.684.424-2.984.424z"/><path d="m56.5 63h-43c-.276 0-.5-.224-.5-.5v-8c0-4.105 0-10.309 4.276-12.447l12-6c.246-.125.547-.022.671.224.124.247.023.547-.224.671l-12 6c-3.723 1.861-3.723 7.693-3.723 11.552v7.5h42v-7.5c0-4.889 0-8.75-3.8-11.6-3.895-2.922-13.77-6.482-13.869-6.518-.199-.07-.331-.259-.331-.47v-4.172c0-.276.224-.5.5-.5s.5.224.5.5v3.821c1.797.66 10.151 3.802 13.8 6.538 4.2 3.151 4.2 7.437 4.2 12.401v8c0 .276-.224.5-.5.5z"/><path d="m29.5 42c-.276 0-.5-.224-.5-.5v-7c0-.276.224-.5.5-.5s.5.224.5.5v7c0 .276-.224.5-.5.5z"/></g><path d="m41.5 7.5c-4-4-11-4-15-3-3.881.97-7.277 4.904-7.277 10.952l.004-.002c.076-.304.162-.617.273-.95 2-6 9-11 16-7 .493.282.841.656 1.079 1.081 1.946 1.974 2.921 4.014 2.921 10.919h5s1-8-3-12z" fill="#e678a0"/><path d="m19.5 14.5c.011-.034.028-.067.039-.101.926-4.312 3.779-7.103 6.961-7.899 4-1 11-1 15 3 2.367 2.367 2.979 6.127 3.088 8.809.105-2.375-.032-7.753-3.088-10.809-4-4-11-4-15-3-3.881.97-7.277 4.904-7.277 10.952l.004-.002c.075-.303.162-.616.273-.95z" fill="#fa8cb4"/><ellipse cx="41.25" cy="24.114" fill="#e678a0" rx="4.75" ry="5.614"/><ellipse cx="42.114" cy="24.114" fill="#fffa96" rx="3.023" ry="3.572"/><path d="m42.114 28.186c-1.942 0-3.523-1.827-3.523-4.072s1.581-4.072 3.523-4.072 3.522 1.827 3.522 4.072-1.58 4.072-3.522 4.072zm0-7.145c-1.391 0-2.523 1.378-2.523 3.072s1.132 3.072 2.523 3.072 2.522-1.378 2.522-3.072-1.131-3.072-2.522-3.072z" fill="#785ae6"/><path d="m44.5 20c-.021 0-.042-.001-.062-.004-.274-.034-.468-.284-.434-.558.01-.078.92-7.808-2.857-11.585-4.113-4.113-11.3-3.675-14.525-2.868-3.434.857-6.898 4.427-6.898 10.467 0 .276-.224.5-.5.5s-.5-.224-.5-.5c0-6.579 3.845-10.485 7.656-11.438 4.753-1.188 11.626-.717 15.475 3.132 4.125 4.125 3.185 12.079 3.143 12.416-.034.253-.249.438-.498.438z" fill="#785ae6"/><path d="m36.579 8.581c-.237-.426-.585-.8-1.079-1.081-4.318-2.468-9.633-1.505-12.777 1h-.223-1.375-5.625l4 3-6 2 6 2s-1 0-2 4c0 0 7-2 11-4l-2 3s6-2 9-4c0 0 1.891 1.891 2.67 5.173l1.199-.714v-3.184c-.322-4.02-1.251-5.632-2.79-7.194z" fill="#cb783f"/><path d="m21.346 12.808-1.846-1.385-6 2.077 3 1z" fill="#dc8c50"/><path d="m22.5 8.5h-1.375-5.625l2.667 2z" fill="#dc8c50"/><path d="m39.495 19.127c-.273 0-.497-.22-.5-.493-.079-6.059-.704-8.24-2.785-9.727-6.617-4.727-13.145-.195-13.419 0-.225.159-.538.107-.697-.117-.16-.225-.108-.536.116-.697.073-.052 7.374-5.146 14.581 0 2.373 1.694 3.121 4.154 3.204 10.527.003.276-.217.503-.494.507-.002 0-.004 0-.006 0z" fill="#785ae6"/><path d="m38.17 20.173c-.226 0-.431-.154-.486-.385-.566-2.383-1.746-4.003-2.273-4.637-3.103 1.929-8.515 3.744-8.752 3.823-.205.065-.425-.002-.556-.171-.129-.17-.137-.403-.019-.581l1.019-1.528c-3.981 1.712-9.214 3.215-9.465 3.286-.17.05-.356.003-.485-.121-.128-.124-.181-.308-.137-.48.499-1.997 1.021-3.094 1.47-3.69l-5.143-1.714c-.205-.069-.343-.26-.343-.475s.138-.406.342-.475l5.095-1.698-3.237-2.427c-.172-.13-.243-.354-.174-.559.068-.203.259-.341.474-.341h7c.276 0 .5.224.5.5s-.224.5-.5.5h-5.5l2.8 2.1c.149.112.224.297.194.48s-.159.336-.335.395l-4.578 1.525 4.577 1.525c.232.078.375.312.335.555-.039.24-.246.418-.489.42.041.008-.576.332-1.289 2.767 1.983-.599 6.967-2.167 10.061-3.714.201-.1.447-.055.599.116.15.17.167.42.041.608l-1.167 1.75c1.944-.713 5.441-2.089 7.473-3.443.197-.134.462-.107.631.062.082.081 2 2.03 2.803 5.411.064.269-.102.538-.371.602-.038.01-.077.014-.115.014z" fill="#785ae6"/><path d="m11.5 33.5c1.581 1.581-4.257 8.705-7 5-2.145-2.898 4-8 7-5z" fill="#e678a0"/><path d="m6.449 40.055c-.932 0-1.737-.428-2.351-1.257-1.244-1.681-.213-3.801 1.36-5.156 1.783-1.535 4.544-2.346 6.395-.495.312.312.609.919.25 2.036-.639 1.986-2.965 4.473-5.122 4.827-.181.03-.359.045-.532.045zm2.794-6.973c-1.089 0-2.25.558-3.131 1.317-1.184 1.02-2.066 2.645-1.209 3.803.505.682 1.133.955 1.918.821 1.753-.288 3.803-2.505 4.332-4.147.155-.481.153-.864-.005-1.022-.546-.545-1.211-.772-1.905-.772z" fill="#785ae6"/><path d="m11.5 34c-.204 0-.396-.126-.47-.329l-4-11c-.095-.26.04-.547.299-.641.26-.094.546.04.641.299l4 11c.095.26-.04.547-.299.641-.057.02-.114.03-.171.03z" fill="#785ae6"/><path d="m8.591 25.5s3.909 0 5.909-3l-1-4s-3 4-6 4z" fill="#e678a0"/><path d="m8.591 26c-.21 0-.398-.132-.47-.329l-1.091-3c-.056-.153-.033-.324.06-.458.094-.134.247-.213.41-.213 2.713 0 5.572-3.762 5.6-3.8.116-.155.307-.229.499-.19.189.038.339.182.386.369l1 4c.034.137.009.281-.069.398-2.124 3.186-6.155 3.223-6.325 3.223zm-.399-3.06.742 2.039c.928-.082 3.513-.496 5.026-2.578l-.706-2.823c-.978 1.098-2.941 3.001-5.062 3.362z" fill="#785ae6"/><path d="m55.478 14.422c.43 1.588-5.904 3.998-6.298.629-.308-2.635 5.482-3.642 6.298-.629z" fill="#fffa96"/><path d="m51.405 17.248c-.445 0-.869-.062-1.24-.201-.858-.32-1.371-.991-1.481-1.938-.164-1.395.986-2.575 2.861-2.937 1.76-.342 3.891.178 4.417 2.119.095.35.063.897-.624 1.523-.886.806-2.52 1.434-3.933 1.434zm1.155-4.174c-.278 0-.557.027-.826.079-1.07.207-2.17.87-2.057 1.839.066.566.34.933.839 1.118 1.18.441 3.235-.206 4.147-1.035.261-.238.356-.438.333-.522-.286-1.055-1.349-1.479-2.436-1.479z" fill="#785ae6"/><path d="m55.479 14.922c-.028 0-.057-.002-.086-.008-.272-.047-.455-.306-.407-.578l1.473-8.485c.048-.272.308-.456.578-.406.272.047.455.306.407.578l-1.473 8.485c-.042.243-.253.414-.492.414z" fill="#785ae6"/><path d="m56.55 8.251s2.495 1.431 4.87.248l.826-2.919s-3.379 1.455-5.294.357z" fill="#fffa96"/><path d="m59.367 9.47c-1.67 0-2.988-.74-3.066-.785-.183-.104-.28-.312-.244-.52l.402-2.314c.028-.16.132-.297.28-.366s.32-.062.461.019c1.673.959 4.815-.368 4.848-.382.179-.076.383-.042.527.083.145.128.204.326.151.512l-.826 2.919c-.038.136-.132.249-.258.312-.776.385-1.558.522-2.275.522zm-2.26-1.504c.667.293 2.31.855 3.895.177l.498-1.764c-1.048.325-2.771.707-4.164.267z" fill="#785ae6"/><path d="m41.25 30.228c-2.895 0-5.25-2.743-5.25-6.114s2.355-6.114 5.25-6.114 5.25 2.742 5.25 6.113-2.355 6.115-5.25 6.115zm0-11.228c-2.343 0-4.25 2.294-4.25 5.113 0 2.82 1.907 5.114 4.25 5.114s4.25-2.294 4.25-5.114c0-2.819-1.907-5.113-4.25-5.113z" fill="#785ae6"/></svg>