<svg enable-background="new 0 0 64 64" height="512" viewBox="0 0 64 64" width="512" xmlns="http://www.w3.org/2000/svg"><path d="m19.091 16.328h2.407v2.519h-2.407z" fill="#a99be0"/><ellipse cx="22.25" cy="24.114" fill="#a99be0" rx="4.75" ry="5.614"/><path d="m22.25 30.228c-2.895 0-5.25-2.743-5.25-6.114s2.355-6.114 5.25-6.114 5.25 2.742 5.25 6.113-2.355 6.115-5.25 6.115zm0-11.228c-2.343 0-4.25 2.294-4.25 5.113 0 2.82 1.907 5.114 4.25 5.114s4.25-2.294 4.25-5.114c0-2.819-1.907-5.113-4.25-5.113z" fill="#785ae6"/><path d="m23.114 28.186c-1.942 0-3.523-1.827-3.523-4.072s1.581-4.072 3.523-4.072 3.522 1.827 3.522 4.072-1.58 4.072-3.522 4.072zm0-7.145c-1.391 0-2.523 1.378-2.523 3.072s1.132 3.072 2.523 3.072 2.522-1.378 2.522-3.072-1.131-3.072-2.522-3.072z" fill="#785ae6"/><path d="m38.307 31.411c2.807 0 4.193.089 4.193-2.911 0-.602.08-1.284.209-2.047h-4.209z" fill="#fa8cb4"/><path d="m29.5 36.5s-8 4-12 6-4 8-4 12 0 8 0 8h43s0-3 0-8 0-9-4-12-14-6.588-14-6.588v-4.172z" fill="#ffe885"/><path d="m52.5 42.5c-4-3-14-6.588-14-6.588v2s10 3.588 14 6.588 4 7 4 12c0-.626 0-1.291 0-2 0-5 0-9-4-12z" fill="#fffa96"/><path d="m17.5 44.5c4-2 12-6 12-6l9-4.76v-2l-9 4.76s-8 4-12 6-4 8-4 12v2c0-4 0-10 4-12z" fill="#fffa96"/><path d="m25.5 38.5 5.287 8.46 11.922-9.417-4.209-1.631-9 .588z" fill="#ffb4be"/><path d="m23.114 39.693 7.386 10.807 14.636-11.929-2.427-1.028-11.922 9.417-5.287-8.46z" fill="#aad2ff"/><path d="m26.452 40.024-.952-1.524c-.754.377-1.561.78-2.386 1.193l1.019 1.491c.825-.413 1.609-.805 2.319-1.16z" fill="#bee6ff"/><path d="m41.029 38.87c.735.289 1.587.631 2.498 1.012l1.609-1.311-2.427-1.027z" fill="#bee6ff"/><path d="m30.5 51c-.024 0-.048-.002-.072-.005-.138-.021-.262-.098-.341-.213l-7.386-10.807c-.082-.119-.107-.268-.071-.408s.131-.257.26-.321l2.386-1.193c.232-.116.511-.036.647.183l4.991 7.986 11.484-9.07c.144-.112.338-.14.505-.068l2.427 1.027c.162.068.275.217.3.391.024.173-.043.347-.179.458l-14.635 11.928c-.09.073-.202.112-.316.112zm-6.65-11.116 6.756 9.885 13.571-11.061-1.39-.588-11.689 9.232c-.112.089-.255.128-.396.1-.14-.023-.263-.106-.338-.228l-5.046-8.074z" fill="#96bef0"/><path d="m13.5 62.5h43s0-.708 0-2h-43z" fill="#f0dc78"/><path d="m46.5 63c-.276 0-.5-.224-.5-.5v-12c0-.276.224-.5.5-.5s.5.224.5.5v12c0 .276-.224.5-.5.5z" fill="#f0dc78"/><path d="m17.5 63c-.276 0-.5-.224-.5-.5v-12c0-.276.224-.5.5-.5s.5.224.5.5v12c0 .276-.224.5-.5.5z" fill="#f0dc78"/><path d="m29.445 34.5v7h.055l9-2v-8.76z" fill="#ffb4be"/><path d="m21.5 13.5v15c0 3.314 2.686 6 6 6h5c3.866 0 7-3.134 7-7v-1h2c1.657 0 3-1.343 3-3v-2c0-1.657-1.343-3-3-3h-2l-3-5z" fill="#ffc8d2"/><path d="m39.626 19.601-.515 7.48h3.254c1.266-3.209 5.407-8.201 3.981-13.987-3.148-12.764-13.346-6.493-17.346-6.493s-6-4-7-3c-1.581 1.581 0 4 0 4-1 0-3-2-4-3s-3 1-3 7c0 4.005 3.44 5.992 6.435 6.131 1.396.064 2.9-.131 3.565-.131h10s0 6 2 6c1.294 0 2.17-1.931 2.626-4z" fill="#fa8cb4"/><path d="m27.246 6.327c-2.851-.879-4.405-3.567-5.246-2.726-.866.866-.782 1.981-.53 2.815.11-.284.276-.561.53-.815.841-.841 2.395.48 5.245 1.359z" fill="#ffa0c8"/><path d="m35 16.601c0-.552-.448-1-1-1h-9c-.665 0-2.169.196-3.565.131-2.816-.13-6.024-1.896-6.398-5.436-.022.415-.037.844-.037 1.305 0 4.005 3.44 5.992 6.435 6.131 1.396.065 2.9-.131 3.565-.131h10z" fill="#e678a0"/><path d="m39.131 32.012c-.051 0-.103 0-.155 0h-.169c-.276 0-.5-.224-.5-.5s.224-.5.5-.5h.171c.971-.007 1.688.002 2.054-.362.315-.315.469-.985.469-2.049 0-.578.069-1.255.216-2.13.045-.272.297-.464.576-.41.272.046.456.304.41.576-.138.818-.202 1.442-.202 1.964 0 1.38-.235 2.229-.762 2.756-.629.627-1.545.655-2.608.655z" fill="#785ae6"/><path d="m18 6.601c1 1 3 3 4 3 0 0-.684-1.055-.698-2.226-1.057-.539-2.499-1.971-3.302-2.774-1-1-3 1-3 7 0 .196.031.368.047.552.294-4.863 2.039-6.466 2.953-5.552z" fill="#ffa0c8"/><path d="m39.626 18.601c-.457 2.069-1.332 5-2.626 5-2 0-2-7-2-7z" fill="#fa8cb4"/><g fill="#785ae6"><path d="m45.42 21.414c-.05 0-.102-.008-.153-.023-.263-.085-.408-.366-.323-.629.113-.354.258-.702.411-1.067.681-1.63 1.453-3.478.164-7.955-1.717-5.965-5.482-6.407-8.162-6.203-.272.02-.515-.188-.535-.463s.187-.515.462-.535c4.751-.336 7.756 1.923 9.195 6.924 1.386 4.816.505 6.924-.203 8.617-.142.339-.276.661-.381.987-.066.212-.263.347-.475.347z"/><path d="m23.5 25c-.276 0-.5-.224-.5-.5v-3c0-.276.224-.5.5-.5s.5.224.5.5v3c0 .276-.224.5-.5.5z"/><path d="m33.5 21c-.128 0-.256-.049-.354-.146-2.588-2.586-4.228-1.063-4.296-.997-.198.19-.514.188-.706-.008-.192-.195-.192-.508.001-.702.023-.023 2.391-2.315 5.707 1 .195.195.195.512 0 .707-.096.097-.224.146-.352.146z"/><path d="m24.5 20c-.127 0-.254-.048-.352-.145-.111-.107-1.123-1.033-2.343-.083-.218.172-.532.13-.702-.086-.17-.218-.131-.531.086-.701 1.554-1.217 3.076-.426 3.664.161.195.195.195.512 0 .707-.097.098-.225.147-.353.147z"/><path d="m41.5 27h-2c-.276 0-.5-.224-.5-.5s.224-.5.5-.5h2c1.378 0 2.5-1.121 2.5-2.5v-2c0-1.379-1.122-2.5-2.5-2.5h-1c-.276 0-.5-.224-.5-.5s.224-.5.5-.5h1c1.93 0 3.5 1.57 3.5 3.5v2c0 1.93-1.57 3.5-3.5 3.5z"/><path d="m32.5 35h-5c-3.584 0-6.5-2.916-6.5-6.5v-11c0-.276.224-.5.5-.5s.5.224.5.5v11c0 3.032 2.467 5.5 5.5 5.5h5c.276 0 .5.224.5.5s-.224.5-.5.5z"/><path d="m30.5 31h-5c-.276 0-.5-.224-.5-.5s.224-.5.5-.5h5c.403 0 .494-.275.5-.506.007-.271.229-.491.5-.491.002 0 .004 0 .006.001.274.003.494.223.494.496 0 .603-.399 1.5-1.5 1.5z"/><path d="m25.5 28c-1.153 0-2.5-.393-2.5-1.5 0-1.064 1.71-4.538 2.053-5.224.124-.247.423-.349.671-.224.247.124.347.424.224.671-.809 1.618-1.948 4.169-1.948 4.777 0 .301.903.5 1.5.5.276 0 .5.224.5.5s-.224.5-.5.5z"/><path d="m30.5 25c-.276 0-.5-.224-.5-.5v-3c0-.276.224-.5.5-.5s.5.224.5.5v3c0 .276-.224.5-.5.5z"/><path d="m38.773 31.91c-.075 0-.152 0-.229 0h-.237c-.276 0-.5-.224-.5-.5s.224-.5.5-.5h.238c1.22.001 2.183.003 2.728-.299.359-.199.727-.604.727-2.111 0-.578.069-1.255.216-2.13.046-.272.298-.458.576-.41.272.046.456.304.41.576-.138.818-.202 1.443-.202 1.964 0 1.59-.383 2.512-1.243 2.986-.729.404-1.684.424-2.984.424z"/><path d="m56.5 63h-43c-.276 0-.5-.224-.5-.5v-8c0-4.105 0-10.309 4.276-12.447l12-6c.246-.123.547-.023.671.224s.023.547-.224.671l-12 6c-3.723 1.861-3.723 7.693-3.723 11.552v7.5h42v-7.5c0-4.889 0-8.75-3.8-11.6-3.895-2.922-13.77-6.482-13.869-6.518-.199-.07-.331-.259-.331-.47v-4.172c0-.276.224-.5.5-.5s.5.224.5.5v3.821c1.797.66 10.151 3.802 13.8 6.538 4.2 3.151 4.2 7.437 4.2 12.401v8c0 .276-.224.5-.5.5z"/><path d="m29.5 42c-.276 0-.5-.224-.5-.5v-7c0-.276.224-.5.5-.5s.5.224.5.5v7c0 .276-.224.5-.5.5z"/></g><path d="m11.5 33.5c1.581 1.581-4.257 8.705-7 5-2.145-2.898 4-8 7-5z" fill="#e678a0"/><path d="m6.449 40.055c-.932 0-1.737-.428-2.351-1.257-1.244-1.681-.213-3.801 1.36-5.156 1.783-1.535 4.544-2.346 6.395-.495.312.312.609.919.25 2.036-.639 1.986-2.965 4.473-5.122 4.827-.181.03-.359.045-.532.045zm2.794-6.973c-1.089 0-2.25.558-3.131 1.317-1.184 1.02-2.066 2.645-1.209 3.803.505.682 1.133.955 1.918.821 1.753-.288 3.803-2.505 4.332-4.147.155-.481.153-.864-.005-1.022-.546-.545-1.211-.772-1.905-.772z" fill="#785ae6"/><path d="m11.5 34c-.204 0-.396-.126-.47-.329l-4-11c-.095-.26.04-.547.299-.641.26-.095.546.04.641.299l4 11c.095.26-.04.547-.299.641-.057.02-.114.03-.171.03z" fill="#785ae6"/><path d="m8.591 25.5s3.909 0 5.909-3l-1-4s-3 4-6 4z" fill="#e678a0"/><path d="m8.591 26c-.21 0-.398-.132-.47-.329l-1.091-3c-.056-.153-.033-.324.06-.458.094-.134.247-.213.41-.213 2.713 0 5.572-3.762 5.6-3.8.116-.155.307-.229.499-.19.189.038.339.182.386.369l1 4c.034.137.009.281-.069.398-2.124 3.186-6.155 3.223-6.325 3.223zm-.399-3.06.742 2.039c.928-.082 3.513-.496 5.026-2.578l-.706-2.823c-.978 1.098-2.941 3.001-5.062 3.362z" fill="#785ae6"/><path d="m55.478 14.422c.43 1.588-5.904 3.998-6.298.629-.308-2.635 5.482-3.642 6.298-.629z" fill="#fffa96"/><path d="m51.405 17.248c-.445 0-.869-.062-1.24-.201-.858-.32-1.371-.991-1.481-1.938-.164-1.395.986-2.575 2.861-2.937 1.76-.337 3.891.179 4.417 2.119.095.35.063.897-.624 1.523-.886.806-2.52 1.434-3.933 1.434zm1.155-4.174c-.278 0-.557.027-.826.079-1.07.207-2.17.87-2.057 1.839.066.566.34.933.839 1.118 1.18.444 3.235-.205 4.147-1.035.261-.238.356-.438.333-.522-.286-1.055-1.349-1.479-2.436-1.479z" fill="#785ae6"/><path d="m55.479 14.922c-.028 0-.057-.002-.086-.008-.272-.047-.455-.306-.407-.578l1.473-8.485c.048-.272.308-.457.578-.406.272.047.455.306.407.578l-1.473 8.485c-.042.243-.253.414-.492.414z" fill="#785ae6"/><path d="m56.55 8.251s2.495 1.431 4.87.248l.826-2.919s-3.379 1.455-5.294.357z" fill="#fffa96"/><path d="m59.367 9.47c-1.67 0-2.988-.74-3.066-.785-.183-.104-.28-.312-.244-.52l.402-2.314c.028-.16.132-.297.28-.366s.32-.062.461.019c1.673.956 4.815-.369 4.848-.382.179-.075.383-.043.527.083.145.128.204.326.151.512l-.826 2.919c-.038.136-.132.249-.258.312-.776.385-1.558.522-2.275.522zm-2.26-1.504c.667.293 2.31.855 3.895.177l.498-1.764c-1.048.325-2.771.707-4.164.267z" fill="#785ae6"/><path d="m19.091 20.174c-.276 0-.5-.224-.5-.5v-2.423c0-.276.224-.5.5-.5s.5.224.5.5v2.423c0 .276-.224.5-.5.5z" fill="#785ae6"/><path d="m19.224 15.417c0 .012-.001.023-.001.035l.004-.001c.003-.01.006-.021.009-.031z" fill="#e678a0"/><path d="m41.5 7.5c-4-4-11-4-15-3-.583.146-1.152.366-1.704.643l1.506 1.421.35.232c2.75-1.222 5.598-1.153 8.848.704.493.282.841.656 1.079 1.081 1.946 1.974 2.921 4.014 2.921 10.919h5s1-8-3-12z" fill="#a99be0"/><path d="m19.224 15.417c0 .012-.001.023-.001.035l.004-.001c.003-.01.006-.021.009-.031z" fill="#fa8cb4"/><path d="m41.5 7.5c-4-4-11-4-15-3-.583.146-1.152.366-1.704.643l1.356 1.473c.117-.035.23-.086.347-.116 4-1 11-1 15 3 2.367 2.367 2.979 6.127 3.088 8.809.106-2.375-.032-7.754-3.087-10.809z" fill="#b4aaf0"/><g fill="#785ae6"><path d="m44.5 20c-.021 0-.042-.001-.062-.004-.274-.034-.468-.284-.434-.558.01-.078.92-7.808-2.857-11.585-4.113-4.112-11.3-3.675-14.525-2.868-.453.112-.903.271-1.34.471-.252.11-.548.003-.663-.247-.114-.252-.004-.548.248-.663.492-.225 1.001-.403 1.513-.531 4.755-1.188 11.626-.717 15.475 3.132 4.125 4.125 3.185 12.079 3.143 12.416-.034.252-.249.437-.498.437z"/><path d="m39.495 19.127c-.273 0-.497-.22-.5-.493-.079-6.059-.704-8.24-2.785-9.727-2.677-1.912-5.658-2.547-8.862-1.876-.277.055-.536-.117-.591-.388-.057-.27.117-.535.387-.591 3.44-.716 6.774-.011 9.647 2.04 2.373 1.694 3.121 4.154 3.204 10.527.003.276-.217.503-.494.507-.002.001-.004.001-.006.001z"/><path d="m20.998 17.792c-.03 0-.06-.003-.091-.008-4.191-.77-6.407-2.907-6.407-6.184 0-4.896 1.309-7.175 2.43-7.639.511-.212 1.031-.109 1.424.285.496.496 1.704 1.703 2.653 2.378-.307-.965-.429-2.309.64-3.378.748-.746 1.62.003 2.542.797.835.718 1.874 1.612 3.204 2.021.264.081.412.36.331.624-.081.265-.36.419-.625.331-1.53-.47-2.705-1.48-3.562-2.219-.421-.363-1.013-.824-1.189-.853-1.265 1.276.017 3.294.072 3.379.1.153.107.35.02.511s-.257.264-.44.264c-1.114 0-2.831-1.624-4.354-3.146-.105-.105-.199-.125-.334-.068-.728.301-1.812 2.338-1.812 6.714 0 2.771 1.88 4.52 5.588 5.199.271.05.451.311.401.582-.044.241-.254.41-.491.41z"/></g><ellipse cx="41.25" cy="24.114" fill="#a99be0" rx="4.75" ry="5.614"/><path d="m41.25 30.228c-2.895 0-5.25-2.743-5.25-6.114s2.355-6.114 5.25-6.114 5.25 2.742 5.25 6.113-2.355 6.115-5.25 6.115zm0-11.228c-2.343 0-4.25 2.294-4.25 5.113 0 2.82 1.907 5.114 4.25 5.114s4.25-2.294 4.25-5.114c0-2.819-1.907-5.113-4.25-5.113z" fill="#785ae6"/><ellipse cx="42.114" cy="24.114" fill="#fffa96" rx="3.023" ry="3.572"/><path d="m42.114 28.186c-1.942 0-3.523-1.827-3.523-4.072s1.581-4.072 3.523-4.072 3.522 1.827 3.522 4.072-1.58 4.072-3.522 4.072zm0-7.145c-1.391 0-2.523 1.378-2.523 3.072s1.132 3.072 2.523 3.072 2.522-1.378 2.522-3.072-1.131-3.072-2.522-3.072z" fill="#785ae6"/></svg>