<svg enable-background="new 0 0 64 64" height="512" viewBox="0 0 64 64" width="512" xmlns="http://www.w3.org/2000/svg"><path d="m19.091 16.328h2.407v2.519h-2.407z" fill="#a99be0"/><ellipse cx="22.25" cy="24.114" fill="#a99be0" rx="4.75" ry="5.614"/><path d="m22.25 30.228c-2.895 0-5.25-2.743-5.25-6.114s2.355-6.114 5.25-6.114 5.25 2.742 5.25 6.113-2.355 6.115-5.25 6.115zm0-11.228c-2.344 0-4.25 2.294-4.25 5.113 0 2.82 1.906 5.114 4.25 5.114s4.25-2.294 4.25-5.114c0-2.819-1.906-5.113-4.25-5.113z" fill="#785ae6"/><path d="m23.113 28.186c-1.942 0-3.522-1.827-3.522-4.072s1.58-4.072 3.522-4.072 3.523 1.827 3.523 4.072-1.58 4.072-3.523 4.072zm0-7.145c-1.391 0-2.522 1.378-2.522 3.072s1.132 3.072 2.522 3.072c1.392 0 2.523-1.378 2.523-3.072s-1.131-3.072-2.523-3.072z" fill="#785ae6"/><path d="m38.307 31.411c2.807 0 4.193.089 4.193-2.911 0-.602.08-1.284.209-2.047h-4.209z" fill="#fa8cb4"/><path d="m29.5 36.5s-8 4-12 6-4 8-4 12 0 8 0 8h43s0-3 0-8 0-9-4-12-14-6.588-14-6.588v-4.172z" fill="#ffe885"/><path d="m52.5 42.5c-4-3-14-6.588-14-6.588v2s10 3.588 14 6.588 4 7 4 12c0-.626 0-1.291 0-2 0-5 0-9-4-12z" fill="#fffa96"/><path d="m17.5 44.5c4-2 12-6 12-6l9-4.76v-2l-9 4.76s-8 4-12 6-4 8-4 12v2c0-4 0-10 4-12z" fill="#fffa96"/><path d="m25.5 38.5 5.287 8.46 11.922-9.417-4.209-1.631-9 .588z" fill="#c88c5a"/><path d="m23.114 39.693 7.386 10.807 14.636-11.929-2.427-1.028-11.922 9.417-5.287-8.46z" fill="#aad2ff"/><path d="m26.452 40.024-.952-1.524c-.754.377-1.561.78-2.386 1.193l1.019 1.491c.825-.413 1.609-.805 2.319-1.16z" fill="#bee6ff"/><path d="m41.029 38.87c.735.289 1.587.631 2.498 1.012l1.609-1.311-2.427-1.027z" fill="#bee6ff"/><path d="m30.5 51c-.023 0-.048-.002-.071-.005-.139-.021-.263-.098-.342-.213l-7.387-10.806c-.081-.119-.107-.268-.071-.408.037-.14.132-.257.261-.321l2.387-1.193c.228-.116.51-.038.647.183l4.991 7.986 11.484-9.07c.143-.113.335-.14.505-.068l2.428 1.027c.161.068.274.217.3.391.024.173-.043.347-.18.458l-14.637 11.927c-.088.073-.201.112-.315.112zm-6.65-11.115 6.756 9.884 13.572-11.061-1.391-.588-11.69 9.232c-.111.088-.251.129-.396.1-.14-.023-.263-.106-.338-.228l-5.046-8.074z" fill="#96bef0"/><path d="m13.5 62.5h43s0-.708 0-2h-43z" fill="#f0dc78"/><path d="m46.5 63c-.276 0-.5-.224-.5-.5v-12c0-.276.224-.5.5-.5s.5.224.5.5v12c0 .276-.224.5-.5.5z" fill="#f0dc78"/><path d="m17.5 63c-.276 0-.5-.224-.5-.5v-12c0-.276.224-.5.5-.5s.5.224.5.5v12c0 .276-.224.5-.5.5z" fill="#f0dc78"/><path d="m29.445 34.5v7h.055l9-2v-8.76z" fill="#c88c5a"/><path d="m21.5 13.5v15c0 3.314 2.686 6 6 6h5c3.866 0 7-3.134 7-7v-1h2c1.657 0 3-1.343 3-3v-2c0-1.657-1.343-3-3-3h-2l-3-5z" fill="#e1a271"/><path d="m39.626 19.601-.515 7.48h3.254c1.266-3.209 5.407-8.201 3.981-13.987-3.148-12.764-13.346-6.493-17.346-6.493s-6-4-7-3c-1.581 1.581 0 4 0 4-1 0-3-2-4-3s-3 1-3 7c0 4.005 3.44 5.992 6.435 6.131 1.396.064 2.9-.131 3.565-.131h10s0 6 2 6c1.294 0 2.17-1.931 2.626-4z" fill="#fa8cb4"/><path d="m27.246 6.327c-2.851-.879-4.405-3.567-5.246-2.726-.866.866-.782 1.981-.53 2.815.11-.284.276-.561.53-.815.841-.841 2.395.48 5.245 1.359z" fill="#ffa0c8"/><path d="m35 16.601c0-.552-.448-1-1-1h-9c-.665 0-2.169.196-3.565.131-2.816-.13-6.024-1.896-6.398-5.436-.022.415-.037.844-.037 1.305 0 4.005 3.44 5.992 6.435 6.131 1.396.065 2.9-.131 3.565-.131h10z" fill="#e678a0"/><path d="m39.131 32.012c-.051 0-.103 0-.154 0h-.17c-.276 0-.5-.224-.5-.5s.224-.5.5-.5h.171c.987-.002 1.688.002 2.054-.362.315-.315.469-.985.469-2.049 0-.581.068-1.259.216-2.13.046-.272.312-.453.576-.41.272.046.456.305.41.576-.138.815-.202 1.439-.202 1.964 0 1.38-.235 2.229-.762 2.756-.63.627-1.545.655-2.608.655z" fill="#785ae6"/><path d="m18 6.601c1 1 3 3 4 3 0 0-.684-1.055-.698-2.226-1.057-.539-2.499-1.971-3.302-2.774-1-1-3 1-3 7 0 .196.031.368.047.552.294-4.863 2.039-6.466 2.953-5.552z" fill="#ffa0c8"/><path d="m39.626 18.601c-.457 2.069-1.332 5-2.626 5-2 0-2-7-2-7z" fill="#fa8cb4"/><g fill="#785ae6"><path d="m45.42 21.414c-.051 0-.102-.008-.152-.023-.264-.085-.408-.366-.324-.629.114-.354.259-.702.411-1.068.682-1.63 1.453-3.477.165-7.954-1.717-5.965-5.481-6.407-8.162-6.203-.27.014-.515-.188-.535-.463s.188-.515.463-.535c4.761-.336 7.757 1.923 9.195 6.924 1.386 4.816.505 6.924-.203 8.617-.142.339-.276.661-.381.987-.069.212-.265.347-.477.347z"/><path d="m23.5 25c-.276 0-.5-.224-.5-.5v-3c0-.276.224-.5.5-.5s.5.224.5.5v3c0 .276-.224.5-.5.5z"/><path d="m33.5 21c-.128 0-.256-.049-.354-.146-2.586-2.585-4.228-1.063-4.296-.997-.197.19-.513.188-.706-.008-.191-.195-.192-.508.002-.702.023-.023 2.394-2.314 5.707 1 .195.195.195.512 0 .707-.097.097-.225.146-.353.146z"/><path d="m24.5 20c-.127 0-.255-.048-.352-.145-.114-.111-1.126-1.034-2.344-.082-.215.168-.531.132-.702-.087-.17-.218-.131-.531.087-.702 1.556-1.215 3.077-.424 3.664.162.195.195.195.512 0 .707-.097.098-.225.147-.353.147z"/><path d="m41.5 27h-2c-.276 0-.5-.224-.5-.5s.224-.5.5-.5h2c1.379 0 2.5-1.121 2.5-2.5v-2c0-1.379-1.121-2.5-2.5-2.5h-1c-.276 0-.5-.224-.5-.5s.224-.5.5-.5h1c1.93 0 3.5 1.57 3.5 3.5v2c0 1.93-1.57 3.5-3.5 3.5z"/><path d="m32.5 35h-5c-3.584 0-6.5-2.916-6.5-6.5v-11c0-.276.224-.5.5-.5s.5.224.5.5v11c0 3.032 2.468 5.5 5.5 5.5h5c.276 0 .5.224.5.5s-.224.5-.5.5z"/><path d="m30.5 31h-5c-.276 0-.5-.224-.5-.5s.224-.5.5-.5h5c.402 0 .494-.275.5-.506.007-.271.229-.491.5-.491.002 0 .004 0 .006.001.274.003.494.223.494.496 0 .603-.399 1.5-1.5 1.5z"/><path d="m25.5 28c-1.153 0-2.5-.393-2.5-1.5 0-1.064 1.71-4.538 2.053-5.224.124-.247.425-.346.671-.224.247.124.347.424.224.671-.809 1.618-1.948 4.169-1.948 4.777 0 .301.902.5 1.5.5.276 0 .5.224.5.5s-.224.5-.5.5z"/><path d="m30.5 25c-.276 0-.5-.224-.5-.5v-3c0-.276.224-.5.5-.5s.5.224.5.5v3c0 .276-.224.5-.5.5z"/><path d="m38.773 31.91c-.075 0-.151 0-.229 0h-.237c-.276 0-.5-.224-.5-.5s.224-.5.5-.5h.238c1.234 0 2.184.002 2.729-.299.359-.199.726-.604.726-2.111 0-.581.068-1.259.216-2.13.046-.272.31-.454.576-.41.272.046.456.305.41.576-.138.816-.202 1.44-.202 1.964 0 1.59-.384 2.512-1.243 2.986-.729.404-1.684.424-2.984.424z"/><path d="m56.5 63h-43c-.276 0-.5-.224-.5-.5v-8c0-4.105 0-10.309 4.276-12.447l12-6c.248-.123.547-.023.671.224.123.247.023.547-.224.671l-12 6c-3.723 1.861-3.723 7.693-3.723 11.552v7.5h42v-7.5c0-4.889 0-8.75-3.8-11.6-3.895-2.922-13.77-6.482-13.869-6.518-.198-.07-.331-.259-.331-.47v-4.172c0-.276.224-.5.5-.5s.5.224.5.5v3.821c1.797.66 10.15 3.802 13.8 6.538 4.2 3.151 4.2 7.437 4.2 12.401v8c0 .276-.224.5-.5.5z"/><path d="m29.5 42c-.276 0-.5-.224-.5-.5v-7c0-.276.224-.5.5-.5s.5.224.5.5v7c0 .276-.224.5-.5.5z"/></g><path d="m11.5 33.5c1.581 1.581-4.257 8.705-7 5-2.145-2.898 4-8 7-5z" fill="#e678a0"/><path d="m6.449 40.055c-.932 0-1.737-.428-2.351-1.257-1.244-1.681-.214-3.8 1.359-5.155 1.783-1.536 4.545-2.347 6.396-.496.312.312.609.919.25 2.036-.639 1.986-2.964 4.473-5.121 4.827-.181.03-.36.045-.533.045zm2.793-6.973c-1.089 0-2.249.558-3.132 1.317-1.183 1.02-2.065 2.645-1.208 3.803.505.682 1.135.952 1.918.821 1.753-.288 3.804-2.505 4.331-4.147.155-.481.153-.864-.005-1.022-.544-.545-1.209-.772-1.904-.772z" fill="#785ae6"/><path d="m11.5 34c-.204 0-.396-.126-.47-.329l-4-11c-.095-.26.039-.547.299-.641.262-.095.547.04.641.299l4 11c.095.26-.039.547-.299.641-.057.02-.114.03-.171.03z" fill="#785ae6"/><path d="m8.591 25.5s3.909 0 5.909-3l-1-4s-3 4-6 4z" fill="#e678a0"/><path d="m8.591 26c-.21 0-.398-.132-.47-.329l-1.091-3c-.056-.153-.033-.324.061-.458.093-.134.246-.213.409-.213 2.713 0 5.571-3.762 5.601-3.8.115-.155.312-.228.499-.19.188.038.339.182.386.369l1 4c.034.137.009.281-.069.398-2.125 3.186-6.155 3.223-6.326 3.223zm-.399-3.06.741 2.039c.928-.082 3.514-.496 5.026-2.578l-.706-2.823c-.978 1.098-2.94 3.001-5.061 3.362z" fill="#785ae6"/><path d="m55.478 14.422c.43 1.588-5.904 3.998-6.298.629-.308-2.635 5.482-3.642 6.298-.629z" fill="#fffa96"/><path d="m51.405 17.248c-.445 0-.868-.062-1.24-.2-.858-.321-1.371-.992-1.482-1.938-.163-1.396.986-2.576 2.86-2.938 1.756-.342 3.893.177 4.418 2.119.095.35.063.896-.624 1.523-.884.806-2.518 1.434-3.932 1.434zm1.155-4.174c-.278 0-.558.027-.826.079-1.07.207-2.171.87-2.057 1.839.065.566.34.933.839 1.118 1.184.444 3.236-.205 4.148-1.035.261-.238.354-.438.332-.522-.286-1.055-1.35-1.479-2.436-1.479z" fill="#785ae6"/><path d="m55.479 14.922c-.028 0-.058-.002-.087-.008-.271-.047-.454-.306-.406-.578l1.474-8.485c.047-.272.301-.462.578-.406.271.047.454.306.406.578l-1.474 8.485c-.041.243-.252.414-.491.414z" fill="#785ae6"/><path d="m56.55 8.251s2.495 1.431 4.87.248l.826-2.919s-3.379 1.455-5.294.357z" fill="#fffa96"/><path d="m59.367 9.47c-1.67 0-2.988-.74-3.066-.785-.182-.104-.279-.312-.243-.52l.402-2.314c.027-.16.132-.298.279-.366.15-.069.319-.062.462.019 1.675.965 4.816-.368 4.848-.382.177-.076.384-.043.527.083.145.128.203.326.151.512l-.826 2.919c-.039.136-.133.249-.259.312-.776.385-1.558.522-2.275.522zm-2.261-1.504c.669.294 2.313.855 3.895.177l.499-1.764c-1.048.325-2.773.707-4.164.267z" fill="#785ae6"/><path d="m19.091 20.174c-.276 0-.5-.224-.5-.5v-2.423c0-.276.224-.5.5-.5s.5.224.5.5v2.423c0 .276-.224.5-.5.5z" fill="#785ae6"/><path d="m19.224 15.417c0 .012-.001.023-.001.035l.004-.001c.003-.01.006-.021.009-.031z" fill="#e678a0"/><path d="m41.5 7.5c-4-4-11-4-15-3-.583.146-1.152.366-1.704.643l1.506 1.421.35.232c2.75-1.222 5.598-1.153 8.848.704.493.282.841.656 1.079 1.081 1.946 1.974 2.921 4.014 2.921 10.919h5s1-8-3-12z" fill="#a99be0"/><path d="m19.224 15.417c0 .012-.001.023-.001.035l.004-.001c.003-.01.006-.021.009-.031z" fill="#fa8cb4"/><path d="m41.5 7.5c-4-4-11-4-15-3-.583.146-1.152.366-1.704.643l1.356 1.473c.117-.035.23-.086.347-.116 4-1 11-1 15 3 2.367 2.367 2.979 6.127 3.088 8.809.106-2.375-.032-7.754-3.087-10.809z" fill="#b4aaf0"/><g fill="#785ae6"><path d="m44.501 20c-.021 0-.042-.001-.062-.004-.274-.034-.469-.284-.435-.558.01-.078.92-7.808-2.857-11.585-4.113-4.113-11.299-3.674-14.526-2.868-.453.112-.904.271-1.34.471-.251.116-.548.003-.663-.247-.114-.251-.004-.548.247-.663.492-.225 1.001-.403 1.514-.531 4.758-1.188 11.628-.715 15.475 3.131 4.126 4.125 3.185 12.079 3.143 12.416-.032.253-.248.438-.496.438z"/><path d="m39.494 19.127c-.273 0-.496-.22-.5-.493-.079-6.059-.703-8.24-2.785-9.727-2.676-1.913-5.656-2.544-8.862-1.876-.265.063-.535-.117-.591-.388-.057-.27.117-.535.388-.591 3.441-.717 6.775-.01 9.647 2.04 2.371 1.694 3.12 4.154 3.203 10.527.004.276-.218.503-.493.507-.003.001-.005.001-.007.001z"/><path d="m20.998 17.792c-.03 0-.061-.003-.091-.008-4.191-.77-6.407-2.907-6.407-6.184 0-4.896 1.309-7.175 2.43-7.639.514-.213 1.03-.107 1.424.285.496.496 1.703 1.703 2.653 2.378-.308-.965-.43-2.309.64-3.378.75-.746 1.62.003 2.542.797.835.719 1.874 1.612 3.203 2.021.265.081.412.36.331.624-.081.265-.362.416-.624.331-1.53-.47-2.705-1.48-3.562-2.219-.418-.36-.99-.853-1.185-.853-.002 0-.003 0-.005 0-1.265 1.276.018 3.294.072 3.379.1.153.107.35.02.511-.087.163-.255.264-.439.264-1.114 0-2.831-1.624-4.354-3.146-.105-.105-.198-.126-.334-.068-.728.301-1.812 2.338-1.812 6.714 0 2.771 1.88 4.52 5.587 5.199.272.05.452.311.402.582-.045.241-.255.41-.491.41z"/></g><ellipse cx="41.25" cy="24.114" fill="#a99be0" rx="4.75" ry="5.614"/><path d="m41.25 30.228c-2.895 0-5.25-2.743-5.25-6.114s2.355-6.114 5.25-6.114 5.25 2.742 5.25 6.113-2.355 6.115-5.25 6.115zm0-11.228c-2.344 0-4.25 2.294-4.25 5.113 0 2.82 1.906 5.114 4.25 5.114s4.25-2.294 4.25-5.114c0-2.819-1.906-5.113-4.25-5.113z" fill="#785ae6"/><ellipse cx="42.114" cy="24.114" fill="#fffa96" rx="3.023" ry="3.572"/><path d="m42.113 28.186c-1.942 0-3.522-1.827-3.522-4.072s1.58-4.072 3.522-4.072 3.523 1.827 3.523 4.072-1.58 4.072-3.523 4.072zm0-7.145c-1.391 0-2.522 1.378-2.522 3.072s1.132 3.072 2.522 3.072c1.392 0 2.523-1.378 2.523-3.072s-1.131-3.072-2.523-3.072z" fill="#785ae6"/></svg>