<svg enable-background="new 0 0 64 64" height="512" viewBox="0 0 64 64" width="512" xmlns="http://www.w3.org/2000/svg"><path d="m45.5 19.5s1 3-2 6 1 7-5 6.962v-14.43z" fill="#f0dc78"/><path d="m38.579 32.962c-.027 0-.055 0-.082 0-.276-.002-.499-.227-.497-.503.002-.275.226-.497.5-.497.018-.013.063 0 .095 0 2.97 0 3.007-.942 3.074-2.641.05-1.252.111-2.809 1.478-4.175 2.75-2.75 1.889-5.461 1.879-5.488-.087-.262.055-.545.316-.633s.545.055.633.316c.045.135 1.061 3.33-2.121 6.512-1.09 1.09-1.138 2.318-1.186 3.507-.069 1.772-.143 3.602-4.089 3.602z" fill="#785ae6"/><path d="m16.451 15.402s-2.951-1.902-2.951-2.902 2-2 7-2c0 0-2-1-2-4s8-2 12-3 8-1 12 4 12.445 8 3.222 12l-4.222-1z" fill="#aad2ff"/><path d="m30.5 5.5c4-1 8-1 12 4 2.311 2.888 6.099 5.109 7.113 7.241 1.513-2.803-4.077-5.446-7.113-9.241-4-5-8-5-12-4s-12 0-12 3c0 .514.073.95.17 1.352 1.124-2.194 8.156-1.433 11.83-2.352z" fill="#bee6ff"/><path d="m45.723 20c-.039 0-.077-.005-.115-.014l-4.223-1-24.996-3.089c-.074-.009-.146-.035-.209-.076-.956-.616-3.18-2.173-3.18-3.321 0-1.436 2.232-2.318 6.179-2.475-.582-.691-1.179-1.815-1.179-3.525 0-2.47 3.682-2.7 7.58-2.943 1.726-.108 3.51-.22 4.799-.542 3.97-.991 8.233-1.174 12.512 4.173 1.028 1.285 2.351 2.429 3.63 3.533 2.206 1.907 4.112 3.555 3.827 5.418-.212 1.389-1.618 2.603-4.426 3.82-.064.027-.131.041-.199.041zm-29.097-5.081 24.936 3.085 4.113.971c2.297-1.016 3.536-2.021 3.685-2.986.201-1.318-1.593-2.869-3.493-4.511-1.252-1.082-2.671-2.309-3.757-3.665-3.924-4.906-7.84-4.739-11.488-3.827-1.378.344-3.208.459-4.979.569-3.114.194-6.643.415-6.643 1.945 0 2.63 1.656 3.518 1.727 3.555.205.105.312.339.258.562-.055.225-.255.383-.485.383-5.306 0-6.5 1.111-6.5 1.5 0 .372 1.239 1.511 2.626 2.419z" fill="#785ae6"/><path d="m29.445 34.5v5.027c-.274.132-2.24 1.047-5.945 1.973-8.289 2.072-10 5-10 13v8h43s0-3 0-8c0 0 1-10-6-12s-11-4-11-4v-9.76z" fill="#968cd2"/><path d="m39.5 40.5s4 2 11 4c4.855 1.387 5.861 6.62 6.022 9.698.099-1.673.259-9.904-6.022-11.698-7-2-11-4-11-4z" fill="#a99be0"/><path d="m23.5 43.5c3.704-.926 5.671-1.841 5.945-1.973v-2c-.274.132-2.24 1.047-5.945 1.973-8.289 2.072-10 5-10 13v2c0-8 1.711-10.928 10-13z" fill="#a99be0"/><path d="m13.5 62.5h15s-1-.708-1-2h-14z" fill="#8d7bd4"/><path d="m29.445 34.5v9l10.055-3v-13.76z" fill="#c88c5a"/><path d="m27.129 40.437s1.371.063 1.371-1.937 0-2 0-2 7-.577 11-1.789v3.789l1 2-9 22h-3l-3-5v-14z" fill="#ffe885"/><path d="m27.3 60.5 1.2 2h3l.818-2z" fill="#f0dc78"/><path d="m23.5 50.5-4 3c1 4 3 9 3 9h5.924c-4.924-15-.924-23-.924-23l-5 1s-2 3-3 9z" fill="#a99be0"/><path d="m26.758 41.686c.375-1.44.742-2.186.742-2.186l-5 1s-.569.86-1.25 2.563z" fill="#b4aaf0"/><path d="m27.5 60.5h-5.762c.444 1.203.762 2 .762 2h5.924c-.009-.029-.016-.055-.025-.084-.25-.214-.899-.869-.899-1.916z" fill="#968cd2"/><path d="m28.424 63h-5.924c-.204 0-.389-.124-.464-.314-.021-.05-2.024-5.077-3.021-9.064-.049-.195.024-.4.186-.521l3.159-2.369-2.98-.745c-.253-.063-.415-.311-.372-.567.592-3.551 1.531-6.074 2.215-7.565.115-.252.413-.361.662-.246.251.114.361.411.246.662-.628 1.372-1.482 3.656-2.058 6.859l3.549.887c.188.047.331.197.369.387.038.188-.036.383-.19.499l-3.732 2.8c.854 3.287 2.338 7.181 2.773 8.3h4.896c-3.738-11.846-1.976-19.226-1.029-21.879.094-.261.379-.398.639-.303.26.093.396.379.303.639-.726 2.032-2.779 9.616 1.248 21.884.051.152.024.319-.069.449-.096.13-.246.207-.406.207z" fill="#8d7bd4"/><path d="m27.142 40.938c-.017 0-.028 0-.035-.001-.276-.012-.489-.246-.477-.521.013-.273.258-.484.514-.478.022 0 .28-.006.497-.222.235-.234.359-.654.359-1.216v-2c0-.26.199-.477.459-.498.069-.006 6.993-.587 10.896-1.769.148-.047.315-.017.442.077s.203.244.203.402v3.788c0 .276-.224.5-.5.5s-.5-.224-.5-.5v-3.126c-3.466.931-8.462 1.441-10 1.584v1.542c0 .863-.229 1.52-.68 1.95-.474.453-1.024.488-1.178.488z" fill="#785ae6"/><path d="m21.5 14.5v14c0 3.314 2.686 6 6 6h6c3.314 0 6-2.686 6-6h2c1.657 0 3-1.343 3-3v-2c0-1.657-1.343-3-3-3h-2l-5-6z" fill="#e1a271"/><path d="m35.459 16.879s2.041 1.621 2.041 4.621 2 4 3 2 1-6 1-6z" fill="#f0dc78"/><path d="m31.5 62.5h25s0-.708 0-2h-24c0 1.217-1 2-1 2z" fill="#8d7bd4"/><path d="m40.223 38.286s-6.358 15.214-8.541 24.214h6.031s4.786-8 6.786-10l-4-2 5-2-1-9z" fill="#a99be0"/><path d="m44.775 41.975-.275-2.475-4.277-1.214s-.32.766-.839 2.049z" fill="#b4aaf0"/><path d="m32.5 60.5c0 .833-.464 1.454-.76 1.769-.019.076-.04.156-.058.231h6.031s.492-.822 1.223-2z" fill="#968cd2"/><path d="m37.714 63h-6.031c-.153 0-.298-.07-.393-.19-.096-.121-.13-.278-.094-.428 1.971-8.128 7.319-21.27 8.372-23.821.104-.255.398-.379.652-.271.256.104.377.397.271.652-1.021 2.477-6.105 14.968-8.17 23.059h5.108c.771-1.276 4.27-7.021 6.254-9.349l-3.408-1.704c-.176-.088-.284-.271-.276-.468.009-.197.132-.37.314-.443l4.646-1.859-.835-7.516c-.03-.275.167-.522.441-.553.285-.03.522.168.553.441l.877 7.895c.024.224-.103.437-.312.52l-3.966 1.587 3.004 1.502c.144.072.244.209.27.367s-.026.32-.14.434c-1.934 1.934-6.663 9.823-6.711 9.903-.087.149-.25.242-.426.242z" fill="#8d7bd4"/><path d="m46.5 63c-.276 0-.5-.224-.5-.5v-12c0-.276.224-.5.5-.5s.5.224.5.5v12c0 .276-.224.5-.5.5z" fill="#8d7bd4"/><path d="m17.5 63c-.276 0-.5-.224-.5-.5v-12c0-.276.224-.5.5-.5s.5.224.5.5v12c0 .276-.224.5-.5.5z" fill="#8d7bd4"/><g fill="#785ae6"><path d="m23.5 25c-.276 0-.5-.224-.5-.5v-3c0-.276.224-.5.5-.5s.5.224.5.5v3c0 .276-.224.5-.5.5z"/><path d="m33.5 21c-.128 0-.256-.049-.354-.146-2.586-2.585-4.228-1.063-4.296-.997-.197.19-.513.188-.706-.008-.191-.195-.192-.508.002-.702.023-.023 2.394-2.313 5.707 1 .195.195.195.512 0 .707-.097.097-.225.146-.353.146z"/><path d="m24.5 20c-.127 0-.255-.048-.352-.145-.114-.111-1.126-1.033-2.344-.082-.215.169-.531.131-.702-.087-.17-.218-.131-.531.087-.702 1.556-1.214 3.077-.425 3.664.162.195.195.195.512 0 .707-.097.098-.225.147-.353.147z"/><path d="m36.5 34c-.161 0-.319-.078-.416-.223-.153-.229-.091-.54.139-.693 2.745-1.83 2.777-4.557 2.777-4.584 0-.276.224-.5.5-.5h2c1.379 0 2.5-1.121 2.5-2.5v-2c0-1.379-1.121-2.5-2.5-2.5h-1c-.276 0-.5-.224-.5-.5s.224-.5.5-.5h1c1.93 0 3.5 1.57 3.5 3.5v2c0 1.93-1.57 3.5-3.5 3.5h-1.541c-.134.997-.71 3.269-3.182 4.916-.085.057-.181.084-.277.084z"/></g><path d="m41.5 18.5c-8-3-20-3-20-1 0 0-6-1-6-4s22 0 26 5z" fill="#96bef0"/><g fill="#785ae6"><path d="m41.5 19c-.059 0-.118-.011-.176-.032-6.87-2.575-16.713-2.881-19.021-1.7-.267.136-.303.233-.303.234 0 .147-.064.286-.177.381-.112.094-.26.139-.405.11-.263-.044-6.418-1.108-6.418-4.493 0-.398.207-.946 1.196-1.293 4.396-1.539 22.134 1.529 25.694 5.98.141.176.146.424.014.606-.095.133-.248.207-.404.207zm-14.218-3.39c3.488 0 7.906.524 11.743 1.572-5.698-3.225-18.957-5.277-22.498-4.031-.362.127-.527.27-.527.349 0 1.945 3.426 3.063 5.177 3.43.088-.13.214-.264.396-.39.895-.62 3.028-.93 5.709-.93z"/><path d="m32.5 35h-5c-3.584 0-6.5-2.916-6.5-6.5v-11c0-.276.224-.5.5-.5s.5.224.5.5v11c0 3.032 2.468 5.5 5.5 5.5h5c.276 0 .5.224.5.5s-.224.5-.5.5z"/><path d="m30.5 31h-5c-.276 0-.5-.224-.5-.5s.224-.5.5-.5h5c.402 0 .494-.275.5-.506.007-.273.245-.54.506-.49.274.003.494.223.494.496 0 .603-.399 1.5-1.5 1.5z"/><path d="m25.5 28c-1.153 0-2.5-.393-2.5-1.5 0-1.064 1.71-4.538 2.053-5.224.124-.247.425-.346.671-.224.247.124.347.424.224.671-.809 1.618-1.948 4.169-1.948 4.777 0 .301.902.5 1.5.5.276 0 .5.224.5.5s-.224.5-.5.5z"/><path d="m30.5 25c-.276 0-.5-.224-.5-.5v-3c0-.276.224-.5.5-.5s.5.224.5.5v3c0 .276-.224.5-.5.5z"/><path d="m39.965 39.221c-.07 0-.142-.015-.209-.046-.318-.146-.48-.229-.48-.229-.17-.085-.276-.258-.276-.446v-9.76c0-.276.224-.5.5-.5s.5.224.5.5v9.445c.051.024.109.051.174.081.251.115.36.412.245.663-.084.184-.266.292-.454.292z"/><path d="m56.5 63h-43c-.276 0-.5-.224-.5-.5v-8c0-7.167 1.231-10.741 8.529-12.976.266-.079.544.069.625.332.08.265-.068.544-.332.625-6.14 1.879-7.822 4.463-7.822 12.019v7.5h42v-7.5c.012-.146.876-9.658-5.638-11.52-2.038-.582-4.026-1.224-5.909-1.905-.26-.094-.395-.38-.3-.64.094-.261.385-.395.64-.3 1.862.674 3.828 1.308 5.845 1.884 7.316 2.09 6.37 12.426 6.359 12.53l.003 7.951c0 .276-.224.5-.5.5z"/><path d="m29.444 36.894c-.276 0-.5-.224-.5-.5v-1.894c0-.276.224-.5.5-.5s.5.224.5.5v1.894c0 .276-.223.5-.5.5z"/><path d="m21.676 42.561c-.07 0-.141-.015-.209-.046-.251-.115-.36-.412-.245-.663.488-1.063.847-1.606.862-1.629.073-.11.188-.187.318-.213l5-1c.181-.04.378.034.494.187.116.151.136.355.051.526-.007.016-.128.263-.297.737-.092.26-.377.4-.639.303-.244-.087-.379-.345-.317-.592l-3.883.776c-.133.225-.381.667-.682 1.322-.083.183-.264.292-.453.292z"/><path d="m44.622 41.105c-.251 0-.468-.189-.496-.444l-.086-.771-3.525-1.002-.022.054c-.104.256-.396.379-.652.271-.256-.105-.377-.397-.271-.652l.192-.467c.097-.234.348-.359.599-.29l4.277 1.215c.195.056.338.225.36.426l.123 1.105c.03.274-.167.522-.441.553-.021.001-.039.002-.058.002z"/></g></svg>