<svg enable-background="new 0 0 64 64" height="512" viewBox="0 0 64 64" width="512" xmlns="http://www.w3.org/2000/svg"><path d="m39.5 38.5v-9.76l-10.055 5.76v5.027z" fill="#f0be8c"/><path d="m29.445 33.5v8h10.055v-15.76z" fill="#ffb4be"/><path d="m21.5 17.591s-2-2.182-2-4.364 2-4.364 4-5.455c0 0 1-3.273 5-4.364s10 0 12 3.273c0 0 5 1.091 5 6.545s-3 10.909-3 10.909 0 2.182-1 3.273-3 1.091-3 1.091z" fill="#746da3"/><path d="m23.5 9.773s1-3.273 5-4.364 10 0 12 3.273c0 0 4.475.984 4.952 5.717.029-.389.048-.78.048-1.172 0-5.455-5-6.545-5-6.545-2-3.273-8-4.364-12-3.273s-5 4.364-5 4.364c-2 1.091-4 3.273-4 5.455 0 .342.061.681.143 1.014.476-1.831 2.16-3.544 3.857-4.469z" fill="#8278b4"/><path d="m38.5 29c-.096 0-.189-.027-.27-.079l-17-10.909c-.036-.023-.069-.051-.099-.083-.087-.095-2.131-2.352-2.131-4.701 0-2.386 2.089-4.647 4.092-5.8.296-.768 1.589-3.495 5.276-4.501 4.157-1.131 10.219-.038 12.449 3.323.999.298 5.183 1.852 5.183 6.978 0 5.157-2.564 10.214-3.002 11.04-.018.518-.149 2.41-1.129 3.479-1.136 1.238-3.278 1.253-3.369 1.253zm-16.672-11.793 16.811 10.788c.437-.024 1.794-.161 2.493-.924.854-.932.868-2.915.868-2.935 0-.083.021-.166.062-.24.029-.053 2.938-5.412 2.938-10.668 0-4.974-4.419-6.016-4.608-6.058-.132-.029-.248-.111-.319-.228-1.85-3.027-7.567-4.11-11.442-3.051-3.668 1-4.615 3.905-4.654 4.028-.039.124-.125.229-.238.291-1.858 1.015-3.739 3.063-3.739 5.018 0 1.801 1.556 3.667 1.828 3.979z" fill="#785ae6"/><path d="m40.5 17.5h1c1.657 0 3 1.343 3 3v2c0 1.657-1.343 3-3 3h-2v1c0 3.866-3.134 7-7 7h-5c-3.314 0-6-2.686-6-6v-11s0-3 3-5c0 0 0 3 3 3s5-3 7-3 5 2 4 4-2 4-1 5c2 2 3-3 3-3z" fill="#ffc8d2"/><g fill="#785ae6"><path d="m23.5 23c-.276 0-.5-.224-.5-.5v-2c0-.276.224-.5.5-.5s.5.224.5.5v2c0 .276-.224.5-.5.5z"/><path d="m31.5 30h-5c-.276 0-.5-.224-.5-.5s.224-.5.5-.5h5c.276 0 .5.224.5.5s-.224.5-.5.5z"/><path d="m32.5 34h-5c-3.584 0-6.5-2.916-6.5-6.5v-10.337c0-.276.224-.5.5-.5s.5.224.5.5v10.337c0 3.032 2.467 5.5 5.5 5.5h5c3.584 0 6.5-2.916 6.5-6.5v-1c0-.276.224-.5.5-.5h2c1.378 0 2.5-1.121 2.5-2.5v-2c0-1.379-1.122-2.5-2.5-2.5h-1c-.276 0-.5-.224-.5-.5s.224-.5.5-.5h1c1.93 0 3.5 1.57 3.5 3.5v2c0 1.93-1.57 3.5-3.5 3.5h-1.5v.5c0 4.136-3.364 7.5-7.5 7.5z"/><path d="m25.5 26c-1.153 0-2.5-.393-2.5-1.5 0-1.064 1.71-4.538 2.053-5.224.124-.246.423-.348.671-.224.247.124.347.424.224.671-.809 1.618-1.948 4.169-1.948 4.777 0 .301.903.5 1.5.5.276 0 .5.224.5.5s-.224.5-.5.5z"/><path d="m30.5 23c-.276 0-.5-.224-.5-.5v-2c0-.276.224-.5.5-.5s.5.224.5.5v2c0 .276-.224.5-.5.5z"/><path d="m33.5 20c-.128 0-.256-.049-.354-.146-2.588-2.586-4.228-1.062-4.296-.997-.198.19-.514.188-.706-.008-.192-.195-.192-.508.001-.702.023-.023 2.391-2.315 5.707 1 .195.195.195.512 0 .707-.096.097-.224.146-.352.146z"/><path d="m24.5 19c-.127 0-.254-.048-.352-.145-.111-.108-1.123-1.033-2.343-.083-.218.172-.532.13-.702-.086-.17-.218-.131-.531.086-.701 1.554-1.218 3.076-.427 3.664.161.195.195.195.512 0 .707-.097.098-.225.147-.353.147z"/></g><path d="m31.5 34.5h3c2.761 0 5-2.239 5-5v-3.348c-1.004 0-2.916 2.627-4.008 3.848-1.091 1.221-.992.477-.992-.493 0-1.94-3.604-2.506-6.838-2.506s-3.92 1.01-3.92 2.506.394 1.536-.242.93-.94-4.042-2.003-4.042l.001 3.107c.001 2.761 2.239 4.998 5 4.998zm-.659-1.92c-.977-.109-.869-1.097-.869-1.58s-3.441-.529-3.441 0c0 .76-.211 1.409-1.214 1.363-.614-.029-.47-1.363-.47-1.363 0-1.605-.231-2.655 2.653-2.655s5.789.486 5.789 1.655-.644 2.78-2.448 2.58z" fill="#746da3"/><path d="m31.5 35h-5.001c-3.032 0-5.5-2.467-5.5-5.498l-.001-3.107c0-.276.224-.5.5-.5s.5.224.5.5l.001 3.107c0 2.48 2.019 4.498 4.5 4.498h5.001c.276 0 .5.224.5.5s-.224.5-.5.5z" fill="#785ae6"/><path d="m38.279 23.313c-1.058 0-1.788-.613-2.09-.924-.193-.198-.188-.515.01-.707s.516-.188.707.01c.379.39 1.02.8 1.917.541.266-.08.542.077.619.342.076.266-.077.543-.342.619-.293.084-.566.119-.821.119z" fill="#746da3"/><path d="m37.768 25.059c-1.053 0-1.62-.551-1.649-.581-.195-.195-.195-.512 0-.707.193-.193.505-.195.702-.006.033.031.576.503 1.651.186.266-.076.543.073.621.339.078.265-.073.542-.338.62-.366.107-.695.149-.987.149z" fill="#746da3"/><path d="m39.5 43c-.276 0-.5-.224-.5-.5v-16.76c0-.276.224-.5.5-.5s.5.224.5.5v16.76c0 .276-.224.5-.5.5z" fill="#785ae6"/><path d="m29.445 39.527c-.274.132-2.24 1.047-5.945 1.973-8.289 2.072-10 5-10 13v8h43s0-3 0-8c0 0 1-10-6-12s-11-4-11-4z" fill="#dcc864"/><path d="m39.5 40.5s4 2 11 4c4.855 1.387 5.861 6.62 6.022 9.698.099-1.673.259-9.904-6.022-11.698-7-2-11-4-11-4z" fill="#f0dc78"/><path d="m23.5 43.5c3.704-.926 5.671-1.841 5.945-1.973v-2c-.274.132-2.24 1.047-5.945 1.973-8.289 2.072-10 5-10 13v2c0-8 1.711-10.928 10-13z" fill="#f0dc78"/><path d="m13.5 62.5h15s-1-.708-1-2h-14z" fill="#c8b450"/><path d="m27.129 40.437s1.371.063 1.371-1.937 0-2 0-2 7-.577 11-1.789v3.789l1 2-9 22h-3l-3-5v-14z" fill="#e678a0"/><path d="m27.3 60.5 1.2 2h3l.818-2z" fill="#d2648c"/><path d="m23.5 50.5-4 3c1 4 3 9 3 9h5.924c-4.924-15-.924-23-.924-23l-5 1s-2 3-3 9z" fill="#f0dc78"/><path d="m26.758 41.686c.375-1.44.742-2.186.742-2.186l-5 1s-.569.86-1.25 2.563z" fill="#ffe885"/><path d="m27.5 60.5h-5.762c.444 1.203.762 2 .762 2h5.924c-.009-.029-.016-.055-.025-.084-.25-.214-.899-.869-.899-1.916z" fill="#dcc864"/><path d="m28.423 63h-5.923c-.205 0-.388-.124-.464-.314-.02-.05-2.024-5.077-3.021-9.064-.049-.195.024-.4.185-.521l3.159-2.369-2.98-.745c-.253-.063-.415-.311-.372-.567.592-3.551 1.531-6.074 2.215-7.565.115-.25.41-.36.663-.246.251.114.361.411.246.662-.629 1.372-1.484 3.656-2.059 6.859l3.549.887c.188.047.331.197.369.387.038.188-.036.383-.19.499l-3.733 2.8c.854 3.287 2.338 7.181 2.774 8.3h4.896c-3.737-11.845-1.975-19.226-1.029-21.879.092-.26.376-.4.639-.303.26.093.396.379.303.639-.725 2.032-2.777 9.617 1.249 21.884.05.152.024.319-.07.449-.095.13-.246.207-.406.207z" fill="#c8b450"/><path d="m31.5 62.5h25s0-.708 0-2h-24c0 1.217-1 2-1 2z" fill="#c8b450"/><path d="m40.223 38.286s-6.358 15.214-8.541 24.214h6.031s4.786-8 6.786-10l-4-2 5-2-1-9z" fill="#f0dc78"/><path d="m44.775 41.975-.275-2.475-4.277-1.214s-.32.766-.839 2.049z" fill="#ffe885"/><path d="m32.5 60.5c0 .833-.464 1.454-.76 1.769-.019.076-.04.156-.058.231h6.031s.492-.822 1.223-2z" fill="#dcc864"/><path d="m37.713 63h-6.031c-.153 0-.298-.07-.393-.19-.095-.121-.129-.278-.093-.428 1.968-8.114 7.318-21.268 8.371-23.821.105-.256.4-.378.653-.271.255.104.377.397.272.652-1.021 2.478-6.107 14.979-8.17 23.058h5.108c.77-1.276 4.269-7.021 6.254-9.349l-3.409-1.704c-.175-.088-.283-.271-.275-.468s.131-.37.314-.443l4.646-1.859-.835-7.516c-.03-.274.167-.522.442-.553.28-.032.522.169.552.441l.877 7.895c.025.224-.103.437-.312.52l-3.966 1.587 3.004 1.502c.144.072.244.209.27.367s-.026.32-.14.434c-1.934 1.934-6.664 9.824-6.711 9.903-.089.15-.252.243-.428.243z" fill="#c8b450"/><path d="m46.5 63c-.276 0-.5-.224-.5-.5v-12c0-.276.224-.5.5-.5s.5.224.5.5v12c0 .276-.224.5-.5.5z" fill="#c8b450"/><path d="m17.5 63c-.276 0-.5-.224-.5-.5v-12c0-.276.224-.5.5-.5s.5.224.5.5v12c0 .276-.224.5-.5.5z" fill="#c8b450"/><g fill="#785ae6"><path d="m56.5 63h-43c-.276 0-.5-.224-.5-.5v-8c0-7.167 1.231-10.741 8.53-12.976.265-.078.544.069.625.332.081.265-.068.544-.332.625-6.141 1.879-7.823 4.463-7.823 12.019v7.5h42v-7.5c.012-.146.875-9.658-5.637-11.52-2.039-.582-4.027-1.224-5.91-1.905-.26-.094-.394-.38-.3-.64.094-.261.381-.396.64-.3 1.862.673 3.828 1.307 5.845 1.884 7.317 2.09 6.371 12.426 6.36 12.53l.002 7.951c0 .276-.224.5-.5.5z"/><path d="m29.444 36.894c-.276 0-.5-.224-.5-.5v-1.894c0-.276.224-.5.5-.5s.5.224.5.5v1.894c0 .276-.223.5-.5.5z"/><path d="m21.676 42.561c-.069 0-.141-.015-.208-.046-.251-.115-.361-.411-.246-.662.488-1.064.847-1.607.862-1.63.073-.11.188-.187.318-.213l5-1c.187-.038.378.035.495.187s.136.355.051.526c-.008.016-.128.263-.298.737-.092.261-.381.397-.639.303-.245-.087-.379-.345-.317-.592l-3.882.776c-.133.225-.38.667-.681 1.321-.085.184-.266.293-.455.293z"/><path d="m44.622 41.105c-.251 0-.468-.189-.497-.445l-.085-.771-3.525-1.001-.022.054c-.052.127-.154.227-.282.275-.129.051-.271.045-.395-.014l-.53-.251c-.175-.083-.286-.259-.286-.452v-3.126c-3.466.931-8.462 1.441-10 1.584v1.542c0 .863-.229 1.52-.68 1.95-.525.502-1.14.494-1.213.486-.276-.012-.489-.246-.477-.521.013-.273.218-.479.514-.478.021 0 .279-.005.497-.221.234-.234.359-.654.359-1.216v-2c0-.26.2-.477.459-.498.069-.006 6.994-.587 10.896-1.769.152-.046.317-.017.443.077.127.094.202.244.202.402v3.126c.108-.054.237-.068.36-.034l4.277 1.215c.195.056.338.225.36.427l.123 1.105c.03.274-.167.521-.442.552-.019.001-.038.002-.056.002z"/></g></svg>