<svg enable-background="new 0 0 64 64" height="512" viewBox="0 0 64 64" width="512" xmlns="http://www.w3.org/2000/svg"><path d="m39.5 38.5v-9.76l-10.055 5.76v5.027z" fill="#f0be8c"/><path d="m29.445 33.5v8h10.055v-15.76z" fill="#c88c5a"/><path d="m21.5 17.591s-2-2.182-2-4.364 2-4.364 4-5.455c0 0 1-3.273 5-4.364s10 0 12 3.273c0 0 5 1.091 5 6.545s-3 10.909-3 10.909 0 2.182-1 3.273-3 1.091-3 1.091z" fill="#746da3"/><path d="m23.5 9.773s1-3.273 5-4.364 10 0 12 3.273c0 0 4.475.984 4.952 5.717.029-.389.048-.78.048-1.172 0-5.455-5-6.545-5-6.545-2-3.273-8-4.364-12-3.273s-5 4.364-5 4.364c-2 1.091-4 3.273-4 5.455 0 .342.061.681.143 1.014.476-1.831 2.16-3.544 3.857-4.469z" fill="#8278b4"/><path d="m38.5 29c-.096 0-.189-.027-.271-.079l-17-10.909c-.036-.023-.069-.051-.098-.083-.087-.095-2.131-2.352-2.131-4.701 0-2.386 2.09-4.647 4.092-5.8.297-.768 1.59-3.495 5.276-4.501 4.159-1.131 10.22-.038 12.45 3.323.998.298 5.182 1.852 5.182 6.978 0 5.157-2.564 10.214-3.003 11.04-.018.518-.148 2.41-1.129 3.479-1.135 1.238-3.277 1.253-3.368 1.253zm-16.672-11.793 16.811 10.788c.438-.024 1.794-.161 2.493-.924.854-.932.868-2.915.868-2.935 0-.083.021-.166.062-.24.029-.053 2.938-5.412 2.938-10.668 0-4.974-4.42-6.016-4.607-6.058-.133-.029-.248-.111-.319-.228-1.85-3.027-7.564-4.108-11.441-3.051-3.668 1-4.615 3.905-4.654 4.028-.038.124-.124.229-.238.291-1.86 1.015-3.741 3.063-3.741 5.018 0 1.801 1.556 3.667 1.828 3.979z" fill="#785ae6"/><path d="m40.5 17.5h1c1.657 0 3 1.343 3 3v2c0 1.657-1.343 3-3 3h-2v1c0 3.866-3.134 7-7 7h-5c-3.314 0-6-2.686-6-6v-11s0-3 3-5c0 0 0 3 3 3s5-3 7-3 5 2 4 4-2 4-1 5c2 2 3-3 3-3z" fill="#e1a271"/><g fill="#785ae6"><path d="m23.5 23c-.276 0-.5-.224-.5-.5v-2c0-.276.224-.5.5-.5s.5.224.5.5v2c0 .276-.224.5-.5.5z"/><path d="m31.5 30h-5c-.276 0-.5-.224-.5-.5s.224-.5.5-.5h5c.276 0 .5.224.5.5s-.224.5-.5.5z"/><path d="m32.5 34h-5c-3.584 0-6.5-2.916-6.5-6.5v-10.337c0-.276.224-.5.5-.5s.5.224.5.5v10.337c0 3.032 2.468 5.5 5.5 5.5h5c3.584 0 6.5-2.916 6.5-6.5v-1c0-.276.224-.5.5-.5h2c1.379 0 2.5-1.121 2.5-2.5v-2c0-1.379-1.121-2.5-2.5-2.5h-1c-.276 0-.5-.224-.5-.5s.224-.5.5-.5h1c1.93 0 3.5 1.57 3.5 3.5v2c0 1.93-1.57 3.5-3.5 3.5h-1.5v.5c0 4.136-3.364 7.5-7.5 7.5z"/><path d="m25.5 26c-1.153 0-2.5-.393-2.5-1.5 0-1.064 1.71-4.538 2.053-5.224.124-.246.425-.347.671-.224.247.124.347.424.224.671-.809 1.618-1.948 4.169-1.948 4.777 0 .301.902.5 1.5.5.276 0 .5.224.5.5s-.224.5-.5.5z"/><path d="m30.5 23c-.276 0-.5-.224-.5-.5v-2c0-.276.224-.5.5-.5s.5.224.5.5v2c0 .276-.224.5-.5.5z"/><path d="m33.5 20c-.128 0-.256-.049-.354-.146-2.586-2.585-4.228-1.063-4.296-.997-.197.19-.513.188-.706-.008-.191-.195-.192-.508.002-.702.023-.023 2.394-2.314 5.707 1 .195.195.195.512 0 .707-.097.097-.225.146-.353.146z"/><path d="m24.5 19c-.127 0-.255-.048-.352-.145-.114-.111-1.126-1.033-2.344-.082-.215.169-.531.132-.702-.087-.17-.218-.131-.531.087-.702 1.556-1.215 3.077-.424 3.664.162.195.195.195.512 0 .707-.097.098-.225.147-.353.147z"/></g><path d="m31.5 34.5h3c2.761 0 5-2.239 5-5v-3.348c-1.004 0-2.916 2.627-4.008 3.848-1.091 1.221-.992.477-.992-.493 0-1.94-3.604-2.506-6.838-2.506s-3.92 1.01-3.92 2.506.394 1.536-.242.93-.94-4.042-2.003-4.042l.001 3.107c.001 2.761 2.239 4.998 5 4.998zm-.659-1.92c-.977-.109-.869-1.097-.869-1.58s-3.441-.529-3.441 0c0 .76-.211 1.409-1.214 1.363-.614-.029-.47-1.363-.47-1.363 0-1.605-.231-2.655 2.653-2.655s5.789.486 5.789 1.655-.644 2.78-2.448 2.58z" fill="#746da3"/><path d="m31.5 35h-5.002c-3.031 0-5.499-2.467-5.5-5.498l-.001-3.107c0-.276.224-.5.5-.5s.5.224.5.5l.001 3.107c.001 2.48 2.02 4.498 4.5 4.498h5.002c.276 0 .5.224.5.5s-.224.5-.5.5z" fill="#785ae6"/><path d="m38.279 23.313c-1.059 0-1.789-.613-2.091-.924-.192-.198-.188-.515.01-.707.199-.192.516-.188.707.01.378.389 1.019.802 1.916.541.27-.081.543.077.619.342.076.266-.077.543-.342.619-.29.084-.565.119-.819.119z" fill="#746da3"/><path d="m37.769 25.059c-1.053 0-1.62-.551-1.649-.581-.195-.195-.195-.512 0-.707.193-.192.506-.195.701-.006.032.029.573.503 1.65.186.268-.077.544.072.621.338.078.266-.073.543-.338.621-.365.107-.694.149-.985.149z" fill="#746da3"/><path d="m39.5 43c-.276 0-.5-.224-.5-.5v-16.76c0-.276.224-.5.5-.5s.5.224.5.5v16.76c0 .276-.224.5-.5.5z" fill="#785ae6"/><path d="m29.445 39.527c-.274.132-2.24 1.047-5.945 1.973-8.289 2.072-10 5-10 13v8h43s0-3 0-8c0 0 1-10-6-12s-11-4-11-4z" fill="#dcc864"/><path d="m39.5 40.5s4 2 11 4c4.855 1.387 5.861 6.62 6.022 9.698.099-1.673.259-9.904-6.022-11.698-7-2-11-4-11-4z" fill="#f0dc78"/><path d="m23.5 43.5c3.704-.926 5.671-1.841 5.945-1.973v-2c-.274.132-2.24 1.047-5.945 1.973-8.289 2.072-10 5-10 13v2c0-8 1.711-10.928 10-13z" fill="#f0dc78"/><path d="m13.5 62.5h15s-1-.708-1-2h-14z" fill="#c8b450"/><path d="m27.129 40.437s1.371.063 1.371-1.937 0-2 0-2 7-.577 11-1.789v3.789l1 2-9 22h-3l-3-5v-14z" fill="#e678a0"/><path d="m27.3 60.5 1.2 2h3l.818-2z" fill="#d2648c"/><path d="m23.5 50.5-4 3c1 4 3 9 3 9h5.924c-4.924-15-.924-23-.924-23l-5 1s-2 3-3 9z" fill="#f0dc78"/><path d="m26.758 41.686c.375-1.44.742-2.186.742-2.186l-5 1s-.569.86-1.25 2.563z" fill="#ffe885"/><path d="m27.5 60.5h-5.762c.444 1.203.762 2 .762 2h5.924c-.009-.029-.016-.055-.025-.084-.25-.214-.899-.869-.899-1.916z" fill="#dcc864"/><path d="m28.424 63h-5.924c-.204 0-.389-.124-.464-.314-.021-.05-2.024-5.077-3.021-9.064-.049-.195.024-.4.186-.521l3.159-2.369-2.98-.745c-.253-.063-.415-.311-.372-.567.592-3.551 1.531-6.074 2.215-7.565.115-.252.413-.361.662-.246.251.114.361.411.246.662-.628 1.372-1.482 3.656-2.058 6.859l3.549.887c.188.047.331.197.369.387.038.188-.036.383-.19.499l-3.732 2.8c.854 3.287 2.338 7.181 2.773 8.3h4.896c-3.738-11.846-1.976-19.226-1.029-21.879.094-.261.379-.397.639-.303.26.093.396.379.303.639-.726 2.032-2.779 9.616 1.248 21.884.051.152.024.319-.069.449-.096.13-.246.207-.406.207z" fill="#c8b450"/><path d="m31.5 62.5h25s0-.708 0-2h-24c0 1.217-1 2-1 2z" fill="#c8b450"/><path d="m40.223 38.286s-6.358 15.214-8.541 24.214h6.031s4.786-8 6.786-10l-4-2 5-2-1-9z" fill="#f0dc78"/><path d="m44.775 41.975-.275-2.475-4.277-1.214s-.32.766-.839 2.049z" fill="#ffe885"/><path d="m32.5 60.5c0 .833-.464 1.454-.76 1.769-.019.076-.04.156-.058.231h6.031s.492-.822 1.223-2z" fill="#dcc864"/><path d="m37.714 63h-6.031c-.153 0-.298-.07-.393-.19-.096-.121-.13-.278-.094-.428 1.971-8.128 7.319-21.27 8.372-23.821.104-.256.398-.378.652-.271.256.104.377.397.271.652-1.021 2.477-6.105 14.968-8.17 23.059h5.108c.771-1.276 4.27-7.021 6.254-9.349l-3.408-1.704c-.176-.088-.284-.271-.276-.468.009-.197.132-.37.314-.443l4.646-1.859-.835-7.516c-.03-.275.167-.522.441-.553.285-.033.522.168.553.441l.877 7.895c.024.224-.103.437-.312.52l-3.966 1.587 3.004 1.502c.144.072.244.209.27.367s-.026.32-.14.434c-1.934 1.934-6.663 9.823-6.711 9.903-.087.149-.25.242-.426.242z" fill="#c8b450"/><path d="m46.5 63c-.276 0-.5-.224-.5-.5v-12c0-.276.224-.5.5-.5s.5.224.5.5v12c0 .276-.224.5-.5.5z" fill="#c8b450"/><path d="m17.5 63c-.276 0-.5-.224-.5-.5v-12c0-.276.224-.5.5-.5s.5.224.5.5v12c0 .276-.224.5-.5.5z" fill="#c8b450"/><g fill="#785ae6"><path d="m56.5 63h-43c-.276 0-.5-.224-.5-.5v-8c0-7.167 1.231-10.741 8.529-12.976.266-.078.544.069.625.332.08.265-.068.544-.332.625-6.14 1.879-7.822 4.463-7.822 12.019v7.5h42v-7.5c.012-.146.876-9.658-5.638-11.52-2.038-.582-4.026-1.224-5.909-1.905-.26-.094-.395-.38-.3-.64.094-.261.385-.394.64-.3 1.862.674 3.828 1.308 5.845 1.884 7.316 2.09 6.37 12.426 6.359 12.53l.003 7.951c0 .276-.224.5-.5.5z"/><path d="m29.444 36.894c-.276 0-.5-.224-.5-.5v-1.894c0-.276.224-.5.5-.5s.5.224.5.5v1.894c0 .276-.223.5-.5.5z"/><path d="m21.676 42.561c-.07 0-.141-.015-.209-.046-.251-.115-.36-.412-.245-.663.488-1.063.847-1.606.862-1.629.073-.11.188-.187.318-.213l5-1c.181-.039.378.034.494.187.116.151.136.355.051.526-.007.016-.128.263-.297.737-.092.26-.377.4-.639.303-.244-.087-.379-.345-.317-.592l-3.883.776c-.133.225-.381.667-.682 1.322-.083.183-.264.292-.453.292z"/><path d="m44.622 41.105c-.251 0-.468-.189-.496-.444l-.086-.771-3.525-1.002-.022.054c-.052.127-.154.227-.282.276-.127.051-.27.045-.394-.015l-.53-.251c-.176-.083-.287-.259-.287-.452v-3.126c-3.466.931-8.462 1.441-10 1.584v1.542c0 .863-.229 1.52-.68 1.95-.525.502-1.142.494-1.214.486-.276-.012-.489-.246-.477-.521.013-.273.258-.479.514-.478.021 0 .279-.005.497-.222.236-.233.36-.653.36-1.215v-2c0-.26.199-.477.459-.498.069-.006 6.993-.587 10.896-1.769.148-.046.315-.017.442.077s.203.244.203.402v3.126c.107-.055.233-.069.359-.034l4.277 1.215c.195.056.338.225.36.426l.123 1.105c.03.274-.167.522-.441.553-.019.001-.037.002-.056.002z"/></g></svg>