<svg enable-background="new 0 0 64 64" height="512" viewBox="0 0 64 64" width="512" xmlns="http://www.w3.org/2000/svg"><path d="m42.5 32.5c-3-1-7-1-7-1l1 5z" fill="#826ec8"/><path d="m36.5 37c-.064 0-.13-.013-.191-.038-.154-.063-.267-.2-.299-.364l-1-5c-.029-.146.009-.299.104-.415.094-.116.237-.183.386-.183.167 0 4.116.012 7.158 1.025.181.061.312.219.337.408s-.059.377-.218.482l-6 4c-.083.057-.179.085-.277.085zm-.387-4.985.73 3.655 4.482-2.988c-1.986-.494-4.174-.629-5.212-.667z" fill="#785ae6"/><path d="m29.445 34.5v1.305l-5.945 3.695s-4 1-8 3-4 8-4 12 0 8 0 8h47s0-3 0-8 0-9-4-12-11-5-11-5l-5-3.588v-2.172z" fill="#8d7bd4"/><g fill="#968cd2"><path d="m15.5 44.5c4-2 8-3 8-3l5.945-3.695v-1.305l9.055-2.76v-2l-9.055 2.76v1.305l-5.945 3.695s-4 1-8 3-4 8-4 12v2c0-4 0-10 4-12z"/><path d="m54.5 42.5c-4-3-11-5-11-5l-5-3.588v2l5 3.588s7 2 11 5 4 7 4 12c0-.626 0-1.29 0-2 0-5 0-9-4-12z"/><path d="m45.5 16.5s-1 4-2 7-2 4-2 6-3 2.902-3 2.902v-18z"/></g><path d="m38.5 32.901c-.215 0-.413-.14-.479-.355-.079-.265.07-.543.334-.623.027-.008 2.645-.82 2.645-2.423 0-1.343.421-2.283.953-3.475.327-.731.698-1.562 1.072-2.684.982-2.947 1.979-6.923 1.989-6.963.066-.269.336-.43.606-.364.269.067.431.339.364.606-.011.04-1.017 4.054-2.011 7.037-.39 1.169-.771 2.022-1.108 2.775-.52 1.168-.865 1.939-.865 3.068 0 2.345-3.219 3.339-3.356 3.38-.048.015-.096.021-.144.021z" fill="#785ae6"/><path d="m29.445 32.5v10l-1 5h4l2.386-9.88 4.669-3.12v-5.76z" fill="#c88c5a"/><path d="m22.5 13.5s-2 2-2 6c0 0 1 7 1 9s2 6 3 6 7 0 9 0 4-2 5-4 1-4 1-4h2c1.657 0 3-1.343 3-3v-2c0-1.657-1.343-3-3-3h-2v-5z" fill="#e1a271"/><path d="m11.5 62.5h47s0-.708 0-2h-47z" fill="#826ec8"/><path d="m30.5 47.5c-1.122 0-1.231-.313-2-.59l-1 15.59h5v-14-1.59c-.769.277-.878.59-2 .59z" fill="#f0dc78"/><path d="m27.628 60.5-.128 2h5v-2z" fill="#dcc864"/><path d="m46.5 63c-.276 0-.5-.224-.5-.5v-12c0-.276.224-.5.5-.5s.5.224.5.5v12c0 .276-.224.5-.5.5z" fill="#826ec8"/><path d="m15.5 63c-.276 0-.5-.224-.5-.5v-12c0-.276.224-.5.5-.5s.5.224.5.5v12c0 .276-.224.5-.5.5z" fill="#826ec8"/><g fill="#785ae6"><path d="m23.5 23c-.276 0-.5-.224-.5-.5v-3c0-.276.224-.5.5-.5s.5.224.5.5v3c0 .276-.224.5-.5.5z"/><path d="m27.5 27h-2c-1.153 0-2.5-.393-2.5-1.5 0-1.043 1.696-5.336 2.036-6.186.103-.256.395-.381.649-.278.257.103.381.394.278.649-.758 1.899-1.963 5.157-1.963 5.815 0 .301.902.5 1.5.5h2c.276 0 .5.224.5.5s-.224.5-.5.5z"/><path d="m30.5 23c-.276 0-.5-.224-.5-.5v-3c0-.276.224-.5.5-.5s.5.224.5.5v3c0 .276-.224.5-.5.5z"/><path d="m58.5 63h-47c-.276 0-.5-.224-.5-.5v-8c0-4.105 0-10.309 4.276-12.447 3.747-1.873 7.433-2.865 8.025-3.019l5.643-3.507v-1.027c0-.276.224-.5.5-.5s.5.224.5.5v1.306c0 .173-.089.333-.236.425l-5.944 3.694c-.044.027-.092.048-.143.061-.039.01-3.996 1.012-7.897 2.962-3.724 1.861-3.724 7.693-3.724 11.552v7.5h46v-7.5c0-4.889 0-8.75-3.8-11.6-3.879-2.909-10.769-4.899-10.838-4.92-.072-.021-.14-.058-.196-.108l-4-3.588c-.105-.095-.166-.23-.166-.372v-7.172c0-.276.224-.5.5-.5s.5.224.5.5v6.948l3.749 3.363c.949.279 7.253 2.2 11.051 5.048 4.2 3.151 4.2 7.437 4.2 12.401v8c0 .276-.224.5-.5.5z"/><path d="m30.875 30.5c-.096 0-.192-.027-.277-.084-.409-.272-.788-.416-1.098-.416h-5c-.276 0-.5-.224-.5-.5s.224-.5.5-.5h5c.516 0 1.071.196 1.652.584.229.153.292.464.139.693-.097.145-.255.223-.416.223z"/><path d="m33.5 20h-5c-.276 0-.5-.224-.5-.5s.224-.5.5-.5h5c.276 0 .5.224.5.5s-.224.5-.5.5z"/><path d="m24.5 20h-3c-.276 0-.5-.224-.5-.5s.224-.5.5-.5h3c.276 0 .5.224.5.5s-.224.5-.5.5z"/><path d="m33.5 35h-9c-1.466 0-3.5-4.513-3.5-6.5 0-1.942-.985-8.859-.995-8.93-.005-4.229 2.054-6.336 2.142-6.424.194-.193.509-.194.705-.001.195.194.196.511.003.707-.019.019-1.855 1.926-1.855 5.648.036.217 1 6.987 1 9 0 1.998 1.914 5.366 2.516 5.501l8.984-.001c1.767 0 3.628-1.873 4.553-3.724.931-1.862.947-3.757.947-3.777.001-.275.225-.499.5-.499h.001c.275.001.499.224.499.5 0 .087-.012 2.142-1.053 4.224-1.03 2.059-3.174 4.276-5.447 4.276z"/></g><path d="m34.478 13.513c1.004.996 2.009 1.991 2.022 4.991 0 0 .022 5 2.022 4.991s1.964-8.009 1.964-8.009z" fill="#968cd2"/><path d="m19.5 8.5c0 2 0 4 3 5h12s3 1 6 2 7 1 8 1 0-2-1-3c0 0 3 1 3 0s-2-3-4-5-5-5-9-5-7 0-10 0-8 3-8 5z" fill="#e678a0"/><path d="m27.5 5.5h10s7 3 9 5c1.225 1.225 2.444 2.447 3.21 3.442.449.002.79-.106.79-.442 0-1-2-3-4-5s-5-5-9-5-7 0-10 0-8 3-8 5c0 .541.002 1.081.062 1.603.574-1.977 5.131-4.603 7.938-4.603z" fill="#fa8cb4"/><path d="m48.5 17c-.484 0-1.771 0-3.292-.127-.274-.022-.479-.265-.456-.54.022-.275.275-.471.54-.456 1.396.116 2.596.123 3.122.123-.04-.388-.543-1.422-1.268-2.146-.164-.164-.193-.419-.072-.616.123-.197.36-.282.584-.212.948.316 2 .489 2.336.398-.129-.851-2.271-2.993-3.848-4.57-1.932-1.933-4.853-4.854-8.646-4.854h-10c-2.942 0-7.5 2.989-7.5 4.5 0 1.953 0 3.64 2.658 4.525.262.088.403.371.316.633-.088.262-.37.404-.633.316-3.341-1.114-3.341-3.43-3.341-5.474 0-2.374 5.347-5.5 8.5-5.5h10c4.207 0 7.304 3.097 9.354 5.146 2.58 2.581 4.146 4.228 4.146 5.354 0 .291-.128.544-.36.711-.408.296-1.146.269-1.853.141.452.732.78 1.569.551 2.125-.138.332-.443.523-.838.523z" fill="#785ae6"/><path d="m25.5 14c-.128 0-.256-.049-.354-.146-.087-.088-2.146-2.183-2.146-5.354 0-.276.224-.5.5-.5s.5.224.5.5c0 2.761 1.835 4.628 1.854 4.646.195.195.195.512 0 .707-.098.098-.226.147-.354.147z" fill="#d2648c"/><path d="m28.5 14.014c-.129 0-.257-.049-.354-.147-.359-.362-2.146-2.219-2.146-3.367 0-.276.224-.5.5-.5s.5.224.5.5c0 .49.963 1.764 1.854 2.661.195.196.193.513-.002.707-.097.097-.225.146-.352.146z" fill="#d2648c"/><path d="m32.852 14c-.104 0-.208-.032-.298-.098-1.517-1.123-2.633-3.361-1.501-5.626.124-.246.425-.347.671-.224.247.124.347.424.224.671-.874 1.748.01 3.493 1.202 4.374.222.165.269.478.104.7-.099.133-.25.203-.402.203z" fill="#d2648c"/><path d="m36.5 36.5c1 0 4 7 4 7l5-6s-2-4-3-5z" fill="#8d7bd4"/><path d="m37.331 37.279 4.169-2.779c.784.784 2.179 3.406 2.747 4.504l1.253-1.504s-2-4-3-5l-6 4c.206 0 .499.307.831.779z" fill="#968cd2"/><path d="m40.5 44c-.024 0-.048-.002-.072-.005-.172-.025-.318-.139-.388-.298-1.289-3.008-3.04-6.429-3.622-6.712-.221 0-.374-.137-.438-.348s.059-.432.242-.554l6-4c.2-.133.463-.105.631.062 1.045 1.045 3.011 4.964 3.094 5.13.089.178.064.392-.063.544l-5 6c-.096.116-.237.181-.384.181zm-3.151-7.465c.821.896 1.922 2.909 3.287 6.021l4.27-5.123c-.571-1.119-1.741-3.299-2.495-4.272z" fill="#785ae6"/><path d="m32.5 63c-.276 0-.5-.224-.5-.5v-17c0-.036.004-.073.012-.108.49-2.204 2.26-9.392 4.488-9.392.276 0 .5.224.5.5s-.224.5-.5.5c-.952 0-2.573 4.413-3.5 8.555v16.945c0 .276-.224.5-.5.5z" fill="#785ae6"/><path d="m24.5 36.5c-2 0-3 8-3 8l6-6s-1-2-3-2z" fill="#8d7bd4"/><path d="m21.5 45c-.074 0-.149-.017-.22-.051-.191-.094-.303-.299-.276-.512.247-1.978 1.23-8.437 3.496-8.437 2.283 0 3.4 2.184 3.447 2.276.097.192.059.425-.094.577l-6 6c-.095.096-.223.147-.353.147zm3-8c-.806 0-1.749 2.925-2.284 6.077l4.652-4.652c-.341-.494-1.143-1.425-2.368-1.425z" fill="#785ae6"/><path d="m27.5 62.5v-18c-1-2-1-8-3-8 0 0 2.889-1.695 4.945-1.695z" fill="#8d7bd4"/><path d="m27.5 63c-.006 0-.012 0-.018 0-.269-.01-.482-.23-.482-.5v-17.887c-.359-.786-.584-1.988-.82-3.259-.343-1.837-.813-4.354-1.68-4.354-.226 0-.424-.151-.482-.369-.06-.218.035-.448.229-.562.123-.071 3.03-1.763 5.197-1.763.139 0 .271.058.365.159.095.102.144.237.134.376l-1.944 27.694c-.019.263-.237.465-.499.465zm-1.901-26.517c.853.875 1.213 2.806 1.563 4.688.226 1.204.458 2.449.785 3.104.034.071.053.148.053.225v3.739l.905-12.896c-1.148.152-2.468.726-3.306 1.14z" fill="#785ae6"/><path d="m41.5 27h-2c-.276 0-.5-.224-.5-.5s.224-.5.5-.5h2c1.379 0 2.5-1.121 2.5-2.5v-2c0-1.379-1.121-2.5-2.5-2.5h-1c-.276 0-.5-.224-.5-.5s.224-.5.5-.5h1c1.93 0 3.5 1.57 3.5 3.5v2c0 1.93-1.57 3.5-3.5 3.5z" fill="#785ae6"/><path d="m25.5 31.5c-1 0-1 3 0 5s2 1 2 1 2-4 3-5c0-1-1-1-5-1z" fill="#e678a0"/><path d="m26.878 38.25c-.07 0-.144-.005-.22-.018-.614-.1-1.154-.607-1.605-1.509-.854-1.707-1.064-4.179-.441-5.187.213-.346.529-.536.888-.536 4.225 0 5.5 0 5.5 1.5 0 .133-.053.26-.146.354-.773.773-2.36 3.777-2.906 4.87-.024.048-.056.092-.094.13-.045.044-.416.396-.976.396zm-1.368-6.25c-.352.244-.451 2.499.438 4.276.283.565.598.919.863.968.123.022.231-.027.292-.066.304-.602 1.864-3.648 2.854-4.823-.231-.336-1.422-.355-4.447-.355zm4.99.5h.01z" fill="#785ae6"/></svg>