<svg enable-background="new 0 0 64 64" height="512" viewBox="0 0 64 64" width="512" xmlns="http://www.w3.org/2000/svg"><path d="m42.5 32.5c-3-1-7-1-7-1l1 5z" fill="#f0dc78"/><path d="m36.5 37c-.065 0-.13-.013-.191-.038-.154-.063-.266-.2-.299-.364l-1-5c-.029-.146.009-.299.104-.415.094-.116.236-.183.386-.183.167 0 4.116.012 7.158 1.025.181.061.312.219.337.408s-.06.377-.218.482l-6 4c-.083.057-.18.085-.277.085zm-.387-4.985.731 3.655 4.482-2.988c-1.988-.494-4.175-.629-5.213-.667z" fill="#785ae6"/><path d="m29.445 34.5v1.305l-5.945 3.695s-4 1-8 3-4 8-4 12 0 8 0 8h47s0-3 0-8 0-9-4-12-11-5-11-5l-5-3.588v-2.172z" fill="#f0dc78"/><path d="m15.5 44.5c4-2 8-3 8-3l5.945-3.695v-1.305l9.055-2.76v-2l-9.055 2.76v1.305l-5.945 3.695s-4 1-8 3-4 8-4 12v2c0-4 0-10 4-12z" fill="#ffe885"/><path d="m54.5 42.5c-4-3-11-5-11-5l-5-3.588v2l5 3.588s7 2 11 5 4 7 4 12c0-.626 0-1.29 0-2 0-5 0-9-4-12z" fill="#ffe885"/><path d="m29.445 32.5v10l-1 5h4l2.386-9.88 4.669-3.12v-5.76z" fill="#ffb4be"/><path d="m45.5 19.5s1 3-2 6 1 6.962-4 6.962v-14.43z" fill="#e678a0"/><path d="m39.5 32.924c-.256 0-.474-.195-.498-.455-.025-.274.178-.518.453-.543 2.119-.193 2.153-1.05 2.214-2.604.05-1.251.111-2.809 1.478-4.175 2.75-2.75 1.888-5.461 1.879-5.488-.087-.262.054-.545.316-.633.265-.088.545.056.632.316.045.135 1.062 3.33-2.121 6.512-1.089 1.09-1.138 2.318-1.185 3.507-.061 1.542-.13 3.289-3.123 3.562-.015 0-.03.001-.045.001z" fill="#785ae6"/><path d="m16.451 15.402s-2.951-1.902-2.951-2.902 2-2 7-2c0 0-2-1-2-4s8-2 12-3 8-1 12 4 12.445 8 3.222 12l-4.222-1z" fill="#826ec8"/><path d="m30.5 5.5c4-1 8-1 12 4 2.311 2.888 6.099 5.109 7.113 7.241 1.513-2.803-4.077-5.446-7.113-9.241-4-5-8-5-12-4s-12 0-12 3c0 .514.073.95.17 1.352 1.124-2.194 8.156-1.433 11.83-2.352z" fill="#8d7bd4"/><path d="m45.722 20c-.039 0-.077-.005-.115-.014l-4.222-1-24.996-3.089c-.075-.009-.146-.035-.209-.076-.956-.615-3.18-2.173-3.18-3.321 0-1.436 2.232-2.318 6.179-2.475-.583-.691-1.179-1.815-1.179-3.525 0-2.47 3.682-2.7 7.58-2.943 1.726-.108 3.51-.22 4.799-.542 3.971-.992 8.234-1.174 12.512 4.173 1.028 1.285 2.351 2.429 3.629 3.533 2.207 1.907 4.113 3.555 3.828 5.418-.212 1.389-1.619 2.603-4.427 3.82-.063.027-.131.041-.199.041zm-29.096-5.081 24.935 3.085 4.113.971c2.297-1.016 3.537-2.021 3.685-2.986.201-1.318-1.593-2.869-3.493-4.511-1.252-1.082-2.671-2.309-3.757-3.665-3.925-4.906-7.841-4.738-11.488-3.827-1.377.344-3.208.459-4.979.569-3.113.194-6.642.415-6.642 1.945 0 2.63 1.656 3.518 1.727 3.555.205.105.312.339.258.562-.055.225-.255.383-.485.383-5.306 0-6.5 1.111-6.5 1.5 0 .372 1.24 1.511 2.626 2.419z" fill="#785ae6"/><path d="m21.5 14.5v14c0 3.314 2.686 6 6 6h6c3.314 0 6-2.686 6-6h2c1.657 0 3-1.343 3-3v-2c0-1.657-1.343-3-3-3h-2l-5-6z" fill="#ffc8d2"/><path d="m35.459 16.879s2.041 1.621 2.041 4.621 2 4 3 2 1-5 1-5z" fill="#e678a0"/><g fill="#785ae6"><path d="m23.5 25c-.276 0-.5-.224-.5-.5v-3c0-.276.224-.5.5-.5s.5.224.5.5v3c0 .276-.224.5-.5.5z"/><path d="m33.5 21c-.128 0-.256-.049-.354-.146-2.588-2.586-4.228-1.063-4.296-.997-.198.189-.514.188-.706-.008-.192-.195-.192-.508.001-.702.023-.023 2.391-2.315 5.707 1 .195.195.195.512 0 .707-.096.097-.224.146-.352.146z"/><path d="m24.5 20c-.127 0-.254-.048-.352-.145-.111-.108-1.123-1.033-2.343-.083-.218.172-.532.13-.702-.086-.17-.218-.131-.531.086-.701 1.554-1.217 3.076-.426 3.664.161.195.195.195.512 0 .707-.097.098-.225.147-.353.147z"/><path d="m36.5 34c-.162 0-.32-.078-.417-.223-.153-.229-.091-.54.139-.693 2.746-1.83 2.778-4.557 2.778-4.584 0-.276.224-.5.5-.5h2c1.378 0 2.5-1.121 2.5-2.5v-2c0-1.379-1.122-2.5-2.5-2.5h-1c-.276 0-.5-.224-.5-.5s.224-.5.5-.5h1c1.93 0 3.5 1.57 3.5 3.5v2c0 1.93-1.57 3.5-3.5 3.5h-1.541c-.134.997-.71 3.269-3.182 4.916-.085.057-.181.084-.277.084z"/></g><path d="m41.5 18.5c-8-3-20-3-20-1 0 0-6-1-6-4s22 0 26 5z" fill="#826ec8"/><g fill="#785ae6"><path d="m41.5 19c-.059 0-.118-.011-.176-.032-6.87-2.575-16.715-2.882-19.021-1.7-.266.136-.303.233-.303.234 0 .147-.064.286-.176.381-.111.095-.256.137-.405.11-.263-.044-6.419-1.108-6.419-4.493 0-.398.208-.946 1.196-1.293 4.399-1.538 22.134 1.53 25.694 5.98.141.176.146.424.014.606-.095.133-.247.207-.404.207zm-14.218-3.39c3.488 0 7.906.524 11.743 1.572-5.698-3.225-18.956-5.275-22.499-4.031-.361.127-.526.27-.526.349 0 1.945 3.426 3.063 5.177 3.43.087-.13.214-.264.396-.39.895-.62 3.027-.93 5.709-.93z"/><path d="m32.5 35h-5c-3.584 0-6.5-2.916-6.5-6.5v-11c0-.276.224-.5.5-.5s.5.224.5.5v11c0 3.032 2.467 5.5 5.5 5.5h5c.276 0 .5.224.5.5s-.224.5-.5.5z"/><path d="m30.5 31h-5c-.276 0-.5-.224-.5-.5s.224-.5.5-.5h5c.403 0 .494-.275.5-.506.007-.271.229-.491.5-.491.002 0 .004 0 .006.001.274.003.494.223.494.496 0 .603-.399 1.5-1.5 1.5z"/><path d="m25.5 28c-1.153 0-2.5-.393-2.5-1.5 0-1.064 1.71-4.538 2.053-5.224.124-.246.423-.348.671-.224.247.124.347.424.224.671-.809 1.618-1.948 4.169-1.948 4.777 0 .301.903.5 1.5.5.276 0 .5.224.5.5s-.224.5-.5.5z"/><path d="m30.5 25c-.276 0-.5-.224-.5-.5v-3c0-.276.224-.5.5-.5s.5.224.5.5v3c0 .276-.224.5-.5.5z"/></g><path d="m11.5 62.5h47s0-.708 0-2h-47z" fill="#dcc864"/><path d="m30.5 47.5c-1.122 0-1.231-.313-2-.59l-1 15.59h5v-14-1.59c-.769.277-.878.59-2 .59z" fill="#aad2ff"/><path d="m27.628 60.5-.128 2h5v-2z" fill="#96bef0"/><path d="m46.5 63c-.276 0-.5-.224-.5-.5v-12c0-.276.224-.5.5-.5s.5.224.5.5v12c0 .276-.224.5-.5.5z" fill="#dcc864"/><path d="m15.5 63c-.276 0-.5-.224-.5-.5v-12c0-.276.224-.5.5-.5s.5.224.5.5v12c0 .276-.224.5-.5.5z" fill="#dcc864"/><path d="m58.5 63h-47c-.276 0-.5-.224-.5-.5v-8c0-4.105 0-10.309 4.276-12.447 3.747-1.873 7.433-2.865 8.025-3.019l5.643-3.507v-1.027c0-.276.224-.5.5-.5s.5.224.5.5v1.306c0 .173-.089.333-.236.425l-5.944 3.694c-.044.027-.092.048-.143.061-.04.01-3.997 1.012-7.898 2.962-3.723 1.861-3.723 7.693-3.723 11.552v7.5h46v-7.5c0-4.889 0-8.75-3.8-11.6-3.879-2.909-10.769-4.899-10.837-4.92-.073-.021-.14-.058-.197-.108l-4-3.588c-.105-.095-.166-.23-.166-.372v-5.172c0-.276.224-.5.5-.5s.5.224.5.5v4.948l3.749 3.363c.949.279 7.253 2.2 11.051 5.048 4.2 3.151 4.2 7.437 4.2 12.401v8c0 .276-.224.5-.5.5z" fill="#785ae6"/><path d="m36.5 36.5c1 0 4 7 4 7l5-6s-2-4-3-5z" fill="#f0dc78"/><path d="m37.331 37.279 4.169-2.779c.784.784 2.179 3.406 2.747 4.504l1.253-1.504s-2-4-3-5l-6 4c.206 0 .499.307.831.779z" fill="#ffe885"/><path d="m40.5 44c-.024 0-.048-.002-.072-.005-.172-.025-.319-.139-.387-.298-1.289-3.008-3.041-6.429-3.623-6.712-.22 0-.374-.137-.437-.348-.064-.211.059-.432.242-.554l6-4c.197-.133.462-.106.631.062 1.045 1.045 3.011 4.964 3.094 5.13.089.178.064.392-.063.544l-5 6c-.096.116-.238.181-.385.181zm-3.151-7.465c.821.896 1.921 2.909 3.287 6.021l4.27-5.123c-.571-1.119-1.741-3.299-2.495-4.272z" fill="#785ae6"/><path d="m32.5 63c-.276 0-.5-.224-.5-.5v-17c0-.036.004-.073.012-.108.489-2.204 2.26-9.392 4.488-9.392.276 0 .5.224.5.5s-.224.5-.5.5c-.952 0-2.574 4.413-3.5 8.555v16.945c0 .276-.224.5-.5.5z" fill="#785ae6"/><path d="m24.5 36.5c-2 0-3 8-3 8l6-6s-1-2-3-2z" fill="#f0dc78"/><path d="m21.5 45c-.075 0-.15-.017-.22-.051-.192-.094-.303-.299-.276-.512.247-1.978 1.231-8.437 3.496-8.437 2.283 0 3.401 2.184 3.447 2.276.096.192.059.425-.094.577l-6 6c-.095.096-.224.147-.353.147zm3-8c-.806 0-1.749 2.925-2.285 6.077l4.653-4.652c-.34-.494-1.144-1.425-2.368-1.425z" fill="#785ae6"/><path d="m27.5 62.5v-18c-1-2-1-8-3-8 0 0 2.889-1.695 4.945-1.695z" fill="#f0dc78"/><path d="m27.5 63c-.006 0-.012 0-.018 0-.269-.01-.482-.23-.482-.5v-17.887c-.359-.786-.583-1.988-.82-3.259-.344-1.837-.813-4.354-1.68-4.354-.226 0-.423-.151-.482-.369s.035-.448.229-.562c.123-.071 3.031-1.763 5.197-1.763.139 0 .271.058.366.159s.143.237.133.376l-1.944 27.694c-.019.263-.237.465-.499.465zm-1.901-26.517c.853.875 1.212 2.806 1.564 4.688.225 1.204.457 2.449.785 3.104.034.071.052.148.052.225v3.739l.905-12.896c-1.146.152-2.468.726-3.306 1.14z" fill="#785ae6"/></svg>