<svg enable-background="new 0 0 64 64" height="512" viewBox="0 0 64 64" width="512" xmlns="http://www.w3.org/2000/svg"><path d="m42.5 32.5c-3-1-7-1-7-1l1 5z" fill="#f0dc78"/><path d="m36.5 37c-.064 0-.13-.013-.191-.038-.154-.063-.267-.2-.299-.364l-1-5c-.029-.146.009-.299.104-.415.094-.116.237-.183.386-.183.167 0 4.116.012 7.158 1.025.181.061.312.219.337.408s-.059.377-.218.482l-6 4c-.083.057-.179.085-.277.085zm-.387-4.985.73 3.655 4.482-2.988c-1.986-.494-4.174-.629-5.212-.667z" fill="#785ae6"/><path d="m29.445 34.5v1.305l-5.945 3.695s-4 1-8 3-4 8-4 12 0 8 0 8h47s0-3 0-8 0-9-4-12-11-5-11-5l-5-3.588v-2.172z" fill="#f0dc78"/><path d="m15.5 44.5c4-2 8-3 8-3l5.945-3.695v-1.305l9.055-2.76v-2l-9.055 2.76v1.305l-5.945 3.695s-4 1-8 3-4 8-4 12v2c0-4 0-10 4-12z" fill="#ffe885"/><path d="m54.5 42.5c-4-3-11-5-11-5l-5-3.588v2l5 3.588s7 2 11 5 4 7 4 12c0-.626 0-1.29 0-2 0-5 0-9-4-12z" fill="#ffe885"/><path d="m29.445 32.5v10l-1 5h4l2.386-9.88 4.669-3.12v-5.76z" fill="#c88c5a"/><path d="m45.5 19.5s1 3-2 6 1 6.962-4 6.962v-14.43z" fill="#e678a0"/><path d="m39.499 32.924c-.255 0-.474-.195-.497-.455-.025-.274.178-.518.453-.543 2.118-.193 2.152-1.05 2.214-2.604.05-1.251.111-2.809 1.478-4.175 2.75-2.75 1.889-5.461 1.879-5.488-.087-.262.055-.545.316-.633.262-.087.545.055.633.316.045.135 1.061 3.33-2.121 6.512-1.09 1.09-1.139 2.319-1.186 3.508-.061 1.541-.13 3.288-3.123 3.561-.015 0-.03.001-.046.001z" fill="#785ae6"/><path d="m16.451 15.402s-2.951-1.902-2.951-2.902 2-2 7-2c0 0-2-1-2-4s8-2 12-3 8-1 12 4 12.445 8 3.222 12l-4.222-1z" fill="#826ec8"/><path d="m30.5 5.5c4-1 8-1 12 4 2.311 2.888 6.099 5.109 7.113 7.241 1.513-2.803-4.077-5.446-7.113-9.241-4-5-8-5-12-4s-12 0-12 3c0 .514.073.95.17 1.352 1.124-2.194 8.156-1.433 11.83-2.352z" fill="#8d7bd4"/><path d="m45.723 20c-.039 0-.077-.005-.115-.014l-4.223-1-24.996-3.089c-.074-.009-.146-.035-.209-.076-.956-.616-3.18-2.173-3.18-3.321 0-1.436 2.232-2.318 6.179-2.475-.582-.691-1.179-1.815-1.179-3.525 0-2.47 3.682-2.7 7.58-2.943 1.726-.108 3.51-.22 4.799-.542 3.97-.992 8.233-1.173 12.512 4.173 1.028 1.285 2.351 2.429 3.63 3.533 2.206 1.907 4.112 3.555 3.827 5.418-.212 1.389-1.618 2.603-4.426 3.82-.064.027-.131.041-.199.041zm-29.097-5.081 24.936 3.085 4.113.971c2.297-1.016 3.536-2.021 3.685-2.986.201-1.318-1.593-2.869-3.493-4.511-1.252-1.082-2.671-2.309-3.757-3.665-3.924-4.905-7.84-4.737-11.488-3.827-1.378.344-3.208.459-4.979.569-3.114.194-6.643.415-6.643 1.945 0 2.63 1.656 3.518 1.727 3.555.205.105.312.339.258.562-.055.225-.255.383-.485.383-5.306 0-6.5 1.111-6.5 1.5 0 .372 1.239 1.511 2.626 2.419z" fill="#785ae6"/><path d="m21.5 14.5v14c0 3.314 2.686 6 6 6h6c3.314 0 6-2.686 6-6h2c1.657 0 3-1.343 3-3v-2c0-1.657-1.343-3-3-3h-2l-5-6z" fill="#e1a271"/><path d="m35.459 16.879s2.041 1.621 2.041 4.621 2 4 3 2 1-5 1-5z" fill="#e678a0"/><g fill="#785ae6"><path d="m23.5 25c-.276 0-.5-.224-.5-.5v-3c0-.276.224-.5.5-.5s.5.224.5.5v3c0 .276-.224.5-.5.5z"/><path d="m33.5 21c-.128 0-.256-.049-.354-.146-2.586-2.586-4.228-1.063-4.296-.997-.197.19-.513.188-.706-.008-.191-.195-.192-.508.002-.702.023-.022 2.394-2.313 5.707 1 .195.195.195.512 0 .707-.097.097-.225.146-.353.146z"/><path d="m24.5 20c-.127 0-.255-.048-.352-.145-.114-.111-1.126-1.033-2.344-.082-.215.169-.531.131-.702-.087-.17-.218-.131-.531.087-.702 1.556-1.215 3.077-.424 3.664.162.195.195.195.512 0 .707-.097.098-.225.147-.353.147z"/><path d="m36.5 34c-.161 0-.319-.078-.416-.223-.153-.229-.091-.54.139-.693 2.745-1.83 2.777-4.557 2.777-4.584 0-.276.224-.5.5-.5h2c1.379 0 2.5-1.121 2.5-2.5v-2c0-1.379-1.121-2.5-2.5-2.5h-1c-.276 0-.5-.224-.5-.5s.224-.5.5-.5h1c1.93 0 3.5 1.57 3.5 3.5v2c0 1.93-1.57 3.5-3.5 3.5h-1.541c-.134.997-.71 3.269-3.182 4.916-.085.057-.181.084-.277.084z"/></g><path d="m41.5 18.5c-8-3-20-3-20-1 0 0-6-1-6-4s22 0 26 5z" fill="#826ec8"/><g fill="#785ae6"><path d="m41.5 19c-.059 0-.118-.011-.176-.032-6.87-2.576-16.713-2.882-19.021-1.7-.267.136-.303.233-.303.234 0 .147-.064.286-.177.381s-.26.137-.405.11c-.263-.044-6.418-1.108-6.418-4.493 0-.398.207-.946 1.196-1.293 4.396-1.538 22.134 1.529 25.694 5.98.141.176.146.424.014.606-.095.133-.248.207-.404.207zm-14.218-3.39c3.488 0 7.906.524 11.743 1.572-5.698-3.224-18.957-5.277-22.498-4.031-.362.127-.527.27-.527.349 0 1.945 3.426 3.063 5.177 3.43.088-.13.214-.264.396-.39.895-.62 3.028-.93 5.709-.93z"/><path d="m32.5 35h-5c-3.584 0-6.5-2.916-6.5-6.5v-11c0-.276.224-.5.5-.5s.5.224.5.5v11c0 3.032 2.468 5.5 5.5 5.5h5c.276 0 .5.224.5.5s-.224.5-.5.5z"/><path d="m30.5 31h-5c-.276 0-.5-.224-.5-.5s.224-.5.5-.5h5c.402 0 .494-.275.5-.506.007-.271.229-.491.5-.491.002 0 .004 0 .006.001.274.003.494.223.494.496 0 .603-.399 1.5-1.5 1.5z"/><path d="m25.5 28c-1.153 0-2.5-.393-2.5-1.5 0-1.064 1.71-4.538 2.053-5.224.124-.247.425-.346.671-.224.247.124.347.424.224.671-.809 1.618-1.948 4.169-1.948 4.777 0 .301.902.5 1.5.5.276 0 .5.224.5.5s-.224.5-.5.5z"/><path d="m30.5 25c-.276 0-.5-.224-.5-.5v-3c0-.276.224-.5.5-.5s.5.224.5.5v3c0 .276-.224.5-.5.5z"/></g><path d="m11.5 62.5h47s0-.708 0-2h-47z" fill="#dcc864"/><path d="m30.5 47.5c-1.122 0-1.231-.313-2-.59l-1 15.59h5v-14-1.59c-.769.277-.878.59-2 .59z" fill="#aad2ff"/><path d="m27.628 60.5-.128 2h5v-2z" fill="#96bef0"/><path d="m46.5 63c-.276 0-.5-.224-.5-.5v-12c0-.276.224-.5.5-.5s.5.224.5.5v12c0 .276-.224.5-.5.5z" fill="#dcc864"/><path d="m15.5 63c-.276 0-.5-.224-.5-.5v-12c0-.276.224-.5.5-.5s.5.224.5.5v12c0 .276-.224.5-.5.5z" fill="#dcc864"/><path d="m58.5 63h-47c-.276 0-.5-.224-.5-.5v-8c0-4.105 0-10.309 4.276-12.447 3.747-1.873 7.433-2.865 8.025-3.019l5.643-3.507v-1.027c0-.276.224-.5.5-.5s.5.224.5.5v1.306c0 .173-.089.333-.236.425l-5.944 3.694c-.044.027-.092.048-.143.061-.039.01-3.996 1.012-7.897 2.962-3.724 1.861-3.724 7.693-3.724 11.552v7.5h46v-7.5c0-4.889 0-8.75-3.8-11.6-3.879-2.909-10.769-4.899-10.838-4.92-.072-.021-.14-.058-.196-.108l-4-3.588c-.105-.095-.166-.23-.166-.372v-5.172c0-.276.224-.5.5-.5s.5.224.5.5v4.948l3.749 3.363c.949.279 7.253 2.2 11.051 5.048 4.2 3.151 4.2 7.437 4.2 12.401v8c0 .276-.224.5-.5.5z" fill="#785ae6"/><path d="m36.5 36.5c1 0 4 7 4 7l5-6s-2-4-3-5z" fill="#f0dc78"/><path d="m37.331 37.279 4.169-2.779c.784.784 2.179 3.406 2.747 4.504l1.253-1.504s-2-4-3-5l-6 4c.206 0 .499.307.831.779z" fill="#ffe885"/><path d="m40.5 44c-.024 0-.048-.002-.072-.005-.172-.025-.318-.139-.388-.298-1.289-3.008-3.04-6.429-3.622-6.712-.221 0-.374-.137-.438-.348s.059-.432.242-.554l6-4c.2-.133.463-.105.631.062 1.045 1.045 3.011 4.964 3.094 5.13.089.178.064.392-.063.544l-5 6c-.096.116-.237.181-.384.181zm-3.151-7.465c.821.896 1.922 2.909 3.287 6.021l4.27-5.123c-.571-1.119-1.741-3.299-2.495-4.272z" fill="#785ae6"/><path d="m32.5 63c-.276 0-.5-.224-.5-.5v-17c0-.036.004-.073.012-.108.49-2.204 2.26-9.392 4.488-9.392.276 0 .5.224.5.5s-.224.5-.5.5c-.952 0-2.573 4.413-3.5 8.555v16.945c0 .276-.224.5-.5.5z" fill="#785ae6"/><path d="m24.5 36.5c-2 0-3 8-3 8l6-6s-1-2-3-2z" fill="#f0dc78"/><path d="m21.5 45c-.074 0-.149-.017-.22-.051-.191-.094-.303-.299-.276-.512.247-1.978 1.23-8.437 3.496-8.437 2.283 0 3.4 2.184 3.447 2.276.097.192.059.425-.094.577l-6 6c-.095.096-.223.147-.353.147zm3-8c-.806 0-1.749 2.925-2.284 6.077l4.652-4.652c-.341-.494-1.143-1.425-2.368-1.425z" fill="#785ae6"/><path d="m27.5 62.5v-18c-1-2-1-8-3-8 0 0 2.889-1.695 4.945-1.695z" fill="#f0dc78"/><path d="m27.5 63c-.006 0-.012 0-.018 0-.269-.01-.482-.23-.482-.5v-17.887c-.359-.786-.584-1.988-.82-3.259-.343-1.837-.813-4.354-1.68-4.354-.226 0-.424-.151-.482-.369-.06-.218.035-.448.229-.562.123-.071 3.03-1.763 5.197-1.763.139 0 .271.058.365.159.095.102.144.237.134.376l-1.944 27.694c-.019.263-.237.465-.499.465zm-1.901-26.517c.853.875 1.213 2.806 1.563 4.688.226 1.204.458 2.449.785 3.104.034.071.053.148.053.225v3.739l.905-12.896c-1.148.152-2.468.726-3.306 1.14z" fill="#785ae6"/></svg>