<svg enable-background="new 0 0 64 64" height="512" viewBox="0 0 64 64" width="512" xmlns="http://www.w3.org/2000/svg"><path d="m23.199 39.65c-.695.347-2.595 1.297-5.699 2.85-4 2-4 8-4 12s0 8 0 8h43s0-3 0-8 0-9-4-12c-2.912-2.184-6.354-3.838-8.011-4.576z" fill="#aad2ff"/><path d="m52.5 42.5c-2.912-2.184-6.354-3.838-8.011-4.576l-21.29 1.726c-.695.347-2.595 1.297-5.699 2.85-4 2-4 8-4 12v2c0-4 0-10 4-12 3.105-1.552 5.004-2.502 5.699-2.85l21.289-1.727c1.657.738 5.099 2.392 8.011 4.576 4 3 4 7 4 12 0-.626 0-1.29 0-2 .001-4.999.001-8.999-3.999-11.999z" fill="#bee6ff"/><path d="m39.568 34.678c3.067.178 3.932-3.178 3.932-3.178 6 1 5-6 5-6 6 0 5-4 5-4-6 0-5-7-6-11s-5-5-5-5c3 0 2-2-1-3-9-3-11 2-11 2s-1-3-6-2-6 9-9 9c0 0 1 2 3 1 0 0-3 4-3 8s2 5 2 7-3 3-3 3 1 2 4 1c0 0 1 3 6 1z" fill="#f0f0e6"/><path d="m42.5 7.5s4 1 5 5c.986 3.942.043 10.784 5.758 10.982.487-.994.242-1.982.242-1.982-6 0-5-7-6-11-.57-2.279-2.112-3.582-3.335-4.283.403.696-.041 1.283-1.665 1.283z" fill="#fffffa"/><path d="m48.5 27.5s.004.029.008.066c.002-.023.003-.044.006-.067-.005 0-.009.001-.014.001z" fill="#fffffa"/><path d="m17.034 12.735c1.99-2.024 3.416-7.425 7.466-8.235 5-1 6 2 6 2s2-5 11-2c.773.258 1.41.582 1.883.921 1.852-.376.768-2.037-1.883-2.921-9-3-11 2-11 2s-1-3-6-2-6 9-9 9c0 0 .513 1.016 1.534 1.235z" fill="#fffffa"/><path d="m39.796 35.185c-.084 0-.17-.003-.258-.008-.014-.001-.028-.002-.042-.004l-14.936-2.159c-2.015.783-3.669.885-4.922.305-.741-.344-1.168-.855-1.394-1.221-3.066.81-4.18-1.351-4.191-1.374-.064-.13-.07-.28-.015-.414s.166-.237.304-.284c.739-.249 2.658-1.187 2.658-2.526 0-.706-.304-1.287-.688-2.023-.584-1.119-1.312-2.511-1.312-4.977 0-2.888 1.461-5.723 2.379-7.218-.604-.01-1.085-.249-1.429-.507-.578-.434-.866-.99-.897-1.052-.077-.155-.069-.339.021-.486.092-.147.253-.237.426-.237 1.067 0 1.945-1.514 2.962-3.266 1.326-2.286 2.978-5.132 5.94-5.725 3.683-.739 5.384.568 6.104 1.507 1.031-1.391 3.994-3.874 11.151-1.491 2.041.681 3.303 1.812 3.14 2.817-.046.28-.199.589-.593.816 1.337.715 3.132 2.126 3.78 4.72.238.956.363 2.043.495 3.193.42 3.653.853 7.429 5.021 7.429.229 0 .43.156.485.379.016.064.382 1.592-.638 2.897-.821 1.052-2.267 1.627-4.301 1.713.064 1.102.02 3.557-1.466 5.008-.9.879-2.158 1.234-3.731 1.057-.474 1.288-1.745 3.131-4.053 3.131zm-.179-1.005c2.615.143 3.392-2.774 3.398-2.805.064-.25.307-.417.566-.368 1.449.241 2.56-.002 3.298-.723 1.555-1.516 1.13-4.683 1.125-4.714-.021-.144.022-.289.118-.398s.233-.172.378-.172c2 0 3.366-.45 4.06-1.339.467-.598.521-1.27.501-1.673-4.651-.262-5.161-4.708-5.573-8.302-.128-1.118-.249-2.173-.473-3.065-.912-3.649-4.485-4.598-4.637-4.637-.244-.062-.405-.296-.374-.546.032-.25.244-.438.496-.438 1.035 0 1.3-.254 1.311-.317.038-.239-.639-1.099-2.469-1.708-8.396-2.799-10.301 1.528-10.379 1.714-.079.193-.305.299-.48.31-.208-.007-.391-.142-.457-.34-.035-.102-.965-2.557-5.428-1.668-2.52.504-3.981 3.023-5.271 5.246-.951 1.641-1.798 3.099-2.962 3.589.377.358 1.011.678 1.912.228.208-.102.459-.051.607.127s.155.435.017.62c-.029.039-2.9 3.918-2.9 7.7 0 2.221.637 3.438 1.198 4.514.411.788.801 1.534.801 2.485 0 1.709-1.719 2.754-2.693 3.209.455.402 1.386.865 3.035.316.262-.089.545.055.633.316.008.023.257.697 1.108 1.081 1.004.451 2.468.318 4.231-.387.081-.034.171-.043.257-.031z" fill="#785ae6"/><path d="m39.45 31.678c.492.138 1.176.385 2.05.822 2 1 3 5 3 5 0 5-4 8-4 8s-.233-.408-.615-1.027l.013-.008c-2.611 2.435-5.909 4.471-9.398 4.035-4.639-.58-5.916-4.186-6.169-7.114l-.028-.024c-.987 1.118-1.803 2.138-1.803 2.138s.473-5.672 3.043-9.217z" fill="#f0f0e6"/><path d="m25.543 36.283 13.907-2.605c.492.138 1.176.385 2.05.822 1.58.79 2.533 3.445 2.865 4.529.082-.488.135-.994.135-1.529 0 0-1-4-3-5-.875-.437-1.558-.683-2.05-.822l-13.907 2.605c-2.57 3.545-3.043 9.217-3.043 9.217s.146-.182.381-.467c.398-1.963 1.181-4.707 2.662-6.75z" fill="#fffffa"/><path d="m29.445 34.5v8.282l4.586-4.041 5.469-3.241v-8.76z" fill="#c88c5a"/><path d="m21.5 17.5v11c0 3.314 2.686 6 6 6h5c3.314 0 7-1.988 7-8h2c1.657 0 3-1.343 3-3v-2c0-1.657-1.343-3-3-3h-2l-5-4z" fill="#e1a271"/><path d="m13.5 62.5h43s0-.708 0-2h-43z" fill="#96bef0"/><path d="m46.5 63c-.276 0-.5-.224-.5-.5v-12c0-.276.224-.5.5-.5s.5.224.5.5v12c0 .276-.224.5-.5.5z" fill="#96bef0"/><path d="m17.5 63c-.276 0-.5-.224-.5-.5v-12c0-.276.224-.5.5-.5s.5.224.5.5v12c0 .276-.224.5-.5.5z" fill="#96bef0"/><g fill="#785ae6"><path d="m23.5 25c-.276 0-.5-.224-.5-.5v-3c0-.276.224-.5.5-.5s.5.224.5.5v3c0 .276-.224.5-.5.5z"/><path d="m33.5 21c-.128 0-.256-.049-.354-.146-2.586-2.585-4.228-1.063-4.296-.997-.197.19-.513.188-.706-.008-.191-.195-.192-.508.002-.702.023-.023 2.394-2.314 5.707 1 .195.195.195.512 0 .707-.097.097-.225.146-.353.146z"/><path d="m24.5 20c-.127 0-.255-.048-.352-.145-.114-.111-1.126-1.034-2.344-.082-.215.17-.531.132-.702-.087-.17-.218-.131-.531.087-.702 1.556-1.214 3.077-.424 3.664.162.195.195.195.512 0 .707-.097.098-.225.147-.353.147z"/><path d="m41.5 27h-2c-.276 0-.5-.224-.5-.5s.224-.5.5-.5h2c1.379 0 2.5-1.121 2.5-2.5v-2c0-1.379-1.121-2.5-2.5-2.5h-1c-.276 0-.5-.224-.5-.5s.224-.5.5-.5h1c1.93 0 3.5 1.57 3.5 3.5v2c0 1.93-1.57 3.5-3.5 3.5z"/></g><path d="m21.5 17.5c0-4 2-7 4-5s3 2 5 0 6-1 7 2c1.304 3.912 2 4 3 4z" fill="#e1a271"/><g fill="#785ae6"><path d="m32.5 35h-5c-3.584 0-6.5-2.916-6.5-6.5v-11c0-.276.224-.5.5-.5s.5.224.5.5v11c0 3.032 2.468 5.5 5.5 5.5h5c.276 0 .5.224.5.5s-.224.5-.5.5z"/><path d="m25.5 28c-1.153 0-2.5-.393-2.5-1.5 0-1.064 1.71-4.538 2.053-5.224.124-.247.425-.346.671-.224.247.124.347.424.224.671-.809 1.618-1.948 4.169-1.948 4.777 0 .301.902.5 1.5.5.276 0 .5.224.5.5s-.224.5-.5.5z"/><path d="m30.5 25c-.276 0-.5-.224-.5-.5v-3c0-.276.224-.5.5-.5s.5.224.5.5v3c0 .276-.224.5-.5.5z"/><path d="m39.5 32.412c-.276 0-.5-.224-.5-.5v-5.172c0-.276.224-.5.5-.5s.5.224.5.5v5.172c0 .276-.224.5-.5.5z"/></g><path d="m31.465 49.06c-.345 0-.687-.021-1.027-.063-4.972-.622-6.336-4.458-6.604-7.567-.023-.275.18-.518.455-.541.27-.025.517.179.541.455.345 3.987 2.273 6.229 5.733 6.661 2.808.352 5.838-.963 8.995-3.904.203-.188.52-.178.706.024.188.202.178.519-.024.706-3.015 2.81-5.962 4.229-8.775 4.229z" fill="#96bef0"/><path d="m22.5 44c-.063 0-.125-.012-.185-.035-.205-.082-.332-.287-.313-.506.006-.072.152-1.784.714-3.935.069-.268.338-.43.609-.357.268.069.428.343.357.609-.194.748-.338 1.447-.442 2.034 1.523-1.8 3.411-3.81 4.26-3.81.351 0 1.081 0 2.832 3.848.114.251.003.548-.248.662-.25.113-.547.004-.662-.248-1.373-3.017-1.942-3.259-1.966-3.268-.512.125-2.788 2.597-4.565 4.818-.098.122-.243.188-.391.188z" fill="#dcdcd2"/><path d="m26.306 46.987c-.11 0-.222-.036-.314-.111-.215-.173-.248-.488-.074-.703 4.377-5.423 7.266-8.173 8.582-8.173 1.953 0 5.016 4.85 6.13 6.729.959-.889 3.201-3.326 3.361-6.828.013-.275.224-.497.521-.477.276.012.489.246.477.521-.224 4.925-4.027 7.832-4.189 7.954-.114.087-.26.118-.401.089-.141-.028-.262-.116-.333-.241-1.602-2.801-4.387-6.747-5.566-6.747-.75 0-3.454 2.412-7.806 7.802-.098.122-.243.185-.388.185z" fill="#dcdcd2"/><path d="m34.5 39c-.183 0-.359-.102-.447-.276-.123-.247-.023-.547.224-.671 2.376-1.189 5.723-3.388 5.723-4.553 0-.276.224-.5.5-.5s.5.224.5.5c0 2.197-5.229 4.923-6.276 5.447-.073.036-.149.053-.224.053z" fill="#dcdcd2"/><path d="m25.5 28.5s-3 3-4 3 1 2 4 0c0 0 1 1 2 1s2-1 2-1 2.151 2.276 6 0c1.128-.667-.816-.369-2-1.187s-2-1.813-2-1.813z" fill="#f0f0e6"/><path d="m32.255 33.003c-1.323 0-2.258-.505-2.741-.849-.427.343-1.194.846-2.014.846-.846 0-1.634-.534-2.052-.877-2.045 1.213-3.64.748-4.28.256-.508-.391-.445-.779-.395-.928.037-.106.195-.451.727-.451.43 0 2.1-1.307 3.646-2.854.094-.093.221-.146.354-.146h6c.149 0 .292.067.387.183.008.01.789.954 1.897 1.719.439.304 1.053.436 1.5.532.523.112.975.209 1.048.66s-.366.712-.577.837c-1.358.801-2.532 1.072-3.5 1.072zm-2.755-2.003h.008c.135.003.263.059.355.156.073.074 1.771 1.767 4.891.184-.48-.111-1.049-.278-1.538-.616-.934-.645-1.643-1.386-1.944-1.724h-5.565c-.713.703-2.345 2.24-3.497 2.795.601.173 1.68.178 3.014-.711.197-.133.462-.105.63.062.239.238 1 .854 1.646.854s1.407-.616 1.647-.854c.094-.093.221-.146.353-.146z" fill="#785ae6"/><path d="m26.301 18.265c-.619 0-1.11-.441-1.482-.777-.148-.134-.397-.356-.492-.375-.278.04-.516-.15-.555-.424s.162-.527.435-.566c.521-.082.902.281 1.281.622.372.334.646.568.895.511.238-.059.576-.27.934-.494.819-.511 1.836-1.145 3.034-.903.271.056.444.32.39.591-.056.271-.324.443-.591.39-.809-.168-1.601.332-2.303.771-.428.268-.832.521-1.228.616-.11.026-.216.038-.318.038z" fill="#c88c5a"/><path d="m23.199 40.15c-.041 0-.084-.005-.126-.017-.268-.069-.428-.342-.357-.609.592-2.272 1.407-4.135 2.423-5.535.163-.225.476-.271.698-.11.223.162.272.475.11.698-.941 1.299-1.703 3.048-2.265 5.199-.058.225-.26.374-.483.374z" fill="#785ae6"/><path d="m44.49 38.424c-.008 0-.017 0-.024-.001-.275-.013-.488-.248-.475-.523.005-.111.008-.224.009-.337-.286-1.097-1.281-3.895-2.724-4.615-.687-.343-1.32-.601-1.885-.766-.265-.077-.417-.354-.339-.62.076-.264.35-.419.62-.339.621.181 1.311.461 2.051.83 2.181 1.091 3.219 5.153 3.262 5.326.01.039.015.08.015.121 0 .15-.003.301-.011.448-.012.268-.233.476-.499.476z" fill="#785ae6"/><path d="m56.5 63h-43c-.276 0-.5-.224-.5-.5v-8c0-4.105 0-10.309 4.276-12.447l5.699-2.85c.248-.125.547-.023.671.224.123.247.023.547-.224.671l-5.699 2.85c-3.723 1.861-3.723 7.693-3.723 11.552v7.5h42v-7.5c0-4.889 0-8.75-3.8-11.6-2.837-2.128-6.177-3.745-7.915-4.52-.253-.112-.366-.408-.254-.66.112-.253.412-.365.66-.254 1.777.792 5.193 2.446 8.108 4.633 4.201 3.151 4.201 7.437 4.201 12.401v8c0 .276-.224.5-.5.5z" fill="#785ae6"/><path d="m27.332 47.875c-.097 0-.194-.028-.28-.086-.833-.565-1.52-1.316-2.039-2.235-.137-.24-.052-.545.188-.681.236-.139.544-.055.681.188.444.782 1.026 1.422 1.73 1.899.229.155.288.466.134.694-.097.144-.254.221-.414.221z" fill="#96bef0"/></svg>