<svg enable-background="new 0 0 64 64" height="512" viewBox="0 0 64 64" width="512" xmlns="http://www.w3.org/2000/svg"><path d="m38.5 28.5v9.254h.001c14.999 3.876 15.999 6.895 15.999 13.746v11h-37s0-5.505 0-9.818c0-7.182-.055-11.182 11.945-14.182v-4z" fill="#ffb4be"/><path d="m39.5 47.5s-3-1-8-1-6 1-6 1v15h14z" fill="#f0f0e6"/><path d="m25.48 49.542c-.257 0-.516-.105-.718-.308-.391-.391-.36-1.051.031-1.441.303-.304 1.683-1.293 6.707-1.293 5.104 0 8.187 1.009 8.316 1.052.523.174.806.739.632 1.263-.174.523-.741.803-1.263.635-.029-.01-2.935-.949-7.686-.949-4.26 0-5.344.755-5.354.762-.187.187-.425.279-.665.279z" fill="#aad2ff"/><path d="m25.279 39.754c-7.815 2.865-7.779 6.7-7.779 12.928v9.818h7s-1-5-1-9c0-3.174 1.258-10.75 1.779-13.746z" fill="#ffe885"/><path d="m24.915 41.899c.139-.839.264-1.575.363-2.145-7.815 2.865-7.779 6.7-7.779 12.928v2c.001-6.125-.016-9.933 7.416-12.783z" fill="#fffa96"/><path d="m21.5 63c-.276 0-.5-.224-.5-.5 0-.903-.49-2.129-.964-3.314-.51-1.273-1.036-2.589-1.036-3.686 0-2.072 1.953-6.978 2.036-7.186.103-.257.396-.381.65-.278.256.103.381.394.279.649-.02.049-1.965 4.934-1.965 6.815 0 .903.49 2.129.964 3.314.51 1.273 1.036 2.589 1.036 3.686 0 .276-.224.5-.5.5z" fill="#f0dc78"/><path d="m43.014 39.028c-.758 2.53-2.514 8.979-2.514 14.472v9h14s0-3 0-11c0-6.085-.798-9.148-11.486-12.472z" fill="#ffe885"/><path d="m17.5 60.5v2h37s0-.611 0-2z" fill="#dcdcd2"/><path d="m17.5 60.5v2h7s-.159-.797-.349-2z" fill="#f0dc78"/><path d="m40.5 62.5h14s0-.611 0-2h-14z" fill="#f0dc78"/><path d="m43.014 39.028c-.163.543-.372 1.275-.6 2.131 10.318 3.274 12.086 6.336 12.086 12.341 0-.633 0-1.29 0-2 0-6.085-.798-9.148-11.486-12.472z" fill="#fffa96"/><path d="m45.5 63c-.276 0-.5-.224-.5-.5v-10.011c0-.276.224-.5.5-.5s.5.224.5.5v10.011c0 .276-.224.5-.5.5z" fill="#f0dc78"/><path d="m30.5 44.999c-.128 0-.255-.048-.353-.145-.239-.238-1.002-.854-1.647-.854-1.086 0-3.008-.945-3.224-1.053-.247-.123-.347-.424-.224-.671s.423-.349.671-.224c.528.264 2.055.948 2.777.948 1.173 0 2.236 1.029 2.354 1.146.195.195.195.511 0 .706-.098.098-.226.147-.354.147z" fill="#f0a0aa"/><path d="m34.5 44.999c-.128 0-.256-.049-.354-.146-.194-.195-.194-.511 0-.706.118-.118 1.181-1.147 2.354-1.147.77 0 3.783-.711 4.879-.985.267-.065.539.096.606.364s-.096.539-.364.606c-.415.104-4.089 1.015-5.121 1.015-.645 0-1.408.616-1.647.854-.098.097-.225.145-.353.145z" fill="#f0a0aa"/><path d="m38.588 28.394s3.279 2.088 1.912 5.22c0 0 5.214-5.084-1.912-5.22z" fill="#968cd2"/><path d="m40.5 34.114c-.099 0-.198-.029-.284-.089-.197-.136-.27-.392-.174-.611 1.176-2.695-1.605-4.521-1.724-4.599-.188-.12-.273-.352-.208-.566s.225-.365.488-.354c2.328.045 3.671.6 4.105 1.696.714 1.805-1.589 4.123-1.854 4.382-.096.093-.222.141-.349.141zm-.436-5.09c.621.709 1.163 1.656 1.252 2.761.387-.632.657-1.323.457-1.826-.178-.449-.77-.768-1.709-.935z" fill="#785ae6"/><ellipse cx="41" cy="6" fill="#968cd2" rx="4.5" ry="5.5" transform="matrix(.353 -.936 .936 .353 20.916 42.244)"/><path d="m35.854 6.059c.877-2.325 3.892-3.341 6.734-2.269 1.912.721 3.255 2.205 3.664 3.807.607-2.247-.961-4.787-3.664-5.807-2.842-1.072-5.857-.056-6.734 2.269-.287.761-.305 1.566-.106 2.345.031-.116.063-.231.106-.345z" fill="#a99be0"/><path d="m41.71 11.139c-.822 0-1.663-.154-2.475-.461-1.482-.559-2.7-1.562-3.43-2.823-.749-1.294-.897-2.705-.419-3.973s1.521-2.229 2.938-2.705c1.381-.467 2.958-.414 4.44.146 1.482.559 2.7 1.562 3.43 2.823.749 1.294.897 2.705.419 3.973s-1.521 2.229-2.938 2.705c-.624.21-1.287.315-1.965.315zm-1.42-9.278c-.569 0-1.125.087-1.646.263-1.127.38-1.952 1.13-2.322 2.111-.371.981-.247 2.089.349 3.119.614 1.062 1.65 1.91 2.917 2.388 1.268.478 2.607.526 3.768.134 1.127-.38 1.952-1.13 2.322-2.111.371-.981.247-2.089-.349-3.119-.614-1.062-1.65-1.91-2.917-2.388-.7-.264-1.421-.397-2.122-.397z" fill="#785ae6"/><path d="m21.5 22.5s-2-2-1-8 8-10 16-8 11 10 6 18z" fill="#968cd2"/><path d="m20.5 16.5c1-6 8-10 16-8 4.945 1.236 7.971 4.767 8.387 9.171.426-5.313-2.714-9.753-8.387-11.171-8-2-15 2-16 8-.275 1.647-.318 2.983-.244 4.069.041-.63.119-1.318.244-2.069z" fill="#a99be0"/><path d="m42.5 25c-.016 0-.032-.001-.047-.002l-21-2c-.116-.012-.224-.062-.306-.145-.089-.089-2.17-2.253-1.14-8.436.451-2.707 2.076-5.101 4.576-6.739 3.28-2.149 7.668-2.755 12.038-1.664 3.863.966 6.72 3.303 8.042 6.581 1.484 3.678.867 7.999-1.74 12.169-.091.148-.252.236-.423.236zm-20.743-2.978 20.48 1.95c2.297-3.809 2.831-7.705 1.5-11.003-1.2-2.973-3.813-5.099-7.357-5.984-4.103-1.025-8.201-.469-11.248 1.529-2.264 1.484-3.733 3.639-4.138 6.067-.803 4.815.396 6.928.763 7.441z" fill="#785ae6"/><path d="m21.5 13.5v14c0 3.866 3.134 7 7 7h5c3.314 0 6-2.686 6-6h2c1.657 0 3-1.343 3-3v-1c0-1.657-1.343-3-3-3h-2v-8z" fill="#ffc8d2"/><path d="m40.5 19.5s-1 3-2 4-2-3-3-6-5-3-8-3-6 0-6 3v-4h18z" fill="#968cd2"/><g fill="#785ae6"><path d="m31.5 35h-3c-4.136 0-7.5-3.364-7.5-7.5v-10c0-.276.224-.5.5-.5s.5.224.5.5v10c0 3.584 2.916 6.5 6.5 6.5h3c.276 0 .5.224.5.5s-.224.5-.5.5z"/><path d="m31.5 26c-.276 0-.5-.224-.5-.5v-3c0-.276.224-.5.5-.5s.5.224.5.5v3c0 .276-.224.5-.5.5z"/><path d="m23.5 26c-.276 0-.5-.224-.5-.5v-3c0-.276.224-.5.5-.5s.5.224.5.5v3c0 .276-.224.5-.5.5z"/><path d="m26.5 28c-1.739 0-2.892-1.292-2.892-2.146 0-.242.088-.461.249-.615.112-.11.315-.239.643-.239.289 0 1.034-1.186 1.526-2.658.087-.261.371-.406.632-.316.262.088.403.371.316.633-.321.964-1.173 3.155-2.327 3.331.042.094.123.223.258.363.188.194.719.647 1.595.647.276 0 .5.224.5.5s-.224.5-.5.5z"/><path d="m28.5 31c-2.472 0-2.5-1.438-2.5-1.5 0-.276.224-.5.5-.5.268 0 .487.211.5.476.028.183.376.524 1.5.524 2.23 0 2.506-.565 2.508-.571 0-.276.22-.465.496-.465s.496.26.496.536c0 .352-.252 1.5-3.5 1.5zm-1.5-1.5h.01z"/><path d="m31.5 24.041c-.125 0-.25-.046-.346-.14-.199-.191-.206-.508-.014-.707l1-1.041c.192-.198.508-.207.707-.014.199.191.206.508.014.707l-1 1.041c-.099.102-.23.154-.361.154z"/><path d="m23.5 24.041c-.131 0-.262-.052-.36-.153l-1-1.041c-.191-.199-.185-.516.014-.707.198-.193.516-.185.707.014l1 1.041c.191.199.185.516-.014.707-.097.093-.222.139-.347.139z"/><path d="m34.5 22c-.209 0-.404-.133-.474-.342-.35-1.05-1.013-1.651-1.972-1.788-.738-.106-1.39.103-1.396.104-.265.088-.545-.055-.632-.316-.087-.262.054-.545.316-.633.035-.012.873-.287 1.854-.146.938.134 2.181.67 2.778 2.462.087.262-.054.545-.316.633-.053.018-.106.026-.158.026z"/></g><path d="m40.359 36.917 3 1s-2.859 8.583-2.859 15.583 0 9 0 9h-3.174s-.826-3-.826-9 3.859-16.583 3.859-16.583z" fill="#ffe885"/><path d="m37.5 62.5h3s0-.611 0-2h-3z" fill="#f0dc78"/><path d="m28.5 37.5s-2 12-2 16 1 8 1 9h-3s-1-5-1-9 2-15 2-15z" fill="#ffe885"/><path d="m24.5 62.5h3s0-.611 0-2h-3z" fill="#f0dc78"/><path d="m42.664 40.239c.4-1.431.695-2.322.695-2.322l-3-1s-.296.812-.723 2.111z" fill="#fffa96"/><path d="m40.5 63h-3.174c-.225 0-.422-.15-.482-.367-.034-.125-.844-3.134-.844-9.133 0-6.02 3.731-16.318 3.89-16.754.093-.255.371-.39.628-.304l3 1c.262.088.403.371.316.633-.029.085-2.834 8.589-2.834 15.425v9c0 .276-.224.5-.5.5zm-2.778-1h2.278v-8.5c0-6.142 2.129-13.35 2.732-15.265l-2.065-.688c-.73 2.088-3.667 10.81-3.667 15.953 0 4.684.514 7.536.722 8.5z" fill="#f0dc78"/><path d="m28.215 39.262c.172-1.083.285-1.762.285-1.762l-3 1s-.124.683-.311 1.77z" fill="#fffa96"/><path d="m27.5 63h-3c-.238 0-.443-.168-.49-.402-.042-.206-1.01-5.094-1.01-9.098 0-3.999 1.926-14.639 2.008-15.09.032-.18.16-.327.333-.385l3-1c.166-.053.35-.02.483.095.133.113.197.289.168.462-.019.12-1.992 12.005-1.992 15.918 0 2.625.442 5.275.734 7.029.154.927.266 1.596.266 1.971 0 .276-.224.5-.5.5zm-2.586-1h2.04c-.046-.347-.123-.806-.207-1.307-.297-1.786-.747-4.485-.747-7.193 0-3.432 1.42-12.471 1.873-15.264l-1.933.645c-.315 1.766-1.94 11.07-1.94 14.619 0 3.258.682 7.239.914 8.5z" fill="#f0dc78"/><path d="m38.375 32.24c-.101 0-.203-.03-.291-.094-.225-.16-.276-.473-.116-.697.666-.928 1.032-1.975 1.032-2.949 0-.276.224-.5.5-.5h2c1.378 0 2.5-1.121 2.5-2.5v-1c0-1.379-1.122-2.5-2.5-2.5h-1.811c-.276 0-.5-.224-.5-.5s.224-.5.5-.5h1.811c1.93 0 3.5 1.57 3.5 3.5v1c0 1.93-1.57 3.5-3.5 3.5h-1.524c-.1 1.034-.507 2.073-1.193 3.031-.098.137-.252.209-.408.209z" fill="#785ae6"/><path d="m21.5 21.326c-.087 0-.175-.022-.256-.07-.237-.142-.314-.449-.173-.686 1.163-1.948 3.418-1.581 3.515-1.562.272.047.454.306.407.578-.047.271-.301.458-.577.407-.079-.015-1.683-.257-2.486 1.089-.095.157-.26.244-.43.244z" fill="#785ae6"/><path d="m28.5 17.5s-2-3 2-4c0 0-2.769-1.315-4 1s2 3 2 3z" fill="#968cd2"/><path d="m27.166 13.3s-3.604.363-2.576 4.356c0 0-2.797-1.791-1.589-3.744 1.206-1.953 3.418-1.319 4.165-.612z" fill="#968cd2"/><g fill="#785ae6"><path d="m28.5 18c-.034 0-.069-.004-.103-.011-.194-.041-1.917-.438-2.495-1.678-.289-.619-.236-1.308.157-2.046 1.152-2.165 3.55-1.743 4.656-1.217.191.09.304.291.283.501s-.171.384-.376.436c-1.103.275-1.783.725-2.021 1.335-.344.88.311 1.894.317 1.903.111.17.11.391-.005.558-.095.139-.25.219-.413.219zm.318-4.374c-.669 0-1.413.236-1.877 1.108-.241.453-.285.831-.133 1.154.146.312.457.559.788.74-.12-.487-.158-1.078.069-1.665.209-.54.603-.987 1.176-1.338-.008.001-.015.001-.023.001z"/><path d="m24.59 18.156c-.094 0-.188-.026-.27-.079-1.111-.711-2.905-2.552-1.746-4.428.678-1.098 1.598-1.429 2.251-1.514 1.106-.147 2.169.313 2.684.801.142.134.191.338.129.523s-.227.316-.42.337c-.013.002-1.258.146-1.907 1.084-.445.643-.525 1.535-.237 2.65.051.199-.025.409-.191.53-.087.064-.19.096-.293.096zm.654-5.048c-.096 0-.193.006-.29.019-.636.083-1.151.436-1.529 1.048-.509.823-.05 1.65.48 2.236-.016-.816.181-1.522.59-2.109.381-.547.887-.896 1.353-1.12-.192-.046-.397-.074-.604-.074z"/><path d="m52.5 10c-.048 0-.097-.007-.146-.021l-9.717-2.957c-.264-.081-.413-.36-.333-.624.081-.264.361-.414.624-.333l9.717 2.957c.264.081.413.36.333.624-.065.215-.264.354-.478.354z"/><path d="m49.5 14c-.276 0-.5-.224-.5-.5v-4.913c0-.276.224-.5.5-.5s.5.224.5.5v4.913c0 .276-.224.5-.5.5z"/></g><circle cx="49.5" cy="14.5" fill="#e678a0" r="1"/><path d="m49.5 16c-.827 0-1.5-.673-1.5-1.5s.673-1.5 1.5-1.5 1.5.673 1.5 1.5-.673 1.5-1.5 1.5zm0-2c-.276 0-.5.225-.5.5s.224.5.5.5.5-.225.5-.5-.224-.5-.5-.5z" fill="#785ae6"/><path d="m54.5 63h-37c-.276 0-.5-.224-.5-.5v-9.817c0-6.241 0-10.333 7.836-13.298l.172-.974c.033-.18.161-.328.334-.386l3-1c.166-.053.35-.02.483.095.05.043.09.094.12.15v-2.77c0-.276.224-.5.5-.5s.5.224.5.5v4c0 .229-.156.43-.379.485-.396.099-.776.199-1.146.3-.163.043-.339.003-.465-.11s-.187-.283-.16-.451l.079-.488-1.934.644-.169.96c-.031.176-.153.322-.32.384-7.451 2.731-7.451 6.156-7.451 12.373v9.403h36v-10.5c0-5.729-.493-8.873-11.07-12.22-.261-.082-.407-.359-.328-.622.049-.161.093-.303.13-.423l-2.067-.689c-.05.144-.111.317-.18.52-.086.249-.352.384-.605.32-.487-.134-.986-.268-1.506-.401-.22-.058-.374-.256-.374-.485v-5.76c0-.276.224-.5.5-.5s.5.224.5.5v5.373c.235.062.466.123.693.185.125-.354.196-.552.196-.552.093-.255.371-.39.628-.304l3 1c.262.088.403.37.316.632-.001.003-.048.146-.129.404 10.169 3.308 11.296 6.696 11.296 13.022v11c0 .276-.224.5-.5.5zm-25.556-25.117-.039.238c.013-.003.026-.007.039-.01z" fill="#785ae6"/></svg>