<svg enable-background="new 0 0 64 64" height="512" viewBox="0 0 64 64" width="512" xmlns="http://www.w3.org/2000/svg"><path d="m33.5 4.5c-7 0-16 3-16 13s-1 21.014 4 25.007 33 19.993 33 19.993h4s5.063-2.344 2-10c-2-5-5-8-5-13 0-3 1.949-5.154 1-8-2-6-6-4-7-8s1-19-16-19z" fill="#ffe885"/><path d="m50.5 62c-.059 0-.118-.01-.176-.032-.258-.097-.389-.385-.292-.644 1.13-3.014 2.678-8.286 2.021-9.601-.088-.176-.191-.375-.307-.596-1.194-2.298-3.678-7.079-2.739-12.709.816-4.896-.362-5.414-1.992-6.131-.243-.107-.49-.216-.738-.34-.247-.124-.347-.424-.224-.671s.424-.346.671-.224c.233.117.466.219.694.319 2.126.936 3.454 1.942 2.576 7.21-.884 5.302 1.497 9.883 2.641 12.084.118.227.224.431.313.61 1.067 2.133-1.664 9.56-1.979 10.399-.076.202-.267.326-.469.326z" fill="#f0dc78"/><path d="m56.5 63c-.075 0-.151-.017-.223-.053-.247-.124-.347-.424-.224-.671.019-.039 1.947-3.946 1.947-7.776 0-1.744-1.298-3.792-2.672-5.961-1.636-2.583-3.328-5.255-3.328-8.039 0-1.654.249-2.812.468-3.835.32-1.492.551-2.57-.164-4.482-.435-1.164-1.333-1.627-2.373-2.165-1.449-.749-3.09-1.597-3.797-4.427-.067-.268.096-.539.364-.606.267-.07.539.096.606.364.598 2.391 1.904 3.066 3.287 3.781 1.121.579 2.28 1.178 2.85 2.703.817 2.187.534 3.51.205 5.042-.209.974-.446 2.077-.446 3.625 0 2.494 1.613 5.041 3.173 7.503 1.454 2.295 2.827 4.463 2.827 6.497 0 4.071-1.969 8.056-2.053 8.224-.087.175-.264.276-.447.276z" fill="#f0dc78"/><path d="m17.5 19.5c0-10 9-13 16-13 17 0 15 15 16 19s5 2 7 8c.073.219.123.432.164.643.143-.843.148-1.705-.164-2.643-2-6-6-4-7-8s1-19-16-19c-7 0-16 3-16 13 0 3.161-.099 6.423-.078 9.533.016-2.491.078-5.044.078-7.533z" fill="#fffa96"/><path d="m58.5 63h-4c-.087 0-.172-.023-.248-.066-1.145-.654-28.091-16.065-33.064-20.036-4.476-3.574-4.356-12.074-4.229-21.072.02-1.447.041-2.897.041-4.326 0-6.526 4.334-13.5 16.5-13.5 14.681 0 15.638 10.882 16.152 16.729.096 1.092.179 2.035.333 2.65.402 1.608 1.335 2.106 2.516 2.737 1.48.79 3.322 1.773 4.473 5.226.605 1.816.127 3.381-.335 4.895-.314 1.029-.639 2.092-.639 3.263 0 3.185 1.263 5.521 2.726 8.227.763 1.412 1.553 2.873 2.239 4.588 3.202 8.004-2.199 10.614-2.254 10.639-.067.03-.138.046-.211.046zm-3.867-1h3.747c.65-.354 4.305-2.692 1.656-9.314-.665-1.662-1.44-3.096-2.19-4.483-1.464-2.708-2.846-5.265-2.846-8.703 0-1.32.347-2.457.683-3.555.455-1.488.847-2.774.343-4.287-1.025-3.075-2.535-3.881-3.996-4.661-1.232-.657-2.505-1.337-3.015-3.376-.173-.691-.259-1.671-.359-2.805-.52-5.915-1.391-15.816-15.156-15.816-7.493 0-15.5 3.284-15.5 12.5 0 1.434-.021 2.888-.041 4.34-.118 8.362-.24 17.008 3.853 20.277 4.751 3.794 30.855 18.758 32.821 19.883z" fill="#785ae6"/><path d="m46.5 39.5s2 1 4 2 4 2 4 10 0 11 0 11h-37s0-9 0-13c0-5 6-8 6-8z" fill="#968cd2"/><path d="m17.5 62.5h37s0-.611 0-2h-37z" fill="#8d7bd4"/><path d="m47.5 63c-.276 0-.5-.224-.5-.5v-13c0-.276.224-.5.5-.5s.5.224.5.5v13c0 .276-.224.5-.5.5z" fill="#8d7bd4"/><path d="m50.5 41.5c-2-1-4-2-4-2l-23 2s-6 3-6 8v2c0-5 6-8 6-8l23-2s2 1 4 2 4 2 4 10c0-.633 0-1.29 0-2 0-8-2-9-4-10z" fill="#a99be0"/><path d="m21.5 63c-.276 0-.5-.224-.5-.5 0-.904-.49-2.129-.964-3.314-.51-1.273-1.036-2.59-1.036-3.686 0-2.072 1.953-6.978 2.036-7.186.103-.257.396-.381.65-.279.256.103.381.394.279.65-.02.05-1.965 4.934-1.965 6.815 0 .904.49 2.129.964 3.314.51 1.273 1.036 2.59 1.036 3.686 0 .276-.224.5-.5.5z" fill="#8d7bd4"/><path d="m30.5 62.5h7l3-14-4-4-3 3-4-4-1 2z" fill="#f0f0e6"/><path d="m30.265 60.5.235 2h7l.429-2z" fill="#dcdcd2"/><path d="m33.5 55c-.276 0-.5-.224-.5-.5v-7c0-.276.224-.5.5-.5s.5.224.5.5v7c0 .276-.224.5-.5.5z" fill="#dcdcd2"/><path d="m30.445 32.5v11l1.77 3 1.23 1 6.055-6v-11.76z" fill="#ffb4be"/><path d="m21.5 13.5v14c0 3.866 3.134 7 7 7h5c3.314 0 6-2.686 6-6h2c1.657 0 3-1.343 3-3v-1c0-1.657-1.343-3-3-3h-2v-8z" fill="#ffc8d2"/><path d="m21.5 18.841c1-3.239 3-4.319 3-4.319s4 6.478 11 6.478c0 0 1-4.239-2-7.478l-12-.296z" fill="#ffb4be"/><path d="m37.088 16.279c-2.134-.932-2.588-1.891-2.588-1.891l-1-.888h9.188v8l-3.188-.142-1.05-1.938-.11-1.08z" fill="#ffe885"/><path d="m40.5 20c-.052 0-.105-.008-.158-.026-3.243-1.081-3.726-3.503-3.745-3.605-.05-.271.129-.532.401-.583.271-.053.53.127.582.397.017.083.422 1.957 3.078 2.842.262.087.403.37.316.632-.07.211-.265.343-.474.343z" fill="#f0dc78"/><path d="m40.5 22c-.052 0-.105-.008-.158-.026-1.203-.401-1.984-1.015-2.323-1.825-.41-.981.014-1.863.032-1.9.123-.248.424-.349.669-.228.247.122.349.418.23.666-.011.024-.243.533-.004 1.089.226.526.802.947 1.711 1.25.262.087.403.37.316.632-.069.21-.264.342-.473.342z" fill="#f0dc78"/><path d="m41.5 29c-.276 0-.5-.224-.5-.5s.224-.5.5-.5c1.378 0 2.5-1.122 2.5-2.5v-1c0-1.378-1.122-2.5-2.5-2.5h-1.811c-.276 0-.5-.224-.5-.5s.224-.5.5-.5h1.811c1.93 0 3.5 1.57 3.5 3.5v1c0 1.93-1.57 3.5-3.5 3.5z" fill="#785ae6"/><path d="m41.5 29h-2c-.276 0-.5-.224-.5-.5s.224-.5.5-.5h2c.276 0 .5.224.5.5s-.224.5-.5.5z" fill="#785ae6"/><path d="m21.5 17.5c1-3 3-4 3-4s4 6 11 6c0 0 1-3-2-6l-12-.274z" fill="#ffe885"/><g fill="#785ae6"><path d="m33.5 35h-5c-4.136 0-7.5-3.364-7.5-7.5v-10c0-.276.224-.5.5-.5s.5.224.5.5v10c0 3.584 2.916 6.5 6.5 6.5h5c.276 0 .5.224.5.5s-.224.5-.5.5z"/><path d="m23.5 26h-4c-.276 0-.5-.224-.5-.5v-5c0-.276.224-.5.5-.5s.5.224.5.5v4.5h3.5c.276 0 .5.224.5.5s-.224.5-.5.5z"/><path d="m34.5 26h-6c-.276 0-.5-.224-.5-.5v-3c0-.276.224-.5.5-.5s.5.224.5.5v2.5h5v-2.5c0-.276.224-.5.5-.5h5c.276 0 .5.224.5.5s-.224.5-.5.5h-4.5v2.5c0 .276-.224.5-.5.5z"/><path d="m31.5 25c-.276 0-.5-.224-.5-.5v-3c0-.276.224-.5.5-.5s.5.224.5.5v3c0 .276-.224.5-.5.5z"/><path d="m23.5 25c-.276 0-.5-.224-.5-.5v-3c0-.276.224-.5.5-.5s.5.224.5.5v3c0 .276-.224.5-.5.5z"/><path d="m39.5 36.702c-.276 0-.5-.224-.5-.5v-7.462c0-.276.224-.5.5-.5s.5.224.5.5v7.462c0 .277-.224.5-.5.5z"/><path d="m30.5 37c-.276 0-.5-.224-.5-.5v-2c0-.276.224-.5.5-.5s.5.224.5.5v2c0 .276-.224.5-.5.5z"/><path d="m26.5 28c-1.739 0-2.892-1.292-2.892-2.146 0-.243.088-.461.249-.616.112-.109.315-.238.643-.238.289 0 1.034-1.186 1.526-2.658.087-.262.371-.404.632-.316.262.087.403.37.316.632-.321.964-1.173 3.155-2.327 3.331.042.094.123.223.258.363.188.195.719.648 1.595.648.276 0 .5.224.5.5s-.224.5-.5.5z"/><path d="m28.5 31c-2.472 0-2.5-1.439-2.5-1.5 0-.276.224-.5.5-.5.268 0 .487.211.5.476.028.184.376.524 1.5.524 2.23 0 2.506-.566 2.508-.572 0-.276.22-.464.496-.464s.496.26.496.536c0 .352-.252 1.5-3.5 1.5zm-1.5-1.5h.01z"/><path d="m31.5 23.041c-.125 0-.25-.046-.346-.14-.199-.191-.206-.508-.014-.707l1-1.041c.192-.2.508-.206.707-.014.199.191.206.508.014.707l-1 1.041c-.099.103-.23.154-.361.154z"/><path d="m23.5 23.041c-.131 0-.262-.051-.36-.154l-1-1.041c-.191-.199-.185-.516.014-.707.198-.191.516-.186.707.014l1 1.041c.191.199.185.516-.014.707-.097.094-.222.14-.347.14z"/><path d="m34.5 21c-.209 0-.404-.132-.474-.342-.35-1.05-1.013-1.651-1.972-1.788-.738-.107-1.39.102-1.396.104-.265.087-.545-.054-.632-.316s.054-.545.316-.632c.035-.013.873-.286 1.854-.146.938.134 2.181.67 2.778 2.462.087.262-.054.545-.316.632-.053.018-.106.026-.158.026z"/><path d="m21.5 20.326c-.087 0-.176-.023-.256-.071-.237-.142-.314-.449-.173-.686 1.163-1.947 3.418-1.579 3.515-1.562.272.047.454.307.407.579-.047.271-.301.455-.577.407-.079-.013-1.683-.256-2.486 1.089-.095.157-.26.244-.43.244z"/></g><path d="m33.5 47.5 2-5 5-8 2 2-2 12-3.293-3.293c-.391-.391-1.024-.391-1.414 0z" fill="#f0f0e6"/><path d="m40.5 49c-.128 0-.256-.049-.354-.146l-3.293-3.293c-.195-.195-.512-.195-.707 0l-2.293 2.293c-.195.195-.512.195-.707 0s-.195-.512 0-.707l2.293-2.293c.585-.585 1.536-.585 2.121 0l3.293 3.293c.195.195.195.512 0 .707-.097.097-.225.146-.353.146z" fill="#dcdcd2"/><path d="m42.5 36.5 5 3 3 11-7 2 5 2-4 8h-7z" fill="#a99be0"/><path d="m37.885 60.5-.385 2h7l1-2z" fill="#968cd2"/><path d="m42.204 38.278.296-1.778-2-2-1.064 1.702z" fill="#fffffa"/><path d="m42.092 38.62 6.186 3.732-.778-2.852-5-3z" fill="#b4aaf0"/><path d="m44.5 63h-7c-.149 0-.291-.066-.385-.182-.095-.115-.134-.266-.106-.413l5-26c.031-.161.138-.296.287-.362s.321-.056.461.028l5 3c.11.066.191.173.225.297l3 11c.072.264-.082.537-.345.612l-5.594 1.598 3.642 1.457c.13.052.232.156.282.287s.042.276-.02.401l-4 8c-.085.17-.258.277-.447.277zm-6.395-1h6.085l3.619-7.238-4.495-1.798c-.199-.08-.325-.276-.314-.49s.157-.396.362-.456l6.525-1.864-2.817-10.33-4.214-2.528z" fill="#8d7bd4"/><path d="m47.657 40.579c-.22 0-.421-.146-.482-.369l-.105-.385-4.828-2.896c-.237-.142-.313-.449-.171-.686s.448-.314.686-.171l5 3c.11.066.191.173.225.297l.158.579c.073.267-.084.541-.351.614-.044.012-.088.017-.132.017z" fill="#785ae6"/><path d="m33.5 47.5-3.094-3.094c-.46-.46-1.23-.365-1.565.193l-2.341 3.901s0-7 1-9 3-2.986 3-2.986 0 8.986 3 10.986z" fill="#f0f0e6"/><path d="m26.5 49c-.087 0-.176-.023-.257-.071-.237-.142-.313-.449-.171-.686l2.341-3.902c.24-.399.642-.66 1.104-.717.458-.058.916.099 1.244.428l3.094 3.094c.195.195.195.512 0 .707s-.512.195-.707 0l-3.094-3.094c-.109-.109-.26-.159-.415-.143-.154.019-.289.106-.368.239l-2.341 3.902c-.095.157-.261.243-.43.243z" fill="#dcdcd2"/><path d="m27.5 41.5c1-2 3-2.986 3-2.986v-2s-2 .986-3 2.986-1 9-1 9l.044-.073c.08-2.23.307-5.628.956-6.927z" fill="#fffffa"/><path d="m26.5 49c-.276 0-.5-.224-.5-.5 0-.291.012-7.142 1.053-9.224 1.063-2.126 3.138-3.167 3.226-3.21.248-.123.546-.021.669.227.122.247.021.547-.226.67-.019.009-1.866.943-2.774 2.761-.778 1.554-.948 6.862-.948 8.776 0 .276-.224.5-.5.5z" fill="#785ae6"/><path d="m27.803 38.968 2.697 23.532h-4.774l-3.226-9 3-1-4-2 2-9z" fill="#a99be0"/><path d="m25.009 60.5.717 2h4.774l-.229-2z" fill="#968cd2"/><path d="m27.803 40.968v-2l-4.303 2.532-.477 2.147z" fill="#b4aaf0"/><path d="m30.5 63h-4.774c-.211 0-.399-.133-.471-.331l-3.226-9c-.045-.127-.038-.267.021-.388s.164-.213.292-.255l1.855-.619-2.92-1.46c-.205-.103-.314-.332-.265-.556l2-9c.03-.135.115-.252.235-.323l4.303-2.532c.146-.085.326-.092.477-.016.151.075.254.222.273.39l2.697 23.532c.017.142-.029.284-.124.39-.095.107-.23.168-.373.168zm-4.422-1h3.861l-2.545-22.211-3.453 2.032-1.868 8.407 3.651 1.825c.181.09.29.281.275.483-.014.202-.148.375-.34.438l-2.515.838z" fill="#8d7bd4"/><g fill="#785ae6"><path d="m42.5 37c-.128 0-.256-.049-.354-.146l-1.543-1.543-.672 1.145c-.14.237-.446.318-.685.178-.238-.14-.317-.446-.178-.685l1-1.702c.079-.133.214-.223.368-.243.157-.019.308.033.417.143l2 2c.195.195.195.512 0 .707-.097.097-.225.146-.353.146z"/><path d="m23.5 42c-.171 0-.338-.088-.432-.247-.14-.238-.061-.544.178-.685l4.303-2.532c.238-.14.544-.061.685.178.14.238.061.544-.178.685l-4.303 2.532c-.079.047-.167.069-.253.069z"/><path d="m54.5 63h-37c-.276 0-.5-.224-.5-.5v-13c0-5.249 6.02-8.319 6.276-8.447.248-.122.547-.023.67.224.124.247.024.547-.223.671-.056.028-5.723 2.925-5.723 7.552v12.5h36v-10.5c0-7.691-1.809-8.595-3.724-9.553l-2.895-1.447c-.247-.124-.347-.424-.224-.671.124-.247.423-.347.671-.224l2.896 1.448c2.102 1.051 4.276 2.138 4.276 10.447v11c0 .276-.224.5-.5.5z"/></g><path d="m41.5 18c-.027 0-.055-.002-.083-.007-6.148-1.024-8.252-4.2-8.338-4.334-.149-.232-.082-.542.15-.691.232-.15.541-.083.69.149.038.057 2.014 2.949 7.662 3.89.272.045.457.303.411.575-.039.245-.251.418-.492.418z" fill="#f0dc78"/></svg>