<svg enable-background="new 0 0 64 64" height="512" viewBox="0 0 64 64" width="512" xmlns="http://www.w3.org/2000/svg"><path d="m43.5 37.5s5 2 9 5 4 7 4 12 0 8 0 8h-43s0-4 0-8 0-10 4-12 6-3 6-3z" fill="#ffe885"/><path d="m13.5 62.5h43s0-.708 0-2h-43z" fill="#f0dc78"/><path d="m38.5 35.912v-2.172l-9.055 2.76v1.305l-6.945 2.695 1.63 7.334c.166.746 1.073 1.038 1.643.529l5.44-4.863h.287l7.005 5.253c.511.383 1.246.196 1.51-.386l4.485-9.867z" fill="#f0dc78"/><path d="m28.5 43.5 1 6h5l1.395-5.253-4.395-2.747z" fill="#fa8cb4"/><path d="m35.895 44.247-4.395-2.747-3 2 .352 2.11 2.36-2.11h.288l3.83 2.873z" fill="#e678a0"/><path d="m52.5 42.5c-4-3-9-5-9-5l-20 2s-2 1-6 3-4 8-4 12v2c0-4 0-10 4-12s7-3 7-3l18-2s6 2 10 5 4 7 4 12c0-.626 0-1.29 0-2 0-5 0-9-4-12z" fill="#fffa96"/><path d="m25.625 39.288-3.125 1.212.357 1.609c1.032-.405 1.643-.609 1.643-.609l18-2s.513.172 1.326.484l.674-1.484-2.07-.893z" fill="#ffe885"/><path d="m40.126 18.5c-.457 2.069-1.332 5-2.626 5-2 0-2-6-2-6s-8 0-10 0c-.665 0-2.169.196-3.565.131-2.995-.138-6.435-2.126-6.435-6.131 0-6 2-8 3-7s3 3 4 3c0 0-1.581-2.419 0-4 1-1 3 4 7 4s15-1 15 6-2 12-2 15-1.387 2.911-4.193 2.911z" fill="#968cd2"/><path d="m42.431 27.5c-.297 1.898-1.572 1.913-3.842 1.911l-.282 2c2.807 0 4.193.089 4.193-2.911 0-.308.033-.65.07-1z" fill="#8d7bd4"/><path d="m35.5 16.5c0-.552-.448-1-1-1h-9c-.665 0-2.169.196-3.565.131-2.816-.13-6.024-1.896-6.398-5.436-.022.415-.037.844-.037 1.305 0 4.005 3.44 5.992 6.435 6.131 1.396.065 2.9-.131 3.565-.131h10z" fill="#8d7bd4"/><path d="m22.5 5.5c1-1 3 4 7 4 3.859 0 14.228-.928 14.956 5.29.015-.43.044-.844.044-1.29 0-7-11-6-15-6s-6-5-7-4c-.866.866-.782 1.981-.53 2.815.11-.284.276-.561.53-.815z" fill="#a99be0"/><path d="m18.5 6.5c1 1 3 3 4 3 0 0-.684-1.055-.698-2.226-1.057-.539-2.499-1.971-3.302-2.774-1-1-3 1-3 7 0 .196.031.368.047.552.294-4.863 2.039-6.466 2.953-5.552z" fill="#a99be0"/><path d="m29.445 34.5v7h.055 9v-10.76z" fill="#c88c5a"/><path d="m21.5 17.5v11c0 3.314 2.686 6 6 6h5c3.866 0 7-3.134 7-7v-1h2c1.657 0 3-1.343 3-3v-2c0-1.657-1.343-3-3-3h-2l-3-1z" fill="#e1a271"/><g fill="#785ae6"><path d="m23.5 25c-.276 0-.5-.224-.5-.5v-3c0-.276.224-.5.5-.5s.5.224.5.5v3c0 .276-.224.5-.5.5z"/><path d="m22 27c-2.206 0-4-1.794-4-4 0-.276.224-.5.5-.5s.5.224.5.5c0 1.654 1.346 3 3 3 .382 0 .755-.071 1.107-.211.256-.102.547.024.649.281.102.256-.023.547-.28.649-.471.186-.967.281-1.476.281z"/><path d="m33.5 21c-.128 0-.256-.049-.354-.146-2.586-2.585-4.228-1.062-4.296-.997-.197.192-.513.188-.706-.008-.191-.196-.192-.508.002-.702.023-.023 2.394-2.314 5.707 1 .195.195.195.512 0 .707-.097.097-.225.146-.353.146z"/><path d="m24.5 20c-.127 0-.254-.048-.352-.145-.112-.108-1.126-1.035-2.344-.083-.215.169-.532.132-.701-.086-.171-.217-.132-.532.086-.702 1.556-1.216 3.077-.425 3.664.162.195.195.195.512 0 .707-.097.098-.225.147-.353.147z"/></g><path d="m40.126 18.5c-.457 2.069-1.332 5-2.626 5-2 0-2-7-2-7z" fill="#968cd2"/><g fill="#785ae6"><path d="m41.5 27h-2c-.276 0-.5-.224-.5-.5s.224-.5.5-.5h2c1.379 0 2.5-1.122 2.5-2.5v-2c0-1.378-1.121-2.5-2.5-2.5h-1c-.276 0-.5-.224-.5-.5s.224-.5.5-.5h1c1.93 0 3.5 1.57 3.5 3.5v2c0 1.93-1.57 3.5-3.5 3.5z"/><path d="m32.5 35h-5c-3.584 0-6.5-2.916-6.5-6.5v-11c0-.276.224-.5.5-.5s.5.224.5.5v11c0 3.033 2.468 5.5 5.5 5.5h5c.276 0 .5.224.5.5s-.224.5-.5.5z"/><path d="m30.5 31h-5c-.276 0-.5-.224-.5-.5s.224-.5.5-.5h5c.402 0 .494-.275.5-.506.007-.273.245-.452.506-.491.274.004.494.224.494.497 0 .603-.399 1.5-1.5 1.5z"/><path d="m25.5 28c-1.153 0-2.5-.393-2.5-1.5 0-1.064 1.71-4.538 2.053-5.224.124-.248.425-.345.671-.224.247.124.347.424.224.671-.809 1.618-1.948 4.169-1.948 4.777 0 .301.902.5 1.5.5.276 0 .5.224.5.5s-.224.5-.5.5z"/><path d="m30.5 25c-.276 0-.5-.224-.5-.5v-3c0-.276.224-.5.5-.5s.5.224.5.5v3c0 .276-.224.5-.5.5z"/><path d="m38.771 31.911c-.074 0-.15 0-.228 0h-.236c-.276 0-.5-.224-.5-.5s.224-.5.5-.5h.237c1.221.002 2.185.002 2.729-.299.36-.199.727-.605.727-2.112 0-.582.068-1.258.216-2.13.046-.273.31-.452.576-.41.272.046.456.304.41.577-.138.815-.202 1.439-.202 1.963 0 1.59-.384 2.512-1.243 2.987-.73.403-1.686.424-2.986.424z"/><path d="m44.004 20.192c-.025 0-.052-.002-.077-.006-.273-.042-.46-.297-.418-.57.33-2.14.491-4.14.491-6.116 0-1.324-.415-2.375-1.269-3.21-2.56-2.506-8.37-2.384-11.847-2.31-.518.01-.986.02-1.384.02-2.566 0-4.36-1.869-5.547-3.105-.405-.422-.96-1-1.16-1.027-1.211 1.257.071 3.274.126 3.36.1.154.107.35.02.511-.087.16-.255.261-.439.261-1.114 0-2.831-1.624-4.354-3.146-.105-.104-.197-.125-.334-.068-.728.301-1.812 2.338-1.812 6.714 0 2.77 1.88 4.519 5.587 5.199.272.05.452.31.402.582-.051.272-.316.451-.582.401-4.191-.768-6.407-2.906-6.407-6.182 0-4.896 1.309-7.174 2.43-7.639.513-.212 1.031-.107 1.424.285.496.496 1.703 1.703 2.653 2.378-.308-.964-.43-2.309.64-3.378.183-.183.407-.279.651-.279h.01c.592.006 1.126.563 1.867 1.334 1.133 1.182 2.685 2.799 4.825 2.799.393 0 .853-.01 1.364-.021 3.627-.077 9.706-.205 12.566 2.596 1.042 1.02 1.57 2.34 1.57 3.925 0 2.027-.164 4.078-.503 6.269-.038.247-.251.423-.493.423z"/><path d="m56.5 63h-43c-.276 0-.5-.224-.5-.5v-8c0-4.105 0-10.309 4.276-12.447l6-3 5.668-3.525v-1.028c0-.276.224-.5.5-.5s.5.224.5.5v1.305c0 .173-.089.333-.236.425l-5.944 3.695-6.04 3.022c-3.724 1.862-3.724 7.694-3.724 11.553v7.5h42v-7.5c0-4.889 0-8.75-3.8-11.6-3.898-2.924-8.837-4.916-8.886-4.936-.038-.015-.073-.035-.106-.058l-5-3.588c-.131-.094-.208-.245-.208-.406v-2.172c0-.276.224-.5.5-.5s.5.224.5.5v1.915l4.743 3.404c.595.242 5.233 2.173 9.057 5.041 4.2 3.15 4.2 7.437 4.2 12.4v8c0 .276-.224.5-.5.5z"/><path d="m29.444 36c-.276 0-.5-.224-.5-.5v-1c0-.276.224-.5.5-.5s.5.224.5.5v1c0 .276-.223.5-.5.5z"/></g><path d="m29.5 49.5-2.028 13h9.028l-2-13z" fill="#fa8cb4"/><path d="m27.784 60.5-.312 2h9.028l-.308-2z" fill="#e678a0"/><path d="m46.5 63c-.276 0-.5-.224-.5-.5v-12c0-.276.224-.5.5-.5s.5.224.5.5v12c0 .276-.224.5-.5.5z" fill="#f0dc78"/><path d="m17.5 63c-.276 0-.5-.224-.5-.5v-11c0-.276.224-.5.5-.5s.5.224.5.5v11c0 .276-.224.5-.5.5z" fill="#f0dc78"/><path d="m29.444 36c-.276 0-.5-.224-.5-.5v-1c0-.276.224-.5.5-.5s.5.224.5.5v1c0 .276-.223.5-.5.5z" fill="#785ae6"/><path d="m31.5 41.5 8 5 4-9-5-3.588z" fill="#ffe885"/><path d="m38.5 33.912-1.368 1.483 5.368 4.105 1-2z" fill="#fffa96"/><path d="m31.5 41.5-2.055-5.695-5.945 3.695 2 7z" fill="#ffe885"/><path d="m30.098 37.601-.653-1.796-5.945 3.695.489 1.711z" fill="#fffa96"/><path d="m56.5 63h-43c-.276 0-.5-.224-.5-.5v-8c0-4.105 0-10.309 4.276-12.447l6-3 5.904-3.672c.234-.144.543-.074.688.161s.073.543-.161.689l-5.944 3.695-6.04 3.022c-3.723 1.861-3.723 7.693-3.723 11.552v7.5h42v-7.5c0-4.889 0-8.75-3.8-11.6-3.898-2.924-8.837-4.916-8.886-4.936-.038-.015-.073-.035-.106-.058l-4.641-3.331-3.854 4.179c-.188.203-.503.216-.706.029s-.216-.504-.028-.707l4.154-4.504c.171-.187.454-.215.659-.067l4.951 3.554c.595.242 5.233 2.173 9.057 5.041 4.2 3.15 4.2 7.437 4.2 12.4v8c0 .276-.224.5-.5.5z" fill="#785ae6"/><path d="m34.808 51.5-.308-2h-5l-.312 2z" fill="#e678a0"/><circle cx="26" cy="43" fill="#f0f0e6" r="1"/><circle cx="39" cy="43" fill="#f0f0e6" r="1"/><path d="m31 27c-2.206 0-4-1.794-4-4 0-.276.224-.5.5-.5s.5.224.5.5c0 1.654 1.346 3 3 3s3-1.346 3-3c0-.276.224-.5.5-.5h2.582c.276 0 .5.224.5.5s-.224.5-.5.5h-2.113c-.247 1.97-1.933 3.5-3.969 3.5z" fill="#785ae6"/></svg>