<svg enable-background="new 0 0 64 64" height="512" viewBox="0 0 64 64" width="512" xmlns="http://www.w3.org/2000/svg"><path d="m40.481 33.553c1.915.698 4.967 1 8.019-2.053 0 0-3-2-2-8s3-20-15-18c0 0-8-1-11 4s-3 9-2 14-1 7-2 8c0 0 4 5 10 1h11.47z" fill="#aad2ff"/><path d="m38.5 28.5v9.254h.001c14.999 3.876 15.999 6.895 15.999 13.746v11h-37s0-5.505 0-9.818c0-7.182-.055-11.182 11.945-14.182v-4z" fill="#ffb4be"/><path d="m17.5 62.5h37s0-.611 0-2h-37z" fill="#f0a0aa"/><path d="m38.501 37.754-.001 2h.001c14.999 3.876 15.999 6.895 15.999 13.746 0-.633 0-1.29 0-2 0-6.851-1-9.87-15.999-13.746z" fill="#ffc8d2"/><path d="m29.445 40.5v-2c-12 3-11.945 7-11.945 14.182v2c0-7.182-.055-11.182 11.945-14.182z" fill="#ffc8d2"/><path d="m41.719 38.386c-.812-1.503-.219-1.886-.219-2.886 0-1.572-1.396-2.463-3-2.883v3.688c-1.611.67-4.826 1.195-7 1.195-.961 0-1.612-.103-2.055-.242v-2.758h-.188c-2.308 1.244-2.756 2.34-2.756 3v1.833s-3 5.167-5 9.167c0 0-2 5-2 7s2 5 2 7h24v-10.011c-3.001-3.01-3.782-14.103-3.782-14.103z" fill="#f0dc78"/><path d="m45.5 63h-24c-.276 0-.5-.224-.5-.5 0-.903-.49-2.129-.964-3.314-.51-1.273-1.036-2.589-1.036-3.686 0-2.072 1.953-6.978 2.036-7.186 2.001-4.006 5.002-9.181 5.032-9.232.138-.239.444-.321.684-.182.239.139.32.445.182.684-.03.052-3.016 5.2-4.985 9.14-.004.01-1.949 4.895-1.949 6.776 0 .903.49 2.129.964 3.314.434 1.085.88 2.201 1.003 3.186h23.033v-9.312c-2.976-3.295-3.748-13.814-3.779-14.268-.02-.275.188-.515.463-.534.283-.031.514.188.534.464.008.109.802 10.941 3.636 13.786.094.094.146.221.146.353v10.011c0 .276-.224.5-.5.5z" fill="#dcc864"/><path d="m21.067 60.5c.248.719.433 1.406.433 2h24v-2z" fill="#dcc864"/><path d="m26.5 39.833c-.276 0-.5-.224-.5-.5v-1.833c0-.802.488-2.031 2.813-3.333.24-.135.546-.049.681.192s.049.546-.192.681c-2.003 1.121-2.302 2.022-2.302 2.46v1.833c0 .276-.224.5-.5.5z" fill="#785ae6"/><path d="m41.72 38.886c-.178 0-.35-.095-.44-.263-.652-1.207-.506-1.86-.376-2.438.049-.223.096-.434.096-.685 0-1.489-1.629-2.144-2.601-2.401-.267-.071-.426-.345-.355-.611.071-.268.346-.429.612-.355 2.156.571 3.344 1.767 3.344 3.367 0 .361-.064.65-.122.904-.112.503-.194.865.281 1.744.131.242.041.546-.202.677-.076.041-.157.061-.237.061z" fill="#785ae6"/><path d="m31.5 38c-3.248 0-3.5-1.148-3.5-1.5 0-.276.224-.5.5-.5.254 0 .464.189.496.436.038.064.407.564 2.504.564 2.997 0 7.162-.964 7.515-1.57 0-.276.216-.465.493-.465.276 0 .493.259.493.535-.001 1.748-6.452 2.5-8.501 2.5zm-2.5-1.502v.002c0-.001 0-.001 0-.002z" fill="#dcc864"/><path d="m54.5 63h-37c-.276 0-.5-.224-.5-.5v-9.817c0-6.515 0-10.754 9.126-13.754.262-.088.545.057.631.318.086.263-.057.545-.319.631-8.438 2.774-8.438 6.302-8.438 12.706v9.416h36v-10.5c0-5.892-.551-9.129-12.372-12.62-.265-.078-.416-.356-.338-.621.079-.265.356-.414.621-.338 11.851 3.5 13.089 6.825 13.089 13.579v11c0 .276-.224.5-.5.5z" fill="#785ae6"/><path d="m31.5 5.5s-8-1-11 4c-1.744 2.907-2.47 5.477-2.579 8.101 7.762.501 20.82.53 29.189.086.093-6.334-2.242-13.672-15.61-12.187z" fill="#96bef0"/><path d="m21.915 34.547c-3.566 0-5.777-2.7-5.805-2.734-.159-.199-.143-.486.037-.666.982-.982 2.811-2.811 1.863-7.549-1.011-5.056-1.019-9.221 2.062-14.354 3.024-5.044 10.613-4.342 11.43-4.247 6.052-.664 10.471.423 13.127 3.227 4.187 4.422 2.909 12.086 2.364 15.358-.928 5.566 1.676 7.428 1.787 7.504.123.084.203.22.216.367.013.148-.038.296-.143.4-3.201 3.2-6.413 2.945-8.544 2.169l-2.003-.84c-.255-.106-.375-.399-.268-.654.106-.255.4-.374.654-.268l1.981.831c1.752.639 4.389.862 7.083-1.575-.866-.873-2.557-3.261-1.751-8.099.565-3.391 1.741-10.446-2.104-14.507-2.437-2.573-6.595-3.556-12.348-2.914-.039.004-.079.004-.117-.001-.078-.011-7.715-.897-10.51 3.761-2.928 4.88-2.928 8.698-1.938 13.646.949 4.743-.708 6.961-1.802 8.11.87.877 3.566 3.086 7.403 1.46.254-.105.548.012.655.267.107.254-.011.547-.266.655-1.102.467-2.129.653-3.063.653z" fill="#785ae6"/><path d="m21.5 13.5v14c0 3.866 3.134 7 7 7h5c3.314 0 6-2.686 6-6h2c1.657 0 3-1.343 3-3v-1c0-1.657-1.343-3-3-3h-2v-8z" fill="#ffc8d2"/><path d="m21.5 13.5v4.285c5.333.216 12.011.269 18 .158v-4.443z" fill="#ffb4be"/><path d="m38.5 21.5v-6h2v-2h-9v2.87s1 2.88 4 4.03 3 4.6 3 4.6 1.316-.758 1.813-3.5z" fill="#ffb4be"/><path d="m40.5 18.5c0 4-2 5-2 5s0-3-3-4-4-3.505-4-3.505v-2.495h9z" fill="#aad2ff"/><path d="m21.5 18.446s3.451-.816 3.942-2.535l.058-2.411h-4z" fill="#96bef0"/><g fill="#785ae6"><path d="m41.5 29h-2c-.276 0-.5-.224-.5-.5s.224-.5.5-.5h2c1.378 0 2.5-1.121 2.5-2.5v-1c0-1.379-1.122-2.5-2.5-2.5h-1.49c-.276 0-.5-.224-.5-.5s.224-.5.5-.5h1.49c1.93 0 3.5 1.57 3.5 3.5v1c0 1.93-1.57 3.5-3.5 3.5z"/><path d="m31.5 26c-.276 0-.5-.224-.5-.5v-3c0-.276.224-.5.5-.5s.5.224.5.5v3c0 .276-.224.5-.5.5z"/><path d="m23.5 26c-.276 0-.5-.224-.5-.5v-3c0-.276.224-.5.5-.5s.5.224.5.5v3c0 .276-.224.5-.5.5z"/><path d="m26.5 28c-1.739 0-2.892-1.292-2.892-2.146 0-.242.088-.461.249-.615.112-.11.315-.239.643-.239.289 0 1.034-1.186 1.526-2.658.087-.262.371-.405.632-.316.262.088.403.371.316.633-.321.964-1.173 3.155-2.327 3.331.042.094.123.223.258.363.188.194.719.647 1.595.647.276 0 .5.224.5.5s-.224.5-.5.5z"/><path d="m28.5 31c-2.472 0-2.5-1.438-2.5-1.5 0-.276.224-.5.5-.5.268 0 .487.211.5.476.028.183.376.524 1.5.524 2.23 0 2.506-.565 2.508-.571 0-.276.22-.465.496-.465s.496.26.496.536c0 .352-.252 1.5-3.5 1.5zm-1.5-1.5h.01z"/><path d="m31.5 24.041c-.125 0-.25-.046-.346-.14-.199-.191-.206-.508-.014-.707l1-1.041c.192-.197.508-.206.707-.014.199.191.206.508.014.707l-1 1.041c-.099.102-.23.154-.361.154z"/><path d="m23.5 24.041c-.131 0-.262-.052-.36-.153l-1-1.041c-.191-.199-.185-.516.014-.707.198-.192.516-.184.707.014l1 1.041c.191.199.185.516-.014.707-.097.093-.222.139-.347.139z"/><path d="m34.5 22c-.209 0-.404-.133-.474-.342-.35-1.05-1.013-1.651-1.972-1.788-.738-.106-1.39.103-1.396.104-.265.088-.545-.056-.632-.316-.087-.262.054-.545.316-.633.035-.011.873-.285 1.854-.146.938.134 2.181.67 2.778 2.462.087.262-.054.545-.316.633-.053.018-.106.026-.158.026z"/><path d="m21.5 21.326c-.087 0-.175-.022-.256-.07-.237-.142-.314-.449-.173-.686 1.163-1.948 3.418-1.581 3.515-1.562.272.047.454.306.407.578-.047.271-.301.457-.577.407-.079-.013-1.683-.257-2.486 1.089-.095.157-.26.244-.43.244z"/></g><path d="m40.5 13.5h-9v2.495s.406 1.01 1.47 2.004c2.552.002 5.108-.023 7.53-.077z" fill="#96bef0"/><path d="m46.884 11.5s8.116 1 8.116 3-43.5 2-43.5 0 7.116-3 7.116-3 1.884-10 13.884-10c14 0 14.384 10 14.384 10z" fill="#e678a0"/><path d="m12.855 15.066c2.063-1.042 5.761-1.566 5.761-1.566s1.884-10 13.884-10c14 0 14.384 10 14.384 10s4.288.532 6.629 1.591c.95-.172 1.487-.369 1.487-.591 0-2-8.116-3-8.116-3s-.384-10-14.384-10c-12 0-13.884 10-13.884 10s-7.116 1-7.116 3c0 .211.489.399 1.355.566z" fill="#fa8cb4"/><path d="m45.998 8.282c-2.374.561-6.616 1.218-13.498 1.218-6.637 0-10.512-.612-12.658-1.158-.69 1.259-1.019 2.332-1.151 2.841 1.6.579 5.303 1.317 13.809 1.317 8.341 0 12.421-.71 14.358-1.284-.058-.502-.25-1.622-.86-2.934z" fill="#f0f0e6"/><path d="m33.25 16.5c-5.708 0-11.029-.134-14.984-.376-7.266-.445-7.266-1.071-7.266-1.624 0-2.132 5.143-3.131 7.21-3.446.491-1.822 3.32-10.054 14.29-10.054 12.639 0 14.559 8.088 14.838 10.055 2.352.314 8.162 1.311 8.162 3.445 0 .495 0 2-22.25 2zm-21.22-2.154c3.011 1.502 39.384 1.504 42.434.002-.405-.888-4.208-1.929-7.642-2.352-.243-.029-.428-.231-.438-.476-.016-.388-.558-9.52-13.884-9.52-11.426 0-13.318 9.201-13.393 9.593-.04.211-.21.372-.421.402-3.053.43-6.31 1.449-6.656 2.351z" fill="#785ae6"/><path d="m33.5 35h-5c-4.136 0-7.5-3.364-7.5-7.5v-10c0-.276.224-.5.5-.5s.5.224.5.5v10c0 3.584 2.916 6.5 6.5 6.5h5c.276 0 .5.224.5.5s-.224.5-.5.5z" fill="#785ae6"/><circle cx="32" cy="23" fill="#826ec8" opacity=".5" r="3.5"/><circle cx="23" cy="23" fill="#826ec8" opacity=".5" r="3.5"/><g fill="#785ae6"><path d="m32 27c-2.206 0-4-1.794-4-4 0-.276.224-.5.5-.5s.5.224.5.5c0 1.654 1.346 3 3 3s3-1.346 3-3c0-.276.224-.5.5-.5h2.582c.276 0 .5.224.5.5s-.224.5-.5.5h-2.113c-.247 1.971-1.933 3.5-3.969 3.5z"/><path d="m23 27c-2.206 0-4-1.794-4-4 0-.276.224-.5.5-.5s.5.224.5.5c0 1.654 1.346 3 3 3 .384 0 .756-.071 1.106-.211.255-.099.547.023.649.279.103.257-.023.548-.279.65-.468.187-.965.282-1.476.282z"/></g></svg>