<svg enable-background="new 0 0 64 64" height="512" viewBox="0 0 64 64" width="512" xmlns="http://www.w3.org/2000/svg"><path d="m43.5 37.5s5 2 9 5 4 7 4 12 0 8 0 8h-43s0-4 0-8 0-10 4-12 7-3 7-3z" fill="#ffe885"/><path d="m13.5 62.5h43s0-.708 0-2h-43z" fill="#f0dc78"/><path d="m52.5 42.5c-4-3-9-5-9-5l-19 2s-3 1-7 3-4 8-4 12v2c0-4 0-10 4-12s7-3 7-3l19-2s5 2 9 5 4 7 4 12c0-.626 0-1.29 0-2 0-5 0-9-4-12z" fill="#fffa96"/><g fill="#f0dc78"><path d="m46.5 63c-.276 0-.5-.224-.5-.5v-12c0-.276.224-.5.5-.5s.5.224.5.5v12c0 .276-.224.5-.5.5z"/><path d="m17.5 63c-.276 0-.5-.224-.5-.5v-12c0-.276.224-.5.5-.5s.5.224.5.5v12c0 .276-.224.5-.5.5z"/><path d="m30.5 63c-.276 0-.5-.224-.5-.5v-12c0-.276.224-.5.5-.5s.5.224.5.5v12c0 .276-.224.5-.5.5z"/></g><path d="m29.445 34.5v9l1.555 5.5 3-5 5.5-.5v-16.76z" fill="#ffb4be"/><path d="m29.444 44c-.276 0-.5-.224-.5-.5v-9c0-.276.224-.5.5-.5s.5.224.5.5v9c0 .276-.223.5-.5.5z" fill="#785ae6"/><path d="m29.445 36.412s-3.945 1.088-4.945 4.088c-.544 1.633-1.089 3.86-1.472 5.549-.054.236.267.353.385.142.495-.887 1.19-1.691 2.087-1.691 2 0 5 6 5 6z" fill="#ffe885"/><path d="m29.585 38.281-.14-1.869s-3.945 1.088-4.945 4.088c-.084.253-.169.525-.253.802 1.676-1.372 4.051-2.477 5.338-3.021z" fill="#fffa96"/><path d="m30.5 51c-.186 0-.361-.104-.447-.276-1.189-2.377-3.388-5.724-4.553-5.724-.703 0-1.285.78-1.65 1.435-.174.312-.543.447-.875.319-.33-.126-.512-.469-.435-.814.146-.646.258-1.362.375-2.12.183-1.18.373-2.401.717-3.434 1.073-3.22 5.499-4.409 5.686-4.458.145-.037.297-.01.417.077.121.086.197.222.208.369l1.056 14.088c.018.238-.135.456-.366.52-.044.012-.089.018-.133.018zm-5-7c1.482 0 3.205 2.378 4.33 4.249l-.837-11.167c-1.16.413-3.719 1.54-4.413 3.621-.317.953-.5 2.131-.677 3.271-.046.295-.09.583-.137.866.529-.559 1.109-.84 1.734-.84z" fill="#f0dc78"/><path d="m30.5 51c-.259 0-.479-.2-.498-.462l-1.008-13.457c-.972.344-2.923 1.188-3.885 2.671-.15.231-.459.298-.691.147-.232-.15-.298-.459-.147-.691 1.518-2.341 4.906-3.243 5.049-3.28.143-.038.296-.009.417.077s.196.222.208.369l1.056 14.088c.021.275-.186.516-.461.536-.015.002-.028.002-.04.002z" fill="#785ae6"/><path d="m39.5 44c-.276 0-.5-.224-.5-.5v-16.76c0-.276.224-.5.5-.5s.5.224.5.5v16.76c0 .276-.224.5-.5.5z" fill="#785ae6"/><path d="m30.5 50.5s3-6 5-9 5-7 5-7l3 3s-.642 5.78-1.412 9.62c-.168.84-1.266 1.098-1.772.407-1.827-2.495-5.571-5.516-9.816 2.973z" fill="#ffe885"/><path d="m43.261 39.281c.149-1.068.239-1.781.239-1.781l-3-3s-.398.531-.997 1.346z" fill="#fffa96"/><path d="m30.5 51c-.075 0-.151-.017-.223-.053-.176-.087-.277-.264-.277-.447 0-.067.013-.135.042-.2.003-.008.007-.016.011-.023 0 0 .001-.002.002-.004.002-.004.004-.008.006-.013.212-.424 3.062-6.096 5.022-9.037 1.985-2.977 4.986-6.982 5.016-7.022.087-.116.22-.188.364-.199.151-.013.287.042.389.145l3 3c.107.107.16.258.144.409-.006.058-.653 5.846-1.419 9.663-.118.591-.56 1.04-1.152 1.17-.583.128-1.163-.088-1.513-.566-.863-1.178-2.231-2.556-3.833-2.418-1.694.143-3.401 1.894-5.076 5.205-.035.07-.055.109-.058.115-.086.174-.262.275-.445.275zm5.801-6.605c1.533 0 3.054.975 4.418 2.837.165.225.399.2.491.18.076-.017.328-.095.387-.39.669-3.336 1.249-8.211 1.378-9.338l-2.421-2.42c-.845 1.139-3.066 4.155-4.639 6.515-.63.945-1.366 2.202-2.075 3.474.707-.5 1.426-.782 2.156-.844.102-.01.204-.014.305-.014z" fill="#f0dc78"/><path d="m30.5 51c-.075 0-.151-.017-.223-.053-.247-.124-.347-.424-.224-.671.123-.246 3.037-6.062 5.031-9.054 1.985-2.977 4.986-6.982 5.016-7.022.087-.116.22-.188.364-.199.151-.013.287.042.389.145l3 3c.195.195.195.512 0 .707s-.512.195-.707 0l-2.591-2.591c-.845 1.139-3.066 4.155-4.639 6.515-1.959 2.939-4.939 8.887-4.969 8.946-.088.176-.264.277-.447.277z" fill="#785ae6"/><circle cx="33" cy="52" fill="#a99be0" r="1"/><circle cx="33" cy="59" fill="#a99be0" r="1"/><path d="m56.5 63h-43c-.276 0-.5-.224-.5-.5v-8c0-4.105 0-10.309 4.276-12.447 3.986-1.993 7.035-3.017 7.065-3.027.264-.087.545.054.632.316s-.054.545-.316.632c-.03.01-3.017 1.014-6.935 2.973-3.722 1.862-3.722 7.694-3.722 11.553v7.5h42v-7.5c0-4.889 0-8.75-3.8-11.6-3.898-2.924-8.836-4.916-8.886-4.936-.256-.103-.381-.394-.279-.65.103-.257.396-.382.65-.279.207.083 5.107 2.059 9.114 5.064 4.201 3.151 4.201 7.438 4.201 12.401v8c0 .276-.224.5-.5.5z" fill="#785ae6"/><path d="m21.5 18.591s-2-2.182-2-4.364 2-4.364 4-5.455c0 0 1-3.273 5-4.364s10 0 12 3.273c0 0 5 1.091 5 6.545s-3 10.909-3 10.909 0 2.182-1 3.273-3 1.091-3 1.091z" fill="#826ec8"/><path d="m23.5 10.773s1-3.273 5-4.364 10 0 12 3.273c0 0 4.475.984 4.952 5.717.029-.389.048-.78.048-1.172 0-5.455-5-6.545-5-6.545-2-3.273-8-4.364-12-3.273s-5 4.364-5 4.364c-2 1.091-4 3.273-4 5.455 0 .342.061.681.143 1.014.476-1.831 2.16-3.544 3.857-4.469z" fill="#8d7bd4"/><path d="m38.5 30c-.096 0-.189-.027-.27-.079l-17-10.909c-.036-.023-.069-.051-.099-.083-.087-.095-2.131-2.352-2.131-4.702 0-2.385 2.089-4.647 4.092-5.799.296-.767 1.589-3.496 5.276-4.501 4.157-1.133 10.219-.038 12.449 3.324.999.297 5.183 1.851 5.183 6.976 0 5.158-2.564 10.214-3.002 11.04-.018.518-.149 2.411-1.129 3.48-1.136 1.239-3.278 1.253-3.369 1.253zm-16.671-11.792 16.81 10.787c.437-.024 1.794-.161 2.493-.923.712-.778.868-2.383.868-2.936 0-.084.021-.167.062-.241.029-.053 2.938-5.41 2.938-10.668 0-4.994-4.561-6.047-4.606-6.057-.133-.029-.249-.111-.32-.228-1.85-3.028-7.567-4.108-11.442-3.051-3.691 1.006-4.644 3.998-4.653 4.027-.038.125-.124.23-.239.293-1.859 1.015-3.74 3.062-3.74 5.016 0 1.795 1.556 3.667 1.829 3.981z" fill="#785ae6"/><path d="m40.5 18.5h1c1.657 0 3 1.343 3 3v2c0 1.657-1.343 3-3 3h-2v1c0 3.866-3.134 7-7 7h-5c-3.314 0-6-2.686-6-6v-11s0-3 3-5c0 0 0 3 3 3s5-3 7-3 5 2 4 4-2 4-1 5c2 2 3-3 3-3z" fill="#ffc8d2"/><g fill="#785ae6"><path d="m23.5 24c-.276 0-.5-.224-.5-.5v-2c0-.276.224-.5.5-.5s.5.224.5.5v2c0 .276-.224.5-.5.5z"/><path d="m31.5 31h-5c-.276 0-.5-.224-.5-.5s.224-.5.5-.5h5c.276 0 .5.224.5.5s-.224.5-.5.5z"/><path d="m32.5 35h-5c-3.584 0-6.5-2.916-6.5-6.5v-10.336c0-.276.224-.5.5-.5s.5.224.5.5v10.336c0 3.033 2.467 5.5 5.5 5.5h5c3.584 0 6.5-2.916 6.5-6.5v-1c0-.276.224-.5.5-.5h2c1.378 0 2.5-1.122 2.5-2.5v-2c0-1.378-1.122-2.5-2.5-2.5h-1c-.276 0-.5-.224-.5-.5s.224-.5.5-.5h1c1.93 0 3.5 1.57 3.5 3.5v2c0 1.93-1.57 3.5-3.5 3.5h-1.5v.5c0 4.136-3.364 7.5-7.5 7.5z"/><path d="m25.5 27c-1.153 0-2.5-.393-2.5-1.5 0-1.064 1.71-4.538 2.053-5.224.124-.247.423-.346.671-.224.247.124.347.424.224.671-.809 1.618-1.948 4.169-1.948 4.777 0 .301.903.5 1.5.5.276 0 .5.224.5.5s-.224.5-.5.5z"/><path d="m30.5 24c-.276 0-.5-.224-.5-.5v-2c0-.276.224-.5.5-.5s.5.224.5.5v2c0 .276-.224.5-.5.5z"/><path d="m33.5 21c-.128 0-.256-.049-.354-.146-2.588-2.586-4.228-1.062-4.296-.997-.198.191-.514.188-.706-.008s-.192-.508.001-.702c.023-.023 2.391-2.316 5.707 1 .195.195.195.512 0 .707-.096.097-.224.146-.352.146z"/><path d="m24.5 20c-.127 0-.255-.048-.353-.145-.116-.114-1.127-1.032-2.342-.082-.22.169-.533.13-.702-.086-.17-.218-.131-.532.086-.702 1.555-1.216 3.077-.426 3.664.162.195.195.195.512 0 .707-.097.097-.225.146-.353.146z"/></g><path d="m31.5 35.5h3c2.761 0 5-2.239 5-5v-3.348c-1.004 0-2.916 2.627-4.008 3.848-1.091 1.221-.992.477-.992-.493 0-1.94-3.604-2.506-6.838-2.506s-3.92 1.01-3.92 2.506.394 1.536-.242.93-.94-4.042-2.003-4.042l.001 3.107c.001 2.761 2.239 4.998 5 4.998zm-.659-1.92c-.977-.109-.869-1.097-.869-1.58s-3.441-.529-3.441 0c0 .76-.211 1.409-1.214 1.363-.614-.029-.47-1.363-.47-1.363 0-1.605-.231-2.655 2.653-2.655s5.789.486 5.789 1.655-.644 2.78-2.448 2.58z" fill="#826ec8"/><path d="m31.5 36h-5.001c-3.032 0-5.5-2.467-5.5-5.499l-.001-3.106c0-.276.224-.5.5-.5s.5.224.5.5l.001 3.106c0 2.48 2.019 4.499 4.5 4.499h5.001c.276 0 .5.224.5.5s-.224.5-.5.5z" fill="#785ae6"/><path d="m38.278 24.313c-1.058 0-1.788-.613-2.09-.924-.193-.198-.188-.515.01-.707.198-.193.516-.188.707.01.378.389 1.016.799 1.916.541.269-.075.543.077.619.342.077.266-.077.542-.342.619-.291.084-.565.119-.82.119z" fill="#826ec8"/><path d="m37.769 26.059c-1.053 0-1.62-.551-1.65-.581-.195-.195-.195-.512 0-.707.193-.193.506-.195.701-.006.033.03.572.5 1.651.186.269-.08.543.074.621.338.078.265-.074.543-.338.621-.365.107-.694.149-.985.149z" fill="#826ec8"/></svg>