<svg enable-background="new 0 0 64 64" height="512" viewBox="0 0 64 64" width="512" xmlns="http://www.w3.org/2000/svg"><path d="m19.5 26.5v22h29s0-19 0-27-2-16-13-16z" fill="#e678a0"/><path d="m48.5 49h-29c-.276 0-.5-.224-.5-.5v-22c0-.109.036-.216.103-.303l16-21c.094-.124.241-.197.397-.197 12.101 0 13.5 9.417 13.5 16.5v27c0 .276-.224.5-.5.5zm-28.5-1h28v-26.5c0-10.617-3.782-15.408-12.253-15.499l-15.747 20.668z" fill="#785ae6"/><ellipse cx="22.25" cy="24.114" fill="#ffe885" rx="4.75" ry="5.614"/><g fill="#785ae6"><path d="m22.25 30.228c-2.895 0-5.25-2.743-5.25-6.114s2.355-6.114 5.25-6.114 5.25 2.742 5.25 6.113-2.355 6.115-5.25 6.115zm0-11.228c-2.344 0-4.25 2.294-4.25 5.113 0 2.82 1.906 5.114 4.25 5.114s4.25-2.294 4.25-5.114c0-2.819-1.906-5.113-4.25-5.113z"/><path d="m23.113 28.186c-1.942 0-3.522-1.827-3.522-4.072s1.58-4.072 3.522-4.072 3.523 1.827 3.523 4.072-1.58 4.072-3.523 4.072zm0-7.145c-1.391 0-2.522 1.378-2.522 3.072s1.132 3.072 2.522 3.072c1.392 0 2.523-1.378 2.523-3.072s-1.131-3.072-2.523-3.072z"/><path d="m23.113 28.186c-1.942 0-3.522-1.827-3.522-4.072s1.58-4.072 3.522-4.072 3.523 1.827 3.523 4.072-1.58 4.072-3.523 4.072zm0-7.145c-1.391 0-2.522 1.378-2.522 3.072s1.132 3.072 2.522 3.072c1.392 0 2.523-1.378 2.523-3.072s-1.131-3.072-2.523-3.072z"/></g><path d="m38.5 28.5v9.254h.001c14.999 3.876 15.999 6.895 15.999 13.746v11h-37s0-5.505 0-9.818c0-7.182-.055-11.182 11.945-14.182v-4z" fill="#c88c5a"/><path d="m17.5 62.5h37s0-.611 0-2h-37z" fill="#b47846"/><path d="m38.501 37.754-.001 2h.001c14.999 3.876 15.999 6.895 15.999 13.746 0-.633 0-1.29 0-2 0-6.851-1-9.87-15.999-13.746z" fill="#e1a271"/><path d="m29.445 40.5v-2c-12 3-11.945 7-11.945 14.182v2c0-7.182-.055-11.182 11.945-14.182z" fill="#e1a271"/><path d="m41.719 38.386c-.812-1.503-.219-1.886-.219-2.886 0-1.572-1.396-2.463-3-2.883v3.688c-1.611.67-4.826 1.195-7 1.195-.961 0-1.612-.103-2.055-.242v-2.758h-.188c-2.308 1.244-2.756 2.34-2.756 3v1.833s-3 5.167-5 9.167c0 0-2 5-2 7s2 5 2 7h24v-10.011c-3.001-3.01-3.782-14.103-3.782-14.103z" fill="#8d7bd4"/><path d="m45.5 63h-24c-.276 0-.5-.224-.5-.5 0-.903-.49-2.129-.964-3.314-.51-1.273-1.036-2.589-1.036-3.686 0-2.072 1.953-6.978 2.036-7.186 2.001-4.006 5.001-9.181 5.031-9.232.139-.241.445-.32.684-.182.239.139.32.445.182.684-.03.052-3.016 5.2-4.985 9.14-.004.01-1.948 4.895-1.948 6.776 0 .903.49 2.129.964 3.314.435 1.085.881 2.201 1.003 3.186h23.033v-9.312c-2.976-3.295-3.748-13.814-3.78-14.268-.02-.275.188-.515.464-.534.246-.023.515.188.534.464.008.109.802 10.941 3.637 13.786.092.094.145.221.145.353v10.011c0 .276-.224.5-.5.5z" fill="#826ec8"/><path d="m21.067 60.5c.248.719.433 1.406.433 2h24v-2z" fill="#826ec8"/><path d="m26.5 39.833c-.276 0-.5-.224-.5-.5v-1.833c0-.802.488-2.031 2.813-3.333.24-.134.546-.05.681.192.135.241.049.546-.192.681-2.003 1.121-2.302 2.022-2.302 2.46v1.833c0 .276-.224.5-.5.5z" fill="#785ae6"/><path d="m41.719 38.886c-.178 0-.35-.095-.44-.263-.651-1.207-.505-1.86-.376-2.438.05-.223.097-.434.097-.685 0-1.489-1.629-2.144-2.6-2.401-.268-.071-.426-.345-.355-.611.071-.268.343-.429.611-.355 2.156.571 3.344 1.767 3.344 3.367 0 .361-.064.65-.121.904-.113.503-.194.866.28 1.744.131.243.04.546-.203.678-.075.04-.156.06-.237.06z" fill="#785ae6"/><path d="m31.5 38c-3.248 0-3.5-1.148-3.5-1.5 0-.276.224-.5.5-.5.254 0 .464.189.496.436.038.064.407.564 2.504.564 2.997 0 7.162-.964 7.515-1.57 0-.276.217-.465.492-.465.276 0 .493.259.493.535 0 1.748-6.451 2.5-8.5 2.5zm-2.5-1.502v.002c0-.001 0-.001 0-.002z" fill="#826ec8"/><path d="m54.5 63h-37c-.276 0-.5-.224-.5-.5v-9.817c0-6.515 0-10.754 9.126-13.754.261-.089.546.057.631.318.087.263-.056.545-.318.631-8.439 2.775-8.439 6.303-8.439 12.707v9.415h36v-10.5c0-5.892-.551-9.129-12.372-12.62-.265-.078-.416-.356-.338-.621.079-.265.36-.413.621-.338 11.851 3.5 13.089 6.825 13.089 13.579v11c0 .276-.224.5-.5.5z" fill="#785ae6"/><path d="m21.5 13.5v14c0 3.866 3.134 7 7 7h5c3.314 0 6-2.686 6-6h2c1.657 0 3-1.343 3-3v-1c0-1.657-1.343-3-3-3h-2v-8z" fill="#e1a271"/><g fill="#785ae6"><path d="m41.5 29h-2c-.276 0-.5-.224-.5-.5s.224-.5.5-.5h2c1.379 0 2.5-1.121 2.5-2.5v-1c0-1.379-1.121-2.5-2.5-2.5h-1.489c-.276 0-.5-.224-.5-.5s.224-.5.5-.5h1.489c1.93 0 3.5 1.57 3.5 3.5v1c0 1.93-1.57 3.5-3.5 3.5z"/><path d="m31.5 26c-.276 0-.5-.224-.5-.5v-3c0-.276.224-.5.5-.5s.5.224.5.5v3c0 .276-.224.5-.5.5z"/><path d="m23.5 26c-.276 0-.5-.224-.5-.5v-3c0-.276.224-.5.5-.5s.5.224.5.5v3c0 .276-.224.5-.5.5z"/><path d="m26.5 28c-1.738 0-2.893-1.292-2.893-2.146 0-.242.089-.461.249-.615.114-.11.317-.239.644-.239.289 0 1.034-1.186 1.525-2.658.089-.262.372-.402.633-.316.262.088.403.371.316.633-.321.964-1.174 3.155-2.327 3.331.042.094.123.223.258.363.188.194.718.647 1.595.647.276 0 .5.224.5.5s-.224.5-.5.5z"/><path d="m28.5 31c-2.472 0-2.5-1.438-2.5-1.5 0-.276.224-.5.5-.5.269 0 .487.211.499.476.029.183.378.524 1.501.524 2.23 0 2.506-.565 2.508-.571 0-.276.22-.465.496-.465s.496.26.496.536c0 .352-.252 1.5-3.5 1.5zm-1.5-1.5h.01z"/><path d="m31.5 24.041c-.125 0-.249-.046-.347-.14-.199-.191-.205-.508-.014-.707l1-1.041c.191-.198.508-.205.707-.014s.205.508.014.707l-1 1.041c-.097.102-.229.154-.36.154z"/><path d="m23.5 24.041c-.131 0-.263-.052-.36-.153l-1-1.041c-.191-.199-.186-.516.014-.707.201-.191.516-.185.707.014l1 1.041c.191.199.186.516-.014.707-.098.093-.222.139-.347.139z"/><path d="m34.5 22c-.209 0-.404-.133-.475-.342-.35-1.05-1.013-1.651-1.971-1.788-.738-.105-1.391.102-1.396.104-.261.089-.545-.055-.633-.316-.087-.262.055-.545.316-.633.035-.011.876-.286 1.854-.146.938.134 2.182.67 2.779 2.462.087.262-.055.545-.316.633-.053.018-.105.026-.158.026z"/><path d="m21.5 21.326c-.088 0-.176-.022-.256-.07-.237-.142-.315-.449-.174-.686 1.162-1.947 3.42-1.58 3.516-1.562.271.047.454.306.406.578-.047.271-.302.451-.577.407-.077-.015-1.684-.257-2.485 1.089-.094.157-.26.244-.43.244z"/><path d="m33.5 35h-5c-4.136 0-7.5-3.364-7.5-7.5v-10c0-.276.224-.5.5-.5s.5.224.5.5v10c0 3.584 2.916 6.5 6.5 6.5h5c.276 0 .5.224.5.5s-.224.5-.5.5z"/></g><circle cx="32" cy="23" fill="#826ec8" opacity=".5" r="3.5"/><circle cx="23" cy="23" fill="#826ec8" opacity=".5" r="3.5"/><path d="m32 27c-2.206 0-4-1.794-4-4 0-.276.224-.5.5-.5s.5.224.5.5c0 1.654 1.346 3 3 3s3-1.346 3-3c0-.276.224-.5.5-.5h2.582c.276 0 .5.224.5.5s-.224.5-.5.5h-2.113c-.247 1.971-1.933 3.5-3.969 3.5z" fill="#785ae6"/><path d="m23 27c-2.206 0-4-1.794-4-4 0-.276.224-.5.5-.5s.5.224.5.5c0 1.654 1.346 3 3 3 .383 0 .756-.071 1.107-.211.255-.099.547.022.649.28.102.257-.023.547-.28.649-.469.187-.966.282-1.476.282z" fill="#785ae6"/><path d="m35.5 7.5c3.13 1.789 1 7-5 9s-9 3-9 5c0 0-4-1-2-7s9-11 16-7z" fill="#e678a0"/><path d="m34.5 12.5s0 8 5 9h2s0-5 0-8-5.02-5.104-5.02-5.104z" fill="#e678a0"/><path d="m41.5 22h-2c-3.931-.775-5.047-5.193-5.371-7.758-.034-.273.159-.524.434-.559.27-.034.523.159.559.434.29 2.298 1.258 6.249 4.477 6.893l1.401-.007v-7.503c0-2.188-3.402-4.094-4.713-4.644-.255-.106-.375-.399-.268-.654.105-.255.397-.374.654-.268.219.091 5.327 2.271 5.327 5.566v8c0 .276-.224.5-.5.5z" fill="#785ae6"/><path d="m41.5 7.5c-4-4-11-4-15-3-3.881.97-7.277 4.904-7.277 10.952l.004-.002c.076-.304.162-.617.273-.95 2-6 9-11 16-7 .493.282.841.656 1.079 1.081 1.946 1.974 2.921 4.014 2.921 10.919h5s1-8-3-12z" fill="#ffe885"/><path d="m19.5 14.5c.011-.034.028-.067.039-.101.926-4.312 3.779-7.103 6.961-7.899 4-1 11-1 15 3 2.367 2.367 2.979 6.127 3.088 8.809.105-2.375-.032-7.753-3.088-10.809-4-4-11-4-15-3-3.881.97-7.277 4.904-7.277 10.952l.004-.002c.075-.303.162-.616.273-.95z" fill="#fffa96"/><path d="m44.5 20h-5c-.276 0-.5-.224-.5-.5 0-6.668-.88-8.673-2.854-10.646-.195-.195-.195-.512 0-.707s.512-.195.707 0c2.123 2.123 3.099 4.227 3.145 10.854h4.047c.131-1.696.358-7.89-2.898-11.146-4.113-4.115-11.299-3.676-14.526-2.87-3.434.857-6.898 4.427-6.898 10.467 0 .276-.224.5-.5.5s-.5-.224-.5-.5c0-6.579 3.846-10.485 7.656-11.438 4.758-1.187 11.628-.716 15.475 3.132 4.126 4.125 3.185 12.079 3.143 12.416-.032.25-.245.438-.497.438z" fill="#785ae6"/><path d="m21.5 22c-.04 0-.081-.005-.121-.015-.062-.016-1.503-.392-2.348-1.931-.789-1.437-.79-3.358-.006-5.713 1.222-3.665 4.125-6.761 7.577-8.08 3.034-1.16 6.195-.88 9.146.804 1.199.686 1.808 1.883 1.668 3.284-.223 2.25-2.398 5.172-6.758 6.625-5.583 1.861-8.658 2.886-8.658 4.526 0 .154-.071.3-.192.395-.089.069-.198.105-.308.105zm8.824-15.438c-1.128 0-2.256.211-3.364.635-3.18 1.214-5.856 4.073-6.985 7.462-.693 2.079-.716 3.733-.067 4.915.352.641.835 1.013 1.198 1.218.591-1.884 3.676-2.912 9.236-4.766 3.913-1.304 5.895-3.908 6.079-5.774.071-.712-.075-1.691-1.169-2.316-1.598-.915-3.263-1.374-4.928-1.374z" fill="#785ae6"/><ellipse cx="41.25" cy="24.114" fill="#ffe885" rx="4.75" ry="5.614"/><ellipse cx="42.114" cy="24.114" fill="#aad2ff" rx="3.023" ry="3.572"/><path d="m42.113 28.186c-1.942 0-3.522-1.827-3.522-4.072s1.58-4.072 3.522-4.072 3.523 1.827 3.523 4.072-1.58 4.072-3.523 4.072zm0-7.145c-1.391 0-2.522 1.378-2.522 3.072s1.132 3.072 2.522 3.072c1.392 0 2.523-1.378 2.523-3.072s-1.131-3.072-2.523-3.072z" fill="#785ae6"/><path d="m41.25 30.228c-2.895 0-5.25-2.743-5.25-6.114s2.355-6.114 5.25-6.114 5.25 2.742 5.25 6.113-2.355 6.115-5.25 6.115zm0-11.228c-2.344 0-4.25 2.294-4.25 5.113 0 2.82 1.906 5.114 4.25 5.114s4.25-2.294 4.25-5.114c0-2.819-1.906-5.113-4.25-5.113z" fill="#785ae6"/><path d="m11.5 33.5c1.581 1.581-4.257 8.705-7 5-2.145-2.898 4-8 7-5z" fill="#e678a0"/><path d="m6.449 40.055c-.932 0-1.737-.428-2.351-1.257-1.244-1.681-.214-3.8 1.359-5.155 1.783-1.536 4.545-2.348 6.396-.496.312.312.609.919.25 2.036-.639 1.986-2.964 4.473-5.121 4.827-.181.03-.36.045-.533.045zm2.793-6.973c-1.089 0-2.249.558-3.132 1.317-1.183 1.02-2.065 2.645-1.208 3.803.505.682 1.135.952 1.918.821 1.753-.288 3.804-2.505 4.331-4.147.155-.481.153-.864-.005-1.022-.544-.545-1.209-.772-1.904-.772z" fill="#785ae6"/><path d="m11.5 34c-.204 0-.396-.126-.47-.329l-4-11c-.095-.26.039-.547.299-.641.262-.094.547.039.641.299l4 11c.095.26-.039.547-.299.641-.057.02-.114.03-.171.03z" fill="#785ae6"/><path d="m8.591 25.5s3.909 0 5.909-3l-1-4s-3 4-6 4z" fill="#e678a0"/><path d="m8.591 26c-.21 0-.398-.132-.47-.329l-1.091-3c-.056-.153-.033-.324.061-.458.093-.134.246-.213.409-.213 2.713 0 5.571-3.762 5.601-3.8.115-.155.312-.228.499-.19.188.038.339.182.386.369l1 4c.034.137.009.281-.069.398-2.125 3.186-6.155 3.223-6.326 3.223zm-.399-3.06.741 2.039c.928-.082 3.514-.496 5.026-2.578l-.706-2.823c-.978 1.098-2.94 3.001-5.061 3.362z" fill="#785ae6"/><path d="m55.478 12.422c.43 1.588-5.904 3.998-6.298.629-.308-2.635 5.482-3.642 6.298-.629z" fill="#fffa96"/><path d="m51.405 15.248c-.445 0-.868-.062-1.24-.2-.858-.321-1.371-.992-1.482-1.938-.163-1.396.986-2.576 2.86-2.938 1.756-.341 3.893.178 4.418 2.119.095.35.063.896-.624 1.523-.884.806-2.518 1.434-3.932 1.434zm1.155-4.174c-.278 0-.558.027-.826.079-1.07.207-2.171.87-2.057 1.839.065.566.34.933.839 1.118 1.184.445 3.236-.205 4.148-1.035.261-.238.354-.438.332-.522-.286-1.055-1.35-1.479-2.436-1.479z" fill="#785ae6"/><path d="m55.479 12.922c-.028 0-.058-.002-.087-.008-.271-.047-.454-.306-.406-.578l1.474-8.485c.047-.271.301-.462.578-.406.271.047.454.306.406.578l-1.474 8.485c-.041.243-.252.414-.491.414z" fill="#785ae6"/><path d="m56.55 6.251s2.495 1.431 4.87.248l.826-2.919s-3.379 1.455-5.294.357z" fill="#fffa96"/><path d="m59.367 7.47c-1.67 0-2.988-.74-3.066-.785-.182-.104-.279-.312-.243-.52l.402-2.314c.027-.16.132-.298.279-.366.15-.07.319-.062.462.019 1.675.963 4.816-.368 4.848-.382.177-.076.384-.043.527.083.145.128.203.326.151.512l-.826 2.919c-.039.136-.133.249-.259.312-.776.385-1.558.522-2.275.522zm-2.261-1.504c.669.294 2.313.855 3.895.177l.499-1.764c-1.048.326-2.773.706-4.164.267z" fill="#785ae6"/></svg>