<svg enable-background="new 0 0 64 64" height="512" viewBox="0 0 64 64" width="512" xmlns="http://www.w3.org/2000/svg"><path d="m42.5 33.5c-4 0-5-1-5-1h-12s-3 2-6 1-2.755-3.683-2.755-3.683-2.717.388-3.416-1.863 1.171-3.454 1.171-3.454c-4-4 0-8 0-8 5 3 2-4 5-8s7-2 7-2 0-2 3-2 4 2 4 2 2-2 6-1 6 5 5 9c0 0 5 2 3 7 0 0 3 0 3 4s-2 5-2 5 1 3-6 3z" fill="#dcdcd2"/><g fill="#f0f0e6"><path d="m14.5 18.5c5 3 2-4 5-8s7-2 7-2 0-2 3-2 4 2 4 2 2-2 6-1c2.964.741 4.826 3.131 5.187 5.946.437-3.626-1.539-7.034-5.187-7.946-4-1-6 1-6 1s-1-2-4-2-3 2-3 2-4-2-7 2 0 11-5 8c0 0-2.281 2.287-1.668 5.131.384-1.843 1.668-3.131 1.668-3.131z"/><path d="m44.5 16.5s2.77 1.112 3.359 3.743c.659-3.476-2.241-5.2-3.114-5.63-.012.622-.087 1.254-.245 1.887z"/><path d="m19.5 27c-3.17 0-5.266-2.059-5.354-2.146-.195-.195-.195-.511 0-.706s.512-.195.707-.002c.019.018 1.902 1.854 4.647 1.854.276 0 .5.224.5.5s-.224.5-.5.5z"/><path d="m45.239 31.889c-1.293 0-1.901-.595-2.187-1.166-.124-.247-.023-.547.224-.671.248-.124.547-.024.671.224.634 1.269 3.408.238 4.329-.224.247-.124.547-.024.671.224.124.247.023.547-.224.671-.043.021-1.068.53-2.24.791-.472.105-.885.151-1.244.151z"/><path d="m46.735 25.374c-.442 0-.8-.202-.987-.561-.321-.616-.047-1.539.374-2.094.476-.627.937-1.453.941-1.461.134-.241.438-.329.68-.194.242.134.329.438.194.68-.02.037-.499.895-1.018 1.58-.315.415-.359.955-.278 1.037.006.004.046.013.112.014.348-.014 1.144-.546 1.527-1.255.146-.271.28-.66.087-.983-.142-.237-.064-.544.172-.686.237-.141.544-.064.686.172.339.567.316 1.268-.066 1.973-.515.95-1.577 1.748-2.369 1.778-.018 0-.037 0-.055 0z"/><path d="m30.5 12c-.276 0-.5-.224-.5-.5 0-3.551-3.475-4.478-3.623-4.515-.267-.068-.429-.34-.362-.607.067-.269.34-.43.605-.363.045.011 4.38 1.145 4.38 5.485 0 .276-.224.5-.5.5z"/><path d="m34.5 11c-.276 0-.5-.224-.5-.5 0-2.7-.851-3.644-.859-3.652-.186-.2-.181-.515.015-.704.195-.189.504-.19.698.003.117.117 1.146 1.236 1.146 4.353 0 .276-.224.5-.5.5z"/></g><path d="m21.284 34.282c-.627 0-1.283-.087-1.942-.308-2.252-.75-2.976-2.467-3.089-3.625-1.162-.003-2.848-.462-3.401-2.247-.522-1.683.217-2.968.918-3.651-3.665-4.169.335-8.263.377-8.305.163-.162.414-.193.611-.075 1.232.739 1.725.695 1.909.604.458-.23.578-1.415.706-2.669.183-1.804.41-4.049 1.729-5.806 2.517-3.357 5.742-2.785 7.042-2.37.27-.74 1.06-1.83 3.356-1.83 2.328 0 3.571 1.105 4.111 1.777.849-.58 2.853-1.552 6.01-.762 2.044.511 3.711 1.797 4.694 3.623.893 1.657 1.158 3.625.761 5.581.481.249 1.322.757 2.047 1.574.936 1.052 1.833 2.804 1.048 5.311 1.017.262 2.829 1.179 2.829 4.396 0 3.318-1.325 4.744-1.955 5.234.025.391-.055.929-.426 1.444-.871 1.209-2.93 1.822-6.119 1.822-3.333 0-4.711-.684-5.17-1h-11.685c-.495.301-2.265 1.282-4.361 1.282zm-4.541-4.965c.128 0 .252.049.346.139.11.105.167.255.153.407-.007.091-.155 2.306 2.416 3.163 2.723.909 5.537-.923 5.565-.942.082-.055.179-.084.277-.084h12c.133 0 .26.053.354.146.001 0 1.006.854 4.646.854 3.736 0 4.929-.881 5.308-1.406.347-.481.22-.931.218-.936-.079-.236.028-.494.25-.605.065-.035 1.724-.96 1.724-4.553 0-3.46-2.398-3.5-2.5-3.5-.166 0-.321-.083-.414-.22s-.112-.312-.05-.466c1.787-4.466-2.537-6.276-2.722-6.351-.231-.093-.359-.343-.298-.585.97-3.882-1.023-7.49-4.636-8.394-3.647-.91-5.453.798-5.527.871-.115.112-.277.163-.434.137-.157-.027-.294-.126-.365-.269-.036-.067-.925-1.723-3.554-1.723-2.391 0-2.496 1.352-2.5 1.506-.005.17-.096.33-.242.418s-.327.099-.48.023c-.149-.072-3.673-1.752-6.378 1.853-1.151 1.535-1.363 3.627-1.534 5.308-.169 1.668-.303 2.986-1.252 3.462-.615.307-1.399.176-2.512-.434-.767.927-2.805 3.955.251 7.011.107.107.16.256.144.407s-.099.286-.227.367c-.061.04-1.538 1.038-.964 2.886.562 1.811 2.776 1.528 2.869 1.516.023-.004.046-.006.068-.006z" fill="#785ae6"/><path d="m21.5 17.5c0-3 2-4 3-4s2 1 3 1 3-3 7-1c2 1 3 3 2 5s3.189 3 3.189 3v2.041z" fill="#ffc8d2"/><path d="m25.519 34.5s-3.019 0-3.019 2c0 1 1 2 1 2s-3 0-3 3c0 0-6.651 2.128-9 8-2 5-2 13-2 13h47s2-18-12-21c0 0 2-2 0-4 0 0 3.81-5.969-5.595-6.484z" fill="#aad2ff"/><path d="m37.5 50.9s-1.8 1.2-3 3c0 0 .6 2.4 3 4.2 0 0 1.8-3 3-4.2 0 0-1.8-1.2-3-3z" fill="#f0f0e6"/><path d="m37.5 58.6c-.107 0-.213-.035-.3-.1-2.513-1.885-3.159-4.374-3.185-4.479-.034-.137-.009-.281.069-.398 1.241-1.862 3.062-3.087 3.139-3.139.11-.074.244-.099.375-.074.13.026.244.103.318.213 1.132 1.697 2.844 2.85 2.861 2.861.125.083.206.218.22.367s-.038.297-.144.403c-1.144 1.144-2.907 4.074-2.925 4.104-.073.121-.194.206-.333.233-.031.006-.063.009-.095.009zm-2.451-4.616c.187.544.812 2.067 2.322 3.371.494-.792 1.507-2.362 2.382-3.381-.567-.438-1.544-1.271-2.368-2.37-.545.42-1.552 1.275-2.336 2.38z" fill="#96bef0"/><path d="m21.5 50.9s-1.8 1.2-3 3c0 0 .6 2.4 3 4.2 0 0 1.8-3 3-4.2 0 0-1.8-1.2-3-3z" fill="#f0f0e6"/><path d="m21.5 58.6c-.107 0-.213-.035-.3-.1-2.513-1.885-3.159-4.374-3.185-4.479-.034-.137-.009-.281.069-.398 1.241-1.862 3.062-3.087 3.139-3.139.11-.074.244-.099.375-.074.13.026.244.103.318.213 1.132 1.697 2.844 2.85 2.861 2.861.125.083.206.218.22.367s-.038.297-.144.403c-1.144 1.144-2.907 4.074-2.925 4.104-.073.121-.194.206-.333.233-.031.006-.063.009-.095.009zm-2.451-4.616c.187.544.812 2.067 2.322 3.371.494-.792 1.507-2.362 2.382-3.381-.567-.438-1.544-1.271-2.368-2.37-.545.42-1.552 1.275-2.336 2.38z" fill="#96bef0"/><path d="m29.5 49.5s-3 2-5 5c0 0 1 4 5 7 0 0 3-5 5-7 0 0-3-2-5-5z" fill="#96bef0"/><path d="m29.5 62c-.107 0-.213-.035-.3-.1-4.095-3.071-5.143-7.108-5.185-7.279-.034-.137-.009-.281.069-.398 2.032-3.048 5.013-5.055 5.139-5.139.11-.074.244-.1.375-.074.13.026.244.103.318.213 1.918 2.877 4.833 4.842 4.861 4.861.125.083.206.218.22.367.015.149-.038.297-.144.403-1.933 1.933-4.895 6.854-4.925 6.904-.073.121-.194.206-.333.233-.031.006-.063.009-.095.009zm-4.454-7.415c.255.8 1.356 3.76 4.319 6.175.748-1.212 2.757-4.387 4.377-6.187-.889-.66-2.83-2.23-4.365-4.372-.842.628-2.847 2.238-4.331 4.384z" fill="#96bef0"/><path d="m44.5 43.5c10.216 2.189 11.91 12.358 12.081 17.7.141-4.073-.349-16.52-11.214-19.478-.127 1.033-.867 1.778-.867 1.778z" fill="#bee6ff"/><path d="m21 39.737c-.295.426-.5.99-.5 1.763 0 0-6.651 2.128-9 8-2 5-2 13-2 13h.061c.134-2.697.563-7.559 1.939-11 2.349-5.872 9-8 9-8 0-.776.203-1.348.5-1.774z" fill="#bee6ff"/><path d="m56.5 60.5h-46.939c-.061 1.222-.061 2-.061 2h47s.144-1.321.081-3.3c-.028.815-.081 1.3-.081 1.3z" fill="#96bef0"/><path d="m30.5 46c-6.137 0-9.225-3.018-9.354-3.146-.195-.195-.195-.51 0-.706.194-.195.51-.197.707-.002.028.028 2.949 2.854 8.647 2.854 5.808 0 11.717-2.918 11.776-2.947.248-.123.547-.023.671.224s.023.547-.224.671c-.249.124-6.175 3.052-12.223 3.052z" fill="#96bef0"/><path d="m14.664 62.998c-.112 0-.225-.039-.318-.118-.138-.117-1.346-1.268-1.346-5.38 0-2.272.916-3.939 1.723-5.41.685-1.248 1.277-2.326 1.277-3.59 0-.276.224-.5.5-.5s.5.224.5.5c0 1.521-.68 2.76-1.4 4.071-.787 1.432-1.6 2.914-1.6 4.929 0 3.628.996 4.619 1.006 4.629.196.187.213.5.031.701-.1.111-.236.168-.373.168z" fill="#96bef0"/><path d="m45.5 63c-.276 0-.5-.224-.5-.5v-13c0-.276.224-.5.5-.5s.5.224.5.5v13c0 .276-.224.5-.5.5z" fill="#96bef0"/><path d="m28.445 34.5v4h10.055v-6.76z" fill="#ffb4be"/><path d="m30.5 41c-7.138 0-7.5-2.083-7.5-2.5 0-.276.224-.5.5-.5.264 0 .48.205.499.464.024.08.583 1.536 6.501 1.536.276 0 .5.224.5.5s-.224.5-.5.5zm-6.5-2.5h.01z" fill="#96bef0"/><path d="m56.5 63h-47c-.276 0-.5-.224-.5-.5 0-.331.023-8.154 2.036-13.186 2.131-5.327 7.56-7.647 8.978-8.173.145-1.894 1.434-2.729 2.549-3.017-.284-.433-.563-1.013-.563-1.624 0-1.942 2.22-2.481 3.453-2.5l12.947-3.37c.268-.068.54.09.61.358.069.267-.091.541-.358.61l-13.007 3.386c-.041.011-.083.016-.125.016-.026 0-2.52.025-2.52 1.5 0 .645.617 1.408.854 1.647.142.143.184.357.107.543s-.258.308-.459.31c-.256.002-2.502.088-2.502 2.5 0 .217-.141.41-.347.476-.064.021-6.458 2.133-8.688 7.709-1.658 4.144-1.917 10.499-1.958 12.315h46.031c.179-2.753.539-17.4-11.644-20.011-.179-.038-.323-.171-.375-.347s-.003-.366.126-.495c.166-.168 1.588-1.705 0-3.293-.166-.166-.193-.424-.068-.622.076-.121 1.837-2.968-.605-4.567-.231-.151-.295-.461-.145-.692.152-.23.462-.295.692-.145 2.412 1.58 1.851 4.185 1.096 5.605 1.162 1.386.823 2.826.251 3.76 13.447 3.537 11.649 21.181 11.629 21.362-.026.254-.24.445-.495.445z" fill="#785ae6"/><path d="m39.5 28.5h2c1.657 0 3-1.343 3-3v-1c0-1.657-1.343-3-3-3h-1.811c-.811 0-3.189-1-3.189-2s-1-3-4-4-6-1-7-1-2 0-2 0c-2 1-3 3-3 5s1 5 1 6-1 1-1 4 3 5 7 5 6 0 6 0c4 0 6-4 6-6z" fill="#ffc8d2"/><path d="m30.5 18c-.04 0-.081-.005-.122-.015-3.734-.933-5.64-.045-5.658-.036-.247.12-.546.018-.668-.229-.121-.247-.022-.544.224-.667.089-.044 2.213-1.07 6.345-.038.268.067.431.338.364.606-.057.228-.26.379-.485.379z" fill="#ffb4be"/><path d="m31.5 25c-.276 0-.5-.224-.5-.5v-2c0-.276.224-.5.5-.5s.5.224.5.5v2c0 .276-.224.5-.5.5z" fill="#785ae6"/><path d="m23.5 25c-.276 0-.5-.224-.5-.5v-2c0-.276.224-.5.5-.5s.5.224.5.5v2c0 .276-.224.5-.5.5z" fill="#785ae6"/><path d="m38.5 39c-.276 0-.5-.224-.5-.5v-6.76c0-.276.224-.5.5-.5s.5.224.5.5v6.76c0 .276-.224.5-.5.5z" fill="#785ae6"/><path d="m28.444 39c-.276 0-.5-.224-.5-.5v-4c0-.276.224-.5.5-.5s.5.224.5.5v4c0 .276-.223.5-.5.5z" fill="#785ae6"/><path d="m31.5 24.041c-.125 0-.25-.046-.346-.14-.199-.191-.206-.508-.014-.707l1-1.041c.192-.2.508-.206.707-.014.199.191.206.508.014.707l-1 1.041c-.099.103-.23.154-.361.154z" fill="#785ae6"/><path d="m23.5 24.041c-.131 0-.262-.051-.36-.154l-1-1.041c-.191-.199-.185-.516.014-.707.198-.192.516-.186.707.014l1 1.041c.191.199.185.516-.014.707-.097.094-.222.14-.347.14z" fill="#785ae6"/><path d="m34.5 22c-.209 0-.404-.132-.474-.342-.35-1.05-1.013-1.651-1.972-1.788-.738-.106-1.39.102-1.396.104-.265.088-.545-.054-.632-.316s.054-.545.316-.632c.035-.013.873-.286 1.854-.146.938.134 2.181.67 2.778 2.462.087.262-.054.545-.316.632-.053.018-.106.026-.158.026z" fill="#785ae6"/><path d="m26.5 34.454s-1.111 1.046 1.945 2.046 10.055 0 12.055-3v6h-14z" fill="#aad2ff"/><g fill="#785ae6"><path d="m31.336 37.375c-1.171 0-2.234-.133-3.047-.399-1.494-.489-2.298-1.076-2.458-1.794-.141-.63.278-1.046.326-1.091.201-.189.517-.18.707.021.186.198.18.507-.012.698-.017.02-.064.081-.043.161.022.085.214.538 1.792 1.055 2.896.95 9.667-.078 11.484-2.802.152-.23.462-.292.693-.139.23.153.292.463.139.693-1.603 2.402-6.075 3.597-9.581 3.597z"/><path d="m32 27c-2.206 0-4-1.794-4-4 0-.276.224-.5.5-.5s.5.224.5.5c0 1.654 1.346 3 3 3s3-1.346 3-3c0-.276.224-.5.5-.5h2.582c.276 0 .5.224.5.5s-.224.5-.5.5h-2.113c-.247 1.97-1.933 3.5-3.969 3.5z"/><path d="m23 27c-2.206 0-4-1.794-4-4 0-.276.224-.5.5-.5s.5.224.5.5c0 1.654 1.346 3 3 3 .382 0 .755-.071 1.107-.211.257-.102.547.023.649.28.102.256-.023.547-.28.649-.47.187-.967.282-1.476.282z"/><path d="m26.5 28c-1.739 0-2.892-1.292-2.892-2.146 0-.243.088-.461.249-.616.112-.109.315-.238.643-.238.289 0 1.034-1.186 1.526-2.658.087-.262.371-.403.632-.316s.403.37.316.632c-.321.964-1.173 3.155-2.327 3.331.042.094.123.223.258.363.188.195.719.648 1.595.648.276 0 .5.224.5.5s-.224.5-.5.5z"/><path d="m27.722 31.028c-1.884 0-2.723-.824-2.775-.877-.193-.197-.189-.514.008-.707.196-.191.508-.19.702.003.032.029 1.621 1.461 5.644-.294.256-.111.548.005.658.258.111.253-.005.548-.258.658-1.655.722-2.968.959-3.979.959z"/><path d="m32.5 30.301c-.032 0-.064-.003-.096-.009-1.962-.383-2.454-1.644-2.474-1.698-.097-.259.035-.547.293-.643.256-.095.541.033.641.286.02.046.362.806 1.731 1.073.271.053.448.315.395.586-.046.24-.255.405-.49.405z"/><path d="m31.5 35h-4c-4.416 0-7.5-2.262-7.5-5.5 0-2.036.441-2.8.763-3.358.164-.284.237-.419.237-.642 0-.358-.175-1.13-.36-1.948-.13-.575-.272-1.204-.39-1.83-.05-.271.128-.533.4-.583.273-.049.533.128.583.4.114.613.254 1.229.381 1.792.216.949.386 1.699.386 2.169 0 .5-.188.827-.371 1.142-.28.486-.629 1.09-.629 2.858 0 2.649 2.673 4.5 6.5 4.5h4c.276 0 .5.224.5.5s-.224.5-.5.5z"/><path d="m38.41 32.182c-.094 0-.188-.026-.272-.081-.231-.151-.297-.46-.146-.692.612-.94 1.008-2.082 1.008-2.909 0-.276.224-.5.5-.5h2c1.378 0 2.5-1.122 2.5-2.5v-1c0-1.378-1.122-2.5-2.5-2.5h-1.811c-.276 0-.5-.224-.5-.5s.224-.5.5-.5h1.811c1.93 0 3.5 1.57 3.5 3.5v1c0 1.93-1.57 3.5-3.5 3.5h-1.532c-.115.932-.529 2.02-1.138 2.955-.096.147-.256.227-.42.227z"/></g><path d="m34.5 41c-.276 0-.499-.223-.5-.499s.223-.5.499-.501c.029 0 2.896-.031 5.724-1.916.23-.153.54-.091.693.139s.091.54-.139.693c-3.09 2.06-6.148 2.084-6.277 2.084z" fill="#96bef0"/><path d="m23.5 14.5c2 4 0 7-3 7s-.086-3.204-.086-3.204l1.565-4.779z" fill="#dcdcd2"/><path d="m20.5 22c-2.215 0-3.689-.547-4.779-1.773-.183-.207-.165-.522.042-.706.206-.184.521-.165.706.042.895 1.007 2.1 1.437 4.031 1.437 1.193 0 2.209-.537 2.789-1.474.761-1.231.675-2.981-.236-4.803-1.342-2.684-.559-4.896.52-5.974.92-.919 2.157-1.193 3.151-.697 2.361 1.18 1.297 4.466 1.25 4.605-.086.262-.372.402-.631.316-.262-.087-.404-.37-.317-.631.009-.026.836-2.603-.749-3.396-.612-.304-1.377-.11-1.997.511-.843.844-1.437 2.612-.333 4.82 1.069 2.138 1.139 4.243.192 5.776-.765 1.237-2.091 1.947-3.639 1.947z" fill="#f0f0e6"/><path d="m42.5 17.5-6 2v-2l6-2z" fill="#e678a0"/><path d="m36.5 20c-.104 0-.206-.032-.292-.094-.131-.094-.208-.245-.208-.406v-2c0-.215.138-.406.342-.474l6-2c.152-.052.32-.026.451.068.13.094.207.245.207.406v2c0 .215-.138.406-.342.474l-6 2c-.052.018-.105.026-.158.026zm.5-2.14v.946l5-1.667v-.946zm5.5-.36h.01z" fill="#fa8cb4"/></svg>