<svg enable-background="new 0 0 64 64" height="512" viewBox="0 0 64 64" width="512" xmlns="http://www.w3.org/2000/svg"><path d="m42.5 33.5c-4 0-5-1-5-1h-12s-3 2-6 1-2.755-3.683-2.755-3.683-2.717.388-3.416-1.863 1.171-3.454 1.171-3.454c-4-4 0-8 0-8 5 3 2-4 5-8s7-2 7-2 0-2 3-2 4 2 4 2 2-2 6-1 6 5 5 9c0 0 5 2 3 7 0 0 3 0 3 4s-2 5-2 5 1 3-6 3z" fill="#dcdcd2"/><g fill="#f0f0e6"><path d="m14.5 18.5c5 3 2-4 5-8s7-2 7-2 0-2 3-2 4 2 4 2 2-2 6-1c2.964.741 4.826 3.131 5.187 5.946.437-3.626-1.539-7.034-5.187-7.946-4-1-6 1-6 1s-1-2-4-2-3 2-3 2-4-2-7 2 0 11-5 8c0 0-2.281 2.287-1.668 5.131.384-1.843 1.668-3.131 1.668-3.131z"/><path d="m44.5 16.5s2.77 1.112 3.359 3.743c.659-3.476-2.241-5.2-3.114-5.63-.012.622-.087 1.254-.245 1.887z"/><path d="m19.5 27c-3.171 0-5.266-2.059-5.354-2.146-.195-.195-.195-.511 0-.706s.511-.195.706-.002c.019.018 1.903 1.854 4.648 1.854.276 0 .5.224.5.5s-.224.5-.5.5z"/><path d="m45.239 31.889c-1.293 0-1.901-.595-2.187-1.166-.123-.247-.023-.547.224-.671.247-.123.547-.024.671.224.635 1.267 3.406.238 4.329-.224.248-.123.547-.024.671.224.123.247.023.547-.224.671-.043.021-1.068.53-2.24.791-.472.105-.884.151-1.244.151z"/><path d="m46.734 25.374c-.442 0-.8-.203-.986-.562-.321-.616-.047-1.539.374-2.094.476-.627.937-1.453.94-1.461.135-.243.44-.329.681-.194.241.134.328.438.194.68-.02.037-.499.895-1.019 1.58-.314.415-.359.955-.278 1.037.007.004.049.013.112.014.349-.014 1.144-.546 1.528-1.255.146-.27.28-.66.087-.983-.143-.237-.065-.544.172-.686.234-.14.543-.065.686.172.34.567.316 1.269-.065 1.974-.515.95-1.577 1.748-2.368 1.778-.02 0-.038 0-.058 0z"/><path d="m30.5 12c-.276 0-.5-.224-.5-.5 0-3.551-3.475-4.478-3.622-4.515-.268-.068-.43-.34-.362-.607.068-.268.343-.431.605-.363.044.011 4.379 1.145 4.379 5.485 0 .276-.224.5-.5.5z"/><path d="m34.5 11c-.276 0-.5-.224-.5-.5 0-2.7-.851-3.644-.859-3.652-.187-.2-.182-.515.015-.704.197-.188.505-.19.698.003.117.117 1.146 1.236 1.146 4.353 0 .276-.224.5-.5.5z"/></g><path d="m21.284 34.282c-.627 0-1.283-.087-1.942-.308-2.252-.75-2.976-2.467-3.089-3.625-1.162-.003-2.848-.462-3.401-2.247-.522-1.682.216-2.967.917-3.65-3.665-4.169.336-8.263.378-8.305.163-.163.416-.193.61-.075 1.233.739 1.726.695 1.909.604.458-.23.578-1.415.705-2.669.184-1.804.411-4.049 1.729-5.806 2.518-3.356 5.742-2.784 7.043-2.37.271-.741 1.061-1.831 3.357-1.831 2.328 0 3.571 1.105 4.111 1.777.849-.58 2.852-1.552 6.01-.762 2.044.511 3.711 1.797 4.694 3.623.893 1.657 1.158 3.625.761 5.581.481.249 1.322.757 2.048 1.574.935 1.052 1.833 2.804 1.048 5.311 1.016.262 2.828 1.179 2.828 4.396 0 3.318-1.325 4.744-1.955 5.234.025.391-.055.929-.426 1.444-.871 1.209-2.93 1.822-6.119 1.822-3.333 0-4.711-.684-5.171-1h-11.684c-.495.301-2.265 1.282-4.361 1.282zm-4.54-4.965c.128 0 .252.049.346.139.11.105.167.255.153.407-.008.091-.155 2.306 2.415 3.163 2.726.909 5.538-.923 5.565-.942.082-.055.178-.084.277-.084h12c.133 0 .26.053.354.146.001 0 1.006.854 4.646.854 3.736 0 4.93-.881 5.308-1.406.347-.481.22-.931.218-.936-.078-.236.028-.494.251-.605.065-.035 1.723-.96 1.723-4.553 0-3.46-2.397-3.5-2.5-3.5-.166 0-.321-.083-.414-.22s-.111-.312-.05-.466c1.786-4.466-2.538-6.276-2.723-6.351-.231-.093-.359-.343-.299-.585.971-3.882-1.022-7.49-4.636-8.394-3.65-.911-5.452.797-5.527.871-.114.112-.277.163-.434.137-.157-.027-.294-.126-.365-.269-.034-.067-.922-1.723-3.552-1.723-2.391 0-2.496 1.352-2.5 1.506-.005.17-.097.33-.242.418-.146.088-.327.099-.48.023-.15-.072-3.676-1.751-6.378 1.853-1.151 1.535-1.363 3.627-1.534 5.308-.169 1.668-.303 2.986-1.252 3.462-.616.307-1.4.175-2.512-.434-.768.927-2.805 3.955.251 7.011.107.107.16.256.144.407-.016.15-.1.286-.227.367-.061.04-1.538 1.038-.964 2.885.562 1.811 2.775 1.53 2.869 1.517.023-.004.047-.006.069-.006z" fill="#785ae6"/><path d="m21.5 17.5c0-3 2-4 3-4s2 1 3 1 3-3 7-1c2 1 3 3 2 5s3.189 3 3.189 3v2.041z" fill="#e1a271"/><path d="m25.519 34.5s-3.019 0-3.019 2c0 1 1 2 1 2s-3 0-3 3c0 0-6.651 2.128-9 8-2 5-2 13-2 13h47s2-18-12-21c0 0 2-2 0-4 0 0 3.81-5.969-5.595-6.484z" fill="#aad2ff"/><path d="m37.5 50.9s-1.8 1.2-3 3c0 0 .6 2.4 3 4.2 0 0 1.8-3 3-4.2 0 0-1.8-1.2-3-3z" fill="#f0f0e6"/><path d="m37.5 58.6c-.107 0-.213-.035-.3-.1-2.514-1.885-3.159-4.374-3.186-4.479-.034-.137-.009-.281.069-.398 1.241-1.862 3.062-3.087 3.139-3.139.11-.073.245-.101.375-.074.131.026.245.103.318.213 1.132 1.697 2.844 2.85 2.861 2.861.125.083.205.218.221.367.015.149-.038.297-.145.403-1.144 1.144-2.907 4.074-2.925 4.104-.073.121-.193.206-.333.233-.03.006-.062.009-.094.009zm-2.451-4.616c.187.544.812 2.067 2.322 3.371.494-.792 1.507-2.362 2.383-3.381-.567-.438-1.545-1.271-2.368-2.37-.545.42-1.554 1.275-2.337 2.38z" fill="#96bef0"/><path d="m21.5 50.9s-1.8 1.2-3 3c0 0 .6 2.4 3 4.2 0 0 1.8-3 3-4.2 0 0-1.8-1.2-3-3z" fill="#f0f0e6"/><path d="m21.5 58.6c-.107 0-.213-.035-.3-.1-2.514-1.885-3.159-4.374-3.186-4.479-.034-.137-.009-.281.069-.398 1.241-1.862 3.062-3.087 3.139-3.139.11-.073.245-.101.375-.074.131.026.245.103.318.213 1.132 1.697 2.844 2.85 2.861 2.861.125.083.205.218.221.367.015.149-.038.297-.145.403-1.144 1.144-2.907 4.074-2.925 4.104-.073.121-.193.206-.333.233-.03.006-.062.009-.094.009zm-2.451-4.616c.187.544.812 2.067 2.322 3.371.494-.792 1.507-2.362 2.383-3.381-.567-.438-1.545-1.271-2.368-2.37-.545.42-1.554 1.275-2.337 2.38z" fill="#96bef0"/><path d="m29.5 49.5s-3 2-5 5c0 0 1 4 5 7 0 0 3-5 5-7 0 0-3-2-5-5z" fill="#96bef0"/><path d="m29.5 62c-.107 0-.213-.035-.3-.1-4.095-3.071-5.143-7.108-5.186-7.279-.034-.137-.009-.281.069-.398 2.032-3.048 5.013-5.055 5.139-5.139.11-.073.245-.101.375-.074.131.026.245.103.318.213 1.918 2.877 4.832 4.842 4.861 4.861.125.083.205.218.22.367s-.038.297-.144.403c-1.934 1.933-4.896 6.854-4.925 6.904-.073.121-.193.206-.333.233-.03.006-.062.009-.094.009zm-4.453-7.415c.255.8 1.355 3.76 4.318 6.175.748-1.212 2.758-4.387 4.377-6.187-.889-.66-2.829-2.23-4.364-4.372-.843.628-2.848 2.238-4.331 4.384z" fill="#96bef0"/><path d="m44.5 43.5c10.216 2.189 11.91 12.358 12.081 17.7.141-4.073-.349-16.52-11.214-19.478-.127 1.033-.867 1.778-.867 1.778z" fill="#bee6ff"/><path d="m21 39.737c-.295.426-.5.99-.5 1.763 0 0-6.651 2.128-9 8-2 5-2 13-2 13h.061c.134-2.697.563-7.559 1.939-11 2.349-5.872 9-8 9-8 0-.776.203-1.348.5-1.774z" fill="#bee6ff"/><path d="m56.5 60.5h-46.939c-.061 1.222-.061 2-.061 2h47s.144-1.321.081-3.3c-.028.815-.081 1.3-.081 1.3z" fill="#96bef0"/><path d="m30.5 46c-6.137 0-9.225-3.018-9.354-3.146-.195-.195-.195-.51 0-.706.193-.196.511-.196.706-.002.03.028 2.95 2.854 8.648 2.854 5.808 0 11.718-2.918 11.776-2.947.248-.123.547-.024.671.224.123.247.023.547-.224.671-.248.124-6.174 3.052-12.223 3.052z" fill="#96bef0"/><path d="m14.664 62.998c-.112 0-.225-.039-.318-.118-.138-.117-1.346-1.268-1.346-5.38 0-2.272.915-3.939 1.723-5.41.685-1.248 1.277-2.326 1.277-3.59 0-.276.224-.5.5-.5s.5.224.5.5c0 1.521-.681 2.76-1.4 4.071-.787 1.432-1.6 2.914-1.6 4.929 0 3.628.996 4.619 1.006 4.629.196.187.213.5.031.701-.1.111-.236.168-.373.168z" fill="#96bef0"/><path d="m45.5 63c-.276 0-.5-.224-.5-.5v-13c0-.276.224-.5.5-.5s.5.224.5.5v13c0 .276-.224.5-.5.5z" fill="#96bef0"/><path d="m28.445 34.5v4h10.055v-6.76z" fill="#c88c5a"/><path d="m30.5 41c-7.139 0-7.5-2.083-7.5-2.5 0-.276.224-.5.5-.5.264 0 .48.205.499.464.024.08.583 1.536 6.501 1.536.276 0 .5.224.5.5s-.224.5-.5.5zm-6.5-2.5h.01z" fill="#96bef0"/><path d="m56.5 63h-47c-.276 0-.5-.224-.5-.5 0-.331.023-8.154 2.036-13.186 2.13-5.327 7.559-7.647 8.978-8.173.145-1.894 1.434-2.729 2.549-3.017-.285-.433-.563-1.013-.563-1.624 0-1.942 2.221-2.481 3.453-2.5l12.946-3.37c.271-.069.541.091.609.358.07.267-.09.541-.357.61l-13.007 3.386c-.04.011-.082.016-.124.016-.026 0-2.52.025-2.52 1.5 0 .645.616 1.408.854 1.647.142.143.184.357.106.543-.076.186-.258.308-.459.31-.255.002-2.501.088-2.501 2.5 0 .217-.141.41-.348.476-.063.021-6.458 2.133-8.688 7.709-1.657 4.144-1.916 10.499-1.956 12.315h46.03c.179-2.753.54-17.4-11.643-20.011-.18-.038-.323-.171-.375-.347s-.004-.366.126-.495c.166-.168 1.588-1.705 0-3.293-.165-.166-.193-.424-.068-.622.076-.121 1.838-2.968-.604-4.567-.231-.151-.296-.461-.145-.692.151-.232.463-.295.691-.145 2.413 1.58 1.852 4.185 1.097 5.605 1.161 1.386.822 2.826.251 3.76 13.446 3.537 11.648 21.181 11.629 21.362-.028.254-.242.445-.497.445z" fill="#785ae6"/><path d="m39.5 28.5h2c1.657 0 3-1.343 3-3v-1c0-1.657-1.343-3-3-3h-1.811c-.811 0-3.189-1-3.189-2s-1-3-4-4-6-1-7-1-2 0-2 0c-2 1-3 3-3 5s1 5 1 6-1 1-1 4 3 5 7 5 6 0 6 0c4 0 6-4 6-6z" fill="#e1a271"/><path d="m30.5 18c-.04 0-.08-.005-.121-.015-3.736-.933-5.64-.044-5.658-.036-.248.12-.547.018-.668-.229s-.022-.544.224-.667c.088-.044 2.213-1.071 6.345-.038.269.067.431.338.364.606-.057.228-.261.379-.486.379z" fill="#c88c5a"/><path d="m31.5 25c-.276 0-.5-.224-.5-.5v-2c0-.276.224-.5.5-.5s.5.224.5.5v2c0 .276-.224.5-.5.5z" fill="#785ae6"/><path d="m23.5 25c-.276 0-.5-.224-.5-.5v-2c0-.276.224-.5.5-.5s.5.224.5.5v2c0 .276-.224.5-.5.5z" fill="#785ae6"/><path d="m38.5 39c-.276 0-.5-.224-.5-.5v-6.76c0-.276.224-.5.5-.5s.5.224.5.5v6.76c0 .276-.224.5-.5.5z" fill="#785ae6"/><path d="m28.444 39c-.276 0-.5-.224-.5-.5v-4c0-.276.224-.5.5-.5s.5.224.5.5v4c0 .276-.223.5-.5.5z" fill="#785ae6"/><path d="m31.5 24.041c-.125 0-.249-.046-.347-.14-.199-.191-.205-.508-.014-.707l1-1.041c.191-.2.508-.205.707-.014s.205.508.014.707l-1 1.041c-.097.103-.229.154-.36.154z" fill="#785ae6"/><path d="m23.5 24.041c-.131 0-.263-.051-.36-.154l-1-1.041c-.191-.199-.186-.516.014-.707.201-.19.516-.186.707.014l1 1.041c.191.199.186.516-.014.707-.098.094-.222.14-.347.14z" fill="#785ae6"/><path d="m34.5 22c-.209 0-.404-.132-.475-.342-.35-1.05-1.013-1.651-1.971-1.788-.738-.106-1.391.102-1.396.104-.261.089-.545-.054-.633-.316-.087-.262.055-.545.316-.632.035-.012.876-.285 1.854-.146.938.134 2.182.67 2.779 2.462.087.262-.055.545-.316.632-.053.018-.105.026-.158.026z" fill="#785ae6"/><path d="m26.5 34.454s-1.111 1.046 1.945 2.046 10.055 0 12.055-3v6h-14z" fill="#aad2ff"/><g fill="#785ae6"><path d="m31.336 37.375c-1.171 0-2.234-.133-3.047-.399-1.494-.489-2.298-1.076-2.458-1.794-.141-.63.278-1.046.326-1.091.2-.189.517-.18.707.021.187.198.18.508-.013.698-.017.02-.063.081-.043.161.022.085.214.538 1.791 1.055 2.903.951 9.669-.079 11.484-2.802.154-.23.465-.291.693-.139.229.153.292.463.139.693-1.601 2.402-6.073 3.597-9.579 3.597z"/><path d="m32 27c-2.206 0-4-1.794-4-4 0-.276.224-.5.5-.5s.5.224.5.5c0 1.654 1.346 3 3 3s3-1.346 3-3c0-.276.224-.5.5-.5h2.582c.276 0 .5.224.5.5s-.224.5-.5.5h-2.113c-.247 1.97-1.933 3.5-3.969 3.5z"/><path d="m23 27c-2.206 0-4-1.794-4-4 0-.276.224-.5.5-.5s.5.224.5.5c0 1.654 1.346 3 3 3 .382 0 .755-.071 1.107-.211.258-.103.547.024.649.281.102.256-.023.547-.28.649-.471.186-.967.281-1.476.281z"/><path d="m26.5 28c-1.738 0-2.893-1.292-2.893-2.146 0-.243.089-.461.249-.616.114-.109.317-.238.644-.238.289 0 1.034-1.186 1.525-2.658.089-.262.372-.403.633-.316.262.087.403.37.316.632-.321.964-1.174 3.155-2.327 3.331.042.094.123.223.258.363.188.195.718.648 1.595.648.276 0 .5.224.5.5s-.224.5-.5.5z"/><path d="m27.722 31.028c-1.884 0-2.724-.824-2.775-.877-.193-.197-.189-.514.008-.707.196-.192.508-.19.702.003.031.029 1.619 1.463 5.644-.294.254-.11.548.004.658.258.11.253-.005.548-.258.658-1.655.722-2.968.959-3.979.959z"/><path d="m32.501 30.301c-.032 0-.064-.003-.097-.009-1.962-.383-2.454-1.644-2.475-1.698-.097-.258.035-.546.294-.643.254-.096.541.032.641.286.019.045.361.806 1.731 1.073.271.053.448.315.396.586-.047.24-.256.405-.49.405z"/><path d="m31.5 35h-4c-4.416 0-7.5-2.262-7.5-5.5 0-2.036.441-2.8.763-3.358.165-.284.237-.419.237-.642 0-.358-.175-1.13-.36-1.948-.13-.575-.272-1.204-.389-1.83-.051-.271.128-.533.399-.583.265-.046.532.128.583.4.114.613.254 1.229.382 1.792.215.949.385 1.699.385 2.169 0 .5-.188.827-.371 1.142-.28.486-.629 1.09-.629 2.858 0 2.649 2.673 4.5 6.5 4.5h4c.276 0 .5.224.5.5s-.224.5-.5.5z"/><path d="m38.41 32.182c-.094 0-.188-.026-.273-.081-.231-.151-.296-.461-.146-.692.613-.94 1.009-2.082 1.009-2.909 0-.276.224-.5.5-.5h2c1.379 0 2.5-1.122 2.5-2.5v-1c0-1.378-1.121-2.5-2.5-2.5h-1.812c-.276 0-.5-.224-.5-.5s.224-.5.5-.5h1.812c1.93 0 3.5 1.57 3.5 3.5v1c0 1.93-1.57 3.5-3.5 3.5h-1.532c-.115.932-.529 2.02-1.139 2.955-.096.147-.256.227-.419.227z"/></g><path d="m34.5 41c-.275 0-.499-.223-.5-.499 0-.276.224-.5.499-.501.029 0 2.896-.031 5.724-1.916.228-.152.539-.092.693.139.153.23.091.54-.139.693-3.09 2.06-6.148 2.084-6.277 2.084z" fill="#96bef0"/><path d="m23.5 14.5c2 4 0 7-3 7s-.086-3.204-.086-3.204l1.565-4.779z" fill="#dcdcd2"/><path d="m20.5 22c-2.215 0-3.688-.547-4.779-1.773-.184-.206-.165-.522.042-.706.204-.185.521-.166.706.042.895 1.007 2.101 1.437 4.031 1.437 1.193 0 2.21-.537 2.788-1.474.761-1.231.676-2.981-.235-4.803-1.342-2.684-.559-4.896.521-5.974.921-.92 2.158-1.193 3.15-.697 2.36 1.18 1.297 4.466 1.251 4.605-.088.261-.366.404-.632.316-.262-.087-.403-.37-.317-.631.009-.026.837-2.603-.749-3.396-.612-.306-1.377-.111-1.996.509-.844.844-1.438 2.612-.333 4.82 1.069 2.138 1.139 4.243.191 5.776-.765 1.239-2.091 1.949-3.639 1.949z" fill="#f0f0e6"/><path d="m42.5 17.5-6 2v-2l6-2z" fill="#e678a0"/><path d="m36.5 20c-.104 0-.206-.032-.292-.094-.131-.094-.208-.245-.208-.406v-2c0-.215.138-.406.342-.474l6-2c.153-.053.319-.025.45.068.131.094.208.245.208.406v2c0 .215-.138.406-.342.474l-6 2c-.052.018-.105.026-.158.026zm.5-2.14v.946l5-1.667v-.946zm5.5-.36h.01z" fill="#fa8cb4"/></svg>