<svg enable-background="new 0 0 64 64" height="512" viewBox="0 0 64 64" width="512" xmlns="http://www.w3.org/2000/svg"><path d="m43.5 37.5s5 2 9 5 4 7 4 12 0 8 0 8h-43s0-4 0-8 0-10 4-12 7-3 7-3z" fill="#ffe885"/><path d="m13.5 62.5h43s0-.708 0-2h-43z" fill="#f0dc78"/><path d="m52.5 42.5c-4-3-9-5-9-5l-19 2s-3 1-7 3-4 8-4 12v2c0-4 0-10 4-12s7-3 7-3l19-2s5 2 9 5 4 7 4 12c0-.626 0-1.29 0-2 0-5 0-9-4-12z" fill="#fffa96"/><g fill="#f0dc78"><path d="m46.5 63c-.276 0-.5-.224-.5-.5v-12c0-.276.224-.5.5-.5s.5.224.5.5v12c0 .276-.224.5-.5.5z"/><path d="m17.5 63c-.276 0-.5-.224-.5-.5v-12c0-.276.224-.5.5-.5s.5.224.5.5v12c0 .276-.224.5-.5.5z"/><path d="m30.5 63c-.276 0-.5-.224-.5-.5v-12c0-.276.224-.5.5-.5s.5.224.5.5v12c0 .276-.224.5-.5.5z"/></g><path d="m29.445 34.5v9l1.555 5.5 3-5 5.5-.5v-16.76z" fill="#c88c5a"/><path d="m29.444 44c-.276 0-.5-.224-.5-.5v-9c0-.276.224-.5.5-.5s.5.224.5.5v9c0 .276-.223.5-.5.5z" fill="#785ae6"/><path d="m29.445 36.412s-3.945 1.088-4.945 4.088c-.544 1.633-1.089 3.86-1.472 5.549-.054.236.267.353.385.142.495-.887 1.19-1.691 2.087-1.691 2 0 5 6 5 6z" fill="#ffe885"/><path d="m29.585 38.281-.14-1.869s-3.945 1.088-4.945 4.088c-.084.253-.169.525-.253.802 1.676-1.372 4.051-2.477 5.338-3.021z" fill="#fffa96"/><path d="m30.5 51c-.186 0-.361-.104-.447-.276-1.189-2.377-3.388-5.724-4.553-5.724-.702 0-1.285.78-1.65 1.435-.174.312-.54.448-.876.319-.329-.126-.512-.469-.433-.815.146-.645.257-1.359.374-2.115.183-1.182.372-2.403.717-3.437 1.073-3.22 5.498-4.409 5.687-4.458.143-.038.297-.01.417.077.12.086.196.222.208.369l1.056 14.088c.018.238-.136.456-.366.52-.045.011-.09.017-.134.017zm-5-7c1.482 0 3.205 2.378 4.33 4.249l-.837-11.167c-1.16.413-3.719 1.54-4.412 3.621-.318.954-.501 2.133-.678 3.274-.046.294-.091.582-.137.862.529-.558 1.109-.839 1.734-.839z" fill="#f0dc78"/><path d="m30.499 51c-.259 0-.478-.2-.498-.462l-1.008-13.457c-.973.344-2.924 1.188-3.885 2.671-.15.232-.459.298-.692.147-.231-.15-.297-.46-.147-.691 1.519-2.341 4.907-3.243 5.05-3.28.146-.038.297-.009.417.077s.196.222.208.369l1.056 14.088c.021.275-.187.516-.462.536-.014.002-.026.002-.039.002z" fill="#785ae6"/><path d="m39.5 44c-.276 0-.5-.224-.5-.5v-16.76c0-.276.224-.5.5-.5s.5.224.5.5v16.76c0 .276-.224.5-.5.5z" fill="#785ae6"/><path d="m30.5 50.5s3-6 5-9 5-7 5-7l3 3s-.642 5.78-1.412 9.62c-.168.84-1.266 1.098-1.772.407-1.827-2.495-5.571-5.516-9.816 2.973z" fill="#ffe885"/><path d="m43.261 39.281c.149-1.068.239-1.781.239-1.781l-3-3s-.398.531-.997 1.346z" fill="#fffa96"/><path d="m30.5 51c-.075 0-.151-.017-.224-.053-.247-.124-.347-.424-.224-.671h.001c.004-.009.009-.017.013-.026.25-.499 3.071-6.107 5.018-9.026 1.984-2.977 4.986-6.982 5.016-7.022.087-.116.221-.188.365-.199s.287.042.389.145l3 3c.107.107.16.258.144.409-.007.058-.654 5.846-1.419 9.663-.118.591-.56 1.04-1.152 1.17-.585.126-1.163-.088-1.513-.566-.862-1.178-2.215-2.559-3.833-2.418-1.693.144-3.399 1.893-5.073 5.2-.036.074-.058.115-.06.12-.089.173-.265.274-.448.274zm5.801-6.605c1.533 0 3.055.975 4.419 2.837.164.224.397.2.49.18.076-.017.328-.095.388-.39.669-3.336 1.248-8.211 1.378-9.338l-2.42-2.42c-.846 1.139-3.066 4.155-4.64 6.515-.63.945-1.366 2.202-2.075 3.474.706-.5 1.426-.782 2.155-.844.102-.01.203-.014.305-.014z" fill="#f0dc78"/><path d="m30.5 51c-.075 0-.151-.017-.224-.053-.247-.124-.347-.424-.224-.671.123-.246 3.037-6.062 5.031-9.054 1.984-2.977 4.986-6.982 5.016-7.022.087-.116.221-.188.365-.199s.287.042.389.145l3 3c.195.195.195.512 0 .707s-.512.195-.707 0l-2.591-2.591c-.846 1.139-3.066 4.155-4.64 6.515-1.96 2.939-4.938 8.887-4.969 8.946-.087.176-.263.277-.446.277z" fill="#785ae6"/><circle cx="33" cy="52" fill="#a99be0" r="1"/><circle cx="33" cy="59" fill="#a99be0" r="1"/><path d="m56.5 63h-43c-.276 0-.5-.224-.5-.5v-8c0-4.105 0-10.309 4.276-12.447 3.985-1.993 7.035-3.017 7.065-3.027.262-.088.545.054.633.316.087.262-.055.545-.316.632-.029.01-3.017 1.014-6.935 2.973-3.723 1.862-3.723 7.694-3.723 11.553v7.5h42v-7.5c0-4.889 0-8.75-3.8-11.6-3.898-2.924-8.837-4.916-8.886-4.936-.257-.103-.381-.394-.278-.65.102-.257.393-.381.649-.279.207.083 5.107 2.059 9.114 5.064 4.201 3.151 4.201 7.438 4.201 12.401v8c0 .276-.224.5-.5.5z" fill="#785ae6"/><path d="m21.5 18.591s-2-2.182-2-4.364 2-4.364 4-5.455c0 0 1-3.273 5-4.364s10 0 12 3.273c0 0 5 1.091 5 6.545s-3 10.909-3 10.909 0 2.182-1 3.273-3 1.091-3 1.091z" fill="#826ec8"/><path d="m23.5 10.773s1-3.273 5-4.364 10 0 12 3.273c0 0 4.475.984 4.952 5.717.029-.389.048-.78.048-1.172 0-5.455-5-6.545-5-6.545-2-3.273-8-4.364-12-3.273s-5 4.364-5 4.364c-2 1.091-4 3.273-4 5.455 0 .342.061.681.143 1.014.476-1.831 2.16-3.544 3.857-4.469z" fill="#8d7bd4"/><path d="m38.5 30c-.096 0-.189-.027-.271-.079l-17-10.909c-.036-.023-.069-.051-.098-.083-.087-.095-2.131-2.352-2.131-4.702 0-2.385 2.09-4.647 4.092-5.799.297-.767 1.59-3.496 5.276-4.501 4.159-1.133 10.22-.038 12.45 3.324.998.297 5.182 1.851 5.182 6.976 0 5.158-2.564 10.214-3.003 11.04-.018.518-.148 2.411-1.129 3.48-1.135 1.239-3.277 1.253-3.368 1.253zm-16.672-11.792 16.811 10.787c.438-.024 1.794-.161 2.493-.923.712-.778.868-2.383.868-2.936 0-.084.021-.167.062-.241.029-.053 2.938-5.41 2.938-10.668 0-4.994-4.561-6.047-4.606-6.057-.134-.029-.249-.111-.32-.228-1.85-3.027-7.564-4.108-11.441-3.051-3.691 1.006-4.645 3.998-4.653 4.027-.038.125-.124.23-.239.293-1.86 1.015-3.741 3.062-3.741 5.016 0 1.795 1.556 3.667 1.828 3.981z" fill="#785ae6"/><path d="m40.5 18.5h1c1.657 0 3 1.343 3 3v2c0 1.657-1.343 3-3 3h-2v1c0 3.866-3.134 7-7 7h-5c-3.314 0-6-2.686-6-6v-11s0-3 3-5c0 0 0 3 3 3s5-3 7-3 5 2 4 4-2 4-1 5c2 2 3-3 3-3z" fill="#e1a271"/><g fill="#785ae6"><path d="m23.5 24c-.276 0-.5-.224-.5-.5v-2c0-.276.224-.5.5-.5s.5.224.5.5v2c0 .276-.224.5-.5.5z"/><path d="m31.5 31h-5c-.276 0-.5-.224-.5-.5s.224-.5.5-.5h5c.276 0 .5.224.5.5s-.224.5-.5.5z"/><path d="m32.5 35h-5c-3.584 0-6.5-2.916-6.5-6.5v-10.336c0-.276.224-.5.5-.5s.5.224.5.5v10.336c0 3.033 2.468 5.5 5.5 5.5h5c3.584 0 6.5-2.916 6.5-6.5v-1c0-.276.224-.5.5-.5h2c1.379 0 2.5-1.122 2.5-2.5v-2c0-1.378-1.121-2.5-2.5-2.5h-1c-.276 0-.5-.224-.5-.5s.224-.5.5-.5h1c1.93 0 3.5 1.57 3.5 3.5v2c0 1.93-1.57 3.5-3.5 3.5h-1.5v.5c0 4.136-3.364 7.5-7.5 7.5z"/><path d="m25.5 27c-1.153 0-2.5-.393-2.5-1.5 0-1.064 1.71-4.538 2.053-5.224.124-.247.425-.345.671-.224.247.124.347.424.224.671-.809 1.618-1.948 4.169-1.948 4.777 0 .301.902.5 1.5.5.276 0 .5.224.5.5s-.224.5-.5.5z"/><path d="m30.5 24c-.276 0-.5-.224-.5-.5v-2c0-.276.224-.5.5-.5s.5.224.5.5v2c0 .276-.224.5-.5.5z"/><path d="m33.5 21c-.128 0-.256-.049-.354-.146-2.586-2.585-4.228-1.062-4.296-.997-.197.192-.513.188-.706-.008-.191-.196-.192-.508.002-.702.023-.023 2.394-2.314 5.707 1 .195.195.195.512 0 .707-.097.097-.225.146-.353.146z"/><path d="m24.5 20c-.127 0-.254-.048-.352-.145-.112-.108-1.126-1.036-2.344-.083-.215.169-.532.132-.701-.086-.171-.217-.132-.532.086-.702 1.556-1.215 3.077-.425 3.664.162.195.195.195.512 0 .707-.097.098-.225.147-.353.147z"/></g><path d="m31.5 35.5h3c2.761 0 5-2.239 5-5v-3.348c-1.004 0-2.916 2.627-4.008 3.848-1.091 1.221-.992.477-.992-.493 0-1.94-3.604-2.506-6.838-2.506s-3.92 1.01-3.92 2.506.394 1.536-.242.93-.94-4.042-2.003-4.042l.001 3.107c.001 2.761 2.239 4.998 5 4.998zm-.659-1.92c-.977-.109-.869-1.097-.869-1.58s-3.441-.529-3.441 0c0 .76-.211 1.409-1.214 1.363-.614-.029-.47-1.363-.47-1.363 0-1.605-.231-2.655 2.653-2.655s5.789.486 5.789 1.655-.644 2.78-2.448 2.58z" fill="#826ec8"/><path d="m31.5 36h-5.002c-3.031 0-5.499-2.467-5.5-5.499l-.001-3.106c0-.276.224-.5.5-.5s.5.224.5.5l.001 3.106c.001 2.48 2.02 4.499 4.5 4.499h5.002c.276 0 .5.224.5.5s-.224.5-.5.5z" fill="#785ae6"/><path d="m38.278 24.313c-1.058 0-1.788-.613-2.09-.924-.192-.198-.188-.515.01-.707.199-.192.516-.188.707.01.379.39 1.024.798 1.916.541.27-.077.543.077.619.342.076.266-.077.542-.342.619-.291.084-.565.119-.82.119z" fill="#826ec8"/><path d="m37.769 26.059c-1.053 0-1.619-.551-1.649-.581-.195-.195-.195-.512 0-.707.193-.194.506-.195.701-.005.035.031.573.5 1.651.185.264-.081.543.073.62.338.078.265-.073.543-.339.621-.364.107-.692.149-.984.149z" fill="#826ec8"/></svg>