<svg enable-background="new 0 0 64 64" height="512" viewBox="0 0 64 64" width="512" xmlns="http://www.w3.org/2000/svg"><path d="m15.5 32.5s3 2 3-3 0-6 0-9 0-15 13-15 16 7 16 14-.028 17.308-9 15.578c-3-.578-2-.945 0-1.762v-3.816h-11.75s.75 6-5.25 6-6-3-6-3z" fill="#968cd2"/><path d="m31.5 7.5c12.78 0 15.893 6.765 15.995 13.644.004-.562.005-1.113.005-1.644 0-7-3-14-16-14s-13 12-13 15v2c0-3 0-15 13-15z" fill="#a99be0"/><path d="m21.5 36c-6.426 0-6.5-3.357-6.5-3.5 0-.185.102-.354.264-.44.163-.088.359-.077.514.024.007.004.82.521 1.393.213.534-.29.829-1.283.829-2.797v-9c0-12.811 7.342-15.5 13.5-15.5 10.948 0 16.5 4.879 16.5 14.5 0 5.06 0 11.988-3.531 14.904-1.521 1.255-3.562 1.646-6.063 1.165-.271-.053-.448-.314-.396-.586s.317-.446.586-.396c2.23.431 3.941.118 5.237-.954 3.167-2.615 3.167-9.273 3.167-14.133 0-9.084-5.07-13.5-15.5-13.5-8.294 0-12.5 4.879-12.5 14.5v9c0 1.958-.458 3.196-1.361 3.68-.434.232-.89.247-1.293.178.524.723 1.841 1.642 5.154 1.642 1.611 0 2.837-.462 3.641-1.373 1.404-1.59 1.116-4.04 1.113-4.064-.018-.143.026-.286.121-.394s.231-.169.375-.169h11.75c.276 0 .5.224.5.5s-.224.5-.5.5h-11.22c.016.939-.127 2.858-1.39 4.289-1.001 1.136-2.479 1.711-4.39 1.711z" fill="#785ae6"/><ellipse cx="22.25" cy="24.114" fill="#ffe885" rx="4.75" ry="5.614"/><path d="m22.25 30.228c-2.895 0-5.25-2.743-5.25-6.114s2.355-6.114 5.25-6.114 5.25 2.742 5.25 6.113-2.355 6.115-5.25 6.115zm0-11.228c-2.344 0-4.25 2.294-4.25 5.113 0 2.82 1.906 5.114 4.25 5.114s4.25-2.294 4.25-5.114c0-2.819-1.906-5.113-4.25-5.113z" fill="#785ae6"/><path d="m23.113 28.186c-1.942 0-3.522-1.827-3.522-4.072s1.58-4.072 3.522-4.072 3.523 1.827 3.523 4.072-1.58 4.072-3.523 4.072zm0-7.145c-1.391 0-2.522 1.378-2.522 3.072s1.132 3.072 2.522 3.072c1.392 0 2.523-1.378 2.523-3.072s-1.131-3.072-2.523-3.072z" fill="#785ae6"/><path d="m38.5 28.5v9.254h.001c14.999 3.876 15.999 6.895 15.999 13.746v11h-37s0-5.505 0-9.818c0-7.182-.055-11.182 11.945-14.182v-4z" fill="#c88c5a"/><path d="m38.501 37.754-.001 2h.001c14.999 3.876 15.999 6.895 15.999 13.746 0-.633 0-1.29 0-2 0-6.851-1-9.87-15.999-13.746z" fill="#e1a271"/><path d="m29.445 40.5v-2c-12 3-11.945 7-11.945 14.182v2c0-7.182-.055-11.182 11.945-14.182z" fill="#e1a271"/><path d="m17.5 62.5h37s0-.611 0-2h-37z" fill="#b47846"/><path d="m33.5 44c-7.414 0-7.5-4.62-7.5-4.667 0-.276.224-.5.5-.5.275 0 .498.223.5.497.003.159.138 3.67 6.5 3.67 6.669 0 9.604-3.922 9.632-3.962.163-.223.477-.271.699-.109.223.163.271.476.109.699-.129.178-3.268 4.372-10.44 4.372zm-6.5-4.667h.01z" fill="#f0f0e6"/><g fill="#e678a0"><path d="m45.5 52.775c-.276 0-.5-.224-.5-.5v-2.775c-.02-.229-.474-6.534 1.865-9.481.171-.218.487-.253.702-.081.217.172.253.486.081.702-2.098 2.645-1.654 8.761-1.649 8.822l.001 2.813c0 .277-.224.5-.5.5z"/><path d="m20.5 51.75c-.053 0-.105-.008-.158-.025-.262-.088-.403-.371-.316-.633.423-1.268.851-2.371.975-2.687v-6.825c0-.276.224-.5.5-.5s.5.224.5.5v6.92c0 .063-.012.127-.036.186-.005.013-.5 1.255-.989 2.723-.072.208-.267.341-.476.341z"/><path d="m45.379 52.015c-.079.02-8.031 1.985-15.879 1.985-7.438 0-8.515-2.876-8.522-2.897l-.459-1.491-.493 1.48c-.681 2.042-1.026 3.525-1.026 4.408 0 1.096.526 2.413 1.036 3.686.474 1.185.964 2.41.964 3.314v.5h25v-11.141z"/></g><path d="m21 62.5h25v-2h-25.463c.261.732.463 1.432.463 2z" fill="#d2648c"/><path d="m21.5 13.5v14c0 3.866 3.134 7 7 7h5c3.314 0 6-2.686 6-6h2c1.657 0 3-1.343 3-3v-1c0-1.657-1.343-3-3-3h-2v-8z" fill="#e1a271"/><path d="m31.5 46.999c-.128 0-.255-.048-.353-.145-.24-.238-1.001-.854-1.647-.854-1.087 0-3.008-.945-3.224-1.053-.247-.123-.347-.424-.224-.671.125-.246.424-.347.671-.224.528.264 2.055.948 2.777.948 1.173 0 2.236 1.029 2.354 1.146.195.195.195.511 0 .706-.098.098-.226.147-.354.147z" fill="#be7846"/><g fill="#785ae6"><path d="m38.376 32.24c-.102 0-.203-.03-.291-.094-.225-.16-.276-.473-.115-.697.664-.928 1.03-1.976 1.03-2.949 0-.276.224-.5.5-.5h2c1.379 0 2.5-1.121 2.5-2.5v-1c0-1.379-1.121-2.5-2.5-2.5h-1.812c-.276 0-.5-.224-.5-.5s.224-.5.5-.5h1.812c1.93 0 3.5 1.57 3.5 3.5v1c0 1.93-1.57 3.5-3.5 3.5h-1.524c-.1 1.034-.507 2.073-1.193 3.031-.098.137-.252.209-.407.209z"/><path d="m31.5 35h-3c-4.136 0-7.5-3.364-7.5-7.5v-10c0-.276.224-.5.5-.5s.5.224.5.5v10c0 3.584 2.916 6.5 6.5 6.5h3c.276 0 .5.224.5.5s-.224.5-.5.5z"/><path d="m31.5 26c-.276 0-.5-.224-.5-.5v-3c0-.276.224-.5.5-.5s.5.224.5.5v3c0 .276-.224.5-.5.5z"/><path d="m23.5 26c-.276 0-.5-.224-.5-.5v-3c0-.276.224-.5.5-.5s.5.224.5.5v3c0 .276-.224.5-.5.5z"/><path d="m26.5 28c-1.738 0-2.893-1.292-2.893-2.146 0-.242.089-.461.249-.615.114-.11.317-.239.644-.239.289 0 1.034-1.186 1.525-2.658.089-.262.372-.402.633-.316.262.088.403.371.316.633-.321.964-1.174 3.155-2.327 3.331.042.094.123.223.258.363.188.194.718.647 1.595.647.276 0 .5.224.5.5s-.224.5-.5.5z"/><path d="m28.5 31c-2.472 0-2.5-1.438-2.5-1.5 0-.276.224-.5.5-.5.269 0 .487.211.499.476.029.183.378.524 1.501.524 2.23 0 2.506-.565 2.508-.571 0-.276.22-.465.496-.465s.496.26.496.536c0 .352-.252 1.5-3.5 1.5zm-1.5-1.5h.01z"/><path d="m31.5 24.041c-.125 0-.249-.046-.347-.14-.199-.191-.205-.508-.014-.707l1-1.041c.191-.198.508-.205.707-.014s.205.508.014.707l-1 1.041c-.097.102-.229.154-.36.154z"/><path d="m23.5 24.041c-.131 0-.263-.052-.36-.153l-1-1.041c-.191-.199-.186-.516.014-.707.201-.191.516-.185.707.014l1 1.041c.191.199.186.516-.014.707-.098.093-.222.139-.347.139z"/><path d="m34.5 22c-.209 0-.404-.133-.475-.342-.35-1.05-1.013-1.651-1.971-1.788-.738-.106-1.391.103-1.396.104-.261.089-.545-.055-.633-.316-.087-.262.055-.545.316-.633.035-.011.876-.286 1.854-.146.938.134 2.182.67 2.779 2.462.087.262-.055.545-.316.633-.053.018-.105.026-.158.026z"/><path d="m21.5 21.326c-.088 0-.176-.022-.256-.07-.237-.142-.315-.449-.174-.686 1.162-1.947 3.42-1.58 3.516-1.562.271.047.454.306.406.578-.047.271-.302.45-.577.407-.077-.016-1.684-.257-2.485 1.089-.094.157-.26.244-.43.244z"/><path d="m54.5 63h-37c-.276 0-.5-.224-.5-.5v-9.817c0-7.188.001-11.497 11.944-14.571v-3.612c0-.276.224-.5.5-.5s.5.224.5.5v4c0 .229-.156.43-.379.485-11.565 2.892-11.565 6.47-11.565 13.599v9.416h36v-10.5c0-6.402-.664-9.65-15.625-13.516-.221-.057-.375-.256-.375-.484v-5.76c0-.276.224-.5.5-.5s.5.224.5.5v5.373c14.543 3.808 16 7.162 16 14.387v11c0 .276-.224.5-.5.5z"/><path d="m54.5 63h-37c-.276 0-.5-.224-.5-.5v-9.817c0-5.434 0-9.291 5.263-12.142.242-.131.545-.043.678.201.132.243.042.546-.201.678-4.74 2.567-4.74 5.805-4.74 11.167v9.413h36v-10.5c0-5.057-.602-7.725-6.094-10.329-.25-.119-.356-.417-.238-.666.119-.25.422-.354.666-.238 6.202 2.941 6.666 6.357 6.666 11.233v11c0 .276-.224.5-.5.5zm-36.5-.5h.01z"/></g><path d="m35.5 46.999c-.128 0-.256-.049-.354-.146-.195-.195-.195-.511 0-.706.118-.118 1.181-1.147 2.354-1.147.77 0 3.782-.711 4.879-.985.27-.066.539.096.606.364.066.268-.097.539-.364.606-.415.104-4.089 1.015-5.121 1.015-.646 0-1.407.616-1.647.854-.098.097-.225.145-.353.145z" fill="#be7846"/><path d="m35.5 7.5c3.13 1.789 1 7-5 9s-9 3-9 5c0 0-4-1-2-7s9-11 16-7z" fill="#968cd2"/><path d="m11.5 33.5c1.581 1.581-4.257 8.705-7 5-2.145-2.898 4-8 7-5z" fill="#e678a0"/><path d="m6.449 40.055c-.932 0-1.737-.428-2.351-1.257-1.244-1.681-.214-3.8 1.359-5.155 1.783-1.536 4.545-2.348 6.396-.496.312.312.609.919.25 2.036-.639 1.986-2.964 4.473-5.121 4.827-.181.03-.36.045-.533.045zm2.793-6.973c-1.089 0-2.249.558-3.132 1.317-1.183 1.02-2.065 2.645-1.208 3.803.505.682 1.135.952 1.918.821 1.753-.288 3.804-2.505 4.331-4.147.155-.481.153-.864-.005-1.022-.544-.545-1.209-.772-1.904-.772z" fill="#785ae6"/><path d="m11.5 34c-.204 0-.396-.126-.47-.329l-4-11c-.095-.26.039-.547.299-.641.262-.096.547.039.641.299l4 11c.095.26-.039.547-.299.641-.057.02-.114.03-.171.03z" fill="#785ae6"/><path d="m8.591 25.5s3.909 0 5.909-3l-1-4s-3 4-6 4z" fill="#e678a0"/><path d="m8.591 26c-.21 0-.398-.132-.47-.329l-1.091-3c-.056-.153-.033-.324.061-.458.093-.134.246-.213.409-.213 2.713 0 5.571-3.762 5.601-3.8.115-.155.312-.228.499-.19.188.038.339.182.386.369l1 4c.034.137.009.281-.069.398-2.125 3.186-6.155 3.223-6.326 3.223zm-.399-3.06.741 2.039c.928-.082 3.514-.496 5.026-2.578l-.706-2.823c-.978 1.098-2.94 3.001-5.061 3.362z" fill="#785ae6"/><path d="m55.478 12.422c.43 1.588-5.904 3.998-6.298.629-.308-2.635 5.482-3.642 6.298-.629z" fill="#fffa96"/><path d="m51.405 15.248c-.445 0-.868-.062-1.24-.2-.858-.321-1.371-.992-1.482-1.938-.163-1.396.986-2.576 2.86-2.938 1.756-.34 3.893.178 4.418 2.119.095.35.063.896-.624 1.523-.884.806-2.518 1.434-3.932 1.434zm1.155-4.174c-.278 0-.558.027-.826.079-1.07.207-2.171.87-2.057 1.839.065.566.34.933.839 1.118 1.184.445 3.236-.205 4.148-1.035.261-.238.354-.438.332-.522-.286-1.055-1.35-1.479-2.436-1.479z" fill="#785ae6"/><path d="m55.479 12.922c-.028 0-.058-.002-.087-.008-.271-.047-.454-.306-.406-.578l1.474-8.485c.047-.272.301-.463.578-.406.271.047.454.306.406.578l-1.474 8.485c-.041.243-.252.414-.491.414z" fill="#785ae6"/><path d="m56.55 6.251s2.495 1.431 4.87.248l.826-2.919s-3.379 1.455-5.294.357z" fill="#fffa96"/><path d="m59.367 7.47c-1.67 0-2.988-.74-3.066-.785-.182-.104-.279-.312-.243-.52l.402-2.314c.027-.16.132-.298.279-.366.15-.07.319-.062.462.019 1.675.962 4.816-.368 4.848-.382.177-.077.384-.043.527.083.145.128.203.326.151.512l-.826 2.919c-.039.136-.133.249-.259.312-.776.385-1.558.522-2.275.522zm-2.261-1.504c.669.294 2.313.855 3.895.177l.499-1.764c-1.048.325-2.773.706-4.164.267z" fill="#785ae6"/><path d="m34.5 12.5s0 8 5 9h2s0-5 0-8-5.02-5.104-5.02-5.104z" fill="#968cd2"/><path d="m41.5 22h-2c-3.931-.775-5.047-5.193-5.371-7.758-.034-.273.159-.524.434-.559.27-.039.523.159.559.434.29 2.298 1.258 6.249 4.477 6.893l1.401-.007v-7.503c0-2.188-3.402-4.094-4.713-4.644-.255-.106-.375-.399-.268-.654.105-.255.397-.375.654-.268.219.091 5.327 2.271 5.327 5.566v8c0 .276-.224.5-.5.5z" fill="#785ae6"/><path d="m41.5 7.5c-4-4-11-4-15-3-3.881.97-7.277 4.904-7.277 10.952l.004-.002c.076-.304.162-.617.273-.95 2-6 9-11 16-7 .493.282.841.656 1.079 1.081 1.946 1.974 2.921 4.014 2.921 10.919h5s1-8-3-12z" fill="#ffe885"/><path d="m19.5 14.5c.011-.034.028-.067.039-.101.926-4.312 3.779-7.103 6.961-7.899 4-1 11-1 15 3 2.367 2.367 2.979 6.127 3.088 8.809.105-2.375-.032-7.753-3.088-10.809-4-4-11-4-15-3-3.881.97-7.277 4.904-7.277 10.952l.004-.002c.075-.303.162-.616.273-.95z" fill="#fffa96"/><path d="m44.5 20h-5c-.276 0-.5-.224-.5-.5 0-6.668-.88-8.673-2.854-10.646-.195-.195-.195-.512 0-.707s.512-.195.707 0c2.123 2.123 3.099 4.227 3.145 10.854h4.047c.131-1.696.358-7.89-2.898-11.146-4.113-4.115-11.299-3.676-14.526-2.87-3.434.857-6.898 4.427-6.898 10.467 0 .276-.224.5-.5.5s-.5-.224-.5-.5c0-6.579 3.846-10.485 7.656-11.438 4.758-1.187 11.628-.714 15.475 3.132 4.126 4.125 3.185 12.079 3.143 12.416-.032.25-.245.438-.497.438z" fill="#785ae6"/><path d="m21.5 22c-.04 0-.081-.005-.121-.015-.062-.016-1.503-.392-2.348-1.931-.789-1.437-.79-3.358-.006-5.713 1.222-3.665 4.125-6.761 7.577-8.08 3.034-1.16 6.195-.881 9.146.804 1.199.686 1.808 1.883 1.668 3.284-.223 2.25-2.398 5.172-6.758 6.625-5.583 1.861-8.658 2.886-8.658 4.526 0 .154-.071.3-.192.395-.089.069-.198.105-.308.105zm8.824-15.438c-1.128 0-2.256.211-3.364.635-3.18 1.214-5.856 4.073-6.985 7.462-.693 2.079-.716 3.733-.067 4.915.352.641.835 1.013 1.198 1.218.591-1.884 3.676-2.912 9.236-4.766 3.913-1.304 5.895-3.908 6.079-5.774.071-.712-.075-1.691-1.169-2.316-1.598-.915-3.263-1.374-4.928-1.374z" fill="#785ae6"/><ellipse cx="41.25" cy="24.114" fill="#ffe885" rx="4.75" ry="5.614"/><path d="m41.25 30.228c-2.895 0-5.25-2.743-5.25-6.114s2.355-6.114 5.25-6.114 5.25 2.742 5.25 6.113-2.355 6.115-5.25 6.115zm0-11.228c-2.344 0-4.25 2.294-4.25 5.113 0 2.82 1.906 5.114 4.25 5.114s4.25-2.294 4.25-5.114c0-2.819-1.906-5.113-4.25-5.113z" fill="#785ae6"/><ellipse cx="42.114" cy="24.114" fill="#fffa96" rx="3.023" ry="3.572"/><ellipse cx="42.114" cy="24.114" fill="#aad2ff" rx="3.023" ry="3.572"/><path d="m42.113 28.186c-1.942 0-3.522-1.827-3.522-4.072s1.58-4.072 3.522-4.072 3.523 1.827 3.523 4.072-1.58 4.072-3.523 4.072zm0-7.145c-1.391 0-2.522 1.378-2.522 3.072s1.132 3.072 2.522 3.072c1.392 0 2.523-1.378 2.523-3.072s-1.131-3.072-2.523-3.072z" fill="#785ae6"/></svg>