<svg enable-background="new 0 0 64 64" height="512" viewBox="0 0 64 64" width="512" xmlns="http://www.w3.org/2000/svg"><path d="m17.5 53.146v9.354h37s0-2.329 0-8.354z" fill="#ffb4be"/><path d="m17.5 60.5v2h37s0-.615 0-2z" fill="#f0a0aa"/><path d="m38.5 31.74v5.76c8.708 2.25 12.698 4.297 14.513 6.959l-.004.003c2.491 3.038 3.491 8.038 3.491 8.038s-2 3.476-10 2.738v7.262h-25c0-2-2-5-2-7 0-.331.055-.744.146-1.203l-.008.05c-2.759-.468-4.138-1.847-4.138-1.847s2-7 3.666-8.752l-.003-.002c1.546-2.139 4.528-3.807 10.282-5.246v-4z" fill="#e678a0"/><path d="m21.067 60.5c.248.719.433 1.406.433 2h25s0-1.202 0-2z" fill="#d2648c"/><path d="m19.646 56.297-.008.05c-.014-.002-.026-.006-.04-.009.006.031.019.065.026.097.008-.047.012-.089.022-.138z" fill="#e678a0"/><path d="m27.5 39.094v-.068c-4.499 1.318-6.976 2.836-8.337 4.719l.003.002c-1.666 1.753-3.666 8.753-3.666 8.753s.173.166.492.395c.697-2.175 2.015-5.928 3.174-7.147l-.003-.002c1.166-1.614 3.153-2.96 6.53-4.142 1.074-.376 1.807-1.371 1.807-2.51z" fill="#fa8cb4"/><path d="m53.009 44.462.004-.003c-1.669-2.448-5.188-4.376-12.513-6.42v.496c0 .881.582 1.663 1.426 1.914 6.363 1.895 9.53 3.726 11.086 6.009l-.004.003c1.626 1.983 2.613 4.795 3.105 6.514.271-.281.387-.475.387-.475s-1-5-3.491-8.038z" fill="#fa8cb4"/><path d="m20.123 52.944c-.014 0-.028-.001-.042-.002-2.454-.208-3.625-1.268-4.254-1.837l-.089-.08c-.206-.185-.223-.501-.039-.706.185-.206.5-.224.706-.04l.093.085c.58.524 1.551 1.402 3.667 1.582.275.023.479.265.456.54-.023.261-.241.458-.498.458z" fill="#f0dc78"/><path d="m21.5 63c-.276 0-.5-.224-.5-.5 0-.903-.49-2.129-.964-3.314-.51-1.273-1.036-2.589-1.036-3.686 0-2.072 1.953-6.978 2.036-7.186.103-.256.396-.382.65-.278.256.103.381.394.279.649-.02.049-1.965 4.934-1.965 6.815 0 .903.49 2.129.964 3.314.51 1.273 1.036 2.589 1.036 3.686 0 .276-.224.5-.5.5z" fill="#d2648c"/><path d="m41.513 63c-.074 0-.149-.017-.22-.052-.094-.047-2.293-1.187-2.293-5.448 0-1.641.777-3.71 1.528-5.712 1.083-2.885 2.202-5.867.695-6.872-2.93-1.953-9.854-4.99-9.923-5.021-.253-.11-.369-.405-.258-.658.11-.253.405-.367.658-.258.288.126 7.075 3.104 10.077 5.104 2.167 1.445.906 4.806-.313 8.056-.72 1.919-1.464 3.902-1.464 5.361 0 3.593 1.672 4.518 1.743 4.555.242.128.339.428.215.672-.089.172-.264.273-.445.273z" fill="#d2648c"/><path d="m48.244 54.022c-1.09 0-1.78-.148-1.854-.166-.269-.061-.438-.327-.377-.597.061-.269.327-.437.597-.379.044.009 4.568.963 9.166-2.453.222-.166.535-.12.7.104.165.222.119.534-.103.699-3.159 2.346-6.243 2.792-8.129 2.792z" fill="#f0dc78"/><path d="m40.5 34.5c0-2-13-2-13 1v1.796h13z" fill="#e678a0"/><path d="m40.5 37.796h-13c-.276 0-.5-.224-.5-.5v-1.796c0-2.136 4.3-2.894 7.981-2.894 1.81 0 6.019.185 6.019 1.894v2.796c0 .276-.224.5-.5.5zm-12.5-1h12v-2.288c-.265-.647-4.859-1.316-8.892-.581-1.917.349-3.108.952-3.108 1.573z" fill="#785ae6"/><circle cx="19" cy="8" fill="#8d7bd4" r="6.5"/><path d="m19 3.5c3.249 0 5.933 2.386 6.415 5.5.051-.327.085-.659.085-1 0-3.59-2.91-6.5-6.5-6.5s-6.5 2.91-6.5 6.5c0 .341.034.673.085 1 .482-3.114 3.166-5.5 6.415-5.5z" fill="#968cd2"/><path d="m18.886 12.739c-.053 0-.108-.009-.162-.027-.095-.032-2.358-.837-3.83-3.92-1.481-3.105-.064-6.245-.002-6.377.116-.249.412-.359.663-.244.25.115.36.412.245.663-.013.028-1.278 2.854-.003 5.528 1.28 2.682 3.234 3.397 3.253 3.404.26.092.397.377.307.637-.071.206-.264.336-.471.336z" fill="#826ec8"/><path d="m20.161 10.752c-.095 0-.191-.027-.276-.084-.095-.063-2.335-1.577-3.111-4.084-.623-2.01-.259-4.123-.074-4.938.061-.271.326-.442.599-.377.269.061.438.329.377.598-.131.575-.513 2.592.054 4.422.672 2.17 2.69 3.533 2.71 3.547.23.153.292.463.139.693-.098.145-.256.223-.418.223z" fill="#826ec8"/><path d="m17.25 5.329c-.231 0-.438-.161-.489-.396-.057-.27.115-.535.385-.593.161-.034 3.984-.839 7.209-.574.275.021.48.263.458.538s-.253.472-.539.458c-3.077-.24-6.882.549-6.92.557-.034.006-.069.01-.104.01z" fill="#826ec8"/><path d="m17.633 7.202c-.232 0-.44-.162-.489-.398-.056-.271.117-.535.388-.591.179-.038 4.431-.906 7.878-.152.27.059.441.325.382.595s-.327.443-.595.382c-3.237-.706-7.42.146-7.462.154-.034.007-.068.01-.102.01z" fill="#826ec8"/><path d="m19 15c-3.86 0-7-3.141-7-7s3.14-7 7-7 7 3.141 7 7-3.14 7-7 7zm0-13c-3.309 0-6 2.691-6 6s2.691 6 6 6 6-2.691 6-6-2.691-6-6-6z" fill="#785ae6"/><path d="m21.5 20.5c-5-2-5-9 3-14 6.837-4.273 14 1 14 1s6-2 9 8-9 15-9 15z" fill="#8d7bd4"/><path d="m24.5 8.5c6.837-4.273 14 1 14 1s6-2 9 8c.224.748.356 1.465.424 2.157.133-1.274.026-2.658-.424-4.157-3-10-9-8-9-8s-7.163-5.273-14-1c-5.009 3.131-6.88 7.045-6.353 10.025.41-2.601 2.403-5.556 6.353-8.025z" fill="#968cd2"/><path d="m38.5 31c-.088 0-.176-.023-.253-.069l-16.968-9.98c-2.15-.874-3.496-2.642-3.694-4.854-.311-3.478 2.176-7.223 6.65-10.02 6.394-3.997 13.118.061 14.359.883.606-.137 2.224-.354 4.059.599 2.347 1.218 4.139 3.842 5.326 7.799 3.094 10.312-9.163 15.554-9.287 15.605-.062.024-.127.037-.192.037zm-8.204-25.657c-1.764 0-3.666.416-5.531 1.581-4.149 2.593-6.461 5.988-6.185 9.083.164 1.837 1.296 3.305 3.105 4.029.023.009.046.021.068.033l16.778 9.869c.735-.34 3.146-1.541 5.269-3.569 3.321-3.173 4.404-6.781 3.221-10.726-1.102-3.673-2.718-6.091-4.805-7.187-1.904-.999-3.494-.504-3.561-.482-.151.052-.322.024-.452-.071-.048-.036-3.559-2.56-7.907-2.56z" fill="#785ae6"/><path d="m29.445 32.5v6l9.055-1v-7.76z" fill="#ffb4be"/><path d="m21.5 13.5v14c0 3.866 3.134 7 7 7h5c3.314 0 6-2.686 6-6h2c1.657 0 3-1.343 3-3v-1c0-1.657-1.343-3-3-3h-2v-8z" fill="#ffc8d2"/><path d="m39.689 21.5c-5.811-2-5.189-8-5.189-8-6 7-13 4-13 4v-5h18z" fill="#8d7bd4"/><g fill="#785ae6"><path d="m38.375 32.24c-.101 0-.203-.03-.291-.094-.225-.16-.276-.473-.116-.697.666-.928 1.032-1.975 1.032-2.949 0-.276.224-.5.5-.5h2c1.378 0 2.5-1.121 2.5-2.5v-1c0-1.379-1.122-2.5-2.5-2.5h-1.811c-.276 0-.5-.224-.5-.5s.224-.5.5-.5h1.811c1.93 0 3.5 1.57 3.5 3.5v1c0 1.93-1.57 3.5-3.5 3.5h-1.524c-.1 1.034-.507 2.073-1.193 3.031-.098.137-.252.209-.408.209z"/><path d="m31.5 35h-3c-4.136 0-7.5-3.364-7.5-7.5v-10c0-.276.224-.5.5-.5s.5.224.5.5v10c0 3.584 2.916 6.5 6.5 6.5h3c.276 0 .5.224.5.5s-.224.5-.5.5z"/><path d="m31.5 26c-.276 0-.5-.224-.5-.5v-3c0-.276.224-.5.5-.5s.5.224.5.5v3c0 .276-.224.5-.5.5z"/><path d="m23.5 26c-.276 0-.5-.224-.5-.5v-3c0-.276.224-.5.5-.5s.5.224.5.5v3c0 .276-.224.5-.5.5z"/><path d="m26.5 28c-1.739 0-2.892-1.292-2.892-2.146 0-.242.088-.461.249-.615.112-.11.315-.239.643-.239.289 0 1.034-1.186 1.526-2.658.087-.261.371-.406.632-.316.262.088.403.371.316.633-.321.964-1.173 3.155-2.327 3.331.042.094.123.223.258.363.188.194.719.647 1.595.647.276 0 .5.224.5.5s-.224.5-.5.5z"/><path d="m28.5 31c-2.472 0-2.5-1.438-2.5-1.5 0-.276.224-.5.5-.5.268 0 .487.211.5.476.028.183.376.524 1.5.524 2.23 0 2.506-.565 2.508-.571 0-.276.22-.465.496-.465s.496.26.496.536c0 .352-.252 1.5-3.5 1.5zm-1.5-1.5h.01z"/><path d="m31.5 24.041c-.125 0-.25-.046-.346-.14-.199-.191-.206-.508-.014-.707l1-1.041c.192-.198.508-.206.707-.014.199.191.206.508.014.707l-1 1.041c-.099.102-.23.154-.361.154z"/><path d="m23.5 24.041c-.131 0-.262-.052-.36-.153l-1-1.041c-.191-.199-.185-.516.014-.707.198-.192.516-.185.707.014l1 1.041c.191.199.185.516-.014.707-.097.093-.222.139-.347.139z"/><path d="m34.5 22c-.209 0-.404-.133-.474-.342-.35-1.05-1.013-1.651-1.972-1.788-.738-.105-1.39.103-1.396.104-.265.087-.545-.056-.632-.316-.087-.262.054-.545.316-.633.035-.011.873-.285 1.854-.146.938.134 2.181.67 2.778 2.462.087.262-.054.545-.316.633-.053.018-.106.026-.158.026z"/></g><path d="m46.5 63c-.276 0-.5-.224-.5-.5v-10.011c0-.276.224-.5.5-.5s.5.224.5.5v10.011c0 .276-.224.5-.5.5z" fill="#d2648c"/><path d="m54.5 63h-37c-.276 0-.5-.224-.5-.5v-8.354c0-.276.224-.5.5-.5s.5.224.5.5v7.854h36v-7.854c0-.276.224-.5.5-.5s.5.224.5.5v8.354c0 .276-.224.5-.5.5z" fill="#785ae6"/><path d="m21.5 21.326c-.087 0-.175-.022-.256-.07-.237-.142-.314-.449-.173-.686 1.163-1.948 3.418-1.581 3.515-1.562.272.047.454.306.407.578s-.304.459-.579.406c-.065-.011-1.678-.26-2.485 1.09-.094.157-.259.244-.429.244z" fill="#785ae6"/><circle cx="47" cy="10" fill="#8d7bd4" r="7.5"/><path d="m47 4.5c3.802 0 6.936 2.832 7.426 6.5.044-.328.074-.66.074-1 0-4.142-3.358-7.5-7.5-7.5s-7.5 3.358-7.5 7.5c0 .34.03.672.074 1 .49-3.668 3.624-6.5 7.426-6.5z" fill="#968cd2"/><path d="m48.939 17.743c-.063 0-.127-.013-.189-.037-.255-.104-.378-.396-.274-.651.062-.154 1.494-3.809-1.383-6.993-2.913-3.226-6.745-2.833-6.785-2.83-.278.029-.522-.167-.553-.44-.032-.273.164-.521.438-.554.175-.02 4.374-.466 7.643 3.154 3.307 3.661 1.639 7.864 1.566 8.041-.08.193-.266.31-.463.31z" fill="#826ec8"/><path d="m46.771 5.84c-.205 0-.396-.126-.47-.329-.094-.26.04-.547.3-.641.136-.049 3.354-1.195 5.953-.525.267.069.428.343.358.609-.069.268-.342.426-.609.359-2.305-.6-5.332.484-5.361.496-.057.021-.114.031-.171.031z" fill="#826ec8"/><path d="m54.082 8.025c-.042 0-.085-.005-.128-.017-2.392-.631-3.849-.03-3.864-.024-.254.105-.547-.009-.656-.262-.109-.252.005-.545.256-.655.071-.031 1.765-.754 4.518-.025.267.07.426.344.356.611-.058.224-.261.372-.482.372z" fill="#826ec8"/><path d="m51.169 16.734c-.082 0-.165-.021-.241-.062-.242-.134-.33-.438-.196-.68.868-1.57 1.865-4.714-1.212-8.132-2.917-3.243-7.04-2.709-7.837-2.569-.271.05-.531-.134-.579-.405-.047-.272.134-.531.406-.579.889-.154 5.484-.749 8.753 2.885 3.622 4.022 2.146 7.833 1.344 9.285-.091.165-.261.257-.438.257z" fill="#826ec8"/><path d="m47 18c-4.411 0-8-3.589-8-8s3.589-8 8-8 8 3.589 8 8-3.589 8-8 8zm0-15c-3.86 0-7 3.141-7 7s3.14 7 7 7 7-3.141 7-7-3.14-7-7-7z" fill="#785ae6"/><path d="m40.5 34.5c0 1-3 2-7 2-2 0-6 0-6-1v3.526s1.021.711 6.021.711 6.979-1.779 6.979-1.779z" fill="#e678a0"/><path d="m33.521 40.236c-4.908 0-6.115-.667-6.307-.801-.227-.157-.283-.47-.125-.696.154-.221.457-.277.681-.134.053.028 1.208.631 5.75.631 4.707 0 6.628-1.636 6.647-1.652.208-.18.523-.161.705.043.182.206.166.52-.039.703-.085.078-2.179 1.906-7.312 1.906z" fill="#d2648c"/><path d="m31.5 39.938c-.276 0-.5-.224-.5-.5v-2.959c0-.276.224-.5.5-.5s.5.224.5.5v2.959c0 .276-.224.5-.5.5z" fill="#d2648c"/><path d="m27.5 39.525c-.276 0-.5-.224-.5-.5v-3.525c0-.276.224-.5.5-.5s.5.224.5.5c.179.19 1.298.5 5.5.5 4.265 0 6.5-1.114 6.5-1.5 0-.276.224-.5.5-.5s.5.224.5.5v3.458c0 .276-.224.5-.5.5s-.5-.224-.5-.5v-2.163c-1.384.79-3.996 1.205-6.5 1.205-2.589 0-4.45-.09-5.5-.452v2.478c0 .276-.224.499-.5.499z" fill="#785ae6"/><path d="m44.5 49c-3.083 0-5.138-1.01-5.224-1.053-.247-.123-.347-.423-.224-.67.123-.246.424-.349.67-.225.02.01 1.945.948 4.778.948.276 0 .5.224.5.5s-.224.5-.5.5z" fill="#f0dc78"/><path d="m43.5 53c-4.089 0-5.236-1.029-5.354-1.146-.195-.195-.195-.512 0-.707.192-.192.501-.195.698-.009.039.032 1.067.862 4.656.862.276 0 .5.224.5.5s-.224.5-.5.5z" fill="#f0dc78"/><g fill="#785ae6"><path d="m29.444 36.84c-.276 0-.5-.224-.5-.5v-1.84c0-.276.224-.5.5-.5s.5.224.5.5v1.84c0 .276-.223.5-.5.5z"/><path d="m17.421 54.196c-.066 0-.134-.013-.198-.041-1.353-.587-2.048-1.272-2.077-1.302-.128-.128-.177-.316-.127-.491.083-.288 2.022-7.028 3.742-8.914 1.504-2.079 4.129-3.584 8.511-4.877.268-.075.543.073.621.338s-.073.543-.338.621c-4.072 1.202-6.603 2.622-7.957 4.468-.02.033-.043.065-.071.095-1.232 1.296-2.833 6.121-3.458 8.238.27.213.789.576 1.551.906.253.11.37.404.26.658-.081.189-.265.301-.459.301z"/><path d="m54.5 54.646c-.181 0-.355-.099-.444-.271-.127-.245-.031-.547.214-.674.982-.508 1.493-1.057 1.694-1.311-.219-.962-1.242-5.051-3.342-7.611-.024-.029-.044-.061-.061-.094-1.682-2.413-5.359-4.267-12.267-6.188-.266-.073-.422-.35-.348-.615.074-.267.349-.424.616-.348 7.208 2.003 11.055 3.99 12.864 6.643.005.007.01.015.015.022 2.508 3.103 3.508 7.994 3.549 8.202.024.118.003.242-.057.347-.023.041-.592 1.006-2.204 1.841-.073.039-.151.057-.229.057z"/><path d="m38.5 36.375c-.276 0-.5-.224-.5-.5v-4.135c0-.276.224-.5.5-.5s.5.224.5.5v4.135c0 .276-.224.5-.5.5z"/></g></svg>