<svg enable-background="new 0 0 64 64" height="512" viewBox="0 0 64 64" width="512" xmlns="http://www.w3.org/2000/svg"><path d="m17.5 53.146v9.354h37s0-2.329 0-8.354z" fill="#ffb4be"/><path d="m17.5 60.5v2h37s0-.615 0-2z" fill="#f0a0aa"/><path d="m38.5 31.74v5.76c8.708 2.25 12.698 4.297 14.513 6.959l-.004.003c2.491 3.038 3.491 8.038 3.491 8.038s-2 3.476-10 2.738v7.262h-25c0-2-2-5-2-7 0-.331.055-.744.146-1.203l-.008.05c-2.759-.468-4.138-1.847-4.138-1.847s2-7 3.666-8.752l-.003-.002c1.546-2.139 4.528-3.807 10.282-5.246v-4z" fill="#96aaf0"/><path d="m21.067 60.5c.248.719.433 1.406.433 2h25s0-1.202 0-2z" fill="#8296dc"/><path d="m19.646 56.297-.008.05c-.014-.002-.026-.006-.04-.009.006.031.019.065.026.097.008-.047.012-.089.022-.138z" fill="#e678a0"/><path d="m27.5 39.094v-.068c-4.499 1.318-6.976 2.836-8.337 4.719l.003.002c-1.666 1.753-3.666 8.753-3.666 8.753s.173.166.492.395c.697-2.175 2.015-5.928 3.174-7.147l-.003-.002c1.166-1.614 3.153-2.96 6.53-4.142 1.074-.376 1.807-1.371 1.807-2.51z" fill="#a2baff"/><path d="m53.009 44.462.004-.003c-1.669-2.448-5.188-4.376-12.513-6.42v.496c0 .881.582 1.663 1.426 1.914 6.363 1.895 9.53 3.726 11.086 6.009l-.004.003c1.626 1.983 2.613 4.795 3.105 6.514.271-.281.387-.475.387-.475s-1-5-3.491-8.038z" fill="#a2baff"/><path d="m20.123 52.944c-.014 0-.028-.001-.042-.002-2.454-.208-3.625-1.268-4.254-1.837l-.089-.08c-.206-.185-.223-.501-.039-.706.185-.205.5-.224.706-.04l.093.085c.58.524 1.551 1.402 3.667 1.582.275.023.479.265.456.54-.023.261-.241.458-.498.458z" fill="#f0dc78"/><path d="m21.5 63c-.276 0-.5-.224-.5-.5 0-.903-.49-2.129-.964-3.314-.51-1.273-1.036-2.589-1.036-3.686 0-2.072 1.953-6.978 2.036-7.186.103-.257.396-.38.65-.278.256.103.381.394.279.649-.02.049-1.965 4.934-1.965 6.815 0 .903.49 2.129.964 3.314.51 1.273 1.036 2.589 1.036 3.686 0 .276-.224.5-.5.5z" fill="#8296dc"/><path d="m41.513 63c-.074 0-.149-.017-.22-.052-.094-.047-2.293-1.187-2.293-5.448 0-1.641.777-3.71 1.528-5.712 1.083-2.885 2.202-5.867.695-6.872-2.93-1.953-9.854-4.99-9.923-5.021-.253-.11-.369-.405-.258-.658.11-.254.405-.37.658-.258.288.126 7.075 3.104 10.077 5.104 2.167 1.445.906 4.806-.313 8.056-.72 1.919-1.464 3.902-1.464 5.361 0 3.593 1.672 4.518 1.743 4.555.242.128.339.428.215.672-.089.172-.264.273-.445.273z" fill="#8296dc"/><path d="m48.244 54.022c-1.09 0-1.78-.148-1.854-.166-.269-.061-.438-.327-.377-.597.061-.268.327-.438.597-.379.044.01 4.568.962 9.166-2.453.222-.165.535-.12.7.104.165.222.119.534-.103.699-3.159 2.346-6.243 2.792-8.129 2.792z" fill="#f0dc78"/><path d="m40.5 34.5c0-2-13-2-13 1v1.796h13z" fill="#96aaf0"/><path d="m40.5 37.796h-13c-.276 0-.5-.224-.5-.5v-1.796c0-2.136 4.3-2.894 7.981-2.894 1.81 0 6.019.185 6.019 1.894v2.796c0 .276-.224.5-.5.5zm-12.5-1h12v-2.288c-.265-.647-4.859-1.316-8.892-.581-1.917.349-3.108.952-3.108 1.573z" fill="#785ae6"/><path d="m29.445 32.5v6l9.055-1v-7.76z" fill="#ffb4be"/><path d="m46.5 63c-.276 0-.5-.224-.5-.5v-10.011c0-.276.224-.5.5-.5s.5.224.5.5v10.011c0 .276-.224.5-.5.5z" fill="#8296dc"/><path d="m54.5 63h-37c-.276 0-.5-.224-.5-.5v-8.354c0-.276.224-.5.5-.5s.5.224.5.5v7.854h36v-7.854c0-.276.224-.5.5-.5s.5.224.5.5v8.354c0 .276-.224.5-.5.5z" fill="#785ae6"/><path d="m40.5 34.5c0 1-3 2-7 2-2 0-6 0-6-1v3.526s1.021.711 6.021.711 6.979-1.779 6.979-1.779z" fill="#96aaf0"/><path d="m33.521 40.236c-4.908 0-6.115-.667-6.307-.801-.227-.157-.283-.47-.125-.696.154-.22.457-.277.681-.134.053.028 1.208.631 5.75.631 4.707 0 6.628-1.636 6.647-1.652.208-.181.523-.16.705.043.182.206.166.52-.039.703-.085.078-2.179 1.906-7.312 1.906z" fill="#8296dc"/><path d="m31.5 39.938c-.276 0-.5-.224-.5-.5v-2.959c0-.276.224-.5.5-.5s.5.224.5.5v2.959c0 .276-.224.5-.5.5z" fill="#8296dc"/><path d="m27.5 39.525c-.276 0-.5-.224-.5-.5v-3.525c0-.276.224-.5.5-.5s.5.224.5.5c.179.19 1.298.5 5.5.5 4.265 0 6.5-1.114 6.5-1.5 0-.276.224-.5.5-.5s.5.224.5.5v3.458c0 .276-.224.5-.5.5s-.5-.224-.5-.5v-2.163c-1.384.79-3.996 1.205-6.5 1.205-2.589 0-4.45-.09-5.5-.452v2.478c0 .276-.224.499-.5.499z" fill="#785ae6"/><path d="m44.5 49c-3.083 0-5.138-1.01-5.224-1.053-.247-.123-.347-.423-.224-.67.123-.246.424-.349.67-.225.02.01 1.945.948 4.778.948.276 0 .5.224.5.5s-.224.5-.5.5z" fill="#f0dc78"/><path d="m43.5 53c-4.089 0-5.236-1.029-5.354-1.146-.195-.195-.195-.512 0-.707.192-.192.501-.195.698-.009.039.032 1.067.862 4.656.862.276 0 .5.224.5.5s-.224.5-.5.5z" fill="#f0dc78"/><g fill="#785ae6"><path d="m29.444 36.84c-.276 0-.5-.224-.5-.5v-1.84c0-.276.224-.5.5-.5s.5.224.5.5v1.84c0 .276-.223.5-.5.5z"/><path d="m17.421 54.196c-.066 0-.134-.013-.198-.041-1.353-.587-2.048-1.272-2.077-1.302-.128-.128-.177-.316-.127-.491.083-.288 2.022-7.028 3.742-8.914 1.504-2.079 4.129-3.584 8.511-4.877.268-.076.543.073.621.338s-.073.543-.338.621c-4.072 1.202-6.603 2.622-7.957 4.468-.02.033-.043.065-.071.095-1.232 1.296-2.833 6.121-3.458 8.238.27.213.789.576 1.551.906.253.11.37.404.26.658-.081.189-.265.301-.459.301z"/><path d="m54.5 54.646c-.181 0-.355-.099-.444-.271-.127-.245-.031-.547.214-.674.982-.508 1.493-1.057 1.694-1.311-.219-.962-1.242-5.051-3.342-7.611-.024-.029-.044-.061-.061-.094-1.682-2.413-5.359-4.267-12.267-6.188-.266-.073-.422-.35-.348-.615.074-.268.349-.425.616-.348 7.208 2.003 11.055 3.99 12.864 6.643.005.007.01.015.015.022 2.508 3.103 3.508 7.994 3.549 8.202.024.118.003.242-.057.347-.023.041-.592 1.006-2.204 1.841-.073.039-.151.057-.229.057z"/><path d="m38.5 36.375c-.276 0-.5-.224-.5-.5v-3.135c0-.276.224-.5.5-.5s.5.224.5.5v3.135c0 .276-.224.5-.5.5z"/></g><path d="m42.5 7.5s1-5 7-2c4 2 3 7 2 12s0 8 2 9c0 0-3 2-6 0s-6-14-5-19z" fill="#e678a0"/><path d="m42.5 9.5s1-5 7-2c1.925.963 2.686 2.624 2.852 4.642.206-2.908-.321-5.376-2.852-6.642-6-3-7 2-7 2-.186.931-.233 2.105-.168 3.411.03-.512.083-.988.168-1.411z" fill="#fa8cb4"/><path d="m50.392 27.896c-.971 0-2.067-.245-3.169-.98-3.315-2.21-6.213-14.516-5.213-19.514.017-.085.433-2.072 2.24-2.956 1.43-.697 3.271-.494 5.474.606 4.342 2.171 3.287 7.445 2.267 12.545-.877 4.385-.245 7.466 1.733 8.455.159.08.264.238.275.416s-.073.349-.222.447c-.088.06-1.503.981-3.385.981zm-4.292-22.857c-.524 0-.995.102-1.411.306-1.368.669-1.696 2.237-1.699 2.253-.984 4.919 2.059 16.667 4.787 18.486 1.864 1.244 3.744.772 4.733.361-1.812-1.52-2.361-4.74-1.5-9.043.99-4.95 1.925-9.626-1.733-11.455-1.21-.604-2.273-.908-3.177-.908z" fill="#785ae6"/><path d="m39.5 6.5s3-1 5 1 0 6 0 6z" fill="#ffe885"/><path d="m44.5 9.5c.432.432.67.96.789 1.518.204-1.2.151-2.578-.789-3.518-2-2-5-1-5-1l1.265 1.771c1.054-.083 2.564.058 3.735 1.229z" fill="#fffa96"/><path d="m44.5 14c-.161 0-.313-.077-.407-.209l-5-7c-.092-.13-.118-.295-.069-.445.049-.151.167-.27.317-.32.135-.044 3.318-1.072 5.512 1.121 2.229 2.229.182 6.4.094 6.577-.079.157-.233.261-.408.274-.013.001-.026.002-.039.002zm-4.154-7.177 4.038 5.653c.429-1.185.988-3.397-.237-4.623-1.21-1.208-2.878-1.169-3.801-1.03z" fill="#785ae6"/><path d="m21.5 23.5s-4-2-4-9c0-5 6-7 6-7s2-3 9-3 13 3 13 13-7 15.24-7 15.24z" fill="#e678a0"/><path d="m23.5 9.5s2-3 9-3c6.76 0 12.57 2.818 12.962 12.016.014-.337.038-.664.038-1.016 0-10-6-13-13-13s-9 3-9 3-6 2-6 7c0 .46.019.895.051 1.312.519-4.492 5.949-6.312 5.949-6.312z" fill="#fa8cb4"/><path d="m38.5 33c-.156 0-.309-.072-.407-.209-.161-.225-.109-.537.115-.697.069-.049 6.792-4.985 6.792-14.594 0-8.294-4.206-12.5-12.5-12.5-6.593 0-8.567 2.753-8.586 2.78-.062.089-.153.159-.255.194-.057.019-5.659 1.951-5.659 6.526 0 6.571 3.574 8.476 3.726 8.554.245.126.344.426.22.672-.125.245-.421.347-.669.222-.175-.088-4.277-2.222-4.277-9.448 0-4.905 5.212-7.06 6.192-7.422.516-.633 2.918-3.078 9.308-3.078 8.832 0 13.5 4.668 13.5 13.5 0 10.141-6.915 15.196-7.209 15.407-.088.063-.19.093-.291.093z" fill="#785ae6"/><path d="m21.5 13.5v14c0 3.866 3.134 7 7 7h5c3.314 0 6-2.686 6-6h2c1.657 0 3-1.343 3-3v-1c0-1.657-1.343-3-3-3h-2v-8l-8-1-7 1z" fill="#ffc8d2"/><path d="m21.5 17.5c1-3 3-4 3-4h-3z" fill="#e678a0"/><path d="m26.5 8.5s-3 1-2 5 3 6 3 6 4-2 4-7c0 0 2 4 4 6s2 5 2 5 4-2 2-10z" fill="#e678a0"/><path d="m37.5 24c-.184 0-.36-.102-.448-.276-.123-.246-.024-.545.221-.669.158-.083 3.604-1.984 1.742-9.434-.067-.268.096-.539.364-.606.267-.065.539.096.606.364 2.074 8.294-2.083 10.479-2.261 10.568-.072.036-.148.053-.224.053z" fill="#d2648c"/><path d="m27.5 20c-.128 0-.255-.049-.353-.146-.086-.086-2.11-2.145-3.131-6.232-1.1-4.398 2.292-5.584 2.327-5.596.265-.086.545.056.632.316.087.261-.053.543-.313.632-.105.036-2.545.927-1.676 4.405.95 3.8 2.851 5.749 2.87 5.769.194.195.193.512-.002.706-.099.097-.227.146-.354.146z" fill="#d2648c"/><g fill="#785ae6"><path d="m41.5 29h-2c-.276 0-.5-.224-.5-.5s.224-.5.5-.5h2c1.378 0 2.5-1.121 2.5-2.5v-1c0-1.379-1.122-2.5-2.5-2.5h-1.811c-.276 0-.5-.224-.5-.5s.224-.5.5-.5h1.811c1.93 0 3.5 1.57 3.5 3.5v1c0 1.93-1.57 3.5-3.5 3.5z"/><path d="m33.5 35h-5c-4.136 0-7.5-3.364-7.5-7.5v-10c0-.276.224-.5.5-.5s.5.224.5.5v10c0 3.584 2.916 6.5 6.5 6.5h5c.276 0 .5.224.5.5s-.224.5-.5.5z"/><path d="m31.5 26c-.276 0-.5-.224-.5-.5v-3c0-.276.224-.5.5-.5s.5.224.5.5v3c0 .276-.224.5-.5.5z"/><path d="m23.5 26c-.276 0-.5-.224-.5-.5v-3c0-.276.224-.5.5-.5s.5.224.5.5v3c0 .276-.224.5-.5.5z"/><path d="m26.5 28c-1.739 0-2.892-1.292-2.892-2.146 0-.242.088-.461.249-.615.112-.11.315-.239.643-.239.289 0 1.034-1.186 1.526-2.658.087-.261.371-.402.632-.316.262.088.403.371.316.633-.321.964-1.173 3.155-2.327 3.331.042.094.123.223.258.363.188.194.719.647 1.595.647.276 0 .5.224.5.5s-.224.5-.5.5z"/><path d="m31.5 24.041c-.125 0-.25-.046-.346-.14-.199-.191-.206-.508-.014-.707l1-1.041c.192-.198.508-.206.707-.014.199.191.206.508.014.707l-1 1.041c-.099.102-.23.154-.361.154z"/><path d="m23.5 24.041c-.131 0-.262-.052-.36-.153l-1-1.041c-.191-.199-.185-.516.014-.707.198-.192.516-.185.707.014l1 1.041c.191.199.185.516-.014.707-.097.093-.222.139-.347.139z"/><path d="m34.5 22c-.209 0-.404-.133-.474-.342-.35-1.05-1.013-1.651-1.972-1.788-.738-.105-1.39.103-1.396.104-.265.087-.545-.055-.632-.316-.087-.262.054-.545.316-.633.035-.012.873-.288 1.854-.146.938.134 2.181.67 2.778 2.462.087.262-.054.545-.316.633-.053.018-.106.026-.158.026z"/><path d="m21.5 21.326c-.087 0-.175-.022-.256-.07-.237-.142-.314-.449-.173-.686 1.163-1.949 3.418-1.58 3.515-1.562.272.047.454.306.407.578s-.301.455-.577.407c-.079-.014-1.683-.257-2.486 1.089-.095.157-.26.244-.43.244z"/></g><path d="m25.653 29.417s.469-.894 1.356-.916 1.304.458 1.304.458.626-.459 1.669-.459 1.304 1.543 3.129.917c0 0-2.19 2.084-4.798 2.084-1.813 0-2.66-2.084-2.66-2.084z" fill="#e86a6a"/></svg>