<svg enable-background="new 0 0 64 64" height="512" viewBox="0 0 64 64" width="512" xmlns="http://www.w3.org/2000/svg"><path d="m29.5 5.5s1-2 8-1 10 6 10 13 0 26 0 26h-28s0-20 0-26 1-9 4-11 6-1 6-1z" fill="#cb783f"/><g fill="#be6432"><path d="m44.5 39c-.276 0-.5-.224-.5-.5v-20c0-.276.224-.5.5-.5s.5.224.5.5v20c0 .276-.224.5-.5.5z"/><path d="m41.5 39c-.276 0-.5-.224-.5-.5v-13c0-.276.224-.5.5-.5s.5.224.5.5v13c0 .276-.224.5-.5.5z"/><path d="m22.5 42c-.276 0-.5-.224-.5-.5v-16c0-.276.224-.5.5-.5s.5.224.5.5v16c0 .276-.224.5-.5.5z"/><path d="m25.5 42c-.276 0-.5-.224-.5-.5v-16c0-.276.224-.5.5-.5s.5.224.5.5v16c0 .276-.224.5-.5.5z"/></g><path d="m17.5 53.146v9.354h37s0-2.329 0-8.354z" fill="#ffb4be"/><path d="m17.5 60.5v2h37s0-.615 0-2z" fill="#f0a0aa"/><path d="m38.5 31.74v5.76c8.708 2.25 12.698 4.297 14.513 6.959l-.004.003c2.491 3.038 3.491 8.038 3.491 8.038s-2 3.476-10 2.738v7.262h-25c0-2-2-5-2-7 0-.331.055-.744.146-1.203l-.008.05c-2.759-.468-4.138-1.847-4.138-1.847s2-7 3.666-8.752l-.003-.002c1.546-2.139 4.528-3.807 10.282-5.246v-4z" fill="#aad2ff"/><path d="m21.067 60.5c.248.719.433 1.406.433 2h25s0-1.202 0-2z" fill="#96bef0"/><path d="m19.646 56.297-.008.05c-.014-.002-.026-.006-.04-.009.006.031.019.065.026.097.008-.047.012-.089.022-.138z" fill="#e678a0"/><path d="m27.5 39.094v-.068c-4.499 1.318-6.976 2.836-8.337 4.719l.003.002c-1.666 1.753-3.666 8.753-3.666 8.753s.173.166.492.395c.697-2.175 2.015-5.928 3.174-7.147l-.003-.002c1.166-1.614 3.153-2.96 6.53-4.142 1.074-.376 1.807-1.371 1.807-2.51z" fill="#bee6ff"/><path d="m53.009 44.462.004-.003c-1.669-2.448-5.188-4.376-12.513-6.42v.496c0 .881.582 1.663 1.426 1.914 6.363 1.895 9.53 3.726 11.086 6.009l-.004.003c1.626 1.983 2.613 4.795 3.105 6.514.271-.281.387-.475.387-.475s-1-5-3.491-8.038z" fill="#bee6ff"/><path d="m20.123 52.944c-.014 0-.028-.001-.042-.002-2.454-.208-3.625-1.268-4.254-1.837l-.089-.08c-.206-.185-.223-.501-.039-.706.185-.206.5-.223.706-.04l.093.085c.58.524 1.551 1.402 3.667 1.582.275.023.479.265.456.54-.023.261-.241.458-.498.458z" fill="#f0dc78"/><path d="m21.5 63c-.276 0-.5-.224-.5-.5 0-.903-.49-2.129-.964-3.314-.51-1.273-1.036-2.589-1.036-3.686 0-2.072 1.953-6.978 2.036-7.186.103-.256.396-.383.65-.278.256.103.381.394.279.649-.02.049-1.965 4.934-1.965 6.815 0 .903.49 2.129.964 3.314.51 1.273 1.036 2.589 1.036 3.686 0 .276-.224.5-.5.5z" fill="#96bef0"/><path d="m41.513 63c-.074 0-.149-.017-.22-.052-.094-.047-2.293-1.187-2.293-5.448 0-1.641.777-3.71 1.528-5.712 1.083-2.885 2.202-5.867.695-6.872-2.93-1.953-9.854-4.99-9.923-5.021-.253-.11-.369-.405-.258-.658.11-.253.405-.368.658-.258.288.126 7.075 3.104 10.077 5.104 2.167 1.445.906 4.806-.313 8.056-.72 1.919-1.464 3.902-1.464 5.361 0 3.593 1.672 4.518 1.743 4.555.242.128.339.428.215.672-.089.172-.264.273-.445.273z" fill="#96bef0"/><path d="m48.244 54.022c-1.09 0-1.78-.148-1.854-.166-.269-.061-.438-.327-.377-.597.061-.269.327-.433.597-.379.044.01 4.568.963 9.166-2.453.222-.165.535-.12.7.104.165.222.119.534-.103.699-3.159 2.346-6.243 2.792-8.129 2.792z" fill="#f0dc78"/><path d="m40.5 34.5c0-2-13-2-13 1v1.796h13z" fill="#aad2ff"/><path d="m40.5 37.796h-13c-.276 0-.5-.224-.5-.5v-1.796c0-2.136 4.3-2.894 7.981-2.894 1.81 0 6.019.185 6.019 1.894v2.796c0 .276-.224.5-.5.5zm-12.5-1h12v-2.288c-.265-.647-4.859-1.316-8.892-.581-1.917.349-3.108.952-3.108 1.573z" fill="#785ae6"/><path d="m29.445 32.5v6l9.055-1v-7.76z" fill="#ffb4be"/><path d="m46.5 63c-.276 0-.5-.224-.5-.5v-10.011c0-.276.224-.5.5-.5s.5.224.5.5v10.011c0 .276-.224.5-.5.5z" fill="#96bef0"/><path d="m54.5 63h-37c-.276 0-.5-.224-.5-.5v-8.354c0-.276.224-.5.5-.5s.5.224.5.5v7.854h36v-7.854c0-.276.224-.5.5-.5s.5.224.5.5v8.354c0 .276-.224.5-.5.5z" fill="#785ae6"/><path d="m40.5 34.5c0 1-3 2-7 2-2 0-6 0-6-1v3.526s1.021.711 6.021.711 6.979-1.779 6.979-1.779z" fill="#aad2ff"/><path d="m33.521 40.236c-4.908 0-6.115-.667-6.307-.801-.227-.157-.283-.47-.125-.696.154-.22.457-.277.681-.134.053.028 1.208.631 5.75.631 4.707 0 6.628-1.636 6.647-1.652.208-.18.523-.16.705.043.182.206.166.52-.039.703-.085.078-2.179 1.906-7.312 1.906z" fill="#96bef0"/><path d="m31.5 39.938c-.276 0-.5-.224-.5-.5v-2.959c0-.276.224-.5.5-.5s.5.224.5.5v2.959c0 .276-.224.5-.5.5z" fill="#96bef0"/><path d="m27.5 39.525c-.276 0-.5-.224-.5-.5v-3.525c0-.276.224-.5.5-.5s.5.224.5.5c.179.19 1.298.5 5.5.5 4.265 0 6.5-1.114 6.5-1.5 0-.276.224-.5.5-.5s.5.224.5.5v3.458c0 .276-.224.5-.5.5s-.5-.224-.5-.5v-2.163c-1.384.79-3.996 1.205-6.5 1.205-2.589 0-4.45-.09-5.5-.452v2.478c0 .276-.224.499-.5.499z" fill="#785ae6"/><path d="m44.5 49c-3.083 0-5.138-1.01-5.224-1.053-.247-.123-.347-.423-.224-.67s.424-.349.67-.225c.02.01 1.945.948 4.778.948.276 0 .5.224.5.5s-.224.5-.5.5z" fill="#f0dc78"/><path d="m43.5 53c-4.089 0-5.236-1.029-5.354-1.146-.195-.195-.195-.512 0-.707.192-.192.501-.195.698-.009.039.032 1.067.862 4.656.862.276 0 .5.224.5.5s-.224.5-.5.5z" fill="#f0dc78"/><path d="m29.444 36.84c-.276 0-.5-.224-.5-.5v-1.84c0-.276.224-.5.5-.5s.5.224.5.5v1.84c0 .276-.223.5-.5.5z" fill="#785ae6"/><path d="m17.421 54.196c-.066 0-.134-.013-.198-.041-1.353-.587-2.048-1.272-2.077-1.302-.128-.128-.177-.316-.127-.491.083-.288 2.022-7.028 3.742-8.914 1.504-2.079 4.129-3.584 8.511-4.877.268-.077.543.073.621.338s-.073.543-.338.621c-4.072 1.202-6.603 2.622-7.957 4.468-.02.033-.043.065-.071.095-1.232 1.296-2.833 6.121-3.458 8.238.27.213.789.576 1.551.906.253.11.37.404.26.658-.081.189-.265.301-.459.301z" fill="#785ae6"/><path d="m54.5 54.646c-.181 0-.355-.099-.444-.271-.127-.245-.031-.547.214-.674.982-.508 1.493-1.057 1.694-1.311-.219-.962-1.242-5.051-3.342-7.611-.024-.029-.044-.061-.061-.094-1.682-2.413-5.359-4.267-12.267-6.188-.266-.073-.422-.35-.348-.615.074-.267.349-.421.616-.348 7.208 2.003 11.055 3.99 12.864 6.643.005.007.01.015.015.022 2.508 3.103 3.508 7.994 3.549 8.202.024.118.003.242-.057.347-.023.041-.592 1.006-2.204 1.841-.073.039-.151.057-.229.057z" fill="#785ae6"/><path d="m37.5 4.5c-7-1-8 1-8 1s-3-1-6 1-4 5-4 11v2c0-6 1-9 4-11s6-1 6-1 1-2 8-1 10 6 10 13c0-.737 0-1.414 0-2 0-7-3-12-10-13z" fill="#dc8c50"/><path d="m19.5 43.646c-.276 0-.5-.224-.5-.5v-25.646c0-6.27 1.145-9.364 4.223-11.416 2.604-1.735 5.187-1.363 6.097-1.15.633-.619 2.599-1.735 8.251-.929 6.823.974 10.429 5.641 10.429 13.495v22.936c0 .276-.224.5-.5.5s-.5-.224-.5-.5v-22.936c0-5.081-1.661-11.375-9.571-12.505-6.355-.904-7.473.712-7.482.729-.11.222-.37.325-.604.251-.027-.008-2.819-.889-5.566.941-2.789 1.859-3.777 4.629-3.777 10.584v25.646c0 .277-.224.5-.5.5z" fill="#785ae6"/><path d="m39.5 28.5h2c1.657 0 3-1.343 3-3v-1c0-1.657-1.343-3-3-3h-1.811s-9.189-10-12.189-10-6 3-6 6v10c0 3.866 3.134 7 7 7h5c3 0 6-3 6-6z" fill="#ffc8d2"/><path d="m39.341 21.5-.918-3.085-1.423-.915-8.599-6.761c-.311.294-.613.624-.901 1.002 0 0-1 3.291 3 5.484s9 4.388 9 8.775c0 0 1.392-.777 1.852-4.867z" fill="#ffb4be"/><g fill="#785ae6"><path d="m38.375 32.24c-.101 0-.203-.03-.291-.094-.225-.16-.276-.473-.116-.697.666-.928 1.032-1.975 1.032-2.949 0-.276.224-.5.5-.5h2c1.378 0 2.5-1.121 2.5-2.5v-1c0-1.379-1.122-2.5-2.5-2.5h-1.811c-.276 0-.5-.224-.5-.5s.224-.5.5-.5h1.811c1.93 0 3.5 1.57 3.5 3.5v1c0 1.93-1.57 3.5-3.5 3.5h-1.524c-.1 1.034-.507 2.073-1.193 3.031-.098.137-.252.209-.408.209z"/><path d="m38.5 36.375c-.276 0-.5-.224-.5-.5v-4.135c0-.276.224-.5.5-.5s.5.224.5.5v4.135c0 .276-.224.5-.5.5z"/><path d="m31.5 35h-3c-4.136 0-7.5-3.364-7.5-7.5v-10c0-.276.224-.5.5-.5s.5.224.5.5v10c0 3.584 2.916 6.5 6.5 6.5h3c.276 0 .5.224.5.5s-.224.5-.5.5z"/><path d="m31.5 26c-.276 0-.5-.224-.5-.5v-3c0-.276.224-.5.5-.5s.5.224.5.5v3c0 .276-.224.5-.5.5z"/><path d="m23.5 26c-.276 0-.5-.224-.5-.5v-3c0-.276.224-.5.5-.5s.5.224.5.5v3c0 .276-.224.5-.5.5z"/><path d="m26.5 28c-1.739 0-2.892-1.292-2.892-2.146 0-.242.088-.461.249-.615.112-.11.315-.239.643-.239.289 0 1.034-1.186 1.526-2.658.087-.262.371-.403.632-.316.262.088.403.371.316.633-.321.964-1.173 3.155-2.327 3.331.042.094.123.223.258.363.188.194.719.647 1.595.647.276 0 .5.224.5.5s-.224.5-.5.5z"/><path d="m28.5 31c-2.472 0-2.5-1.438-2.5-1.5 0-.276.224-.5.5-.5.268 0 .487.211.5.476.028.183.376.524 1.5.524 2.23 0 2.506-.565 2.508-.571 0-.276.22-.465.496-.465s.496.26.496.536c0 .352-.252 1.5-3.5 1.5zm-1.5-1.5h.01z"/><path d="m31.5 24.041c-.125 0-.25-.046-.346-.14-.199-.191-.206-.508-.014-.707l1-1.041c.192-.197.508-.206.707-.014.199.191.206.508.014.707l-1 1.041c-.099.102-.23.154-.361.154z"/><path d="m23.5 24.041c-.131 0-.262-.052-.36-.153l-1-1.041c-.191-.199-.185-.516.014-.707.198-.192.516-.184.707.014l1 1.041c.191.199.185.516-.014.707-.097.093-.222.139-.347.139z"/><path d="m34.5 22c-.209 0-.404-.133-.474-.342-.35-1.05-1.013-1.651-1.972-1.788-.738-.108-1.39.103-1.396.104-.265.086-.545-.056-.632-.316-.087-.262.054-.545.316-.633.035-.012.873-.289 1.854-.146.938.134 2.181.67 2.778 2.462.087.262-.054.545-.316.633-.053.018-.106.026-.158.026z"/><path d="m21.5 21.326c-.087 0-.175-.022-.256-.07-.237-.142-.314-.449-.173-.686 1.163-1.948 3.418-1.581 3.515-1.562.272.047.454.306.407.578-.047.271-.301.451-.577.407-.079-.014-1.683-.256-2.486 1.089-.095.157-.26.244-.43.244z"/></g><path d="m27.5 11.5s-1 3 3 5 9 4 9 8c0 0 2-1 2-7s-9-12-14-6z" fill="#cb783f"/><path d="m27.505 11.495c5.109-4.227 12.995 1.388 12.995 7.005 0 3.035-.511 4.787-1.017 5.781.003.074.017.143.017.219 0 0 2-1 2-7 0-5.998-8.995-11.996-13.995-6.005z" fill="#dc8c50"/></svg>