<svg enable-background="new 0 0 64 64" height="512" viewBox="0 0 64 64" width="512" xmlns="http://www.w3.org/2000/svg"><path d="m29.5 5.5s1-2 8-1 10 6 10 13 0 26 0 26h-28s0-20 0-26 1-9 4-11 6-1 6-1z" fill="#cb783f"/><g fill="#be6432"><path d="m44.5 39c-.276 0-.5-.224-.5-.5v-20c0-.276.224-.5.5-.5s.5.224.5.5v20c0 .276-.224.5-.5.5z"/><path d="m41.5 39c-.276 0-.5-.224-.5-.5v-13c0-.276.224-.5.5-.5s.5.224.5.5v13c0 .276-.224.5-.5.5z"/><path d="m22.5 42c-.276 0-.5-.224-.5-.5v-16c0-.276.224-.5.5-.5s.5.224.5.5v16c0 .276-.224.5-.5.5z"/><path d="m25.5 42c-.276 0-.5-.224-.5-.5v-16c0-.276.224-.5.5-.5s.5.224.5.5v16c0 .276-.224.5-.5.5z"/></g><path d="m17.5 53.146v9.354h37s0-2.329 0-8.354z" fill="#c88c5a"/><path d="m17.5 60.5v2h37s0-.615 0-2z" fill="#b47846"/><path d="m38.5 31.74v5.76c8.708 2.25 12.698 4.297 14.513 6.959l-.004.003c2.491 3.038 3.491 8.038 3.491 8.038s-2 3.476-10 2.738v7.262h-25c0-2-2-5-2-7 0-.331.055-.744.146-1.203l-.008.05c-2.759-.468-4.138-1.847-4.138-1.847s2-7 3.666-8.752l-.003-.002c1.546-2.139 4.528-3.807 10.282-5.246v-4z" fill="#aad2ff"/><path d="m21.067 60.5c.248.719.433 1.406.433 2h25s0-1.202 0-2z" fill="#96bef0"/><path d="m19.646 56.297-.008.05c-.014-.002-.026-.006-.04-.009.006.031.019.065.026.097.008-.047.012-.089.022-.138z" fill="#e678a0"/><path d="m27.5 39.094v-.068c-4.499 1.318-6.976 2.836-8.337 4.719l.003.002c-1.666 1.753-3.666 8.753-3.666 8.753s.173.166.492.395c.697-2.175 2.015-5.928 3.174-7.147l-.003-.002c1.166-1.614 3.153-2.96 6.53-4.142 1.074-.376 1.807-1.371 1.807-2.51z" fill="#bee6ff"/><path d="m53.009 44.462.004-.003c-1.669-2.448-5.188-4.376-12.513-6.42v.496c0 .881.582 1.663 1.426 1.914 6.363 1.895 9.53 3.726 11.086 6.009l-.004.003c1.626 1.983 2.613 4.795 3.105 6.514.271-.281.387-.475.387-.475s-1-5-3.491-8.038z" fill="#bee6ff"/><path d="m20.123 52.944c-.015 0-.029-.001-.043-.002-2.453-.208-3.624-1.268-4.254-1.837l-.089-.08c-.206-.185-.224-.501-.04-.706.187-.206.503-.222.706-.04l.094.085c.58.524 1.551 1.402 3.667 1.582.275.023.479.265.456.54-.021.261-.24.458-.497.458z" fill="#f0dc78"/><path d="m21.5 63c-.276 0-.5-.224-.5-.5 0-.903-.49-2.129-.964-3.314-.51-1.273-1.036-2.589-1.036-3.686 0-2.072 1.953-6.978 2.036-7.186.103-.256.394-.383.649-.278.257.103.381.394.278.649-.019.049-1.963 4.934-1.963 6.815 0 .903.49 2.129.964 3.314.51 1.273 1.036 2.589 1.036 3.686 0 .276-.224.5-.5.5z" fill="#96bef0"/><path d="m41.514 63c-.074 0-.149-.017-.221-.052-.093-.047-2.293-1.187-2.293-5.448 0-1.641.776-3.71 1.527-5.712 1.083-2.885 2.202-5.867.695-6.872-2.93-1.953-9.854-4.99-9.923-5.021-.253-.11-.368-.405-.258-.658.111-.253.406-.364.658-.258.288.126 7.075 3.104 10.077 5.104 2.168 1.445.906 4.806-.313 8.056-.719 1.919-1.463 3.902-1.463 5.361 0 3.593 1.672 4.518 1.743 4.555.242.128.34.428.215.672-.089.172-.263.273-.444.273z" fill="#96bef0"/><path d="m48.244 54.022c-1.09 0-1.78-.148-1.854-.166-.269-.061-.438-.327-.377-.597s.331-.435.597-.379c.046.011 4.567.964 9.166-2.453.218-.164.532-.121.699.104.165.222.118.534-.104.699-3.156 2.346-6.24 2.792-8.127 2.792z" fill="#f0dc78"/><path d="m40.5 34.5c0-2-13-2-13 1v1.796h13z" fill="#aad2ff"/><path d="m40.5 37.796h-13c-.276 0-.5-.224-.5-.5v-1.796c0-2.136 4.3-2.894 7.981-2.894 1.81 0 6.019.185 6.019 1.894v2.796c0 .276-.224.5-.5.5zm-12.5-1h12v-2.288c-.265-.647-4.86-1.316-8.892-.581-1.917.349-3.108.952-3.108 1.573z" fill="#785ae6"/><path d="m29.445 32.5v6l9.055-1v-7.76z" fill="#c88c5a"/><path d="m46.5 63c-.276 0-.5-.224-.5-.5v-10.011c0-.276.224-.5.5-.5s.5.224.5.5v10.011c0 .276-.224.5-.5.5z" fill="#96bef0"/><path d="m54.5 63h-37c-.276 0-.5-.224-.5-.5v-8.354c0-.276.224-.5.5-.5s.5.224.5.5v7.854h36v-7.854c0-.276.224-.5.5-.5s.5.224.5.5v8.354c0 .276-.224.5-.5.5z" fill="#785ae6"/><path d="m40.5 34.5c0 1-3 2-7 2-2 0-6 0-6-1v3.526s1.021.711 6.021.711 6.979-1.779 6.979-1.779z" fill="#aad2ff"/><path d="m33.521 40.236c-4.908 0-6.114-.667-6.307-.801-.227-.158-.282-.47-.124-.696.154-.223.457-.277.682-.134.052.028 1.206.631 5.749.631 4.706 0 6.629-1.636 6.647-1.652.209-.18.523-.161.705.043.183.206.166.52-.039.703-.087.078-2.181 1.906-7.313 1.906z" fill="#96bef0"/><path d="m31.5 39.938c-.276 0-.5-.224-.5-.5v-2.959c0-.276.224-.5.5-.5s.5.224.5.5v2.959c0 .276-.224.5-.5.5z" fill="#96bef0"/><path d="m27.5 39.525c-.276 0-.5-.224-.5-.5v-3.525c0-.276.224-.5.5-.5s.5.224.5.5c.18.19 1.298.5 5.5.5 4.265 0 6.5-1.114 6.5-1.5 0-.276.224-.5.5-.5s.5.224.5.5v3.458c0 .276-.224.5-.5.5s-.5-.224-.5-.5v-2.163c-1.384.79-3.996 1.205-6.5 1.205-2.589 0-4.449-.09-5.5-.452v2.478c0 .276-.224.499-.5.499z" fill="#785ae6"/><path d="m44.5 49c-3.083 0-5.138-1.01-5.224-1.053-.247-.123-.347-.423-.224-.67.123-.246.424-.35.67-.225.02.01 1.945.948 4.778.948.276 0 .5.224.5.5s-.224.5-.5.5z" fill="#f0dc78"/><path d="m43.5 53c-4.089 0-5.236-1.029-5.354-1.146-.195-.195-.195-.512 0-.707.193-.192.503-.195.697-.009.04.032 1.068.862 4.657.862.276 0 .5.224.5.5s-.224.5-.5.5z" fill="#f0dc78"/><path d="m29.444 36.84c-.276 0-.5-.224-.5-.5v-1.84c0-.276.224-.5.5-.5s.5.224.5.5v1.84c0 .276-.223.5-.5.5z" fill="#785ae6"/><path d="m17.422 54.196c-.066 0-.134-.013-.199-.041-1.353-.587-2.047-1.272-2.076-1.302-.129-.128-.177-.316-.127-.491.082-.288 2.02-7.022 3.74-8.911 1.504-2.081 4.13-3.586 8.513-4.88.263-.076.543.072.621.338.078.265-.073.543-.338.621-4.069 1.201-6.6 2.621-7.955 4.465-.02.035-.044.067-.072.098-1.232 1.296-2.834 6.121-3.458 8.238.27.213.789.576 1.551.906.253.11.369.404.26.658-.083.189-.267.301-.46.301z" fill="#785ae6"/><path d="m54.5 54.646c-.181 0-.355-.099-.444-.271-.127-.245-.03-.547.215-.674.982-.508 1.493-1.057 1.694-1.311-.22-.962-1.242-5.051-3.343-7.611-.023-.029-.044-.061-.061-.094-1.681-2.413-5.358-4.267-12.267-6.188-.267-.073-.422-.35-.348-.615s.35-.422.615-.348c7.209 2.004 11.056 3.99 12.863 6.643.005.007.01.015.015.022 2.508 3.103 3.508 7.994 3.55 8.202.023.118.004.242-.057.347-.023.041-.592 1.006-2.204 1.841-.072.039-.15.057-.228.057z" fill="#785ae6"/><path d="m37.5 4.5c-7-1-8 1-8 1s-3-1-6 1-4 5-4 11v2c0-6 1-9 4-11s6-1 6-1 1-2 8-1 10 6 10 13c0-.737 0-1.414 0-2 0-7-3-12-10-13z" fill="#dc8c50"/><path d="m19.5 43.496c-.276 0-.5-.224-.5-.5v-25.496c0-6.27 1.145-9.364 4.223-11.416 2.603-1.735 5.186-1.364 6.097-1.15.633-.62 2.597-1.734 8.251-.929 6.823.974 10.429 5.641 10.429 13.495v22.936c0 .276-.224.5-.5.5s-.5-.224-.5-.5v-22.936c0-5.081-1.66-11.375-9.57-12.505-6.355-.91-7.474.713-7.482.729-.111.222-.366.325-.604.251-.027-.008-2.819-.888-5.565.941-2.791 1.859-3.779 4.629-3.779 10.584v25.496c0 .276-.224.5-.5.5z" fill="#785ae6"/><path d="m39.5 28.5h2c1.657 0 3-1.343 3-3v-1c0-1.657-1.343-3-3-3h-1.811s-9.189-10-12.189-10-6 3-6 6v10c0 3.866 3.134 7 7 7h5c3 0 6-3 6-6z" fill="#e1a271"/><path d="m39.341 21.5-.918-3.085-1.423-.915-8.599-6.761c-.311.294-.613.624-.901 1.002 0 0-1 3.291 3 5.484s9 4.388 9 8.775c0 0 1.392-.777 1.852-4.867z" fill="#c88c5a"/><g fill="#785ae6"><path d="m38.376 32.24c-.102 0-.203-.03-.291-.094-.225-.16-.276-.473-.115-.697.664-.928 1.03-1.976 1.03-2.949 0-.276.224-.5.5-.5h2c1.379 0 2.5-1.121 2.5-2.5v-1c0-1.379-1.121-2.5-2.5-2.5h-1.812c-.276 0-.5-.224-.5-.5s.224-.5.5-.5h1.812c1.93 0 3.5 1.57 3.5 3.5v1c0 1.93-1.57 3.5-3.5 3.5h-1.524c-.1 1.034-.507 2.073-1.193 3.031-.098.137-.252.209-.407.209z"/><path d="m38.5 36.375c-.276 0-.5-.224-.5-.5v-4.135c0-.276.224-.5.5-.5s.5.224.5.5v4.135c0 .276-.224.5-.5.5z"/><path d="m31.5 35h-3c-4.136 0-7.5-3.364-7.5-7.5v-10c0-.276.224-.5.5-.5s.5.224.5.5v10c0 3.584 2.916 6.5 6.5 6.5h3c.276 0 .5.224.5.5s-.224.5-.5.5z"/><path d="m31.5 26c-.276 0-.5-.224-.5-.5v-3c0-.276.224-.5.5-.5s.5.224.5.5v3c0 .276-.224.5-.5.5z"/><path d="m23.5 26c-.276 0-.5-.224-.5-.5v-3c0-.276.224-.5.5-.5s.5.224.5.5v3c0 .276-.224.5-.5.5z"/><path d="m26.5 28c-1.738 0-2.893-1.292-2.893-2.146 0-.242.089-.461.249-.615.114-.11.317-.239.644-.239.289 0 1.034-1.186 1.525-2.658.089-.261.372-.402.633-.316.262.088.403.371.316.633-.321.964-1.174 3.155-2.327 3.331.042.094.123.223.258.363.188.194.718.647 1.595.647.276 0 .5.224.5.5s-.224.5-.5.5z"/><path d="m28.5 31c-2.472 0-2.5-1.438-2.5-1.5 0-.276.224-.5.5-.5.269 0 .487.211.499.476.029.183.378.524 1.501.524 2.23 0 2.506-.565 2.508-.571 0-.276.22-.465.496-.465s.496.26.496.536c0 .352-.252 1.5-3.5 1.5zm-1.5-1.5h.01z"/><path d="m31.5 24.041c-.125 0-.249-.046-.347-.14-.199-.191-.205-.508-.014-.707l1-1.041c.191-.198.508-.204.707-.014.199.191.205.508.014.707l-1 1.041c-.097.102-.229.154-.36.154z"/><path d="m23.5 24.041c-.131 0-.263-.052-.36-.153l-1-1.041c-.191-.199-.186-.516.014-.707.201-.19.516-.185.707.014l1 1.041c.191.199.186.516-.014.707-.098.093-.222.139-.347.139z"/><path d="m34.5 22c-.209 0-.404-.133-.475-.342-.35-1.05-1.013-1.651-1.971-1.788-.738-.106-1.391.102-1.396.104-.261.088-.545-.054-.633-.316-.087-.262.055-.545.316-.633.035-.011.876-.285 1.854-.146.938.134 2.182.67 2.779 2.462.087.262-.055.545-.316.633-.053.018-.105.026-.158.026z"/><path d="m21.5 21.326c-.088 0-.176-.022-.256-.07-.237-.142-.315-.449-.174-.686 1.162-1.946 3.42-1.58 3.516-1.562.271.047.454.306.406.578-.047.272-.302.449-.577.407-.077-.017-1.684-.257-2.485 1.089-.094.157-.26.244-.43.244z"/></g><path d="m27.5 11.5s-1 3 3 5 9 4 9 8c0 0 2-1 2-7s-9-12-14-6z" fill="#cb783f"/><path d="m27.505 11.495c5.109-4.227 12.995 1.388 12.995 7.005 0 3.035-.511 4.787-1.017 5.781.003.074.017.143.017.219 0 0 2-1 2-7 0-5.998-8.995-11.996-13.995-6.005z" fill="#dc8c50"/></svg>