<svg enable-background="new 0 0 64 64" height="512" viewBox="0 0 64 64" width="512" xmlns="http://www.w3.org/2000/svg"><path d="m27.103 39.282 2.342-.782 9.055-1 2 .537v-2.537l-11.055.827-1.945 1.293z" fill="#968cd2"/><path d="m45.488 39.623c-1.903-.705-4.203-1.404-6.988-2.123v-7.76l-9.055 4.76v4c-3.01.752-5.26 1.568-6.945 2.481v12.481h22.988z" fill="#ffb4be"/><path d="m33.5 47c-.128 0-.256-.049-.354-.147-.194-.195-.194-.511 0-.706.118-.118 1.181-1.147 2.354-1.147.77 0 3.783-.711 4.879-.985.265-.067.539.095.606.364.067.268-.096.539-.364.606-.415.104-4.089 1.015-5.121 1.015-.645 0-1.408.617-1.647.854-.098.097-.225.146-.353.146z" fill="#f0a0aa"/><path d="m29.5 47c-.128 0-.255-.048-.353-.146-.239-.237-1.002-.854-1.647-.854-1.086 0-3.008-.945-3.224-1.053-.247-.124-.347-.424-.224-.671s.423-.347.671-.224c.528.264 2.055.948 2.777.948 1.173 0 2.236 1.029 2.354 1.146.195.195.195.511 0 .706-.098.099-.226.148-.354.148z" fill="#f0a0aa"/><path d="m24.5 49.5s2 2 6 2 8-1 8-1v12h-14z" fill="#aad2ff"/><path d="m23.335 40.561c-5.865 2.776-5.835 6.459-5.835 12.121v9.818h12.344l-1.344-3z" fill="#a99be0"/><path d="m23 40.733c-5.514 2.756-5.5 6.402-5.5 11.949v2c0-5.547-.014-9.193 5.5-11.949z" fill="#b4aaf0"/><path d="m17.5 56.526c1.318-1.501 3.629-3.774 5-3.044 1.739.925 4.985 4.408 5.805 5.304l-.19-.696c-.627-1.553-1.852-4.932-2.372-8.697l-2.409-8.833c-.182.086-.341.176-.512.263-.88 1.314-1.653 2.778-2.323 4.205-1.116 2.377-2.231 6.058-3 8.849.001.879.001 1.777.001 2.649z" fill="#968cd2"/><path d="m17.5 60.5v2h12.344l-.896-2z" fill="#968cd2"/><path d="m21.5 63c-.276 0-.5-.224-.5-.5 0-.904-.49-2.129-.964-3.314-.51-1.273-1.036-2.59-1.036-3.686 0-2.072 1.953-6.978 2.036-7.186.103-.257.396-.382.65-.279.256.103.381.394.279.65-.02.05-1.965 4.934-1.965 6.815 0 .904.49 2.129.964 3.314.51 1.273 1.036 2.59 1.036 3.686 0 .276-.224.5-.5.5z" fill="#968cd2"/><path d="m42.445 38.604-10.945 20.896-1.656 3h24.656s0-3 0-11c0-6.193-.82-9.462-12.055-12.896z" fill="#a99be0"/><path d="m42.445 38.604-.445.851v2l.445-.85c11.235 3.433 12.055 6.702 12.055 12.895 0-.633 0-1.29 0-2 0-6.193-.82-9.462-12.055-12.896z" fill="#b4aaf0"/><path d="m29.844 62.5h24.656s0-.611 0-2h-23.552z" fill="#968cd2"/><path d="m45.5 63c-.276 0-.5-.224-.5-.5v-13c0-.276.224-.5.5-.5s.5.224.5.5v13c0 .276-.224.5-.5.5z" fill="#968cd2"/><path d="m54.5 63h-37c-.276 0-.5-.224-.5-.5v-9.817c0-5.42 0-9.265 5.209-12.113.242-.134.545-.044.678.199.133.242.044.546-.199.678-4.688 2.564-4.688 5.791-4.688 11.137v9.416h36v-10.5c0-5.375-.447-8.57-9.627-11.745-.261-.09-.399-.375-.309-.636s.375-.399.636-.309c9.284 3.211 10.3 6.485 10.3 12.69v11c0 .276-.224.5-.5.5zm-36.5-.5h.01z" fill="#785ae6"/><path d="m29.444 36.827c-.276 0-.5-.224-.5-.5v-1.827c0-.276.224-.5.5-.5s.5.224.5.5v1.827c0 .276-.223.5-.5.5z" fill="#785ae6"/><path d="m40.5 35.5s4 2.208 6 8.833c1.18 3.91 1.664 7.435 1.862 9.668.071.805-.801 1.38-1.49.958-1.125-.689-2.874-1.24-5.373-.689-5 1.104-10 5.729-10 5.729s5-7.937 7-12.354c2.001-4.416 2.001-12.145 2.001-12.145z" fill="#968cd2"/><path d="m40.5 35.5s4 2 6 8 2 11 2 11-2-3-7-2-10 7-10 7 5-9 7-13 2-11 2-11z" fill="#a99be0"/><path d="m46.5 43.5c-1.571-4.714-4.869-7.254-6-8l-.075 1.986c1.131.746 4.504 3.301 6.075 8.014 1.197 3.591 1.675 6.813 1.868 8.831.086.102.132.169.132.169s0-5-2-11z" fill="#b4aaf0"/><path d="m48.5 55c-.164 0-.322-.081-.416-.223-.074-.108-1.906-2.704-6.486-1.787-1.084.217-2.266.706-3.513 1.454-.238.142-.544.065-.686-.171s-.065-.544.171-.686c1.345-.807 2.634-1.338 3.831-1.577 3.346-.67 5.436.35 6.539 1.217-.132-1.844-.555-5.488-1.915-9.568-1.734-5.201-5.048-7.309-5.654-7.658h-1.871c-.276 0-.5-.224-.5-.5s.224-.5.5-.5h2c.078 0 .154.018.224.053.171.085 4.208 2.163 6.25 8.289 2.003 6.007 2.026 10.949 2.026 11.157 0 .22-.144.415-.355.479-.048.014-.097.021-.145.021z" fill="#785ae6"/><path d="m29.445 36.331s-3.945 3.169-3.945 9.169 3 14 3 14-4-7-6-8-6 4-6 4 2-7 4-11 4.889-8.337 8.945-8.169z" fill="#a99be0"/><path d="m20.5 46.5c1.665-3.331 3.95-6.886 7.009-7.888.974-1.505 1.936-2.281 1.936-2.281-4.056-.168-6.945 4.169-8.945 8.169s-4 11-4 11 .376-.468.951-1.087c.769-2.378 1.908-5.632 3.049-7.913z" fill="#b4aaf0"/><path d="m16.5 56c-.078 0-.157-.018-.229-.056-.211-.109-.317-.353-.251-.582.083-.288 2.036-7.091 4.034-11.086.696-1.392 1.366-2.558 2.046-3.566.154-.229.465-.289.694-.135.229.155.289.465.135.694-.657.972-1.305 2.102-1.981 3.454-1.273 2.546-2.561 6.371-3.31 8.751 1.46-1.475 3.588-3.168 5.086-2.422.495.248 1.084.781 1.8 1.629.178.211.151.526-.06.705-.211.178-.527.15-.705-.06-.77-.912-1.231-1.253-1.483-1.379-1.128-.566-3.829 1.921-5.386 3.865-.097.122-.242.188-.39.188z" fill="#785ae6"/><path d="m22.513 41.49c-.096 0-.193-.028-.279-.085-.229-.155-.289-.465-.135-.694 2.26-3.346 4.732-4.987 7.366-4.878.276.011.49.245.479.521-.012.276-.248.508-.521.479-2.289-.102-4.415 1.356-6.495 4.438-.096.142-.254.219-.415.219z" fill="#785ae6"/><path d="m29.445 32.5v11l1.77 1 1.23 1 6.055-4v-11.76z" fill="#ffb4be"/><path d="m29.444 36.827c-.276 0-.5-.224-.5-.5v-1.827c0-.276.224-.5.5-.5s.5.224.5.5v1.827c0 .276-.223.5-.5.5z" fill="#785ae6"/><path d="m42.5 33.5c-4 0-5-1-5-1h-12s-3 2-6 1-2.755-3.683-2.755-3.683-2.717.388-3.416-1.863 1.171-3.454 1.171-3.454c-4-4 0-8 0-8 5 3 2-4 5-8s7-2 7-2 0-2 3-2 4 2 4 2 2-2 6-1 6 5 5 9c0 0 5 2 3 7 0 0 3 0 3 4s-2 5-2 5 1 3-6 3z" fill="#fa8cb4"/><path d="m14.5 18.5c5 3 2-4 5-8s7-2 7-2 0-2 3-2 4 2 4 2 2-2 6-1c2.964.741 4.826 3.131 5.187 5.946.437-3.626-1.539-7.034-5.187-7.946-4-1-6 1-6 1s-1-2-4-2-3 2-3 2-4-2-7 2 0 11-5 8c0 0-2.281 2.287-1.668 5.131.384-1.843 1.668-3.131 1.668-3.131z" fill="#ffa0c8"/><path d="m44.5 16.5s2.77 1.112 3.359 3.743c.659-3.476-2.241-5.2-3.114-5.63-.012.622-.087 1.254-.245 1.887z" fill="#ffa0c8"/><g fill="#e678a0"><path d="m19.5 27c-3.17 0-5.266-2.059-5.354-2.146-.195-.195-.195-.511 0-.706s.512-.195.707-.002c.019.018 1.902 1.854 4.647 1.854.276 0 .5.224.5.5s-.224.5-.5.5z"/><path d="m45.239 31.889c-1.293 0-1.901-.595-2.187-1.166-.124-.247-.023-.547.224-.671.248-.123.547-.024.671.224.634 1.268 3.408.237 4.329-.224.247-.123.547-.024.671.224.124.247.023.547-.224.671-.043.021-1.068.53-2.24.791-.472.105-.885.151-1.244.151z"/><path d="m46.735 25.374c-.442 0-.8-.202-.987-.561-.321-.616-.047-1.539.374-2.094.476-.627.937-1.453.941-1.461.134-.242.438-.329.68-.194.242.134.329.438.194.68-.02.037-.499.895-1.018 1.58-.315.415-.359.955-.278 1.037.006.004.046.016.112.014.348-.014 1.144-.546 1.527-1.255.146-.271.28-.66.087-.983-.142-.237-.064-.544.172-.686.237-.141.544-.064.686.172.339.567.316 1.268-.066 1.973-.515.95-1.577 1.748-2.369 1.778-.018 0-.037 0-.055 0z"/><path d="m30.5 12c-.276 0-.5-.224-.5-.5 0-3.551-3.475-4.478-3.623-4.515-.267-.068-.429-.34-.362-.607.067-.269.34-.432.605-.363.045.011 4.38 1.145 4.38 5.485 0 .276-.224.5-.5.5z"/><path d="m34.5 11c-.276 0-.5-.224-.5-.5 0-2.7-.851-3.644-.859-3.652-.186-.2-.181-.515.015-.704.195-.189.504-.19.698.003.117.117 1.146 1.236 1.146 4.353 0 .276-.224.5-.5.5z"/></g><path d="m21.284 34.283c-.629 0-1.284-.089-1.942-.309-2.252-.75-2.976-2.467-3.089-3.625-1.162-.003-2.848-.462-3.401-2.247-.522-1.683.217-2.968.918-3.651-3.665-4.169.335-8.263.377-8.305.163-.163.414-.192.611-.075 1.234.741 1.726.696 1.909.604.458-.23.578-1.415.706-2.669.183-1.804.41-4.049 1.729-5.806 2.517-3.357 5.742-2.785 7.042-2.37.27-.74 1.06-1.83 3.356-1.83 2.328 0 3.571 1.105 4.111 1.777.849-.58 2.853-1.553 6.01-.762 4.041 1.01 6.332 4.924 5.455 9.204.481.249 1.322.758 2.047 1.574.936 1.052 1.833 2.804 1.048 5.311 1.017.262 2.829 1.179 2.829 4.396 0 3.318-1.325 4.744-1.955 5.234.025.391-.055.929-.426 1.444-.871 1.209-2.93 1.822-6.119 1.822-1.713 0-3.112-.177-4.158-.526-.262-.087-.403-.37-.316-.632s.368-.405.632-.316c.649.216 1.843.474 3.842.474 3.736 0 4.929-.881 5.308-1.406.347-.481.22-.931.218-.936-.079-.236.028-.494.25-.605.065-.035 1.724-.96 1.724-4.553 0-3.46-2.398-3.5-2.5-3.5-.166 0-.321-.083-.414-.22s-.112-.312-.05-.466c1.787-4.466-2.537-6.276-2.722-6.351-.231-.093-.359-.343-.298-.585.97-3.882-1.023-7.49-4.636-8.394-3.647-.91-5.453.798-5.527.871-.115.112-.277.163-.434.137-.157-.027-.294-.126-.365-.269-.036-.067-.925-1.723-3.554-1.723-2.391 0-2.496 1.352-2.5 1.506-.005.17-.096.33-.242.418s-.327.099-.48.023c-.149-.072-3.673-1.752-6.378 1.853-1.151 1.535-1.363 3.627-1.534 5.308-.169 1.668-.303 2.986-1.252 3.462-.615.307-1.399.175-2.512-.434-.767.927-2.805 3.955.251 7.011.107.107.16.256.144.407s-.099.286-.227.367c-.061.04-1.538 1.038-.964 2.886.562 1.81 2.776 1.528 2.869 1.516.151-.021.303.029.414.134.11.105.167.255.153.407-.007.091-.155 2.306 2.416 3.163 1.729.576 3.476.073 4.637-.45.253-.114.547 0 .662.25.113.252.001.548-.25.662-.896.403-2.104.794-3.423.794z" fill="#785ae6"/><path d="m21.5 17.5v10c0 3.866 3.134 7 7 7h5c3.314 0 6-2.686 6-6h2c1.657 0 3-1.343 3-3v-1c0-1.657-1.343-3-3-3h-2-3z" fill="#ffc8d2"/><path d="m21.5 17.5c0-3 2-4 3-4s2 1 3 1 3-3 7-1c2 1 3 3 2 5s3.189 3 3.189 3v2.041z" fill="#ffc8d2"/><path d="m23.5 14.5c2 4 0 7-3 7s-.086-3.204-.086-3.204l1.565-4.779z" fill="#fa8cb4"/><g fill="#785ae6"><path d="m38.375 36c-.276 0-.5-.224-.5-.5v-3.759c0-.104.033-.206.093-.291.666-.929 1.032-1.977 1.032-2.95 0-.276.224-.5.5-.5h2c1.378 0 2.5-1.122 2.5-2.5v-1c0-1.378-1.122-2.5-2.5-2.5h-1.811c-.276 0-.5-.224-.5-.5s.224-.5.5-.5h1.811c1.93 0 3.5 1.57 3.5 3.5v1c0 1.93-1.57 3.5-3.5 3.5h-1.524c-.095.987-.47 1.977-1.1 2.898v3.602c-.001.276-.224.5-.501.5z"/><path d="m31.5 35h-3c-4.136 0-7.5-3.364-7.5-7.5v-6c0-.276.224-.5.5-.5s.5.224.5.5v6c0 3.584 2.916 6.5 6.5 6.5h3c.276 0 .5.224.5.5s-.224.5-.5.5z"/><path d="m31.5 26c-.276 0-.5-.224-.5-.5v-3c0-.276.224-.5.5-.5s.5.224.5.5v3c0 .276-.224.5-.5.5z"/><path d="m23.5 26c-.276 0-.5-.224-.5-.5v-3c0-.276.224-.5.5-.5s.5.224.5.5v3c0 .276-.224.5-.5.5z"/><path d="m26.5 28c-1.739 0-2.892-1.292-2.892-2.146 0-.243.088-.461.249-.616.112-.109.315-.238.643-.238.289 0 1.034-1.186 1.526-2.658.087-.262.371-.403.632-.316.262.087.403.37.316.632-.321.964-1.173 3.155-2.327 3.331.042.094.123.223.258.363.188.195.719.648 1.595.648.276 0 .5.224.5.5s-.224.5-.5.5z"/><path d="m31.5 24.041c-.125 0-.25-.046-.346-.14-.199-.191-.206-.508-.014-.707l1-1.041c.192-.2.508-.206.707-.014.199.191.206.508.014.707l-1 1.041c-.099.103-.23.154-.361.154z"/><path d="m23.5 24.041c-.131 0-.262-.051-.36-.154l-1-1.041c-.191-.199-.185-.516.014-.707.198-.191.516-.186.707.014l1 1.041c.191.199.185.516-.014.707-.097.094-.222.14-.347.14z"/><path d="m34.5 22c-.209 0-.404-.132-.474-.342-.35-1.05-1.013-1.651-1.972-1.788-.738-.107-1.39.103-1.396.104-.265.089-.545-.055-.632-.316-.087-.262.054-.545.316-.632.035-.012.873-.287 1.854-.146.938.134 2.181.67 2.778 2.462.087.262-.054.545-.316.632-.053.018-.106.026-.158.026z"/></g><path d="m25.653 29.417s.469-.894 1.356-.916 1.304.458 1.304.458.626-.459 1.669-.459 1.304 1.543 3.129.917c0 0-2.19 2.084-4.798 2.084-1.813 0-2.66-2.084-2.66-2.084z" fill="#c85a82"/><path d="m20.5 22c-2.215 0-3.689-.547-4.779-1.773-.183-.207-.165-.522.042-.706.206-.184.521-.166.706.042.895 1.007 2.1 1.437 4.031 1.437 1.193 0 2.209-.537 2.789-1.474.761-1.231.675-2.981-.236-4.803-1.342-2.684-.559-4.896.52-5.974.92-.92 2.157-1.194 3.151-.697 2.361 1.18 1.297 4.466 1.25 4.605-.086.262-.372.403-.631.316-.262-.087-.404-.37-.317-.631.009-.026.836-2.603-.749-3.396-.612-.305-1.377-.11-1.997.511-.843.844-1.437 2.612-.333 4.82 1.069 2.138 1.139 4.243.192 5.776-.765 1.237-2.091 1.947-3.639 1.947z" fill="#e678a0"/></svg>