<svg enable-background="new 0 0 64 64" height="512" viewBox="0 0 64 64" width="512" xmlns="http://www.w3.org/2000/svg"><path d="m42.5 7.5s1-5 7-2c4 2 3 7 2 12s0 8 2 9c0 0-3 2-6 0s-6-14-5-19z" fill="#cb783f"/><path d="m42.5 9.5s1-5 7-2c1.925.963 2.686 2.624 2.852 4.642.206-2.908-.321-5.376-2.852-6.642-6-3-7 2-7 2-.186.931-.233 2.105-.168 3.411.03-.512.083-.988.168-1.411z" fill="#dc8c50"/><path d="m50.392 27.896c-.971 0-2.067-.245-3.169-.98-3.315-2.209-6.213-14.516-5.213-19.514.017-.084.433-2.072 2.24-2.956 1.43-.7 3.271-.495 5.474.606 4.342 2.171 3.287 7.445 2.267 12.545-.877 4.384-.245 7.465 1.733 8.455.159.08.264.238.275.416s-.073.349-.222.447c-.088.06-1.503.981-3.385.981zm-4.292-22.856c-.524 0-.995.102-1.411.305-1.368.669-1.696 2.238-1.699 2.253-.984 4.919 2.059 16.667 4.787 18.486 1.864 1.243 3.744.773 4.733.361-1.812-1.519-2.361-4.739-1.5-9.043.99-4.95 1.925-9.625-1.733-11.455-1.21-.604-2.273-.907-3.177-.907z" fill="#785ae6"/><path d="m39.5 6.5s3-1 5 1 0 6 0 6z" fill="#ffe885"/><path d="m44.5 9.5c.432.432.67.96.789 1.518.204-1.2.151-2.578-.789-3.518-2-2-5-1-5-1l1.265 1.771c1.054-.083 2.564.058 3.735 1.229z" fill="#fffa96"/><path d="m44.5 14c-.161 0-.313-.077-.407-.209l-5-7c-.092-.129-.118-.294-.069-.445s.167-.27.317-.319c.135-.045 3.318-1.073 5.512 1.121 2.229 2.229.182 6.401.094 6.577-.079.157-.233.261-.408.275-.013 0-.026 0-.039 0zm-4.154-7.176 4.038 5.653c.429-1.185.988-3.398-.237-4.623-1.21-1.21-2.878-1.171-3.801-1.03z" fill="#785ae6"/><path d="m21.5 23.5s-4-2-4-9c0-5 6-7 6-7s2-3 9-3 13 3 13 13-6 14-6 14z" fill="#cb783f"/><path d="m23.5 9.5s2-3 9-3c6.76 0 12.57 2.818 12.962 12.016.014-.337.038-.664.038-1.016 0-10-6-13-13-13s-9 3-9 3-6 2-6 7c0 .46.019.895.051 1.312.519-4.492 5.949-6.312 5.949-6.312z" fill="#dc8c50"/><path d="m38.5 33c-.08 0-.161-.019-.234-.058l-16.996-8.998c-.246-.125-4.27-2.287-4.27-9.444 0-4.905 5.212-7.06 6.192-7.421.516-.634 2.918-3.079 9.308-3.079 8.832 0 13.5 4.668 13.5 13.5 0 10.141-6.915 15.197-7.209 15.407-.087.062-.189.093-.291.093zm-6-28c-6.593 0-8.567 2.753-8.586 2.781-.062.089-.153.159-.255.193-.057.019-5.659 1.951-5.659 6.526 0 6.571 3.574 8.476 3.726 8.554.002.001.006.003.008.004l16.714 8.848c1.204-.984 6.552-5.836 6.552-14.406 0-8.294-4.206-12.5-12.5-12.5z" fill="#785ae6"/><path d="m46.5 39.5s2 1 4 2 4 2 4 10 0 11 0 11h-37s0-9 0-13 1-7 6-10z" fill="#aad2ff"/><circle cx="30.5" cy="56.5" fill="#f0dc78" r="1.5"/><path d="m17.5 62.5h37s0-.611 0-2h-37z" fill="#96bef0"/><path d="m50.5 41.5c-2-1-4-2-4-2h-23c-5 3-6 6-6 10v2c0-4 1-7 6-10h23s2 1 4 2 4 2 4 10c0-.633 0-1.29 0-2 0-8-2-9-4-10z" fill="#bee6ff"/><path d="m21.5 63c-.276 0-.5-.224-.5-.5 0-.904-.49-2.129-.964-3.314-.51-1.273-1.036-2.59-1.036-3.686 0-2.072 1.953-6.978 2.036-7.186.103-.257.396-.382.65-.279.256.103.381.394.279.65-.02.05-1.965 4.934-1.965 6.815 0 .904.49 2.129.964 3.314.51 1.273 1.036 2.59 1.036 3.686 0 .276-.224.5-.5.5z" fill="#96bef0"/><path d="m45.5 63c-.276 0-.5-.224-.5-.5v-13c0-.276.224-.5.5-.5s.5.224.5.5v13c0 .276-.224.5-.5.5z" fill="#96bef0"/><path d="m29.445 32.5v11l1.77 1 1.23 1 6.055-4v-11.76z" fill="#ffb4be"/><path d="m21.5 13.5v14c0 3.866 3.134 7 7 7h5c3.314 0 6-2.686 6-6h2c1.657 0 3-1.343 3-3v-1c0-1.657-1.343-3-3-3h-2v-8z" fill="#ffc8d2"/><path d="m26.5 10.5s-3 1-2 5 3 6 3 6 4-2 4-7c0 0 2 4 4 6s1 5 1 5 5-2 3-10z" fill="#ffb4be"/><path d="m21.5 17.5c1-3 3-4 3-4h-3z" fill="#cb783f"/><path d="m26.5 8.5s-3 1-2 5 3 6 3 6 4-2 4-7c0 0 2 4 4 6s2 5 2 5 4-2 2-10z" fill="#cb783f"/><path d="m37.5 24c-.184 0-.36-.101-.448-.276-.123-.246-.024-.545.221-.669.158-.082 3.604-1.983 1.742-9.433-.067-.268.096-.539.364-.606.267-.069.539.096.606.364 2.074 8.293-2.083 10.479-2.261 10.568-.072.035-.148.052-.224.052z" fill="#be6432"/><path d="m27.5 20c-.128 0-.255-.049-.353-.146-.086-.085-2.11-2.145-3.131-6.232-1.1-4.398 2.292-5.584 2.327-5.595.265-.088.545.054.632.316.087.261-.053.543-.313.632-.105.037-2.545.927-1.676 4.405.95 3.8 2.851 5.749 2.87 5.768.194.196.193.512-.002.707-.099.096-.227.145-.354.145z" fill="#be6432"/><g fill="#785ae6"><path d="m41.5 29h-2c-.276 0-.5-.224-.5-.5s.224-.5.5-.5h2c1.378 0 2.5-1.122 2.5-2.5v-1c0-1.378-1.122-2.5-2.5-2.5h-1.811c-.276 0-.5-.224-.5-.5s.224-.5.5-.5h1.811c1.93 0 3.5 1.57 3.5 3.5v1c0 1.93-1.57 3.5-3.5 3.5z"/><path d="m33.5 35h-5c-4.136 0-7.5-3.364-7.5-7.5v-10c0-.276.224-.5.5-.5s.5.224.5.5v10c0 3.584 2.916 6.5 6.5 6.5h5c.276 0 .5.224.5.5s-.224.5-.5.5z"/><path d="m31.5 26c-.276 0-.5-.224-.5-.5v-3c0-.276.224-.5.5-.5s.5.224.5.5v3c0 .276-.224.5-.5.5z"/><path d="m23.5 26c-.276 0-.5-.224-.5-.5v-3c0-.276.224-.5.5-.5s.5.224.5.5v3c0 .276-.224.5-.5.5z"/><path d="m38.5 46c-.276 0-.5-.224-.5-.5v-13.76c0-.276.224-.5.5-.5s.5.224.5.5v13.76c0 .276-.224.5-.5.5z"/><path d="m29.444 46c-.276 0-.5-.224-.5-.5v-11c0-.276.224-.5.5-.5s.5.224.5.5v11c0 .276-.223.5-.5.5z"/></g><path d="m32.5 45.5 8-9 6 3s-2 10-14 6z" fill="#f0f0e6"/><path d="m45.908 41.204c.445-.979.592-1.704.592-1.704l-6-3-1.231 1.385z" fill="#fffffa"/><g fill="#785ae6"><path d="m26.5 28c-1.739 0-2.892-1.292-2.892-2.146 0-.243.088-.461.249-.616.112-.109.315-.238.643-.238.289 0 1.034-1.186 1.526-2.658.087-.262.371-.404.632-.316.262.087.403.37.316.632-.321.964-1.173 3.155-2.327 3.331.042.094.123.223.258.363.188.195.719.648 1.595.648.276 0 .5.224.5.5s-.224.5-.5.5z"/><path d="m28.5 31c-2.472 0-2.5-1.439-2.5-1.5 0-.276.224-.5.5-.5.268 0 .487.211.5.476.028.184.376.524 1.5.524 2.23 0 2.506-.566 2.508-.572 0-.276.22-.464.496-.464s.496.26.496.536c0 .352-.252 1.5-3.5 1.5zm-1.5-1.5h.01z"/><path d="m31.5 24.041c-.125 0-.25-.046-.346-.14-.199-.191-.206-.508-.014-.707l1-1.041c.192-.2.508-.206.707-.014.199.191.206.508.014.707l-1 1.041c-.099.103-.23.154-.361.154z"/><path d="m23.5 24.041c-.131 0-.262-.051-.36-.154l-1-1.041c-.191-.199-.185-.516.014-.707.198-.191.516-.186.707.014l1 1.041c.191.199.185.516-.014.707-.097.094-.222.14-.347.14z"/><path d="m34.5 22c-.209 0-.404-.132-.474-.342-.35-1.05-1.013-1.651-1.972-1.788-.738-.106-1.39.102-1.396.104-.265.088-.545-.054-.632-.316s.054-.545.316-.632c.035-.013.873-.287 1.854-.146.938.134 2.181.67 2.778 2.462.087.262-.054.545-.316.632-.053.018-.106.026-.158.026z"/><path d="m21.5 21.326c-.087 0-.176-.023-.256-.071-.237-.142-.314-.449-.173-.686 1.163-1.947 3.418-1.58 3.515-1.562.272.047.454.307.407.579-.047.271-.301.457-.577.407-.079-.012-1.683-.257-2.486 1.089-.095.157-.26.244-.43.244z"/></g><path d="m27.5 36.5 5 9s-5 2-8-1c-2.55-2.55-1-5-1-5z" fill="#f0f0e6"/><path d="m28.426 38.167-.926-1.667-4 3s-.623.993-.424 2.37z" fill="#fffffa"/><path d="m24.5 44.5c-.876-.876-1.262-1.738-1.399-2.496-.178 1.236-.081 3.016 1.399 4.496 3 3 8-1 8-1s-5 2-8-1z" fill="#96bef0"/><path d="m46.5 39.5s-2 10-14 6c15 7.065 14-6 14-6z" fill="#96bef0"/><path d="m30.182 41.827c-.176 0-.346-.093-.438-.257l-2.403-4.325-3.541 2.655c-.222.166-.534.121-.7-.1s-.121-.534.1-.7l4-3c.115-.086.264-.121.404-.089.141.03.262.12.333.246l2.681 4.827c.134.241.047.546-.194.68-.077.043-.16.063-.242.063z" fill="#785ae6"/><path d="m54.5 63h-37c-.276 0-.5-.224-.5-.5v-13c0-4.126 1.044-7.31 6.243-10.429l3.957-2.971c.115-.086.264-.121.404-.089.141.03.262.12.333.246l1.667 3c.134.241.047.546-.194.68-.24.135-.546.047-.68-.194l-1.388-2.499-3.542 2.656c-4.858 2.918-5.8 5.726-5.8 9.6v12.5h36v-10.5c0-7.691-1.809-8.595-3.724-9.553l-9.657-4.829-7.746 8.713c-.184.207-.5.225-.706.042-.207-.183-.225-.5-.042-.706l8-9c.15-.17.397-.215.597-.115l10 5c2.104 1.052 4.278 2.139 4.278 10.448v11c0 .276-.224.5-.5.5z" fill="#785ae6"/><circle cx="31.5" cy="50.5" fill="#f0dc78" r="1.5"/><path d="m38.475 32.354c-.096 0-.194-.028-.279-.086-.229-.154-.289-.465-.134-.694.613-.909.938-1.972.938-3.074 0-.276.224-.5.5-.5s.5.224.5.5c0 1.302-.384 2.559-1.111 3.634-.096.143-.254.22-.414.22z" fill="#785ae6"/></svg>