<svg height="512pt" viewBox="-52 0 512 512.001" width="512pt" xmlns="http://www.w3.org/2000/svg"><path d="m327.171875 90.164062h-33.871094v316.867188c0 6.199219-5.027343 11.226562-11.226562 11.226562h-171.296875v74.726563c0 6.199219 5.027344 11.222656 11.226562 11.222656h266.492188c6.199218 0 11.226562-5.023437 11.226562-11.222656v-330.273437zm0 0" fill="#e6e2e6"/><path d="m110.777344 451.257812h174.296875c22.734375 0 41.226562-18.492187 41.226562-41.226562v-319.867188h-33v316.867188c0 6.199219-5.027343 11.226562-11.226562 11.226562h-171.296875zm0 0" fill="#d8d1d7"/><path d="m338.398438 162.710938h61.324218l-72.550781-72.546876v61.324219c0 6.199219 5.027344 11.222657 11.226563 11.222657zm0 0" fill="#d8d1d7"/><path d="m223.75 7.210938h-205.167969c-6.199219 0-11.226562 5.023437-11.226562 11.222656v391.597656c0 6.199219 5.027343 11.222656 11.226562 11.222656h266.492188c6.199219 0 11.226562-5.023437 11.226562-11.222656v-330.269531zm0 0" fill="#e6e2e6"/><path d="m37.359375 410.03125v-391.597656c0-6.199219 5.023437-11.222656 11.222656-11.222656h-30c-6.199219 0-11.226562 5.023437-11.226562 11.222656v391.597656c0 6.199219 5.027343 11.222656 11.226562 11.222656h30c-6.199219.003906-11.222656-5.023437-11.222656-11.222656zm0 0" fill="#d8d1d7"/><path d="m234.972656 79.761719h61.328125l-72.550781-72.550781v61.324218c0 6.199219 5.023438 11.226563 11.222656 11.226563zm0 0" fill="#d8d1d7"/><path d="m253.75 68.535156v-31.324218l-30-30v61.324218c0 6.199219 5.023438 11.226563 11.222656 11.226563h30.003906c-6.199218 0-11.226562-5.027344-11.226562-11.226563zm0 0" fill="#cac0c9"/><path d="m357.175781 151.488281v-31.324219l-30.003906-30v61.324219c0 6.199219 5.027344 11.222657 11.226563 11.222657h30c-6.199219 0-11.222657-5.023438-11.222657-11.222657zm0 0" fill="#cac0c9"/><path d="m223.894531 103.363281h-144.714843c-4.144532 0-7.5 3.355469-7.5 7.5 0 4.140625 3.355468 7.5 7.5 7.5h144.714843c4.144531 0 7.5-3.359375 7.5-7.5 0-4.144531-3.355469-7.5-7.5-7.5zm0 0"/><path d="m249.300781 140.296875h-195.527343c-4.144532 0-7.5 3.355469-7.5 7.5 0 4.140625 3.355468 7.5 7.5 7.5h195.527343c4.144531 0 7.5-3.359375 7.5-7.5 0-4.144531-3.359375-7.5-7.5-7.5zm0 0"/><path d="m249.300781 177.226562h-195.527343c-4.144532 0-7.5 3.359376-7.5 7.5 0 4.144532 3.355468 7.503907 7.5 7.503907h195.527343c4.144531 0 7.5-3.359375 7.5-7.503907 0-4.140624-3.359375-7.5-7.5-7.5zm0 0"/><path d="m249.300781 214.160156h-195.527343c-4.144532 0-7.5 3.359375-7.5 7.5 0 4.144532 3.355468 7.5 7.5 7.5h195.527343c4.144531 0 7.5-3.355468 7.5-7.5 0-4.140625-3.359375-7.5-7.5-7.5zm0 0"/><path d="m249.300781 251.09375h-195.527343c-4.144532 0-7.5 3.359375-7.5 7.5s3.355468 7.5 7.5 7.5h195.527343c4.144531 0 7.5-3.359375 7.5-7.5s-3.359375-7.5-7.5-7.5zm0 0"/><path d="m249.300781 288.027344h-195.527343c-4.144532 0-7.5 3.355468-7.5 7.5 0 4.140625 3.355468 7.5 7.5 7.5h195.527343c4.144531 0 7.5-3.359375 7.5-7.5 0-4.144532-3.359375-7.5-7.5-7.5zm0 0"/><path d="m249.300781 324.957031h-195.527343c-4.144532 0-7.5 3.359375-7.5 7.503907 0 4.140624 3.355468 7.5 7.5 7.5h195.527343c4.144531 0 7.5-3.359376 7.5-7.5 0-4.144532-3.359375-7.503907-7.5-7.503907zm0 0"/><path d="m249.300781 361.890625h-195.527343c-4.144532 0-7.5 3.359375-7.5 7.5 0 4.144531 3.355468 7.503906 7.5 7.503906h195.527343c4.144531 0 7.5-3.359375 7.5-7.503906 0-4.140625-3.359375-7.5-7.5-7.5zm0 0"/><path d="m352.722656 444.84375h-195.527344c-4.140624 0-7.5 3.359375-7.5 7.5 0 4.144531 3.359376 7.5 7.5 7.5h195.527344c4.144532 0 7.5-3.355469 7.5-7.5 0-4.140625-3.355468-7.5-7.5-7.5zm0 0"/><path d="m134.035156 0h-115.308594c-10.328124 0-18.726562 8.398438-18.726562 18.726562v391.59375c0 10.328126 8.398438 18.726563 18.726562 18.726563h84.695313v64.226563c0 10.328124 8.402344 18.726562 18.726563 18.726562h266.496093c10.324219 0 18.726563-8.398438 18.726563-18.726562v-171.160157c0-4.140625-3.359375-7.5-7.5-7.5-4.144532 0-7.5 3.359375-7.5 7.5v171.160157c0 2.054687-1.671875 3.726562-3.726563 3.726562h-266.496093c-2.054688 0-3.726563-1.671875-3.726563-3.726562v-64.226563h166.796875c5.476562 0 10.394531-2.375 13.820312-6.136719h53.683594c4.144532 0 7.5-3.355468 7.5-7.5 0-4.140625-3.355468-7.5-7.5-7.5h-48.777344v-21.933594h48.777344c4.144532 0 7.5-3.355468 7.5-7.5 0-4.140624-3.355468-7.5-7.5-7.5h-48.777344v-21.929687h48.777344c4.144532 0 7.5-3.359375 7.5-7.503906 0-4.140625-3.355468-7.5-7.5-7.5h-48.777344v-21.929688h48.777344c4.144532 0 7.5-3.359375 7.5-7.5 0-4.144531-3.355468-7.5-7.5-7.5h-48.777344v-21.933593h48.777344c4.144532 0 7.5-3.359376 7.5-7.5 0-4.144532-3.355468-7.5-7.5-7.5h-48.777344v-21.933594h48.777344c4.144532 0 7.5-3.359375 7.5-7.5s-3.355468-7.5-7.5-7.5h-48.777344v-21.933594h23.371094c4.144532 0 7.5-3.355469 7.5-7.5 0-4.140625-3.355468-7.5-7.5-7.5h-23.371094v-88.359375h15.871094v53.824219c0 10.328125 8.398438 18.726562 18.726563 18.726562h53.824219v116.609375c0 4.140625 3.355468 7.5 7.5 7.5 4.144531 0 7.5-3.359375 7.5-7.5v-124.109375c0-1.929687-.757813-3.867187-2.195313-5.304687l-72.550781-72.550781c-1.332032-1.332032-3.265625-2.195313-5.304688-2.195313h-23.371094v-2.902344c0-1.925781-.757812-3.863281-2.195312-5.304687l-72.550781-72.550782c-1.332031-1.328124-3.246094-2.195312-5.304688-2.195312h-54.855469c-4.144531 0-7.5 3.359375-7.5 7.5 0 4.144531 3.355469 7.5 7.5 7.5h47.355469v53.824219c0 10.328125 8.398438 18.726562 18.726563 18.726562h53.824218v322.769531c0 2.054688-1.671874 3.726563-3.726562 3.726563h-266.492188c-2.054687 0-3.726562-1.671875-3.726562-3.726563v-391.59375c0-2.054687 1.671875-3.726562 3.726562-3.726562h115.308594c4.144532 0 7.5-3.355469 7.5-7.5 0-4.140625-3.355468-7.5-7.5-7.5zm204.507813 155.503906c-2.054688 0-3.726563-1.671875-3.726563-3.726562v-43.214844l46.941406 46.941406zm-103.421875-82.953125c-2.054688 0-3.726563-1.671875-3.726563-3.726562v-43.214844l46.941407 46.941406zm0 0"/></svg>