<?xml version="1.0" encoding="iso-8859-1"?>
<!-- Generator: Adobe Illustrator 19.0.0, SVG Export Plug-In . SVG Version: 6.00 Build 0)  -->
<svg version="1.1" id="Capa_1" xmlns="http://www.w3.org/2000/svg" xmlns:xlink="http://www.w3.org/1999/xlink" x="0px" y="0px"
	 viewBox="0 0 512 512" style="enable-background:new 0 0 512 512;" xml:space="preserve">
<path style="fill:#ED3B72;" d="M439.725,7.604v426.095L92.853,464.804l-47.297,4.238V42.957c0-19.527,15.836-35.353,35.353-35.353
	H439.725z"/>
<path style="fill:#CE2562;" d="M92.853,7.604v457.2l-47.297,4.238V42.957c0-19.527,15.836-35.353,35.353-35.353H92.853z"/>
<path style="fill:#B6C5D8;" d="M80.913,433.694h358.813v70.702H80.913c-19.524,0-35.351-15.827-35.351-35.351l0,0
	C45.561,449.521,61.389,433.694,80.913,433.694z"/>
<path style="fill:#19A2A5;" d="M466.44,206.26v103.951c0,7.381-2.991,14.052-7.827,18.888s-11.507,7.827-18.888,7.827v-54.059
	c0-9.196-7.452-16.637-16.637-16.637h-77.033c-11.974,0-22.802-4.846-30.649-12.694s-12.694-18.675-12.694-30.649
	c0-23.937,19.405-43.342,43.342-43.342h93.671C454.476,179.544,466.44,191.508,466.44,206.26z"/>
<path style="fill:#25C2CE;" d="M466.44,206.26v103.951c0,7.381-2.991,14.052-7.827,18.888s-11.507,7.827-18.888,7.827V179.544
	C454.476,179.544,466.44,191.508,466.44,206.26z"/>
<path d="M53.16,42.957c0-15.325,12.424-27.749,27.749-27.749h255.258c4.199,0,7.604-3.405,7.604-7.604l0,0
	c0-4.199-3.405-7.604-7.604-7.604H80.91C57.185,0,37.952,19.233,37.952,42.957v242.528c0,4.199,3.405,7.604,7.604,7.604l0,0
	c4.199,0,7.604-3.405,7.604-7.604C53.16,285.486,53.16,42.957,53.16,42.957z"/>
<path d="M348.333,201.595c-11.74,0-21.291,9.551-21.291,21.29s9.552,21.291,21.291,21.291s21.29-9.551,21.29-21.291
	S360.073,201.595,348.333,201.595z M348.333,228.968c-3.355,0-6.083-2.728-6.083-6.083c0-3.355,2.728-6.082,6.083-6.082
	c3.354,0,6.082,2.728,6.082,6.082C354.415,226.239,351.686,228.968,348.333,228.968z"/>
<path d="M447.328,172.8V7.604c0-4.199-3.405-7.604-7.604-7.604h-68.072c-4.199,0-7.604,3.405-7.604,7.604l0,0
	c0,4.199,3.405,7.604,7.604,7.604h60.468V171.94h-85.215c-27.895,0-51.261,22.069-51.79,49.96
	c-0.541,28.539,22.517,51.929,50.935,51.929h77.036c4.988,0,9.032,4.044,9.032,9.032v9.486v44.579v89.163H80.912
	c-10.574,0-20.26,3.848-27.751,10.207V320.972c0-4.199-3.405-7.604-7.604-7.604l0,0c-4.199,0-7.604,3.405-7.604,7.604v148.07h0.005
	v0.003c0,23.723,19.232,42.955,42.955,42.955h358.813c4.199,0,7.604-3.405,7.604-7.604v-70.697v-0.005v-90.023
	c15.276-3.47,26.718-17.15,26.718-33.461V206.263C474.047,189.951,462.605,176.271,447.328,172.8z M80.912,496.792
	c-15.299,0-27.746-12.447-27.746-27.747c0-15.3,12.447-27.747,27.746-27.747h351.209v8.933H92.853c-4.2,0-7.604,3.405-7.604,7.604
	s3.404,7.604,7.604,7.604h339.268v8.929H293.587c-4.2,0-7.604,3.405-7.604,7.604s3.404,7.604,7.604,7.604h138.534v7.217H80.912z
	 M458.839,310.21c0,7.839-4.743,14.59-11.51,17.536v-35.397v-9.487c0-13.366-10.875-24.24-24.24-24.24h-77.036
	c-19.705,0-35.737-16.031-35.737-35.737s16.032-35.737,35.736-35.737h93.674c10.54,0,19.114,8.574,19.114,19.113L458.839,310.21
	L458.839,310.21z"/>
<path d="M263.17,474.368H98.935c-4.2,0-7.604,3.405-7.604,7.604s3.404,7.604,7.604,7.604h164.234c4.2,0,7.604-3.405,7.604-7.604
	S267.369,474.368,263.17,474.368z"/>
<g>
</g>
<g>
</g>
<g>
</g>
<g>
</g>
<g>
</g>
<g>
</g>
<g>
</g>
<g>
</g>
<g>
</g>
<g>
</g>
<g>
</g>
<g>
</g>
<g>
</g>
<g>
</g>
<g>
</g>
</svg>
