<?xml version="1.0" encoding="iso-8859-1"?>
<!-- Generator: Adobe Illustrator 19.0.0, SVG Export Plug-In . SVG Version: 6.00 Build 0)  -->
<svg version="1.1" id="Capa_1" xmlns="http://www.w3.org/2000/svg" xmlns:xlink="http://www.w3.org/1999/xlink" x="0px" y="0px"
	 viewBox="0 0 512 512" style="enable-background:new 0 0 512 512;" xml:space="preserve">
<path style="fill:#F4E662;" d="M7.604,98.552v211.756c0,39.795,32.26,72.055,72.055,72.055h208.788L365.5,485.502v-103.14h66.841
	c39.795,0,72.055-32.26,72.055-72.055V98.552c0-39.795-32.26-72.055-72.055-72.055H79.658C39.864,26.497,7.604,58.757,7.604,98.552z
	"/>
<path d="M504.396,185.775c-4.199,0-7.604-3.405-7.604-7.604v-79.62c0-35.538-28.912-64.45-64.451-64.45H152.233
	c-4.199,0-7.604-3.405-7.604-7.604s3.405-7.604,7.604-7.604h280.108c43.925,0,79.659,35.735,79.659,79.658v79.621
	C512,182.371,508.595,185.775,504.396,185.775z"/>
<path d="M365.501,493.106c-2.353,0-4.629-1.095-6.092-3.054l-74.772-100.086H79.658C35.735,389.966,0,354.232,0,310.307V98.552
	c0-43.924,35.735-79.658,79.658-79.658h42.157c4.199,0,7.604,3.405,7.604,7.604s-3.405,7.604-7.604,7.604H79.658
	c-35.538-0.001-64.45,28.911-64.45,64.45v211.756c0,35.538,28.912,64.451,64.45,64.451h208.789c2.399,0,4.657,1.131,6.091,3.053
	l63.358,84.806v-80.256c0-4.199,3.405-7.604,7.604-7.604h66.841c35.539,0,64.451-28.913,64.451-64.451V208.589
	c0-4.199,3.405-7.604,7.604-7.604S512,204.39,512,208.589v101.718c0,43.925-35.735,79.659-79.659,79.659h-59.237v95.535
	c0,3.276-2.098,6.184-5.206,7.216C367.109,492.979,366.3,493.106,365.501,493.106z"/>
<path d="M113.954,188.337c0-4.805-4.487-35.152-4.487-42.992c0-22.002,20.31-41.474,43.925-41.474c5.667,0,8.029,3.794,8.029,7.587
	c0,3.54-2.361,7.334-5.667,7.334c-16.295,0-30.7,12.897-30.7,28.577c0,7.334,4.487,37.175,4.487,42.233
	c0,6.069-5.667,10.621-8.501,11.381c3.07,0.506,8.501,4.805,8.501,11.127c0,5.817-4.487,42.992-4.487,51.59
	c0,19.22,20.546,24.53,30.7,24.53c4.487,0,5.667,4.299,5.667,7.334c0,5.057-3.306,7.587-8.265,7.587
	c-23.615,0-43.688-15.679-43.688-38.693c0-8.345,4.487-46.28,4.487-51.337c0-8.599-14.17-1.518-14.17-12.392
	C99.785,190.36,113.954,196.935,113.954,188.337z"/>
<path d="M220.461,287.977c0,6.07-4.96,11.633-10.626,11.633c-6.376,0-10.864-5.563-10.864-11.633
	c0-6.575,4.487-11.885,10.864-11.885C215.501,276.091,220.461,281.402,220.461,287.977z"/>
<path d="M272.65,287.977c0,6.07-4.96,11.633-10.626,11.633c-6.376,0-10.864-5.563-10.864-11.633c0-6.575,4.487-11.885,10.864-11.885
	C267.691,276.091,272.65,281.402,272.65,287.977z"/>
<path d="M324.838,287.977c0,6.07-4.96,11.633-10.626,11.633c-6.376,0-10.864-5.563-10.864-11.633
	c0-6.575,4.487-11.885,10.864-11.885C319.879,276.091,324.838,281.402,324.838,287.977z"/>
<path d="M398.045,213.12c0,5.057,4.486,42.992,4.486,51.337c0,23.014-20.072,38.693-43.688,38.693c-4.96,0-8.265-2.53-8.265-7.587
	c0-3.035,1.181-7.334,5.667-7.334c10.155,0,30.7-5.311,30.7-24.53c0-8.598-4.486-45.773-4.486-51.59
	c0-6.322,5.431-10.621,8.501-11.127c-2.834-0.759-8.501-5.311-8.501-11.381c0-5.058,4.486-34.899,4.486-42.233
	c0-15.679-14.405-28.577-30.7-28.577c-3.306,0-5.667-3.794-5.667-7.334c0-3.793,2.361-7.587,8.029-7.587
	c23.615,0,43.925,19.473,43.925,41.474c0,7.84-4.486,38.187-4.486,42.992c0,8.599,14.17,2.024,14.17,12.391
	C412.215,211.603,398.045,204.522,398.045,213.12z"/>
<g>
</g>
<g>
</g>
<g>
</g>
<g>
</g>
<g>
</g>
<g>
</g>
<g>
</g>
<g>
</g>
<g>
</g>
<g>
</g>
<g>
</g>
<g>
</g>
<g>
</g>
<g>
</g>
<g>
</g>
</svg>
