<?xml version="1.0" encoding="iso-8859-1"?>
<!-- Generator: Adobe Illustrator 19.0.0, SVG Export Plug-In . SVG Version: 6.00 Build 0)  -->
<svg version="1.1" id="Capa_1" xmlns="http://www.w3.org/2000/svg" xmlns:xlink="http://www.w3.org/1999/xlink" x="0px" y="0px"
	 viewBox="0 0 512 512" style="enable-background:new 0 0 512 512;" xml:space="preserve">
<path style="fill:#25C2CE;" d="M504.389,316.331c0,96.188-77.981,174.169-174.169,174.169c-67.62,0-126.248-38.544-155.1-94.858
	c-12.178-23.788-19.059-50.743-19.059-79.311c0-38.372,12.412-73.831,33.439-102.612c22.032-30.182,53.554-52.996,90.17-64.088
	v-73.79h101.11v73.79c36.616,11.092,68.127,33.906,90.17,64.088C491.977,242.5,504.389,277.959,504.389,316.331z"/>
<path style="fill:#19A2A5;" d="M305.893,75.841v81.797c0,0-89.804,63.936-68.503,207.02c6.241,41.934-20.845,46.085-62.271,30.983
	c-12.178-23.788-19.059-50.743-19.059-79.311c0-38.372,12.412-73.831,33.439-102.612c22.032-30.182,53.554-52.996,90.17-64.088
	v-73.79L305.893,75.841L305.893,75.841z"/>
<path style="fill:#1F3B63;" d="M504.389,316.331c0,96.188-77.981,174.169-174.169,174.169c-67.62,0-126.248-38.544-155.1-94.858
	c-0.325-0.629-0.639-1.269-0.954-1.908c-0.294-0.578-0.578-1.157-0.863-1.746c-0.03-0.071-0.071-0.142-0.102-0.213
	c-0.294-0.609-0.589-1.228-0.873-1.847c-0.294-0.639-0.589-1.279-0.883-1.928c-0.355-0.781-0.7-1.563-1.035-2.344
	c-0.467-1.076-0.924-2.151-1.37-3.227c-0.578-1.401-1.137-2.811-1.664-4.222c-0.193-0.507-0.386-1.005-0.568-1.512
	c-0.365-0.995-0.731-1.989-1.076-2.984c-0.315-0.903-0.619-1.796-0.913-2.71c-0.325-0.954-0.629-1.918-0.924-2.882
	c-0.203-0.629-0.396-1.269-0.589-1.908c-0.02-0.081-0.051-0.162-0.071-0.254c-0.152-0.507-0.304-1.015-0.447-1.522
	c-0.162-0.568-0.325-1.137-0.477-1.705c-0.233-0.822-0.447-1.644-0.66-2.466c-0.183-0.68-0.355-1.35-0.518-2.03
	c-0.071-0.294-0.142-0.589-0.213-0.883c-0.173-0.69-0.325-1.38-0.487-2.07c-0.578-2.507-1.096-5.034-1.553-7.581
	c-0.112-0.609-0.223-1.228-0.325-1.847c-0.335-1.959-0.639-3.938-0.903-5.927c-0.112-0.812-0.223-1.614-0.315-2.426
	c-0.01-0.051-0.02-0.101-0.02-0.152c-0.091-0.721-0.173-1.441-0.244-2.162c-0.112-0.984-0.213-1.979-0.294-2.974
	c-0.081-0.822-0.152-1.654-0.213-2.486c-0.01-0.152-0.02-0.304-0.03-0.467c-0.061-0.761-0.112-1.532-0.152-2.294
	c-0.061-0.863-0.102-1.725-0.142-2.588c-0.03-0.568-0.051-1.137-0.061-1.705c-0.03-0.568-0.051-1.147-0.061-1.725
	c-0.02-0.65-0.03-1.299-0.041-1.949c-0.01-0.883-0.02-1.776-0.02-2.669c0-38.372,12.412-73.831,33.439-102.612h281.449
	C491.977,242.5,504.389,277.959,504.389,316.331z"/>
<path style="fill:#152C49;" d="M237.391,364.658c6.241,41.934-20.845,46.085-62.271,30.983c-0.325-0.629-0.639-1.269-0.954-1.908
	c-0.294-0.578-0.578-1.157-0.863-1.746c-0.03-0.071-0.071-0.142-0.101-0.213c-0.294-0.609-0.589-1.228-0.873-1.847
	c-0.294-0.639-0.589-1.279-0.883-1.928c-0.355-0.781-0.7-1.563-1.035-2.344c-0.477-1.076-0.934-2.151-1.37-3.227
	c-0.578-1.401-1.137-2.811-1.664-4.222c-0.193-0.507-0.386-1.005-0.568-1.512c-0.365-0.995-0.731-1.989-1.076-2.984
	c-0.315-0.903-0.619-1.806-0.913-2.71c-0.325-0.954-0.629-1.918-0.924-2.882c-0.203-0.629-0.396-1.269-0.589-1.908
	c-0.02-0.081-0.051-0.162-0.071-0.254c-0.152-0.507-0.304-1.015-0.447-1.522c-0.162-0.568-0.325-1.137-0.477-1.705
	c-0.233-0.822-0.447-1.644-0.66-2.466c-0.183-0.68-0.355-1.35-0.518-2.03c-0.071-0.294-0.142-0.589-0.213-0.883
	c-0.173-0.69-0.325-1.38-0.487-2.07c-0.578-2.507-1.096-5.034-1.553-7.581c-0.112-0.609-0.223-1.228-0.325-1.847
	c-0.335-1.959-0.639-3.938-0.903-5.927c-0.112-0.812-0.223-1.614-0.315-2.426c-0.01-0.051-0.02-0.101-0.02-0.152
	c-0.091-0.721-0.173-1.441-0.244-2.162c-0.112-0.984-0.213-1.979-0.294-2.974c-0.081-0.822-0.152-1.654-0.213-2.486
	c-0.01-0.152-0.02-0.304-0.03-0.467c-0.061-0.761-0.112-1.532-0.152-2.294c-0.061-0.863-0.102-1.725-0.142-2.588
	c-0.03-0.568-0.051-1.137-0.061-1.705c-0.03-0.568-0.051-1.147-0.061-1.725c-0.02-0.65-0.03-1.299-0.041-1.949
	c-0.01-0.883-0.02-1.776-0.02-2.669c0-38.372,12.412-73.831,33.439-102.612h70.654C241.927,247.585,227.374,297.363,237.391,364.658
	z"/>
<path style="fill:#25C2CE;" d="M201.411,89.907h-80.566c-13.879,0-25.131,11.252-25.131,25.131l0,0
	c0,13.879,11.252,25.131,25.131,25.131h80.566c13.879,0,25.131-11.252,25.131-25.131l0,0
	C226.542,101.158,215.29,89.907,201.411,89.907z"/>
<path style="fill:#19A2A5;" d="M135.75,115.038L135.75,115.038c0-13.879,11.252-25.131,25.131-25.131h-40.036
	c-13.879,0-25.131,11.252-25.131,25.131l0,0c0,13.879,11.252,25.131,25.131,25.131h40.036
	C147.002,140.168,135.75,128.917,135.75,115.038z"/>
<g>
	<path style="fill:#25C2CE;" d="M463.181,133.979h-80.566c-13.879,0-25.131,11.252-25.131,25.131l0,0
		c0,13.879,11.252,25.131,25.131,25.131h80.566c13.879,0,25.131-11.252,25.131-25.131l0,0
		C488.312,145.231,477.061,133.979,463.181,133.979z"/>
	<path style="fill:#25C2CE;" d="M373.781,21.499h-87.114c-15.008,0-27.173,12.166-27.173,27.173l0,0
		c0,15.008,12.166,27.173,27.173,27.173h87.114c15.008,0,27.173-12.166,27.173-27.173l0,0
		C400.954,33.665,388.789,21.499,373.781,21.499z"/>
</g>
<g>
	<path style="fill:#19A2A5;" d="M299.53,48.671L299.53,48.671c0-13.879,11.252-25.131,25.131-25.131h-40.036
		c-13.879,0-25.131,11.252-25.131,25.131l0,0c0,13.879,11.252,25.131,25.131,25.131h40.036
		C310.782,73.802,299.53,62.55,299.53,48.671z"/>
	<path style="fill:#19A2A5;" d="M397.52,159.11L397.52,159.11c0-13.879,11.252-25.131,25.131-25.131h-40.036
		c-13.879,0-25.131,11.252-25.131,25.131l0,0c0,13.879,11.252,25.131,25.131,25.131h40.036
		C408.771,184.241,397.52,172.989,397.52,159.11z"/>
</g>
<path style="fill:#25C2CE;" d="M279.791,490.5H42.468c-26.782,0-43.517-28.984-30.131-52.184l73.1-126.613l28.933-50.113V140.173
	h93.509V261.59l28.933,50.113l73.1,126.613C323.308,461.516,306.573,490.5,279.791,490.5z"/>
<path style="fill:#19A2A5;" d="M138.072,140.173V261.59l-14.269,50.113L87.766,438.316c-6.607,23.2,1.644,52.184,14.857,52.184
	h-60.15c-26.782,0-43.517-28.984-30.131-52.184l73.1-126.613l28.933-50.113V140.173L138.072,140.173L138.072,140.173z"/>
<path style="fill:#ED3B72;" d="M279.791,490.5H42.468c-26.782,0-43.517-28.984-30.131-52.184l73.09-126.603l0.02-0.01h151.365
	l73.1,126.613C323.308,461.516,306.573,490.5,279.791,490.5z"/>
<path style="fill:#CE2562;" d="M102.628,490.5H42.468c-26.782,0-43.517-28.984-30.131-52.184l73.09-126.603l0.02-0.01h38.361
	L87.771,438.316C81.164,461.516,89.415,490.5,102.628,490.5z"/>
<path style="fill:#25C2CE;" d="M469.65,184.237v259.508c0,12.909-5.237,24.6-13.69,33.064c-8.464,8.464-20.145,13.69-33.064,13.69
	c-25.818,0-46.754-20.926-46.754-46.754V184.237L469.65,184.237L469.65,184.237z"/>
<path style="fill:#19A2A5;" d="M405.588,443.746V184.237h-29.444v259.508c0,25.828,20.936,46.754,46.754,46.754
	c5.149,0,10.096-0.842,14.727-2.377C419.019,481.956,405.588,464.429,405.588,443.746z"/>
<path style="fill:#F4E662;" d="M469.65,258.373v185.373c0,12.909-5.237,24.6-13.69,33.064c-5.105,5.105-11.376,9.032-18.389,11.336
	c-4.607,1.532-9.54,2.354-14.675,2.354c-25.818,0-46.754-20.926-46.754-46.754V258.373H469.65z"/>
<path style="fill:#D8C74C;" d="M437.621,488.125c-0.02,0.01-0.03,0.01-0.051,0.02c-4.607,1.532-9.54,2.354-14.675,2.354
	c-25.818,0-46.754-20.926-46.754-46.754V258.373h29.451v185.373C405.593,464.429,419.019,481.955,437.621,488.125z"/>
<path d="M512,316.342c0-38.789-12.007-75.681-34.737-106.871v-20.806c11.224-5.37,18.935-16.946,18.653-30.259
	c-0.379-17.919-15.491-32.037-33.414-32.037h-6.868c-4.204,0-7.611,3.408-7.611,7.611l0,0c0,4.204,3.408,7.611,7.611,7.611h7.083
	c9.799,0,18.145,8.018,17.981,17.816c-0.159,9.523-7.955,17.222-17.517,17.222h-80.102c-9.799,0-18.145-8.018-17.98-17.817
	c0.159-9.523,7.956-17.222,17.516-17.222h37.499c4.204,0,7.611-3.408,7.611-7.611l0,0c0-4.204-3.408-7.611-7.611-7.611h-31.722
	V80.227c12.057-5.605,20.393-17.914,20.17-32.114c-0.301-19.114-16.397-34.226-35.513-34.226h-85.648
	c-19.117,0-35.212,15.113-35.513,34.227c-0.223,14.2,8.113,26.509,20.17,32.114v63.85c-20.502,6.927-39.726,17.594-56.565,31.3
	v-30.786c11.224-5.37,18.935-16.946,18.653-30.259c-0.379-17.919-15.491-32.037-33.414-32.037h-79.208
	c-17.923,0-33.036,14.119-33.414,32.038c-0.281,13.313,7.429,24.889,18.653,30.259v114.958l-50.938,88.227
	c-2.102,3.64-0.855,8.295,2.786,10.397l0,0c3.64,2.102,8.295,0.855,10.397-2.786l20.827-36.074h142.584l70.905,122.811
	c4.967,8.603,4.912,18.893-0.165,27.458c-4.967,8.38-14.19,13.308-23.931,13.308h-236.2c-9.741,0-18.965-4.928-23.931-13.308
	c-5.076-8.565-5.131-18.855-0.164-27.458l29.711-51.461c2.102-3.64,0.855-8.295-2.786-10.397l0,0
	c-3.64-2.102-8.295-0.855-10.397,2.786L5.748,434.513c-7.653,13.256-7.664,29.08-0.033,42.343
	c7.656,13.306,22.086,21.257,37.437,21.257h236.637c5.752,0,11.279-1.116,16.345-3.213c11.189,2.123,22.64,3.212,34.086,3.212
	c20.872,0,41.285-3.5,60.746-10.405c9.214,6.712,20.602,10.612,32.895,10.398c29.789-0.52,53.402-25.421,53.402-55.214v-19.669
	C499.993,392.009,512,355.113,512,316.342z M496.777,316.342c0,27.706-6.694,54.363-19.515,78.32V238.018
	C490.083,261.964,496.777,288.622,496.777,316.342z M462.04,191.852v58.909h-78.284v-58.909H462.04z M286.667,29.11h87.114
	c10.786,0,19.561,8.775,19.561,19.561c0,10.767-8.743,19.527-19.502,19.558h-87.231c-10.759-0.032-19.502-8.793-19.502-19.558
	C267.106,37.885,275.881,29.11,286.667,29.11z M281.875,156.917c3.211-0.972,5.406-3.931,5.406-7.285V83.455h85.887v44.306
	c-13.462,4.064-23.296,16.577-23.296,31.348c0,13.016,7.635,24.279,18.661,29.555v17.443h-153.04v-10.466
	C234.293,177.764,257.172,164.394,281.875,156.917z M120.845,97.518h80.566c9.66,0,17.519,7.859,17.519,17.519
	s-7.859,17.519-17.519,17.519h-80.566c-9.66,0-17.519-7.859-17.519-17.519C103.325,105.378,111.184,97.518,120.845,97.518z
	 M98.625,304.091l22.341-38.696c0.668-1.157,1.02-2.47,1.02-3.806V147.78h78.284v113.809c0,1.336,0.352,2.649,1.02,3.806
	l22.341,38.696H98.625z M313.053,482.008c1.252-1.598,2.414-3.292,3.455-5.095c7.664-13.274,7.664-29.125,0-42.4L215.492,259.55
	v-38.218h153.041v222.417c0,11.915,3.864,22.94,10.388,31.908c-15.711,4.802-32.045,7.233-48.703,7.233
	C324.485,482.889,318.749,482.591,313.053,482.008z M422.898,482.89c-21.583,0-39.142-17.559-39.142-39.142V265.984h78.284v177.764
	C462.04,465.332,444.481,482.89,422.898,482.89z"/>
<path d="M145.675,388.437c3.746,5.684,12.872,3.619,13.853-3.107c0.458-3.14-1.134-6.338-3.943-7.828
	c-2.884-1.53-6.502-1.026-8.858,1.23C144.109,381.24,143.641,385.425,145.675,388.437z"/>
<path d="M412.744,332.59c-1.213-2.87-4.086-4.774-7.219-4.694c-3.188,0.081-6.028,2.199-7.031,5.219
	c-2.148,6.473,5.016,12.342,10.968,9.01C412.753,340.282,414.214,336.072,412.744,332.59z"/>
<path d="M438.745,413.778c-1.216-2.872-4.082-4.774-7.215-4.694c-3.118,0.079-5.921,2.107-6.976,5.042
	c-1.114,3.096-0.042,6.644,2.571,8.632c2.459,1.871,5.931,2.031,8.566,0.425C438.831,421.27,440.178,417.173,438.745,413.778z"/>
<path d="M426.029,309.36c2.714,1.787,6.382,1.671,8.939-0.356c2.426-1.924,3.477-5.218,2.569-8.186
	c-0.893-2.921-3.491-5.052-6.531-5.364c-3.236-0.332-6.383,1.532-7.701,4.491C421.808,303.303,423.013,307.299,426.029,309.36z"/>
<path d="M202.507,366.983c3.738,5.678,12.88,3.62,13.853-3.103c0.455-3.142-1.131-6.341-3.943-7.832
	c-2.884-1.529-6.502-1.026-8.858,1.23C200.94,359.787,200.473,363.971,202.507,366.983z"/>
<path d="M197.199,402.219c-6.573,1.364-8.302,10.277-2.583,13.891c2.793,1.765,6.493,1.505,9.012-0.636
	c2.401-2.041,3.269-5.46,2.193-8.408C204.555,403.591,200.834,401.5,197.199,402.219z"/>
<g>
</g>
<g>
</g>
<g>
</g>
<g>
</g>
<g>
</g>
<g>
</g>
<g>
</g>
<g>
</g>
<g>
</g>
<g>
</g>
<g>
</g>
<g>
</g>
<g>
</g>
<g>
</g>
<g>
</g>
</svg>
