<?xml version="1.0" encoding="iso-8859-1"?>
<!-- Generator: Adobe Illustrator 19.0.0, SVG Export Plug-In . SVG Version: 6.00 Build 0)  -->
<svg version="1.1" id="Capa_1" xmlns="http://www.w3.org/2000/svg" xmlns:xlink="http://www.w3.org/1999/xlink" x="0px" y="0px"
	 viewBox="0 0 511.999 511.999" style="enable-background:new 0 0 511.999 511.999;" xml:space="preserve">
<path style="fill:#F4E662;" d="M319.12,344.055c64.959-25.272,111.002-88.426,111.002-162.326
	c0-96.171-77.955-174.126-174.116-174.126c-96.171,0-174.126,77.955-174.126,174.126c0,73.9,46.043,137.054,111.002,162.326"/>
<path style="fill:#D8C74C;" d="M144.22,181.729c0-85.53,61.659-156.648,142.954-171.34c-10.113-1.828-20.529-2.786-31.169-2.786
	c-96.171,0-174.126,77.955-174.126,174.126c0,73.9,46.043,137.054,111.002,162.326h62.34
	C190.263,318.783,144.22,255.629,144.22,181.729z"/>
<path style="fill:#1F3B63;" d="M218.597,466.993c0,20.657,16.747,37.404,37.404,37.404c20.658,0,37.404-16.747,37.404-37.404"/>
<g>
	<path style="fill:#B6C5D8;" d="M317.394,405.497H194.608c-16.982,0-30.748-13.766-30.748-30.748l0,0
		c0-16.982,13.766-30.748,30.748-30.748h122.786c16.982,0,30.748,13.766,30.748,30.748l0,0
		C348.142,391.731,334.376,405.497,317.394,405.497z"/>
	<path style="fill:#B6C5D8;" d="M303.029,466.993h-94.057c-16.982,0-30.748-13.766-30.748-30.748l0,0
		c0-16.982,13.766-30.748,30.748-30.748h94.057c16.982,0,30.748,13.766,30.748,30.748l0,0
		C333.777,453.227,320.011,466.993,303.029,466.993z"/>
</g>
<g>
	<path style="fill:#99A9BA;" d="M232.549,405.496h-37.943c-16.98,0-30.746-13.766-30.746-30.746c0-8.485,3.436-16.179,9.002-21.744
		c5.565-5.555,13.249-9.002,21.744-9.002h37.943c-8.485,0-16.179,3.447-21.744,9.002c-5.555,5.565-9.002,13.259-9.002,21.744
		C201.803,391.73,215.57,405.496,232.549,405.496z"/>
	<path style="fill:#99A9BA;" d="M246.914,466.988H208.97c-16.98,0-30.746-13.766-30.746-30.746c0-8.485,3.447-16.179,9.002-21.744
		c5.565-5.555,13.259-9.002,21.744-9.002h37.943c-8.495,0-16.179,3.447-21.744,9.002c-5.565,5.565-9.002,13.259-9.002,21.744
		C216.168,453.222,229.934,466.988,246.914,466.988z"/>
</g>
<circle style="fill:#FFF5B0;" cx="333.472" cy="119.183" r="42.574"/>
<path d="M394.163,76.008l-0.003,0.002c-3.214,2.462-3.958,7.029-1.633,10.344c19.646,28.022,29.992,60.842,29.992,95.373
	c0,34.215-10.296,67.084-29.777,95.053c-18.762,26.937-44.681,47.517-75.01,59.626c-0.114-0.001-0.224-0.009-0.338-0.009h-53.791
	v-87.775c25.227-3.68,44.691-25.373,44.854-51.567c0.024-3.93-2.808-7.442-6.713-7.885c-4.597-0.521-8.492,3.06-8.492,7.552
	c0,20.541-16.711,37.252-37.252,37.252c-20.476,0-37.148-16.607-37.252-37.058c-0.02-4.076-3.192-7.612-7.264-7.788
	c-4.354-0.189-7.941,3.284-7.941,7.596c0,26.342,19.52,48.204,44.855,51.899v87.775h-53.791c-0.114,0-0.225,0.008-0.339,0.009
	c-30.327-12.108-56.248-32.687-75.009-59.626c-20.04-28.772-30.361-62.728-29.753-98.001
	c1.573-91.18,75.304-163.575,166.499-163.575c42.066,0,81.749,15.494,112.535,43.78c2.979,2.738,7.604,2.594,10.466-0.267l0,0
	c3.065-3.065,2.945-8.065-0.249-10.998c-33.432-30.69-76.468-47.565-122.109-47.721C158.041-0.337,76.586,78.872,74.326,177.453
	c-0.891,38.871,10.38,76.324,32.457,108.019c17.106,24.56,39.672,44.277,65.941,57.81c-9.944,6.936-16.467,18.451-16.467,31.467
	c0,16.212,10.117,30.096,24.364,35.698c-6.269,6.884-10.072,16.05-9.997,26.089c0.158,21.197,17.94,38.059,39.136,38.059h1.89
	c3.625,21.207,22.126,37.404,44.351,37.404s40.727-16.197,44.352-37.404h1.89c21.197,0,38.978-16.862,39.137-38.058
	c0.075-10.04-3.728-19.207-9.997-26.091c14.247-5.603,24.363-19.487,24.363-35.698c0-13.016-6.524-24.531-16.468-31.468
	c26.269-13.533,48.836-33.249,65.941-57.809c21.266-30.532,32.505-66.405,32.505-103.744c0-37.647-11.271-73.435-32.675-104.001
	C402.555,74.165,397.615,73.364,394.163,76.008z M256.001,496.794c-13.805,0-25.444-9.438-28.814-22.198h57.63
	C281.446,487.357,269.806,496.794,256.001,496.794z M316.826,397.894h-68.737c-4.198,0-7.601,3.403-7.601,7.601v0.004
	c0,4.198,3.403,7.601,7.601,7.601h54.374c12.534,0,23.223,9.728,23.697,22.253c0.498,13.167-10.069,24.037-23.128,24.037h-93.489
	c-12.534,0-23.223-9.728-23.697-22.253c-0.498-13.167,10.069-24.037,23.128-24.037h3.638c4.198,0,7.601-3.403,7.601-7.601v-0.004
	c0-4.198-3.403-7.601-7.601-7.601h-17.435c-12.534,0-23.223-9.727-23.697-22.252c-0.498-13.167,10.069-24.038,23.128-24.038h122.786
	c13.059,0,23.627,10.871,23.128,24.038C340.048,388.167,329.359,397.894,316.826,397.894z"/>
<g>
</g>
<g>
</g>
<g>
</g>
<g>
</g>
<g>
</g>
<g>
</g>
<g>
</g>
<g>
</g>
<g>
</g>
<g>
</g>
<g>
</g>
<g>
</g>
<g>
</g>
<g>
</g>
<g>
</g>
</svg>
