<?xml version="1.0" encoding="iso-8859-1"?>
<!-- Generator: Adobe Illustrator 19.0.0, SVG Export Plug-In . SVG Version: 6.00 Build 0)  -->
<svg version="1.1" id="Capa_1" xmlns="http://www.w3.org/2000/svg" xmlns:xlink="http://www.w3.org/1999/xlink" x="0px" y="0px"
	 viewBox="0 0 512 512" style="enable-background:new 0 0 512 512;" xml:space="preserve">
<path style="fill:#FBC640;" d="M447.018,334.947c-5.082,0-10.107-1.349-14.537-3.901c-13.907-8.036-18.685-25.88-10.654-39.779
	c1.465-2.531,3.284-4.817,5.408-6.799c5.404-5.009,12.446-7.763,19.834-7.763c5.081,0,10.105,1.348,14.533,3.898
	c6.736,3.892,11.553,10.173,13.566,17.686c2.014,7.514,0.98,15.361-2.91,22.092c-2.446,4.237-5.936,7.81-10.093,10.33
	C457.602,333.483,452.363,334.947,447.018,334.947z"/>
<g>
	<path style="fill:#44C973;" d="M396.075,257.505c-18.246-15.874-38.923-31.544-61.458-46.578l-0.824-0.55l-0.064-0.99
		c-1.746-27.029-4.981-52.769-9.615-76.505l-0.335-1.715l1.652-0.568c35.838-12.32,68.008-18.832,93.032-18.832
		c25.758,0,43.416,7.002,51.063,20.248c15.364,26.614-11.108,73.525-70.816,125.489l-1.318,1.147L396.075,257.505z"/>
	<path style="fill:#44C973;" d="M418.479,400.228c-25.023,0-57.198-6.513-93.047-18.838l-1.652-0.567l0.334-1.716
		c4.648-23.817,7.883-49.564,9.615-76.524l0.063-0.991l0.826-0.551c22.47-14.969,43.147-30.637,61.457-46.566l1.318-1.146
		l1.318,1.146c11.566,10.064,22.117,20.188,31.362,30.092l1.37,1.468l-1.469,1.37c-1.833,1.711-3.406,3.686-4.671,5.873
		c-3.352,5.802-4.244,12.566-2.507,19.043c1.736,6.478,5.888,11.892,11.693,15.248c3.818,2.2,8.151,3.364,12.529,3.364h0.001
		c4.61,0,9.126-1.263,13.061-3.653l1.789-1.086l1.011,1.832c11.715,21.229,14.013,39.196,6.647,51.959
		C461.881,393.227,444.229,400.227,418.479,400.228z"/>
</g>
<path style="fill:#248A48;" d="M333.729,302.583c0.983-15.273,1.483-30.946,1.483-46.583c0-15.647-0.499-31.33-1.483-46.614
	l-0.261-4.054l3.379,2.255c22.676,15.127,43.489,30.903,61.864,46.888l1.741,1.515l-1.741,1.515
	c-18.439,16.042-39.254,31.814-61.865,46.878l-3.378,2.25L333.729,302.583z"/>
<path style="fill:#44C973;" d="M253.907,351.265c-13.794-6.816-27.704-14.264-41.346-22.137
	c-13.774-7.956-27.176-16.279-39.837-24.736l-0.825-0.551l-0.063-0.99c-0.988-15.356-1.49-31.12-1.49-46.851
	c0-15.731,0.502-31.496,1.49-46.851l0.063-0.99l0.825-0.551c12.659-8.457,26.063-16.779,39.836-24.736
	c13.642-7.875,27.549-15.326,41.334-22.148l0.891-0.441l0.89,0.441c13.865,6.866,27.768,14.317,41.323,22.148
	c13.603,7.852,27.009,16.167,39.844,24.714l0.827,0.55l0.063,0.992c0.989,15.369,1.49,31.139,1.49,46.871
	c0,15.723-0.501,31.483-1.49,46.841l-0.063,0.99l-0.825,0.551c-12.833,8.565-26.241,16.891-39.846,24.745
	c-13.626,7.862-27.527,15.31-41.313,22.137l-0.89,0.441L253.907,351.265z M254.786,230.892c-13.845,0-25.108,11.263-25.108,25.108
	c0,13.839,11.263,25.098,25.108,25.098c13.839,0,25.098-11.259,25.098-25.098C279.884,242.155,268.625,230.892,254.786,230.892z"/>
<g>
	<path style="fill:#248A48;" d="M334.619,210.928c-12.765-8.499-26.097-16.768-39.627-24.578
		c-13.483-7.787-27.309-15.198-41.098-22.025l-3.637-1.801l3.638-1.799c24.422-12.072,48.49-22.209,71.535-30.127l2.181-0.75
		l0.442,2.264c4.666,23.903,7.924,49.816,9.682,77.015l0.262,4.05L334.619,210.928z"/>
	<path style="fill:#248A48;" d="M325.431,381.391c-23.106-7.942-47.17-18.078-71.525-30.127l-3.636-1.799l3.635-1.8
		c13.712-6.79,27.537-14.197,41.089-22.016c13.531-7.811,26.862-16.089,39.624-24.607l3.378-2.255l-0.26,4.054
		c-1.743,27.131-5.001,53.049-9.682,77.036l-0.442,2.264L325.431,381.391z"/>
</g>
<g>
	<path style="fill:#44C973;" d="M253.897,164.325c-24.256-11.99-48.167-22.059-71.071-29.929l-1.653-0.568l0.335-1.716
		c2.956-15.119,6.447-29.319,10.38-42.205l0.586-1.922l1.922,0.587c2.404,0.734,4.898,1.107,7.415,1.107
		c13.839,0,25.098-11.259,25.098-25.098c0-9.167-4.999-17.606-13.043-22.023l-1.834-1.007l1.082-1.791
		c12.536-20.758,26.946-31.73,41.673-31.73c30.733,0,58.123,46.386,73.268,124.082l0.334,1.715l-1.652,0.568
		c-22.882,7.863-46.791,17.931-71.061,29.929l-0.889,0.44L253.897,164.325z"/>
	<path style="fill:#44C973;" d="M254.786,503.969c-30.732,0-58.123-46.389-73.269-124.092l-0.334-1.715l1.652-0.568
		c22.9-7.867,46.812-17.937,71.071-29.928l0.89-0.44l0.889,0.44c24.202,11.972,48.107,22.042,71.051,29.928l1.652,0.568
		l-0.334,1.715C312.908,457.579,285.518,503.969,254.786,503.969z"/>
</g>
<path style="fill:#FF7D46;" d="M254.786,285.114c-16.059,0-29.124-13.06-29.124-29.114c0-16.059,13.065-29.124,29.124-29.124
	c16.053,0,29.114,13.065,29.114,29.124C283.9,272.054,270.839,285.114,254.786,285.114z"/>
<path style="fill:#FBC640;" d="M201.809,93.696c-2.914,0-5.804-0.432-8.589-1.282c-12.285-3.798-20.535-14.982-20.535-27.832
	c0-16.054,13.065-29.114,29.124-29.114c4.889,0,9.725,1.234,13.987,3.57c9.331,5.124,15.127,14.911,15.127,25.544
	C230.923,80.636,217.863,93.696,201.809,93.696z"/>
<g>
	<path style="fill:#248A48;" d="M181.517,379.877c-4.681-23.994-7.939-49.909-9.681-77.025l-0.26-4.056l3.379,2.258
		c12.588,8.409,25.916,16.684,39.614,24.597c13.566,7.831,27.399,15.238,41.116,22.015l3.642,1.799l-3.641,1.8
		c-24.412,12.067-48.483,22.203-71.545,30.126l-2.182,0.75L181.517,379.877z"/>
	<path style="fill:#248A48;" d="M171.836,209.149c1.741-27.099,4.996-53.017,9.671-77.035l0.441-2.265l2.183,0.75
		c23.066,7.925,47.137,18.062,71.545,30.127l3.639,1.799l-3.638,1.8c-13.71,6.783-27.541,14.194-41.108,22.025
		c-13.698,7.913-27.026,16.188-39.614,24.597l-3.379,2.258L171.836,209.149z"/>
</g>
<g>
	<path style="fill:#44C973;" d="M110.871,257.515c-59.721-51.967-86.202-98.882-70.836-125.499
		c7.648-13.247,25.305-20.248,51.063-20.248c25.024,0,57.194,6.511,93.031,18.832l1.651,0.568l-0.333,1.715
		c-4.643,23.849-7.875,49.597-9.605,76.525l-0.063,0.991l-0.827,0.551c-22.491,14.984-43.165,30.651-61.446,46.566l-1.318,1.147
		L110.871,257.515z"/>
	<path style="fill:#44C973;" d="M88.386,400.203c-24.282-0.479-40.987-7.47-48.351-20.219c-7.728-13.387-4.825-32.417,8.397-55.03
		c12.571-21.501,34.162-45.869,62.439-70.469l1.318-1.147l1.318,1.147c18.281,15.915,38.955,31.581,61.446,46.566l0.827,0.551
		l0.063,0.991c1.731,26.945,4.965,52.688,9.615,76.514l0.334,1.715l-1.651,0.568c-14.413,4.963-28.457,9.043-41.742,12.124
		l-1.961,0.455l-0.451-1.962c-0.561-2.441-1.487-4.787-2.753-6.973c-4.467-7.748-12.806-12.559-21.763-12.559
		c-4.377,0-8.707,1.164-12.521,3.364c-7.942,4.586-12.751,13.134-12.549,22.311l0.045,2.052h-2.061V400.203z"/>
</g>
<path style="fill:#248A48;" d="M172.727,304.394c-22.633-15.08-43.445-30.852-61.856-46.879l-1.74-1.515l1.74-1.514
	c18.411-16.028,39.222-31.8,61.856-46.879l3.377-2.25l-0.26,4.05c-0.983,15.271-1.482,30.947-1.482,46.594
	c0,15.647,0.499,31.323,1.482,46.594l0.26,4.05L172.727,304.394z"/>
<path style="fill:#FBC640;" d="M115.53,426.706c-10.387,0-20.061-5.581-25.249-14.566c-2.448-4.238-3.793-9.045-3.893-13.903
	c-0.234-10.639,5.344-20.554,14.557-25.874c4.423-2.553,9.448-3.902,14.529-3.902c10.388,0,20.058,5.582,25.24,14.566
	c1.465,2.531,2.539,5.251,3.189,8.083c2.855,12.534-2.71,25.27-13.844,31.694C125.635,425.357,120.611,426.706,115.53,426.706z"/>
<path d="M254.786,293.145c20.482,0,37.145-16.663,37.145-37.145c0-20.487-16.663-37.155-37.145-37.155
	c-20.487,0-37.155,16.668-37.155,37.155C217.631,276.482,234.299,293.145,254.786,293.145z M254.786,238.923
	c9.411,0,17.067,7.66,17.067,17.077c0,9.411-7.656,17.067-17.067,17.067c-9.416,0-17.077-7.656-17.077-17.067
	C237.71,246.584,245.369,238.923,254.786,238.923z"/>
<path d="M91.929,103.738c-0.275-0.001-0.544-0.002-0.817-0.002c-36.355,0-51.627,13.169-58.032,24.265
	c-6.453,11.178-10.23,31.198,8.42,63.094c11.7,20.01,30.832,42.303,55.613,64.905c-24.781,22.596-43.913,44.888-55.614,64.903
	c-18.65,31.899-14.872,51.92-8.418,63.1c5.64,9.764,18.311,21.354,46.705,23.79c0.833,2.91,2.016,5.725,3.54,8.364
	c6.875,11.906,19.39,18.571,32.241,18.571c6.296,0,12.673-1.599,18.505-4.965c11.249-6.49,18.033-18.029,18.567-30.489
	c7.593-1.949,15.383-4.184,23.315-6.708c7.183,32.755,16.923,60.465,28.401,80.6C222.654,505.263,241.88,512,254.786,512
	c12.906,0,32.133-6.738,50.432-38.839c11.479-20.138,21.22-47.853,28.403-80.614c31.962,10.16,60.833,15.582,84.011,15.709
	c0.279,0.001,0.556,0.002,0.833,0.002c36.347,0,51.613-13.166,58.018-24.261c5.64-9.773,9.347-26.548-2.746-52.35
	c2.104-2.178,3.95-4.61,5.472-7.247c4.964-8.591,6.284-18.602,3.715-28.19c-2.568-9.584-8.713-17.597-17.314-22.567
	c-11.244-6.477-24.623-6.58-35.67-0.822c-5.463-5.583-11.294-11.211-17.465-16.84c24.774-22.599,43.899-44.888,55.594-64.892
	c18.644-31.894,14.865-51.912,8.412-63.089c-4.187-7.252-10.645-12.987-19.193-17.044c-5.006-2.377-10.996-0.243-13.373,4.766
	c-2.377,5.009-0.244,10.997,4.766,13.374c4.866,2.309,8.271,5.234,10.413,8.944c5.361,9.286,2.392,24.528-8.358,42.918
	c-10.951,18.731-29.365,39.959-53.469,61.719c-15.785-13.274-33.182-26.362-51.873-39.018c-1.612-22.497-4.235-44.107-7.843-64.402
	c20.041-6.488,38.632-10.999,55.363-13.423c5.487-0.795,9.29-5.888,8.495-11.375c-0.795-5.488-5.891-9.288-11.375-8.495
	c-17.207,2.494-36.145,7.022-56.414,13.473c-7.183-32.757-16.923-60.467-28.402-80.601C286.92,6.737,267.693,0,254.786,0
	c-11.278,0-27.655,5.176-43.965,28.552c-2.937-0.733-5.966-1.114-9.012-1.114c-20.487,0-37.155,16.663-37.155,37.145
	c0,12.98,6.603,24.622,17.127,31.313c-2.095,7.5-4.053,15.363-5.848,23.544C143.975,109.283,115.108,103.863,91.929,103.738z
	 M232.134,162.864c-7.902,4.191-15.79,8.551-23.59,13.054c-7.839,4.528-15.553,9.177-23.087,13.898
	c1.435-15.142,3.376-29.805,5.786-43.874C204.61,150.879,218.28,156.526,232.134,162.864z M318.324,145.94
	c2.407,14.04,4.352,28.706,5.791,43.89c-7.596-4.756-15.307-9.416-23.097-13.912c-7.775-4.491-15.667-8.84-23.599-13.047
	C291.285,156.527,304.958,150.877,318.324,145.94z M318.324,366.049c-13.38-4.943-27.048-10.59-40.885-16.922
	c7.9-4.191,15.783-8.547,23.576-13.043c7.793-4.499,15.508-9.163,23.102-13.925C322.681,337.316,320.737,351.983,318.324,366.049z
	 M346.755,229.039c12.428,8.839,24.156,17.852,35.112,26.951c-10.977,9.119-22.706,18.132-35.112,26.949
	c0.322-8.942,0.503-17.943,0.503-26.94C347.257,246.996,347.077,237.988,346.755,229.039z M290.979,193.306
	c11.924,6.883,23.666,14.137,35.015,21.576c0.773,13.535,1.187,27.332,1.187,41.118c0,13.778-0.414,27.566-1.187,41.093
	c-11.349,7.456-23.09,14.719-35.013,21.599c-11.943,6.89-24.096,13.454-36.188,19.549c-12.098-6.088-24.257-12.649-36.205-19.546
	c-12.044-6.957-23.794-14.198-35.006-21.565c-0.774-13.534-1.188-27.336-1.188-41.131c0-13.795,0.414-27.596,1.188-41.131
	c11.206-7.364,22.958-14.605,35.003-21.563c11.946-6.895,24.094-13.457,36.178-19.545
	C266.925,179.891,279.086,186.436,290.979,193.306z M191.248,366.05c-2.412-14.062-4.356-28.72-5.792-43.866
	c7.535,4.721,15.251,9.371,23.09,13.899c7.798,4.502,15.685,8.86,23.587,13.048C218.281,355.468,204.614,361.114,191.248,366.05z
	 M162.818,282.951c-12.412-8.822-24.14-17.837-35.107-26.951c10.966-9.114,22.693-18.127,35.107-26.951
	c-0.322,8.944-0.503,17.948-0.503,26.951C162.315,265.003,162.496,274.008,162.818,282.951z M58.832,180.961
	c-10.754-18.393-13.725-33.636-8.364-42.922c5.302-9.184,19.72-14.225,40.645-14.225c0.233,0,0.472,0,0.708,0.002
	c21.703,0.116,49.295,5.451,80.191,15.448c-3.617,20.379-6.236,41.998-7.838,64.433c-18.652,12.617-36.058,25.691-51.861,38.988
	C88.206,220.925,69.787,199.695,58.832,180.961z M50.468,373.961c-5.361-9.286-2.39-24.532,8.364-42.926
	c10.956-18.737,29.373-39.965,53.482-61.721c15.807,13.3,33.215,26.375,51.862,38.989c1.602,22.448,4.225,44.065,7.845,64.428
	c-8.177,2.646-16.192,4.984-23.975,6.99c-0.128-0.234-0.241-0.476-0.374-0.707c-4.957-8.597-12.968-14.746-22.555-17.315
	c-9.583-2.568-19.593-1.252-28.187,3.707c-8.552,4.938-14.63,12.986-17.202,22.225C67.954,386.424,55.63,382.899,50.468,373.961z
	 M124.037,412.37c-8.153,4.704-18.615,1.899-23.322-6.253c-1.434-2.484-2.223-5.294-2.281-8.141
	c-0.138-6.243,3.133-12.059,8.533-15.178c2.629-1.517,5.547-2.292,8.504-2.292c1.484,0,2.977,0.195,4.448,0.589
	c4.403,1.18,8.083,4.004,10.368,7.966c0.86,1.487,1.491,3.079,1.872,4.732C133.829,401.137,130.566,408.602,124.037,412.37z
	 M287.775,463.218c-10.552,18.509-22.268,28.703-32.989,28.703c-10.721,0-22.437-10.194-32.989-28.703
	c-10.748-18.854-19.924-45.418-26.716-77.177c19.403-7.032,39.432-15.568,59.713-25.416c20.239,9.834,40.264,18.371,59.696,25.415
	C307.699,417.799,298.523,444.364,287.775,463.218z M455.578,291.035c3.948,2.282,6.772,5.965,7.953,10.372
	c1.181,4.405,0.575,9.003-1.706,12.952c-1.457,2.523-3.444,4.559-5.914,6.057c-5.329,3.237-12.001,3.313-17.404,0.2
	c-3.948-2.282-6.772-5.965-7.953-10.371c-1.181-4.405-0.575-9.003,1.7-12.941c0.865-1.496,1.939-2.846,3.188-4.015
	C440.963,288.182,449.057,287.279,455.578,291.035z M415.302,286.567c-0.14,0.23-0.294,0.449-0.429,0.682
	c-4.964,8.591-6.284,18.602-3.715,28.19c2.568,9.584,8.713,17.597,17.313,22.566c5.754,3.317,12.167,4.97,18.574,4.97
	c3.116,0,6.228-0.408,9.265-1.19c4.842,10.795,7.948,23.229,2.783,32.177c-5.361,9.285-20.047,14.313-41.352,14.218
	c-21.7-0.119-49.293-5.454-80.189-15.452c3.62-20.358,6.243-41.977,7.845-64.434c18.636-12.607,36.044-25.681,51.869-38.99
	C403.666,275.082,409.697,280.854,415.302,286.567z M254.786,20.078c10.722,0,22.438,10.192,32.989,28.698
	c10.748,18.852,19.924,45.414,26.715,77.172c-19.392,7.029-39.419,15.566-59.705,25.417c-20.275-9.846-40.306-18.383-59.712-25.416
	c1.812-8.456,3.795-16.566,5.932-24.252c0.268,0.006,0.534,0.03,0.803,0.03c20.482,0,37.145-16.663,37.145-37.145
	c0-9.868-3.927-19.153-10.644-26.004C235.244,28.987,244.461,20.078,254.786,20.078z M201.809,47.516
	c2.911,0,5.668,0.703,8.19,2.084c5.475,3.007,8.877,8.747,8.877,14.983c0,9.411-7.656,17.067-17.067,17.067
	c-1.714,0-3.412-0.252-5.049-0.751c-7.195-2.231-12.027-8.785-12.027-16.316C184.733,55.172,192.393,47.516,201.809,47.516z"/>
<path d="M423.779,124.486c12.919,0,12.941-20.078,0-20.078C410.86,104.408,410.839,124.486,423.779,124.486z"/>
<g>
</g>
<g>
</g>
<g>
</g>
<g>
</g>
<g>
</g>
<g>
</g>
<g>
</g>
<g>
</g>
<g>
</g>
<g>
</g>
<g>
</g>
<g>
</g>
<g>
</g>
<g>
</g>
<g>
</g>
</svg>
