<svg height="512pt" viewBox="-9 0 512 512" width="512pt" xmlns="http://www.w3.org/2000/svg"><path d="m24.808594 7.210938h444.148437c9.601563 0 17.457031 7.851562 17.457031 17.453124v158.070313c0 9.601563-7.855468 17.457031-17.457031 17.457031h-35.394531c-6.160156 0-11.152344 4.992188-11.152344 11.152344v57.628906c0 9.257813-12.117187 12.742188-17.035156 4.898438l-42.910156-68.449219c-2.039063-3.253906-5.609375-5.230469-9.449219-5.230469h-328.207031c-9.597656 0-17.453125-7.855468-17.453125-17.457031v-158.070313c0-9.597656 7.855469-17.453124 17.453125-17.453124zm0 0" fill="#6c7fd9"/><path d="m37.355469 182.734375v-158.070313c0-9.597656 7.855469-17.453124 17.457031-17.453124h-30.003906c-9.597656 0-17.453125 7.855468-17.453125 17.453124v158.070313c0 9.601563 7.855469 17.457031 17.453125 17.457031h30.003906c-9.601562 0-17.457031-7.855468-17.457031-17.457031zm0 0" fill="#4f66d1"/><path d="m392.464844 205.417969c-2.039063-3.253907-5.605469-5.226563-9.445313-5.226563h-30.003906c3.839844 0 7.410156 1.972656 9.449219 5.226563l42.910156 68.453125c4.917969 7.84375 17.035156 4.359375 17.035156-4.898438v-15.789062zm0 0" fill="#4f66d1"/><path d="m468.957031 504.207031h-444.148437c-9.597656 0-17.453125-7.851562-17.453125-17.453125v-158.070312c0-9.601563 7.855469-17.457032 17.453125-17.457032h35.398437c6.160157 0 11.152344-4.992187 11.152344-11.152343v-57.628907c0-9.257812 12.117187-12.742187 17.035156-4.898437l42.910157 68.453125c2.039062 3.253906 5.609374 5.226562 9.449218 5.226562h328.203125c9.601563 0 17.457031 7.855469 17.457031 17.457032v158.070312c0 9.601563-7.855468 17.453125-17.457031 17.453125zm0 0" fill="#60b8ff"/><path d="m101.359375 300.074219v-41.839844l-12.964844-20.6875c-4.917969-7.84375-17.035156-4.359375-17.035156 4.898437v57.632813c0 6.15625-4.996094 11.152344-11.152344 11.152344h30c6.160157-.003907 11.152344-4.996094 11.152344-11.15625zm0 0" fill="#22a7ff"/><path d="m37.355469 486.753906v-158.070312c0-9.601563 7.855469-17.457032 17.457031-17.457032h-30.003906c-9.597656 0-17.453125 7.855469-17.453125 17.457032v158.070312c0 9.597656 7.855469 17.453125 17.453125 17.453125h30.003906c-9.601562 0-17.457031-7.851562-17.457031-17.453125zm0 0" fill="#22a7ff"/><path d="m139.40625 100.152344c0 8.992187-7.289062 16.28125-16.28125 16.28125s-16.28125-7.289063-16.28125-16.28125c0-8.992188 7.289062-16.28125 16.28125-16.28125s16.28125 7.289062 16.28125 16.28125zm0 0" fill="#4f66d1"/><path d="m130.972656 100.152344c0-4.203125 1.601563-8.019532 4.214844-10.90625-2.976562-3.292969-7.269531-5.375-12.0625-5.375-8.992188 0-16.28125 7.289062-16.28125 16.28125 0 8.992187 7.289062 16.28125 16.28125 16.28125 4.789062 0 9.085938-2.078125 12.0625-5.371094-2.613281-2.890625-4.214844-6.710938-4.214844-10.910156zm0 0" fill="#314dca"/><path d="m201.285156 100.152344c0 8.992187-7.289062 16.28125-16.28125 16.28125-8.992187 0-16.28125-7.289063-16.28125-16.28125 0-8.992188 7.289063-16.28125 16.28125-16.28125 8.992188 0 16.28125 7.289062 16.28125 16.28125zm0 0" fill="#4f66d1"/><path d="m192.851562 100.152344c0-4.203125 1.605469-8.019532 4.21875-10.90625-2.980468-3.292969-7.273437-5.375-12.066406-5.375-8.992187 0-16.28125 7.289062-16.28125 16.28125 0 8.992187 7.289063 16.28125 16.28125 16.28125 4.792969 0 9.085938-2.078125 12.066406-5.371094-2.613281-2.890625-4.21875-6.710938-4.21875-10.910156zm0 0" fill="#314dca"/><path d="m263.164062 100.152344c0 8.992187-7.289062 16.28125-16.28125 16.28125-8.992187 0-16.28125-7.289063-16.28125-16.28125 0-8.992188 7.289063-16.28125 16.28125-16.28125 8.992188 0 16.28125 7.289062 16.28125 16.28125zm0 0" fill="#4f66d1"/><path d="m254.730469 100.152344c0-4.203125 1.605469-8.019532 4.21875-10.90625-2.980469-3.292969-7.273438-5.375-12.066407-5.375-8.992187 0-16.28125 7.289062-16.28125 16.28125 0 8.992187 7.289063 16.28125 16.28125 16.28125 4.792969 0 9.085938-2.078125 12.066407-5.371094-2.613281-2.890625-4.21875-6.710938-4.21875-10.910156zm0 0" fill="#314dca"/><path d="m325.042969 100.152344c0 8.992187-7.289063 16.28125-16.277344 16.28125-8.992187 0-16.28125-7.289063-16.28125-16.28125 0-8.992188 7.289063-16.28125 16.28125-16.28125 8.988281 0 16.277344 7.289062 16.277344 16.28125zm0 0" fill="#4f66d1"/><path d="m316.609375 100.152344c0-4.203125 1.605469-8.019532 4.21875-10.90625-2.980469-3.292969-7.273437-5.375-12.066406-5.375-8.992188 0-16.28125 7.289062-16.28125 16.28125 0 8.992187 7.289062 16.28125 16.28125 16.28125 4.792969 0 9.085937-2.078125 12.066406-5.371094-2.613281-2.890625-4.21875-6.710938-4.21875-10.910156zm0 0" fill="#314dca"/><path d="m386.921875 100.152344c0 8.992187-7.289063 16.28125-16.28125 16.28125-8.988281 0-16.277344-7.289063-16.277344-16.28125 0-8.992188 7.289063-16.28125 16.277344-16.28125 8.992187 0 16.28125 7.289062 16.28125 16.28125zm0 0" fill="#4f66d1"/><path d="m378.488281 100.152344c0-4.203125 1.605469-8.019532 4.21875-10.90625-2.980469-3.292969-7.273437-5.375-12.066406-5.375-8.992187 0-16.28125 7.289062-16.28125 16.28125 0 8.992187 7.289063 16.28125 16.28125 16.28125 4.792969 0 9.085937-2.078125 12.066406-5.371094-2.613281-2.890625-4.21875-6.710938-4.21875-10.910156zm0 0" fill="#314dca"/><path d="m139.40625 413.019531c0 8.992188-7.289062 16.28125-16.28125 16.28125s-16.28125-7.289062-16.28125-16.28125c0-8.992187 7.289062-16.28125 16.28125-16.28125s16.28125 7.289063 16.28125 16.28125zm0 0" fill="#0094fd"/><path d="m130.972656 413.019531c0-4.199219 1.601563-8.015625 4.214844-10.90625-2.976562-3.292969-7.269531-5.375-12.0625-5.375-8.992188 0-16.28125 7.292969-16.28125 16.285157 0 8.992187 7.289062 16.28125 16.28125 16.28125 4.789062 0 9.085938-2.082032 12.0625-5.375-2.613281-2.890626-4.214844-6.707032-4.214844-10.910157zm0 0" fill="#0083fd"/><path d="m201.285156 413.019531c0 8.992188-7.289062 16.28125-16.28125 16.28125-8.992187 0-16.28125-7.289062-16.28125-16.28125 0-8.992187 7.289063-16.28125 16.28125-16.28125 8.992188 0 16.28125 7.289063 16.28125 16.28125zm0 0" fill="#0094fd"/><path d="m192.851562 413.019531c0-4.199219 1.605469-8.015625 4.21875-10.90625-2.980468-3.292969-7.273437-5.375-12.066406-5.375-8.992187 0-16.28125 7.292969-16.28125 16.285157 0 8.992187 7.289063 16.28125 16.28125 16.28125 4.792969 0 9.085938-2.082032 12.066406-5.375-2.613281-2.890626-4.21875-6.707032-4.21875-10.910157zm0 0" fill="#0083fd"/><path d="m263.164062 413.019531c0 8.992188-7.289062 16.28125-16.28125 16.28125-8.992187 0-16.28125-7.289062-16.28125-16.28125 0-8.992187 7.289063-16.28125 16.28125-16.28125 8.992188 0 16.28125 7.289063 16.28125 16.28125zm0 0" fill="#0094fd"/><path d="m254.730469 413.019531c0-4.199219 1.605469-8.015625 4.21875-10.90625-2.980469-3.292969-7.273438-5.375-12.066407-5.375-8.992187 0-16.28125 7.292969-16.28125 16.285157 0 8.992187 7.289063 16.28125 16.28125 16.28125 4.792969 0 9.085938-2.082032 12.066407-5.375-2.613281-2.890626-4.21875-6.707032-4.21875-10.910157zm0 0" fill="#0083fd"/><path d="m325.042969 413.019531c0 8.992188-7.289063 16.28125-16.277344 16.28125-8.992187 0-16.28125-7.289062-16.28125-16.28125 0-8.992187 7.289063-16.28125 16.28125-16.28125 8.988281 0 16.277344 7.289063 16.277344 16.28125zm0 0" fill="#0094fd"/><path d="m316.609375 413.019531c0-4.199219 1.605469-8.015625 4.21875-10.90625-2.980469-3.292969-7.273437-5.375-12.066406-5.375-8.992188 0-16.28125 7.292969-16.28125 16.285157 0 8.992187 7.289062 16.28125 16.28125 16.28125 4.792969 0 9.085937-2.082032 12.066406-5.375-2.613281-2.890626-4.21875-6.707032-4.21875-10.910157zm0 0" fill="#0083fd"/><path d="m386.921875 413.019531c0 8.992188-7.289063 16.28125-16.28125 16.28125-8.988281 0-16.277344-7.289062-16.277344-16.28125 0-8.992187 7.289063-16.28125 16.277344-16.28125 8.992187 0 16.28125 7.289063 16.28125 16.28125zm0 0" fill="#0094fd"/><path d="m378.488281 413.019531c0-4.199219 1.605469-8.015625 4.21875-10.90625-2.980469-3.292969-7.273437-5.375-12.066406-5.375-8.992187 0-16.28125 7.292969-16.28125 16.285157 0 8.992187 7.289063 16.28125 16.28125 16.28125 4.792969 0 9.085937-2.082032 12.066406-5.375-2.613281-2.890626-4.21875-6.707032-4.21875-10.910157zm0 0" fill="#0083fd"/><path d="m99.488281 100.441406c0 13.113282 10.667969 23.78125 23.78125 23.78125s23.785157-10.667968 23.785157-23.78125c0-13.109375-10.671876-23.78125-23.785157-23.78125s-23.78125 10.667969-23.78125 23.78125zm32.566407 0c0 4.84375-3.941407 8.78125-8.78125 8.78125-4.84375 0-8.78125-3.9375-8.78125-8.78125 0-4.839844 3.9375-8.777344 8.78125-8.777344 4.839843 0 8.78125 3.9375 8.78125 8.777344zm0 0"/><path d="m161.367188 100.441406c0 13.113282 10.671874 23.78125 23.78125 23.78125 13.113281 0 23.785156-10.667968 23.785156-23.78125 0-13.109375-10.671875-23.78125-23.785156-23.78125-13.109376 0-23.78125 10.667969-23.78125 23.78125zm32.566406 0c0 4.84375-3.941406 8.78125-8.78125 8.78125-4.84375 0-8.78125-3.9375-8.78125-8.78125 0-4.839844 3.9375-8.777344 8.78125-8.777344 4.839844 0 8.78125 3.9375 8.78125 8.777344zm0 0"/><path d="m223.246094 100.441406c0 13.113282 10.671875 23.78125 23.78125 23.78125 13.113281 0 23.78125-10.667968 23.78125-23.78125 0-13.109375-10.667969-23.78125-23.78125-23.78125-13.109375 0-23.78125 10.667969-23.78125 23.78125zm32.5625 0c0 4.84375-3.9375 8.78125-8.777344 8.78125-4.84375 0-8.78125-3.9375-8.78125-8.78125 0-4.839844 3.9375-8.777344 8.78125-8.777344 4.839844 0 8.777344 3.9375 8.777344 8.777344zm0 0"/><path d="m285.125 100.441406c0 13.113282 10.667969 23.78125 23.78125 23.78125s23.78125-10.667968 23.78125-23.78125c0-13.109375-10.667969-23.78125-23.78125-23.78125s-23.78125 10.667969-23.78125 23.78125zm32.5625 0c0 4.84375-3.9375 8.78125-8.777344 8.78125-4.84375 0-8.78125-3.9375-8.78125-8.78125 0-4.839844 3.9375-8.777344 8.78125-8.777344 4.839844 0 8.777344 3.9375 8.777344 8.777344zm0 0"/><path d="m347.003906 100.441406c0 13.113282 10.667969 23.78125 23.785156 23.78125 13.109376 0 23.78125-10.667968 23.78125-23.78125 0-13.109375-10.671874-23.78125-23.78125-23.78125-13.117187 0-23.785156 10.667969-23.785156 23.78125zm32.566406 0c0 4.84375-3.941406 8.78125-8.78125 8.78125-4.84375 0-8.78125-3.9375-8.78125-8.78125 0-4.839844 3.9375-8.777344 8.78125-8.777344 4.839844 0 8.78125 3.9375 8.78125 8.777344zm0 0"/><path d="m123.269531 389.53125c-13.113281 0-23.78125 10.667969-23.78125 23.78125s10.667969 23.78125 23.78125 23.78125 23.785157-10.667969 23.785157-23.78125-10.667969-23.78125-23.785157-23.78125zm0 32.5625c-4.839843 0-8.78125-3.9375-8.78125-8.78125s3.941407-8.78125 8.78125-8.78125c4.84375 0 8.78125 3.9375 8.78125 8.78125s-3.9375 8.78125-8.78125 8.78125zm0 0"/><path d="m161.367188 413.3125c0 13.113281 10.671874 23.78125 23.78125 23.78125 13.113281 0 23.785156-10.667969 23.785156-23.78125s-10.671875-23.78125-23.785156-23.78125c-13.109376 0-23.78125 10.667969-23.78125 23.78125zm32.566406 0c0 4.84375-3.941406 8.78125-8.78125 8.78125-4.84375 0-8.78125-3.9375-8.78125-8.78125s3.9375-8.78125 8.78125-8.78125c4.839844 0 8.78125 3.9375 8.78125 8.78125zm0 0"/><path d="m270.8125 413.3125c0-13.113281-10.667969-23.78125-23.78125-23.78125s-23.78125 10.667969-23.78125 23.78125 10.667969 23.78125 23.78125 23.78125 23.78125-10.667969 23.78125-23.78125zm-23.785156 8.78125c-4.839844 0-8.777344-3.9375-8.777344-8.78125s3.9375-8.78125 8.777344-8.78125c4.84375 0 8.78125 3.9375 8.78125 8.78125s-3.9375 8.78125-8.78125 8.78125zm0 0"/><path d="m332.691406 413.3125c0-13.113281-10.667968-23.78125-23.78125-23.78125-13.113281 0-23.78125 10.667969-23.78125 23.78125s10.667969 23.78125 23.78125 23.78125c13.113282 0 23.78125-10.667969 23.78125-23.78125zm-32.5625 0c0-4.84375 3.9375-8.78125 8.777344-8.78125 4.84375 0 8.78125 3.9375 8.78125 8.78125s-3.9375 8.78125-8.78125 8.78125c-4.839844 0-8.777344-3.9375-8.777344-8.78125zm0 0"/><path d="m394.570312 413.3125c0-13.113281-10.667968-23.78125-23.78125-23.78125-13.113281 0-23.78125 10.667969-23.78125 23.78125s10.667969 23.78125 23.78125 23.78125c13.113282 0 23.78125-10.667969 23.78125-23.78125zm-32.5625 0c0-4.84375 3.9375-8.78125 8.78125-8.78125 4.839844 0 8.777344 3.9375 8.777344 8.78125s-3.9375 8.78125-8.777344 8.78125c-4.84375 0-8.78125-3.9375-8.78125-8.78125zm0 0"/><path d="m469.101562 304.019531h-328.203124c-1.265626 0-2.421876-.640625-3.097657-1.714843l-42.90625-68.449219c-8.882812-14.167969-30.890625-7.90625-30.890625 8.878906v57.632813c0 2.015624-1.640625 3.652343-3.652344 3.652343h-35.394531c-13.761719 0-24.957031 11.195313-24.957031 24.953125v158.070313c0 13.761719 11.195312 24.957031 24.957031 24.957031h204.570313c4.144531 0 7.503906-3.355469 7.503906-7.5s-3.359375-7.5-7.503906-7.5h-204.570313c-5.488281 0-9.957031-4.46875-9.957031-9.957031v-158.070313c0-5.488281 4.46875-9.953125 9.957031-9.953125h35.394531c10.285157 0 18.652344-8.367187 18.652344-18.652343v-57.632813c0-1.765625 2.242188-2.410156 3.179688-.914063l42.910156 68.453126c3.433594 5.476562 9.34375 8.746093 15.804688 8.746093h328.207031c5.488281 0 9.953125 4.464844 9.953125 9.953125v158.070313c0 5.488281-4.464844 9.957031-9.953125 9.957031h-204.574219c-4.144531 0-7.5 3.355469-7.5 7.5s3.355469 7.5 7.5 7.5h204.570312c13.761719 0 24.957032-11.195312 24.957032-24.957031v-158.070313c0-13.757812-11.195313-24.953125-24.957032-24.953125zm0 0"/><path d="m469.101562 0h-444.144531c-13.761719 0-24.957031 11.195312-24.957031 24.957031v158.070313c0 13.757812 11.195312 24.953125 24.957031 24.953125h328.203125c1.265625 0 2.421875.640625 3.09375 1.714843l42.910156 68.449219c8.867188 14.148438 30.890626 7.941407 30.890626-8.878906v-57.632813c0-2.015624 1.640624-3.652343 3.652343-3.652343h35.394531c13.761719 0 24.957032-11.195313 24.957032-24.953125v-65.082032c0-4.144531-3.355469-7.5-7.5-7.5-4.144532 0-7.5 3.355469-7.5 7.5v65.082032c0 5.488281-4.46875 9.953125-9.957032 9.953125h-35.394531c-10.285156 0-18.652343 8.367187-18.652343 18.652343v57.632813c0 1.765625-2.242188 2.410156-3.179688.914063l-42.910156-68.453126c-3.433594-5.476562-9.339844-8.746093-15.804688-8.746093h-328.203125c-5.488281 0-9.957031-4.464844-9.957031-9.953125v-158.070313c0-5.488281 4.46875-9.957031 9.957031-9.957031h444.144531c5.488282 0 9.957032 4.46875 9.957032 9.957031v57.984375c0 4.144532 3.355468 7.5 7.5 7.5 4.144531 0 7.5-3.355468 7.5-7.5v-57.984375c0-13.761719-11.195313-24.957031-24.957032-24.957031zm0 0"/></svg>