<?xml version="1.0" encoding="iso-8859-1"?>
<!-- Generator: Adobe Illustrator 19.0.0, SVG Export Plug-In . SVG Version: 6.00 Build 0)  -->
<svg version="1.1" id="Capa_1" xmlns="http://www.w3.org/2000/svg" xmlns:xlink="http://www.w3.org/1999/xlink" x="0px" y="0px"
	 viewBox="0 0 512 512" style="enable-background:new 0 0 512 512;" xml:space="preserve">
<g>
	<polygon style="fill:#EFEFEF;" points="7.207,476.155 46.122,365.232 465.868,365.232 504.793,476.155 	"/>
	<path style="fill:#EFEFEF;" d="M45.538,323.95V35.845h420.914V323.95H45.538z M110.602,80.017c-11.52,0-20.892,9.368-20.892,20.882
		v157.987c0,11.52,9.372,20.892,20.892,20.892h290.796c11.514,0,20.882-9.372,20.882-20.892V100.899
		c0-11.514-9.368-20.882-20.882-20.882H110.602z"/>
</g>
<rect x="84.711" y="319.94" style="fill:#D4D4D4;" width="342.578" height="49.313"/>
<path style="fill:#44C973;" d="M110.602,283.793c-13.734,0-24.907-11.174-24.907-24.907V100.899
	c0-13.729,11.174-24.897,24.907-24.897h290.796c13.729,0,24.897,11.169,24.897,24.897v157.987c0,13.734-11.169,24.907-24.897,24.907
	H110.602z"/>
<path d="M110.602,291.825h290.796c18.157,0,32.929-14.777,32.929-32.939V100.899c0-18.157-14.772-32.929-32.929-32.929H110.602
	c-18.162,0-32.939,14.772-32.939,32.929v157.987C77.663,277.048,92.44,291.825,110.602,291.825z M97.742,100.899
	c0-7.086,5.77-12.85,12.86-12.85h290.796c7.086,0,12.85,5.765,12.85,12.85v157.987c0,7.091-5.765,12.86-12.85,12.86H110.602
	c-7.091,0-12.86-5.77-12.86-12.86V100.899z"/>
<path d="M1.849,479.953c1.882,2.655,4.935,4.234,8.19,4.234h491.922c3.255,0,6.308-1.578,8.19-4.234
	c1.882-2.655,2.36-6.059,1.283-9.131l-37.517-106.908c-1.411-4.023-5.209-6.714-9.473-6.714H435.32v-25.219h29.124
	c5.545,0,10.039-4.495,10.039-10.039V37.853c0-5.545-4.495-10.039-10.039-10.039H47.546c-5.545,0-10.039,4.495-10.039,10.039v284.09
	c0,5.545,4.495,10.039,10.039,10.039h29.134V357.2H47.546c-4.264,0-8.061,2.693-9.473,6.715L0.566,470.823
	C-0.511,473.895-0.033,477.298,1.849,479.953z M57.585,47.892h396.82v264.011h-29.124H86.719H57.585V47.892z M96.758,331.982
	h318.484V357.2H96.758V331.982z M54.662,377.279h402.665l30.471,86.829H24.2L54.662,377.279z"/>
<path d="M129.174,127.533h38.48c5.545,0,10.039-4.495,10.039-10.039s-4.495-10.039-10.039-10.039h-38.48
	c-5.545,0-10.039,4.495-10.039,10.039S123.63,127.533,129.174,127.533z"/>
<path d="M425.276,410.656H294.87c-5.545,0-10.039,4.495-10.039,10.039c0,5.545,4.495,10.039,10.039,10.039h130.406
	c5.545,0,10.039-4.495,10.039-10.039C435.315,415.151,430.821,410.656,425.276,410.656z"/>
<path d="M136.533,410.656H91.357c-5.545,0-10.039,4.495-10.039,10.039c0,5.545,4.495,10.039,10.039,10.039h45.176
	c5.545,0,10.039-4.495,10.039-10.039C146.572,415.151,142.078,410.656,136.533,410.656z"/>
<path d="M167.655,410.656c-12.919,0-12.941,20.078,0,20.078C180.574,430.734,180.595,410.656,167.655,410.656z"/>
<g>
</g>
<g>
</g>
<g>
</g>
<g>
</g>
<g>
</g>
<g>
</g>
<g>
</g>
<g>
</g>
<g>
</g>
<g>
</g>
<g>
</g>
<g>
</g>
<g>
</g>
<g>
</g>
<g>
</g>
</svg>
