<svg height="512pt" viewBox="-63 0 512 512.001" width="512pt" xmlns="http://www.w3.org/2000/svg"><path d="m50.84375 417.234375c-23.917969 0-43.488281 19.566406-43.488281 43.488281 0 23.917969 19.570312 43.484375 43.488281 43.484375h315.800781c6.832031 0 12.425781-5.589843 12.425781-12.421875v-74.550781zm0 0" fill="#e6e2e6"/><path d="m366.644531 7.210938h-309.613281v410.023437h322.039062v-397.601563c0-6.832031-5.59375-12.421874-12.425781-12.421874zm0 0" fill="#4f66d1"/><path d="m57.03125 7.210938h32.003906v410.023437h-32.003906zm0 0" fill="#314dca"/><path d="m366.644531 474.207031h-315.800781c-18.652344 0-34.660156-11.902343-40.800781-28.488281-1.734375 4.683594-2.6875 9.738281-2.6875 15.003906 0 23.917969 19.570312 43.484375 43.488281 43.484375h315.800781c6.832031 0 12.425781-5.589843 12.425781-12.421875v-30.003906c0 6.835938-5.59375 12.425781-12.425781 12.425781zm0 0" fill="#d8d1d7"/><path d="m59.03125 7.210938h-8.1875c-23.917969 0-43.488281 19.566406-43.488281 43.484374v410.027344c0-23.921875 19.570312-43.488281 43.488281-43.488281h8.1875zm0 0" fill="#6c7fd9"/><path d="m36.679688 44.195312c0-15.574218 8.304687-29.300781 20.699218-36.984374h-6.535156c-23.917969 0-43.488281 19.566406-43.488281 43.484374v410.027344c0-18.964844 12.308593-35.183594 29.324219-41.09375zm0 0" fill="#4f66d1"/><path d="m291.394531 198.261719-21.171875-36.675781c-.746094-1.292969-2.128906-2.089844-3.621094-2.089844h-42.347656c-1.496094 0-2.875.796875-3.625 2.089844l-21.171875 36.675781c-.746093 1.292969-.746093 2.886719 0 4.183593l21.171875 36.671876c.75 1.292968 2.128906 2.089843 3.625 2.089843h42.347656c1.492188 0 2.875-.796875 3.621094-2.089843l21.171875-36.671876c.746094-1.296874.746094-2.890624 0-4.183593zm0 0" fill="#43cd8e"/><path d="m250.632812 239.117188-21.175781-36.671876c-.746093-1.296874-.746093-2.890624 0-4.183593l21.175781-36.675781c.746094-1.292969 2.128907-2.089844 3.621094-2.089844h-30c-1.496094 0-2.878906.796875-3.625 2.089844l-21.171875 36.675781c-.746093 1.292969-.746093 2.886719 0 4.183593l21.171875 36.671876c.746094 1.292968 2.128906 2.089843 3.625 2.089843h30c-1.492187 0-2.875-.796875-3.621094-2.089843zm0 0" fill="#00b965"/><path d="m220.78125 157.492188-21.175781-36.671876c-.746094-1.292968-2.128907-2.089843-3.621094-2.089843h-42.347656c-1.492188 0-2.875.796875-3.621094 2.089843l-21.171875 36.671876c-.75 1.296874-.75 2.890624 0 4.183593l21.171875 36.675781c.746094 1.292969 2.128906 2.089844 3.621094 2.089844h42.347656c1.492187 0 2.875-.796875 3.621094-2.089844l21.175781-36.675781c.746094-1.292969.746094-2.886719 0-4.183593zm0 0" fill="#60b8ff"/><path d="m180.015625 198.351562-21.171875-36.675781c-.746094-1.292969-.746094-2.886719 0-4.183593l21.171875-36.671876c.746094-1.292968 2.128906-2.089843 3.621094-2.089843h-30c-1.492188 0-2.875.796875-3.621094 2.089843l-21.175781 36.671876c-.746094 1.296874-.746094 2.890624 0 4.183593l21.175781 36.675781c.746094 1.292969 2.128906 2.089844 3.621094 2.089844h30c-1.492188 0-2.871094-.796875-3.621094-2.089844zm0 0" fill="#22a7ff"/><path d="m335.144531 38.050781h-43.488281c-6.835938 0-12.425781 5.589844-12.425781 12.425781v3.105469c0 6.832031 5.589843 12.425781 12.425781 12.425781h43.488281c6.832031 0 12.421875-5.59375 12.421875-12.425781v-3.105469c0-6.835937-5.589844-12.425781-12.421875-12.425781zm0 0" fill="#60b8ff"/><path d="m309.230469 53.582031v-3.105469c0-6.835937 5.59375-12.425781 12.425781-12.425781h-30c-6.835938 0-12.425781 5.589844-12.425781 12.425781v3.105469c0 6.832031 5.589843 12.425781 12.425781 12.425781h30c-6.832031 0-12.425781-5.59375-12.425781-12.425781zm0 0" fill="#22a7ff"/><path d="m291.394531 279.832031-21.171875-36.671875c-.746094-1.292968-2.128906-2.089844-3.621094-2.089844h-42.347656c-1.496094 0-2.875.796876-3.625 2.089844l-21.171875 36.671875c-.746093 1.296875-.746093 2.890625 0 4.183594l21.171875 36.671875c.75 1.296875 2.128906 2.09375 3.625 2.09375h42.347656c1.492188 0 2.875-.796875 3.621094-2.09375l21.171875-36.671875c.746094-1.292969.746094-2.886719 0-4.183594zm0 0" fill="#ff646f"/><path d="m250.632812 320.6875-21.175781-36.671875c-.746093-1.292969-.746093-2.886719 0-4.183594l21.175781-36.671875c.746094-1.292968 2.128907-2.089844 3.621094-2.089844h-30c-1.496094 0-2.878906.796876-3.625 2.089844l-21.171875 36.671875c-.746093 1.296875-.746093 2.890625 0 4.183594l21.171875 36.671875c.746094 1.296875 2.128906 2.09375 3.625 2.09375h30c-1.492187 0-2.875-.796875-3.621094-2.09375zm0 0" fill="#ff4755"/><path d="m342.390625 417.234375v86.972656h24.253906c6.832031 0 12.425781-5.589843 12.425781-12.421875v-74.550781zm0 0" fill="#314dca"/><path d="m366.644531 474.207031h-24.253906v30h24.253906c6.832031 0 12.425781-5.589843 12.425781-12.421875v-30.003906c0 6.835938-5.59375 12.425781-12.425781 12.425781zm0 0" fill="#2740b1"/><path d="m299.242188 196.753906-21.421876-37.105468 21.421876-37.109376c2.074218-3.585937.84375-8.171874-2.742188-10.246093-3.589844-2.070313-8.175781-.839844-10.246094 2.746093l-21.425781 37.105469h-38.886719l-21.421875-37.105469c-1.339843-2.320312-3.816406-3.75-6.496093-3.75h-47.175782c-2.679687 0-5.15625 1.429688-6.496094 3.75l-23.589843 40.855469c-1.339844 2.320313-1.339844 5.183594 0 7.503907l23.589843 40.855468c1.339844 2.320313 3.816407 3.75 6.496094 3.75h43.214844l19.261719 33.355469-19.261719 33.355469h-43.214844c-4.144531 0-7.5 3.359375-7.5 7.5 0 4.144531 3.355469 7.5 7.5 7.5h43.214844l21.425781 37.109375c1.339844 2.320312 3.816407 3.75 6.496094 3.75h43.320313l20.949218 36.28125c2.070313 3.589843 6.660156 4.816406 10.246094 2.746093 3.585938-2.074218 4.816406-6.660156 2.742188-10.246093l-21.183594-36.695313 21.183594-36.695312c1.339843-2.320313 1.339843-5.179688 0-7.5l-21.421876-37.105469 21.421876-37.105469c1.339843-2.320312 1.339843-5.179687 0-7.5zm-163.324219-37.105468 19.257812-33.359376h38.515625l19.261719 33.359376-19.261719 33.355468h-38.515625zm128.910156 155.921874h-38.515625l-19.257812-33.355468 19.257812-33.355469h38.515625l19.257813 33.355469zm0-81.710937h-38.515625l-19.257812-33.355469 19.257812-33.359375h38.515625l19.257813 33.359375zm0 0"/><path d="m355.214844 53.871094v-3.105469c0-10.984375-8.941406-19.925781-19.925782-19.925781h-43.488281c-10.988281 0-19.925781 8.941406-19.925781 19.925781v3.105469c0 10.988281 8.9375 19.925781 19.925781 19.925781h43.488281c10.988282 0 19.925782-8.9375 19.925782-19.925781zm-68.339844 0v-3.105469c0-2.667969 2.257812-4.925781 4.925781-4.925781h43.488281c2.667969 0 4.921876 2.257812 4.921876 4.925781v3.105469c0 2.671875-2.253907 4.925781-4.921876 4.925781h-43.488281c-2.667969 0-4.925781-2.253906-4.925781-4.925781zm0 0"/><path d="m366.789062 512c10.988282 0 19.925782-8.9375 19.925782-19.925781 0-9.378907 0-237.316407 0-256.570313 0-4.144531-3.355469-7.5-7.5-7.5-4.144532 0-7.5 3.355469-7.5 7.5v174.519532c-12.632813 0-292.410156 0-305.039063 0v-395.023438h300.113281c2.667969 0 4.925782 2.257812 4.925782 4.925781v180.578125c0 4.140625 3.355468 7.5 7.5 7.5 4.144531 0 7.5-3.359375 7.5-7.5v-180.578125c0-10.988281-8.9375-19.925781-19.925782-19.925781-15.0625 0-300.707031 0-315.800781 0-28.113281 0-50.988281 22.875-50.988281 50.988281v410.023438c0 28.113281 22.875 50.988281 50.988281 50.988281h124.867188c4.144531 0 7.5-3.355469 7.5-7.5s-3.355469-7.5-7.5-7.5h-124.867188c-19.84375 0-35.988281-16.144531-35.988281-35.988281s16.144531-35.984375 35.988281-35.984375h284.046875v71.972656h-124.175781c-4.144531 0-7.5 3.355469-7.5 7.5s3.355469 7.5 7.5 7.5zm-351.789062-87.074219v-373.9375c0-18.980469 15.027344-35.988281 36.675781-35.988281v395.023438c-14.609375 0-27.082031 5.335937-36.675781 14.902343zm335.035156.101563h21.679688v67.046875c0 2.671875-2.253906 4.925781-4.925782 4.925781h-16.753906zm0 0"/></svg>