<?xml version="1.0" encoding="iso-8859-1"?>
<!-- Generator: Adobe Illustrator 19.0.0, SVG Export Plug-In . SVG Version: 6.00 Build 0)  -->
<svg version="1.1" id="Capa_1" xmlns="http://www.w3.org/2000/svg" xmlns:xlink="http://www.w3.org/1999/xlink" x="0px" y="0px"
	 viewBox="0 0 512 512" style="enable-background:new 0 0 512 512;" xml:space="preserve">
<path style="fill:#D4D4D4;" d="M139.912,503.969v-35.971c0-12.195,9.922-22.116,22.116-22.116h187.954
	c12.19,0,22.106,9.921,22.106,22.116v35.971H139.912z"/>
<g>
	<path style="fill:#EFEFEF;" d="M157.842,449.897c-6.807,0-12.936-3.778-15.994-9.858c-3.058-6.08-2.437-13.251,1.622-18.716
		l37.456-50.435h150.158l37.446,50.435c4.058,5.464,4.679,12.636,1.622,18.716c-3.059,6.081-9.187,9.859-15.994,9.859H157.842
		V449.897z"/>
	<path style="fill:#EFEFEF;" d="M179.928,374.904v-27.036c0-9.82,7.989-17.81,17.81-17.81h116.525c9.826,0,17.82,7.989,17.82,17.81
		v27.036H179.928z"/>
</g>
<polygon style="fill:#D4D4D4;" points="201.398,334.075 218.266,188.235 293.744,188.235 310.603,334.075 "/>
<g>
	<path style="fill:#EFEFEF;" d="M194.987,192.251c-8.303,0-15.059-6.759-15.059-15.069c0-2.884,0.824-5.696,2.384-8.131
		c1.545-2.417,3.751-4.34,6.379-5.558l47.598-21.863l0.726,0.218c6.123,1.835,12.512,2.766,18.99,2.766
		c6.472,0,12.858-0.931,18.98-2.766l0.726-0.218l47.592,21.86c5.334,2.46,8.779,7.833,8.779,13.691c0,4.025-1.567,7.81-4.412,10.656
		c-2.86,2.847-6.643,4.413-10.657,4.413H194.987z"/>
	<path style="fill:#EFEFEF;" d="M256.005,148.631c-6.87,0-13.646-0.988-20.143-2.935c-29.533-8.816-50.161-36.52-50.161-67.368
		c0-38.76,31.538-70.295,70.305-70.295s70.305,31.534,70.305,70.295c0,30.861-20.633,58.564-50.175,67.369
		C269.642,147.643,262.869,148.631,256.005,148.631z"/>
</g>
<path d="M131.88,501.961c0,5.545,4.495,10.039,10.039,10.039h228.161c5.545,0,10.039-4.495,10.039-10.039v-33.963
	c0-7.093-2.467-13.616-6.58-18.77c1.472-1.664,2.755-3.527,3.787-5.58c4.43-8.807,3.53-19.197-2.348-27.112l-34.865-46.958v-21.709
	c0-13.215-9.977-24.138-22.796-25.654l-14.095-121.932h13.791c6.152,0,11.948-2.397,16.336-6.766
	c4.362-4.363,6.764-10.164,6.764-16.334c0-8.981-5.278-17.217-13.459-20.99l-27.411-12.591c7.356-4.881,13.915-10.983,19.264-18.05
	c10.357-13.688,15.833-30.018,15.833-47.225C334.341,35.137,299.2,0,256.005,0s-78.336,35.137-78.336,78.326
	c0,17.205,5.474,33.534,15.831,47.221c5.348,7.068,11.908,13.169,19.263,18.052l-27.448,12.608c-4.02,1.862-7.399,4.81-9.764,8.511
	c-2.39,3.731-3.654,8.04-3.654,12.465c0,12.738,10.358,23.1,23.09,23.1h13.801l-14.103,121.932
	c-12.814,1.516-22.788,12.44-22.788,25.654v21.708l-34.875,46.959c-5.879,7.917-6.778,18.306-2.349,27.113
	c1.033,2.053,2.316,3.916,3.789,5.581c-4.113,5.154-6.581,11.677-6.581,18.769V501.961z M360.041,491.922H151.959v-23.923
	c0-5.552,4.518-10.069,10.069-10.069h187.954c5.547,0,10.059,4.518,10.059,10.069L360.041,491.922L360.041,491.922z M229,200.282
	h54.01l14.073,121.746h-82.165L229,200.282z M197.747,78.326c0-32.117,26.134-58.248,58.258-58.248s58.258,26.13,58.258,58.248
	c0,25.573-17.094,48.529-41.584,55.829c-10.752,3.225-22.615,3.22-33.356,0c-0.004-0.001-0.008-0.002-0.011-0.003
	C214.839,126.846,197.747,103.89,197.747,78.326z M191.975,177.182c0-0.576,0.167-1.139,0.488-1.642
	c0.307-0.48,0.754-0.865,1.262-1.101l43.613-20.033c6.077,1.491,12.336,2.256,18.666,2.256c6.328,0,12.587-0.766,18.657-2.256
	l43.599,20.026c1.077,0.497,1.774,1.576,1.774,2.75c0,1.09-0.554,1.807-0.868,2.121c-0.413,0.411-1.12,0.9-2.153,0.9h-25.058
	h-71.901h-25.068C193.326,180.204,191.975,178.849,191.975,177.182z M197.737,342.106h5.782c0.004,0,0.007,0,0.01,0h104.786
	c0.007,0,0.014,0.001,0.021,0.001c0.006,0,0.011-0.001,0.017-0.001h5.908c3.182,0,5.773,2.585,5.773,5.763v14.989h-128.06v-14.989
	C191.975,344.691,194.56,342.106,197.737,342.106z M153.141,428.507l33.843-45.571h138.039l33.834,45.57
	c1.943,2.615,1.019,5.151,0.531,6.121c-0.488,0.97-1.974,3.224-5.231,3.224h-4.176H162.027h-4.186c-3.259,0-4.745-2.255-5.231-3.224
	C152.123,433.657,151.2,431.122,153.141,428.507z"/>
<path d="M199.702,420.432h90.347c5.545,0,10.039-4.495,10.039-10.039s-4.495-10.039-10.039-10.039h-90.347
	c-5.545,0-10.039,4.495-10.039,10.039S194.157,420.432,199.702,420.432z"/>
<path d="M322.006,420.432c12.919,0,12.941-20.078,0-20.078C309.086,400.354,309.065,420.432,322.006,420.432z"/>
<g>
</g>
<g>
</g>
<g>
</g>
<g>
</g>
<g>
</g>
<g>
</g>
<g>
</g>
<g>
</g>
<g>
</g>
<g>
</g>
<g>
</g>
<g>
</g>
<g>
</g>
<g>
</g>
<g>
</g>
</svg>
