<?xml version="1.0" encoding="iso-8859-1"?>
<!-- Generator: Adobe Illustrator 19.0.0, SVG Export Plug-In . SVG Version: 6.00 Build 0)  -->
<svg version="1.1" id="Capa_1" xmlns="http://www.w3.org/2000/svg" xmlns:xlink="http://www.w3.org/1999/xlink" x="0px" y="0px"
	 viewBox="0 0 511.998 511.998" style="enable-background:new 0 0 511.998 511.998;" xml:space="preserve">
<path style="fill:#ED3B72;" d="M365.368,7.602H313.97c-21.188,0-38.363,17.176-38.363,38.364v122.42h128.125V45.967
	C403.732,24.779,386.555,7.602,365.368,7.602z"/>
<path style="fill:#CE2562;" d="M347.421,7.602H313.97c-21.188,0-38.364,17.176-38.364,38.364v122.42h33.451V45.967
	C309.058,24.779,326.233,7.602,347.421,7.602z"/>
<rect x="275.604" y="107.57" style="fill:#CC6A29;" width="128.127" height="89.861"/>
<rect x="275.604" y="107.57" style="fill:#AD4D17;" width="33.253" height="74.656"/>
<rect x="275.604" y="77.16" style="fill:#F4E662;" width="128.127" height="30.409"/>
<rect x="275.604" y="77.16" style="fill:#D8C74C;" width="33.253" height="30.409"/>
<path style="fill:#1F3B63;" d="M249.81,168.387c0-88.799-30.133-160.784-67.305-160.784S115.2,79.588,115.2,168.387"/>
<path style="fill:#122944;" d="M182.508,7.601c-16.097,0-29.133,71.99-29.133,160.787h-38.175
	C115.201,79.592,145.337,7.601,182.508,7.601z"/>
<polygon style="fill:#25C2CE;" points="434.648,168.387 434.648,453.397 255.998,504.398 77.35,453.397 77.35,168.387 "/>
<path style="fill:#19A2A5;" d="M255.998,504.398l-118.615-59.025c-15.727-7.826-25.67-23.879-25.67-41.446V168.387H77.35v285.011
	L255.998,504.398z"/>
<circle style="fill:#1F3B63;" cx="157.542" cy="250.486" r="24.963"/>
<path style="fill:#122944;" d="M152.473,250.489c0-10.25,6.18-19.054,15.016-22.898c-3.048-1.326-6.411-2.066-9.948-2.066
	c-13.787,0-24.963,11.177-24.963,24.963c0,13.787,11.177,24.963,24.963,24.963c3.537,0,6.899-0.74,9.948-2.066
	C158.653,269.543,152.473,260.739,152.473,250.489z"/>
<circle style="fill:#F4E662;" cx="255.999" cy="241.363" r="38.773"/>
<path d="M442.251,220.237v-51.852c0-4.199-3.404-7.602-7.602-7.602h-23.314V107.57V77.161V45.967
	C411.334,20.579,390.754,0,365.368,0H313.97c-25.386,0-45.967,20.579-45.967,45.967v31.194v30.409v53.214h-10.666
	c-0.783-41.09-7.893-79.559-20.228-109.024C223.138,18.382,203.745,0,182.505,0c-18.962,0-36.553,14.76-50.042,41.775
	c-1.933,3.872-0.195,8.581,3.768,10.32l0,0c3.727,1.636,8.057,0.029,9.877-3.612c10.627-21.25,23.686-33.279,36.397-33.279
	c14.502,0,29.292,15.463,40.579,42.426c11.584,27.673,18.278,64.06,19.048,103.153h-68.979c-3.19-14.211-5.606-28.222-5.606-41.051
	c0-36.683,19.101-54.319,19.995-55.123c3.132-2.77,3.44-7.555,0.681-10.704c-2.767-3.159-7.57-3.475-10.728-0.709
	c-1.027,0.9-25.152,22.543-25.152,66.535c0,13.202,2.217,27.085,5.237,41.051h-34.692c0.606-29.728,4.745-58.609,11.868-82.796
	c1.154-3.916-1.034-8.035-4.909-9.321l-0.005-0.002c-4.092-1.357-8.475,0.96-9.697,5.095c-7.611,25.757-11.878,55.543-12.471,87.023
	H77.35c-4.199,0-7.602,3.404-7.602,7.602v285.011c0,3.395,2.251,6.378,5.515,7.311l178.649,51c0.682,0.195,1.385,0.292,2.087,0.292
	c0.702,0,1.405-0.097,2.087-0.292l178.649-51c3.265-0.932,5.515-3.916,5.515-7.311V255.716c0-4.199-3.404-7.601-7.601-7.601h-0.001
	c-4.199,0-7.601,3.404-7.601,7.601v191.945l-171.046,48.831L84.952,447.661V175.989h76.165c0.9,3.671,1.82,7.335,2.735,10.977
	c2.861,11.372,5.763,22.945,7.879,34.216c-4.982-2.422-10.668-3.613-16.663-3.167c-16.043,1.193-28.979,14.255-30.023,30.309
	c-1.24,19.063,14.029,34.948,32.88,34.729c18.127-0.211,32.351-15.588,32.176-33.716c-0.204-21.146-5.947-43.982-11.504-66.08
	c-0.607-2.415-1.216-4.839-1.82-7.268h98.828h33.254h61.617h33.254h23.314v44.249c0,4.199,3.404,7.601,7.601,7.601h0.001
	C438.847,227.84,442.251,224.436,442.251,220.237z M157.541,267.85c-9.573,0-17.361-7.788-17.361-17.361
	c0-9.573,7.788-17.361,17.361-17.361c9.573,0,17.361,7.788,17.361,17.361C174.902,260.062,167.114,267.85,157.541,267.85z
	 M370.477,99.967H308.86h-25.652V84.763h112.92v15.204H370.477z M313.97,15.205h51.398c16.962,0,30.762,13.8,30.762,30.762v23.592
	H283.208V45.967C283.208,29.005,297.008,15.205,313.97,15.205z M283.208,115.172h18.049v45.612h-18.049V115.172z M316.462,160.784
	v-45.612h46.413v45.612H316.462z M378.08,160.784v-45.612h18.049v45.612H378.08z"/>
<path d="M209.626,241.366c0,25.571,20.802,46.373,46.373,46.373s46.373-20.802,46.373-46.373s-20.802-46.373-46.373-46.373
	S209.626,215.796,209.626,241.366z M287.168,241.366c0,17.187-13.982,31.168-31.168,31.168c-17.187,0-31.168-13.981-31.168-31.168
	s13.981-31.168,31.168-31.168C273.185,210.198,287.168,224.18,287.168,241.366z"/>
<path d="M251.579,226.195c-2.969-2.969-7.783-2.969-10.751,0c-2.969,2.969-2.969,7.783,0,10.752l4.42,4.42l-4.42,4.42
	c-2.969,2.969-2.969,7.783,0,10.752c1.484,1.485,3.43,2.227,5.375,2.227c1.945,0,3.891-0.742,5.375-2.227l4.421-4.42l4.42,4.42
	c1.485,1.484,3.431,2.227,5.376,2.227s3.891-0.742,5.376-2.227c2.969-2.969,2.969-7.783,0-10.752l-4.421-4.42l4.421-4.42
	c2.969-2.969,2.969-7.783,0-10.752c-2.969-2.968-7.782-2.969-10.752,0l-4.42,4.42L251.579,226.195z"/>
<g>
</g>
<g>
</g>
<g>
</g>
<g>
</g>
<g>
</g>
<g>
</g>
<g>
</g>
<g>
</g>
<g>
</g>
<g>
</g>
<g>
</g>
<g>
</g>
<g>
</g>
<g>
</g>
<g>
</g>
</svg>
