<svg enable-background="new 0 0 64 64" height="512" viewBox="0 0 64 64" width="512" xmlns="http://www.w3.org/2000/svg"><path d="m31.5 6.5s4-3 10 0 7 11 6 14 5 15-5 14-7-7-7-7z" fill="#cb783f"/><path d="m38.5 28.5v9.254h.001c14.999 3.876 15.999 6.895 15.999 13.746v11h-37s0-5.505 0-9.818c0-7.182-.055-11.182 11.945-14.182v-4z" fill="#ffb4be"/><path d="m41.5 8.5c4.292 2.146 6.017 6.844 6.29 10.446.321-3.618-1.139-9.871-6.29-12.446-6-3-10 0-10 0l.34 1.784c1.073-.628 4.67-2.279 9.66.216z" fill="#dc8c50"/><path d="m43.604 35.058c-.293 0-.598-.013-.915-.039-.275-.022-.48-.264-.458-.539.022-.274.256-.478.54-.457 1.958.159 3.306-.197 4.12-1.091 1.563-1.715.934-5.274.428-8.134-.331-1.871-.617-3.486-.293-4.456.898-2.696.027-10.507-5.75-13.395-3.635-1.818-6.485-1.376-8.235-.689-.255.105-.547-.025-.648-.281-.101-.258.025-.548.282-.648 1.588-.625 4.875-1.361 9.048.725 6.167 3.083 7.364 11.266 6.25 14.605-.243.729.036 2.301.33 3.966.544 3.075 1.221 6.902-.673 8.981-.878.965-2.231 1.452-4.026 1.452z" fill="#785ae6"/><path d="m21.5 13.5v14c0 3.866 3.134 7 7 7h5c3.314 0 6-2.686 6-6h2c1.657 0 3-1.343 3-3v-1c0-1.657-1.343-3-3-3h-2v-8z" fill="#ffc8d2"/><path d="m34.544 13.474s3.965 4.035 3.912 10.035c0 0 2.009-.982 2.035-3.982v-6.053z" fill="#cb783f"/><path d="m21.5 22.866c1.668.075 3.663-.032 6-.366 3.675-.525 6.622-4.239 7.963-8h-13.963z" fill="#ffb4be"/><g fill="#785ae6"><path d="m41.5 29h-2c-.276 0-.5-.224-.5-.5s.224-.5.5-.5h2c1.378 0 2.5-1.121 2.5-2.5v-1c0-1.379-1.122-2.5-2.5-2.5h-1.811c-.276 0-.5-.224-.5-.5s.224-.5.5-.5h1.811c1.93 0 3.5 1.57 3.5 3.5v1c0 1.93-1.57 3.5-3.5 3.5z"/><path d="m33.5 35h-5c-4.136 0-7.5-3.364-7.5-7.5v-10c0-.276.224-.5.5-.5s.5.224.5.5v10c0 3.584 2.916 6.5 6.5 6.5h5c.276 0 .5.224.5.5s-.224.5-.5.5z"/><path d="m31.5 26c-.276 0-.5-.224-.5-.5v-3c0-.276.224-.5.5-.5s.5.224.5.5v3c0 .276-.224.5-.5.5z"/><path d="m23.5 26c-.276 0-.5-.224-.5-.5v-3c0-.276.224-.5.5-.5s.5.224.5.5v3c0 .276-.224.5-.5.5z"/><path d="m26.5 28c-1.739 0-2.892-1.292-2.892-2.146 0-.242.088-.461.249-.615.112-.11.315-.239.643-.239.289 0 1.034-1.186 1.526-2.658.087-.261.371-.403.632-.316.262.088.403.371.316.633-.321.964-1.173 3.155-2.327 3.331.042.094.123.223.258.363.188.194.719.647 1.595.647.276 0 .5.224.5.5s-.224.5-.5.5z"/><path d="m28.5 31c-2.472 0-2.5-1.438-2.5-1.5 0-.276.224-.5.5-.5.268 0 .487.211.5.476.028.183.376.524 1.5.524 2.23 0 2.506-.565 2.508-.571 0-.276.22-.465.496-.465s.496.26.496.536c0 .352-.252 1.5-3.5 1.5zm-1.5-1.5h.01z"/><path d="m31.5 24.041c-.125 0-.25-.046-.346-.14-.199-.191-.206-.508-.014-.707l1-1.041c.192-.198.508-.206.707-.014.199.191.206.508.014.707l-1 1.041c-.099.102-.23.154-.361.154z"/><path d="m23.5 24.041c-.131 0-.262-.052-.36-.153l-1-1.041c-.191-.199-.185-.516.014-.707.198-.192.516-.185.707.014l1 1.041c.191.199.185.516-.014.707-.097.093-.222.139-.347.139z"/><path d="m34.5 22c-.209 0-.404-.133-.474-.342-.35-1.05-1.013-1.651-1.972-1.788-.738-.105-1.39.102-1.396.104-.265.086-.545-.056-.632-.316-.087-.262.054-.545.316-.633.035-.011.873-.285 1.854-.146.938.134 2.181.67 2.778 2.462.087.262-.054.545-.316.633-.053.018-.106.026-.158.026z"/><path d="m21.5 21.326c-.087 0-.175-.022-.256-.07-.237-.142-.314-.449-.173-.686 1.163-1.949 3.418-1.581 3.515-1.562.272.047.454.306.407.578-.047.271-.301.46-.577.407-.079-.014-1.683-.257-2.486 1.089-.095.157-.26.244-.43.244z"/><path d="m38.475 32.354c-.096 0-.194-.027-.279-.086-.229-.154-.289-.465-.134-.694.613-.908.938-1.971.938-3.074 0-.276.224-.5.5-.5s.5.224.5.5c0 1.303-.384 2.56-1.111 3.635-.097.142-.254.219-.414.219z"/></g><path d="m34.5 6.5c4.371 2.428 0 13-7 14s-11 0-12-2c0 0 3-1 4-4s6-13 15-8z" fill="#cb783f"/><path d="m16.846 19.814c.932-.604 2.1-1.651 2.654-3.314 1-3 6-13 15-8 .952.529 1.467 1.456 1.653 2.575.284-1.998-.176-3.754-1.653-4.575-9-5-14 5-15 8s-4 4-4 4c.254.508.704.951 1.346 1.314z" fill="#dc8c50"/><path d="m35.729 13.38c-.054 0-.108-.009-.162-.027-.262-.089-.401-.373-.312-.635.726-2.123.845-4.756-.999-5.78-.242-.135-.329-.439-.194-.681.134-.24.438-.327.68-.194 1.994 1.108 2.553 3.782 1.459 6.979-.07.207-.264.338-.472.338z" fill="#be6432"/><path d="m21.417 21.366c-.008 0-.017 0-.025-.001-3.364-.163-5.557-1.076-6.339-2.642-.064-.129-.07-.28-.015-.414s.166-.237.303-.283c.028-.01 2.779-.968 3.685-3.685.811-2.434 3.227-7.048 7.134-8.906 2.151-1.024 4.465-1.082 6.876-.171.258.098.389.386.291.645-.098.258-.387.386-.644.291-2.146-.812-4.197-.766-6.094.138-3.611 1.718-5.906 6.193-6.615 8.32-.796 2.39-2.735 3.592-3.722 4.066.825.941 2.633 1.519 5.189 1.643.275.013.488.247.475.523-.013.268-.234.476-.499.476z" fill="#785ae6"/><path d="m40.462 38.026c-.303 2.232-2.435 6.474-7.962 6.474-6 0-5.017-5.469-5.017-5.469l-.06.017c-2.018.595-3.626 1.231-4.907 1.923l-.051.029s-.965-2.5-3.965-1.5-5 7-5 11c0 0-3 5 0 7s4 2 4 2v3h37s0-1.445 0-5.005c8-1.005 5-6.995 3.275-9.671-1.725-2.677-1.275-8.324-5.275-9.324s-6.25 1.414-6.25 1.414l-.049-.021c-1.601-.628-3.509-1.248-5.782-1.88z" fill="#a99be0"/><path d="m17.5 60.5v2h37s0-.615 0-2z" fill="#968cd2"/><path d="m40.419 38.014c.015.004.028.008.043.012z" fill="#fa8cb4"/><path d="m22.465 41s-.965-2.5-3.965-1.5-5 7-5 11c0 0-1.757 2.942-1.223 5.216.316-1.698 1.223-3.216 1.223-3.216 0-4 2-10 5-11s4.016 1.472 4.016 1.472c.151-.082-.051-1.972-.051-1.972z" fill="#b4aaf0"/><path d="m57.775 47.823c-1.725-2.676-1.275-8.323-5.275-9.323s-6.25 1.414-6.25 1.414v2s2.25-2.414 6.25-1.414 3.55 6.647 5.275 9.323c.697 1.081 1.6 2.702 1.904 4.317.494-2.151-.913-4.779-1.904-6.317z" fill="#b4aaf0"/><path d="m22.653 40.898c-.817 1.702-1.492 4.598 1.847 6.602 5 3 8-3 8-3s1 5 7 4c5.562-.927 7.686-3.572 6.374-8.733l-5.413-1.742c-.302 2.233-2.434 6.475-7.961 6.475-6 0-5.017-5.469-5.017-5.469z" fill="#f0f0e6"/><path d="m27.234 39.127-4.582 1.771c-.203.423-.397.92-.523 1.458l5.337-1.776z" fill="#fffffa"/><path d="m45.874 39.767-5.413-1.742c-.064.471-.215 1.033-.456 1.624v.005l6.217 2.25c-.042-.66-.152-1.367-.348-2.137z" fill="#fffffa"/><path d="m32.5 45c-2.004 0-3.506-.58-4.463-1.725-1.485-1.776-1.065-4.229-1.047-4.333.049-.271.307-.451.58-.403.271.049.453.308.405.579-.003.021-.353 2.108.834 3.521.759.902 2 1.36 3.691 1.36 5.454 0 7.238-4.361 7.466-6.042.037-.273.287-.48.562-.428.274.037.466.288.429.562-.376 2.778-2.938 6.909-8.457 6.909z" fill="#dcdcd2"/><path d="m37.981 49.133c-3.456 0-4.982-2.141-5.599-3.48-.68.984-1.961 2.465-3.777 2.993-1.416.412-2.883.171-4.363-.717-3.727-2.236-2.879-5.5-2.041-7.246.12-.25.417-.354.667-.235.249.12.354.418.234.667-.843 1.759-1.241 4.22 1.654 5.957 1.229.737 2.427.946 3.564.615 2.333-.676 3.718-3.384 3.732-3.411.096-.189.306-.297.512-.271.211.028.381.188.425.396.038.185.996 4.513 6.428 3.606 2.846-.475 4.677-1.391 5.597-2.801.836-1.28.958-3.02.375-5.315-.068-.268.094-.54.361-.607.264-.068.54.094.607.361.657 2.582.491 4.58-.506 6.108-1.082 1.657-3.133 2.718-6.271 3.24-.572.096-1.105.14-1.599.14z" fill="#dcdcd2"/><path d="m40.459 38.524c-.044 0-.09-.006-.135-.019-.622-.173-1.271-.347-1.949-.521-.221-.057-.375-.256-.375-.484v-5.76c0-.276.224-.5.5-.5s.5.224.5.5v5.373c.55.144 1.081.287 1.593.43.266.074.421.35.347.615-.062.222-.262.366-.481.366z" fill="#785ae6"/><path d="m27.333 39.575c-.216 0-.415-.141-.479-.357-.079-.265.072-.543.336-.622.553-.165 1.137-.326 1.754-.484v-3.612c0-.276.224-.5.5-.5s.5.224.5.5v4c0 .229-.156.43-.379.485-.742.186-1.438.375-2.09.569-.047.014-.095.021-.142.021z" fill="#785ae6"/><path d="m21.5 63c-.276 0-.5-.224-.5-.5 0-.903-.49-2.129-.964-3.314-.51-1.273-1.036-2.589-1.036-3.686 0-2.072 1.953-6.978 2.036-7.186.103-.257.396-.382.65-.278.256.103.381.394.279.649-.02.049-1.965 4.934-1.965 6.815 0 .903.49 2.129.964 3.314.51 1.273 1.036 2.589 1.036 3.686 0 .276-.224.5-.5.5z" fill="#968cd2"/><path d="m45.5 63c-.276 0-.5-.224-.5-.5v-10.011c0-.276.224-.5.5-.5s.5.224.5.5v10.011c0 .276-.224.5-.5.5z" fill="#968cd2"/><path d="m17.5 60c-.192 0-1.302-.101-4.277-2.084-3.117-2.078-.692-6.72-.222-7.552.044-4.052 2.068-10.248 5.341-11.339 2.731-.908 4.197.775 4.59 1.795.1.257-.029.547-.286.646-.256.098-.546-.028-.646-.284-.087-.217-.896-2.024-3.341-1.207-2.581.859-4.659 6.461-4.659 10.525 0 .091-.025.18-.071.257-.027.046-2.719 4.615-.151 6.327 2.738 1.826 3.731 1.916 3.741 1.916.269.02.482.248.473.518-.011.268-.223.482-.492.482z" fill="#785ae6"/><path d="m54.5 57.995c-.249 0-.464-.185-.496-.438-.035-.274.16-.524.434-.559 2.43-.306 3.963-1.104 4.555-2.372.697-1.493.115-3.813-1.638-6.533-.634-.983-.975-2.271-1.337-3.634-.637-2.404-1.296-4.89-3.639-5.475-3.675-.916-5.743 1.248-5.763 1.27-.188.202-.504.214-.707.025s-.213-.505-.025-.707c.1-.107 2.499-2.613 6.737-1.559 2.916.729 3.685 3.63 4.363 6.188.341 1.285.663 2.498 1.211 3.35 1.376 2.136 2.789 5.17 1.703 7.497-.747 1.601-2.542 2.59-5.336 2.941-.021.005-.042.006-.062.006z" fill="#785ae6"/><circle cx="32" cy="51" fill="#f0dc78" r="1.5"/><path d="m32 53c-1.103 0-2-.897-2-2s.897-2 2-2 2 .897 2 2-.897 2-2 2zm0-3c-.551 0-1 .448-1 1s.449 1 1 1 1-.448 1-1-.449-1-1-1z" fill="#ffe885"/><circle cx="31" cy="59" fill="#f0dc78" r="1.5"/><path d="m31 61c-1.103 0-2-.897-2-2s.897-2 2-2 2 .897 2 2-.897 2-2 2zm0-3c-.551 0-1 .448-1 1s.449 1 1 1 1-.448 1-1-.449-1-1-1z" fill="#ffe885"/><path d="m54.5 63h-37c-.276 0-.5-.224-.5-.5v-2.59c-.597-.169-1.757-.647-3.777-1.994-3.117-2.078-.692-6.72-.222-7.552.044-4.052 2.068-10.248 5.341-11.339 2.319-.771 3.725.326 4.338 1.299 1.291-.652 2.789-1.221 4.602-1.756l.201.463.134.481-.06.017c-1.958.578-3.531 1.194-4.804 1.882-.126.069-.3.094-.436.044-.135-.05-.267-.141-.318-.275-.083-.207-.887-2.023-3.341-1.205-2.58.859-4.658 6.461-4.658 10.525 0 .091-.025.18-.071.257-.027.046-2.719 4.615-.151 6.327 2.738 1.826 3.731 1.916 3.741 1.916.261.02.481.237.481.5v2.5h36v-4.505c0-.252.187-.465.437-.496 2.43-.306 3.963-1.104 4.555-2.372.697-1.493.115-3.813-1.638-6.533-.634-.983-.975-2.271-1.337-3.634-.637-2.404-1.296-4.89-3.639-5.475-3.675-.916-5.743 1.248-5.763 1.27-.143.153-.367.198-.558.121-1.63-.641-3.506-1.25-5.773-1.881-.266-.073-.422-.349-.348-.615s.352-.42.615-.349c0 .001.001.001.001.001 2.187.607 4.018 1.198 5.586 1.801.729-.628 2.976-2.19 6.482-1.318 2.916.729 3.685 3.63 4.363 6.188.341 1.285.663 2.498 1.211 3.35 1.376 2.136 2.789 5.17 1.703 7.497-.707 1.516-2.354 2.483-4.898 2.88v4.57c.001.276-.223.5-.499.5z" fill="#785ae6"/><path d="m40.799 37.848-2.598-1.5 2.25-3.897c.414-.717 1.332-.963 2.049-.549s.963 1.332.549 2.049z" fill="#aad2ff"/><path d="m40.798 38.348c-.085 0-.171-.021-.25-.067l-2.598-1.5c-.239-.138-.321-.443-.183-.683l2.25-3.896c.267-.463.699-.794 1.215-.933s1.054-.067 1.518.201c.462.267.793.698.931 1.214.139.516.067 1.055-.2 1.518l-2.25 3.896c-.092.16-.26.25-.433.25zm-1.914-2.183 1.731 1 2-3.464c.134-.231.169-.501.1-.759s-.234-.474-.466-.607c-.231-.133-.5-.17-.758-.101s-.474.235-.607.467z" fill="#785ae6"/><path d="m40.5 35.5c3.376 1.266 2 7-1 9s-6 2-7 5c0 0-2-4 1-6 1.861-1.24-1-11 7-8z" fill="#cb783f"/><path d="m32.5 50c-.188 0-.362-.106-.447-.276-.76-1.521-1.494-4.864 1.17-6.64.23-.153.54-.092.693.139.153.229.091.54-.139.693-1.712 1.142-1.539 3.086-1.214 4.292.874-1.355 2.281-1.975 3.753-2.622.945-.416 1.922-.846 2.907-1.502 1.738-1.158 2.958-3.783 2.72-5.851-.091-.791-.446-1.825-1.618-2.266-1.331-.498-2.41-.651-3.205-.454-.264.065-.539-.097-.605-.365s.097-.539.365-.605c1.011-.251 2.252-.09 3.796.489 1.284.48 2.086 1.577 2.26 3.087.281 2.442-1.106 5.429-3.159 6.797-1.057.704-2.12 1.172-3.059 1.585-1.763.775-3.155 1.388-3.745 3.157-.064.191-.237.326-.438.341-.012.001-.023.001-.035.001z" fill="#785ae6"/></svg>