<svg enable-background="new 0 0 64 64" height="512" viewBox="0 0 64 64" width="512" xmlns="http://www.w3.org/2000/svg"><path d="m17.5 62.5h37s0-.611 0-2h-37z" fill="#f0a0aa"/><path d="m21.067 60.5c.248.719.433 1.406.433 2h24v-2z" fill="#d2648c"/><path d="m17.5 62.5h37s0-.611 0-2h-37z" fill="#f0a0aa"/><path d="m21.066 60.5c.248.719.433 1.406.433 2h24v-2z" fill="#d2648c"/><path d="m32.5 2.5s6-3 12 1 4 11 4 11z" fill="#826ec8"/><path d="m44.5 5.5c3.147 2.098 4.085 5.014 4.274 7.32.2-2.322-.107-6.542-4.274-9.32-6-4-12-1-12-1l1.818 1.364c2.228-.589 6.199-1.019 10.182 1.636z" fill="#8d7bd4"/><path d="m48.5 15c-.107 0-.212-.034-.3-.1l-16-12c-.139-.104-.214-.272-.198-.445s.12-.325.274-.402c.256-.128 6.331-3.082 12.501 1.031 6.231 4.154 4.225 11.479 4.204 11.554-.045.158-.166.284-.322.336-.052.017-.105.026-.159.026zm-14.991-12.368 14.667 11c.313-1.835.621-6.666-3.954-9.716-4.453-2.969-8.943-1.901-10.713-1.284z" fill="#785ae6"/><path d="m19.5 21.5c-4-4-9-12-2-17s15-4 18-2 8 8 13 11 17 14-3 16-26-8-26-8z" fill="#826ec8"/><path d="m40.327 30.268c-15.47.001-20.712-7.648-21.222-8.455-1.474-1.482-6.008-6.504-5.578-11.698.198-2.392 1.437-4.417 3.683-6.021 7.107-5.076 15.282-4.199 18.568-2.009 1.269.846 2.832 2.336 4.641 4.061 2.55 2.432 5.441 5.188 8.339 6.927 2.479 1.487 9.323 6.766 8.294 11.355-.672 3.001-4.542 4.875-11.502 5.57-1.858.186-3.598.27-5.223.27zm-11.652-28.891c-3.272 0-7.198.896-10.885 3.53-1.995 1.425-3.095 3.205-3.267 5.29-.317 3.826 2.546 8.165 5.33 10.949.028.028.054.061.075.096.059.097 6.117 9.7 25.522 7.761 6.392-.64 10.066-2.298 10.626-4.795.751-3.354-4.23-8.117-7.833-10.279-2.993-1.796-5.926-4.593-8.514-7.061-1.776-1.692-3.309-3.154-4.506-3.952-1.244-.829-3.637-1.539-6.548-1.539z" fill="#785ae6"/><path d="m23 40.722c-7.5 1.221-5.5-22.222-3.5-27.222 3.658-9.144 12-6 12-6s4-1 8 1 8 7 8 16-1.045 14.532.978 16.266z" fill="#f0dc78"/><path d="m22.438 41.269c-1.092 0-2.036-.488-2.813-1.457-4.021-5.016-2.224-22.411-.589-26.497 3.521-8.804 11.311-6.709 12.49-6.333.785-.166 4.466-.793 8.198 1.071 2.488 1.244 8.276 5.338 8.276 16.447 0 2.588-.085 4.875-.161 6.893-.178 4.766-.296 7.914.964 8.993.159.137.216.357.144.554s-.26.326-.469.326c0 0 0 0-.001 0l-25.438-.044c-.205.031-.405.047-.601.047zm5.773-33.808c-2.594 0-6.18 1.059-8.247 6.225-1.763 4.407-3.128 21.05.441 25.5.693.864 1.516 1.205 2.514 1.043.027-.005.066.021.082-.007l24.457.042c-.889-1.665-.78-4.576-.618-8.909.075-2.009.16-4.286.16-6.855 0-10.552-5.401-14.392-7.724-15.553-3.776-1.89-7.616-.972-7.656-.962-.098.023-.202.019-.296-.018-.128-.047-1.405-.506-3.113-.506z" fill="#785ae6"/><path d="m38.5 28.5v9.254h.001c14.999 3.876 15.999 6.895 15.999 13.746v11h-37s0-5.505 0-9.818c0-7.182-.056-11.182 11.944-14.182v-4z" fill="#ffb4be"/><path d="m17.5 62.5h37s0-.611 0-2h-37z" fill="#f0a0aa"/><path d="m38.501 37.754-.001 2h.001c14.999 3.876 15.999 6.895 15.999 13.746 0-.633 0-1.29 0-2 0-6.851-1-9.87-15.999-13.746z" fill="#ffc8d2"/><path d="m29.444 40.5v-2c-12 3-11.945 7-11.945 14.182v2c.001-7.182-.055-11.182 11.945-14.182z" fill="#ffc8d2"/><path d="m41.719 38.386c-.812-1.504-.219-1.886-.219-2.886 0-1.572-1.396-2.463-3-2.883v3.688c-1.611.67-4.826 1.195-7 1.195-.961 0-1.612-.103-2.055-.242v-2.758h-.188c-2.308 1.244-2.756 2.34-2.756 3v1.833s-3 5.167-5 9.167c0 0-2 5-2 7s2 5 2 7h24v-10.011c-3.001-3.01-3.782-14.103-3.782-14.103z" fill="#e678a0"/><path d="m45.5 63h-24c-.276 0-.5-.224-.5-.5 0-.903-.49-2.129-.964-3.314-.51-1.273-1.036-2.589-1.036-3.686 0-2.072 1.953-6.978 2.036-7.186 2.001-4.006 5.002-9.181 5.032-9.232.138-.24.443-.321.684-.182.239.139.32.445.182.684-.03.052-3.016 5.2-4.985 9.14-.004.01-1.949 4.895-1.949 6.776 0 .903.49 2.129.964 3.314.434 1.085.88 2.201 1.003 3.186h23.033v-9.312c-2.976-3.295-3.748-13.814-3.78-14.268-.02-.275.188-.515.463-.534.266-.029.514.188.534.464.008.109.803 10.941 3.637 13.786.094.094.146.221.146.353v10.011c0 .276-.224.5-.5.5z" fill="#d2648c"/><path d="m21.5 13.5v14c0 3.866 3.134 7 7 7h5c3.314 0 6-2.686 6-6h2c1.657 0 3-1.343 3-3v-1c0-1.657-1.343-3-3-3h-2v-8l-10-2z" fill="#ffc8d2"/><g fill="#785ae6"><path d="m31.5 26c-.276 0-.5-.224-.5-.5v-3c0-.276.224-.5.5-.5s.5.224.5.5v3c0 .276-.224.5-.5.5z"/><path d="m23.5 26c-.276 0-.5-.224-.5-.5v-3c0-.276.224-.5.5-.5s.5.224.5.5v3c0 .276-.224.5-.5.5z"/><path d="m28.5 31c-2.472 0-2.5-1.438-2.5-1.5 0-.276.224-.5.5-.5.268 0 .487.211.5.476.028.183.376.524 1.5.524 2.23 0 2.506-.565 2.508-.571 0-.276.22-.465.496-.465s.496.26.496.536c0 .352-.252 1.5-3.5 1.5zm-1.5-1.5h.01z"/><path d="m31.5 24.041c-.125 0-.25-.046-.346-.14-.199-.191-.206-.508-.014-.707l1-1.041c.191-.197.508-.206.707-.014.199.191.206.508.014.707l-1 1.041c-.099.102-.23.154-.361.154z"/><path d="m23.5 24.041c-.131 0-.262-.052-.36-.153l-1-1.041c-.191-.199-.185-.516.014-.707.198-.192.515-.184.707.014l1 1.041c.191.199.185.516-.014.707-.097.093-.222.139-.347.139z"/><path d="m34.5 21c-.209 0-.404-.133-.474-.342-.35-1.05-1.013-1.651-1.972-1.788-.737-.107-1.39.102-1.396.104-.265.088-.545-.056-.632-.316-.087-.262.054-.545.316-.633.035-.012.872-.286 1.854-.146.938.134 2.181.67 2.778 2.462.087.262-.054.545-.316.633-.053.018-.106.026-.158.026z"/><path d="m21.5 20.325c-.087 0-.176-.022-.256-.07-.237-.142-.314-.449-.173-.687 1.163-1.946 3.419-1.577 3.515-1.561.272.047.454.306.407.578-.047.271-.298.454-.577.407-.079-.014-1.683-.257-2.486 1.089-.095.157-.26.244-.43.244z"/></g><path d="m39.689 21.5c-.811-3-4.189-5-7.189-6s-4-3-4-3 0 1-2 2-5 2-5 3v-6h18z" fill="#f0dc78"/><path d="m31.5 35h-3c-4.136 0-7.5-3.364-7.5-7.5v-10c0-.276.224-.5.5-.5s.5.224.5.5v10c0 3.584 2.916 6.5 6.5 6.5h3c.276 0 .5.224.5.5s-.224.5-.5.5z" fill="#785ae6"/><path d="m26.5 39.833c-.276 0-.5-.224-.5-.5v-1.833c0-.802.488-2.031 2.813-3.333.241-.134.546-.049.681.192s.049.546-.192.681c-2.003 1.121-2.302 2.022-2.302 2.46v1.833c0 .276-.224.5-.5.5z" fill="#785ae6"/><path d="m31.5 38c-3.248 0-3.5-1.148-3.5-1.5 0-.276.224-.5.5-.5.254 0 .464.189.496.436.038.064.407.564 2.504.564 2.997 0 7.162-.964 7.515-1.57 0-.276.216-.465.493-.465.276 0 .493.259.493.535-.001 1.748-6.452 2.5-8.501 2.5zm-2.5-1.502v.002c0-.001 0-.001 0-.002z" fill="#d2648c"/><circle cx="32" cy="23" fill="#826ec8" opacity=".5" r="3.5"/><circle cx="23" cy="23" fill="#826ec8" opacity=".5" r="3.5"/><g fill="#785ae6"><path d="m32 27c-2.206 0-4-1.794-4-4 0-.276.224-.5.5-.5s.5.224.5.5c0 1.654 1.346 3 3 3s3-1.346 3-3c0-.276.224-.5.5-.5h2.582c.276 0 .5.224.5.5s-.224.5-.5.5h-2.113c-.247 1.971-1.933 3.5-3.969 3.5z"/><path d="m23 27c-2.206 0-4-1.794-4-4 0-.276.224-.5.5-.5s.5.224.5.5c0 1.654 1.346 3 3 3 .383 0 .755-.071 1.106-.211.258-.098.547.023.649.28.103.256-.023.547-.279.649-.469.187-.966.282-1.476.282z"/><path d="m26.5 28c-1.739 0-2.892-1.292-2.892-2.146 0-.242.088-.461.249-.615.112-.11.315-.239.643-.239.289 0 1.034-1.186 1.526-2.658.087-.261.371-.405.632-.316.262.088.403.371.316.633-.321.964-1.173 3.155-2.327 3.331.042.094.123.223.258.363.188.194.719.647 1.595.647.276 0 .5.224.5.5s-.224.5-.5.5z"/><path d="m41.719 38.886c-.178 0-.35-.095-.44-.263-.652-1.207-.505-1.86-.376-2.438.05-.223.097-.434.097-.685 0-1.489-1.629-2.144-2.601-2.401-.219-.059-.372-.257-.372-.483v-1.098c0-.098.029-.193.082-.274.583-.886.891-1.835.891-2.744 0-.276.224-.5.5-.5h2c1.378 0 2.5-1.121 2.5-2.5v-1c0-1.379-1.122-2.5-2.5-2.5h-1.812c-.276 0-.5-.224-.5-.5s.224-.5.5-.5h1.812c1.93 0 3.5 1.57 3.5 3.5v1c0 1.93-1.57 3.5-3.5 3.5h-1.524c-.088.9-.411 1.811-.947 2.664v.576c1.92.607 2.971 1.755 2.971 3.26 0 .361-.064.65-.122.904-.113.503-.194.866.28 1.744.131.242.041.546-.202.677-.075.041-.157.061-.237.061z"/></g><path d="m21.066 60.5c.248.719.433 1.406.433 2h24v-2z" fill="#d2648c"/><path d="m54.5 63h-37c-.276 0-.5-.224-.5-.5v-9.817c0-6.515 0-10.754 9.126-13.754.263-.088.545.057.631.318.086.263-.057.545-.319.631-8.438 2.774-8.438 6.302-8.438 12.706v9.416h36v-10.5c0-5.892-.551-9.129-12.372-12.62-.265-.078-.416-.356-.338-.621s.355-.414.621-.338c11.851 3.5 13.089 6.825 13.089 13.579v11c0 .276-.224.5-.5.5z" fill="#785ae6"/></svg>