<svg enable-background="new 0 0 64 64" height="512" viewBox="0 0 64 64" width="512" xmlns="http://www.w3.org/2000/svg"><path d="m32.5 2.5s6-3 12 1 4 11 4 11z" fill="#826ec8"/><path d="m44.5 5.5c3.147 2.098 4.085 5.014 4.274 7.32.2-2.322-.107-6.542-4.274-9.32-6-4-12-1-12-1l1.818 1.364c2.228-.589 6.2-1.019 10.182 1.636z" fill="#8d7bd4"/><path d="m48.5 15c-.106 0-.212-.034-.3-.1l-16-12c-.139-.104-.214-.272-.198-.445s.119-.325.274-.402c.256-.128 6.331-3.083 12.501 1.031 6.231 4.154 4.225 11.479 4.203 11.554-.045.158-.165.284-.321.336-.052.017-.105.026-.159.026zm-14.991-12.368 14.668 11c.312-1.835.62-6.666-3.954-9.716-4.456-2.971-8.944-1.902-10.714-1.284z" fill="#785ae6"/><path d="m19.5 21.5c-4-4-9-12-2-17s15-4 18-2 8 8 13 11 17 14-3 16-26-8-26-8z" fill="#826ec8"/><path d="m40.327 30.268c-15.471.001-20.712-7.648-21.222-8.455-1.474-1.482-6.009-6.504-5.579-11.698.198-2.392 1.438-4.417 3.683-6.021 7.108-5.076 15.283-4.199 18.568-2.009 1.27.846 2.832 2.336 4.641 4.061 2.551 2.432 5.441 5.188 8.339 6.927 2.479 1.487 9.323 6.766 8.295 11.355-.672 3.001-4.542 4.875-11.502 5.57-1.858.186-3.598.27-5.223.27zm-11.651-28.891c-3.272 0-7.198.896-10.885 3.53-1.996 1.425-3.095 3.205-3.268 5.29-.316 3.826 2.546 8.165 5.33 10.949.028.028.054.061.074.096.059.097 6.109 9.697 25.522 7.761 6.393-.64 10.066-2.298 10.626-4.795.752-3.354-4.23-8.117-7.833-10.279-2.993-1.796-5.927-4.593-8.515-7.061-1.775-1.692-3.31-3.154-4.506-3.952-1.242-.829-3.635-1.539-6.545-1.539z" fill="#785ae6"/><path d="m23 40.722c-7.5 1.221-5.5-22.222-3.5-27.222 3.658-9.144 12-6 12-6s4-1 8 1 8 7 8 16-1.045 14.532.978 16.266z" fill="#f0dc78"/><path d="m22.438 41.269c-1.093 0-2.036-.488-2.813-1.457-4.021-5.016-2.224-22.411-.589-26.497 3.521-8.801 11.312-6.708 12.49-6.333.782-.166 4.465-.794 8.197 1.071 2.489 1.244 8.277 5.338 8.277 16.447 0 2.588-.086 4.875-.161 6.893-.178 4.766-.296 7.914.964 8.993.159.137.217.357.144.554-.072.196-.26.326-.469.326h-.001l-25.438-.044c-.205.031-.405.047-.601.047zm5.773-33.808c-2.594 0-6.18 1.059-8.247 6.225-1.763 4.407-3.127 21.05.441 25.5.693.865 1.518 1.208 2.515 1.043.026-.005.053-.007.08-.007h.001l24.456.042c-.888-1.665-.779-4.576-.617-8.909.075-2.009.16-4.286.16-6.855 0-10.552-5.401-14.392-7.724-15.553-3.777-1.89-7.617-.971-7.655-.962-.099.023-.201.019-.297-.018-.128-.047-1.405-.506-3.113-.506z" fill="#785ae6"/><path d="m38.5 28.5v9.254h.001c14.999 3.876 15.999 6.895 15.999 13.746v11h-37s0-5.505 0-9.818c0-7.182-.055-11.182 11.945-14.182v-4z" fill="#c88c5a"/><path d="m17.5 62.5h37s0-.611 0-2h-37z" fill="#b47846"/><path d="m38.501 37.754-.001 2h.001c14.999 3.876 15.999 6.895 15.999 13.746 0-.633 0-1.29 0-2 0-6.851-1-9.87-15.999-13.746z" fill="#e1a271"/><path d="m29.445 40.5v-2c-12 3-11.945 7-11.945 14.182v2c0-7.182-.055-11.182 11.945-14.182z" fill="#e1a271"/><path d="m41.719 38.386c-.812-1.503-.219-1.886-.219-2.886 0-1.572-1.396-2.463-3-2.883v3.688c-1.611.67-4.826 1.195-7 1.195-.961 0-1.612-.103-2.055-.242v-2.758h-.188c-2.308 1.244-2.756 2.34-2.756 3v1.833s-3 5.167-5 9.167c0 0-2 5-2 7s2 5 2 7h24v-10.011c-3.001-3.01-3.782-14.103-3.782-14.103z" fill="#e678a0"/><path d="m45.5 63h-24c-.276 0-.5-.224-.5-.5 0-.903-.49-2.129-.964-3.314-.51-1.273-1.036-2.589-1.036-3.686 0-2.072 1.953-6.978 2.036-7.186 2.001-4.006 5.001-9.181 5.031-9.232.139-.241.445-.32.684-.182.239.139.32.445.182.684-.03.052-3.016 5.2-4.985 9.14-.004.01-1.948 4.895-1.948 6.776 0 .903.49 2.129.964 3.314.435 1.085.881 2.201 1.003 3.186h23.033v-9.312c-2.976-3.295-3.748-13.814-3.78-14.268-.02-.275.188-.515.464-.534.246-.028.515.188.534.464.008.109.802 10.941 3.637 13.786.092.094.145.221.145.353v10.011c0 .276-.224.5-.5.5z" fill="#d2648c"/><path d="m21.067 60.5c.248.719.433 1.406.433 2h24v-2z" fill="#d2648c"/><path d="m21.5 13.5v14c0 3.866 3.134 7 7 7h5c3.314 0 6-2.686 6-6h2c1.657 0 3-1.343 3-3v-1c0-1.657-1.343-3-3-3h-2v-8l-10-2z" fill="#e1a271"/><g fill="#785ae6"><path d="m31.5 26c-.276 0-.5-.224-.5-.5v-3c0-.276.224-.5.5-.5s.5.224.5.5v3c0 .276-.224.5-.5.5z"/><path d="m23.5 26c-.276 0-.5-.224-.5-.5v-3c0-.276.224-.5.5-.5s.5.224.5.5v3c0 .276-.224.5-.5.5z"/><path d="m28.5 31c-2.472 0-2.5-1.438-2.5-1.5 0-.276.224-.5.5-.5.269 0 .487.211.499.476.029.183.378.524 1.501.524 2.23 0 2.506-.565 2.508-.571 0-.276.22-.465.496-.465s.496.26.496.536c0 .352-.252 1.5-3.5 1.5zm-1.5-1.5h.01z"/><path d="m31.5 24.041c-.125 0-.249-.046-.347-.14-.199-.191-.205-.508-.014-.707l1-1.041c.191-.197.508-.205.707-.014s.205.508.014.707l-1 1.041c-.097.102-.229.154-.36.154z"/><path d="m23.5 24.041c-.131 0-.263-.052-.36-.153l-1-1.041c-.191-.199-.186-.516.014-.707.201-.191.516-.184.707.014l1 1.041c.191.199.186.516-.014.707-.098.093-.222.139-.347.139z"/><path d="m34.5 21c-.209 0-.404-.133-.475-.342-.35-1.05-1.013-1.651-1.971-1.788-.738-.107-1.391.102-1.396.104-.261.087-.545-.055-.633-.316-.087-.262.055-.545.316-.633.035-.011.876-.284 1.854-.146.938.134 2.182.67 2.779 2.462.087.262-.055.545-.316.633-.053.018-.105.026-.158.026z"/><path d="m21.5 20.326c-.088 0-.176-.022-.256-.07-.237-.142-.315-.449-.174-.686 1.162-1.947 3.42-1.579 3.516-1.562.271.047.454.306.406.578-.047.271-.302.451-.577.407-.077-.016-1.684-.257-2.485 1.089-.094.157-.26.244-.43.244z"/></g><path d="m39.689 21.5c-.811-3-4.189-5-7.189-6s-4-3-4-3 0 1-2 2-5 2-5 3v-6h18z" fill="#f0dc78"/><path d="m31.5 35h-3c-4.136 0-7.5-3.364-7.5-7.5v-10c0-.276.224-.5.5-.5s.5.224.5.5v10c0 3.584 2.916 6.5 6.5 6.5h3c.276 0 .5.224.5.5s-.224.5-.5.5z" fill="#785ae6"/><path d="m26.5 39.833c-.276 0-.5-.224-.5-.5v-1.833c0-.802.488-2.031 2.813-3.333.24-.133.546-.05.681.192.135.241.049.546-.192.681-2.003 1.121-2.302 2.022-2.302 2.46v1.833c0 .276-.224.5-.5.5z" fill="#785ae6"/><path d="m31.5 38c-3.248 0-3.5-1.148-3.5-1.5 0-.276.224-.5.5-.5.254 0 .464.189.496.436.038.064.407.564 2.504.564 2.997 0 7.162-.964 7.515-1.57 0-.276.217-.465.492-.465.276 0 .493.259.493.535 0 1.748-6.451 2.5-8.5 2.5zm-2.5-1.502v.002c0-.001 0-.001 0-.002z" fill="#d2648c"/><circle cx="32" cy="23" fill="#826ec8" opacity=".5" r="3.5"/><circle cx="23" cy="23" fill="#826ec8" opacity=".5" r="3.5"/><g fill="#785ae6"><path d="m32 27c-2.206 0-4-1.794-4-4 0-.276.224-.5.5-.5s.5.224.5.5c0 1.654 1.346 3 3 3s3-1.346 3-3c0-.276.224-.5.5-.5h2.582c.276 0 .5.224.5.5s-.224.5-.5.5h-2.113c-.247 1.971-1.933 3.5-3.969 3.5z"/><path d="m23 27c-2.206 0-4-1.794-4-4 0-.276.224-.5.5-.5s.5.224.5.5c0 1.654 1.346 3 3 3 .383 0 .756-.071 1.107-.211.255-.101.547.022.649.28.102.257-.023.547-.28.649-.469.187-.966.282-1.476.282z"/><path d="m26.5 28c-1.738 0-2.893-1.292-2.893-2.146 0-.242.089-.461.249-.615.114-.11.317-.239.644-.239.289 0 1.034-1.186 1.525-2.658.089-.261.372-.403.633-.316.262.088.403.371.316.633-.321.964-1.174 3.155-2.327 3.331.042.094.123.223.258.363.188.194.718.647 1.595.647.276 0 .5.224.5.5s-.224.5-.5.5z"/><path d="m54.5 63h-37c-.276 0-.5-.224-.5-.5v-9.817c0-6.515 0-10.754 9.126-13.754.261-.09.546.057.631.318.087.263-.056.545-.318.631-8.439 2.775-8.439 6.303-8.439 12.707v9.415h36v-10.5c0-5.892-.551-9.129-12.372-12.62-.265-.078-.416-.356-.338-.621.079-.265.36-.415.621-.338 11.851 3.5 13.089 6.825 13.089 13.579v11c0 .276-.224.5-.5.5z"/><path d="m41.719 38.886c-.178 0-.35-.095-.44-.263-.651-1.207-.505-1.86-.376-2.438.05-.223.097-.434.097-.685 0-1.489-1.629-2.144-2.6-2.401-.22-.059-.372-.257-.372-.483v-1.098c0-.098.028-.193.082-.274.582-.886.89-1.834.89-2.744 0-.276.224-.5.5-.5h2c1.379 0 2.5-1.121 2.5-2.5v-1c0-1.379-1.121-2.5-2.5-2.5h-1.812c-.276 0-.5-.224-.5-.5s.224-.5.5-.5h1.812c1.93 0 3.5 1.57 3.5 3.5v1c0 1.93-1.57 3.5-3.5 3.5h-1.524c-.088.9-.41 1.811-.947 2.664v.576c1.92.607 2.971 1.755 2.971 3.26 0 .361-.064.65-.121.904-.113.503-.194.866.28 1.744.131.243.04.546-.203.678-.075.04-.156.06-.237.06z"/></g></svg>