<svg enable-background="new 0 0 64 64" height="512" viewBox="0 0 64 64" width="512" xmlns="http://www.w3.org/2000/svg"><path d="m40.5 4.5c-1.408.152-2.498.249-3.419.128l1.419-2.128-1-1c-1.12.56-1.612 1.747-1.829 2.683-.334-.178-.655-.402-.968-.707-3.779-3.678-10.607-1.468-11.017 3.592s3.843 6.167 3.843 6.167l11.907 3.1s6.804 1.771 7.465-4.256c.661-6.028-3.598-7.882-6.401-7.579z" fill="#f0dc78"/><path d="m37.081 6.628c.921.12 2.011.024 3.419-.128 2.43-.263 5.947 1.1 6.413 5.391.549-5.873-3.64-7.691-6.413-7.391-.801.087-1.491.149-2.114.17z" fill="#ffe885"/><path d="m34.703 5.476c.313.305.634.529.968.707.217-.936.709-2.123 1.829-2.683l.2.2.8-1.2-1-1c-1.12.56-1.612 1.747-1.829 2.683-.334-.178-.655-.402-.968-.707-3.779-3.678-10.607-1.468-11.017 3.592-.051.63-.029 1.199.047 1.712.645-4.849 7.265-6.91 10.97-3.304z" fill="#ffe885"/><path d="m41.573 17.081c-1.235 0-2.189-.242-2.264-.262l-11.906-3.101c-.046-.012-4.654-1.274-4.216-6.69.198-2.45 1.795-4.468 4.271-5.397 2.659-.997 5.64-.415 7.593 1.487.104.102.212.195.325.282.386-1.11 1.035-1.915 1.9-2.348.192-.094.425-.059.577.094l1 1c.168.169.195.433.062.631l-.937 1.405c.676-.012 1.528-.078 2.467-.18 1.469-.158 3.591.227 5.148 1.786 1.027 1.028 2.174 2.964 1.803 6.345-.195 1.777-.912 3.104-2.13 3.943-1.15.795-2.543 1.005-3.693 1.005zm-11.47-14.932c-.766 0-1.544.137-2.293.418-2.104.789-3.459 2.487-3.625 4.541-.369 4.564 3.315 5.602 3.472 5.644l11.905 3.101c.03.008 3.133.785 5.143-.601.966-.668 1.538-1.754 1.7-3.228.259-2.364-.265-4.275-1.517-5.529-1.308-1.309-3.093-1.635-4.333-1.498-1.396.151-2.541.257-3.537.128-.172-.022-.319-.132-.391-.289s-.057-.341.039-.484l1.191-1.788-.435-.435c-.745.531-1.098 1.45-1.264 2.167-.035.152-.139.278-.281.343-.142.064-.307.06-.442-.015-.403-.216-.757-.474-1.081-.789-1.131-1.101-2.667-1.686-4.251-1.686zm10.397 2.351h.01z" fill="#785ae6"/><path d="m30.5 8.5s-1-2-5-1-5 6-6 8-2 2-3 1c0 0-2 3 2 5 0 0-2 1-2 3s1 3 3 4c0 0-3 2-3 6s7 6 7 6h21s4 2 7-2c0 0-2 0-2-2s2-2 2-5-3-3-3-3 2-1 1-4-3-3-3-3 4.414-1.172 3-4c-1-2-3 0-6-4s-6-9-13-5z" fill="#cb783f"/><path d="m46.883 41.488c-1.214 0-2.166-.352-2.488-.488h-20.895c-.046 0-.093-.007-.137-.02-.301-.085-7.363-2.153-7.363-6.48 0-3.095 1.663-5.054 2.601-5.913-1.585-.91-2.601-2.034-2.601-4.087 0-1.451.882-2.431 1.548-2.965-1.036-.665-1.686-1.477-1.936-2.419-.411-1.545.436-2.839.472-2.894.083-.125.218-.205.367-.221.157-.009.297.039.403.145.377.378.705.553.978.503.265-.043.693-.316 1.221-1.373.191-.383.387-.892.612-1.48.904-2.357 2.271-5.92 5.714-6.781 3.197-.799 4.679.211 5.258.838 6.669-3.585 9.86.74 12.681 4.562l.582.785c1.623 2.163 2.89 2.441 3.907 2.665.792.174 1.611.354 2.14 1.411.401.803.441 1.573.117 2.291-.409.906-1.336 1.526-2.125 1.912.701.437 1.505 1.271 2.035 2.862.636 1.907.161 3.126-.377 3.827 1.144.347 2.403 1.279 2.403 3.332 0 1.83-.701 2.688-1.264 3.378-.427.523-.736.901-.736 1.622 0 1.411 1.252 1.497 1.503 1.5.188.002.361.11.444.279s.066.37-.047.521c-1.612 2.15-3.516 2.688-5.017 2.688zm-23.31-1.488h20.927c.077 0 .154.019.222.052.14.069 3.235 1.545 5.848-1.221-.775-.28-1.57-.952-1.57-2.331 0-1.077.489-1.676.962-2.255.534-.654 1.038-1.271 1.038-2.745 0-2.472-2.398-2.5-2.5-2.5-.232 0-.434-.159-.487-.385s.056-.459.263-.562c.061-.032 1.591-.87.75-3.395-.862-2.586-2.464-2.656-2.532-2.658-.249-.007-.458-.194-.487-.441-.029-.246.125-.478.364-.542.615-.164 2.314-.82 2.783-1.862.196-.436.163-.903-.101-1.431-.315-.631-.722-.72-1.46-.882-1.117-.245-2.647-.581-4.493-3.042l-.587-.791c-2.883-3.905-5.605-7.599-11.765-4.074-.119.068-.262.085-.393.044-.129-.039-.237-.129-.299-.249-.043-.078-.941-1.618-4.435-.744-2.938.734-4.143 3.875-5.022 6.169-.235.613-.438 1.143-.652 1.569-.584 1.169-1.224 1.794-1.956 1.913-.436.071-.876-.044-1.317-.342-.14.392-.258.964-.093 1.575.23.853.951 1.587 2.142 2.183.169.085.275.257.276.446 0 .188-.106.362-.274.447-.017.009-1.725.896-1.725 2.554 0 1.638.687 2.534 2.724 3.553.159.079.263.238.275.415.011.178-.073.349-.22.447-.114.077-2.779 1.915-2.779 5.585 0 3.391 5.888 5.291 6.573 5.5z" fill="#785ae6"/><path d="m38.5 28.5v9.254h.001c14.999 3.876 15.999 6.895 15.999 13.746v11h-37s0-5.505 0-9.818c0-7.182-.055-11.182 11.945-14.182v-4z" fill="#ffb4be"/><path d="m17.5 62.5h37s0-.611 0-2h-37z" fill="#f0a0aa"/><path d="m38.501 37.754-.001 2h.001c14.999 3.876 15.999 6.895 15.999 13.746 0-.633 0-1.29 0-2 0-6.851-1-9.87-15.999-13.746z" fill="#ffc8d2"/><path d="m29.445 40.5v-2c-12 3-11.945 7-11.945 14.182v2c0-7.182-.055-11.182 11.945-14.182z" fill="#ffc8d2"/><path d="m41.719 38.386c-.812-1.503-.219-1.886-.219-2.886 0-1.572-1.396-2.463-3-2.883v3.688c-1.611.67-4.826 1.195-7 1.195-.961 0-1.612-.103-2.055-.242v-2.758h-.188c-2.308 1.244-2.756 2.34-2.756 3v1.833s-3 5.167-5 9.167c0 0-2 5-2 7s2 5 2 7h24v-10.011c-3.001-3.01-3.782-14.103-3.782-14.103z" fill="#8296dc"/><path d="m45.5 63h-24c-.276 0-.5-.224-.5-.5 0-.903-.49-2.129-.964-3.314-.51-1.273-1.036-2.589-1.036-3.686 0-2.072 1.953-6.978 2.036-7.186 2.001-4.006 5.002-9.181 5.032-9.232.138-.239.444-.321.684-.182.239.139.32.445.182.684-.03.052-3.016 5.2-4.985 9.14-.004.01-1.949 4.895-1.949 6.776 0 .903.49 2.129.964 3.314.434 1.085.88 2.201 1.003 3.186h23.033v-9.312c-2.976-3.295-3.748-13.814-3.779-14.268-.02-.275.188-.515.463-.534.283-.015.514.188.534.464.008.109.802 10.941 3.636 13.786.094.094.146.221.146.353v10.011c0 .276-.224.5-.5.5z" fill="#6e82c8"/><path d="m21.067 60.5c.248.719.433 1.406.433 2h24v-2z" fill="#6e82c8"/><path d="m26.5 39.833c-.276 0-.5-.224-.5-.5v-1.833c0-.802.488-2.031 2.813-3.333.24-.134.546-.049.681.192s.049.546-.192.681c-2.003 1.121-2.302 2.022-2.302 2.46v1.833c0 .276-.224.5-.5.5z" fill="#785ae6"/><path d="m41.72 38.886c-.178 0-.35-.095-.44-.263-.652-1.207-.506-1.86-.376-2.438.049-.223.096-.434.096-.685 0-1.489-1.629-2.144-2.601-2.401-.267-.071-.426-.345-.355-.611.071-.268.346-.426.612-.355 2.156.571 3.344 1.767 3.344 3.367 0 .361-.064.65-.122.904-.112.503-.194.865.281 1.744.131.242.041.546-.202.677-.076.041-.157.061-.237.061z" fill="#785ae6"/><path d="m31.5 38c-3.248 0-3.5-1.148-3.5-1.5 0-.276.224-.5.5-.5.254 0 .464.189.496.436.038.064.407.564 2.504.564 2.997 0 7.162-.964 7.515-1.57 0-.276.216-.465.493-.465.276 0 .493.259.493.535-.001 1.748-6.452 2.5-8.501 2.5zm-2.5-1.502v.002c0-.001 0-.001 0-.002z" fill="#6e82c8"/><path d="m54.5 63h-37c-.276 0-.5-.224-.5-.5v-9.817c0-6.515 0-10.754 9.126-13.754.262-.088.545.057.631.318.086.263-.057.545-.319.631-8.438 2.774-8.438 6.302-8.438 12.706v9.416h36v-10.5c0-5.892-.551-9.129-12.372-12.62-.265-.078-.416-.356-.338-.621.079-.265.356-.414.621-.338 11.851 3.5 13.089 6.825 13.089 13.579v11c0 .276-.224.5-.5.5z" fill="#785ae6"/><path d="m21.5 13.5v14c0 3.866 3.134 7 7 7h5c3.314 0 6-2.686 6-6h2c1.657 0 3-1.343 3-3v-1c0-1.657-1.343-3-3-3h-2v-8z" fill="#ffc8d2"/><path d="m40.5 20.5c-1 2-3 2-4 0-1.265-2.53-2-7-5-7s-3 2-3 2-1-2-3-2c-3 0-2 5-5 5l1-5 7-2 11 2z" fill="#cb783f"/><g fill="#785ae6"><path d="m41.5 29h-2c-.276 0-.5-.224-.5-.5s.224-.5.5-.5h2c1.378 0 2.5-1.121 2.5-2.5v-1c0-1.379-1.122-2.5-2.5-2.5h-1.49c-.276 0-.5-.224-.5-.5s.224-.5.5-.5h1.49c1.93 0 3.5 1.57 3.5 3.5v1c0 1.93-1.57 3.5-3.5 3.5z"/><path d="m31.5 26c-.276 0-.5-.224-.5-.5v-3c0-.276.224-.5.5-.5s.5.224.5.5v3c0 .276-.224.5-.5.5z"/><path d="m23.5 26c-.276 0-.5-.224-.5-.5v-3c0-.276.224-.5.5-.5s.5.224.5.5v3c0 .276-.224.5-.5.5z"/><path d="m26.5 28c-1.739 0-2.892-1.292-2.892-2.146 0-.242.088-.461.249-.615.112-.11.315-.239.643-.239.289 0 1.034-1.186 1.526-2.658.087-.261.371-.403.632-.316.262.088.403.371.316.633-.321.964-1.173 3.155-2.327 3.331.042.094.123.223.258.363.188.194.719.647 1.595.647.276 0 .5.224.5.5s-.224.5-.5.5z"/><path d="m28.5 31c-2.472 0-2.5-1.438-2.5-1.5 0-.276.224-.5.5-.5.268 0 .487.211.5.476.028.183.376.524 1.5.524 2.23 0 2.506-.565 2.508-.571 0-.276.22-.465.496-.465s.496.26.496.536c0 .352-.252 1.5-3.5 1.5zm-1.5-1.5h.01z"/><path d="m31.5 24.041c-.125 0-.25-.046-.346-.14-.199-.191-.206-.508-.014-.707l1-1.041c.192-.197.508-.206.707-.014.199.191.206.508.014.707l-1 1.041c-.099.102-.23.154-.361.154z"/><path d="m23.5 24.041c-.131 0-.262-.052-.36-.153l-1-1.041c-.191-.199-.185-.516.014-.707.198-.192.516-.184.707.014l1 1.041c.191.199.185.516-.014.707-.097.093-.222.139-.347.139z"/><path d="m34.5 22c-.209 0-.404-.133-.474-.342-.35-1.05-1.013-1.651-1.972-1.788-.738-.105-1.39.102-1.396.104-.265.088-.545-.056-.632-.316-.087-.262.054-.545.316-.633.035-.012.873-.286 1.854-.146.938.134 2.181.67 2.778 2.462.087.262-.054.545-.316.633-.053.018-.106.026-.158.026z"/><path d="m21.5 21.326c-.087 0-.175-.022-.256-.07-.237-.142-.314-.449-.173-.686 1.163-1.948 3.418-1.58 3.515-1.562.272.047.454.306.407.578-.047.271-.301.455-.577.407-.079-.015-1.683-.257-2.486 1.089-.095.157-.26.244-.43.244z"/><path d="m33.5 35h-5c-4.136 0-7.5-3.364-7.5-7.5v-10c0-.276.224-.5.5-.5s.5.224.5.5v10c0 3.584 2.916 6.5 6.5 6.5h5c.276 0 .5.224.5.5s-.224.5-.5.5z"/></g><circle cx="32" cy="23" fill="#826ec8" opacity=".5" r="3.5"/><circle cx="23" cy="23" fill="#826ec8" opacity=".5" r="3.5"/><g fill="#785ae6"><path d="m32 27c-2.206 0-4-1.794-4-4 0-.276.224-.5.5-.5s.5.224.5.5c0 1.654 1.346 3 3 3s3-1.346 3-3c0-.276.224-.5.5-.5h2.582c.276 0 .5.224.5.5s-.224.5-.5.5h-2.113c-.247 1.971-1.933 3.5-3.969 3.5z"/><path d="m23 27c-2.206 0-4-1.794-4-4 0-.276.224-.5.5-.5s.5.224.5.5c0 1.654 1.346 3 3 3 .384 0 .756-.071 1.106-.211.255-.099.547.023.649.279.103.257-.023.548-.279.65-.468.187-.965.282-1.476.282z"/></g></svg>