<svg enable-background="new 0 0 64 64" height="512" viewBox="0 0 64 64" width="512" xmlns="http://www.w3.org/2000/svg"><path d="m27.5 4.5s1-3 9-3 9 7 9 10 1 4 3 5 3 3 2 7-1 5 2 7 3 4 2 7 12 9 6 15-16 3-16 3h-22s-13.285 3.86-15-3c-1-4 7-6 6-9s0-5 3-7-3-4-3-8 6-7 5-10-3-9 0-12 6-3 9-2z" fill="#ffe885"/><path d="m27.5 4.5s1-3 9-3 9 7 9 10 1 4 3 5 3 3 2 7-1 5 2 7 3 4 2 7 12 9 6 15-16 3-16 3h-22s-13.285 3.86-15-3c-1-4 7-6 6-9s0-5 3-7-3-4-3-8 6-7 5-10-3-9 0-12 6-3 9-2z" fill="#b4c8ff"/><path d="m18.5 8.5c3-3 6-3 9-2 0 0 1-3 9-3s9 7 9 10 1 4 3 5c1.229.614 2.074 1.612 2.316 3.213.312-2.822-.643-4.377-2.316-5.213-2-1-3-2-3-5s-1-10-9-10-9 3-9 3c-3-1-6-1-9 2-1.405 1.405-1.707 3.469-1.535 5.574.137-1.366.582-2.621 1.535-3.574z" fill="#bee6ff"/><path d="m15.038 57.086c-1.977 0-3.978-.292-5.512-1.173-1.309-.752-2.153-1.859-2.512-3.292-.607-2.432 1.566-4.131 3.484-5.63 1.484-1.16 2.886-2.255 2.526-3.333-1.04-3.122-.084-5.387 3.197-7.574.378-.252.584-.499.613-.732.062-.507-.61-1.249-1.323-2.033-1.117-1.233-2.511-2.767-2.511-4.819 0-2.161 1.565-4.011 2.947-5.644 1.339-1.582 2.495-2.948 2.078-4.198-1.005-3.017-3.098-9.293.121-12.512 3.366-3.366 6.747-2.972 9.117-2.247.623-.911 2.728-2.899 9.237-2.899 8.814 0 9.5 8.037 9.5 10.5 0 2.73.84 3.611 2.724 4.553 2.484 1.242 3.224 3.718 2.262 7.568-.987 3.948-.948 4.636 1.792 6.463 3.231 2.154 3.252 4.408 2.197 7.574-.269.804 1.287 2.349 2.791 3.843 2.259 2.243 4.818 4.785 4.823 7.611.002 1.329-.582 2.587-1.735 3.741-5.938 5.939-15.426 3.434-16.425 3.147h-21.859c-.566.16-4.008 1.085-7.532 1.086zm9.175-52.675c-1.994 0-3.717.8-5.359 2.443-2.781 2.782-.821 8.662.121 11.488.594 1.783-.794 3.424-2.264 5.16-1.333 1.575-2.711 3.204-2.711 4.998 0 1.666 1.197 2.984 2.253 4.146.909 1.001 1.694 1.866 1.575 2.828-.066.544-.41 1.016-1.051 1.442-2.911 1.941-3.697 3.743-2.803 6.426.582 1.747-1.168 3.114-2.859 4.437-1.761 1.376-3.581 2.798-3.13 4.601.293 1.174.96 2.046 2.038 2.667 4.062 2.334 12.255-.002 12.337-.025.046-.015.093-.022.14-.022h22c.049 0 .097.007.144.021.097.029 9.79 2.838 15.503-2.875.973-.972 1.444-1.964 1.442-3.032-.004-2.412-2.407-4.798-4.527-6.904-1.956-1.942-3.5-3.476-3.036-4.869.966-2.896.942-4.596-1.803-6.426-3.184-2.123-3.261-3.323-2.208-7.537 1.108-4.432-.461-5.793-1.738-6.432-2.173-1.085-3.277-2.226-3.277-5.446 0-2.856-.828-9.5-8.5-9.5-7.432 0-8.517 2.631-8.525 2.658-.088.263-.37.404-.633.316-1.122-.374-2.157-.563-3.129-.563z" fill="#785ae6"/><path d="m38.5 28.5v9.254h.001c14.999 3.876 15.999 6.895 15.999 13.746v11h-37s0-5.505 0-9.818c0-7.182-.055-11.182 11.945-14.182v-4z" fill="#c88c5a"/><path d="m17.5 60.5v2h37s0-.611 0-2z" fill="#b47846"/><path d="m38.501 37.754-.001 2h.001c14.999 3.876 15.999 6.895 15.999 13.746 0-.633 0-1.29 0-2 0-6.851-1-9.87-15.999-13.746z" fill="#e1a271"/><path d="m29.445 40.5v-2c-12 3-11.945 7-11.945 14.182v2c0-7.182-.055-11.182 11.945-14.182z" fill="#e1a271"/><path d="m53.001 44.973c-1.73-2.308-6.457-5.141-14.5-7.219h-.001v-5.325l-7.258.998-1.797 1.073v4c-3.381.845-5.804 1.77-7.542 2.823l-.003.029s.6 3.148-.4 7.148c0 0-2 5-2 7s2 5 2 7h24v-13c0-5.999 5.003-8.049 7.501-4.527z" fill="#a99be0"/><g fill="#968cd2"><path d="m22.069 41.228c-.054.032-.114.063-.166.095l-.003.029s.1.536.15 1.436c.03-.581.033-1.105.019-1.56z"/><path d="m19.623 54.433c-.075.403-.123.77-.123 1.067 0 2 2 5 2 7h24v-2h-24c0-1.709-1.453-4.145-1.877-6.067z"/><path d="m52.598 44.489c.139.15.276.305.403.484-.119-.159-.256-.321-.403-.484z"/><path d="m52.426 44.31c.057.06.118.12.172.179-.057-.062-.114-.123-.172-.179z"/></g><path d="m38.5 39.754c4.305 1.112 8.073 2.291 10.527 3.64 1.256-.238 2.277-.172 3.399.916-2.08-2.171-6.637-4.672-13.925-6.555h-.001z" fill="#b4aaf0"/><path d="m52.426 44.31c.057.06.118.12.172.179-.057-.062-.114-.123-.172-.179z" fill="#b4aaf0"/><path d="m52.598 44.489c.139.15.276.305.403.484-.119-.159-.256-.321-.403-.484z" fill="#b4aaf0"/><path d="m29.445 40.5v-2c-3.381.845-5.804 1.77-7.542 2.823l-.003.029s.133.71.168 1.876c1.726-1.013 4.099-1.908 7.377-2.728z" fill="#b4aaf0"/><path d="m29.445 34.5v16h9.055v-22.76z" fill="#c88c5a"/><path d="m21.5 13.5v14c0 3.866 3.134 7 7 7h4c3.314 0 6-2.686 6-6h2c1.657 0 3-1.343 3-3v-1c0-1.657-1.343-3-3-3h-2v-8z" fill="#e1a271"/><path d="m40.552 21.5c-6.948 0-4.052-11-9.052-12s-6 4-6 4 .265-2.368-1-3c-2-1-3 1-3 7h-2l2-8h18z" fill="#b4c8ff"/><path d="m27.501 14c-.033 0-.065-.003-.099-.01-.271-.054-.446-.317-.393-.588.016-.08.411-1.969 2.102-2.885 1.24-.671 2.812-.634 4.671.11.257.103.381.394.278.65s-.394.381-.649.278c-1.571-.629-2.856-.683-3.823-.16-1.283.695-1.595 2.187-1.598 2.202-.048.239-.256.403-.489.403z" fill="#96bef0"/><path d="m30.5 13.998c-.054 0-.108-.009-.161-.027-.26-.089-.4-.369-.313-.629.015-.043.368-1.071 1.435-1.497.859-.341 1.893-.194 3.07.434.243.13.336.433.206.676-.13.244-.433.336-.677.206-.902-.481-1.648-.613-2.218-.391-.636.247-.866.886-.869.892-.073.206-.267.336-.473.336z" fill="#96bef0"/><path d="m23.5 14c-.275 0-.499-.223-.5-.499-.002-.508-.149-1.159-.344-1.269-.053-.031-.191.011-.347.104-.236.142-.544.066-.687-.171-.143-.236-.065-.544.171-.686.628-.377 1.081-.271 1.354-.118.812.459.853 1.863.853 2.139s-.224.499-.5.5z" fill="#96bef0"/><path d="m40.038 22c-4.2 0-4.978-3.625-5.662-6.823-.529-2.467-1.028-4.798-2.974-5.187-4.455-.892-5.375 3.423-5.412 3.608-.052.262-.307.435-.566.396-.265-.041-.45-.283-.421-.548.058-.525.047-2.111-.727-2.498-.654-.327-.937-.151-1.03-.093-.568.351-1.246 1.789-1.246 6.645 0 .276-.224.5-.5.5s-.5-.224-.5-.5c0-4.449.53-6.761 1.721-7.497.563-.35 1.238-.333 2.003.049.582.291.909.825 1.091 1.392.87-1.452 2.59-3.073 5.783-2.435 2.59.518 3.183 3.284 3.756 5.958.665 3.103 1.292 6.033 4.684 6.033.276 0 .5.224.5.5s-.224.5-.5.5z" fill="#96bef0"/><path d="m45.5 63c-.276 0-.5-.224-.5-.5v-10.011c0-.276.224-.5.5-.5s.5.224.5.5v10.011c0 .276-.224.5-.5.5z" fill="#968cd2"/><path d="m21.5 63c-.276 0-.5-.224-.5-.5 0-.904-.49-2.129-.964-3.314-.51-1.273-1.036-2.59-1.036-3.686 0-2.072 1.953-6.978 2.036-7.186.103-.257.394-.383.649-.279.257.103.381.394.278.65-.019.05-1.963 4.934-1.963 6.815 0 .904.49 2.129.964 3.314.51 1.273 1.036 2.59 1.036 3.686 0 .276-.224.5-.5.5z" fill="#968cd2"/><g fill="#785ae6"><path d="m40.5 29h-2c-.276 0-.5-.224-.5-.5s.224-.5.5-.5h2c1.379 0 2.5-1.122 2.5-2.5v-1c0-1.378-1.121-2.5-2.5-2.5h-1.812c-.276 0-.5-.224-.5-.5s.224-.5.5-.5h1.812c1.93 0 3.5 1.57 3.5 3.5v1c0 1.93-1.57 3.5-3.5 3.5z"/><path d="m23.5 25c-.276 0-.5-.224-.5-.5v-2c0-.276.224-.5.5-.5s.5.224.5.5v2c0 .276-.224.5-.5.5z"/><path d="m26.5 27c-1.738 0-2.893-1.292-2.893-2.146 0-.243.089-.461.249-.616.114-.109.317-.238.644-.238.289 0 1.034-1.186 1.525-2.658.089-.262.372-.402.633-.316.262.087.403.37.316.632-.321.964-1.174 3.155-2.327 3.331.042.094.123.223.258.363.188.195.718.648 1.595.648.276 0 .5.224.5.5s-.224.5-.5.5z"/><path d="m23.5 24.041c-.131 0-.263-.051-.36-.154l-1-1.041c-.191-.199-.186-.516.014-.707.201-.19.516-.186.707.014l1 1.041c.191.199.186.516-.014.707-.098.094-.222.14-.347.14z"/><path d="m54.5 63h-37c-.276 0-.5-.224-.5-.5v-9.817c0-7.188.001-11.497 11.944-14.572v-3.611c0-.276.224-.5.5-.5s.5.224.5.5v4c0 .229-.156.429-.379.485-11.565 2.891-11.565 6.47-11.565 13.598v9.417h36v-10.5c0-6.397-.632-9.388-15.624-13.262-.221-.057-.375-.256-.375-.484l-.001-9.254h1v8.868c14.611 3.821 16 6.936 16 14.132v11c0 .276-.224.5-.5.5z"/><path d="m33.5 35h-5c-4.136 0-7.5-3.364-7.5-7.5v-10c0-.276.224-.5.5-.5s.5.224.5.5v10c0 3.584 2.916 6.5 6.5 6.5h5c.276 0 .5.224.5.5s-.224.5-.5.5z"/><path d="m31.5 25c-.276 0-.5-.224-.5-.5v-2c0-.276.224-.5.5-.5s.5.224.5.5v2c0 .276-.224.5-.5.5z"/><path d="m31.5 24.041c-.125 0-.249-.046-.347-.14-.199-.191-.205-.508-.014-.707l1-1.041c.191-.2.508-.205.707-.014s.205.508.014.707l-1 1.041c-.097.103-.229.154-.36.154z"/></g><path d="m25.653 29.417s.469-.894 1.356-.916 1.304.458 1.304.458.626-.459 1.669-.459 1.304 1.543 3.129.917c0 0-2.19 2.084-4.798 2.084-1.813 0-2.66-2.084-2.66-2.084z" fill="#c85a82"/><path d="m34.5 21c-.161 0-.319-.078-.416-.223-.584-.876-1.204-1.355-1.842-1.422-.769-.079-1.385.495-1.391.5-.197.193-.513.189-.706-.005-.193-.195-.193-.509.001-.704.038-.037.924-.91 2.186-.788.953.095 1.822.722 2.584 1.864.153.23.091.54-.139.693-.085.058-.181.085-.277.085z" fill="#785ae6"/><path d="m22.5 21c-.075 0-.151-.017-.224-.053-.247-.124-.347-.424-.224-.671.424-.846 1.733-2.191 3.671-1.224.247.124.347.424.224.671-.124.248-.423.346-.671.224-1.507-.752-2.25.618-2.329.776-.088.176-.264.277-.447.277z" fill="#785ae6"/><path d="m30.5 52.5s-3.859-1.237-2.459-2.936c.786-.954.335-1.908-1.039-3.256-1.374-1.347-.484-2.069.499-2.855 0 0-1.992-1.403-1.43-2.975.561-1.572 1.733-1.539 1.733-1.539s-2.295-3.344 1.186-4.439h.51v5s0 11 1 13z" fill="#a99be0"/><path d="m30.5 53c-.051 0-.103-.008-.152-.024-.271-.086-2.65-.885-3.053-2.253-.103-.35-.123-.89.36-1.477.383-.466.595-1.014-1.004-2.581-.603-.59-.882-1.147-.854-1.702.031-.626.436-1.093.92-1.514-.637-.6-1.603-1.787-1.119-3.14.365-1.021.964-1.486 1.448-1.696-.319-.66-.696-1.755-.344-2.775.294-.852 1.012-1.462 2.135-1.815.049-.015.1-.023.15-.023h.513c.276 0 .5.224.5.5v5c0 9.822.662 12.207.947 12.776.09.18.063.396-.067.549-.097.113-.236.175-.38.175zm-2.711-13.562c-.024 0-.825.023-1.249 1.208-.422 1.181 1.231 2.387 1.248 2.398.129.09.207.236.212.394s-.065.308-.188.406c-.49.392-.997.796-1.017 1.17-.016.31.293.68.555.937 1.181 1.156 2.23 2.527 1.076 3.93-.222.271-.204.449-.172.56.129.438.799.876 1.445 1.192-.464-2.056-.699-6.123-.699-12.133v-4.477c-.723.254-1.177.637-1.351 1.139-.378 1.088.557 2.481.566 2.495.105.155.115.357.025.521-.089.165-.263.256-.451.26z" fill="#785ae6"/><path d="m41.906 38.405c-1.172-1.287 1.901-4.607.33-5.112-2.636-.847-2.735 2.189-2.735 2.189-2.23.73-1.082 2.919-1.082 2.919-4.419-.275-2.807 3.536-2.807 3.536-2.919.281-1.235 2.582-1.235 2.582s.954 2.358-1.572 2.582-1.305 2.399-1.305 2.399c-3 1-1 3-1 3h11z" fill="#a99be0"/><path d="m39.5 37.482s.099-3.037 2.735-2.189c.03.01.048.027.074.039.383-.962.655-1.804-.074-2.039-2.636-.847-2.735 2.189-2.735 2.189-1.931.632-1.33 2.355-1.133 2.807.202-.325.55-.616 1.133-.807z" fill="#b4aaf0"/><path d="m30.499 53c-.128 0-.255-.048-.353-.146-.042-.042-1.017-1.033-.754-2.146.146-.625.633-1.124 1.447-1.488-.14-.432-.24-1.057.056-1.618.306-.58.934-.916 1.866-.999.575-.051.96-.229 1.144-.527.258-.417.119-1.054.025-1.323-.188-.277-.809-1.299-.402-2.205.227-.504.707-.844 1.433-1.013-.162-.655-.286-1.724.304-2.556.477-.674 1.299-1.038 2.446-1.086-.104-.438-.151-1.013.071-1.562.218-.536.638-.94 1.251-1.206.076-.532.321-1.551 1.109-2.106.598-.42 1.353-.488 2.246-.201.312.101.549.298.683.571.318.649-.001 1.529-.37 2.548-.328.903-.735 2.026-.362 2.436.186.204.171.52-.033.706-.203.187-.521.171-.707-.033-.778-.855-.279-2.234.162-3.45.229-.633.544-1.5.413-1.767-.007-.013-.018-.036-.092-.06-.575-.185-1.033-.164-1.361.065-.555.388-.708 1.334-.721 1.666-.008.209-.146.393-.345.458-.498.163-.808.408-.946.749-.261.643.148 1.455.152 1.462.084.16.075.353-.022.504-.099.152-.27.237-.451.227-1.167-.071-1.946.148-2.308.657-.567.802-.013 2.171-.008 2.185.062.146.051.314-.03.451-.082.137-.224.227-.382.242-.664.064-1.097.25-1.22.523-.185.413.222 1.104.34 1.266.024.034.045.07.061.108.021.052.513 1.294-.08 2.264-.358.585-1.001.923-1.911 1.004-.394.035-.898.145-1.069.469-.205.389.07 1.035.155 1.187.073.13.085.286.031.425s-.167.247-.309.294c-.526.176-1.178.485-1.292.961-.113.472.314 1.035.488 1.212.193.196.192.512-.003.706-.097.097-.225.146-.352.146z" fill="#785ae6"/></svg>