<svg enable-background="new 0 0 64 64" height="512" viewBox="0 0 64 64" width="512" xmlns="http://www.w3.org/2000/svg"><path d="m27.103 39.282 2.342-.782 9.055-1 2 .537v-2.537l-11.055.827-1.945 1.293z" fill="#968cd2"/><path d="m45.488 39.623c-1.903-.705-4.203-1.404-6.988-2.123v-7.76l-9.055 4.76v4c-3.01.752-5.26 1.568-6.945 2.481v12.481h22.988z" fill="#c88c5a"/><path d="m33.5 47c-.128 0-.256-.049-.354-.147-.195-.195-.195-.511 0-.706.118-.118 1.181-1.147 2.354-1.147.77 0 3.782-.711 4.879-.985.269-.068.539.095.606.364.066.268-.097.539-.364.606-.415.104-4.089 1.015-5.121 1.015-.646 0-1.407.617-1.647.854-.098.097-.225.146-.353.146z" fill="#be7846"/><path d="m29.5 47c-.128 0-.255-.048-.353-.146-.24-.237-1.001-.854-1.647-.854-1.087 0-3.008-.945-3.224-1.053-.247-.124-.347-.424-.224-.671.124-.248.424-.345.671-.224.528.264 2.055.948 2.777.948 1.173 0 2.236 1.029 2.354 1.146.195.195.195.511 0 .706-.098.099-.226.148-.354.148z" fill="#be7846"/><path d="m24.5 49.5s2 2 6 2 8-1 8-1v12h-14z" fill="#aad2ff"/><path d="m23.335 40.561c-5.865 2.776-5.835 6.459-5.835 12.121v9.818h12.344l-1.344-3z" fill="#a99be0"/><path d="m23 40.733c-5.514 2.756-5.5 6.402-5.5 11.949v2c0-5.547-.014-9.193 5.5-11.949z" fill="#b4aaf0"/><path d="m17.5 56.526c1.318-1.501 3.629-3.774 5-3.044 1.739.925 4.985 4.408 5.805 5.304l-.19-.696c-.627-1.553-1.852-4.932-2.372-8.697l-2.409-8.833c-.182.086-.341.176-.512.263-.88 1.314-1.653 2.778-2.323 4.205-1.116 2.377-2.231 6.058-3 8.849.001.879.001 1.777.001 2.649z" fill="#968cd2"/><path d="m17.5 60.5v2h12.344l-.896-2z" fill="#968cd2"/><path d="m21.5 63c-.276 0-.5-.224-.5-.5 0-.904-.49-2.129-.964-3.314-.51-1.273-1.036-2.59-1.036-3.686 0-2.072 1.953-6.978 2.036-7.186.103-.257.394-.383.649-.279.257.103.381.394.278.65-.019.05-1.963 4.934-1.963 6.815 0 .904.49 2.129.964 3.314.51 1.273 1.036 2.59 1.036 3.686 0 .276-.224.5-.5.5z" fill="#968cd2"/><path d="m42.445 38.604-10.945 20.896-1.656 3h24.656s0-3 0-11c0-6.193-.82-9.462-12.055-12.896z" fill="#a99be0"/><path d="m42.445 38.604-.445.851v2l.445-.85c11.235 3.433 12.055 6.702 12.055 12.895 0-.633 0-1.29 0-2 0-6.193-.82-9.462-12.055-12.896z" fill="#b4aaf0"/><path d="m29.844 62.5h24.656s0-.611 0-2h-23.552z" fill="#968cd2"/><path d="m45.5 63c-.276 0-.5-.224-.5-.5v-13c0-.276.224-.5.5-.5s.5.224.5.5v13c0 .276-.224.5-.5.5z" fill="#968cd2"/><path d="m54.5 63h-37c-.276 0-.5-.224-.5-.5v-9.817c0-5.42 0-9.265 5.208-12.113.242-.134.546-.044.679.199.133.242.044.546-.198.678-4.689 2.563-4.689 5.79-4.689 11.136v9.417h36v-10.5c0-5.375-.447-8.57-9.627-11.745-.262-.09-.399-.375-.31-.636.091-.261.38-.397.636-.309 9.284 3.211 10.301 6.485 10.301 12.69v11c0 .276-.224.5-.5.5zm-36.5-.5h.01z" fill="#785ae6"/><path d="m29.444 36.827c-.276 0-.5-.224-.5-.5v-1.827c0-.276.224-.5.5-.5s.5.224.5.5v1.827c0 .276-.223.5-.5.5z" fill="#785ae6"/><path d="m40.5 35.5s4 2.208 6 8.833c1.18 3.91 1.664 7.435 1.862 9.668.071.805-.801 1.38-1.49.958-1.125-.689-2.874-1.24-5.373-.689-5 1.104-10 5.729-10 5.729s5-7.937 7-12.354c2.001-4.416 2.001-12.145 2.001-12.145z" fill="#968cd2"/><path d="m40.5 35.5s4 2 6 8 2 11 2 11-2-3-7-2-10 7-10 7 5-9 7-13 2-11 2-11z" fill="#a99be0"/><path d="m46.5 43.5c-1.571-4.714-4.869-7.254-6-8l-.075 1.986c1.131.746 4.504 3.301 6.075 8.014 1.197 3.591 1.675 6.813 1.868 8.831.086.102.132.169.132.169s0-5-2-11z" fill="#b4aaf0"/><path d="m48.5 55c-.164 0-.321-.081-.416-.223-.074-.108-1.897-2.704-6.486-1.787-1.084.217-2.266.706-3.513 1.454-.233.142-.543.066-.686-.171s-.065-.544.172-.686c1.345-.807 2.634-1.338 3.831-1.577 3.344-.671 5.435.35 6.538 1.217-.131-1.844-.555-5.488-1.915-9.568-1.733-5.201-5.047-7.309-5.653-7.658h-1.872c-.276 0-.5-.224-.5-.5s.224-.5.5-.5h2c.077 0 .154.018.224.053.171.085 4.209 2.163 6.251 8.289 2.002 6.007 2.025 10.949 2.025 11.157 0 .22-.145.415-.355.479-.048.014-.097.021-.145.021z" fill="#785ae6"/><path d="m29.445 36.331s-3.945 3.169-3.945 9.169 3 14 3 14-4-7-6-8-6 4-6 4 2-7 4-11 4.889-8.337 8.945-8.169z" fill="#a99be0"/><path d="m20.5 46.5c1.665-3.331 3.95-6.886 7.009-7.888.974-1.505 1.936-2.281 1.936-2.281-4.056-.168-6.945 4.169-8.945 8.169s-4 11-4 11 .376-.468.951-1.087c.769-2.378 1.908-5.632 3.049-7.913z" fill="#b4aaf0"/><path d="m16.5 56c-.078 0-.156-.018-.229-.056-.212-.109-.316-.353-.251-.582.082-.288 2.035-7.091 4.033-11.086.694-1.388 1.363-2.555 2.047-3.566.155-.229.467-.288.694-.135.229.155.289.465.134.694-.658.975-1.307 2.105-1.98 3.454-1.273 2.546-2.561 6.371-3.311 8.751 1.46-1.475 3.589-3.171 5.087-2.422.494.247 1.083.78 1.8 1.629.179.211.151.526-.06.705-.209.179-.525.153-.704-.059-.771-.913-1.232-1.254-1.483-1.38-1.127-.572-3.829 1.921-5.386 3.865-.098.122-.244.188-.391.188z" fill="#785ae6"/><path d="m22.514 41.49c-.097 0-.194-.028-.279-.085-.229-.155-.29-.465-.135-.694 2.259-3.346 4.747-4.987 7.365-4.878.276.011.49.245.479.521-.013.275-.248.484-.521.479-2.312-.095-4.415 1.356-6.496 4.438-.096.142-.253.219-.413.219z" fill="#785ae6"/><path d="m29.445 32.5v11l1.77 1 1.23 1 6.055-4v-11.76z" fill="#c88c5a"/><path d="m29.444 36.827c-.276 0-.5-.224-.5-.5v-1.827c0-.276.224-.5.5-.5s.5.224.5.5v1.827c0 .276-.223.5-.5.5z" fill="#785ae6"/><path d="m42.5 33.5c-4 0-5-1-5-1h-12s-3 2-6 1-2.755-3.683-2.755-3.683-2.717.388-3.416-1.863 1.171-3.454 1.171-3.454c-4-4 0-8 0-8 5 3 2-4 5-8s7-2 7-2 0-2 3-2 4 2 4 2 2-2 6-1 6 5 5 9c0 0 5 2 3 7 0 0 3 0 3 4s-2 5-2 5 1 3-6 3z" fill="#fa8cb4"/><path d="m14.5 18.5c5 3 2-4 5-8s7-2 7-2 0-2 3-2 4 2 4 2 2-2 6-1c2.964.741 4.826 3.131 5.187 5.946.437-3.626-1.539-7.034-5.187-7.946-4-1-6 1-6 1s-1-2-4-2-3 2-3 2-4-2-7 2 0 11-5 8c0 0-2.281 2.287-1.668 5.131.384-1.843 1.668-3.131 1.668-3.131z" fill="#ffa0c8"/><path d="m44.5 16.5s2.77 1.112 3.359 3.743c.659-3.476-2.241-5.2-3.114-5.63-.012.622-.087 1.254-.245 1.887z" fill="#ffa0c8"/><g fill="#e678a0"><path d="m19.5 27c-3.171 0-5.266-2.059-5.354-2.146-.195-.195-.195-.511 0-.706s.511-.195.706-.002c.019.018 1.903 1.854 4.648 1.854.276 0 .5.224.5.5s-.224.5-.5.5z"/><path d="m45.239 31.889c-1.293 0-1.901-.595-2.187-1.166-.123-.247-.023-.547.224-.671.247-.123.547-.024.671.224.635 1.267 3.406.237 4.329-.224.248-.123.547-.024.671.224.123.247.023.547-.224.671-.043.021-1.068.53-2.24.791-.472.105-.884.151-1.244.151z"/><path d="m46.734 25.374c-.442 0-.8-.203-.986-.562-.321-.616-.047-1.539.374-2.094.476-.627.937-1.453.94-1.461.135-.243.44-.329.681-.194.241.134.328.438.194.68-.02.037-.499.895-1.019 1.58-.314.415-.359.955-.278 1.037.007.004.049.016.112.014.349-.014 1.144-.546 1.528-1.255.146-.27.28-.66.087-.983-.143-.237-.065-.544.172-.686.234-.141.543-.065.686.172.34.567.316 1.269-.065 1.974-.515.95-1.577 1.748-2.368 1.778-.02 0-.038 0-.058 0z"/><path d="m30.5 12c-.276 0-.5-.224-.5-.5 0-3.551-3.475-4.478-3.622-4.515-.268-.068-.43-.34-.362-.607.068-.268.343-.432.605-.363.044.011 4.379 1.145 4.379 5.485 0 .276-.224.5-.5.5z"/><path d="m34.5 11c-.276 0-.5-.224-.5-.5 0-2.7-.851-3.644-.859-3.652-.187-.2-.182-.515.015-.704.197-.188.505-.19.698.003.117.117 1.146 1.236 1.146 4.353 0 .276-.224.5-.5.5z"/></g><path d="m21.284 34.283c-.63 0-1.284-.089-1.942-.309-2.252-.75-2.976-2.467-3.089-3.625-1.162-.003-2.848-.462-3.401-2.247-.522-1.682.216-2.967.917-3.65-3.665-4.169.336-8.263.378-8.305.163-.163.416-.193.61-.075 1.233.739 1.726.696 1.909.604.458-.23.578-1.415.705-2.669.184-1.804.411-4.049 1.729-5.806 2.518-3.356 5.742-2.784 7.043-2.37.271-.741 1.061-1.831 3.357-1.831 2.328 0 3.571 1.105 4.111 1.777.849-.58 2.852-1.553 6.01-.762 4.041 1.01 6.331 4.924 5.455 9.204.481.249 1.322.758 2.048 1.574.935 1.052 1.833 2.804 1.048 5.311 1.016.262 2.828 1.179 2.828 4.396 0 3.318-1.325 4.744-1.955 5.234.025.391-.055.929-.426 1.444-.871 1.209-2.93 1.822-6.119 1.822-1.713 0-3.111-.177-4.158-.526-.262-.087-.403-.37-.316-.632.089-.262.372-.401.633-.316.649.216 1.842.474 3.841.474 3.736 0 4.93-.881 5.308-1.406.347-.481.22-.931.218-.936-.078-.236.028-.494.251-.605.065-.035 1.723-.96 1.723-4.553 0-3.46-2.397-3.5-2.5-3.5-.166 0-.321-.083-.414-.22s-.111-.312-.05-.466c1.786-4.466-2.538-6.276-2.723-6.351-.231-.093-.359-.343-.299-.585.971-3.882-1.022-7.49-4.636-8.394-3.65-.912-5.452.797-5.527.871-.114.112-.277.161-.434.137-.157-.027-.294-.126-.365-.269-.034-.067-.922-1.723-3.552-1.723-2.391 0-2.496 1.352-2.5 1.506-.005.17-.097.33-.242.418-.146.088-.327.1-.48.023-.15-.072-3.676-1.751-6.378 1.853-1.151 1.535-1.363 3.627-1.534 5.308-.169 1.668-.303 2.986-1.252 3.462-.616.307-1.4.175-2.512-.434-.768.927-2.805 3.955.251 7.011.107.107.16.256.144.407-.016.15-.1.286-.227.367-.061.04-1.538 1.038-.964 2.885.562 1.811 2.775 1.529 2.869 1.517.149-.021.304.029.414.134s.167.255.153.407c-.008.091-.155 2.306 2.415 3.163 1.729.576 3.477.074 4.638-.45.248-.112.547-.002.661.25.113.252.001.548-.251.662-.894.403-2.102.794-3.421.794z" fill="#785ae6"/><path d="m21.5 17.5v10c0 3.866 3.134 7 7 7h5c3.314 0 6-2.686 6-6h2c1.657 0 3-1.343 3-3v-1c0-1.657-1.343-3-3-3h-2-3z" fill="#e1a271"/><path d="m21.5 17.5c0-3 2-4 3-4s2 1 3 1 3-3 7-1c2 1 3 3 2 5s3.189 3 3.189 3v2.041z" fill="#e1a271"/><path d="m23.5 14.5c2 4 0 7-3 7s-.086-3.204-.086-3.204l1.565-4.779z" fill="#fa8cb4"/><g fill="#785ae6"><path d="m38.376 36c-.276 0-.5-.224-.5-.5v-3.759c0-.104.032-.206.094-.291.664-.929 1.03-1.977 1.03-2.95 0-.276.224-.5.5-.5h2c1.379 0 2.5-1.122 2.5-2.5v-1c0-1.378-1.121-2.5-2.5-2.5h-1.812c-.276 0-.5-.224-.5-.5s.224-.5.5-.5h1.812c1.93 0 3.5 1.57 3.5 3.5v1c0 1.93-1.57 3.5-3.5 3.5h-1.524c-.095.986-.47 1.977-1.1 2.898v3.602c0 .276-.224.5-.5.5z"/><path d="m31.5 35h-3c-4.136 0-7.5-3.364-7.5-7.5v-6c0-.276.224-.5.5-.5s.5.224.5.5v6c0 3.584 2.916 6.5 6.5 6.5h3c.276 0 .5.224.5.5s-.224.5-.5.5z"/><path d="m31.5 26c-.276 0-.5-.224-.5-.5v-3c0-.276.224-.5.5-.5s.5.224.5.5v3c0 .276-.224.5-.5.5z"/><path d="m23.5 26c-.276 0-.5-.224-.5-.5v-3c0-.276.224-.5.5-.5s.5.224.5.5v3c0 .276-.224.5-.5.5z"/><path d="m26.5 28c-1.738 0-2.893-1.292-2.893-2.146 0-.243.089-.461.249-.616.114-.109.317-.238.644-.238.289 0 1.034-1.186 1.525-2.658.089-.262.372-.401.633-.316.262.087.403.37.316.632-.321.964-1.174 3.155-2.327 3.331.042.094.123.223.258.363.188.195.718.648 1.595.648.276 0 .5.224.5.5s-.224.5-.5.5z"/><path d="m31.5 24.041c-.125 0-.249-.046-.347-.14-.199-.191-.205-.508-.014-.707l1-1.041c.191-.2.508-.205.707-.014s.205.508.014.707l-1 1.041c-.097.103-.229.154-.36.154z"/><path d="m23.5 24.041c-.131 0-.263-.051-.36-.154l-1-1.041c-.191-.199-.186-.516.014-.707.201-.19.516-.186.707.014l1 1.041c.191.199.186.516-.014.707-.098.094-.222.14-.347.14z"/><path d="m34.5 22c-.209 0-.404-.132-.475-.342-.35-1.05-1.013-1.651-1.971-1.788-.738-.106-1.391.102-1.396.104-.261.088-.545-.053-.633-.316-.087-.262.055-.545.316-.632.035-.012.876-.286 1.854-.146.938.134 2.182.67 2.779 2.462.087.262-.055.545-.316.632-.053.018-.105.026-.158.026z"/></g><path d="m25.653 29.417s.469-.894 1.356-.916 1.304.458 1.304.458.626-.459 1.669-.459 1.304 1.543 3.129.917c0 0-2.19 2.084-4.798 2.084-1.813 0-2.66-2.084-2.66-2.084z" fill="#c85a82"/><path d="m20.5 22c-2.215 0-3.688-.547-4.779-1.773-.184-.206-.165-.522.042-.706.204-.185.521-.166.706.042.895 1.007 2.101 1.437 4.031 1.437 1.193 0 2.21-.537 2.788-1.474.761-1.231.676-2.981-.235-4.803-1.342-2.684-.559-4.896.521-5.974.921-.92 2.158-1.192 3.15-.697 2.36 1.18 1.297 4.466 1.251 4.605-.088.261-.366.403-.632.316-.262-.087-.403-.37-.317-.631.009-.026.837-2.603-.749-3.396-.612-.306-1.377-.111-1.996.509-.844.844-1.438 2.612-.333 4.82 1.069 2.138 1.139 4.243.191 5.776-.765 1.239-2.091 1.949-3.639 1.949z" fill="#e678a0"/></svg>