<svg enable-background="new 0 0 64 64" height="512" viewBox="0 0 64 64" width="512" xmlns="http://www.w3.org/2000/svg"><path d="m20.5 17.5s-1 6-2 7c0 0-3 0-4 2s0 8 5 6c0 0-2 3 1 5s6-1 6-1 8 1 15-2c0 0 1 2 4 2s5-3 3-5c0 0 2 2 5 0s.789-6.106-1-7c-2-1-3-1-3-1s-3 0-4-6c0 0-4-4-17-4-8 0-8 4-8 4z" fill="#968cd2"/><path d="m22.697 38.68c-.806 0-1.65-.214-2.475-.764-1.762-1.175-1.975-2.676-1.844-3.729.041-.322.115-.621.202-.884-1.782.368-2.91-.322-3.573-1.042-1.44-1.565-1.697-4.503-.956-5.985.958-1.917 3.413-2.22 4.203-2.268.596-.896 1.363-4.274 1.746-6.559.026-.514.477-4.449 8.5-4.449 13.057 0 17.184 3.978 17.354 4.146.074.073.123.169.14.271.907 5.439 3.488 5.581 3.514 5.582.109 0 1.172.03 3.216 1.053 1.224.612 2.622 2.497 2.745 4.475.088 1.421-.496 2.592-1.691 3.389-1.644 1.095-3.041 1.092-4.032.807.124.575.066 1.181-.181 1.778-.62 1.494-2.253 2.499-4.065 2.499-2.45 0-3.699-1.225-4.19-1.879-6.35 2.582-13.251 2.043-14.634 1.901-.831.756-2.325 1.658-3.979 1.658zm-3.198-6.68c.147 0 .291.065.388.185.138.169.15.409.03.592-.175.266-1.636 2.644.86 4.308 2.629 1.755 5.342-.91 5.369-.938.109-.109.262-.163.416-.143.078.01 7.953.945 14.741-1.964.243-.104.525-.001.644.236.035.068.924 1.724 3.553 1.724 1.39 0 2.682-.774 3.141-1.882.334-.808.159-1.611-.494-2.265-.098-.097-.147-.225-.147-.353s.049-.256.146-.354c.195-.195.512-.195.707 0 .069.067 1.766 1.675 4.369-.062.894-.596 1.313-1.436 1.248-2.494-.096-1.549-1.233-3.162-2.194-3.643-1.834-.917-2.772-.947-2.781-.947-.133 0-3.369-.071-4.458-6.242-.719-.594-5.091-3.758-16.537-3.758-7.336 0-7.497 3.362-7.5 3.506 0 .023-.003.053-.007.076-.171 1.028-1.08 6.212-2.14 7.271-.093.094-.22.147-.352.147-.027 0-2.706.028-3.554 1.724-.521 1.042-.416 3.543.797 4.861.838.911 2.04 1.063 3.57.451.061-.024.123-.036.185-.036zm1.001-14.5h.01z" fill="#785ae6"/><path d="m38.5 28.5v9.254h.001c14.999 3.876 15.999 6.895 15.999 13.746v11h-37s0-5.505 0-9.818c0-7.182-.055-11.182 11.945-14.182v-4z" fill="#ffb4be"/><path d="m42.5 40.5s-4 5-10 5-7-4-7-4v21h17.387z" fill="#f0f0e6"/><path d="m25.5 60.5v2h17.387l-.035-2z" fill="#dcdcd2"/><g fill="#96bef0"><path d="m32.5 47.5c-6.704 0-7.921-4.563-7.97-4.758-.134-.535.192-1.078.728-1.212.536-.135 1.079.19 1.213.728.034.122.946 3.242 6.03 3.242 5.456 0 9.182-4.578 9.219-4.625.345-.431.976-.501 1.405-.156.432.346.501.975.156 1.406-.176.219-4.374 5.375-10.781 5.375z"/><path d="m32.5 53.5c-1.904 0-3.55-.377-4.892-1.12-.483-.268-.658-.876-.391-1.359s.877-.657 1.359-.391c1.042.577 2.363.87 3.923.87 1.061 0 2.134-.175 3.191-.521.524-.175 1.089.114 1.261.64.171.524-.115 1.09-.64 1.261-1.256.411-2.539.62-3.811.62z"/><path d="m32.5 59.5c-2.108 0-3.893-.46-5.306-1.367-.464-.299-.599-.917-.301-1.382.298-.466.917-.601 1.382-.302 1.085.697 2.507 1.051 4.225 1.051 1.062 0 2.137-.176 3.193-.521.525-.175 1.089.114 1.262.639.172.525-.114 1.09-.639 1.262-1.258.411-2.542.62-3.816.62z"/></g><path d="m29.5 62.5h-12s0-5.505 0-9.818c0-5.704-.035-9.401 5.96-12.183l3.04 4.001c.9 0 1.598 1.013 2.093 2.127.626 1.409.907 2.947.907 4.489z" fill="#fa8cb4"/><path d="m23.46 40.499c-5.995 2.783-5.96 6.48-5.96 12.183v2c0-5.704-.035-9.401 5.96-12.183z" fill="#ffa0c8"/><path d="m37.5 44.5c-4 2-3.436 18-3.436 18h20.436s0-3 0-11c0-5.7-.693-8.924-9.563-12.078z" fill="#fa8cb4"/><path d="m17.5 60.5v2h12s0-1.421 0-2z" fill="#e678a0"/><path d="m34.064 62.5h20.436s0-.611 0-2h-20.463c0 1.227.027 2 .027 2z" fill="#e678a0"/><path d="m44.937 39.422v2c8.87 3.154 9.563 6.378 9.563 12.078 0-.633 0-1.29 0-2 0-5.7-.693-8.924-9.563-12.078z" fill="#ffa0c8"/><path d="m21.5 63c-.276 0-.5-.224-.5-.5 0-.903-.49-2.129-.964-3.314-.51-1.273-1.036-2.589-1.036-3.686 0-2.072 1.953-6.978 2.036-7.186.103-.257.396-.382.65-.278.256.103.381.394.279.649-.02.049-1.965 4.934-1.965 6.815 0 .903.49 2.129.964 3.314.51 1.273 1.036 2.589 1.036 3.686 0 .276-.224.5-.5.5z" fill="#e678a0"/><path d="m45.5 63c-.276 0-.5-.224-.5-.5v-10.011c0-.276.224-.5.5-.5s.5.224.5.5v10.011c0 .276-.224.5-.5.5z" fill="#e678a0"/><path d="m21.5 13.5v14c0 3.866 3.134 7 7 7h5c3.314 0 6-2.686 6-6h2c1.657 0 3-1.343 3-3v-1c0-1.657-1.343-3-3-3h-2v-8l-10-2z" fill="#ffc8d2"/><path d="m34.5 14.919s1 1.581 2 3.581 3.189 3 3.189 3l-.189-6z" fill="#968cd2"/><path d="m44.5 18.5s7 3 10 0c1-1-7-4.23-7-4.23z" fill="#aad2ff"/><path d="m50.562 20.335c-2.998 0-6.064-1.292-6.259-1.375-.139-.06-.244-.179-.285-.324s-.014-.302.074-.425l3-4.229c.134-.189.382-.261.595-.175 2.13.86 7.112 3.003 7.383 4.33.054.265-.025.525-.216.717-1.114 1.114-2.694 1.481-4.292 1.481zm-5.282-2.069c1.664.604 6.463 2.081 8.757-.015-.486-.659-3.519-2.196-6.359-3.367z" fill="#785ae6"/><path d="m44.5 18.5c-4-3-10-4-17-4-6 0-7 3-7 3s-1-16 13-16c11 0 14 9 14 14 0 2-3 3-3 3z" fill="#aad2ff"/><path d="m20.532 17.422c.281-4.328 2.125-13.922 12.968-13.922 10.009 0 13.384 7.443 13.913 12.553.051-.176.087-.358.087-.553 0-5-3-14-14-14-14 0-13 16-13 16s.012-.032.032-.078z" fill="#bee6ff"/><g fill="#785ae6"><path d="m44.5 19c-.107 0-.212-.034-.3-.1-3.499-2.625-8.962-3.9-16.7-3.9-5.508 0-6.488 2.555-6.527 2.663-.081.223-.306.355-.542.329-.235-.033-.415-.225-.43-.461-.021-.325-.446-8.023 4.077-12.838 2.302-2.451 5.472-3.693 9.422-3.693 11.469 0 14.5 9.484 14.5 14.5 0 2.334-3.206 3.429-3.342 3.475-.052.016-.105.025-.158.025zm-17-5c7.805 0 13.396 1.288 17.079 3.938.846-.34 2.421-1.225 2.421-2.438 0-4.669-2.821-13.5-13.5-13.5-3.661 0-6.584 1.135-8.689 3.374-3.079 3.274-3.697 8.156-3.804 10.596.987-.923 2.9-1.97 6.493-1.97z"/><path d="m31.5 35h-3c-4.136 0-7.5-3.364-7.5-7.5v-10c0-.276.224-.5.5-.5s.5.224.5.5v10c0 3.584 2.916 6.5 6.5 6.5h3c.276 0 .5.224.5.5s-.224.5-.5.5z"/><path d="m31.5 26c-.276 0-.5-.224-.5-.5v-3c0-.276.224-.5.5-.5s.5.224.5.5v3c0 .276-.224.5-.5.5z"/><path d="m23.5 26c-.276 0-.5-.224-.5-.5v-3c0-.276.224-.5.5-.5s.5.224.5.5v3c0 .276-.224.5-.5.5z"/><path d="m26.5 28c-1.739 0-2.892-1.292-2.892-2.146 0-.242.088-.461.249-.615.112-.11.315-.239.643-.239.289 0 1.034-1.186 1.526-2.658.087-.261.371-.404.632-.316s.403.371.316.633c-.321.964-1.173 3.155-2.327 3.331.042.094.123.223.258.363.188.194.719.647 1.595.647.276 0 .5.224.5.5s-.224.5-.5.5z"/><path d="m28.5 31c-2.472 0-2.5-1.438-2.5-1.5 0-.276.224-.5.5-.5.268 0 .487.211.5.476.028.183.376.524 1.5.524 2.23 0 2.506-.565 2.508-.571 0-.276.22-.465.496-.465s.496.26.496.536c0 .352-.252 1.5-3.5 1.5zm-1.5-1.5h.01z"/><path d="m31.5 24.041c-.125 0-.25-.046-.346-.14-.199-.191-.206-.508-.014-.707l1-1.041c.192-.198.508-.207.707-.014.199.191.206.508.014.707l-1 1.041c-.099.102-.23.154-.361.154z"/><path d="m23.5 24.041c-.131 0-.262-.052-.36-.153l-1-1.041c-.191-.199-.185-.516.014-.707.198-.193.516-.185.707.014l1 1.041c.191.199.185.516-.014.707-.097.093-.222.139-.347.139z"/><path d="m34.5 22c-.209 0-.404-.133-.474-.342-.35-1.05-1.013-1.651-1.972-1.788-.738-.106-1.39.103-1.396.104-.265.089-.545-.055-.632-.316-.087-.262.054-.545.316-.633.035-.012.873-.287 1.854-.146.938.134 2.181.67 2.778 2.462.087.262-.054.545-.316.633-.053.018-.106.026-.158.026z"/></g><path d="m29.5 38.5s-5.075.964-1.538 6.982c-.406-.578-.894-.982-1.462-.982-2 0-3 4-3 4-3-11 5.945-14 5.945-14z" fill="#e678a0"/><path d="m29.5 63c-.276 0-.5-.224-.5-.5v-11.384c0-1.554-.291-2.995-.864-4.286-.525-1.181-1.105-1.83-1.636-1.83-1.311 0-2.279 2.682-2.515 3.621-.055.221-.252.376-.48.379-.001 0-.003 0-.005 0-.225 0-.423-.15-.482-.368-3.088-11.325 6.174-14.574 6.268-14.605.259-.093.544.053.633.314.088.261-.053.544-.314.633-.327.111-7.568 2.683-6 11.708.546-1.238 1.487-2.682 2.895-2.682.977 0 1.835.815 2.55 2.424.63 1.42.95 2.998.95 4.692v11.384c0 .276-.224.5-.5.5z" fill="#785ae6"/><path d="m54.5 63h-37c-.276 0-.5-.224-.5-.5v-9.817c0-5.693 0-9.735 6.25-12.637.251-.118.548-.007.664.242.116.251.007.548-.243.664-5.671 2.633-5.671 6.02-5.671 11.631v9.417h36v-10.5c0-5.316-.429-8.477-9.231-11.607-.26-.092-.396-.378-.304-.639.092-.26.379-.401.639-.303 8.92 3.171 9.896 6.41 9.896 12.549v11c0 .276-.224.5-.5.5z" fill="#785ae6"/><path d="m38.5 37.754s6 2.41-1 6.41c4-2 6 4.336 6 4.336s6-12-5-16z" fill="#e678a0"/><path d="m21.5 21.326c-.087 0-.175-.022-.256-.07-.237-.142-.314-.449-.173-.686 1.163-1.948 3.418-1.581 3.515-1.562.272.047.454.306.407.578-.047.271-.301.451-.577.407-.079-.015-1.683-.257-2.486 1.089-.095.157-.26.244-.43.244z" fill="#785ae6"/><path d="m25.5 12.5s2-1 9 0c0 0 1-6-5-6-5 0-4 6-4 6z" fill="#968cd2"/><path d="m34.5 13c-.023 0-.047-.002-.071-.005-6.66-.953-8.693-.055-8.712-.045-.14.065-.309.064-.447-.01-.138-.072-.238-.204-.263-.358-.022-.132-.522-3.264 1.097-5.175.791-.933 1.934-1.407 3.396-1.407 1.909 0 3.364.574 4.324 1.708 1.637 1.933 1.189 4.755 1.169 4.874-.04.244-.252.418-.493.418zm-5.423-1.441c1.26 0 2.891.097 4.975.375.042-.803-.016-2.433-.994-3.583-.762-.897-1.959-1.351-3.558-1.351-1.155 0-2.041.354-2.633 1.054-.955 1.128-.989 2.889-.932 3.79.576-.135 1.57-.285 3.142-.285z" fill="#785ae6"/><path d="m34.063 63c-.268 0-.49-.212-.499-.482-.059-1.671-.455-16.381 3.712-18.465 1.085-.541 2.143-.606 3.14-.194 1.523.631 2.54 2.248 3.083 3.358.705-1.857 1.859-5.824.497-9.238-.914-2.288-2.82-3.974-5.667-5.009-.198-.072-.329-.26-.329-.47v-.939c0-.099.029-.195.084-.278.6-.896.916-1.859.916-2.783 0-.276.224-.5.5-.5h2c1.378 0 2.5-1.121 2.5-2.5v-1c0-1.379-1.122-2.5-2.5-2.5h-1.811c-.276 0-.5-.224-.5-.5s.224-.5.5-.5h1.811c1.93 0 3.5 1.57 3.5 3.5v1c0 1.93-1.57 3.5-3.5 3.5h-1.524c-.089.917-.422 1.842-.976 2.709v.445c2.947 1.147 4.94 2.982 5.927 5.459 2.006 5.034-.857 10.864-.98 11.11-.09.18-.284.275-.482.275-.202-.015-.375-.148-.439-.341-.01-.03-1.049-3.072-2.994-3.876-.729-.303-1.484-.248-2.308.165-3.044 1.522-3.313 13.174-3.16 17.535.01.276-.206.508-.482.518-.006.001-.013.001-.019.001z" fill="#785ae6"/></svg>