<svg enable-background="new 0 0 64 64" height="512" viewBox="0 0 64 64" width="512" xmlns="http://www.w3.org/2000/svg"><path d="m33.5 4.5c-7 0-16 3-16 13s-1 21.014 4 25.007 33 19.993 33 19.993h4s5.063-2.344 2-10c-2-5-5-8-5-13 0-3 1.949-5.154 1-8-2-6-6-4-7-8s1-19-16-19z" fill="#e678a0"/><path d="m50.5 62c-.059 0-.118-.01-.176-.032-.258-.097-.389-.385-.292-.644 1.13-3.014 2.678-8.286 2.021-9.601-.088-.176-.191-.375-.307-.596-1.194-2.298-3.678-7.079-2.739-12.709.816-4.896-.362-5.414-1.992-6.131-.243-.107-.49-.216-.738-.34-.247-.124-.347-.424-.224-.671s.424-.346.671-.224c.233.117.466.219.694.319 2.126.936 3.454 1.942 2.576 7.21-.884 5.302 1.497 9.883 2.641 12.084.118.227.224.431.313.61 1.067 2.133-1.664 9.56-1.979 10.399-.076.202-.267.326-.469.326z" fill="#d2648c"/><path d="m56.5 63c-.075 0-.151-.017-.223-.053-.247-.124-.347-.424-.224-.671.019-.039 1.947-3.946 1.947-7.776 0-1.744-1.298-3.792-2.672-5.961-1.636-2.583-3.328-5.255-3.328-8.039 0-1.654.249-2.812.468-3.835.32-1.492.551-2.57-.164-4.482-.435-1.164-1.333-1.627-2.373-2.165-1.449-.749-3.09-1.597-3.797-4.427-.067-.268.096-.539.364-.606.267-.069.539.095.606.364.598 2.391 1.904 3.066 3.287 3.781 1.121.579 2.28 1.178 2.85 2.703.817 2.187.534 3.51.205 5.042-.209.974-.446 2.077-.446 3.625 0 2.494 1.613 5.041 3.173 7.503 1.454 2.295 2.827 4.463 2.827 6.497 0 4.071-1.969 8.056-2.053 8.224-.087.175-.264.276-.447.276z" fill="#d2648c"/><path d="m17.5 19.5c0-10 9-13 16-13 17 0 15 15 16 19s5 2 7 8c.073.219.123.432.164.643.143-.843.148-1.705-.164-2.643-2-6-6-4-7-8s1-19-16-19c-7 0-16 3-16 13 0 3.161-.099 6.423-.078 9.533.016-2.491.078-5.044.078-7.533z" fill="#fa8cb4"/><path d="m58.5 63h-4c-.087 0-.172-.023-.248-.066-1.145-.654-28.091-16.065-33.064-20.036-4.476-3.574-4.356-12.074-4.229-21.072.02-1.447.041-2.897.041-4.326 0-6.526 4.334-13.5 16.5-13.5 14.681 0 15.638 10.882 16.152 16.729.096 1.092.179 2.035.333 2.65.402 1.608 1.335 2.106 2.516 2.737 1.48.79 3.322 1.773 4.473 5.226.605 1.816.127 3.381-.335 4.895-.314 1.029-.639 2.092-.639 3.263 0 3.185 1.263 5.521 2.726 8.227.763 1.412 1.553 2.873 2.239 4.588 3.202 8.004-2.199 10.614-2.254 10.639-.067.03-.138.046-.211.046zm-3.867-1h3.747c.65-.354 4.305-2.692 1.656-9.314-.665-1.662-1.44-3.096-2.19-4.483-1.464-2.708-2.846-5.265-2.846-8.703 0-1.32.347-2.457.683-3.555.455-1.488.847-2.774.343-4.287-1.025-3.075-2.535-3.881-3.996-4.661-1.232-.657-2.505-1.337-3.015-3.376-.173-.691-.259-1.671-.359-2.805-.52-5.915-1.391-15.816-15.156-15.816-7.493 0-15.5 3.284-15.5 12.5 0 1.434-.021 2.888-.041 4.34-.118 8.362-.24 17.008 3.853 20.277 4.751 3.794 30.855 18.758 32.821 19.883z" fill="#785ae6"/><path d="m46.5 39.5s2 1 4 2 4 2 4 10 0 11 0 11h-37s0-9 0-13 1-7 6-10z" fill="#968cd2"/><path d="m17.5 62.5h37s0-.611 0-2h-37z" fill="#8d7bd4"/><path d="m50.5 41.5c-2-1-4-2-4-2h-23c-5 3-6 6-6 10v2c0-4 1-7 6-10h23s2 1 4 2 4 2 4 10c0-.633 0-1.29 0-2 0-8-2-9-4-10z" fill="#a99be0"/><path d="m21.5 63c-.276 0-.5-.224-.5-.5 0-.904-.49-2.129-.964-3.314-.51-1.273-1.036-2.59-1.036-3.686 0-2.072 1.953-6.978 2.036-7.186.103-.257.396-.382.65-.279.256.103.381.394.279.65-.02.05-1.965 4.934-1.965 6.815 0 .904.49 2.129.964 3.314.51 1.273 1.036 2.59 1.036 3.686 0 .276-.224.5-.5.5z" fill="#8d7bd4"/><path d="m45.5 63c-.276 0-.5-.224-.5-.5v-13c0-.276.224-.5.5-.5s.5.224.5.5v13c0 .276-.224.5-.5.5z" fill="#8d7bd4"/><path d="m29.445 32.5v11l1.77 1 1.23 1 6.055-4v-11.76z" fill="#ffb4be"/><path d="m21.5 13.5v14c0 3.866 3.134 7 7 7h5c3.314 0 6-2.686 6-6h2c1.657 0 3-1.343 3-3v-1c0-1.657-1.343-3-3-3h-2v-8z" fill="#ffc8d2"/><path d="m21.5 18.841c1-3.239 3-4.319 3-4.319s4 6.478 11 6.478c0 0 1-4.239-2-7.478l-12-.296z" fill="#ffb4be"/><path d="m37.088 16.279c-2.134-.932-2.588-1.891-2.588-1.891l-1-.888h9.188v8l-3.188-.142-1.05-1.938-.11-1.08z" fill="#e678a0"/><path d="m40.5 20c-.052 0-.105-.008-.158-.026-3.243-1.081-3.726-3.503-3.745-3.605-.05-.271.129-.532.401-.583.271-.05.53.127.582.397.017.083.422 1.957 3.078 2.842.262.087.403.37.316.632-.07.211-.265.343-.474.343z" fill="#d2648c"/><path d="m21.5 17.5c1-3 3-4 3-4s4 6 11 6c0 0 1-3-2-6l-12-.274z" fill="#e678a0"/><path d="m41.5 18c-.027 0-.055-.002-.083-.007-6.148-1.024-8.252-4.2-8.338-4.334-.149-.232-.082-.542.15-.691.232-.151.541-.083.69.149.038.057 2.014 2.949 7.662 3.89.272.045.457.303.411.575-.039.245-.251.418-.492.418z" fill="#d2648c"/><g fill="#785ae6"><path d="m41.5 29h-2c-.276 0-.5-.224-.5-.5s.224-.5.5-.5h2c1.378 0 2.5-1.122 2.5-2.5v-1c0-1.378-1.122-2.5-2.5-2.5h-1.811c-.276 0-.5-.224-.5-.5s.224-.5.5-.5h1.811c1.93 0 3.5 1.57 3.5 3.5v1c0 1.93-1.57 3.5-3.5 3.5z"/><path d="m33.5 35h-5c-4.136 0-7.5-3.364-7.5-7.5v-10c0-.276.224-.5.5-.5s.5.224.5.5v10c0 3.584 2.916 6.5 6.5 6.5h5c.276 0 .5.224.5.5s-.224.5-.5.5z"/><path d="m31.5 26c-.276 0-.5-.224-.5-.5v-3c0-.276.224-.5.5-.5s.5.224.5.5v3c0 .276-.224.5-.5.5z"/><path d="m23.5 26c-.276 0-.5-.224-.5-.5v-3c0-.276.224-.5.5-.5s.5.224.5.5v3c0 .276-.224.5-.5.5z"/><path d="m38.5 46c-.276 0-.5-.224-.5-.5v-13.76c0-.276.224-.5.5-.5s.5.224.5.5v13.76c0 .276-.224.5-.5.5z"/><path d="m29.444 46c-.276 0-.5-.224-.5-.5v-11c0-.276.224-.5.5-.5s.5.224.5.5v11c0 .276-.223.5-.5.5z"/></g><path d="m32.5 45.5 8-9 6 3s-2 10-14 6z" fill="#f0f0e6"/><path d="m45.908 41.204c.445-.979.592-1.704.592-1.704l-6-3-1.231 1.385z" fill="#fffffa"/><g fill="#785ae6"><path d="m26.5 28c-1.739 0-2.892-1.292-2.892-2.146 0-.243.088-.461.249-.616.112-.109.315-.238.643-.238.289 0 1.034-1.186 1.526-2.658.087-.262.371-.403.632-.316s.403.37.316.632c-.321.964-1.173 3.155-2.327 3.331.042.094.123.223.258.363.188.195.719.648 1.595.648.276 0 .5.224.5.5s-.224.5-.5.5z"/><path d="m28.5 31c-2.472 0-2.5-1.439-2.5-1.5 0-.276.224-.5.5-.5.268 0 .487.211.5.476.028.184.376.524 1.5.524 2.23 0 2.506-.566 2.508-.572 0-.276.22-.464.496-.464s.496.26.496.536c0 .352-.252 1.5-3.5 1.5zm-1.5-1.5h.01z"/><path d="m31.5 24.041c-.125 0-.25-.046-.346-.14-.199-.191-.206-.508-.014-.707l1-1.041c.192-.2.508-.206.707-.014.199.191.206.508.014.707l-1 1.041c-.099.103-.23.154-.361.154z"/><path d="m23.5 24.041c-.131 0-.262-.051-.36-.154l-1-1.041c-.191-.199-.185-.516.014-.707.198-.192.516-.186.707.014l1 1.041c.191.199.185.516-.014.707-.097.094-.222.14-.347.14z"/><path d="m21.5 21.326c-.087 0-.176-.023-.256-.071-.237-.142-.314-.449-.173-.686 1.163-1.947 3.418-1.58 3.515-1.562.272.047.454.307.407.579-.047.271-.301.453-.577.407-.079-.012-1.683-.256-2.486 1.089-.095.157-.26.244-.43.244z"/></g><path d="m27.5 36.5 5 9s-5 2-8-1c-2.55-2.55-1-5-1-5z" fill="#f0f0e6"/><path d="m28.426 38.167-.926-1.667-4 3s-.623.993-.424 2.37z" fill="#fffffa"/><path d="m24.5 44.5c-.876-.876-1.262-1.738-1.399-2.496-.178 1.236-.081 3.016 1.399 4.496 3 3 8-1 8-1s-5 2-8-1z" fill="#8d7bd4"/><path d="m46.5 39.5s-2 10-14 6c15 7.065 14-6 14-6z" fill="#8d7bd4"/><path d="m30.182 41.827c-.176 0-.346-.093-.438-.257l-2.403-4.325-3.541 2.655c-.222.166-.534.121-.7-.1s-.121-.534.1-.7l4-3c.115-.086.264-.121.404-.089.141.03.262.12.333.246l2.681 4.827c.134.241.047.546-.194.68-.077.043-.16.063-.242.063z" fill="#785ae6"/><path d="m54.5 63h-37c-.276 0-.5-.224-.5-.5v-13c0-4.126 1.044-7.31 6.243-10.429l3.957-2.971c.115-.086.264-.121.404-.089.141.03.262.12.333.246l1.667 3c.134.241.047.546-.194.68-.24.135-.546.047-.68-.194l-1.388-2.499-3.542 2.656c-4.858 2.918-5.8 5.726-5.8 9.6v12.5h36v-10.5c0-7.691-1.809-8.595-3.724-9.553l-9.657-4.829-7.746 8.713c-.184.207-.5.225-.706.042-.207-.183-.225-.5-.042-.706l8-9c.15-.169.397-.216.597-.115l10 5c2.104 1.052 4.278 2.139 4.278 10.448v11c0 .276-.224.5-.5.5z" fill="#785ae6"/><circle cx="31.5" cy="50.5" fill="#f0dc78" r="1.5"/><circle cx="30.5" cy="56.5" fill="#f0dc78" r="1.5"/><path d="m38.475 32.354c-.096 0-.194-.028-.279-.086-.229-.154-.289-.465-.134-.694.613-.909.938-1.972.938-3.074 0-.276.224-.5.5-.5s.5.224.5.5c0 1.302-.384 2.559-1.111 3.634-.096.143-.254.22-.414.22z" fill="#785ae6"/><path d="m34.5 22c-.209 0-.404-.132-.474-.342-.35-1.05-1.013-1.651-1.972-1.788-.738-.106-1.39.102-1.396.104-.265.088-.545-.054-.632-.316s.054-.545.316-.632c.035-.013.873-.286 1.854-.146.938.134 2.181.67 2.778 2.462.087.262-.054.545-.316.632-.053.018-.106.026-.158.026z" fill="#785ae6"/></svg>