<svg enable-background="new 0 0 64 64" height="512" viewBox="0 0 64 64" width="512" xmlns="http://www.w3.org/2000/svg"><path d="m21.5 8.5s-4 4-4 10c0 4 4 12 0 14 0 0 2 1 4 0 0 0 1 2-1 4 0 0 6 0 7-3l10-2s4 5 8 5c0 0-1-1-1-4 0 0 2 1 4 1 0 0-3-5-2-8s4-20-15-20c-5 0-7 1-10 3z" fill="#cb783f"/><path d="m21.5 10.5c3-2 5-3 10-3 12.495 0 15.475 7.351 15.766 13.239.276-6.059-1.801-15.239-15.766-15.239-5 0-7 1-10 3 0 0-4 4-4 10 0 .265.02.55.051.847.458-5.353 3.949-8.847 3.949-8.847z" fill="#dc8c50"/><path d="m45.5 37c-3.723 0-7.317-3.925-8.194-4.951l-9.439 1.888c-1.343 3.027-7.115 3.063-7.367 3.063-.202 0-.385-.122-.462-.309-.078-.187-.035-.402.108-.545 1.189-1.189 1.173-2.357 1.046-2.974-2.003.71-3.833-.184-3.917-.226-.168-.084-.275-.257-.275-.446s.107-.362.276-.447c2.378-1.189 1.412-5.207.56-8.751-.43-1.788-.836-3.476-.836-4.802 0-6.137 3.977-10.184 4.146-10.354.023-.023.049-.044.076-.062 2.879-1.919 5.007-3.084 10.278-3.084 6.387 0 10.988 1.89 13.674 5.617 3.803 5.276 2.542 12.816 1.8 15.041-.917 2.75 1.926 7.537 1.955 7.584.093.155.095.347.006.504s-.255.254-.435.254c-1.35 0-2.678-.419-3.475-.729.14 2.111.827 2.873.834 2.881.136.146.175.361.096.544s-.256.304-.455.304zm-24-5c.053 0 .106.008.158.026.125.042.229.132.289.25.041.082.857 1.772-.354 3.667 1.91-.178 4.84-.824 5.433-2.602.057-.17.2-.297.376-.332l10-2c.182-.036.372.032.488.178.036.044 3.283 4.052 6.682 4.719-.287-.678-.572-1.766-.572-3.406 0-.173.09-.334.237-.425.147-.092.332-.099.486-.022.016.008 1.365.672 2.896.883-.826-1.592-2.411-5.141-1.593-7.594.7-2.099 1.896-9.203-1.663-14.14-2.488-3.452-6.816-5.202-12.863-5.202-4.796 0-6.73.925-9.678 2.886-.37.39-3.822 4.182-3.822 9.614 0 1.207.393 2.84.808 4.568.836 3.475 1.771 7.363-.208 9.267.688.148 1.69.211 2.676-.282.071-.035.147-.053.224-.053z" fill="#785ae6"/><path d="m46.5 39.5s2 1 4 2 4 2 4 10 0 11 0 11h-37s0-9 0-13c0-5 6-8 6-8z" fill="#8296dc"/><path d="m17.5 62.5h37s0-.611 0-2h-37z" fill="#6e82c8"/><path d="m47.5 63c-.276 0-.5-.224-.5-.5v-13c0-.276.224-.5.5-.5s.5.224.5.5v13c0 .276-.224.5-.5.5z" fill="#6e82c8"/><path d="m50.5 41.5c-2-1-4-2-4-2l-23 2s-6 3-6 8v2c0-5 6-8 6-8l23-2s2 1 4 2 4 2 4 10c0-.633 0-1.29 0-2 0-8-2-9-4-10z" fill="#96aaf0"/><path d="m21.5 63c-.276 0-.5-.224-.5-.5 0-.904-.49-2.129-.964-3.314-.51-1.273-1.036-2.59-1.036-3.686 0-2.072 1.953-6.978 2.036-7.186.103-.257.396-.382.65-.279.256.103.381.394.279.65-.02.05-1.965 4.934-1.965 6.815 0 .904.49 2.129.964 3.314.51 1.273 1.036 2.59 1.036 3.686 0 .276-.224.5-.5.5z" fill="#6e82c8"/><path d="m30.5 62.5h7l3-14-4-4-3 3-4-4-1 2z" fill="#f0f0e6"/><path d="m30.265 60.5.235 2h7l.429-2z" fill="#dcdcd2"/><path d="m33.5 55c-.276 0-.5-.224-.5-.5v-7c0-.276.224-.5.5-.5s.5.224.5.5v7c0 .276-.224.5-.5.5z" fill="#dcdcd2"/><path d="m30.445 32.5v11l1.77 3 1.23 1 6.055-6v-11.76z" fill="#ffb4be"/><path d="m33.5 47.5 2-5 5-8 2 2-2 12-3.293-3.293c-.391-.391-1.024-.391-1.414 0z" fill="#f0f0e6"/><path d="m40.5 49c-.128 0-.256-.049-.354-.146l-3.293-3.293c-.195-.195-.512-.195-.707 0l-2.293 2.293c-.195.195-.512.195-.707 0s-.195-.512 0-.707l2.293-2.293c.585-.585 1.536-.585 2.121 0l3.293 3.293c.195.195.195.512 0 .707-.097.097-.225.146-.353.146z" fill="#dcdcd2"/><path d="m42.5 36.5 5 3 3 11-7 2 5 2-4 8h-7z" fill="#96aaf0"/><path d="m37.885 60.5-.385 2h7l1-2z" fill="#8296dc"/><path d="m42.204 38.278.296-1.778-2-2-1.064 1.702z" fill="#fffffa"/><path d="m42.092 38.62 6.186 3.732-.778-2.852-5-3z" fill="#aabeff"/><path d="m44.5 63h-7c-.149 0-.291-.066-.385-.182-.095-.115-.134-.266-.106-.413l5-26c.031-.161.138-.296.287-.362s.321-.057.461.028l5 3c.11.066.191.173.225.297l3 11c.072.264-.082.537-.345.612l-5.594 1.598 3.642 1.457c.13.052.232.156.282.287s.042.276-.02.401l-4 8c-.085.17-.258.277-.447.277zm-6.395-1h6.085l3.619-7.238-4.495-1.798c-.199-.08-.325-.276-.314-.49s.157-.396.362-.456l6.525-1.864-2.817-10.33-4.214-2.528z" fill="#6e82c8"/><path d="m47.657 40.579c-.22 0-.421-.146-.482-.369l-.105-.385-4.828-2.896c-.237-.142-.313-.449-.171-.686s.448-.313.686-.171l5 3c.11.066.191.173.225.297l.158.579c.073.267-.084.541-.351.614-.044.012-.088.017-.132.017z" fill="#785ae6"/><path d="m33.5 47.5-3.094-3.094c-.46-.46-1.23-.365-1.565.193l-2.341 3.901s0-7 1-9 3-2.986 3-2.986 0 8.986 3 10.986z" fill="#f0f0e6"/><path d="m26.5 49c-.087 0-.176-.023-.257-.071-.237-.142-.313-.449-.171-.686l2.341-3.902c.24-.399.642-.66 1.104-.717.458-.059.916.099 1.244.428l3.094 3.094c.195.195.195.512 0 .707s-.512.195-.707 0l-3.094-3.094c-.109-.109-.26-.16-.415-.143-.154.019-.289.106-.368.239l-2.341 3.902c-.095.157-.261.243-.43.243z" fill="#dcdcd2"/><path d="m27.5 41.5c1-2 3-2.986 3-2.986v-2s-2 .986-3 2.986-1 9-1 9l.044-.073c.08-2.23.307-5.628.956-6.927z" fill="#fffffa"/><path d="m26.5 49c-.276 0-.5-.224-.5-.5 0-.291.012-7.142 1.053-9.224 1.063-2.126 3.138-3.167 3.226-3.21.248-.123.546-.021.669.227.122.247.021.547-.226.67-.019.009-1.866.943-2.774 2.761-.778 1.554-.948 6.862-.948 8.776 0 .276-.224.5-.5.5z" fill="#785ae6"/><path d="m27.803 38.968 2.697 23.532h-4.774l-3.226-9 3-1-4-2 2-9z" fill="#96aaf0"/><path d="m25.009 60.5.717 2h4.774l-.229-2z" fill="#8296dc"/><path d="m27.803 40.968v-2l-4.303 2.532-.477 2.147z" fill="#aabeff"/><path d="m30.5 63h-4.774c-.211 0-.399-.133-.471-.331l-3.226-9c-.045-.127-.038-.267.021-.388s.164-.213.292-.255l1.855-.619-2.92-1.46c-.205-.103-.314-.332-.265-.556l2-9c.03-.135.115-.252.235-.323l4.303-2.532c.146-.085.326-.092.477-.016.151.075.254.222.273.39l2.697 23.532c.017.142-.029.284-.124.39-.095.107-.23.168-.373.168zm-4.422-1h3.861l-2.545-22.211-3.453 2.032-1.868 8.407 3.651 1.825c.181.09.29.281.275.483-.014.202-.148.375-.34.438l-2.515.838z" fill="#6e82c8"/><path d="m23.5 42c-.171 0-.338-.088-.432-.247-.14-.238-.061-.544.178-.685l4.303-2.532c.238-.141.544-.061.685.178.14.238.061.544-.178.685l-4.303 2.532c-.079.047-.167.069-.253.069z" fill="#785ae6"/><path d="m54.5 63h-37c-.276 0-.5-.224-.5-.5v-13c0-5.249 6.02-8.319 6.276-8.447.248-.122.547-.023.67.224.124.247.024.547-.223.671-.056.028-5.723 2.925-5.723 7.552v12.5h36v-10.5c0-7.691-1.809-8.595-3.724-9.553l-2.895-1.447c-.247-.124-.347-.424-.224-.671.124-.247.423-.346.671-.224l2.896 1.448c2.102 1.051 4.276 2.138 4.276 10.447v11c0 .276-.224.5-.5.5z" fill="#785ae6"/><path d="m21.5 13.5v14c0 3.866 3.134 7 7 7h5c3.314 0 6-2.686 6-6h2c1.657 0 3-1.343 3-3v-1c0-1.657-1.343-3-3-3h-2v-8z" fill="#ffc8d2"/><path d="m40 22v-7h1.5v-3.5h-20v6.885s6-1.147 9-4.59c0 0 0 2.295-2 4.59 0 0 5 1.148 8-2.295 0 0 2 3.59 2 9.327 0 0 1.437-1.173 2.322-3.417z" fill="#ffb4be"/><path d="m41.5 17.5c0 4-3 7-3 7 0-5-2-9-2-9-3 3-8 2-8 2 2-2 2-4 2-4-3 3-9 4-9 4v-6h20z" fill="#cb783f"/><g fill="#785ae6"><path d="m41.5 29c-.276 0-.5-.224-.5-.5s.224-.5.5-.5c1.378 0 2.5-1.122 2.5-2.5v-1c0-1.378-1.122-2.5-2.5-2.5h-1.811c-.276 0-.5-.224-.5-.5s.224-.5.5-.5h1.811c1.93 0 3.5 1.57 3.5 3.5v1c0 1.93-1.57 3.5-3.5 3.5z"/><path d="m41.5 29h-2c-.276 0-.5-.224-.5-.5s.224-.5.5-.5h2c.276 0 .5.224.5.5s-.224.5-.5.5z"/><path d="m33.5 35h-5c-4.136 0-7.5-3.364-7.5-7.5v-10c0-.276.224-.5.5-.5s.5.224.5.5v10c0 3.584 2.916 6.5 6.5 6.5h5c.276 0 .5.224.5.5s-.224.5-.5.5z"/><path d="m23.5 26h-4c-.276 0-.5-.224-.5-.5v-5c0-.276.224-.5.5-.5s.5.224.5.5v4.5h3.5c.276 0 .5.224.5.5s-.224.5-.5.5z"/><path d="m34.5 26h-6c-.276 0-.5-.224-.5-.5v-3c0-.276.224-.5.5-.5s.5.224.5.5v2.5h5v-2.5c0-.276.224-.5.5-.5h5c.276 0 .5.224.5.5s-.224.5-.5.5h-4.5v2.5c0 .276-.224.5-.5.5z"/><path d="m31.5 25c-.276 0-.5-.224-.5-.5v-3c0-.276.224-.5.5-.5s.5.224.5.5v3c0 .276-.224.5-.5.5z"/><path d="m23.5 25c-.276 0-.5-.224-.5-.5v-3c0-.276.224-.5.5-.5s.5.224.5.5v3c0 .276-.224.5-.5.5z"/><path d="m30.5 37c-.276 0-.5-.224-.5-.5v-2c0-.276.224-.5.5-.5s.5.224.5.5v2c0 .276-.224.5-.5.5z"/><path d="m26.5 28c-1.739 0-2.892-1.292-2.892-2.146 0-.243.088-.461.249-.616.112-.109.315-.238.643-.238.289 0 1.034-1.186 1.526-2.658.087-.262.371-.404.632-.316.262.087.403.37.316.632-.321.964-1.173 3.155-2.327 3.331.042.094.123.223.258.363.188.195.719.648 1.595.648.276 0 .5.224.5.5s-.224.5-.5.5z"/><path d="m28.5 31c-2.472 0-2.5-1.439-2.5-1.5 0-.276.224-.5.5-.5.268 0 .487.211.5.476.028.184.376.524 1.5.524 2.23 0 2.506-.566 2.508-.572 0-.276.22-.464.496-.464s.496.26.496.536c0 .352-.252 1.5-3.5 1.5zm-1.5-1.5h.01z"/><path d="m31.5 23.041c-.125 0-.25-.046-.346-.14-.199-.191-.206-.508-.014-.707l1-1.041c.192-.2.508-.206.707-.014.199.191.206.508.014.707l-1 1.041c-.099.103-.23.154-.361.154z"/><path d="m23.5 23.041c-.131 0-.262-.051-.36-.154l-1-1.041c-.191-.199-.185-.516.014-.707.198-.192.516-.186.707.014l1 1.041c.191.199.185.516-.014.707-.097.094-.222.14-.347.14z"/><path d="m34.5 21c-.209 0-.404-.132-.474-.342-.35-1.05-1.013-1.651-1.972-1.788-.738-.106-1.39.102-1.396.104-.265.089-.545-.054-.632-.316s.054-.545.316-.632c.035-.013.873-.286 1.854-.146.938.134 2.181.67 2.778 2.462.087.262-.054.545-.316.632-.053.018-.106.026-.158.026z"/><path d="m21.5 20.326c-.087 0-.176-.023-.256-.071-.237-.142-.314-.449-.173-.686 1.163-1.947 3.418-1.58 3.515-1.562.272.047.454.307.407.579-.047.271-.301.453-.577.407-.079-.012-1.683-.256-2.486 1.089-.095.157-.26.244-.43.244z"/><path d="m39.5 36.529c-.276 0-.5-.224-.5-.5v-7.76c0-.276.224-.5.5-.5s.5.224.5.5v7.76c0 .277-.224.5-.5.5z"/><path d="m42.5 37c-.128 0-.256-.049-.354-.146l-1.556-1.556-.667 1.067c-.146.234-.455.306-.689.159-.234-.146-.305-.455-.159-.689l1-1.6c.081-.129.216-.214.367-.231.153-.019.302.035.41.143l2 2c.195.195.195.512 0 .707-.096.097-.224.146-.352.146z"/></g></svg>