<svg enable-background="new 0 0 64 64" height="512" viewBox="0 0 64 64" width="512" xmlns="http://www.w3.org/2000/svg"><path d="m15.5 32.5s3 2 3-3 0-6 0-9 0-15 13-15 16 7 16 14-.028 17.308-9 15.578c-3-.578-2-.945 0-1.762v-3.816h-11.75s.75 6-5.25 6-6-3-6-3z" fill="#968cd2"/><path d="m46.5 39.5s2 1 4 2 4 2 4 10 0 11 0 11h-37s0-9 0-13c0-5 6-8 6-8z" fill="#f0dc78"/><path d="m17.5 62.5h37s0-.611 0-2h-37z" fill="#dcc864"/><path d="m47.5 63c-.276 0-.5-.224-.5-.5v-13c0-.276.224-.5.5-.5s.5.224.5.5v13c0 .276-.224.5-.5.5z" fill="#dcc864"/><path d="m50.5 41.5c-2-1-4-2-4-2l-23 2s-6 3-6 8v2c0-5 6-8 6-8l23-2s2 1 4 2 4 2 4 10c0-.633 0-1.29 0-2 0-8-2-9-4-10z" fill="#ffe885"/><path d="m21.5 63c-.276 0-.5-.224-.5-.5 0-.904-.49-2.129-.964-3.314-.51-1.273-1.036-2.59-1.036-3.686 0-2.072 1.953-6.978 2.036-7.186.103-.257.396-.382.65-.279.256.103.381.394.279.65-.02.05-1.965 4.934-1.965 6.815 0 .904.49 2.129.964 3.314.51 1.273 1.036 2.59 1.036 3.686 0 .276-.224.5-.5.5z" fill="#dcc864"/><path d="m30.5 62.5h7l3-14-4-4-3 3-4-4-1 2z" fill="#fa8cb4"/><path d="m30.265 60.5.235 2h7l.429-2z" fill="#e678a0"/><path d="m33.5 55c-.276 0-.5-.224-.5-.5v-7c0-.276.224-.5.5-.5s.5.224.5.5v7c0 .276-.224.5-.5.5z" fill="#e678a0"/><path d="m30.445 32.5v11l1.77 3 1.23 1 6.055-6v-11.76z" fill="#ffb4be"/><path d="m39.5 36.702c-.276 0-.5-.224-.5-.5v-7.462c0-.276.224-.5.5-.5s.5.224.5.5v7.462c0 .277-.224.5-.5.5z" fill="#785ae6"/><path d="m30.5 37c-.276 0-.5-.224-.5-.5v-2c0-.276.224-.5.5-.5s.5.224.5.5v2c0 .276-.224.5-.5.5z" fill="#785ae6"/><path d="m33.5 47.5 2-5 5-8 2 2-2 12-3.293-3.293c-.391-.391-1.024-.391-1.414 0z" fill="#fa8cb4"/><path d="m40.5 49c-.128 0-.256-.049-.354-.146l-3.293-3.293c-.195-.195-.512-.195-.707 0l-2.293 2.293c-.195.195-.512.195-.707 0s-.195-.512 0-.707l2.293-2.293c.585-.585 1.536-.585 2.121 0l3.293 3.293c.195.195.195.512 0 .707-.097.097-.225.146-.353.146z" fill="#e678a0"/><path d="m42.5 36.5 5 3 3 11-7 2 5 2-4 8h-7z" fill="#ffe885"/><path d="m37.885 60.5-.385 2h7l1-2z" fill="#f0dc78"/><path d="m42.204 38.278.296-1.778-2-2-1.064 1.702z" fill="#ffa0c8"/><path d="m42.092 38.62 6.186 3.732-.778-2.852-5-3z" fill="#fffa96"/><path d="m44.5 63h-7c-.149 0-.291-.066-.385-.182-.095-.115-.134-.266-.106-.413l5-26c.031-.161.138-.296.287-.362s.321-.057.461.028l5 3c.11.066.191.173.225.297l3 11c.072.264-.082.537-.345.612l-5.594 1.598 3.642 1.457c.13.052.232.156.282.287s.042.276-.02.401l-4 8c-.085.17-.258.277-.447.277zm-6.395-1h6.085l3.619-7.238-4.495-1.798c-.199-.08-.325-.276-.314-.49s.157-.396.362-.456l6.525-1.864-2.817-10.33-4.214-2.528z" fill="#dcc864"/><path d="m47.657 40.579c-.22 0-.421-.146-.482-.369l-.105-.385-4.828-2.896c-.237-.142-.313-.449-.171-.686s.448-.314.686-.171l5 3c.11.066.191.173.225.297l.158.579c.073.267-.084.541-.351.614-.044.012-.088.017-.132.017z" fill="#785ae6"/><path d="m33.5 47.5-3.094-3.094c-.46-.46-1.23-.365-1.565.193l-2.341 3.901s0-7 1-9 3-2.986 3-2.986 0 8.986 3 10.986z" fill="#fa8cb4"/><path d="m26.5 49c-.087 0-.176-.023-.257-.071-.237-.142-.313-.449-.171-.686l2.341-3.902c.24-.399.642-.66 1.104-.717.458-.06.916.099 1.244.428l3.094 3.094c.195.195.195.512 0 .707s-.512.195-.707 0l-3.094-3.094c-.109-.109-.26-.161-.415-.143-.154.019-.289.106-.368.239l-2.341 3.902c-.095.157-.261.243-.43.243z" fill="#e678a0"/><path d="m27.5 41.5c1-2 3-2.986 3-2.986v-2s-2 .986-3 2.986-1 9-1 9l.044-.073c.08-2.23.307-5.628.956-6.927z" fill="#ffa0c8"/><path d="m26.5 49c-.276 0-.5-.224-.5-.5 0-.291.012-7.142 1.053-9.224 1.063-2.126 3.138-3.167 3.226-3.21.248-.123.546-.021.669.227.122.247.021.547-.226.67-.019.009-1.866.943-2.774 2.761-.778 1.554-.948 6.862-.948 8.776 0 .276-.224.5-.5.5z" fill="#785ae6"/><path d="m27.803 38.968 2.697 23.532h-4.774l-3.226-9 3-1-4-2 2-9z" fill="#ffe885"/><path d="m25.009 60.5.717 2h4.774l-.229-2z" fill="#f0dc78"/><path d="m27.803 40.968v-2l-4.303 2.532-.477 2.147z" fill="#fffa96"/><path d="m30.5 63h-4.774c-.211 0-.399-.133-.471-.331l-3.226-9c-.045-.127-.038-.267.021-.388s.164-.213.292-.255l1.855-.619-2.92-1.46c-.205-.103-.314-.332-.265-.556l2-9c.03-.135.115-.252.235-.323l4.303-2.532c.146-.085.326-.092.477-.016.151.075.254.222.273.39l2.697 23.532c.017.142-.029.284-.124.39-.095.107-.23.168-.373.168zm-4.422-1h3.861l-2.545-22.211-3.453 2.032-1.868 8.407 3.651 1.825c.181.09.29.281.275.483-.014.202-.148.375-.34.438l-2.515.838z" fill="#dcc864"/><g fill="#785ae6"><path d="m42.5 37c-.128 0-.256-.049-.354-.146l-1.543-1.543-.672 1.145c-.14.238-.446.318-.685.178-.238-.14-.317-.446-.178-.685l1-1.702c.079-.133.214-.223.368-.243.157-.02.308.033.417.143l2 2c.195.195.195.512 0 .707-.097.097-.225.146-.353.146z"/><path d="m23.5 42c-.171 0-.338-.088-.432-.247-.14-.238-.061-.544.178-.685l4.303-2.532c.238-.14.544-.061.685.178.14.238.061.544-.178.685l-4.303 2.532c-.079.047-.167.069-.253.069z"/><path d="m54.5 63h-37c-.276 0-.5-.224-.5-.5v-13c0-5.249 6.02-8.319 6.276-8.447.248-.122.547-.023.67.224.124.247.024.547-.223.671-.056.028-5.723 2.925-5.723 7.552v12.5h36v-10.5c0-7.691-1.809-8.595-3.724-9.553l-2.895-1.447c-.247-.124-.347-.424-.224-.671.124-.247.423-.347.671-.224l2.896 1.448c2.102 1.051 4.276 2.138 4.276 10.447v11c0 .276-.224.5-.5.5z"/></g><path d="m31.5 7.5c12.78 0 15.893 6.765 15.995 13.644.004-.562.005-1.113.005-1.644 0-7-3-14-16-14s-13 12-13 15v2c0-3 0-15 13-15z" fill="#a99be0"/><path d="m21.5 36c-6.426 0-6.5-3.357-6.5-3.5 0-.185.102-.354.264-.441s.36-.077.513.025c.006.004.826.521 1.393.212.535-.289.83-1.282.83-2.796v-9c0-12.811 7.341-15.5 13.5-15.5 10.949 0 16.5 4.878 16.5 14.5 0 6.041 0 15.171-6.422 16.181-.275.04-.528-.144-.572-.417-.042-.273.144-.529.417-.572 5.577-.876 5.577-9.15 5.577-15.192 0-9.084-5.07-13.5-15.5-13.5-8.294 0-12.5 4.878-12.5 14.5v9c0 1.958-.458 3.196-1.361 3.68-.437.233-.896.248-1.293.177.524.724 1.841 1.643 5.154 1.643 1.612 0 2.837-.462 3.641-1.373 1.404-1.59 1.116-4.041 1.113-4.065-.018-.142.026-.286.121-.393s.231-.169.375-.169h11.75c.276 0 .5.224.5.5s-.224.5-.5.5h-11.22c.016.939-.126 2.858-1.389 4.289-1.003 1.135-2.48 1.711-4.391 1.711z" fill="#785ae6"/><path d="m21.5 13.5v14c0 3.866 3.134 7 7 7h5c3.314 0 6-2.686 6-6h2c1.657 0 3-1.343 3-3v-1c0-1.657-1.343-3-3-3h-2v-8z" fill="#ffc8d2"/><path d="m21.5 20.513s2-1.013 4-4.013c0 0 1 1 0 3s5 1 7-1 2-3 2-3 2.02 4.04 2.745 8.804c.15.984 1.5 1.162 1.899.251.699-1.595 1.356-3.715 1.356-6.055 0-2-1-6-1-6l-18 2z" fill="#ffb4be"/><path d="m21.5 18.513s2-1.013 4-4.013c0 0 1 1 0 3s5 1 7-1 2-3 2-3 2.02 4.04 2.745 8.804c.15.984 1.5 1.162 1.899.251.699-1.595 1.356-3.715 1.356-6.055 0-2-1-4-1-4h-18z" fill="#968cd2"/><g fill="#785ae6"><path d="m38.238 23.649c-.067 0-.134-.004-.202-.013-.667-.088-1.184-.593-1.285-1.257-.042-.273.146-.528.419-.569.272-.042.528.146.569.419.052.34.34.404.428.416.085.012.381.025.52-.291.871-1.988 1.313-3.958 1.313-5.854 0-1.854-.938-3.758-.947-3.777-.123-.247-.023-.547.224-.67.247-.122.548-.023.67.224.043.085 1.053 2.129 1.053 4.223 0 2.036-.47 4.14-1.398 6.255-.242.553-.774.894-1.364.894z"/><path d="m41.5 29c-.276 0-.5-.224-.5-.5s.224-.5.5-.5c1.378 0 2.5-1.122 2.5-2.5v-1c0-1.378-1.122-2.5-2.5-2.5h-1.811c-.276 0-.5-.224-.5-.5s.224-.5.5-.5h1.811c1.93 0 3.5 1.57 3.5 3.5v1c0 1.93-1.57 3.5-3.5 3.5z"/><path d="m41.5 29h-2c-.276 0-.5-.224-.5-.5s.224-.5.5-.5h2c.276 0 .5.224.5.5s-.224.5-.5.5z"/><path d="m33.5 35h-5c-4.136 0-7.5-3.364-7.5-7.5v-10c0-.276.224-.5.5-.5s.5.224.5.5v10c0 3.584 2.916 6.5 6.5 6.5h5c.276 0 .5.224.5.5s-.224.5-.5.5z"/><path d="m31.5 25c-.276 0-.5-.224-.5-.5v-3c0-.276.224-.5.5-.5s.5.224.5.5v3c0 .276-.224.5-.5.5z"/><path d="m23.5 25c-.276 0-.5-.224-.5-.5v-3c0-.276.224-.5.5-.5s.5.224.5.5v3c0 .276-.224.5-.5.5z"/><path d="m39.5 36.702c-.276 0-.5-.224-.5-.5v-7.462c0-.276.224-.5.5-.5s.5.224.5.5v7.462c0 .277-.224.5-.5.5z"/><path d="m26.5 28c-1.739 0-2.892-1.292-2.892-2.146 0-.243.088-.461.249-.616.112-.109.315-.238.643-.238.289 0 1.034-1.186 1.526-2.658.087-.262.371-.403.632-.316.262.087.403.37.316.632-.321.964-1.173 3.155-2.327 3.331.042.094.123.223.258.363.188.195.719.648 1.595.648.276 0 .5.224.5.5s-.224.5-.5.5z"/><path d="m28.5 31c-2.472 0-2.5-1.439-2.5-1.5 0-.276.224-.5.5-.5.268 0 .487.211.5.476.028.184.376.524 1.5.524 2.23 0 2.506-.566 2.508-.572 0-.276.22-.464.496-.464s.496.26.496.536c0 .352-.252 1.5-3.5 1.5zm-1.5-1.5h.01z"/><path d="m31.5 23.041c-.125 0-.25-.046-.346-.14-.199-.191-.206-.508-.014-.707l1-1.041c.192-.2.508-.206.707-.014.199.191.206.508.014.707l-1 1.041c-.099.103-.23.154-.361.154z"/><path d="m23.5 23.041c-.131 0-.262-.051-.36-.154l-1-1.041c-.191-.199-.185-.516.014-.707.198-.191.516-.186.707.014l1 1.041c.191.199.185.516-.014.707-.097.094-.222.14-.347.14z"/><path d="m34.5 21c-.209 0-.404-.132-.474-.342-.35-1.05-1.013-1.651-1.972-1.788-.738-.107-1.39.103-1.396.104-.265.088-.545-.054-.632-.316s.054-.545.316-.632c.035-.012.873-.287 1.854-.146.938.134 2.181.67 2.778 2.462.087.262-.054.545-.316.632-.053.018-.106.026-.158.026z"/><path d="m21.5 20.326c-.087 0-.176-.023-.256-.071-.237-.142-.314-.449-.173-.686 1.163-1.947 3.418-1.58 3.515-1.562.272.047.454.307.407.579-.047.271-.301.454-.577.407-.079-.013-1.683-.256-2.486 1.089-.095.157-.26.244-.43.244z"/></g></svg>