<svg enable-background="new 0 0 64 64" height="512" viewBox="0 0 64 64" width="512" xmlns="http://www.w3.org/2000/svg"><path d="m43.5 37.5s5 2 9 5 4 7 4 12 0 8 0 8h-43s0-4 0-8 0-10 4-12 6-3 6-3z" fill="#f0f0e6"/><path d="m13.5 62.5h43s0-.708 0-2h-43z" fill="#dcdcd2"/><path d="m38.5 35.912v-2.172l-9.055 2.76v1.305l-6.945 2.695 1.63 7.334c.166.746 1.073 1.038 1.643.529l5.44-4.863h.287l7.005 5.253c.511.383 1.246.196 1.51-.386l4.485-9.867z" fill="#dcdcd2"/><path d="m28.5 43.5 1 6h5l1.395-5.253-4.395-2.747z" fill="#fa8cb4"/><path d="m35.895 44.247-4.395-2.747-3 2 .352 2.11 2.36-2.11h.288l3.83 2.873z" fill="#e678a0"/><path d="m52.5 42.5c-4-3-9-5-9-5l-20 2s-2 1-6 3-4 8-4 12v2c0-4 0-10 4-12s7-3 7-3l18-2s6 2 10 5 4 7 4 12c0-.626 0-1.29 0-2 0-5 0-9-4-12z" fill="#fffffa"/><path d="m25.625 39.288-3.125 1.212.357 1.609c1.032-.405 1.643-.609 1.643-.609l18-2s.513.172 1.326.484l.674-1.484-2.07-.893z" fill="#f0f0e6"/><path d="m29.5 49.5-2.028 13h9.028l-2-13z" fill="#fa8cb4"/><path d="m27.784 60.5-.312 2h9.028l-.308-2z" fill="#e678a0"/><path d="m46.5 63c-.276 0-.5-.224-.5-.5v-12c0-.276.224-.5.5-.5s.5.224.5.5v12c0 .276-.224.5-.5.5z" fill="#dcdcd2"/><path d="m17.5 63c-.276 0-.5-.224-.5-.5v-11c0-.276.224-.5.5-.5s.5.224.5.5v11c0 .276-.224.5-.5.5z" fill="#dcdcd2"/><path d="m29.445 34.5v7h9.055v-10.76z" fill="#ffb4be"/><path d="m21.5 13.5v15c0 3.314 2.686 6 6 6h5c3.866 0 7-3.134 7-7v-1h3c1.105 0 2-.895 2-2v-3c0-1.105-.895-2-2-2h-2v-6z" fill="#ffc8d2"/><path d="m39.04 30.5c2.54 1 3.46-1 3.46-4h-3.293z" fill="#f0dc78"/><path d="m39.5 19.5 4.879.518.593-.518c.312-.942.528-1.935.528-3 0-8-7-8-7-8-2-6-9-3-11-4-4.817-2.408-11-2-12 3s2 9 6 9c10 0 12-3 12-3 0 2 2 2 2 4s2 2 4 2z" fill="#ffe885"/><path d="m15.5 9.5c1-5 7.183-5.408 12-3 2 1 9-2 11 4 0 0 6.339.017 6.94 6.933.035-.306.06-.615.06-.933 0-8-7-8-7-8-2-6-9-3-11-4-4.817-2.408-11-2-12 3-.202 1.01-.234 1.975-.134 2.878.032-.289.075-.581.134-.878z" fill="#fffa96"/><path d="m40.842 18.977c-.197-.852-.938-1.45-1.81-1.508-1.407-.094-2.532-.469-2.532-1.969 0-1.556-1.815-1.901-2.621-2.919-.331-.418-.892-.545-1.34-.255-1.373.888-4.491 2.174-11.039 2.174-3.192 0-5.741-2.551-6.134-6.122-.504 4.582 2.371 8.122 6.134 8.122 10 0 12-3 12-3 0 2 2 2 2 4s2 2 4 2l1.5.159z" fill="#f0dc78"/><g fill="#785ae6"><path d="m30.5 31h-5c-.276 0-.5-.224-.5-.5s.224-.5.5-.5h5c.403 0 .494-.275.5-.506.007-.273.19-.495.506-.491.274.004.494.224.494.497 0 .603-.399 1.5-1.5 1.5z"/><path d="m30.5 24c-.276 0-.5-.224-.5-.5v-2c0-.276.224-.5.5-.5s.5.224.5.5v2c0 .276-.224.5-.5.5z"/><path d="m23.5 24c-.276 0-.5-.224-.5-.5v-2c0-.276.224-.5.5-.5s.5.224.5.5v2c0 .276-.224.5-.5.5z"/><path d="m33.5 21c-.128 0-.256-.049-.354-.146-2.588-2.586-4.228-1.062-4.296-.997-.198.191-.514.188-.706-.008s-.192-.508.001-.702c.023-.024 2.391-2.316 5.707 1 .195.195.195.512 0 .707-.096.097-.224.146-.352.146z"/><path d="m24.5 20c-.127 0-.255-.048-.353-.145-.116-.114-1.127-1.032-2.342-.082-.22.169-.533.131-.702-.086-.17-.218-.131-.532.086-.702 1.555-1.215 3.077-.426 3.664.162.195.195.195.512 0 .707-.097.097-.225.146-.353.146z"/><path d="m38.5 42c-.276 0-.5-.224-.5-.5v-10.393c0-.276.224-.5.5-.5s.5.224.5.5v10.393c0 .276-.224.5-.5.5z"/><path d="m29.444 36c-.276 0-.5-.224-.5-.5v-1c0-.276.224-.5.5-.5s.5.224.5.5v1c0 .276-.223.5-.5.5z"/></g><path d="m31.5 41.5 8 5 4-9-5-3.588z" fill="#f0f0e6"/><path d="m38.5 33.912-1.368 1.483 5.368 4.105 1-2z" fill="#fffffa"/><path d="m31.5 41.5-2.055-5.695-5.945 3.695 2 7z" fill="#f0f0e6"/><path d="m30.098 37.601-.653-1.796-5.945 3.695.489 1.711z" fill="#fffffa"/><g fill="#785ae6"><path d="m56.5 63h-43c-.276 0-.5-.224-.5-.5v-8c0-4.105 0-10.309 4.276-12.447l6-3 5.904-3.672c.236-.145.543-.074.689.161s.074.543-.161.689l-5.944 3.695-6.041 3.022c-3.723 1.861-3.723 7.693-3.723 11.552v7.5h42v-7.5c0-4.889 0-8.75-3.8-11.6-3.898-2.924-8.836-4.916-8.886-4.936-.038-.015-.073-.035-.106-.058l-4.641-3.331-3.855 4.179c-.188.204-.504.215-.707.029-.203-.188-.216-.504-.029-.707l4.155-4.504c.172-.187.454-.214.659-.067l4.951 3.554c.595.242 5.233 2.173 9.057 5.041 4.202 3.15 4.202 7.437 4.202 12.4v8c0 .276-.224.5-.5.5z"/><path d="m33.5 26h-6c-.276 0-.5-.224-.5-.5v-3c0-.276.224-.5.5-.5s.5.224.5.5v2.5h5v-2.5c0-.276.224-.5.5-.5h5c.276 0 .5.224.5.5s-.224.5-.5.5h-4.5v2.5c0 .276-.224.5-.5.5z"/><path d="m38.5 31.607c-.088 0-.177-.023-.257-.072-.237-.143-.313-.45-.17-.686.606-1.008.927-2.166.927-3.349v-1c0-.276.224-.5.5-.5h3c.827 0 1.5-.673 1.5-1.5v-3c0-.827-.673-1.5-1.5-1.5h-2c-.276 0-.5-.224-.5-.5s.224-.5.5-.5h2c1.378 0 2.5 1.122 2.5 2.5v3c0 1.378-1.122 2.5-2.5 2.5h-2.5v.5c0 1.365-.371 2.701-1.071 3.865-.094.156-.26.242-.429.242z"/><path d="m32.5 35h-5c-3.584 0-6.5-2.916-6.5-6.5v-12c0-.276.224-.5.5-.5s.5.224.5.5v12c0 3.033 2.467 5.5 5.5 5.5h5c.276 0 .5.224.5.5s-.224.5-.5.5z"/><path d="m40.245 31.261c-.424 0-.887-.099-1.388-.296-.257-.101-.383-.392-.282-.648.102-.257.394-.383.648-.282.745.293 1.333.298 1.747.017.664-.453 1.03-1.715 1.03-3.552 0-.276.224-.5.5-.5s.5.224.5.5c0 2.242-.494 3.715-1.467 4.378-.375.255-.806.383-1.288.383z"/><path d="m44.416 21.45c-.066 0-.134-.013-.198-.041-.253-.109-.37-.404-.261-.657.516-1.195 1.043-2.634 1.043-4.252 0-7.415-6.234-7.5-6.5-7.5-.215 0-.406-.138-.474-.342-1.281-3.843-4.801-3.646-7.63-3.487-1.292.072-2.403.134-3.12-.224-3.062-1.531-6.493-1.809-8.74-.709-1.378.674-2.235 1.805-2.546 3.36-.485 2.426.005 4.755 1.345 6.389 1.064 1.298 2.543 2.013 4.165 2.013.276 0 .5.224.5.5s-.224.5-.5.5c-1.927 0-3.681-.845-4.938-2.379-1.531-1.867-2.097-4.498-1.552-7.219.37-1.851 1.438-3.255 3.087-4.062 2.518-1.232 6.297-.952 9.626.713.479.24 1.518.183 2.616.12 2.765-.154 6.908-.388 8.521 3.85 1.497.139 7.14 1.152 7.14 8.477 0 1.8-.569 3.359-1.125 4.648-.082.189-.266.302-.459.302z"/></g><path d="m38.5 15c-.224 0-.428-.151-.484-.379-.305-1.217-.828-2.04-1.555-2.445-.877-.489-1.795-.204-1.805-.201-.262.085-.543-.059-.629-.32-.085-.261.055-.542.315-.629.053-.018 1.322-.427 2.588.268.987.542 1.679 1.58 2.055 3.085.067.268-.096.539-.364.606-.04.01-.081.015-.121.015z" fill="#f0dc78"/><path d="m41.5 14c-.224 0-.428-.151-.484-.379-.305-1.217-.828-2.04-1.555-2.445-.877-.488-1.795-.204-1.805-.201-.26.086-.543-.058-.629-.32-.085-.261.055-.542.315-.629.054-.018 1.322-.427 2.588.268.987.542 1.679 1.58 2.055 3.085.067.268-.096.539-.364.606-.04.01-.081.015-.121.015z" fill="#f0dc78"/><path d="m35.5 10c-.128 0-.256-.049-.354-.146-.002-.003-.946-.854-3.646-.854-1.205 0-2.227-.113-3.125-.345-.268-.069-.428-.341-.359-.609s.343-.431.609-.359c.815.211 1.755.313 2.875.313 3.117 0 4.236 1.029 4.354 1.146.195.195.195.512 0 .707-.098.098-.226.147-.354.147z" fill="#f0dc78"/><path d="m26.5 8c-.128 0-.256-.049-.354-.146-.632-.631-1.566-1.118-2.777-1.446-.267-.072-.424-.347-.352-.613.071-.268.348-.427.613-.352 1.382.374 2.466.947 3.223 1.704.195.195.195.512 0 .707-.097.097-.225.146-.353.146z" fill="#f0dc78"/><path d="m31.5 12c-.075 0-.151-.017-.223-.053-1.87-.935-3.891.146-5.13-1.094-2.349-2.35-6.542-1.862-6.585-1.857-.274.038-.523-.161-.557-.435s.161-.523.435-.557c.192-.023 4.725-.547 7.415 2.143.75.75 2.779-.139 4.87.906.247.124.347.424.224.671-.09.175-.266.276-.449.276z" fill="#f0dc78"/><path d="m38.5 25h-2c-.276 0-.5-.224-.5-.5s.224-.5.5-.5h2c.276 0 .5.224.5.5s-.224.5-.5.5z" fill="#ffe885"/><path d="m38.5 21h-2c-.276 0-.5-.224-.5-.5s.224-.5.5-.5h2c.276 0 .5.224.5.5s-.224.5-.5.5z" fill="#ffe885"/><path d="m37.5 27h-1c-.276 0-.5-.224-.5-.5s.224-.5.5-.5h1c.276 0 .5.224.5.5s-.224.5-.5.5z" fill="#ffe885"/><path d="m34.808 51.5-.308-2h-5l-.312 2z" fill="#e678a0"/><circle cx="26" cy="43" fill="#a99be0" r="1"/><circle cx="39" cy="43" fill="#a99be0" r="1"/><path d="m23.5 26h-4c-.276 0-.5-.224-.5-.5v-5c0-.276.224-.5.5-.5s.5.224.5.5v4.5h3.5c.276 0 .5.224.5.5s-.224.5-.5.5z" fill="#785ae6"/><path d="m25.5 28c-1.153 0-2.5-.393-2.5-1.5 0-1.064 1.71-4.538 2.053-5.224.124-.247.423-.346.671-.224.247.124.347.424.224.671-.809 1.618-1.948 4.169-1.948 4.777 0 .301.903.5 1.5.5.276 0 .5.224.5.5s-.224.5-.5.5z" fill="#785ae6"/></svg>