<svg enable-background="new 0 0 64 64" height="512" viewBox="0 0 64 64" width="512" xmlns="http://www.w3.org/2000/svg"><path d="m43.5 37.5s5 2 9 5 4 7 4 12 0 8 0 8h-43s0-4 0-8 0-10 4-12 7-3 7-3z" fill="#f0f0e6"/><path d="m13.5 62.5h43s0-.708 0-2h-43z" fill="#dcdcd2"/><path d="m52.5 42.5c-4-3-9-5-9-5l-19 2s-3 1-7 3-4 8-4 12v2c0-4 0-10 4-12s7-3 7-3l19-2s5 2 9 5 4 7 4 12c0-.626 0-1.29 0-2 0-5 0-9-4-12z" fill="#fffffa"/><g fill="#dcdcd2"><path d="m46.5 63c-.276 0-.5-.224-.5-.5v-12c0-.276.224-.5.5-.5s.5.224.5.5v12c0 .276-.224.5-.5.5z"/><path d="m17.5 63c-.276 0-.5-.224-.5-.5v-12c0-.276.224-.5.5-.5s.5.224.5.5v12c0 .276-.224.5-.5.5z"/><path d="m30.5 63c-.276 0-.5-.224-.5-.5v-12c0-.276.224-.5.5-.5s.5.224.5.5v12c0 .276-.224.5-.5.5z"/></g><path d="m29.445 34.5v9l1.555 5.5 3-5 5.5-.5v-16.76z" fill="#c88c5a"/><path d="m29.444 44c-.276 0-.5-.224-.5-.5v-9c0-.276.224-.5.5-.5s.5.224.5.5v9c0 .276-.223.5-.5.5z" fill="#785ae6"/><path d="m29.445 36.412s-3.945 1.088-4.945 4.088c-.544 1.633-1.089 3.86-1.472 5.549-.054.236.267.353.385.142.495-.887 1.19-1.691 2.087-1.691 2 0 5 6 5 6z" fill="#fa8cb4"/><path d="m29.585 38.281-.14-1.869s-3.945 1.088-4.945 4.088c-.084.253-.169.525-.253.802 1.676-1.372 4.051-2.477 5.338-3.021z" fill="#ffa0c8"/><path d="m30.5 51c-.186 0-.361-.104-.447-.276-1.189-2.377-3.388-5.724-4.553-5.724-.702 0-1.285.78-1.65 1.435-.174.312-.54.448-.876.319-.329-.126-.512-.469-.433-.815.146-.645.257-1.359.374-2.115.183-1.182.372-2.403.717-3.437 1.073-3.22 5.498-4.409 5.687-4.458.143-.037.297-.009.417.077s.196.222.208.369l1.056 14.088c.018.238-.136.456-.366.52-.045.011-.09.017-.134.017zm-5-7c1.482 0 3.205 2.378 4.33 4.249l-.837-11.167c-1.16.413-3.719 1.54-4.412 3.621-.318.954-.501 2.133-.678 3.274-.046.294-.091.582-.137.862.529-.558 1.109-.839 1.734-.839z" fill="#e678a0"/><path d="m30.499 51c-.259 0-.478-.2-.498-.462l-1.008-13.457c-.973.344-2.924 1.188-3.885 2.671-.15.232-.459.297-.692.147-.231-.15-.297-.46-.147-.691 1.519-2.341 4.907-3.243 5.05-3.28.146-.037.297-.008.417.077.12.086.196.222.208.369l1.056 14.088c.021.275-.187.516-.462.536-.014.002-.026.002-.039.002z" fill="#785ae6"/><path d="m39.5 44c-.276 0-.5-.224-.5-.5v-16.76c0-.276.224-.5.5-.5s.5.224.5.5v16.76c0 .276-.224.5-.5.5z" fill="#785ae6"/><path d="m30.5 50.5s3-6 5-9 5-7 5-7l3 3s-.642 5.78-1.412 9.62c-.168.84-1.266 1.098-1.772.407-1.827-2.495-5.571-5.516-9.816 2.973z" fill="#fa8cb4"/><path d="m30.5 51c-.075 0-.151-.017-.224-.053-.247-.124-.347-.424-.224-.671h.001c.004-.009.009-.017.013-.026.25-.499 3.071-6.107 5.018-9.026 1.984-2.977 4.986-6.982 5.016-7.022.087-.116.221-.188.365-.199.144-.007.287.043.389.145l3 3c.107.107.16.258.144.409-.007.058-.654 5.846-1.419 9.663-.118.591-.56 1.04-1.152 1.17-.585.127-1.163-.088-1.513-.566-.862-1.178-2.215-2.562-3.833-2.418-1.693.144-3.399 1.893-5.073 5.2-.036.074-.058.115-.06.12-.089.173-.265.274-.448.274zm5.801-6.605c1.533 0 3.055.975 4.419 2.837.164.223.397.2.49.18.076-.017.328-.095.388-.39.669-3.336 1.248-8.211 1.378-9.338l-2.42-2.42c-.846 1.139-3.066 4.155-4.64 6.515-.63.945-1.366 2.202-2.075 3.474.706-.5 1.426-.782 2.155-.844.102-.01.203-.014.305-.014z" fill="#e678a0"/><path d="m30.5 51c-.075 0-.151-.017-.224-.053-.247-.124-.347-.424-.224-.671.123-.246 3.037-6.062 5.031-9.054 1.984-2.977 4.986-6.982 5.016-7.022.087-.116.221-.188.365-.199.144-.007.287.043.389.145l3 3c.195.195.195.512 0 .707s-.512.195-.707 0l-2.591-2.591c-.846 1.139-3.066 4.155-4.64 6.515-1.96 2.939-4.938 8.887-4.969 8.946-.087.176-.263.277-.446.277z" fill="#785ae6"/><circle cx="33" cy="52" fill="#8d7bd4" r="1"/><circle cx="33" cy="59" fill="#8d7bd4" r="1"/><path d="m56.5 63h-43c-.276 0-.5-.224-.5-.5v-8c0-4.105 0-10.309 4.276-12.447 3.985-1.993 7.035-3.017 7.065-3.027.262-.086.545.054.633.316.087.262-.055.545-.316.632-.029.01-3.017 1.014-6.935 2.973-3.723 1.862-3.723 7.694-3.723 11.553v7.5h42v-7.5c0-4.889 0-8.75-3.8-11.6-3.898-2.924-8.837-4.916-8.886-4.936-.257-.103-.381-.394-.278-.65.102-.256.393-.381.649-.279.207.083 5.107 2.059 9.114 5.064 4.201 3.151 4.201 7.438 4.201 12.401v8c0 .276-.224.5-.5.5z" fill="#785ae6"/><path d="m19.5 16.5s-1-2-3-2c0 0 1-5 8-6 0 0-1-2-3-2 0 0 3-3 7 0 0 0 0-4 2-3s0 4 0 4 5-3 10 0 7 9 7 9-2-1-3 0c0 0 1 1 2 4 0 0-3 1-4 3s.269 5.295-4.731 7.295l-16.269-10.295z" fill="#ffe885"/><path d="m30.5 9.5s5-3 10 0c2.977 1.786 4.883 4.629 5.945 6.643.59.129 1.055.357 1.055.357s-2-6-7-9c-3.734-2.241-7.467-1.135-9.118-.431-.041 1.163-.882 2.431-.882 2.431z" fill="#fffa96"/><path d="m28.5 8.5s0-4 2-3c.322.161.531.377.671.62.319-.926.425-2.072-.671-2.62-2-1-2 3-2 3-4-3-7 0-7 0 .901 0 1.588.409 2.083.855 1.244-.352 2.959-.323 4.917 1.145z" fill="#fffa96"/><path d="m24.5 10.5s-.549-1.086-1.638-1.657c-5.509 1.477-6.362 5.657-6.362 5.657.303 0 .576.056.833.134.969-1.531 3.001-3.539 7.167-4.134z" fill="#fffa96"/><path d="m39.444 30.924c-.15 0-.299-.068-.397-.196-.168-.22-.126-.533.094-.701 1.74-1.33 2.057-3.083 2.336-4.631.141-.778.273-1.514.576-2.119.839-1.679 2.885-2.685 3.816-3.071-.883-2.467-1.717-3.346-1.726-3.354-.19-.196-.19-.511.003-.705.698-.698 1.713-.655 2.481-.477-.792-1.792-2.805-5.593-6.385-7.741-4.673-2.804-9.439-.028-9.486 0-.2.121-.456.084-.617-.084-.161-.169-.184-.427-.055-.622.289-.436.989-1.756.76-2.616-.079-.296-.259-.506-.567-.66-.356-.179-.503-.089-.559-.056-.493.305-.717 1.71-.718 2.609 0 .189-.107.362-.276.447-.171.085-.373.067-.524-.047-2.407-1.805-4.389-1.259-5.468-.671 1.455.562 2.178 1.974 2.215 2.048.072.144.07.313-.004.456-.075.143-.214.24-.373.263-5.271.753-6.943 3.81-7.415 5.067 1.842.357 2.75 2.131 2.792 2.214l2 4c.123.247.023.547-.224.671-.248.122-.547.024-.671-.224l-2-4c-.007-.016-.894-1.724-2.552-1.724-.149 0-.292-.067-.387-.183s-.133-.268-.104-.415c.042-.21 1.072-4.986 7.641-6.266-.413-.5-1.137-1.136-2.15-1.136-.202 0-.385-.122-.462-.309s-.034-.402.108-.545c.032-.031 2.974-2.9 6.906-.55.097-.872.371-2.081 1.14-2.555.307-.19.824-.342 1.531.011.56.28.936.729 1.087 1.299.184.689.02 1.453-.217 2.086 1.894-.73 5.506-1.561 9.163.634 5.101 3.06 7.134 9.019 7.218 9.271.063.191.006.403-.146.535-.15.132-.368.161-.551.071-.014-.007-1.232-.59-2.044-.323.406.579 1.079 1.731 1.741 3.717.087.262-.055.545-.316.632-.027.009-2.817.962-3.711 2.75-.238.477-.354 1.113-.486 1.85-.296 1.641-.664 3.683-2.713 5.248-.091.068-.197.102-.304.102z" fill="#785ae6"/><path d="m21.5 12.5v16c0 3.314 2.686 6 6 6h5c3.866 0 7-3.134 7-7v-1h2c1.657 0 3-1.343 3-3v-2c0-1.657-1.343-3-3-3h-2l-3-6z" fill="#e1a271"/><g fill="#785ae6"><path d="m23.5 25c-.276 0-.5-.224-.5-.5v-3c0-.276.224-.5.5-.5s.5.224.5.5v3c0 .276-.224.5-.5.5z"/><path d="m33.5 21c-.128 0-.256-.049-.354-.146-2.586-2.585-4.228-1.062-4.296-.997-.197.192-.513.188-.706-.008-.191-.196-.192-.508.002-.702.023-.023 2.394-2.314 5.707 1 .195.195.195.512 0 .707-.097.097-.225.146-.353.146z"/><path d="m24.5 20c-.127 0-.254-.048-.352-.145-.112-.108-1.126-1.036-2.344-.083-.215.169-.532.132-.701-.086-.171-.217-.132-.532.086-.702 1.556-1.215 3.077-.425 3.664.162.195.195.195.512 0 .707-.097.098-.225.147-.353.147z"/><path d="m32.5 35h-5c-3.584 0-6.5-2.916-6.5-6.5v-9c0-.276.224-.5.5-.5s.5.224.5.5v9c0 3.033 2.468 5.5 5.5 5.5h5c.276 0 .5.224.5.5s-.224.5-.5.5z"/><path d="m30.5 31h-5c-.276 0-.5-.224-.5-.5s.224-.5.5-.5h5c.402 0 .494-.275.5-.506.007-.273.245-.467.506-.491.274.004.494.224.494.497 0 .603-.399 1.5-1.5 1.5z"/><path d="m25.5 28c-1.153 0-2.5-.393-2.5-1.5 0-1.064 1.71-4.538 2.053-5.224.124-.247.425-.346.671-.224.247.124.347.424.224.671-.809 1.618-1.948 4.169-1.948 4.777 0 .301.902.5 1.5.5.276 0 .5.224.5.5s-.224.5-.5.5z"/><path d="m30.5 25c-.276 0-.5-.224-.5-.5v-3c0-.276.224-.5.5-.5s.5.224.5.5v3c0 .276-.224.5-.5.5z"/></g><path d="m21.5 17.5v-6h19v5c0 5-2 8-2 8l-3-7c-3-1-6-4-6-4-1 1 0 3 0 3-3 0-5-3-5-3s-2 2-3 4z" fill="#ffe885"/><path d="m39.5 36.346c-.276 0-.5-.224-.5-.5v-9.346c0-.276.224-.5.5-.5h2c1.379 0 2.5-1.122 2.5-2.5v-2c0-1.378-1.121-2.5-2.5-2.5h-1c-.276 0-.5-.224-.5-.5s.224-.5.5-.5h1c1.93 0 3.5 1.57 3.5 3.5v2c0 1.93-1.57 3.5-3.5 3.5h-1.5v8.846c0 .277-.224.5-.5.5z" fill="#785ae6"/></svg>