<svg enable-background="new 0 0 64 64" height="512" viewBox="0 0 64 64" width="512" xmlns="http://www.w3.org/2000/svg"><path d="m39.026 30.733c3.525 1.234 4.474-5.233 4.474-5.233l1-11s3-3-1-6-8.962-.607-13.481-3.803v9.803z" fill="#968cd2"/><path d="m45.414 12.929c.364-1.15.274-2.788-1.914-4.429-4-3-8.962-.607-13.481-3.804v2c4.519 3.197 9.481.804 13.481 3.804 1.109.832 1.668 1.661 1.914 2.429z" fill="#a99be0"/><path d="m25.5 38.5s-4 2-8 4-4 8-4 12 0 8 0 8h43s0-3 0-8 0-9-4-12-9-5-9-5z" fill="#ffe885"/><path d="m52.5 42.5c-4-3-9-5-9-5l-18 1s-4 2-8 4-4 8-4 12v2c0-4 0-10 4-12s8-4 8-4l18-1s5 2 9 5 4 7 4 12c0-.626 0-1.29 0-2 0-5 0-9-4-12z" fill="#fffa96"/><g fill="#f0dc78"><path d="m40 45.182c-3.927-.857-3.949-4.522-5.5-4.682s-4 6-4 6 1.462-7.794 4-9c.924-.439 2.252 2.623 2.755 3.68s2.745 4.002 2.745 4.002z"/><path d="m30.5 63c-.276 0-.5-.224-.5-.5v-16c0-.276.224-.5.5-.5s.5.224.5.5v16c0 .276-.224.5-.5.5z"/><path d="m44.5 54h-9c-.276 0-.5-.224-.5-.5v-2c0-.276.224-.5.5-.5h9c.276 0 .5.224.5.5v2c0 .276-.224.5-.5.5zm-8.5-1h8v-1h-8z"/><path d="m44.5 63h-9c-.276 0-.5-.224-.5-.5v-9c0-.276.224-.5.5-.5h9c.276 0 .5.224.5.5v9c0 .276-.224.5-.5.5zm-8.5-1h8v-8h-8z"/></g><path d="m30.5 46.5s2-9 4-9 3 6 5 7 2-1 3-4 1-4 1-4-1-6-4-6-10 0-12 4-3 7-3 9 2-4 3-4 3 7 3 7z" fill="#ffe885"/><path d="m30.5 46.5s2-9 4-9c1.385 0 3.976-1.855 5-2.97v-4.79l-11.055 4.76v7l1.019 1.755c.582 1.661 1.036 3.245 1.036 3.245z" fill="#ffb4be"/><path d="m30.5 47c-.217 0-.417-.143-.48-.362-.083-.289-2.02-7.091-2.02-9.138 0-2.182 1.1-3.307 1.146-3.354.195-.195.512-.195.707 0 .194.194.195.509.003.704-.035.037-.856.905-.856 2.65 0 1.908 1.961 8.793 1.981 8.862.076.266-.078.543-.344.618-.046.014-.092.02-.137.02z" fill="#ffe885"/><path d="m34.5 38c-.276 0-.5-.224-.5-.5s.224-.5.5-.5c1.676 0 3.872-1.508 4.433-3.043.271-.744.113-1.37-.47-1.862-.211-.178-.238-.493-.06-.704.178-.212.493-.238.705-.06.912.769 1.184 1.822.765 2.969-.708 1.936-3.269 3.7-5.373 3.7z" fill="#ffe885"/><path d="m30.5 47c-.036 0-.072-.004-.109-.012-.27-.061-.439-.327-.38-.597.49-2.203 2.261-9.391 4.489-9.391 1.386 0 2.219 1.814 3.101 3.735.63 1.373 1.345 2.929 2.123 3.317.382.19.662.25.832.177.378-.167.647-1.11.959-2.203.146-.51.308-1.077.511-1.685.49-1.472.729-2.437.843-2.986.056-.271.32-.452.591-.388.27.056.444.32.388.591-.173.838-.467 1.881-.874 3.1-.197.593-.355 1.146-.498 1.644-.413 1.443-.71 2.487-1.519 2.843-.46.202-1.011.138-1.682-.197-1.092-.546-1.817-2.124-2.584-3.795-.644-1.405-1.446-3.153-2.191-3.153-.956 0-2.587 4.451-3.512 8.608-.051.234-.259.392-.488.392z" fill="#f0dc78"/><path d="m30.5 47c-.217 0-.417-.143-.48-.362-.81-2.835-1.99-6.074-2.558-6.609-.296.26-1.002 1.671-1.389 2.445-.746 1.493-1.021 2.05-1.587 1.92-.486-.116-.486-.681-.486-.894 0-1.375.425-3.123 1.299-5.344.102-.257.393-.385.648-.281.257.101.383.391.282.648-.54 1.369-.903 2.565-1.088 3.574.012-.024.024-.048.036-.071 1.03-2.057 1.594-3.026 2.323-3.026.341 0 1.377 0 3.481 7.362.076.266-.078.543-.344.618-.046.014-.092.02-.137.02zm-5.49-3.325h.01z" fill="#f0dc78"/><path d="m25.765 38.84c-.061 0-.123-.011-.183-.035-.257-.101-.383-.391-.282-.648.459-1.165 1.049-2.471 1.753-3.88 2.138-4.277 9.362-4.277 12.447-4.277 3.385 0 4.45 6.155 4.493 6.418.007.136 0 .44-.145 1.141-.056.271-.323.449-.591.388-.271-.056-.444-.32-.389-.591.126-.606.132-.859.132-.861-.253-1.466-1.39-5.495-3.5-5.495-2.9 0-9.691 0-11.553 3.724-.691 1.383-1.27 2.661-1.717 3.8-.078.196-.266.316-.465.316z" fill="#785ae6"/><path d="m21.5 14.5v14c0 3.314 2.686 6 6 6h6c3.314 0 6-2.686 6-6h2c1.657 0 3-1.343 3-3v-2c0-1.657-1.343-3-3-3h-2l-3-6z" fill="#ffc8d2"/><path d="m13.5 62.5h43s0-.708 0-2h-43z" fill="#f0dc78"/><path d="m47.5 63c-.276 0-.5-.224-.5-.5v-12c0-.276.224-.5.5-.5s.5.224.5.5v12c0 .276-.224.5-.5.5z" fill="#f0dc78"/><path d="m17.5 63c-.276 0-.5-.224-.5-.5v-12c0-.276.224-.5.5-.5s.5.224.5.5v12c0 .276-.224.5-.5.5z" fill="#f0dc78"/><path d="m23.5 25c-.276 0-.5-.224-.5-.5v-3c0-.276.224-.5.5-.5s.5.224.5.5v3c0 .276-.224.5-.5.5z" fill="#785ae6"/><path d="m33.5 21c-.128 0-.256-.049-.354-.146-2.588-2.586-4.228-1.063-4.296-.997-.198.189-.514.189-.706-.008-.192-.195-.192-.508.001-.702.023-.023 2.391-2.315 5.707 1 .195.195.195.512 0 .707-.096.097-.224.146-.352.146z" fill="#785ae6"/><path d="m24.5 20c-.127 0-.254-.048-.352-.145-.111-.108-1.123-1.034-2.343-.083-.218.172-.532.131-.702-.086-.17-.218-.131-.531.086-.701 1.554-1.217 3.076-.426 3.664.161.195.195.195.512 0 .707-.097.098-.225.147-.353.147z" fill="#785ae6"/><path d="m22.788 14.5s-1.957 0-2.935-4 1.957-7 2.935-8 1.957 1 2.935 2c0 0 0-2 .978-2s2.935 2 5.871 4 3.914 5 2.935 8z" fill="#aad2ff"/><path d="m22.788 4.5c.978-1 1.957 1 2.935 2 0 0 0-2 .978-2s2.935 3.378 6.454 3.864c.667.092 1.219.24 1.675.433-.543-.849-1.282-1.632-2.258-2.297-2.935-2-4.892-4-5.871-4-.978 0-.978 2-.978 2-.978-1-1.957-3-2.935-2-.928.948-3.608 3.696-3.051 7.388.403-2.672 2.3-4.62 3.051-5.388z" fill="#bee6ff"/><path d="m25.5 15c-.095 0-.191-.027-.277-.084-3.186-2.124-3.223-5.282-3.223-5.416 0-.275.223-.498.498-.499h.002c.274 0 .498.223.5.497.001.112.051 2.769 2.777 4.586.23.153.292.464.139.693-.096.145-.255.223-.416.223z" fill="#96bef0"/><path d="m30.616 14.994c-.128 0-.257-.049-.354-.148-1.989-2.033-2.984-4.044-3.026-4.128-.12-.246-.019-.542.227-.662.247-.12.541-.018.662.227.009.02.972 1.958 2.844 3.872.191.195.188.508-.008.699-.096.093-.22.14-.345.14z" fill="#96bef0"/><g fill="#785ae6"><path d="m22.5 15c-.098 0-2.403-.05-3.485-4.379-1.069-4.274 2.092-7.436 3.131-8.475.297-.297.64-.438.992-.417.77.042 1.368.791 2.002 1.583.002.003.004.006.007.009.201-.732.621-1.321 1.353-1.321.787 0 1.788.765 3.304 1.922.294.225.605.463.934.709.221.166.266.479.1.7s-.478.267-.7.101c-.332-.249-.645-.488-.941-.715-1.156-.883-2.248-1.717-2.697-1.717-.301 0-.5.902-.5 1.5 0 .202-.122.385-.309.462-.186.078-.401.035-.545-.108-.27-.27-.533-.599-.787-.916-.402-.503-.953-1.191-1.276-1.21-.025.001-.098-.005-.229.126-.94.939-3.8 3.8-2.869 7.525.876 3.502 2.51 3.62 2.526 3.621.271.013.489.24.482.512s-.222.488-.493.488z"/><path d="m32.5 35h-5c-3.584 0-6.5-2.916-6.5-6.5v-11c0-2.182 1.1-3.307 1.146-3.354.195-.195.512-.195.707 0s.195.512 0 .707c-.032.034-.853.902-.853 2.647v11c0 3.032 2.467 5.5 5.5 5.5h5c.276 0 .5.224.5.5s-.224.5-.5.5z"/><path d="m30.5 31h-5c-.276 0-.5-.224-.5-.5s.224-.5.5-.5h5c.403 0 .494-.275.5-.506.007-.271.229-.491.5-.491.002 0 .004 0 .006.001.274.003.494.223.494.496 0 .603-.399 1.5-1.5 1.5z"/><path d="m25.5 28c-1.153 0-2.5-.393-2.5-1.5 0-1.064 1.71-4.538 2.053-5.224.124-.247.423-.348.671-.224.247.124.347.424.224.671-.809 1.618-1.948 4.169-1.948 4.777 0 .301.903.5 1.5.5.276 0 .5.224.5.5s-.224.5-.5.5z"/><path d="m30.5 25c-.276 0-.5-.224-.5-.5v-3c0-.276.224-.5.5-.5s.5.224.5.5v3c0 .276-.224.5-.5.5z"/><path d="m56.5 63h-43c-.276 0-.5-.224-.5-.5v-8c0-4.105 0-10.309 4.276-12.447l8-4c.247-.124.546-.022.671.224.124.247.023.547-.224.671l-8 4c-3.723 1.861-3.723 7.693-3.723 11.552v7.5h42v-7.5c0-4.889 0-8.75-3.8-11.6-3.898-2.924-8.836-4.916-8.886-4.937-.256-.103-.381-.394-.279-.649.103-.257.396-.381.65-.278.207.082 5.107 2.059 9.114 5.063 4.201 3.151 4.201 7.437 4.201 12.401v8c0 .276-.224.5-.5.5z"/></g><path d="m35.5 14.5c2 2 2 7 3 8s2-1 2-5v-3z" fill="#968cd2"/><path d="m35.5 14.995c-.052 0-.104-.009-.156-.026-.259-.086-.399-.366-.313-.625.964-2.893-.059-5.602-2.805-7.433-.647-.432-1.31-.903-2.085-1.484-.218-.164-.263-.474-.099-.692.163-.219.474-.262.692-.099.76.57 1.408 1.031 2.04 1.453 3.1 2.066 4.294 5.27 3.195 8.567-.069.207-.262.339-.469.339z" fill="#96bef0"/><path d="m43.882 21.8c-.015 0-.03-.001-.046-.002-.275-.025-.478-.269-.453-.543l.618-6.8c.011-.115.062-.225.143-.308.011-.01 1.03-1.062.928-2.438-.074-.988-.704-1.934-1.873-2.81-1.855-1.392-3.959-1.553-6.187-1.723-2.398-.184-4.879-.373-7.283-2.073-.226-.159-.279-.472-.12-.697.159-.226.472-.28.697-.119 2.179 1.541 4.519 1.72 6.782 1.893 2.272.174 4.622.354 6.71 1.919 1.415 1.062 2.179 2.256 2.271 3.549.107 1.513-.752 2.672-1.088 3.063l-.603 6.633c-.022.26-.24.456-.496.456z" fill="#785ae6"/><path d="m40.686 31.234c-.197 0-.384-.118-.463-.312-.104-.256.02-.548.275-.651.64-.26 1.23-.975 1.708-2.067.111-.252.404-.368.658-.258.253.11.369.405.258.658-.592 1.355-1.348 2.229-2.248 2.593-.062.026-.125.037-.188.037z" fill="#785ae6"/><path d="m38.785 32.213c-.084 0-.169-.021-.247-.065-.24-.137-.324-.441-.188-.682.425-.747.65-1.6.65-2.466v-.5c0-.276.224-.5.5-.5h2c1.378 0 2.5-1.121 2.5-2.5v-2c0-1.379-1.122-2.5-2.5-2.5h-1c-.276 0-.5-.224-.5-.5s.224-.5.5-.5h1c1.93 0 3.5 1.57 3.5 3.5v2c0 1.93-1.57 3.5-3.5 3.5h-1.5c0 1.039-.27 2.063-.78 2.96-.093.162-.262.253-.435.253z" fill="#785ae6"/></svg>