<svg enable-background="new 0 0 64 64" height="512" viewBox="0 0 64 64" width="512" xmlns="http://www.w3.org/2000/svg"><path d="m39.026 30.733c3.525 1.234 4.474-5.233 4.474-5.233l1-11s3-3-1-6-8.962-.607-13.481-3.803v9.803z" fill="#968cd2"/><path d="m45.414 12.929c.364-1.15.274-2.788-1.914-4.429-4-3-8.962-.607-13.481-3.804v2c4.519 3.197 9.481.804 13.481 3.804 1.109.832 1.668 1.661 1.914 2.429z" fill="#a99be0"/><path d="m25.5 38.5s-4 2-8 4-4 8-4 12 0 8 0 8h43s0-3 0-8 0-9-4-12-9-5-9-5z" fill="#ffe885"/><path d="m52.5 42.5c-4-3-9-5-9-5l-18 1s-4 2-8 4-4 8-4 12v2c0-4 0-10 4-12s8-4 8-4l18-1s5 2 9 5 4 7 4 12c0-.626 0-1.29 0-2 0-5 0-9-4-12z" fill="#fffa96"/><g fill="#f0dc78"><path d="m40 45.182c-3.927-.857-3.949-4.522-5.5-4.682s-4 6-4 6 1.462-7.794 4-9c.924-.439 2.252 2.623 2.755 3.68s2.745 4.002 2.745 4.002z"/><path d="m30.5 63c-.276 0-.5-.224-.5-.5v-16c0-.276.224-.5.5-.5s.5.224.5.5v16c0 .276-.224.5-.5.5z"/><path d="m44.5 54h-9c-.276 0-.5-.224-.5-.5v-2c0-.276.224-.5.5-.5h9c.276 0 .5.224.5.5v2c0 .276-.224.5-.5.5zm-8.5-1h8v-1h-8z"/><path d="m44.5 63h-9c-.276 0-.5-.224-.5-.5v-9c0-.276.224-.5.5-.5h9c.276 0 .5.224.5.5v9c0 .276-.224.5-.5.5zm-8.5-1h8v-8h-8z"/></g><path d="m30.5 46.5s2-9 4-9 3 6 5 7 2-1 3-4 1-4 1-4-1-6-4-6-10 0-12 4-3 7-3 9 2-4 3-4 3 7 3 7z" fill="#ffe885"/><path d="m30.5 46.5s2-9 4-9c1.385 0 3.976-1.855 5-2.97v-4.79l-11.055 4.76v7l1.019 1.755c.582 1.661 1.036 3.245 1.036 3.245z" fill="#c88c5a"/><path d="m30.5 47c-.218 0-.418-.143-.48-.362-.083-.289-2.02-7.091-2.02-9.138 0-2.182 1.1-3.307 1.146-3.354.195-.195.512-.195.707 0 .194.194.195.509.003.704-.035.037-.856.905-.856 2.65 0 1.908 1.961 8.793 1.98 8.862.076.266-.077.543-.343.618-.045.014-.092.02-.137.02z" fill="#ffe885"/><path d="m34.5 38c-.276 0-.5-.224-.5-.5s.224-.5.5-.5c1.676 0 3.871-1.508 4.433-3.043.271-.744.113-1.37-.47-1.862-.211-.178-.238-.493-.06-.704.18-.212.494-.235.704-.06.912.769 1.184 1.822.765 2.969-.708 1.936-3.268 3.7-5.372 3.7z" fill="#ffe885"/><path d="m30.5 47c-.035 0-.072-.004-.108-.012-.27-.061-.439-.327-.38-.597.49-2.203 2.26-9.391 4.488-9.391 1.386 0 2.219 1.814 3.101 3.735.631 1.373 1.346 2.929 2.123 3.317.383.19.663.252.832.177.378-.167.647-1.11.96-2.203.146-.51.308-1.077.51-1.685.493-1.478.73-2.439.844-2.985.055-.271.333-.448.59-.389.271.056.445.319.389.59-.171.833-.465 1.877-.873 3.101-.198.593-.355 1.146-.498 1.644-.412 1.443-.711 2.487-1.519 2.843-.461.201-1.013.136-1.682-.197-1.092-.546-1.817-2.124-2.584-3.795-.646-1.405-1.449-3.153-2.193-3.153-.956 0-2.588 4.451-3.512 8.608-.051.234-.259.392-.488.392z" fill="#f0dc78"/><path d="m30.5 47c-.218 0-.418-.143-.48-.362-.811-2.835-1.99-6.074-2.558-6.609-.297.26-1.003 1.671-1.39 2.445-.748 1.494-1.034 2.043-1.587 1.92-.485-.116-.485-.681-.485-.894 0-1.374.425-3.121 1.3-5.343.101-.258.396-.386.647-.282.258.101.384.391.282.647-.539 1.37-.902 2.566-1.087 3.574.012-.023.023-.047.035-.07 1.029-2.057 1.594-3.026 2.323-3.026.341 0 1.377 0 3.48 7.362.076.266-.077.543-.343.618-.045.014-.092.02-.137.02zm-5.489-3.325h.01z" fill="#f0dc78"/><path d="m25.765 38.84c-.061 0-.123-.011-.183-.035-.258-.101-.384-.391-.282-.647.454-1.157 1.044-2.462 1.753-3.881 2.138-4.277 9.362-4.277 12.447-4.277 3.385 0 4.449 6.155 4.493 6.418.007.136-.001.44-.146 1.141-.056.271-.327.449-.591.388-.27-.056-.444-.32-.388-.591.126-.606.132-.859.132-.861-.253-1.466-1.391-5.495-3.5-5.495-2.9 0-9.691 0-11.553 3.724-.695 1.392-1.273 2.67-1.718 3.799-.077.197-.265.317-.464.317z" fill="#785ae6"/><path d="m21.5 14.5v14c0 3.314 2.686 6 6 6h6c3.314 0 6-2.686 6-6h2c1.657 0 3-1.343 3-3v-2c0-1.657-1.343-3-3-3h-2l-3-6z" fill="#e1a271"/><path d="m13.5 62.5h43s0-.708 0-2h-43z" fill="#f0dc78"/><path d="m47.5 63c-.276 0-.5-.224-.5-.5v-12c0-.276.224-.5.5-.5s.5.224.5.5v12c0 .276-.224.5-.5.5z" fill="#f0dc78"/><path d="m17.5 63c-.276 0-.5-.224-.5-.5v-12c0-.276.224-.5.5-.5s.5.224.5.5v12c0 .276-.224.5-.5.5z" fill="#f0dc78"/><path d="m23.5 25c-.276 0-.5-.224-.5-.5v-3c0-.276.224-.5.5-.5s.5.224.5.5v3c0 .276-.224.5-.5.5z" fill="#785ae6"/><path d="m33.5 21c-.128 0-.256-.049-.354-.146-2.586-2.585-4.228-1.063-4.296-.997-.197.19-.513.188-.706-.008-.191-.195-.192-.508.002-.702.023-.023 2.394-2.314 5.707 1 .195.195.195.512 0 .707-.097.097-.225.146-.353.146z" fill="#785ae6"/><path d="m24.5 20c-.127 0-.255-.048-.352-.145-.114-.111-1.126-1.034-2.344-.082-.215.169-.531.131-.702-.087-.17-.218-.131-.531.087-.702 1.556-1.215 3.077-.424 3.664.162.195.195.195.512 0 .707-.097.098-.225.147-.353.147z" fill="#785ae6"/><path d="m22.788 14.5s-1.957 0-2.935-4 1.957-7 2.935-8 1.957 1 2.935 2c0 0 0-2 .978-2s2.935 2 5.871 4 3.914 5 2.935 8z" fill="#aad2ff"/><path d="m22.788 4.5c.978-1 1.957 1 2.935 2 0 0 0-2 .978-2s2.935 3.378 6.454 3.864c.667.092 1.219.24 1.675.433-.543-.849-1.282-1.632-2.258-2.297-2.935-2-4.892-4-5.871-4-.978 0-.978 2-.978 2-.978-1-1.957-3-2.935-2-.928.948-3.608 3.696-3.051 7.388.403-2.672 2.3-4.62 3.051-5.388z" fill="#bee6ff"/><path d="m25.5 15c-.096 0-.192-.027-.277-.084-3.186-2.124-3.223-5.282-3.223-5.416 0-.275.223-.498.498-.499h.002c.274 0 .498.223.5.497.001.112.051 2.769 2.777 4.586.229.153.292.464.139.693-.097.145-.255.223-.416.223z" fill="#96bef0"/><path d="m30.616 14.994c-.128 0-.257-.049-.354-.148-1.99-2.033-2.985-4.044-3.026-4.128-.12-.246-.019-.542.227-.662s.542-.019.662.227c.009.02.972 1.958 2.845 3.872.191.195.188.508-.008.699-.096.093-.221.14-.346.14z" fill="#96bef0"/><g fill="#785ae6"><path d="m22.5 15c-.098 0-2.402-.05-3.485-4.379-1.068-4.274 2.093-7.436 3.132-8.475.297-.296.624-.441.991-.417.771.042 1.369.791 2.003 1.583.002.003.005.006.007.009.2-.732.62-1.321 1.352-1.321.787 0 1.788.765 3.304 1.922.294.225.605.463.934.709.221.166.266.479.101.7-.166.222-.48.267-.7.101-.331-.249-.646-.488-.941-.715-1.157-.883-2.249-1.717-2.698-1.717-.301 0-.5.902-.5 1.5 0 .202-.122.385-.309.462-.185.078-.401.035-.545-.108-.27-.27-.532-.599-.787-.916-.402-.503-.953-1.191-1.276-1.21-.029-.001-.101-.003-.229.126-.939.939-3.8 3.8-2.868 7.525.875 3.502 2.51 3.62 2.526 3.621.271.013.488.24.481.512-.006.271-.222.488-.493.488z"/><path d="m32.5 35h-5c-3.584 0-6.5-2.916-6.5-6.5v-11c0-2.182 1.1-3.307 1.146-3.354.195-.195.512-.195.707 0s.195.512 0 .707c-.032.034-.853.902-.853 2.647v11c0 3.032 2.468 5.5 5.5 5.5h5c.276 0 .5.224.5.5s-.224.5-.5.5z"/><path d="m30.5 31h-5c-.276 0-.5-.224-.5-.5s.224-.5.5-.5h5c.402 0 .494-.275.5-.506.007-.271.229-.491.5-.491.002 0 .004 0 .006.001.274.003.494.223.494.496 0 .603-.399 1.5-1.5 1.5z"/><path d="m25.5 28c-1.153 0-2.5-.393-2.5-1.5 0-1.064 1.71-4.538 2.053-5.224.124-.247.425-.346.671-.224.247.124.347.424.224.671-.809 1.618-1.948 4.169-1.948 4.777 0 .301.902.5 1.5.5.276 0 .5.224.5.5s-.224.5-.5.5z"/><path d="m30.5 25c-.276 0-.5-.224-.5-.5v-3c0-.276.224-.5.5-.5s.5.224.5.5v3c0 .276-.224.5-.5.5z"/><path d="m56.5 63h-43c-.276 0-.5-.224-.5-.5v-8c0-4.105 0-10.309 4.276-12.447l8-4c.247-.124.547-.023.671.224.123.247.023.547-.224.671l-8 4c-3.723 1.861-3.723 7.693-3.723 11.552v7.5h42v-7.5c0-4.889 0-8.75-3.8-11.6-3.898-2.924-8.837-4.916-8.886-4.937-.257-.103-.381-.394-.278-.649.102-.256.393-.382.649-.278.207.082 5.107 2.059 9.114 5.063 4.201 3.151 4.201 7.437 4.201 12.401v8c0 .276-.224.5-.5.5z"/></g><path d="m35.5 14.5c2 2 2 7 3 8s2-1 2-5v-3z" fill="#968cd2"/><path d="m35.5 14.995c-.052 0-.104-.009-.156-.026-.26-.086-.399-.366-.312-.625.964-2.893-.059-5.602-2.806-7.433-.647-.432-1.31-.903-2.085-1.484-.219-.164-.263-.474-.099-.692.163-.22.474-.261.692-.099.76.57 1.408 1.031 2.04 1.453 3.1 2.066 4.294 5.27 3.194 8.567-.068.207-.261.339-.468.339z" fill="#96bef0"/><path d="m43.883 21.8c-.016 0-.031-.001-.046-.002-.275-.025-.479-.269-.453-.543l.618-6.8c.011-.115.062-.225.144-.308.01-.01 1.029-1.062.927-2.438-.073-.988-.703-1.934-1.872-2.81-1.855-1.392-3.959-1.553-6.187-1.723-2.398-.184-4.879-.373-7.283-2.073-.226-.159-.278-.472-.119-.697.161-.226.474-.278.697-.119 2.178 1.541 4.519 1.72 6.781 1.893 2.272.174 4.622.354 6.71 1.919 1.415 1.062 2.179 2.256 2.271 3.549.107 1.513-.752 2.672-1.089 3.063l-.603 6.633c-.023.26-.241.456-.496.456z" fill="#785ae6"/><path d="m40.687 31.234c-.197 0-.385-.117-.463-.312-.104-.256.019-.548.274-.651.64-.26 1.229-.975 1.708-2.067.111-.253.406-.365.658-.258.253.11.368.405.258.658-.593 1.355-1.35 2.229-2.247 2.593-.062.026-.126.037-.188.037z" fill="#785ae6"/><path d="m38.785 32.213c-.084 0-.169-.021-.247-.065-.24-.137-.324-.441-.188-.682.425-.747.65-1.6.65-2.466v-.5c0-.276.224-.5.5-.5h2c1.379 0 2.5-1.121 2.5-2.5v-2c0-1.379-1.121-2.5-2.5-2.5h-1c-.276 0-.5-.224-.5-.5s.224-.5.5-.5h1c1.93 0 3.5 1.57 3.5 3.5v2c0 1.93-1.57 3.5-3.5 3.5h-1.5c0 1.039-.27 2.063-.78 2.96-.092.162-.261.253-.435.253z" fill="#785ae6"/></svg>