<svg enable-background="new 0 0 64 64" height="512" viewBox="0 0 64 64" width="512" xmlns="http://www.w3.org/2000/svg"><path d="m39.5 18.5h2v3h-2z" fill="#aad2ff"/><path d="m38.5 30.5s4.703-.124 5 2.365-1.981 4.1 0 5.71 6.271 2.816 7.911 4.246c3.768 3.287 5.089 6.679 5.089 11.679s0 8 0 8h-43s0-4 0-8 .122-9.997 4.369-11.397c3.964-1.306 7.71-1.746 7.631-2.771s-1.292-2.123-1.052-3.441c.241-1.317 1.052-2.391 3.052-2.391s7.798.484 11-1.001z" fill="#e678a0"/><path d="m27.5 36.5c2 0 7.798.484 11-1.001v-2c-3.202 1.485-9 1.001-11 1.001s-2.811 1.074-3.052 2.391c-.087.475.018.92.188 1.344.378-.998 1.211-1.735 2.864-1.735z" fill="#fa8cb4"/><path d="m51.411 42.821c-1.64-1.43-5.93-2.636-7.911-4.246-.271-.221-.457-.441-.586-.664-.319.972-.454 1.819.586 2.664 1.981 1.611 6.271 2.816 7.911 4.246 3.768 3.287 5.089 6.679 5.089 11.679 0-.626 0-1.29 0-2 0-5-1.321-8.392-5.089-11.679z" fill="#fa8cb4"/><path d="m17.869 45.103c3.964-1.306 7.71-1.746 7.631-2.771-.034-.438-.275-.89-.52-1.366-1.15.64-4.062 1.132-7.11 2.137-4.248 1.4-4.37 7.397-4.37 11.397v2c0-4 .122-9.997 4.369-11.397z" fill="#fa8cb4"/><path d="m43.339 33.199c-1.215.96-3.584 1.786-4.839 2.299v-4.878s3.453-.069 4.183.895c.73.963.656 1.684.656 1.684z" fill="#fa8cb4"/><path d="m28.259 40.271c-.19 0-.373-.109-.456-.295-.017-.037-.412-.926-.789-2.509-.433-1.818 1.081-3.254 1.146-3.314.2-.187.517-.176.705.024.188.201.178.518-.022.707-.012.011-1.152 1.104-.855 2.351.353 1.482.725 2.323.729 2.332.112.251 0 .547-.252.66-.069.03-.138.044-.206.044z" fill="#d2648c"/><path d="m32 40.271c-.082 0-.165-.021-.242-.062-.213-.118-.306-.368-.233-.591.004-.076-.001-.49-.485-1.64-.765-1.816-.031-3.598 0-3.673.107-.253.4-.372.653-.267.254.106.374.399.269.653-.006.015-.598 1.479 0 2.897.521 1.238.682 2.054.477 2.424-.093.167-.263.259-.439.259z" fill="#d2648c"/><path d="m36.039 39.753c-.013 0-.025 0-.038-.001-.275-.021-.482-.261-.462-.536.002-.018.126-1.705.001-3.072-.096-1.055-1.143-1.31-1.153-1.312-.269-.062-.437-.331-.374-.601.062-.268.33-.438.601-.374.071.017 1.762.43 1.923 2.196.132 1.45.006 3.164.001 3.236-.021.264-.24.464-.499.464z" fill="#d2648c"/><path d="m39.323 38.716c-.029 0-.059-.003-.088-.008-.271-.048-.453-.308-.405-.579.002-.015.252-1.446.252-2.895 0-.972-.958-1.075-1.15-1.087-.274-.016-.486-.25-.473-.524.014-.273.218-.529.521-.474.728.032 2.103.511 2.103 2.085 0 1.539-.257 3.007-.268 3.068-.044.243-.254.414-.492.414z" fill="#d2648c"/><path d="m45.695 51.362c-.854-.806-1.916-1.808-3.499-1.975-1.906-.198-3.308.949-4.327 1.789-.449.37-1.148.896-1.404.913-.258-.015-.826-.552-1.24-.944-.886-.838-2.099-1.987-3.879-2.026-1.823-.036-3.085 1.09-4.013 1.917-.434.386-1.028.915-1.302.923-.116-.041-.425-.332-.63-.525-.486-.458-1.091-1.028-1.977-1.417-1.864-.819-3.278-.414-4.417.091-.527.234-1.028.557-1.508.928v5.071c.549-.061 1.07-.341 1.414-.827.506-.717 1.1-1.241 1.717-1.515.658-.292.79-.259 1.185-.085.253.111.526.369.842.666.7.659 1.738 1.646 3.482 1.611 1.731-.045 2.958-1.136 3.853-1.932.407-.362 1.002-.938 1.266-.906.239.005.829.563 1.219.932.863.817 2.044 1.935 3.763 2.032 1.846.11 3.188-1.007 4.174-1.819.418-.345 1.098-.961 1.366-.897.238.025.799.555 1.171.905.841.794 1.96 1.836 3.55 1.906v-4.111c-.245-.177-.581-.492-.806-.705z" fill="#ffe885"/><path d="m13.502 53.861c.158.14.315.285.448.41.841.794 1.96 1.836 3.55 1.906v-5.111c-.244-.176-.58-.491-.805-.704-.713-.673-1.577-1.477-2.764-1.823-.357 1.764-.42 3.67-.429 5.322z" fill="#ffe885"/><path d="m55.031 51.959c-.116-.041-.425-.332-.63-.525-.486-.458-1.091-1.028-1.977-1.417-1.864-.819-2.278-.414-3.417.091-.527.234-2.028 1.557-2.508 1.928v4.071c.549-.061 1.07-.341 1.414-.827.506-.717 1.1-1.241 1.717-1.515.658-.292.79-.259 1.185-.085.253.111.526.369.842.666.7.659 1.738 1.646 3.482 1.611.495-.013.944-.117 1.361-.27 0-.383 0-.775 0-1.186 0-1.218-.08-2.34-.253-3.389-.424.375-.959.839-1.216.847z" fill="#ffe885"/><path d="m29.445 34.5 9.055-1v-6.76z" fill="#c88c5a"/><path d="m21.5 14.5v14c0 3.314 2.686 6 6 6h6c2.761 0 5-2.239 5-5h2c1.657 0 3-1.343 3-3v-2c0-1.657-1.343-3-3-3h-1v-7z" fill="#e1a271"/><path d="m39.5 14.5h-18v3.52c1.514-.746 3-1.77 3-1.77s1 3.45 3 3.45 1-4.6 1-4.6 3.938 5.594 6 4.6c1.37-.661 1-2.486 1-2.486s2 4.786 5 4.786v-.5h-1z" fill="#c88c5a"/><path d="m46.5 7.5.222-2.707 2.778.396-.267 1.895 1.41-1.542 2.291 2.291-1.145 1.63h1.982v3.26h-1.982l1.674 1.631-2.115 2.146-1.212-1.309v2.07l-3.636.239z" fill="#e678a0"/><path d="m51.789 9.463 1.145-1.63-2.291-2.291-.955 1.045 2.246 2.246-1.145 1.63h1.982v2.26h1v-3.26z" fill="#fa8cb4"/><path d="m48.5 6.189-.267 1.895 1.016-1.111.251-1.784-2.778-.396-.093 1.129z" fill="#fa8cb4"/><path d="m46.5 18c-.127 0-.249-.048-.342-.135-.1-.094-.158-.226-.158-.365v-10c0-.014.001-.027.002-.041l.222-2.707c.011-.137.078-.264.187-.35.107-.086.246-.119.382-.104l2.778.396c.273.039.463.292.425.564l-.042.296.32-.35c.092-.102.222-.16.357-.163.139.009.269.05.365.146l2.291 2.291c.172.172.195.442.056.641l-.592.843h1.021c.276 0 .5.224.5.5v3.261c0 .276-.224.5-.5.5h-.753l.793.771c.096.093.15.22.151.354.001.133-.051.261-.144.355l-2.115 2.146c-.097.098-.231.137-.364.149-.137-.002-.267-.061-.359-.16l-.345-.373v.795c0 .264-.204.481-.468.499l-3.636.238c-.011.003-.021.003-.032.003zm.5-10.479v9.445l2.636-.173v-1.603c0-.206.126-.391.317-.466.191-.072.409-.025.55.126l.856.926 1.395-1.415-1.314-1.279c-.146-.142-.191-.358-.114-.547.076-.188.26-.312.463-.312h1.483v-2.26h-1.483c-.187 0-.357-.104-.443-.27s-.073-.365.034-.518l.904-1.286-1.624-1.624-1.057 1.155c-.147.163-.385.209-.582.115-.198-.093-.312-.305-.282-.521l.197-1.4-1.759-.251z" fill="#785ae6"/><path d="m21.5 8.5s2-8 14-7 14 9 14 10 0 5-5 5z" fill="#ffe885"/><path d="m35.5 3.5c10.536.878 13.362 7.15 13.895 9.345.101-.575.105-1.073.105-1.345 0-1-2-9-14-10s-14 7-14 7l.775.27c1.356-2.291 4.859-5.967 13.225-5.27z" fill="#fffa96"/><path d="m39.387 9.669c-.215 0-.413-.14-.479-.355-.08-.265.07-.544.334-.623.05-.016 4.97-1.518 6.226-3.55.146-.235.454-.305.688-.163.235.146.308.454.163.688-1.455 2.354-6.571 3.916-6.788 3.981-.049.015-.096.022-.144.022z" fill="#f0dc78"/><path d="m44.262 12.51c-.427 0-.704-.046-.743-.053-.271-.047-.452-.305-.406-.576.047-.271.302-.449.577-.409.123.024 2.989.466 4.8-2.272.15-.231.462-.296.692-.142.23.152.294.462.142.692-1.597 2.418-3.892 2.76-5.062 2.76z" fill="#f0dc78"/><path d="m35.041 8.196c-.09 0-.181-.024-.263-.075-.234-.146-.307-.454-.161-.688.139-.225 3.462-5.493 7.854-4.752.272.046.456.304.41.576s-.305.457-.576.41c-3.736-.635-6.808 4.245-6.838 4.293-.095.152-.258.236-.426.236z" fill="#f0dc78"/><path d="m29.937 7.328c-.081 0-.162-.02-.238-.061-.242-.132-.333-.435-.201-.677.098-.183 2.453-4.462 6.619-5.504.265-.067.539.096.606.364.066.268-.096.539-.364.606-3.732.933-5.96 4.968-5.982 5.009-.092.168-.264.263-.44.263z" fill="#f0dc78"/><path d="m25.5 7.198c-.077 0-.156-.018-.229-.056-.245-.126-.342-.428-.215-.674.079-.153 1.997-3.79 6.584-5.369.265-.092.546.049.636.31.09.262-.049.546-.31.636-4.212 1.45-6.004 4.849-6.021 4.883-.09.172-.264.27-.445.27z" fill="#f0dc78"/><path d="m13.5 62.5h43s0-.708 0-2h-43z" fill="#d2648c"/><path d="m46.5 63c-.276 0-.5-.224-.5-.5v-12c0-.276.224-.5.5-.5s.5.224.5.5v12c0 .276-.224.5-.5.5z" fill="#d2648c"/><path d="m17.5 63c-.276 0-.5-.224-.5-.5v-12c0-.276.224-.5.5-.5s.5.224.5.5v12c0 .276-.224.5-.5.5z" fill="#d2648c"/><g fill="#785ae6"><path d="m33.5 21c-.128 0-.256-.049-.354-.146-2.586-2.586-4.228-1.063-4.296-.997-.197.191-.513.189-.706-.008-.191-.195-.192-.508.002-.702.023-.023 2.394-2.314 5.707 1 .195.195.195.512 0 .707-.097.097-.225.146-.353.146z"/><path d="m24.5 20c-.127 0-.255-.048-.352-.145-.114-.111-1.126-1.033-2.344-.082-.215.169-.531.131-.702-.087-.17-.218-.131-.531.087-.702 1.556-1.215 3.077-.424 3.664.162.195.195.195.512 0 .707-.097.098-.225.147-.353.147z"/><path d="m32.5 35h-5c-3.584 0-6.5-2.916-6.5-6.5v-11.499c0-.276.224-.5.5-.5s.5.224.5.5v11.499c0 3.032 2.468 5.5 5.5 5.5h5c.276 0 .5.224.5.5s-.224.5-.5.5z"/><path d="m30.5 31h-5c-.276 0-.5-.224-.5-.5s.224-.5.5-.5h5c.402 0 .494-.275.5-.506.007-.271.229-.491.5-.491.002 0 .004 0 .006.001.274.003.494.223.494.496 0 .603-.399 1.5-1.5 1.5z"/><path d="m38.5 33.84c-.276 0-.5-.224-.5-.5v-3.84c0-.276.224-.5.5-.5h2c1.379 0 2.5-1.121 2.5-2.5v-2c0-1.379-1.121-2.5-2.5-2.5h-1c-.276 0-.5-.224-.5-.5s.224-.5.5-.5h1c1.93 0 3.5 1.57 3.5 3.5v2c0 1.93-1.57 3.5-3.5 3.5h-1.5v3.34c0 .276-.224.5-.5.5z"/></g><circle cx="31" cy="22" fill="#968cd2" r="3.5"/><path d="m28.26 24.153 4.047-5.396c-.335-.135-.697-.209-1.074-.234l-3.508 4.677c.128.349.309.667.535.953z" fill="#b4aaf0"/><path d="m30.681 25.468 3.605-4.635c-.239-.674-.672-1.251-1.241-1.663l-4.28 5.502c.53.445 1.188.729 1.916.796z" fill="#b4aaf0"/><path d="m31 26c-2.206 0-4-1.794-4-4s1.794-4 4-4 4 1.794 4 4-1.794 4-4 4zm0-7c-1.654 0-3 1.346-3 3s1.346 3 3 3 3-1.346 3-3-1.346-3-3-3z" fill="#785ae6"/><ellipse cx="22" cy="22" fill="#968cd2" rx="2.5" ry="3.5"/><path d="m19.75 23.5 3.427-4.57c-.289-.217-.608-.354-.951-.398l-2.715 3.62c.015.482.098.936.239 1.348z" fill="#b4aaf0"/><path d="m21.69 25.456 2.8-3.6c-.027-.908-.292-1.729-.721-2.33l-3.671 4.72c.394.655.953 1.098 1.592 1.21z" fill="#b4aaf0"/><path d="m22 26c-1.654 0-3-1.794-3-4s1.346-4 3-4 3 1.794 3 4-1.346 4-3 4zm0-7c-1.084 0-2 1.374-2 3s.916 3 2 3 2-1.374 2-3-.916-3-2-3z" fill="#785ae6"/><path d="m25.5 28c-1.153 0-2.5-.393-2.5-1.5 0-1.064 1.71-4.538 2.053-5.224.124-.247.425-.346.671-.224.247.124.347.424.224.671-.809 1.618-1.948 4.169-1.948 4.777 0 .301.902.5 1.5.5.276 0 .5.224.5.5s-.224.5-.5.5z" fill="#785ae6"/><path d="m39.5 22h-5c-.276 0-.5-.224-.5-.5s.224-.5.5-.5h5c.276 0 .5.224.5.5s-.224.5-.5.5z" fill="#785ae6"/><path d="m27.5 22h-3.052c-.276 0-.5-.224-.5-.5s.224-.5.5-.5h3.052c.276 0 .5.224.5.5s-.224.5-.5.5z" fill="#785ae6"/><path d="m40.5 20.5c-3 0-5-4.162-5-4.162s.37 1.587-1 2.162c-2.062.865-6-4-6-4s1 4-1 4-3-3-3-3-5 3-6 2 2-4 2-4v-3h20z" fill="#aad2ff"/><path d="m19.146 18.201c-.439 0-.768-.116-.999-.348-1.256-1.256 1.213-3.92 2-4.707.195-.195.512-.195.707 0s.195.512 0 .707c-1.359 1.361-2.331 2.961-2 3.293.006.003.408.325 2.54-.604.252-.11.548.005.657.259.11.253-.005.548-.259.657-1.138.497-2.008.742-2.646.743z" fill="#785ae6"/><path d="m19.298 14.716c-.424-.352-.798-.784-.798-1.216 0-1 0-4 3-6s24-1 25 10c0 4-3 6-4 5s-3-8-12-9c-8.945-.994-10 0-10 0z" fill="#ffe885"/><path d="m21.5 9.5c2.931-1.954 23.036-1.039 24.889 9.265.068-.397.111-.816.111-1.265-1-11-22-12-25-10s-3 5-3 6c0 .141.05.28.118.418.226-1.33.894-3.092 2.882-4.418z" fill="#fffa96"/><g fill="#f0dc78"><path d="m46.499 18c-.255 0-.474-.195-.497-.455-.294-3.237-2.435-5.831-6.36-7.708-6.852-3.278-16.187-3.04-17.864-1.921-.229.15-.539.092-.693-.139-.153-.229-.091-.54.139-.693 2.115-1.408 11.96-1.444 18.851 1.851 4.206 2.012 6.601 4.958 6.925 8.521.025.274-.178.518-.453.543-.017 0-.032.001-.048.001z"/><path d="m22.5 13.602c-.089 0-.178-.022-.259-.071-.47-.283-.678-.929-.603-1.869.16-1.982 1.503-4.559 3.676-5.427.256-.103.547.022.649.278.103.257-.021.547-.278.649-1.728.69-2.772 2.697-3.013 4.27-.132.857.038 1.203.087 1.243.236.143.312.449.169.686-.093.155-.258.241-.428.241z"/><path d="m27.487 13.646c-.1 0-.2-.028-.288-.086-.382-.252-.545-.783-.484-1.578.135-1.782 1.375-4.852 3.012-5.608.251-.115.547-.007.664.244.115.251.006.548-.244.664-.954.44-1.874 2.264-2.256 3.756-.268 1.05-.195 1.604-.118 1.708.23.152.283.452.131.683-.095.142-.255.217-.417.217z"/><path d="m32.5 14.343c-.194 0-.379-.113-.46-.304-1.014-2.376 1.393-5.859 2.722-6.757.228-.155.54-.095.694.134.155.229.095.54-.134.694-1.095.739-3.117 3.77-2.362 5.536.108.254-.01.548-.264.656-.064.028-.131.041-.196.041z"/><path d="m36.159 15.689c-.088 0-.176-.009-.263-.028-.271-.059-.441-.325-.382-.595s.323-.443.595-.382c.119.02.272-.064.38-.145 1.083-.812 2.304-4.01 2.398-5.405.02-.275.255-.498.533-.465.275.019.483.258.465.533-.099 1.456-1.348 5.05-2.796 6.137-.31.233-.621.35-.93.35z"/><path d="m40.061 19.186c-.247 0-.463-.184-.495-.437-.035-.273.158-.524.433-.56.397-.051 1.181-.641 1.907-1.669 1.041-1.476 1.494-3.139 1.211-4.45-.059-.27.112-.536.383-.594.271-.062.537.113.594.383.342 1.58-.171 3.538-1.371 5.237-.657.931-1.685 1.967-2.597 2.085-.022.004-.044.005-.065.005z"/></g><path d="m43.167 23.249c-.135 0-.265-.016-.39-.048-.111-.028-.209-.094-.277-.186-.184-.245-.396-.448-.63-.604-.062-.041-.114-.096-.153-.159-.106-.177-.224-.386-.355-.621-1.247-2.223-3.842-6.849-10.917-7.635-8.206-.911-9.592-.129-9.647-.096l-1.144 1.166c-.184.186-.475.198-.674.033-.651-.536-.98-1.075-.98-1.599 0-1.056 0-4.268 3.223-6.416.114-.076.252-.147.424-.222 1.159-2.149 4.7-6.632 13.896-5.86 11.943.995 14.457 8.97 14.457 10.498 0 3.248-1.604 4.587-3.123 5.127.058.291.097.562.121.828.002 2.169-.815 4.073-2.184 5.138-.549.428-1.13.656-1.647.656zm.001-1h.002c.243 0 .606-.115 1.03-.445.87-.677 1.8-2.163 1.8-4.304-.029-.307-.093-.67-.196-1.099-.063-.265.097-.532.36-.601 1.908-.498 2.836-1.905 2.836-4.3 0-.084-1.223-8.476-13.542-9.502-8.512-.703-11.804 3.135-13.009 5.487-.057.11-.151.195-.267.239-.184.07-.32.135-.406.191-2.776 1.853-2.776 4.662-2.776 5.585 0 .057.025.231.284.518l.86-.869c.3-.283 1.894-1.093 10.411-.146 7.585.843 10.35 5.771 11.678 8.14.104.186.199.354.286.503.237.168.454.37.649.603z" fill="#785ae6"/><path d="m56.5 63h-43c-.276 0-.5-.224-.5-.5v-8c0-3.606 0-10.318 4.713-11.872 1.357-.447 2.677-.791 3.841-1.094 1.459-.38 3.273-.852 3.454-1.205-.031-.279-.232-.668-.445-1.08-.365-.705-.778-1.504-.606-2.447.232-1.279 1.036-2.802 3.543-2.802.25 0 .578.009.969.019 2.732.077 8.422.222 11.76-1.939.23-.147.541-.086.691.148.149.231.084.541-.148.691-3.598 2.331-9.497 2.176-12.329 2.1-.381-.01-.7-.019-.943-.019-1.5 0-2.313.63-2.56 1.981-.111.607.19 1.19.51 1.809.25.482.508.98.548 1.504.085 1.095-1.525 1.514-4.192 2.208-1.149.3-2.453.639-3.78 1.075-3.714 1.225-4.026 6.28-4.026 10.923v7.5h42v-7.5c0-5.048-1.379-8.216-4.917-11.302-.756-.658-2.165-1.288-3.657-1.955-1.568-.7-3.189-1.425-4.241-2.28-1.453-1.182-1.003-2.478-.605-3.621.261-.751.53-1.528.425-2.417-.237-1.98-4.442-1.926-4.491-1.925-.245-.012-.505-.211-.513-.487-.007-.275.211-.505.487-.513.209.005 5.162-.102 5.509 2.806.134 1.118-.188 2.046-.473 2.864-.429 1.232-.581 1.808.292 2.518.949.771 2.509 1.469 4.018 2.143 1.562.698 3.038 1.357 3.906 2.114 3.736 3.257 5.26 6.75 5.26 12.055v8c0 .276-.224.5-.5.5z" fill="#785ae6"/></svg>