<svg enable-background="new 0 0 64 64" height="512" viewBox="0 0 64 64" width="512" xmlns="http://www.w3.org/2000/svg"><path d="m29.445 34.5v1.305l-5.945 3.695s-2 1-6 3-4 8-4 12 0 8 0 8h43s0-3 0-8 0-9-4-12-9-5-9-5l-5-3.588v-5.412z" fill="#e678a0"/><path d="m52.5 42.5c-4-3-9-5-9-5l-5-3.588v2l5 3.588s5 2 9 5 4 7 4 12c0-.626 0-1.29 0-2 0-5 0-9-4-12z" fill="#fa8cb4"/><path d="m21.5 40.5c-.978.489-2.296 1.148-4 2-4 2-4 8-4 12v2c0-4 0-10 4-12 1.704-.852 3.022-1.511 4-2z" fill="#fa8cb4"/><path d="m13.5 62.5h43s0-.708 0-2h-43z" fill="#d2648c"/><path d="m42.312 41.781c-1.834 2.152-5.431 3.719-9.812 3.719-4.293 0-6.33-1.505-7.032-3.417l-1.968 3.417v17h19z" fill="#f0f0e6"/><path d="m23.5 60.5v2h19l-.018-2z" fill="#dcdcd2"/><path d="m38.5 31.962-8.016 1.85-2.039.688v1.305l-2.945 2.452c-1 3.243 0 7.243 7 7.243s12-4 11-8l-5-3.588z" fill="#ffb4be"/><path d="m32.5 46.5c-5.352 0-7.288-2.215-7.97-4.072-.19-.519.075-1.093.594-1.283s1.093.075 1.283.594c.838 2.282 3.776 2.762 6.093 2.762 3.813 0 7.281-1.29 9.05-3.367.358-.422.99-.472 1.41-.113.42.358.471.99.113 1.41-2.171 2.548-6.124 4.069-10.573 4.069z" fill="#96bef0"/><path d="m29.445 34.5v8h9.055v-15.76z" fill="#ffb4be"/><path d="m46.5 63c-.276 0-.5-.224-.5-.5v-12c0-.276.224-.5.5-.5s.5.224.5.5v12c0 .276-.224.5-.5.5z" fill="#c85a82"/><path d="m17.5 63c-.276 0-.5-.224-.5-.5v-12c0-.276.224-.5.5-.5s.5.224.5.5v12c0 .276-.224.5-.5.5z" fill="#c85a82"/><path d="m38.5 34c-.276 0-.5-.224-.5-.5v-5c0-.276.224-.5.5-.5s.5.224.5.5v5c0 .276-.224.5-.5.5z" fill="#785ae6"/><path d="m56.5 63h-43c-.276 0-.5-.224-.5-.5v-8c0-4.105 0-10.309 4.276-12.447l3.856-1.928c.247-.124.547-.022.671.224.124.247.023.548-.224.671l-3.856 1.928c-3.723 1.861-3.723 7.693-3.723 11.552v7.5h42v-7.5c0-4.889 0-8.75-3.8-11.6-2.212-1.659-4.74-3.009-6.471-3.848-.249-.121-.352-.42-.231-.668.121-.249.42-.354.668-.232 1.771.859 4.358 2.241 6.634 3.947 4.2 3.151 4.2 7.437 4.2 12.401v8c0 .276-.224.5-.5.5z" fill="#785ae6"/><path d="m38.5 33.5s4 4 4 11-4.822 18-4.822 18h4.822s4-3 6-9l-4-4s2 0 6-2c0 0-4-7-5-10 0 0-3-4-7-4z" fill="#e678a0"/><path d="m44.534 60.5h-6.035c-.488 1.24-.821 2-.821 2h4.822s.888-.673 2.034-2z" fill="#d2648c"/><path d="m46.5 40.5c.672 2.016 0 0-1-3 0 0-3-4-7-4 0 0 .785.788 1.66 2.271 3.376 1.032 6.34 4.729 6.34 4.729z" fill="#fa8cb4"/><path d="m42.5 63h-4.821c-.169 0-.326-.085-.418-.227s-.107-.319-.04-.475c.048-.108 4.779-10.985 4.779-17.798 0-6.693-3.815-10.608-3.854-10.646-.143-.144-.185-.358-.107-.545s.259-.309.461-.309c4.202 0 7.271 4.028 7.4 4.2.032.043.058.091.074.142.973 2.919 4.92 9.841 4.96 9.91.068.119.084.262.044.393-.04.132-.132.241-.255.303-2.429 1.214-4.148 1.71-5.156 1.913l3.286 3.286c.134.134.181.332.121.512-2.026 6.078-6.006 9.115-6.174 9.242-.087.064-.192.099-.3.099zm-4.065-1h3.89c.669-.552 3.851-3.369 5.602-8.367l-3.78-3.779c-.143-.143-.186-.358-.108-.545.076-.187.259-.309.461-.309.016 0 1.805-.038 5.303-1.716-.906-1.608-3.85-6.916-4.75-9.543-.341-.428-2.508-3.018-5.379-3.617 1.212 1.616 3.326 5.181 3.326 10.376 0 6.083-3.499 14.942-4.565 17.5z" fill="#c85a82"/><path d="m29.445 34.805s-3.945 2.695-4.945 12.695 1.361 15 1.361 15h-4.361s-3-3.366-4-10.183l4-2.817s-2 0-4-2c0 0 2.838-6.838 6-10 2-2 5.945-2.695 5.945-2.695z" fill="#e678a0"/><path d="m20.164 60.5c.745 1.333 1.336 2 1.336 2h4.361s-.314-.672-.664-2z" fill="#d2648c"/><path d="m27.252 37.58c1.149-2.052 2.193-2.775 2.193-2.775s-3.945.695-5.945 2.695c-.744.744-1.468 1.695-2.144 2.709 1.769-.987 4.17-1.971 5.896-2.629z" fill="#fa8cb4"/><path d="m25.861 63h-4.361c-.143 0-.278-.061-.373-.167-.127-.143-3.111-3.558-4.122-10.443-.027-.187.053-.372.207-.481l3.032-2.135c-.829-.253-1.966-.788-3.097-1.92-.143-.143-.186-.358-.108-.545.118-.283 2.913-6.967 6.108-10.162 2.087-2.088 6.044-2.804 6.211-2.833.235-.033.461.087.55.304s.014.467-.179.6c-.038.026-3.772 2.744-4.731 12.333-.975 9.749 1.292 14.688 1.315 14.736.073.155.062.337-.03.481s-.251.232-.422.232zm-4.124-1h3.388c-.611-1.723-1.923-6.544-1.123-14.55.656-6.556 2.558-10.051 3.861-11.729-1.259.39-2.947 1.069-4.01 2.133-2.675 2.675-5.162 8.159-5.757 9.525 1.729 1.584 3.389 1.621 3.406 1.621.217.002.409.145.474.352s-.011.433-.188.558l-3.747 2.639c.877 5.553 3.12 8.714 3.696 9.451z" fill="#c85a82"/><path d="m38.5 54c-.128 0-.256-.049-.354-.146l-1.646-1.647-1.646 1.646c-.195.195-.512.195-.707 0l-1.647-1.646-1.646 1.646c-.195.195-.512.195-.707 0l-1.647-1.646-1.646 1.646c-.195.195-.512.195-.707 0s-.195-.512 0-.707l2-2c.195-.195.512-.195.707 0l1.646 1.646 1.646-1.646c.195-.195.512-.195.707 0l1.646 1.646 1.646-1.646c.195-.195.512-.195.707 0l2 2c.195.195.195.512 0 .707-.096.098-.224.147-.352.147z" fill="#96bef0"/><path d="m38.5 58c-.128 0-.256-.049-.354-.146l-1.646-1.647-1.646 1.646c-.195.195-.512.195-.707 0l-1.647-1.646-1.646 1.646c-.195.195-.512.195-.707 0l-1.647-1.646-1.646 1.646c-.195.195-.512.195-.707 0s-.195-.512 0-.707l2-2c.195-.195.512-.195.707 0l1.646 1.646 1.646-1.646c.195-.195.512-.195.707 0l1.646 1.646 1.646-1.646c.195-.195.512-.195.707 0l2 2c.195.195.195.512 0 .707-.096.098-.224.147-.352.147z" fill="#96bef0"/><path d="m56.5 63h-43c-.276 0-.5-.224-.5-.5v-8c0-4.105 0-10.309 4.276-12.447l3.383-1.692c.865-1.347 1.701-2.428 2.487-3.214 2.087-2.088 6.044-2.804 6.211-2.833.271-.055.531.134.579.405s-.133.531-.405.579c-.038.007-3.815.693-5.678 2.556-.756.757-1.572 1.82-2.425 3.161-.049.076-.117.138-.198.179l-3.507 1.754c-3.723 1.861-3.723 7.693-3.723 11.552v7.5h42v-7.5c0-4.889 0-8.75-3.8-11.6-2.221-1.666-4.76-3.019-6.499-3.86-.11-.054-.196-.145-.243-.257-.158-.377-.298-.731-.405-1.042-.386-.484-3.114-3.741-6.553-3.741-.276 0-.5-.224-.5-.5s.224-.5.5-.5c4.202 0 7.271 4.028 7.4 4.2.032.043.058.091.075.143.087.263.203.562.334.88 1.771.866 4.279 2.218 6.491 3.877 4.2 3.15 4.2 7.436 4.2 12.4v8c0 .276-.224.5-.5.5z" fill="#785ae6"/><path d="m29.5 42c-.276 0-.5-.224-.5-.5v-7c0-.276.224-.5.5-.5s.5.224.5.5v7c0 .276-.224.5-.5.5z" fill="#785ae6"/><path d="m44.5 17c0 8.5-1 7.5-1.791 9.453-.29.717-.209 1.445-.209 2.047 0 3-1.387 2.911-4.193 2.911v-13.911z" fill="#8278b4"/><path d="m38.5 31.923c-.275 0-.499-.223-.5-.498-.001-.276.222-.501.498-.502l.236-.001c1.237-.004 2.131-.007 2.631-.304.326-.193.658-.597.652-2.121l-.006-.313c-.015-.549-.033-1.232.243-1.922.103-.256.395-.383.65-.278.256.103.381.394.279.649-.199.498-.186 1.02-.172 1.524l.006.336c.006 1.613-.334 2.506-1.141 2.985-.734.436-1.743.438-3.138.443l-.236.001c-.001.001-.002.001-.002.001z" fill="#785ae6"/><path d="m44.5 17.5h7s1-3-7-3z" fill="#aad2ff"/><path d="m52.123 17.353c.985-.598-.683-2.853-7.623-2.853v1c4.636 0 6.91 1.006 7.623 1.853z" fill="#bee6ff"/><path d="m19.5 17.5s-1 1.586-1 3c0 1 1 0 1 0s0 3 2 4v-7z" fill="#8278b4"/><path d="m19.5 17.5s-.583.93-.858 2h2.858v-2z" fill="#826ec8"/><path d="m44.5 17-6.193.5v2l6.138.495c.034-.844.055-1.821.055-2.995z" fill="#826ec8"/><path d="m21.5 17.5v11c0 3.314 2.686 6 6 6h5c3.866 0 7-3.134 7-7v-1h2c1.657 0 3-1.343 3-3v-2c0-1.657-1.343-3-3-3h-2l-3-1z" fill="#ffc8d2"/><path d="m30.5 31h-5c-.276 0-.5-.224-.5-.5s.224-.5.5-.5h5c.403 0 .494-.275.5-.506.007-.271.229-.491.5-.491.002 0 .004 0 .006.001.274.003.494.223.494.496 0 .603-.399 1.5-1.5 1.5z" fill="#785ae6"/><path d="m41.5 18.5h-2l-3-1h-15v2h15l3 1h2c1.657 0 3 1.343 3 3v-2c0-1.657-1.343-3-3-3z" fill="#ffb4be"/><path d="m23.5 25c-.276 0-.5-.224-.5-.5v-3c0-.276.224-.5.5-.5s.5.224.5.5v3c0 .276-.224.5-.5.5z" fill="#785ae6"/><path d="m35.538 17.5s.962 2 .962 4 0 3 1 3 3.008-3 3.008-7z" fill="#8278b4"/><path d="m40.336 19.5c.107-.629.172-1.298.172-2h-4.97s.406.855.691 2z" fill="#826ec8"/><g fill="#785ae6"><path d="m44.411 20.939c-.008 0-.016 0-.024-.001-.276-.013-.489-.247-.476-.522.045-.955.065-2.108.06-3.427-.001-.276.222-.501.498-.502h.002c.275 0 .499.223.5.498.005 1.354-.015 2.491-.061 3.478-.013.267-.234.476-.499.476z"/><path d="m39.5 30.62c-.276 0-.5-.224-.5-.5v-3.62c0-.276.224-.5.5-.5h2c1.378 0 2.5-1.121 2.5-2.5v-2c0-1.379-1.122-2.5-2.5-2.5h-1c-.276 0-.5-.224-.5-.5s.224-.5.5-.5h1c1.93 0 3.5 1.57 3.5 3.5v2c0 1.93-1.57 3.5-3.5 3.5h-1.5v3.12c0 .276-.224.5-.5.5z"/><path d="m32.5 35h-5c-3.584 0-6.5-2.916-6.5-6.5v-5c0-.276.224-.5.5-.5s.5.224.5.5v5c0 3.032 2.467 5.5 5.5 5.5h5c.276 0 .5.224.5.5s-.224.5-.5.5z"/><path d="m25.5 28c-1.153 0-2.5-.393-2.5-1.5 0-1.064 1.71-4.538 2.053-5.224.124-.247.423-.349.671-.224.247.124.347.424.224.671-.809 1.618-1.948 4.169-1.948 4.777 0 .301.903.5 1.5.5.276 0 .5.224.5.5s-.224.5-.5.5z"/><path d="m30.5 25c-.276 0-.5-.224-.5-.5v-3c0-.276.224-.5.5-.5s.5.224.5.5v3c0 .276-.224.5-.5.5z"/></g><path d="m34.5 3.5h-5c-5.523 0-10 4.477-10 10v4h25v-4c0-5.523-4.477-10-10-10z" fill="#aad2ff"/><path d="m34.5 3.5h-5c-5.523 0-10 4.477-10 10v2c0-5.523 4.477-10 10-10h5c5.523 0 10 4.477 10 10v-2c0-5.523-4.477-10-10-10z" fill="#bee6ff"/><path d="m44.5 18.021h-25c-.288 0-.521-.233-.521-.521v-4c0-5.802 4.72-10.521 10.521-10.521h5c5.801 0 10.521 4.72 10.521 10.521v4c0 .288-.233.521-.521.521zm-24.479-1.042h23.957v-3.479c0-5.227-4.252-9.479-9.479-9.479h-5c-5.227 0-9.479 4.252-9.479 9.479v3.479z" fill="#785ae6"/><path d="m29.5 8.5h-1c-2.761 0-5 2.239-5 5v1h11v-1c0-2.761-2.239-5-5-5z" fill="#8278b4"/><g fill="#785ae6"><path d="m34.5 15.021h-11c-.288 0-.521-.233-.521-.521v-1c0-3.045 2.477-5.521 5.521-5.521h1c3.044 0 5.521 2.477 5.521 5.521v1c0 .288-.233.521-.521.521zm-10.479-1.042h9.957v-.479c0-2.47-2.009-4.479-4.479-4.479h-1c-2.47 0-4.479 2.009-4.479 4.479v.479z"/><path d="m36 18.021h-1.5c-.288 0-.521-.233-.521-.521s.233-.521.521-.521h1.5c.54 0 .979-.438.979-.979s-.439-.979-.979-.979h-1.5c-.288 0-.521-.233-.521-.521s.233-.521.521-.521h1.5c1.115 0 2.021.907 2.021 2.021s-.906 2.021-2.021 2.021z"/><path d="m51.5 18.021h-7c-.288 0-.521-.233-.521-.521s.233-.521.521-.521h7c.247 0 .357-.061.376-.082-.01 0-.044-.111-.203-.274-.75-.773-3.028-1.601-7.173-1.601-.288 0-.521-.233-.521-.521s.233-.521.521-.521c2.597 0 4.773.319 6.293.922 1.344.533 2.115 1.271 2.115 2.022 0 .546-.435 1.097-1.408 1.097z"/><path d="m21.5 25.021c-.078 0-.158-.018-.232-.056-1.533-.766-2.039-2.482-2.206-3.552-.193.065-.396.078-.591-.005-.224-.093-.491-.325-.491-.909 0-1.547 1.037-3.208 1.081-3.278.154-.244.477-.313.718-.163.244.153.317.476.164.719-.009.014-.79 1.27-.906 2.441.035-.029.068-.06.096-.087.149-.148.375-.191.567-.113.195.08.322.271.323.48 0 .027.028 2.693 1.711 3.535.258.128.362.441.233.699-.092.184-.276.289-.467.289z"/><path d="m29.5 20c-.184 0-.36-.102-.448-.276-.123-.247-.023-.548.224-.671.086-.043 2.13-1.053 4.224-1.053.276 0 .5.224.5.5s-.224.5-.5.5c-1.854 0-3.758.938-3.777.947-.071.036-.147.053-.223.053z"/><path d="m24.5 20c-.127 0-.253-.048-.351-.144-.036-.035-.903-.856-2.649-.856-.276 0-.5-.224-.5-.5s.224-.5.5-.5c2.182 0 3.307 1.1 3.354 1.146.195.195.195.512 0 .707-.098.098-.226.147-.354.147z"/></g></svg>