<svg enable-background="new 0 0 64 64" height="512" viewBox="0 0 64 64" width="512" xmlns="http://www.w3.org/2000/svg"><path d="m43.5 37.5s5 2 9 5 4 7 4 12 0 8 0 8h-43s0-4 0-8 0-10 4-12 6-3 6-3z" fill="#968cd2"/><path d="m52.5 42.5c-4-3-9-5-9-5l-20 2s-2 1-6 3-4 8-4 12v2c0-4 0-10 4-12s6-3 6-3l20-2s5 2 9 5 4 7 4 12c0-.626 0-1.29 0-2 0-5 0-9-4-12z" fill="#a99be0"/><path d="m13.5 62.5h43s0-.708 0-2h-43z" fill="#8d7bd4"/><path d="m29.5 38.5-4 2 2.008 7.09 3.992.91 5.027-1.676 7.973-8.324-5-1z" fill="#ffb4be"/><path d="m31.5 47.5c-1.122 0-2.231-.313-3-.59v15.59h6v-14-1.59c-.769.277-1.878.59-3 .59z" fill="#b4aaf0"/><path d="m29.445 34.5v9h10.055v-16.76z" fill="#ffb4be"/><path d="m39.5 44c-.276 0-.5-.224-.5-.5v-11.76c0-.276.224-.5.5-.5s.5.224.5.5v11.76c0 .276-.224.5-.5.5z" fill="#785ae6"/><path d="m46.5 63c-.276 0-.5-.224-.5-.5v-12c0-.276.224-.5.5-.5s.5.224.5.5v12c0 .276-.224.5-.5.5z" fill="#8d7bd4"/><path d="m17.5 63c-.276 0-.5-.224-.5-.5v-12c0-.276.224-.5.5-.5s.5.224.5.5v12c0 .276-.224.5-.5.5z" fill="#8d7bd4"/><path d="m34.5 63c-.276 0-.5-.224-.5-.5v-14c0-.276.224-.5.5-.5s.5.224.5.5v14c0 .276-.224.5-.5.5z" fill="#785ae6"/><path d="m28.5 63c-.276 0-.5-.224-.5-.5v-14c0-.276.224-.5.5-.5s.5.224.5.5v14c0 .276-.224.5-.5.5z" fill="#785ae6"/><path d="m34.5 48.5s1-2 6-3 10-2 9-6-6-7-10-7v8.236s-5 2.764-5 7.764z" fill="#968cd2"/><path d="m49.476 41.424c.186-.552.208-1.187.024-1.924-1-4-6-7-10-7v2c3.974 0 8.932 2.963 9.976 6.924z" fill="#a99be0"/><path d="m29.5 38.5s-3 2-2 5 1 5 1 5c-3-4-6-5-5-9s5-7 6-7z" fill="#968cd2"/><path d="m28.5 49c-.154 0-.304-.072-.4-.2-.868-1.157-1.744-2.066-2.517-2.868-1.866-1.937-3.34-3.466-2.568-6.553 1.027-4.107 5.137-7.379 6.429-7.379.276 0 .5.224.5.5v6c0 .165-.082.32-.218.413-.107.073-2.618 1.832-1.752 4.429 1.014 3.042 1.026 5.073 1.026 5.158 0 .215-.138.406-.342.474-.052.018-.105.026-.158.026zm.444-15.811c-1.253.683-4.139 3.151-4.959 6.432-.637 2.549.476 3.704 2.319 5.617.478.496.994 1.032 1.527 1.644-.134-.827-.375-1.932-.805-3.223-.831-2.491.785-4.536 1.918-5.413zm.5 5.311h.01z" fill="#785ae6"/><path d="m39.5 41.236c-.184 0-.36-.101-.448-.276-.124-.247-.023-.547.224-.671 1.956-.978 3.941-2.202 3.961-2.214.234-.146.542-.073.688.163.145.235.072.543-.163.688-.02.013-2.042 1.26-4.039 2.258-.071.035-.147.052-.223.052z" fill="#785ae6"/><path d="m56.5 63h-43c-.276 0-.5-.224-.5-.5v-8c0-4.105 0-10.309 4.276-12.447l6-3c.247-.124.546-.023.671.224.124.247.023.547-.224.671l-6 3c-3.723 1.861-3.723 7.693-3.723 11.552v7.5h42v-7.5c0-4.889 0-8.75-3.8-11.6-.837-.628-1.789-1.262-2.829-1.886-.237-.142-.313-.449-.171-.686.142-.236.448-.313.686-.171 1.069.641 2.049 1.294 2.914 1.943 4.2 3.15 4.2 7.437 4.2 12.4v8c0 .276-.224.5-.5.5z" fill="#785ae6"/><path d="m37.5 51c-.827 0-1.5-.673-1.5-1.5s.673-1.5 1.5-1.5 1.5.673 1.5 1.5-.673 1.5-1.5 1.5zm0-2c-.276 0-.5.224-.5.5s.224.5.5.5.5-.224.5-.5-.224-.5-.5-.5z" fill="#8d7bd4"/><path d="m25.5 51c-.827 0-1.5-.673-1.5-1.5s.673-1.5 1.5-1.5 1.5.673 1.5 1.5-.673 1.5-1.5 1.5zm0-2c-.276 0-.5.224-.5.5s.224.5.5.5.5-.224.5-.5-.224-.5-.5-.5z" fill="#8d7bd4"/><path d="m37.5 59c-.276 0-.5-.224-.5-.5v-9c0-.276.224-.5.5-.5s.5.224.5.5v9c0 .276-.224.5-.5.5z" fill="#f0f0e6"/><circle cx="37.5" cy="59" fill="#f0f0e6" r="1"/><path d="m25.5 59c-.276 0-.5-.224-.5-.5v-9c0-.276.224-.5.5-.5s.5.224.5.5v9c0 .276-.224.5-.5.5z" fill="#f0f0e6"/><circle cx="25.5" cy="59" fill="#f0f0e6" r="1"/><path d="m34.5 48.996c-.04 0-.08-.005-.12-.015-.223-.056-.38-.252-.38-.481 0-4.622 3.932-7.383 5-8.048v-13.952c0-.276.224-.5.5-.5s.5.224.5.5v5.515c4.008.232 8.942 3.191 9.985 7.364.277 1.108.151 2.092-.375 2.924-1.366 2.158-5.08 2.901-9.011 3.687-4.627.925-5.645 2.722-5.654 2.74-.091.166-.263.266-.445.266zm5.5-15.979v7.72c0 .182-.099.349-.258.438-.042.023-3.815 2.163-4.6 5.943.91-.7 2.516-1.558 5.26-2.107 3.553-.71 7.226-1.445 8.362-3.241.38-.6.462-1.303.251-2.147-.906-3.623-5.382-6.37-9.015-6.606z" fill="#785ae6"/><path d="m29.444 44c-.276 0-.5-.224-.5-.5v-9c0-.276.224-.5.5-.5s.5.224.5.5v9c0 .276-.223.5-.5.5z" fill="#785ae6"/><path d="m44.5 17.5h7s1-3-7-3z" fill="#826ec8"/><path d="m52.123 17.353c.985-.598-.683-2.853-7.623-2.853v1c4.636 0 6.91 1.006 7.623 1.853z" fill="#8d7bd4"/><path d="m19.5 17.5s-1 1.586-1 3c0 1 1 0 1 0s0 3 2 4v-7z" fill="#e678a0"/><path d="m19.5 17.5s-.583.93-.858 2h2.858v-2z" fill="#d2648c"/><path d="m44.5 17c0 8.5-1 7.5-1.791 9.453-.29.717-.209 1.445-.209 2.047 0 3-1.387 2.911-4.193 2.911v-13.911z" fill="#e678a0"/><path d="m38.771 31.911c-.075 0-.151 0-.229 0h-.236c-.276 0-.5-.224-.5-.5v-13.911c0-.261.2-.478.46-.499l6.193-.5c.136-.009.276.037.379.131.103.095.162.228.162.368 0 6.704-.637 7.674-1.312 8.701-.182.277-.354.538-.516.939-.201.496-.189 1.018-.177 1.523l.005.337c0 1.59-.383 2.512-1.244 2.987-.729.403-1.684.424-2.985.424zm.036-13.95v12.95c1.096 0 1.961-.021 2.466-.299.359-.199.727-.605.727-2.112l-.005-.314c-.012-.549-.028-1.233.25-1.92.199-.493.416-.822.607-1.113.573-.873 1.115-1.698 1.146-7.61z" fill="#785ae6"/><path d="m44.5 17-6.193.5v2l6.138.495c.034-.844.055-1.821.055-2.995z" fill="#d2648c"/><path d="m21.5 17.5v11c0 3.314 2.686 6 6 6h5c3.866 0 7-3.134 7-7v-1h2c1.657 0 3-1.343 3-3v-2c0-1.657-1.343-3-3-3h-2l-3-1z" fill="#ffc8d2"/><path d="m38.304 31.914c-.096 0-.193-.028-.279-.085-.229-.155-.289-.465-.135-.694.726-1.076 1.11-2.333 1.11-3.635v-1c0-.276.224-.5.5-.5s.5.224.5.5v1c0 1.502-.443 2.952-1.281 4.193-.096.143-.254.221-.415.221z" fill="#785ae6"/><path d="m41.5 18.5h-2l-3-1h-15v2h15l3 1h2c1.657 0 3 1.343 3 3v-2c0-1.657-1.343-3-3-3z" fill="#ffb4be"/><g fill="#785ae6"><path d="m23.5 25c-.276 0-.5-.224-.5-.5v-3c0-.276.224-.5.5-.5s.5.224.5.5v3c0 .276-.224.5-.5.5z"/><path d="m30.5 31h-5c-.276 0-.5-.224-.5-.5s.224-.5.5-.5h5c.403 0 .494-.275.5-.506.007-.273.19-.493.506-.491.274.004.494.224.494.497 0 .603-.399 1.5-1.5 1.5z"/><path d="m25.5 28c-1.153 0-2.5-.393-2.5-1.5 0-1.064 1.71-4.538 2.053-5.224.124-.247.423-.346.671-.224.247.124.347.424.224.671-.809 1.618-1.948 4.169-1.948 4.777 0 .301.903.5 1.5.5.276 0 .5.224.5.5s-.224.5-.5.5z"/><path d="m30.5 25c-.276 0-.5-.224-.5-.5v-3c0-.276.224-.5.5-.5s.5.224.5.5v3c0 .276-.224.5-.5.5z"/><path d="m33.5 21c-.128 0-.256-.049-.354-.146-2.588-2.586-4.228-1.062-4.296-.997-.198.191-.514.188-.706-.008s-.192-.508.001-.702c.023-.023 2.391-2.316 5.707 1 .195.195.195.512 0 .707-.096.097-.224.146-.352.146z"/><path d="m24.5 20c-.127 0-.255-.048-.353-.145-.116-.114-1.127-1.032-2.342-.082-.22.169-.533.131-.702-.086-.17-.218-.131-.532.086-.702 1.555-1.216 3.077-.426 3.664.162.195.195.195.512 0 .707-.097.097-.225.146-.353.146z"/></g><path d="m35.538 17.5s.962 2 .962 4 0 3 1 3 3.008-3 3.008-7z" fill="#e678a0"/><path d="m40.336 19.5c.107-.629.172-1.298.172-2h-4.97s.406.855.691 2z" fill="#d2648c"/><path d="m44.411 20.94c-.008 0-.016 0-.024 0-.276-.013-.489-.247-.476-.523.045-.956.065-2.108.06-3.427-.001-.276.222-.501.498-.502h.002c.275 0 .499.223.5.498.005 1.354-.015 2.492-.061 3.478-.013.267-.234.476-.499.476z" fill="#785ae6"/><path d="m39.5 28c-.276 0-.5-.224-.5-.5v-1c0-.276.224-.5.5-.5h2c1.378 0 2.5-1.122 2.5-2.5v-2c0-1.378-1.122-2.5-2.5-2.5h-1c-.276 0-.5-.224-.5-.5s.224-.5.5-.5h1c1.93 0 3.5 1.57 3.5 3.5v2c0 1.93-1.57 3.5-3.5 3.5h-1.5v.5c0 .276-.224.5-.5.5z" fill="#785ae6"/><path d="m32.5 35h-5c-3.584 0-6.5-2.916-6.5-6.5v-5c0-.276.224-.5.5-.5s.5.224.5.5v5c0 3.033 2.467 5.5 5.5 5.5h5c.276 0 .5.224.5.5s-.224.5-.5.5z" fill="#785ae6"/><path d="m34.5 3.5h-5c-5.523 0-10 4.477-10 10v4h25v-4c0-5.523-4.477-10-10-10z" fill="#826ec8"/><path d="m34.5 3.5h-5c-5.523 0-10 4.477-10 10v2c0-5.523 4.477-10 10-10h5c5.523 0 10 4.477 10 10v-2c0-5.523-4.477-10-10-10z" fill="#8d7bd4"/><path d="m44.5 18.021h-25c-.288 0-.521-.233-.521-.521v-4c0-5.801 4.72-10.521 10.521-10.521h5c5.801 0 10.521 4.72 10.521 10.521v4c0 .288-.233.521-.521.521zm-24.479-1.042h23.957v-3.479c0-5.227-4.252-9.479-9.479-9.479h-5c-5.227 0-9.479 4.252-9.479 9.479v3.479z" fill="#785ae6"/><path d="m29.5 8.5h-1c-2.761 0-5 2.239-5 5v1h11v-1c0-2.761-2.239-5-5-5z" fill="#e678a0"/><g fill="#785ae6"><path d="m34.5 15.021h-11c-.288 0-.521-.233-.521-.521v-1c0-3.044 2.477-5.521 5.521-5.521h1c3.044 0 5.521 2.477 5.521 5.521v1c0 .288-.233.521-.521.521zm-10.479-1.042h9.957v-.479c0-2.47-2.009-4.479-4.479-4.479h-1c-2.47 0-4.479 2.009-4.479 4.479v.479z"/><path d="m36 18.021h-1.5c-.288 0-.521-.233-.521-.521s.233-.521.521-.521h1.5c.54 0 .979-.439.979-.979s-.439-.979-.979-.979h-1.5c-.288 0-.521-.233-.521-.521s.233-.521.521-.521h1.5c1.115 0 2.021.907 2.021 2.021s-.906 2.021-2.021 2.021z"/><path d="m51.5 18.021h-7c-.288 0-.521-.233-.521-.521s.233-.521.521-.521h7c.247 0 .357-.061.376-.082-.01 0-.044-.111-.203-.274-.75-.774-3.028-1.601-7.173-1.601-.288 0-.521-.233-.521-.521s.233-.521.521-.521c2.597 0 4.773.319 6.293.922 1.344.533 2.115 1.271 2.115 2.023 0 .545-.435 1.096-1.408 1.096z"/><path d="m21.5 25.021c-.078 0-.158-.018-.232-.055-1.533-.767-2.039-2.483-2.206-3.552-.193.064-.396.076-.591-.005-.224-.093-.491-.326-.491-.909 0-1.547 1.037-3.208 1.081-3.278.154-.244.477-.315.718-.163.244.153.317.475.164.719-.009.013-.79 1.269-.906 2.441.035-.03.068-.06.096-.088.149-.149.375-.193.567-.113.195.08.322.27.323.48 0 .027.028 2.693 1.711 3.535.258.129.362.442.233.699-.092.184-.276.289-.467.289z"/></g></svg>