<svg enable-background="new 0 0 64 64" height="512" viewBox="0 0 64 64" width="512" xmlns="http://www.w3.org/2000/svg"><path d="m43.5 37.5s5 2 9 5 4 7 4 12 0 8 0 8h-43s0-4 0-8 0-10 4-12 6-3 6-3z" fill="#968cd2"/><path d="m52.5 42.5c-4-3-9-5-9-5l-20 2s-2 1-6 3-4 8-4 12v2c0-4 0-10 4-12s6-3 6-3l20-2s5 2 9 5 4 7 4 12c0-.626 0-1.29 0-2 0-5 0-9-4-12z" fill="#a99be0"/><path d="m13.5 62.5h43s0-.708 0-2h-43z" fill="#8d7bd4"/><path d="m29.5 38.5-4 2 2.008 7.09 3.992.91 5.027-1.676 7.973-8.324-5-1z" fill="#c88c5a"/><path d="m31.5 47.5c-1.122 0-2.231-.313-3-.59v15.59h6v-14-1.59c-.769.277-1.878.59-3 .59z" fill="#b4aaf0"/><path d="m29.445 34.5v9h10.055v-16.76z" fill="#c88c5a"/><path d="m39.5 44c-.276 0-.5-.224-.5-.5v-11.76c0-.276.224-.5.5-.5s.5.224.5.5v11.76c0 .276-.224.5-.5.5z" fill="#785ae6"/><path d="m46.5 63c-.276 0-.5-.224-.5-.5v-12c0-.276.224-.5.5-.5s.5.224.5.5v12c0 .276-.224.5-.5.5z" fill="#8d7bd4"/><path d="m17.5 63c-.276 0-.5-.224-.5-.5v-12c0-.276.224-.5.5-.5s.5.224.5.5v12c0 .276-.224.5-.5.5z" fill="#8d7bd4"/><path d="m34.5 63c-.276 0-.5-.224-.5-.5v-14c0-.276.224-.5.5-.5s.5.224.5.5v14c0 .276-.224.5-.5.5z" fill="#785ae6"/><path d="m28.5 63c-.276 0-.5-.224-.5-.5v-14c0-.276.224-.5.5-.5s.5.224.5.5v14c0 .276-.224.5-.5.5z" fill="#785ae6"/><path d="m34.5 48.5s1-2 6-3 10-2 9-6-6-7-10-7v8.236s-5 2.764-5 7.764z" fill="#968cd2"/><path d="m49.476 41.424c.186-.552.208-1.187.024-1.924-1-4-6-7-10-7v2c3.974 0 8.932 2.963 9.976 6.924z" fill="#a99be0"/><path d="m29.5 38.5s-3 2-2 5 1 5 1 5c-3-4-6-5-5-9s5-7 6-7z" fill="#968cd2"/><path d="m28.5 49c-.154 0-.304-.072-.4-.2-.867-1.157-1.743-2.066-2.517-2.868-1.866-1.937-3.34-3.466-2.568-6.553 1.027-4.107 5.137-7.379 6.429-7.379.276 0 .5.224.5.5v6c0 .165-.082.32-.218.413-.107.073-2.618 1.832-1.752 4.429 1.014 3.042 1.026 5.073 1.026 5.158 0 .215-.138.406-.342.474-.052.018-.105.026-.158.026zm.444-15.811c-1.253.683-4.139 3.151-4.959 6.432-.638 2.549.475 3.704 2.318 5.617.478.496.994 1.032 1.527 1.644-.135-.827-.375-1.932-.806-3.223-.83-2.491.785-4.536 1.919-5.413v-5.057zm.5 5.311h.01z" fill="#785ae6"/><path d="m39.5 41.236c-.183 0-.359-.101-.447-.276-.123-.247-.023-.547.224-.671 1.956-.978 3.94-2.202 3.961-2.214.235-.146.543-.073.688.163.145.235.072.543-.163.688-.02.013-2.042 1.26-4.039 2.258-.073.035-.149.052-.224.052z" fill="#785ae6"/><path d="m56.5 63h-43c-.276 0-.5-.224-.5-.5v-8c0-4.105 0-10.309 4.276-12.447l6-3c.248-.123.547-.024.671.224.123.247.023.547-.224.671l-6 3c-3.723 1.861-3.723 7.693-3.723 11.552v7.5h42v-7.5c0-4.889 0-8.75-3.8-11.6-.84-.629-1.791-1.264-2.828-1.886-.237-.142-.314-.449-.172-.686.144-.237.452-.312.686-.171 1.066.64 2.047 1.293 2.914 1.943 4.2 3.15 4.2 7.437 4.2 12.4v8c0 .276-.224.5-.5.5z" fill="#785ae6"/><path d="m37.5 51c-.827 0-1.5-.673-1.5-1.5s.673-1.5 1.5-1.5 1.5.673 1.5 1.5-.673 1.5-1.5 1.5zm0-2c-.275 0-.5.224-.5.5s.225.5.5.5.5-.224.5-.5-.225-.5-.5-.5z" fill="#8d7bd4"/><path d="m25.5 51c-.827 0-1.5-.673-1.5-1.5s.673-1.5 1.5-1.5 1.5.673 1.5 1.5-.673 1.5-1.5 1.5zm0-2c-.275 0-.5.224-.5.5s.225.5.5.5.5-.224.5-.5-.225-.5-.5-.5z" fill="#8d7bd4"/><path d="m37.5 59c-.276 0-.5-.224-.5-.5v-9c0-.276.224-.5.5-.5s.5.224.5.5v9c0 .276-.224.5-.5.5z" fill="#f0f0e6"/><circle cx="37.5" cy="59" fill="#f0f0e6" r="1"/><path d="m25.5 59c-.276 0-.5-.224-.5-.5v-9c0-.276.224-.5.5-.5s.5.224.5.5v9c0 .276-.224.5-.5.5z" fill="#f0f0e6"/><circle cx="25.5" cy="59" fill="#f0f0e6" r="1"/><path d="m34.5 48.996c-.04 0-.081-.005-.121-.015-.222-.056-.379-.252-.379-.481 0-4.622 3.932-7.383 5-8.048v-13.952c0-.276.224-.5.5-.5s.5.224.5.5v5.515c4.008.232 8.941 3.191 9.985 7.364.277 1.108.15 2.092-.376 2.924-1.365 2.158-5.079 2.901-9.012 3.687-4.626.925-5.645 2.722-5.654 2.74-.089.166-.261.266-.443.266zm5.5-15.979v7.72c0 .182-.099.349-.258.438-.042.023-3.815 2.163-4.601 5.943.911-.7 2.517-1.558 5.261-2.107 3.552-.71 7.226-1.445 8.362-3.241.38-.6.462-1.303.25-2.147-.905-3.623-5.381-6.37-9.014-6.606z" fill="#785ae6"/><path d="m29.444 44c-.276 0-.5-.224-.5-.5v-9c0-.276.224-.5.5-.5s.5.224.5.5v9c0 .276-.223.5-.5.5z" fill="#785ae6"/><path d="m44.5 17.5h7s1-3-7-3z" fill="#826ec8"/><path d="m52.123 17.353c.985-.598-.683-2.853-7.623-2.853v1c4.636 0 6.91 1.006 7.623 1.853z" fill="#8d7bd4"/><path d="m19.5 17.5s-1 1.586-1 3c0 1 1 0 1 0s0 3 2 4v-7z" fill="#e678a0"/><path d="m19.5 17.5s-.583.93-.858 2h2.858v-2z" fill="#d2648c"/><path d="m44.5 17c0 8.5-1 7.5-1.791 9.453-.29.717-.209 1.445-.209 2.047 0 3-1.387 2.911-4.193 2.911v-13.911z" fill="#e678a0"/><path d="m38.771 31.911c-.075 0-.151 0-.229 0h-.236c-.276 0-.5-.224-.5-.5v-13.911c0-.261.2-.478.46-.499l6.193-.5c.141-.009.276.036.379.131s.162.228.162.368c0 6.704-.637 7.674-1.312 8.701-.182.277-.354.538-.516.939-.201.496-.189 1.018-.178 1.523l.006.337c0 1.59-.384 2.512-1.243 2.987-.73.403-1.686.424-2.986.424zm.036-13.95v12.95c1.096 0 1.961-.021 2.466-.299.36-.199.727-.605.727-2.112l-.005-.314c-.013-.549-.028-1.233.25-1.92.2-.493.416-.822.607-1.113.573-.873 1.115-1.698 1.146-7.61z" fill="#785ae6"/><path d="m44.5 17-6.193.5v2l6.138.495c.034-.844.055-1.821.055-2.995z" fill="#d2648c"/><path d="m21.5 17.5v11c0 3.314 2.686 6 6 6h5c3.866 0 7-3.134 7-7v-1h2c1.657 0 3-1.343 3-3v-2c0-1.657-1.343-3-3-3h-2l-3-1z" fill="#e1a271"/><path d="m38.305 31.914c-.097 0-.194-.028-.28-.086-.229-.154-.289-.465-.134-.694.725-1.074 1.109-2.331 1.109-3.634v-1c0-.276.224-.5.5-.5s.5.224.5.5v1c0 1.503-.443 2.953-1.281 4.193-.097.143-.254.221-.414.221z" fill="#785ae6"/><path d="m41.5 18.5h-2l-3-1h-15v2h15l3 1h2c1.657 0 3 1.343 3 3v-2c0-1.657-1.343-3-3-3z" fill="#c88c5a"/><g fill="#785ae6"><path d="m23.5 25c-.276 0-.5-.224-.5-.5v-3c0-.276.224-.5.5-.5s.5.224.5.5v3c0 .276-.224.5-.5.5z"/><path d="m30.5 31h-5c-.276 0-.5-.224-.5-.5s.224-.5.5-.5h5c.402 0 .494-.275.5-.506.007-.273.245-.479.506-.491.274.004.494.224.494.497 0 .603-.399 1.5-1.5 1.5z"/><path d="m25.5 28c-1.153 0-2.5-.393-2.5-1.5 0-1.064 1.71-4.538 2.053-5.224.124-.248.425-.346.671-.224.247.124.347.424.224.671-.809 1.618-1.948 4.169-1.948 4.777 0 .301.902.5 1.5.5.276 0 .5.224.5.5s-.224.5-.5.5z"/><path d="m30.5 25c-.276 0-.5-.224-.5-.5v-3c0-.276.224-.5.5-.5s.5.224.5.5v3c0 .276-.224.5-.5.5z"/><path d="m33.5 21c-.128 0-.256-.049-.354-.146-2.586-2.585-4.228-1.062-4.296-.997-.197.192-.513.188-.706-.008-.191-.196-.192-.508.002-.702.023-.023 2.394-2.314 5.707 1 .195.195.195.512 0 .707-.097.097-.225.146-.353.146z"/><path d="m24.5 20c-.127 0-.254-.048-.352-.145-.112-.108-1.126-1.035-2.344-.083-.215.169-.532.132-.701-.086-.171-.217-.132-.532.086-.702 1.556-1.216 3.077-.425 3.664.162.195.195.195.512 0 .707-.097.098-.225.147-.353.147z"/></g><path d="m35.538 17.5s.962 2 .962 4 0 3 1 3 3.008-3 3.008-7z" fill="#e678a0"/><path d="m40.336 19.5c.107-.629.172-1.298.172-2h-4.97s.406.855.691 2z" fill="#d2648c"/><path d="m44.41 20.94c-.008 0-.016 0-.024 0-.275-.013-.488-.248-.475-.523.046-.958.065-2.079.06-3.426-.001-.276.222-.501.498-.502h.002c.275 0 .499.223.5.498.006 1.365-.015 2.502-.062 3.478-.013.266-.233.475-.499.475z" fill="#785ae6"/><path d="m39.5 28c-.276 0-.5-.224-.5-.5v-1c0-.276.224-.5.5-.5h2c1.379 0 2.5-1.122 2.5-2.5v-2c0-1.378-1.121-2.5-2.5-2.5h-1c-.276 0-.5-.224-.5-.5s.224-.5.5-.5h1c1.93 0 3.5 1.57 3.5 3.5v2c0 1.93-1.57 3.5-3.5 3.5h-1.5v.5c0 .276-.224.5-.5.5z" fill="#785ae6"/><path d="m32.5 35h-5c-3.584 0-6.5-2.916-6.5-6.5v-5c0-.276.224-.5.5-.5s.5.224.5.5v5c0 3.033 2.468 5.5 5.5 5.5h5c.276 0 .5.224.5.5s-.224.5-.5.5z" fill="#785ae6"/><path d="m34.5 3.5h-5c-5.523 0-10 4.477-10 10v4h25v-4c0-5.523-4.477-10-10-10z" fill="#826ec8"/><path d="m34.5 3.5h-5c-5.523 0-10 4.477-10 10v2c0-5.523 4.477-10 10-10h5c5.523 0 10 4.477 10 10v-2c0-5.523-4.477-10-10-10z" fill="#8d7bd4"/><path d="m44.5 18.021h-25c-.288 0-.521-.233-.521-.521v-4c0-5.801 4.72-10.521 10.521-10.521h5c5.802 0 10.521 4.72 10.521 10.521v4c0 .288-.233.521-.521.521zm-24.479-1.042h23.957v-3.479c0-5.227-4.252-9.479-9.479-9.479h-5c-5.227 0-9.479 4.252-9.479 9.479v3.479z" fill="#785ae6"/><path d="m29.5 8.5h-1c-2.761 0-5 2.239-5 5v1h11v-1c0-2.761-2.239-5-5-5z" fill="#e678a0"/><g fill="#785ae6"><path d="m34.5 15.021h-11c-.288 0-.521-.233-.521-.521v-1c0-3.044 2.477-5.521 5.521-5.521h1c3.045 0 5.521 2.477 5.521 5.521v1c0 .288-.233.521-.521.521zm-10.479-1.042h9.957v-.479c0-2.47-2.009-4.479-4.479-4.479h-1c-2.47 0-4.479 2.009-4.479 4.479v.479z"/><path d="m36 18.021h-1.5c-.288 0-.521-.233-.521-.521s.233-.521.521-.521h1.5c.54 0 .979-.439.979-.979s-.439-.979-.979-.979h-1.5c-.288 0-.521-.233-.521-.521s.233-.521.521-.521h1.5c1.114 0 2.021.907 2.021 2.021s-.907 2.021-2.021 2.021z"/><path d="m51.5 18.021h-7c-.288 0-.521-.233-.521-.521s.233-.521.521-.521h7c.247 0 .357-.061.376-.082-.01 0-.044-.111-.202-.274-.75-.774-3.029-1.601-7.174-1.601-.288 0-.521-.233-.521-.521s.233-.521.521-.521c2.598 0 4.773.319 6.293.922 1.344.533 2.115 1.271 2.115 2.023 0 .545-.435 1.096-1.408 1.096z"/><path d="m21.5 25.021c-.079 0-.158-.018-.233-.055-1.533-.767-2.039-2.483-2.206-3.552-.192.064-.396.076-.591-.005-.224-.093-.491-.326-.491-.909 0-1.547 1.036-3.208 1.08-3.278.154-.243.477-.315.719-.163.243.153.316.475.164.719-.009.013-.789 1.269-.905 2.441.035-.03.067-.06.096-.088.148-.148.37-.195.566-.113.195.08.322.27.323.48 0 .027.028 2.693 1.712 3.535.257.129.361.442.232.699-.091.184-.276.289-.466.289z"/></g></svg>