<svg enable-background="new 0 0 64 64" height="512" viewBox="0 0 64 64" width="512" xmlns="http://www.w3.org/2000/svg"><path d="m43.5 37.5s5 2 9 5 4 7 4 12 0 8 0 8h-43s0-4 0-8 0-10 4-12 6-3 6-3z" fill="#e678a0"/><path d="m52.5 42.5c-4-3-9-5-9-5l-20 2s-2 1-6 3-4 8-4 12v2c0-4 0-10 4-12s6-3 6-3l20-2s5 2 9 5 4 7 4 12c0-.626 0-1.29 0-2 0-5 0-9-4-12z" fill="#fa8cb4"/><path d="m13.5 62.5h43s0-.708 0-2h-43z" fill="#d2648c"/><path d="m29.5 38.5-4 2 2.008 7.09 3.992.91 5.027-1.676 7.973-8.324-5-1z" fill="#ffb4be"/><path d="m31.5 47.5c-1.122 0-2.231-.313-3-.59v15.59h6v-14-1.59c-.769.277-1.878.59-3 .59z" fill="#b4aaf0"/><path d="m29.445 34.5v9h10.055v-16.76z" fill="#ffb4be"/><path d="m39.5 44c-.276 0-.5-.224-.5-.5v-11.76c0-.276.224-.5.5-.5s.5.224.5.5v11.76c0 .276-.224.5-.5.5z" fill="#785ae6"/><path d="m46.5 63c-.276 0-.5-.224-.5-.5v-12c0-.276.224-.5.5-.5s.5.224.5.5v12c0 .276-.224.5-.5.5z" fill="#d2648c"/><path d="m17.5 63c-.276 0-.5-.224-.5-.5v-12c0-.276.224-.5.5-.5s.5.224.5.5v12c0 .276-.224.5-.5.5z" fill="#d2648c"/><path d="m34.5 63c-.276 0-.5-.224-.5-.5v-14c0-.276.224-.5.5-.5s.5.224.5.5v14c0 .276-.224.5-.5.5z" fill="#785ae6"/><path d="m28.5 63c-.276 0-.5-.224-.5-.5v-14c0-.276.224-.5.5-.5s.5.224.5.5v14c0 .276-.224.5-.5.5z" fill="#785ae6"/><path d="m34.5 48.5s1-2 6-3 10-2 9-6-6-7-10-7v8.236s-5 2.764-5 7.764z" fill="#e678a0"/><path d="m49.476 41.424c.186-.552.208-1.187.024-1.924-1-4-6-7-10-7v2c3.974 0 8.932 2.963 9.976 6.924z" fill="#fa8cb4"/><path d="m29.5 38.5s-3 2-2 5 1 5 1 5c-3-4-6-5-5-9s5-7 6-7z" fill="#e678a0"/><path d="m28.5 49c-.154 0-.304-.072-.4-.2-.868-1.157-1.744-2.066-2.517-2.868-1.866-1.937-3.34-3.466-2.568-6.553 1.027-4.107 5.137-7.379 6.429-7.379.276 0 .5.224.5.5v6c0 .165-.082.32-.218.413-.107.073-2.618 1.832-1.752 4.429 1.014 3.042 1.026 5.073 1.026 5.158 0 .215-.138.406-.342.474-.052.018-.105.026-.158.026zm.444-15.811c-1.253.683-4.139 3.151-4.959 6.432-.637 2.549.476 3.704 2.319 5.617.478.496.994 1.032 1.527 1.644-.134-.827-.375-1.932-.805-3.223-.831-2.491.785-4.536 1.918-5.413zm.5 5.311h.01z" fill="#785ae6"/><path d="m39.5 41.236c-.184 0-.36-.101-.448-.276-.124-.247-.023-.547.224-.671 1.956-.978 3.941-2.202 3.961-2.214.234-.145.542-.073.688.163.145.235.072.543-.163.688-.02.013-2.042 1.26-4.039 2.258-.071.035-.147.052-.223.052z" fill="#785ae6"/><path d="m56.5 63h-43c-.276 0-.5-.224-.5-.5v-8c0-4.105 0-10.309 4.276-12.447l6-3c.247-.123.546-.023.671.224.124.247.023.547-.224.671l-6 3c-3.723 1.861-3.723 7.693-3.723 11.552v7.5h42v-7.5c0-4.889 0-8.75-3.8-11.6-.837-.628-1.789-1.262-2.829-1.886-.237-.142-.313-.449-.171-.686.142-.236.448-.313.686-.171 1.069.641 2.049 1.294 2.914 1.943 4.2 3.15 4.2 7.437 4.2 12.4v8c0 .276-.224.5-.5.5z" fill="#785ae6"/><path d="m37.5 51c-.827 0-1.5-.673-1.5-1.5s.673-1.5 1.5-1.5 1.5.673 1.5 1.5-.673 1.5-1.5 1.5zm0-2c-.276 0-.5.224-.5.5s.224.5.5.5.5-.224.5-.5-.224-.5-.5-.5z" fill="#d2648c"/><path d="m25.5 51c-.827 0-1.5-.673-1.5-1.5s.673-1.5 1.5-1.5 1.5.673 1.5 1.5-.673 1.5-1.5 1.5zm0-2c-.276 0-.5.224-.5.5s.224.5.5.5.5-.224.5-.5-.224-.5-.5-.5z" fill="#d2648c"/><g fill="#f0f0e6"><path d="m37.5 59c-.276 0-.5-.224-.5-.5v-9c0-.276.224-.5.5-.5s.5.224.5.5v9c0 .276-.224.5-.5.5z"/><circle cx="37.5" cy="59" r="1"/><path d="m25.5 59c-.276 0-.5-.224-.5-.5v-9c0-.276.224-.5.5-.5s.5.224.5.5v9c0 .276-.224.5-.5.5z"/><circle cx="25.5" cy="59" r="1"/></g><path d="m34.5 48.996c-.04 0-.08-.005-.12-.015-.223-.056-.38-.252-.38-.481 0-4.622 3.932-7.383 5-8.048v-13.952c0-.276.224-.5.5-.5s.5.224.5.5v5.515c4.008.232 8.942 3.191 9.985 7.364.277 1.108.151 2.092-.375 2.924-1.366 2.158-5.08 2.901-9.011 3.687-4.627.925-5.645 2.722-5.654 2.74-.091.166-.263.266-.445.266zm5.5-15.979v7.72c0 .182-.099.349-.258.438-.042.023-3.815 2.163-4.6 5.943.91-.7 2.516-1.558 5.26-2.107 3.553-.71 7.226-1.445 8.362-3.241.38-.6.462-1.303.251-2.147-.906-3.623-5.382-6.37-9.015-6.606z" fill="#785ae6"/><path d="m40.126 18.5c-.457 2.069-1.332 5-2.626 5-2 0-2-6-2-6s-8 0-10 0c-.665 0-2.169.196-3.565.131-2.995-.138-6.435-2.126-6.435-6.131 0-6 2-8 3-7s3 3 4 3c0 0-1.581-2.419 0-4 1-1 3 4 7 4s15-1 15 6-2 12-2 15-1.387 2.911-4.193 2.911z" fill="#cb783f"/><path d="m42.431 27.5c-.297 1.898-1.572 1.913-3.842 1.911l-.282 2c2.807 0 4.193.089 4.193-2.911 0-.308.033-.65.07-1z" fill="#be6432"/><path d="m35.5 16.5c0-.552-.448-1-1-1h-9c-.665 0-2.169.196-3.565.131-2.816-.13-6.024-1.896-6.398-5.436-.022.415-.037.844-.037 1.305 0 4.005 3.44 5.992 6.435 6.131 1.396.065 2.9-.131 3.565-.131h10z" fill="#be6432"/><path d="m22.5 5.5c1-1 3 4 7 4 3.859 0 14.228-.928 14.956 5.29.015-.43.044-.844.044-1.29 0-7-11-6-15-6s-6-5-7-4c-.866.866-.782 1.981-.53 2.815.11-.284.276-.561.53-.815z" fill="#dc8c50"/><path d="m18.5 6.5c1 1 3 3 4 3 0 0-.684-1.055-.698-2.226-1.057-.539-2.499-1.971-3.302-2.774-1-1-3 1-3 7 0 .196.031.368.047.552.294-4.863 2.039-6.466 2.953-5.552z" fill="#dc8c50"/><path d="m21.5 17.5v11c0 3.314 2.686 6 6 6h5c3.866 0 7-3.134 7-7v-1h2c1.657 0 3-1.343 3-3v-2c0-1.657-1.343-3-3-3h-2l-3-1z" fill="#ffc8d2"/><path d="m23.5 25c-.276 0-.5-.224-.5-.5v-3c0-.276.224-.5.5-.5s.5.224.5.5v3c0 .276-.224.5-.5.5z" fill="#785ae6"/><path d="m33.5 21c-.128 0-.256-.049-.354-.146-2.588-2.586-4.228-1.062-4.296-.997-.198.191-.514.188-.706-.008s-.192-.508.001-.702c.023-.023 2.391-2.316 5.707 1 .195.195.195.512 0 .707-.096.097-.224.146-.352.146z" fill="#785ae6"/><path d="m24.5 20c-.127 0-.255-.048-.353-.145-.116-.114-1.127-1.032-2.342-.082-.22.169-.533.131-.702-.086-.17-.218-.131-.532.086-.702 1.555-1.216 3.077-.426 3.664.162.195.195.195.512 0 .707-.097.097-.225.146-.353.146z" fill="#785ae6"/><path d="m40.126 18.5c-.457 2.069-1.332 5-2.626 5-2 0-2-7-2-7z" fill="#cb783f"/><g fill="#785ae6"><path d="m41.5 27h-2c-.276 0-.5-.224-.5-.5s.224-.5.5-.5h2c1.378 0 2.5-1.122 2.5-2.5v-2c0-1.378-1.122-2.5-2.5-2.5h-1c-.276 0-.5-.224-.5-.5s.224-.5.5-.5h1c1.93 0 3.5 1.57 3.5 3.5v2c0 1.93-1.57 3.5-3.5 3.5z"/><path d="m32.5 35h-5c-3.584 0-6.5-2.916-6.5-6.5v-11c0-.276.224-.5.5-.5s.5.224.5.5v11c0 3.033 2.467 5.5 5.5 5.5h5c.276 0 .5.224.5.5s-.224.5-.5.5z"/><path d="m30.5 31h-5c-.276 0-.5-.224-.5-.5s.224-.5.5-.5h5c.403 0 .494-.275.5-.506.007-.273.19-.492.506-.491.274.004.494.224.494.497 0 .603-.399 1.5-1.5 1.5z"/><path d="m25.5 28c-1.153 0-2.5-.393-2.5-1.5 0-1.064 1.71-4.538 2.053-5.224.124-.247.423-.346.671-.224.247.124.347.424.224.671-.809 1.618-1.948 4.169-1.948 4.777 0 .301.903.5 1.5.5.276 0 .5.224.5.5s-.224.5-.5.5z"/><path d="m30.5 25c-.276 0-.5-.224-.5-.5v-3c0-.276.224-.5.5-.5s.5.224.5.5v3c0 .276-.224.5-.5.5z"/><path d="m39.5 31.905c-.271 0-.495-.217-.5-.49-.005-.276.214-.504.49-.51 1.86-.037 2.51-.242 2.51-2.405 0-.578.069-1.255.216-2.13.046-.272.298-.453.576-.41.272.046.456.304.41.576-.138.819-.202 1.443-.202 1.964 0 3.084-1.581 3.367-3.49 3.405-.004 0-.007 0-.01 0z"/><path d="m44.004 20.192c-.025 0-.051-.002-.077-.006-.273-.042-.46-.297-.418-.57.33-2.145.491-4.146.491-6.116 0-1.324-.415-2.375-1.269-3.21-2.559-2.506-8.373-2.384-11.846-2.31-.519.01-.987.02-1.385.02-2.566 0-4.36-1.869-5.547-3.105-.405-.422-.959-1-1.161-1.027-1.21 1.257.071 3.274.126 3.36.1.154.107.35.02.511-.086.16-.255.261-.438.261-1.114 0-2.831-1.624-4.354-3.146-.105-.105-.2-.125-.334-.068-.728.301-1.812 2.338-1.812 6.714 0 2.77 1.88 4.519 5.588 5.199.271.05.451.31.401.582-.049.272-.305.457-.582.401-4.191-.768-6.407-2.906-6.407-6.182 0-4.896 1.309-7.174 2.43-7.639.511-.212 1.031-.108 1.424.285.496.496 1.704 1.703 2.653 2.378-.307-.964-.429-2.309.64-3.378.185-.185.412-.277.661-.279.591.006 1.126.563 1.867 1.334 1.133 1.182 2.685 2.799 4.825 2.799.393 0 .853-.01 1.364-.021 3.629-.077 9.707-.205 12.566 2.596 1.042 1.02 1.57 2.34 1.57 3.925 0 2.022-.165 4.072-.502 6.269-.039.247-.251.423-.494.423z"/></g></svg>