<svg enable-background="new 0 0 64 64" height="512" viewBox="0 0 64 64" width="512" xmlns="http://www.w3.org/2000/svg"><path d="m43.5 37.5s5 2 9 5 4 7 4 12 0 8 0 8h-43s0-4 0-8 0-10 4-12 6-3 6-3l2-1s0-1 0-2c0-2 3.319-3.75 8.159-3.75s7.841.75 7.841 1.75 0 2 0 2z" fill="#e678a0"/><path d="m32.5 43.5h10v14h-10z" fill="#aad2ff"/><g fill="#785ae6"><path d="m42.5 58h-10c-.276 0-.5-.224-.5-.5v-14c0-.276.224-.5.5-.5h10c.276 0 .5.224.5.5v14c0 .276-.224.5-.5.5zm-9.5-1h9v-13h-9z"/><path d="m32.5 60c-.276 0-.5-.224-.5-.5v-2c0-.276.224-.5.5-.5s.5.224.5.5v2c0 .276-.224.5-.5.5z"/><path d="m34.5 60c-.276 0-.5-.224-.5-.5v-2c0-.276.224-.5.5-.5s.5.224.5.5v2c0 .276-.224.5-.5.5z"/><path d="m36.5 60c-.276 0-.5-.224-.5-.5v-2c0-.276.224-.5.5-.5s.5.224.5.5v2c0 .276-.224.5-.5.5z"/><path d="m38.5 60c-.276 0-.5-.224-.5-.5v-2c0-.276.224-.5.5-.5s.5.224.5.5v2c0 .276-.224.5-.5.5z"/><path d="m40.5 60c-.276 0-.5-.224-.5-.5v-2c0-.276.224-.5.5-.5s.5.224.5.5v2c0 .276-.224.5-.5.5z"/><path d="m42.5 60c-.276 0-.5-.224-.5-.5v-2c0-.276.224-.5.5-.5s.5.224.5.5v2c0 .276-.224.5-.5.5z"/></g><path d="m17.5 42.5c-4 2-4 8-4 12v2c0-4 0-10 4-12s6-3 6-3l2-1s0-1 0-2l-2 1s-2 1-6 3z" fill="#fa8cb4"/><path d="m33.659 32.75c-4.841 0-8.159 1.75-8.159 3.75v2c0-2 3.319-3.75 8.159-3.75 4.841 0 7.841.75 7.841 1.75 0 0 0-1 0-2s-3-1.75-7.841-1.75z" fill="#e678a0"/><path d="m52.5 42.5c-4-3-9-5-9-5l-2-1v2l2 1s5 2 9 5 4 7 4 12c0-.626 0-1.29 0-2 0-5 0-9-4-12z" fill="#fa8cb4"/><path d="m13.5 62.5h43s0-.708 0-2h-43z" fill="#d2648c"/><path d="m46.5 63c-.276 0-.5-.224-.5-.5v-12c0-.276.224-.5.5-.5s.5.224.5.5v12c0 .276-.224.5-.5.5z" fill="#d2648c"/><path d="m17.5 63c-.276 0-.5-.224-.5-.5v-12c0-.276.224-.5.5-.5s.5.224.5.5v12c0 .276-.224.5-.5.5z" fill="#d2648c"/><path d="m56.5 63h-43c-.276 0-.5-.224-.5-.5v-8c0-4.105 0-10.309 4.276-12.447l7.724-3.862v-1.691c0-2.423 3.723-4.25 8.659-4.25 2.508 0 8.341.22 8.341 2.25v1.691l1.705.853c.396.159 5.174 2.115 9.095 5.056 4.2 3.15 4.2 7.436 4.2 12.4v8c0 .276-.224.5-.5.5zm-42.5-1h42v-7.5c0-4.889 0-8.75-3.8-11.6-3.898-2.924-8.836-4.916-8.886-4.937-.013-.005-.026-.011-.038-.017l-2-1c-.169-.084-.276-.257-.276-.446v-2c-.042-.32-1.929-1.25-7.341-1.25-4.731 0-7.659 1.687-7.659 3.25v2c0 .189-.107.362-.276.447l-8 4c-3.724 1.862-3.724 7.694-3.724 11.553z" fill="#785ae6"/><path d="m41.5 4.5c-1.408.152-2.498.249-3.419.128l1.419-2.128-1-1c-1.12.56-1.612 1.747-1.829 2.683-.334-.178-.655-.402-.968-.707-3.779-3.678-10.607-1.468-11.017 3.592s3.843 6.167 3.843 6.167l11.907 3.1s6.804 1.771 7.465-4.256c.661-6.028-3.598-7.882-6.401-7.579z" fill="#e678a0"/><path d="m35.703 5.476c.313.305.634.529.968.707.217-.936.709-2.123 1.829-2.683l.2.2.8-1.2-1-1c-1.12.56-1.612 1.747-1.829 2.683-.334-.178-.655-.402-.968-.707-3.779-3.678-10.607-1.468-11.017 3.592-.051.63-.029 1.199.047 1.712.645-4.849 7.265-6.91 10.97-3.304z" fill="#fa8cb4"/><path d="m38.081 6.628c.921.12 2.011.024 3.419-.128 2.43-.263 5.947 1.1 6.413 5.391.549-5.873-3.64-7.691-6.413-7.391-.801.087-1.491.149-2.114.17z" fill="#fa8cb4"/><path d="m42.573 17.081c-1.235 0-2.189-.242-2.264-.262l-11.906-3.101c-.046-.012-4.654-1.274-4.216-6.69.198-2.45 1.795-4.468 4.271-5.397 2.659-.998 5.64-.414 7.593 1.487.104.102.212.195.325.282.386-1.11 1.035-1.915 1.9-2.348.193-.095.424-.058.577.094l1 1c.168.169.195.433.062.631l-.937 1.405h.025c.705 0 1.514-.079 2.441-.18 1.468-.156 3.591.227 5.148 1.786 1.027 1.028 2.174 2.964 1.803 6.345-.195 1.777-.912 3.104-2.13 3.943-1.149.795-2.542 1.005-3.692 1.005zm-11.47-14.932c-.766 0-1.544.137-2.293.418-2.104.789-3.459 2.487-3.625 4.541-.369 4.564 3.315 5.602 3.472 5.644l11.905 3.101c.03.008 3.133.785 5.143-.601.966-.668 1.538-1.754 1.7-3.228.259-2.364-.265-4.275-1.517-5.529-1.308-1.309-3.095-1.633-4.333-1.498-1.395.151-2.542.256-3.537.128-.172-.022-.319-.132-.391-.289s-.057-.341.039-.484l1.191-1.788-.435-.435c-.745.531-1.098 1.45-1.264 2.167-.035.152-.139.278-.281.343-.143.065-.305.06-.442-.015-.403-.216-.757-.474-1.081-.789-1.131-1.101-2.667-1.686-4.251-1.686zm10.397 2.351h.01z" fill="#785ae6"/><path d="m29.445 34.5v7h.055 9v-10.76z" fill="#ffb4be"/><path d="m39.026 30.733c2.974-1.733 4.474-5.233 4.474-5.233l1-11s3-3-1-6-8.962-.607-13.481-3.803v9.803z" fill="#746da3"/><path d="m21.5 14.5v14c0 3.314 2.686 6 6 6h5c3.866 0 7-3.134 7-7v-1h2c1.657 0 3-1.343 3-3v-2c0-1.657-1.343-3-3-3h-2l-3-4z" fill="#ffc8d2"/><path d="m45.414 12.929c.364-1.15.274-2.788-1.914-4.429-4-3-8.962-.607-13.481-3.804v2c4.519 3.197 9.481.804 13.481 3.804 1.109.832 1.668 1.661 1.914 2.429z" fill="#8278b4"/><path d="m22.788 14.5s-1.957 0-2.935-4 1.957-7 2.935-8 1.957 1 2.935 2c0 0 0-2 .978-2s2.935 2 5.871 4 3.914 5 2.935 8z" fill="#746da3"/><path d="m22.788 4.5c.978-1 1.957 1 2.935 2 0 0 0-2 .978-2s2.935 3.378 6.454 3.864c.667.092 1.393.128 2.009.144-.543-.849-1.617-1.343-2.593-2.008-2.935-2-4.892-4-5.871-4-.978 0-.978 2-.978 2-.978-1-1.957-3-2.935-2-.928.948-3.608 3.696-3.051 7.388.404-2.672 2.301-4.62 3.052-5.388z" fill="#8278b4"/><path d="m25.5 15c-.095 0-.191-.027-.277-.084-3.186-2.124-3.223-5.282-3.223-5.416 0-.275.223-.498.498-.499h.002c.274 0 .498.223.5.497.001.112.051 2.769 2.777 4.586.23.153.292.464.139.693-.096.145-.255.223-.416.223z" fill="#8278b4"/><path d="m30.616 15c-.13 0-.259-.05-.357-.15-1.99-2.034-2.985-4.045-3.027-4.13-.121-.248-.019-.547.229-.669.249-.12.547-.02.669.229.01.019.972 1.957 2.844 3.87.193.197.189.514-.008.707-.098.095-.224.143-.35.143z" fill="#8278b4"/><path d="m35.5 14.5c2 2 2 7 3 8s2-1 2-5v-3z" fill="#746da3"/><g fill="#785ae6"><path d="m22.5 15c-.098 0-2.403-.05-3.485-4.379-1.069-4.274 2.092-7.436 3.131-8.475.297-.297.64-.446.992-.417.77.042 1.368.791 2.002 1.583.002.003.004.006.007.009.201-.732.621-1.321 1.353-1.321.787 0 1.788.765 3.304 1.922.294.225.605.463.934.709.221.166.266.479.1.7s-.478.267-.7.101c-.332-.249-.645-.488-.941-.715-1.156-.883-2.248-1.717-2.697-1.717-.301 0-.5.902-.5 1.5 0 .202-.122.385-.309.462-.186.077-.401.035-.545-.108-.27-.27-.533-.599-.787-.916-.402-.503-.953-1.191-1.276-1.21-.025-.001-.098-.005-.229.126-.94.939-3.8 3.8-2.869 7.525.876 3.502 2.51 3.62 2.526 3.621.271.013.489.24.482.512s-.222.488-.493.488z"/><path d="m44.013 20.361c-.015 0-.03-.001-.046-.002-.275-.025-.478-.269-.453-.543l.487-5.361c.011-.115.062-.225.143-.308.011-.01 1.03-1.062.928-2.438-.074-.988-.704-1.934-1.873-2.81-1.855-1.392-3.959-1.553-6.187-1.723-2.398-.184-4.879-.373-7.283-2.073-.226-.159-.279-.472-.12-.697.159-.226.472-.28.697-.119 2.179 1.541 4.519 1.72 6.782 1.893 2.272.174 4.622.354 6.71 1.919 1.415 1.062 2.179 2.256 2.271 3.549.107 1.513-.752 2.672-1.088 3.063l-.472 5.194c-.022.261-.24.456-.496.456z"/><path d="m39.026 31.233c-.172 0-.339-.089-.433-.248-.139-.239-.058-.545.18-.684 2.244-1.308 3.612-3.682 4.096-4.642.124-.248.424-.346.671-.222s.346.425.221.671c-.524 1.04-2.01 3.613-4.485 5.056-.078.048-.164.069-.25.069z"/><path d="m23.5 25c-.276 0-.5-.224-.5-.5v-3c0-.276.224-.5.5-.5s.5.224.5.5v3c0 .276-.224.5-.5.5z"/><path d="m33.5 21c-.128 0-.256-.049-.354-.146-2.588-2.587-4.228-1.063-4.296-.997-.198.19-.514.188-.706-.008-.192-.195-.192-.508.001-.702.023-.023 2.391-2.315 5.707 1 .195.195.195.512 0 .707-.096.097-.224.146-.352.146z"/><path d="m24.5 20c-.127 0-.254-.048-.352-.145-.111-.108-1.123-1.033-2.343-.083-.218.172-.532.131-.702-.086-.17-.218-.131-.531.086-.701 1.554-1.218 3.076-.426 3.664.161.195.195.195.512 0 .707-.097.098-.225.147-.353.147z"/><path d="m30.5 31h-5c-.276 0-.5-.224-.5-.5s.224-.5.5-.5h5c.403 0 .494-.275.5-.506.007-.271.229-.491.5-.491.002 0 .004 0 .006.001.274.003.494.223.494.496 0 .603-.399 1.5-1.5 1.5z"/><path d="m25.5 28c-1.153 0-2.5-.393-2.5-1.5 0-1.064 1.71-4.538 2.053-5.224.124-.246.423-.348.671-.224.247.124.347.424.224.671-.809 1.618-1.948 4.169-1.948 4.777 0 .301.903.5 1.5.5.276 0 .5.224.5.5s-.224.5-.5.5z"/><path d="m30.5 25c-.276 0-.5-.224-.5-.5v-3c0-.276.224-.5.5-.5s.5.224.5.5v3c0 .276-.224.5-.5.5z"/><path d="m38.5 38.412c-.276 0-.5-.224-.5-.5v-6.172c0-.276.224-.5.5-.5s.5.224.5.5v6.172c0 .276-.224.5-.5.5z"/><path d="m29.5 42c-.276 0-.5-.224-.5-.5v-7c0-.276.224-.5.5-.5s.5.224.5.5v7c0 .276-.224.5-.5.5z"/></g><path d="m39.5 35.5s-3 2-7 2-5-1-5-1v6h12z" fill="#e678a0"/><path d="m20.5 40.5s0-2 2-3 5 4 11 3 6-4 10-5 4 3 4 3 2.45-.55 5 2c2 2 3 6-10 11s-22 0-25-4-3-6 3-7z" fill="#aad2ff"/><path d="m20.5 42.5s0-2 2-3 5 4 11 3 6-4 10-5 4 3 4 3 2.451-.549 5 2c.425.425.803.941 1.013 1.536.495-1.486-.167-2.69-1.013-3.536-2.549-2.549-5-2-5-2s0-4-4-3-4 4-10 5-9-4-11-3-2 3-2 3c-4.318.72-5.517 1.962-4.738 4.09.525-.966 2.002-1.634 4.738-2.09z" fill="#bee6ff"/><path d="m31.477 45.413c-7.435 0-11.18-4.376-11.361-4.593-.176-.212-.148-.526.064-.703.209-.177.526-.15.704.062.049.057 4.951 5.746 14.519 3.83.272-.056.534.121.588.393.054.271-.122.534-.392.588-1.481.296-2.856.423-4.122.423z" fill="#96bef0"/><path d="m35.5 49c-.224 0-.428-.151-.484-.379-.067-.268.096-.539.364-.606 10.608-2.652 11.616-9.51 11.625-9.579.035-.274.281-.469.561-.432.274.036.467.286.432.561-.041.309-1.112 7.604-12.375 10.421-.042.009-.083.014-.123.014z" fill="#96bef0"/><path d="m31.92 54.117c-7.72.001-12.819-3.649-14.82-6.317-1.848-2.463-2.399-3.973-1.903-5.21.487-1.217 1.987-1.999 4.843-2.518.114-.722.554-2.179 2.236-3.02 1.065-.533 2.171.136 3.572.98 1.874 1.129 4.207 2.534 7.57 1.974 3.271-.545 4.663-1.689 6.008-2.796 1.039-.854 2.112-1.736 3.953-2.196 1.358-.34 2.46-.188 3.279.452.904.706 1.199 1.821 1.295 2.485.931-.035 2.897.191 4.9 2.194 1.092 1.092 1.526 2.344 1.255 3.62-.583 2.749-4.429 5.508-11.429 8.2-4.002 1.541-7.6 2.152-10.759 2.152zm-8.842-16.248c-.129 0-.248.024-.354.078-1.704.852-1.724 2.536-1.724 2.553 0 .244-.177.453-.418.493-2.645.44-4.103 1.085-4.457 1.969-.338.844.209 2.151 1.774 4.238 2.663 3.551 11.194 8.922 24.42 3.833 8.301-3.192 10.46-5.826 10.81-7.475.2-.942-.131-1.853-.983-2.705-2.305-2.304-4.451-1.884-4.54-1.865-.148.035-.302-.005-.419-.101-.117-.094-.187-.236-.187-.387 0-.015-.019-1.518-.961-2.249-.563-.438-1.378-.528-2.418-.267-1.622.405-2.52 1.144-3.56 1.998-1.38 1.135-2.944 2.421-6.479 3.01-3.73.62-6.342-.953-8.25-2.104-.925-.556-1.692-1.019-2.254-1.019zm-2.578 2.631h.01z" fill="#785ae6"/><path d="m32.5 38c-4.089 0-5.236-1.029-5.354-1.146-.195-.195-.195-.512 0-.707s.512-.195.707 0c.001 0 1.006.854 4.646.854 3.805 0 6.694-1.896 6.723-1.916.229-.153.541-.091.693.139.153.229.091.54-.139.693-.126.084-3.172 2.083-7.276 2.083z" fill="#d2648c"/><path d="m41.5 27h-2c-.276 0-.5-.224-.5-.5s.224-.5.5-.5h2c1.378 0 2.5-1.121 2.5-2.5v-2c0-1.379-1.122-2.5-2.5-2.5h-1c-.276 0-.5-.224-.5-.5s.224-.5.5-.5h1c1.93 0 3.5 1.57 3.5 3.5v2c0 1.93-1.57 3.5-3.5 3.5z" fill="#785ae6"/><path d="m38.425 31.729c-.091 0-.183-.024-.266-.077-.233-.147-.304-.456-.156-.689.652-1.036.997-2.234.997-3.463v-1c0-.276.224-.5.5-.5s.5.224.5.5v1c0 1.419-.398 2.801-1.152 3.996-.095.15-.257.233-.423.233z" fill="#785ae6"/><path d="m32.5 35h-5c-3.584 0-6.5-2.916-6.5-6.5v-11c0-2.182 1.1-3.307 1.146-3.354.195-.195.512-.195.707 0s.195.512 0 .707c-.032.034-.853.902-.853 2.647v11c0 3.032 2.467 5.5 5.5 5.5h5c.276 0 .5.224.5.5s-.224.5-.5.5z" fill="#785ae6"/></svg>