<svg enable-background="new 0 0 64 64" height="512" viewBox="0 0 64 64" width="512" xmlns="http://www.w3.org/2000/svg"><path d="m19.5 16.5s-1-2-3-2c0 0 1-5 8-6 0 0-1-2-3-2 0 0 3-3 7 0 0 0 0-4 2-3s0 4 0 4 5-3 10 0 7 9 7 9-2-1-3 0c0 0 1 1 2 4 0 0-3 1-4 3s0 6-5 8l-16-11z" fill="#cb783f"/><g fill="#dc8c50"><path d="m30.5 9.5s5-3 10 0c2.977 1.786 4.883 4.629 5.945 6.643.59.129 1.055.357 1.055.357s-2-6-7-9c-3.734-2.241-7.467-1.135-9.118-.431-.041 1.163-.882 2.431-.882 2.431z"/><path d="m28.5 8.5s0-4 2-3c.322.161.531.377.671.62.319-.926.425-2.072-.671-2.62-2-1-2 3-2 3-4-3-7 0-7 0 .901 0 1.588.409 2.083.855 1.244-.352 2.959-.323 4.917 1.145z"/><path d="m24.5 10.5s-.549-1.086-1.638-1.657c-5.509 1.477-6.362 5.657-6.362 5.657.303 0 .576.056.833.134.969-1.531 3.001-3.539 7.167-4.134z"/></g><path d="m37.5 32c-.1 0-.198-.03-.283-.088l-16-11c-.069-.048-.126-.113-.164-.188l-1.999-3.999c-.019-.035-.905-1.725-2.554-1.725-.149 0-.292-.067-.387-.183s-.133-.268-.104-.415c.042-.21 1.072-4.986 7.641-6.266-.413-.5-1.137-1.136-2.15-1.136-.202 0-.385-.122-.462-.309s-.034-.402.108-.545c.032-.031 2.974-2.9 6.906-.55.097-.872.371-2.081 1.14-2.555.307-.19.824-.342 1.531.011.56.28.936.729 1.087 1.299.184.689.02 1.453-.217 2.086 1.894-.73 5.506-1.561 9.163.634 5.101 3.06 7.134 9.019 7.218 9.271.063.191.006.403-.146.535-.15.132-.368.161-.551.071-.014-.007-1.232-.59-2.044-.323.406.579 1.079 1.731 1.741 3.717.087.262-.055.545-.316.632-.027.009-2.817.962-3.711 2.75-.238.477-.354 1.113-.486 1.85-.368 2.038-.871 4.83-4.775 6.391-.06.023-.124.035-.186.035zm-15.61-11.839 15.67 10.773c3.164-1.366 3.563-3.58 3.917-5.539.141-.778.273-1.514.576-2.119.839-1.679 2.885-2.685 3.816-3.071-.883-2.467-1.717-3.346-1.726-3.354-.19-.196-.19-.511.003-.705.698-.697 1.713-.655 2.481-.477-.792-1.792-2.805-5.593-6.385-7.741-4.673-2.804-9.439-.028-9.486 0-.201.12-.457.084-.618-.084-.161-.169-.184-.427-.055-.622.289-.436.989-1.756.76-2.616-.079-.296-.259-.506-.567-.66-.356-.179-.503-.089-.559-.056-.492.306-.716 1.711-.717 2.61 0 .189-.107.362-.276.447-.171.085-.373.067-.524-.047-2.407-1.805-4.389-1.259-5.468-.671 1.455.562 2.178 1.974 2.215 2.048.072.144.07.313-.004.456-.075.143-.214.24-.373.263-5.271.753-6.943 3.81-7.415 5.067 1.842.357 2.75 2.131 2.792 2.214z" fill="#785ae6"/><path d="m43.5 37.5s5 2 9 5 4 7 4 12 0 8 0 8h-43s0-4 0-8 0-10 4-12 6-3 6-3z" fill="#f0dc78"/><path d="m13.5 62.5h43s0-.708 0-2h-43z" fill="#dcc864"/><path d="m52.5 42.5c-4-3-9-5-9-5l-20 2s-2 1-6 3-4 8-4 12v2c0-4 0-10 4-12s7-4 7-4l18-1s6 2 10 5 4 7 4 12c0-.626 0-1.29 0-2 0-5 0-9-4-12z" fill="#ffe885"/><path d="m46.5 63c-.276 0-.5-.224-.5-.5v-12c0-.276.224-.5.5-.5s.5.224.5.5v12c0 .276-.224.5-.5.5z" fill="#dcc864"/><path d="m17.5 63c-.276 0-.5-.224-.5-.5v-12c0-.276.224-.5.5-.5s.5.224.5.5v12c0 .276-.224.5-.5.5z" fill="#dcc864"/><path d="m38.5 33.912v-1.172l-9.055 3.76v-.695l-5.945 3.695 1.532 6.892c.185.832 1.258 1.066 1.773.387l2.64-3.482v.203h.055 3l5.929 4.235c.538.385 1.295.15 1.521-.472l3.55-9.763z" fill="#dcc864"/><path d="m29.445 34.5v7h.055 9v-10.76z" fill="#c88c5a"/><path d="m21.5 12.5v16c0 3.314 2.686 6 6 6h5c3.866 0 7-3.134 7-7v-1h2c1.657 0 3-1.343 3-3v-2c0-1.657-1.343-3-3-3h-2l-3-6z" fill="#e1a271"/><g fill="#785ae6"><path d="m23.5 25c-.276 0-.5-.224-.5-.5v-3c0-.276.224-.5.5-.5s.5.224.5.5v3c0 .276-.224.5-.5.5z"/><path d="m33.5 21c-.128 0-.256-.049-.354-.146-2.586-2.585-4.228-1.062-4.296-.997-.197.192-.513.188-.706-.008-.191-.196-.192-.508.002-.702.023-.023 2.394-2.314 5.707 1 .195.195.195.512 0 .707-.097.097-.225.146-.353.146z"/><path d="m24.5 20c-.127 0-.254-.048-.352-.145-.112-.108-1.126-1.035-2.344-.083-.215.169-.532.133-.701-.086-.171-.217-.132-.532.086-.702 1.556-1.216 3.077-.425 3.664.162.195.195.195.512 0 .707-.097.098-.225.147-.353.147z"/><path d="m32.5 35h-5c-3.584 0-6.5-2.916-6.5-6.5v-9c0-.276.224-.5.5-.5s.5.224.5.5v9c0 3.033 2.468 5.5 5.5 5.5h5c.276 0 .5.224.5.5s-.224.5-.5.5z"/><path d="m30.5 31h-5c-.276 0-.5-.224-.5-.5s.224-.5.5-.5h5c.402 0 .494-.275.5-.506.007-.273.245-.505.506-.491.274.004.494.224.494.497 0 .603-.399 1.5-1.5 1.5z"/><path d="m25.5 28c-1.153 0-2.5-.393-2.5-1.5 0-1.064 1.71-4.538 2.053-5.224.124-.248.425-.345.671-.224.247.124.347.424.224.671-.809 1.618-1.948 4.169-1.948 4.777 0 .301.902.5 1.5.5.276 0 .5.224.5.5s-.224.5-.5.5z"/><path d="m30.5 25c-.276 0-.5-.224-.5-.5v-3c0-.276.224-.5.5-.5s.5.224.5.5v3c0 .276-.224.5-.5.5z"/></g><path d="m32.5 41.5 6.003 4.288c.515.368 1.238.171 1.495-.408l3.502-7.88-5-3.588z" fill="#f0f0e6"/><path d="m29.445 41.297v-5.491l-5.945 3.694 1.45 5.076c.226.792 1.261.986 1.758.329z" fill="#f0f0e6"/><path d="m42.812 39.049.688-1.549-5-3.588-1.203 1.522z" fill="#fffffa"/><path d="m23.5 39.5.485 1.698 5.46-3.393v-2z" fill="#fffffa"/><path d="m56.5 63h-43c-.276 0-.5-.224-.5-.5v-8c0-4.105 0-10.309 4.276-12.447l6-3 5.668-3.525v-1.028c0-.276.224-.5.5-.5s.5.224.5.5v1.305c0 .173-.089.333-.236.425l-5.944 3.695-6.04 3.022c-3.724 1.862-3.724 7.694-3.724 11.553v7.5h42v-7.5c0-4.889 0-8.75-3.8-11.6-3.898-2.924-8.837-4.916-8.886-4.936-.038-.015-.073-.035-.106-.058l-5-3.588c-.131-.094-.208-.245-.208-.406v-3.172c0-.276.224-.5.5-.5s.5.224.5.5v2.915l4.743 3.404c.595.242 5.233 2.173 9.057 5.041 4.2 3.15 4.2 7.437 4.2 12.4v8c0 .276-.224.5-.5.5z" fill="#785ae6"/><path d="m31.5 54.5h-1c-.552 0-1-.448-1-1v-12h3v12c0 .552-.448 1-1 1z" fill="#f0f0e6"/><path d="m29.5 42c-.276 0-.5-.224-.5-.5v-7c0-.276.224-.5.5-.5s.5.224.5.5v7c0 .276-.224.5-.5.5z" fill="#785ae6"/><path d="m21.5 17.5v-6h19v5c0 5-2 8-2 8l-3-7c-3-1-6-4-6-4-1 1 0 3 0 3-3 0-5-3-5-3s-2 2-3 4z" fill="#cb783f"/><path d="m38.503 31.603c-.088 0-.177-.023-.258-.071-.236-.143-.313-.45-.171-.687.606-1.008.926-2.164.926-3.345v-1c0-.276.224-.5.5-.5h2c1.379 0 2.5-1.122 2.5-2.5v-2c0-1.378-1.121-2.5-2.5-2.5h-1c-.276 0-.5-.224-.5-.5s.224-.5.5-.5h1c1.93 0 3.5 1.57 3.5 3.5v2c0 1.93-1.57 3.5-3.5 3.5h-1.5v.5c0 1.362-.369 2.697-1.068 3.86-.094.156-.26.243-.429.243z" fill="#785ae6"/></svg>