<svg enable-background="new 0 0 64 64" height="512" viewBox="0 0 64 64" width="512" xmlns="http://www.w3.org/2000/svg"><path d="m29.445 34.5v5.027c-.274.132-2.24 1.047-5.945 1.973-8.289 2.072-10 5-10 13v8h43s0-3 0-8c0 0 1-10-6-12s-12-4-12-4v-7.76z" fill="#96bef0"/><path d="m29.445 34.5v7h.055 9v-10.76z" fill="#ffb4be"/><path d="m19.5 16.5s-1-2-3-2c0 0 1-5 8-6 0 0-1-2-3-2 0 0 3-3 7 0 0 0 0-4 2-3s0 4 0 4 5-3 10 0 7 9 7 9-2-1-3 0c0 0 1 1 2 4 0 0-3 1-4 3s0 6-5 8l-16-11z" fill="#cb783f"/><path d="m30.5 9.5s5-3 10 0c2.977 1.786 4.883 4.629 5.945 6.643.59.129 1.055.357 1.055.357s-2-6-7-9c-3.734-2.241-7.467-1.135-9.118-.431-.041 1.163-.882 2.431-.882 2.431z" fill="#dc8c50"/><path d="m28.5 8.5s0-4 2-3c.322.161.531.377.671.62.319-.926.425-2.072-.671-2.62-2-1-2 3-2 3-4-3-7 0-7 0 .901 0 1.588.409 2.083.855 1.244-.352 2.959-.323 4.917 1.145z" fill="#dc8c50"/><path d="m24.5 10.5s-.549-1.086-1.638-1.657c-5.509 1.477-6.362 5.657-6.362 5.657.303 0 .576.056.833.134.969-1.531 3.001-3.539 7.167-4.134z" fill="#dc8c50"/><path d="m38.501 31.532c-.177 0-.349-.095-.439-.261-.132-.242-.042-.546.2-.679 2.526-1.375 2.892-3.405 3.215-5.197.141-.778.273-1.514.576-2.119.839-1.679 2.885-2.685 3.817-3.07-.883-2.468-1.717-3.346-1.726-3.355-.19-.195-.191-.511.002-.704.698-.697 1.712-.652 2.481-.477-.792-1.793-2.805-5.593-6.385-7.741-4.673-2.805-9.439-.027-9.486 0-.202.12-.458.084-.618-.084-.161-.169-.184-.427-.055-.622.29-.436.99-1.756.76-2.615-.079-.297-.259-.506-.567-.66-.359-.181-.503-.089-.559-.056-.492.304-.716 1.709-.717 2.608 0 .189-.107.362-.277.447s-.372.066-.523-.047c-2.406-1.805-4.388-1.261-5.467-.672 1.455.562 2.177 1.974 2.214 2.048.072.144.07.313-.004.456-.075.142-.213.24-.372.263-5.271.753-6.944 3.81-7.416 5.067 1.842.356 2.75 2.13 2.792 2.214l2 4c.124.247.023.547-.224.671-.247.125-.547.023-.671-.224l-2-4c-.007-.015-.894-1.723-2.552-1.723-.15 0-.292-.067-.387-.183s-.133-.269-.104-.415c.042-.211 1.072-4.986 7.64-6.267-.412-.498-1.137-1.135-2.149-1.135-.202 0-.385-.122-.462-.309-.078-.187-.035-.402.108-.545.031-.031 2.979-2.898 6.906-.55.098-.873.372-2.081 1.14-2.556.309-.189.823-.342 1.532.012.56.28.936.729 1.087 1.299.183.689.02 1.453-.217 2.086 1.892-.729 5.503-1.562 9.164.634 5.1 3.06 7.133 9.019 7.217 9.271.064.191.006.402-.146.535-.153.132-.371.159-.55.07-.015-.008-1.24-.591-2.043-.322.405.578 1.078 1.73 1.74 3.717.087.262-.054.545-.315.633-.028.009-2.817.961-3.711 2.749-.239.478-.354 1.113-.486 1.85-.345 1.913-.775 4.294-3.721 5.898-.079.041-.161.06-.242.06z" fill="#785ae6"/><path d="m21.5 12.5v16c0 3.314 2.686 6 6 6h5c3.866 0 7-3.134 7-7v-1h2c1.657 0 3-1.343 3-3v-2c0-1.657-1.343-3-3-3h-2l-3-6z" fill="#ffc8d2"/><g fill="#785ae6"><path d="m23.5 25c-.276 0-.5-.224-.5-.5v-3c0-.276.224-.5.5-.5s.5.224.5.5v3c0 .276-.224.5-.5.5z"/><path d="m33.5 21c-.128 0-.256-.049-.354-.146-2.588-2.586-4.228-1.063-4.296-.997-.198.19-.514.188-.706-.008-.192-.195-.192-.508.001-.702.023-.023 2.391-2.315 5.707 1 .195.195.195.512 0 .707-.096.097-.224.146-.352.146z"/><path d="m24.5 20c-.127 0-.254-.048-.352-.145-.111-.108-1.123-1.032-2.343-.083-.218.172-.532.13-.702-.086-.17-.218-.131-.531.086-.701 1.554-1.218 3.076-.426 3.664.161.195.195.195.512 0 .707-.097.098-.225.147-.353.147z"/><path d="m32.5 35h-5c-3.584 0-6.5-2.916-6.5-6.5v-9c0-.276.224-.5.5-.5s.5.224.5.5v9c0 3.032 2.467 5.5 5.5 5.5h5c.276 0 .5.224.5.5s-.224.5-.5.5z"/><path d="m30.5 31h-5c-.276 0-.5-.224-.5-.5s.224-.5.5-.5h5c.403 0 .494-.275.5-.506.007-.271.229-.491.5-.491.002 0 .004 0 .006.001.274.003.494.223.494.496 0 .603-.399 1.5-1.5 1.5z"/><path d="m25.5 28c-1.153 0-2.5-.393-2.5-1.5 0-1.064 1.71-4.538 2.053-5.224.124-.247.423-.348.671-.224.247.124.347.424.224.671-.809 1.618-1.948 4.169-1.948 4.777 0 .301.903.5 1.5.5.276 0 .5.224.5.5s-.224.5-.5.5z"/><path d="m30.5 25c-.276 0-.5-.224-.5-.5v-3c0-.276.224-.5.5-.5s.5.224.5.5v3c0 .276-.224.5-.5.5z"/></g><path d="m21.5 17.5v-6h19v5c0 5-2 8-2 8l-3-7c-3-1-6-4-6-4-1 1 0 3 0 3-3 0-5-3-5-3s-2 2-3 4z" fill="#cb783f"/><path d="m38.591 35.464c-.271 0-.494-.217-.5-.488l-.088-3.861c-.002-.095.023-.188.072-.27.605-1.007.925-2.163.925-3.345v-1c0-.276.224-.5.5-.5h2c1.378 0 2.5-1.121 2.5-2.5v-2c0-1.379-1.122-2.5-2.5-2.5h-1c-.276 0-.5-.224-.5-.5s.224-.5.5-.5h1c1.93 0 3.5 1.57 3.5 3.5v2c0 1.93-1.57 3.5-3.5 3.5h-1.5v.5c0 1.313-.343 2.602-.994 3.733l.085 3.719c.006.276-.212.505-.489.512-.003 0-.007 0-.011 0z" fill="#785ae6"/><path d="m39.5 40.5s4 2 11 4c4.855 1.387 5.861 6.62 6.022 9.698.099-1.673.259-9.904-6.022-11.698-7-2-11-4-11-4z" fill="#aad2ff"/><path d="m23.5 43.5c3.704-.926 5.671-1.841 5.945-1.973v-2c-.274.132-2.24 1.047-5.945 1.973-8.289 2.072-10 5-10 13v2c0-8 1.711-10.928 10-13z" fill="#aad2ff"/><path d="m13.5 62.5h15s-1-.708-1-2h-14z" fill="#82aadc"/><path d="m27.129 40.437s1.371.063 1.371-1.937 0-2 0-2 7-.577 11-1.789v3.789l1 2-9 22h-3l-3-5v-14z" fill="#8d7bd4"/><path d="m27.3 60.5 1.2 2h3l.818-2z" fill="#826ec8"/><path d="m23.5 50.5-4 3c1 4 3 9 3 9h5.924c-4.924-15-.924-23-.924-23l-5 1s-2 3-3 9z" fill="#aad2ff"/><path d="m26.758 41.686c.375-1.44.742-2.186.742-2.186l-5 1s-.569.86-1.25 2.563z" fill="#bee6ff"/><path d="m27.5 60.5h-5.762c.444 1.203.762 2 .762 2h5.924c-.009-.029-.016-.055-.025-.084-.25-.214-.899-.869-.899-1.916z" fill="#96bef0"/><path d="m28.423 63h-5.923c-.205 0-.388-.124-.464-.314-.02-.05-2.024-5.077-3.021-9.064-.049-.195.024-.4.185-.521l3.159-2.369-2.98-.745c-.253-.063-.415-.311-.372-.567.592-3.551 1.531-6.074 2.215-7.565.115-.251.41-.362.663-.246.251.114.361.411.246.662-.629 1.372-1.484 3.656-2.059 6.859l3.549.887c.188.047.331.197.369.387.038.188-.036.383-.19.499l-3.733 2.8c.854 3.287 2.338 7.181 2.774 8.3h4.896c-3.737-11.845-1.975-19.226-1.029-21.879.092-.26.376-.401.639-.303.26.093.396.379.303.639-.725 2.032-2.777 9.617 1.249 21.884.05.152.024.319-.07.449-.095.13-.246.207-.406.207z" fill="#82aadc"/><path d="m31.5 62.5h25s0-.708 0-2h-24c0 1.217-1 2-1 2z" fill="#82aadc"/><path d="m40.223 38.286s-6.358 15.214-8.541 24.214h6.031s4.786-8 6.786-10l-4-2 5-2-1-9z" fill="#aad2ff"/><path d="m44.775 41.975-.275-2.475-4.277-1.214s-.32.766-.839 2.049z" fill="#bee6ff"/><path d="m32.5 60.5c0 .833-.464 1.454-.76 1.769-.019.076-.04.156-.058.231h6.031s.492-.822 1.223-2z" fill="#96bef0"/><path d="m37.713 63h-6.031c-.153 0-.298-.07-.393-.19-.095-.121-.129-.278-.093-.428 1.968-8.114 7.318-21.268 8.371-23.821.105-.256.4-.379.653-.271.255.104.377.397.272.652-1.021 2.478-6.107 14.979-8.17 23.058h5.108c.77-1.276 4.269-7.021 6.254-9.349l-3.409-1.704c-.175-.088-.283-.271-.275-.468s.131-.37.314-.443l4.646-1.859-.835-7.516c-.03-.274.167-.522.442-.553.28-.03.522.169.552.441l.877 7.895c.025.224-.103.437-.312.52l-3.966 1.587 3.004 1.502c.144.072.244.209.27.367s-.026.32-.14.434c-1.934 1.934-6.664 9.824-6.711 9.903-.089.15-.252.243-.428.243z" fill="#82aadc"/><path d="m46.5 63c-.276 0-.5-.224-.5-.5v-12c0-.276.224-.5.5-.5s.5.224.5.5v12c0 .276-.224.5-.5.5z" fill="#82aadc"/><path d="m17.5 63c-.276 0-.5-.224-.5-.5v-12c0-.276.224-.5.5-.5s.5.224.5.5v12c0 .276-.224.5-.5.5z" fill="#82aadc"/><g fill="#785ae6"><path d="m56.5 63h-43c-.276 0-.5-.224-.5-.5v-8c0-7.167 1.231-10.741 8.53-12.976.265-.081.544.068.625.332.081.265-.068.544-.332.625-6.141 1.879-7.823 4.463-7.823 12.019v7.5h42v-7.5c.012-.146.875-9.658-5.637-11.52-2.039-.582-4.027-1.224-5.91-1.905-.26-.094-.394-.38-.3-.64.094-.261.381-.394.64-.3 1.862.673 3.828 1.307 5.845 1.884 7.317 2.09 6.371 12.426 6.36 12.53l.002 7.951c0 .276-.224.5-.5.5z"/><path d="m29.444 36.894c-.276 0-.5-.224-.5-.5v-1.894c0-.276.224-.5.5-.5s.5.224.5.5v1.894c0 .276-.223.5-.5.5z"/><path d="m21.676 42.561c-.069 0-.141-.015-.208-.046-.251-.115-.361-.411-.246-.662.488-1.064.847-1.607.862-1.63.073-.11.188-.187.318-.213l5-1c.187-.042.378.035.495.187s.136.355.051.526c-.008.016-.128.263-.298.737-.092.26-.381.396-.639.303-.245-.087-.379-.345-.317-.592l-3.882.776c-.133.225-.38.667-.681 1.321-.085.184-.266.293-.455.293z"/><path d="m44.622 41.105c-.251 0-.468-.189-.497-.445l-.085-.771-3.525-1.001-.022.054c-.052.127-.154.227-.282.275-.129.051-.271.045-.395-.014l-.53-.251c-.175-.083-.286-.259-.286-.452v-3.126c-3.466.931-8.462 1.441-10 1.584v1.542c0 .863-.229 1.52-.68 1.95-.525.502-1.14.501-1.213.486-.276-.012-.489-.246-.477-.521.013-.273.218-.465.514-.478.021 0 .279-.005.497-.221.234-.234.359-.654.359-1.216v-2c0-.26.2-.477.459-.498.069-.006 6.994-.587 10.896-1.769.152-.047.317-.017.443.077.127.094.202.244.202.402v3.126c.108-.054.237-.068.36-.034l4.277 1.215c.195.056.338.225.36.427l.123 1.105c.03.274-.167.521-.442.552-.019.001-.038.002-.056.002z"/></g></svg>