<svg enable-background="new 0 0 64 64" height="512" viewBox="0 0 64 64" width="512" xmlns="http://www.w3.org/2000/svg"><path d="m23.199 39.65c-.695.347-2.595 1.297-5.699 2.85-4 2-4 8-4 12s0 8 0 8h43s0-3 0-8 0-9-4-12c-2.912-2.184-6.354-3.838-8.011-4.576z" fill="#aad2ff"/><path d="m52.5 42.5c-2.912-2.184-6.354-3.838-8.011-4.576l-21.29 1.726c-.695.347-2.595 1.297-5.699 2.85-4 2-4 8-4 12v2c0-4 0-10 4-12 3.105-1.552 5.004-2.502 5.699-2.85l21.289-1.727c1.657.738 5.099 2.392 8.011 4.576 4 3 4 7 4 12 0-.626 0-1.29 0-2 .001-4.999.001-8.999-3.999-11.999z" fill="#bee6ff"/><path d="m39.568 34.678c3.067.178 3.932-3.178 3.932-3.178 6 1 5-6 5-6 6 0 5-4 5-4-6 0-5-7-6-11s-5-5-5-5c3 0 2-2-1-3-9-3-11 2-11 2s-1-3-6-2-6 9-9 9c0 0 1 2 3 1 0 0-3 4-3 8s2 5 2 7-3 3-3 3 1 2 4 1c0 0 1 3 6 1z" fill="#f0f0e6"/><path d="m42.5 7.5s4 1 5 5c.986 3.942.043 10.784 5.758 10.982.487-.994.242-1.982.242-1.982-6 0-5-7-6-11-.57-2.279-2.112-3.582-3.335-4.283.403.696-.041 1.283-1.665 1.283z" fill="#fffffa"/><path d="m48.5 27.5s.004.029.008.066c.002-.023.003-.044.006-.067-.005 0-.009.001-.014.001z" fill="#fffffa"/><path d="m17.034 12.735c1.99-2.024 3.416-7.425 7.466-8.235 5-1 6 2 6 2s2-5 11-2c.773.258 1.41.582 1.883.921 1.852-.376.768-2.037-1.883-2.921-9-3-11 2-11 2s-1-3-6-2-6 9-9 9c0 0 .513 1.016 1.534 1.235z" fill="#fffffa"/><path d="m39.796 35.185c-.084 0-.17-.003-.257-.008-.014-.001-.029-.002-.042-.004l-14.937-2.159c-2.014.783-3.67.885-4.922.305-.742-.344-1.168-.855-1.394-1.221-3.059.806-4.18-1.352-4.191-1.374-.064-.13-.07-.28-.015-.414s.166-.237.303-.284c.74-.249 2.659-1.187 2.659-2.526 0-.706-.304-1.287-.688-2.023-.585-1.119-1.312-2.511-1.312-4.977 0-2.888 1.461-5.723 2.378-7.218-.604-.01-1.084-.249-1.428-.507-.578-.434-.866-.99-.897-1.052-.078-.155-.069-.339.022-.486s.252-.237.425-.237c1.067 0 1.945-1.514 2.962-3.266 1.326-2.286 2.978-5.132 5.94-5.725 3.683-.736 5.385.569 6.104 1.507 1.033-1.391 3.993-3.876 11.152-1.491 2.041.681 3.302 1.812 3.139 2.817-.045.28-.199.589-.593.816 1.337.715 3.132 2.126 3.78 4.72.239.956.364 2.043.496 3.193.419 3.653.852 7.429 5.02 7.429.229 0 .429.156.485.379.016.064.383 1.592-.637 2.897-.821 1.052-2.266 1.627-4.301 1.713.065 1.102.02 3.557-1.466 5.008-.9.879-2.156 1.232-3.732 1.057-.474 1.288-1.746 3.131-4.053 3.131zm-.178-1.005c2.571.132 3.367-2.685 3.398-2.806.066-.25.313-.413.566-.367 1.449.241 2.559-.002 3.298-.723 1.554-1.516 1.129-4.683 1.125-4.714-.02-.144.023-.289.118-.398s.232-.172.377-.172c2 0 3.366-.45 4.06-1.339.467-.598.522-1.27.501-1.673-4.652-.262-5.162-4.708-5.574-8.302-.128-1.118-.249-2.173-.472-3.065-.913-3.649-4.486-4.598-4.637-4.637-.245-.062-.405-.296-.374-.546.032-.25.244-.438.496-.438 1.035 0 1.3-.254 1.311-.317.039-.239-.639-1.099-2.469-1.708-8.394-2.799-10.301 1.528-10.379 1.714-.08.193-.268.305-.48.31-.208-.007-.391-.142-.457-.34-.036-.102-.959-2.562-5.428-1.668-2.521.504-3.982 3.023-5.271 5.246-.952 1.641-1.798 3.099-2.962 3.589.377.358 1.01.678 1.912.228.209-.101.458-.052.607.127.148.178.155.435.016.62-.029.039-2.9 3.918-2.9 7.7 0 2.221.636 3.438 1.198 4.514.412.788.802 1.534.802 2.485 0 1.709-1.719 2.754-2.693 3.209.455.402 1.382.865 3.035.316.264-.088.545.056.632.316.009.023.257.697 1.108 1.081 1.004.451 2.466.319 4.232-.387.082-.033.171-.043.257-.031z" fill="#785ae6"/><path d="m39.45 31.678c.492.138 1.176.385 2.05.822 2 1 3 5 3 5 0 5-4 8-4 8s-.233-.408-.615-1.027l.013-.008c-2.611 2.435-5.909 4.471-9.398 4.035-4.639-.58-5.916-4.186-6.169-7.114l-.028-.024c-.987 1.118-1.803 2.138-1.803 2.138s.473-5.672 3.043-9.217z" fill="#f0f0e6"/><path d="m25.543 36.283 13.907-2.605c.492.138 1.176.385 2.05.822 1.58.79 2.533 3.445 2.865 4.529.082-.488.135-.994.135-1.529 0 0-1-4-3-5-.875-.437-1.558-.683-2.05-.822l-13.907 2.605c-2.57 3.545-3.043 9.217-3.043 9.217s.146-.182.381-.467c.398-1.963 1.181-4.707 2.662-6.75z" fill="#fffffa"/><path d="m29.445 34.5v8.282l4.586-4.041 5.469-3.241v-8.76z" fill="#ffb4be"/><path d="m21.5 17.5v11c0 3.314 2.686 6 6 6h5c3.314 0 7-1.988 7-8h2c1.657 0 3-1.343 3-3v-2c0-1.657-1.343-3-3-3h-2l-5-4z" fill="#ffc8d2"/><path d="m13.5 62.5h43s0-.708 0-2h-43z" fill="#96bef0"/><path d="m46.5 63c-.276 0-.5-.224-.5-.5v-12c0-.276.224-.5.5-.5s.5.224.5.5v12c0 .276-.224.5-.5.5z" fill="#96bef0"/><path d="m17.5 63c-.276 0-.5-.224-.5-.5v-12c0-.276.224-.5.5-.5s.5.224.5.5v12c0 .276-.224.5-.5.5z" fill="#96bef0"/><g fill="#785ae6"><path d="m23.5 25c-.276 0-.5-.224-.5-.5v-3c0-.276.224-.5.5-.5s.5.224.5.5v3c0 .276-.224.5-.5.5z"/><path d="m33.5 21c-.128 0-.256-.049-.354-.146-2.588-2.587-4.228-1.063-4.296-.997-.198.189-.514.189-.706-.008-.192-.195-.192-.508.001-.702.023-.023 2.391-2.315 5.707 1 .195.195.195.512 0 .707-.096.097-.224.146-.352.146z"/><path d="m24.5 20c-.127 0-.254-.048-.352-.145-.111-.108-1.123-1.033-2.343-.083-.218.171-.532.131-.702-.086-.17-.218-.131-.531.086-.701 1.554-1.216 3.076-.426 3.664.161.195.195.195.512 0 .707-.097.098-.225.147-.353.147z"/><path d="m41.5 27h-2c-.276 0-.5-.224-.5-.5s.224-.5.5-.5h2c1.378 0 2.5-1.121 2.5-2.5v-2c0-1.379-1.122-2.5-2.5-2.5h-1c-.276 0-.5-.224-.5-.5s.224-.5.5-.5h1c1.93 0 3.5 1.57 3.5 3.5v2c0 1.93-1.57 3.5-3.5 3.5z"/></g><path d="m21.5 17.5c0-4 2-7 4-5s3 2 5 0 6-1 7 2c1.304 3.912 2 4 3 4z" fill="#ffc8d2"/><g fill="#785ae6"><path d="m32.5 35h-5c-3.584 0-6.5-2.916-6.5-6.5v-11c0-.276.224-.5.5-.5s.5.224.5.5v11c0 3.032 2.467 5.5 5.5 5.5h5c.276 0 .5.224.5.5s-.224.5-.5.5z"/><path d="m25.5 28c-1.153 0-2.5-.393-2.5-1.5 0-1.064 1.71-4.538 2.053-5.224.124-.247.423-.349.671-.224.247.124.347.424.224.671-.809 1.618-1.948 4.169-1.948 4.777 0 .301.903.5 1.5.5.276 0 .5.224.5.5s-.224.5-.5.5z"/><path d="m30.5 25c-.276 0-.5-.224-.5-.5v-3c0-.276.224-.5.5-.5s.5.224.5.5v3c0 .276-.224.5-.5.5z"/><path d="m39.5 32.412c-.276 0-.5-.224-.5-.5v-5.172c0-.276.224-.5.5-.5s.5.224.5.5v5.172c0 .276-.224.5-.5.5z"/></g><path d="m31.465 49.06c-.345 0-.687-.021-1.027-.063-4.971-.621-6.336-4.458-6.605-7.567-.024-.274.18-.518.455-.541.281-.02.517.18.541.455.346 3.987 2.275 6.229 5.733 6.661 2.812.352 5.839-.961 8.996-3.904.202-.188.518-.178.707.024.188.202.177.519-.025.706-3.014 2.81-5.961 4.229-8.775 4.229z" fill="#96bef0"/><path d="m22.5 44c-.062 0-.125-.012-.185-.035-.204-.082-.332-.287-.313-.507.006-.071.153-1.783.713-3.934.07-.268.347-.43.61-.357.268.069.428.343.358.609-.195.748-.338 1.446-.442 2.034 1.522-1.8 3.41-3.81 4.259-3.81.351 0 1.081 0 2.832 3.848.114.251.003.548-.248.662-.251.116-.547.004-.662-.248-1.373-3.017-1.942-3.259-1.966-3.268-.512.125-2.788 2.597-4.565 4.818-.098.122-.243.188-.391.188z" fill="#dcdcd2"/><path d="m26.306 46.987c-.11 0-.221-.036-.313-.111-.215-.173-.249-.487-.075-.703 4.375-5.423 7.263-8.173 8.582-8.173 1.953 0 5.016 4.85 6.13 6.729.959-.889 3.202-3.326 3.361-6.828.013-.276.243-.52.522-.477.275.012.489.246.477.521-.224 4.925-4.028 7.832-4.19 7.954-.115.085-.263.118-.401.089-.141-.028-.262-.116-.333-.241-1.602-2.801-4.387-6.747-5.566-6.747-.751 0-3.456 2.412-7.805 7.802-.098.122-.243.185-.389.185z" fill="#dcdcd2"/><path d="m34.5 39c-.184 0-.36-.102-.448-.276-.124-.247-.023-.547.224-.671 2.377-1.189 5.724-3.388 5.724-4.553 0-.276.224-.5.5-.5s.5.224.5.5c0 2.197-5.229 4.923-6.276 5.447-.072.036-.148.053-.224.053z" fill="#dcdcd2"/><path d="m25.5 28.5s-3 3-4 3 1 2 4 0c0 0 1 1 2 1s2-1 2-1 2.151 2.276 6 0c1.128-.667-.816-.369-2-1.187s-2-1.813-2-1.813z" fill="#f0f0e6"/><path d="m32.255 33.003c-1.323 0-2.258-.505-2.741-.849-.428.343-1.194.846-2.014.846-.845 0-1.633-.534-2.052-.877-2.047 1.212-3.639.748-4.281.256-.508-.391-.445-.779-.394-.928.036-.106.195-.451.727-.451.429 0 2.099-1.307 3.646-2.854.094-.093.221-.146.354-.146h6c.149 0 .292.067.387.183.007.01.79.954 1.897 1.719.44.304 1.053.436 1.5.532.522.112.974.209 1.047.66s-.366.712-.578.837c-1.355.801-2.53 1.072-3.498 1.072zm-2.755-2.003h.008c.135.003.263.059.355.156.071.074 1.77 1.766 4.89.184-.48-.111-1.049-.278-1.538-.616-.934-.645-1.643-1.386-1.944-1.724h-5.565c-.713.703-2.344 2.24-3.498 2.795.602.174 1.681.178 3.014-.711.197-.134.461-.106.63.062.24.238 1.003.854 1.648.854s1.408-.616 1.647-.854c.094-.093.221-.146.353-.146z" fill="#785ae6"/><path d="m26.3 18.265c-.619 0-1.109-.441-1.482-.777-.149-.133-.397-.356-.493-.375-.271.04-.516-.15-.555-.424s.162-.527.435-.566c.513-.078.902.281 1.281.622.372.335.655.564.894.511.239-.059.577-.271.935-.494.818-.511 1.836-1.145 3.033-.903.271.056.445.32.389.591-.055.271-.317.442-.59.39-.803-.171-1.6.332-2.302.771-.428.269-.833.521-1.228.617-.108.025-.214.037-.317.037z" fill="#ffb4be"/><path d="m23.2 40.15c-.042 0-.084-.005-.126-.017-.268-.069-.428-.342-.358-.609.592-2.271 1.407-4.134 2.422-5.534.162-.226.474-.273.698-.112.224.162.273.475.111.698-.942 1.301-1.704 3.05-2.264 5.2-.058.225-.262.374-.483.374z" fill="#785ae6"/><path d="m44.491 38.424c-.008 0-.016 0-.023-.001-.276-.012-.49-.246-.477-.521.005-.112.008-.226.009-.339-.286-1.097-1.282-3.895-2.724-4.615-.687-.343-1.321-.601-1.885-.766-.265-.077-.417-.354-.34-.62.077-.265.354-.415.62-.339.621.181 1.311.46 2.052.83 2.181 1.091 3.218 5.153 3.261 5.326.011.039.016.08.016.121 0 .15-.003.3-.01.446-.012.269-.234.478-.499.478z" fill="#785ae6"/><path d="m56.5 63h-43c-.276 0-.5-.224-.5-.5v-8c0-4.105 0-10.309 4.276-12.447l5.699-2.85c.247-.125.547-.022.671.224.124.247.023.547-.224.671l-5.699 2.85c-3.723 1.861-3.723 7.693-3.723 11.552v7.5h42v-7.5c0-4.889 0-8.75-3.8-11.6-2.835-2.128-6.176-3.745-7.915-4.52-.252-.112-.366-.408-.253-.66.112-.253.406-.365.66-.254 1.777.792 5.194 2.447 8.107 4.633 4.201 3.151 4.201 7.437 4.201 12.401v8c0 .276-.224.5-.5.5z" fill="#785ae6"/><path d="m27.331 47.875c-.097 0-.194-.028-.28-.086-.831-.564-1.517-1.316-2.039-2.234-.137-.24-.052-.546.188-.682.241-.14.546-.053.682.188.445.784 1.028 1.424 1.731 1.9.229.155.288.466.133.694-.098.143-.255.22-.415.22z" fill="#96bef0"/></svg>